<svg width="16" height="16" viewBox="0 0 16 16" fill="none" xmlns="http://www.w3.org/2000/svg">
<path fill-rule="evenodd" clip-rule="evenodd" d="M0 11.875C0 11.5989 0.223858 11.375 0.5 11.375C0.776142 11.375 1 11.5989 1 11.875V14.5C1 14.7761 1.22386 15 1.5 15H3.98438C4.26052 15 4.48438 15.2239 4.48438 15.5C4.48438 15.7761 4.26052 16 3.98438 16H1C0.447716 16 0 15.5523 0 15V11.875ZM12 1C11.7239 1 11.5 0.776142 11.5 0.5C11.5 0.223858 11.7239 0 12 0H15C15.5523 0 16 0.447715 16 1V4C16 4.27614 15.7761 4.5 15.5 4.5C15.2239 4.5 15 4.27614 15 4V1.5C15 1.22386 14.7761 1 14.5 1L12 1ZM4 0C4.27614 0 4.5 0.223857 4.5 0.499999C4.5 0.776142 4.27614 0.999999 4 0.999999L1.5 0.999999C1.22386 0.999999 1 1.22386 1 1.5L1 3.98437C1 4.26052 0.776142 4.48437 0.5 4.48437C0.223857 4.48437 0 4.26052 0 3.98437V1C0 0.447715 0.447715 0 1 0H4ZM15 12C15 11.7239 15.2239 11.5 15.5 11.5C15.7761 11.5 16 11.7239 16 12V15C16 15.5523 15.5523 16 15 16H12C11.7239 16 11.5 15.7761 11.5 15.5C11.5 15.2239 11.7239 15 12 15H14.5C14.7761 15 15 14.7761 15 14.5V12Z" fill="#364256"/>
<path fill-rule="evenodd" clip-rule="evenodd" d="M8.5 6.25H7.5V7.5L5 7.5C4.44772 7.5 4 7.94772 4 8.5V9.75H5V8.5L11 8.5V9.75H12V8.5C12 7.94772 11.5523 7.5 11 7.5L8.5 7.5V6.25Z" fill="#364256"/>
<path fill-rule="evenodd" clip-rule="evenodd" d="M6 3C6 2.72386 6.22386 2.5 6.5 2.5H9.5C9.77614 2.5 10 2.72386 10 3V6C10 6.27614 9.77614 6.5 9.5 6.5H6.5C6.22386 6.5 6 6.27614 6 6V3ZM2.5 10C2.5 9.72386 2.72386 9.5 3 9.5H6C6.27614 9.5 6.5 9.72386 6.5 10V13C6.5 13.2761 6.27614 13.5 6 13.5H3C2.72386 13.5 2.5 13.2761 2.5 13V10ZM10 9.5C9.72386 9.5 9.5 9.72386 9.5 10V13C9.5 13.2761 9.72386 13.5 10 13.5H13C13.2761 13.5 13.5 13.2761 13.5 13V10C13.5 9.72386 13.2761 9.5 13 9.5H10Z" fill="#364256"/>
</svg>
