<svg width="16" height="16" viewBox="0 0 16 16" fill="none" xmlns="http://www.w3.org/2000/svg">
<path fill-rule="evenodd" clip-rule="evenodd" d="M5.25062 1.44024C5.28751 1.11502 4.96993 0.800424 4.67542 0.943234C2.0413 2.22056 0.225098 4.92036 0.225098 8.04437C0.225098 8.6797 0.300215 9.29748 0.442051 9.88933C0.511638 10.1797 0.884782 10.2579 1.12758 10.0841C1.27113 9.98139 1.34745 9.80301 1.30752 9.63105C1.18913 9.1213 1.12655 8.59014 1.12655 8.04437C1.12655 5.29474 2.71508 2.91614 5.02447 1.77623C5.1516 1.71348 5.23465 1.58111 5.25062 1.44024ZM3.00666 14.0562C3.00658 14.0563 3.0065 14.0562 3.00643 14.0562C3.00625 14.056 3.00633 14.0557 3.00657 14.0557C3.35006 14.001 3.6603 13.8466 3.90664 13.6231C3.9067 13.623 3.9068 13.623 3.90686 13.6231C3.90695 13.6231 3.90696 13.6233 3.90688 13.6233C3.66053 13.847 3.35024 14.0015 3.00666 14.0562ZM4.58696 15.1019C4.32034 14.9685 4.32945 14.5869 4.5528 14.3894C4.68524 14.2723 4.87543 14.2392 5.03408 14.3172C5.9628 14.7739 7.00771 15.0303 8.11251 15.0303C9.25488 15.0303 10.3332 14.7561 11.2853 14.27C11.4165 14.2029 11.5719 14.2138 11.6969 14.2919C11.971 14.4631 12.0313 14.8986 11.7446 15.0476C10.6575 15.6125 9.42229 15.9318 8.11251 15.9318C6.84533 15.9318 5.64794 15.633 4.58696 15.1019ZM12.5215 13.5893C12.4739 13.5709 12.4664 13.5082 12.5061 13.4761C12.5228 13.4626 12.5448 13.4577 12.5658 13.4624C12.6902 13.4904 12.8197 13.5052 12.9527 13.5052C13.9207 13.5052 14.7055 12.7205 14.7055 11.7525C14.7055 11.4506 14.6291 11.1665 14.4947 10.9185C14.4903 10.9103 14.4898 10.9005 14.4936 10.8919C14.5027 10.8715 14.53 10.8679 14.5436 10.8856C14.7715 11.1814 14.907 11.552 14.907 11.9543C14.907 12.0222 14.8861 12.0882 14.8508 12.1463C14.6165 12.5302 14.3504 12.8926 14.056 13.2297C13.8223 13.4974 13.5097 13.707 13.1543 13.707C12.9311 13.707 12.7178 13.6653 12.5215 13.5893ZM15.7995 9.81892C15.727 10.1344 15.291 10.1864 15.0569 9.96268C14.9504 9.86094 14.8998 9.71201 14.9318 9.56826C15.0409 9.07773 15.0985 8.56777 15.0985 8.04437C15.0985 5.19595 13.3937 2.7457 10.9489 1.65821C10.8193 1.60055 10.731 1.47203 10.7094 1.33182C10.6597 1.00837 10.9641 0.68089 11.2641 0.811773C14.0516 2.02811 15.9999 4.80871 15.9999 8.04437C15.9999 8.65455 15.9306 9.24855 15.7995 9.81892Z" fill="url(#paint0_linear_1012_3805)"/>
<path fill-rule="evenodd" clip-rule="evenodd" d="M8.50006 2.75H7.50006V5.29534C6.22 5.53047 5.25006 6.65197 5.25006 8C5.25006 8.42901 5.34829 8.83508 5.5235 9.19693L2.75 11.6501L3.41253 12.3991L6.11857 10.0056C6.61047 10.4673 7.27224 10.75 8.00006 10.75C8.70597 10.75 9.34976 10.484 9.83668 10.0468L12.4962 12.3991L13.1587 11.6501L10.4486 9.25305C10.6413 8.87727 10.7501 8.45133 10.7501 8C10.7501 6.65197 9.78011 5.53047 8.50006 5.29534V2.75Z" fill="url(#paint1_linear_1012_3805)"/>
<path fill-rule="evenodd" clip-rule="evenodd" d="M10 2C10 3.10457 9.10457 4 8 4C6.89543 4 6 3.10457 6 2C6 0.895431 6.89543 0 8 0C9.10457 0 10 0.895431 10 2ZM15.25 12.25C15.25 13.3546 14.3546 14.25 13.25 14.25C12.1454 14.25 11.25 13.3546 11.25 12.25C11.25 11.1454 12.1454 10.25 13.25 10.25C14.3546 10.25 15.25 11.1454 15.25 12.25ZM2.75 14.25C3.85457 14.25 4.75 13.3546 4.75 12.25C4.75 11.1454 3.85457 10.25 2.75 10.25C1.64543 10.25 0.75 11.1454 0.75 12.25C0.75 13.3546 1.64543 14.25 2.75 14.25Z" fill="url(#paint2_radial_1012_3805)"/>
<defs>
<linearGradient id="paint0_linear_1012_3805" x1="0.671555" y1="1.25771" x2="16.6266" y2="12.1959" gradientUnits="userSpaceOnUse">
<stop stop-color="#07D988"/>
<stop offset="1" stop-color="#15F59F"/>
</linearGradient>
<linearGradient id="paint1_linear_1012_3805" x1="2.75" y1="2.75" x2="12.8548" y2="12.7075" gradientUnits="userSpaceOnUse">
<stop stop-color="#0555FF"/>
<stop offset="1" stop-color="#4380FF"/>
</linearGradient>
<radialGradient id="paint2_radial_1012_3805" cx="0" cy="0" r="1" gradientUnits="userSpaceOnUse" gradientTransform="translate(3.29207) rotate(56.123) scale(17.2103 82.2235)">
<stop stop-color="#FC790D"/>
<stop offset="1" stop-color="#FF9A23"/>
</radialGradient>
</defs>
</svg>
