<svg width="16" height="16" viewBox="0 0 16 16" fill="none" xmlns="http://www.w3.org/2000/svg">
<path fill-rule="evenodd" clip-rule="evenodd" d="M5.25068 1.44024C5.28757 1.11502 4.96999 0.800424 4.67548 0.943234C2.04136 2.22056 0.225159 4.92036 0.225159 8.04437C0.225159 8.6797 0.300276 9.29748 0.442112 9.88933C0.511699 10.1797 0.884843 10.2579 1.12764 10.0841C1.27119 9.98139 1.34751 9.80301 1.30758 9.63105C1.18919 9.1213 1.12661 8.59014 1.12661 8.04437C1.12661 5.29474 2.71514 2.91614 5.02453 1.77623C5.15166 1.71348 5.23471 1.58111 5.25068 1.44024ZM3.00672 14.0562C3.00664 14.0563 3.00656 14.0562 3.00649 14.0562C3.00631 14.056 3.00639 14.0557 3.00664 14.0557C3.35012 14.001 3.66036 13.8466 3.9067 13.6231C3.90676 13.623 3.90686 13.623 3.90693 13.6231C3.90701 13.6231 3.90702 13.6233 3.90694 13.6233C3.66059 13.847 3.3503 14.0015 3.00672 14.0562ZM4.58703 15.1019C4.3204 14.9685 4.32951 14.5869 4.55287 14.3894C4.6853 14.2723 4.87549 14.2392 5.03414 14.3172C5.96286 14.7739 7.00777 15.0303 8.11257 15.0303C9.25494 15.0303 10.3333 14.7561 11.2853 14.27C11.4166 14.2029 11.572 14.2138 11.697 14.2919C11.971 14.4631 12.0314 14.8986 11.7446 15.0476C10.6576 15.6125 9.42235 15.9318 8.11257 15.9318C6.84539 15.9318 5.648 15.633 4.58703 15.1019ZM12.5215 13.5893C12.4739 13.5709 12.4664 13.5082 12.5061 13.4761C12.5228 13.4626 12.5449 13.4577 12.5658 13.4624C12.6903 13.4904 12.8198 13.5052 12.9528 13.5052C13.9208 13.5052 14.7055 12.7205 14.7055 11.7525C14.7055 11.4506 14.6292 11.1665 14.4948 10.9185C14.4903 10.9103 14.4899 10.9005 14.4937 10.8919C14.5028 10.8715 14.5301 10.8679 14.5437 10.8856C14.7716 11.1814 14.9071 11.552 14.9071 11.9543C14.9071 12.0222 14.8862 12.0882 14.8508 12.1463C14.6166 12.5302 14.3504 12.8926 14.0561 13.2297C13.8223 13.4974 13.5097 13.707 13.1543 13.707C12.9312 13.707 12.7178 13.6653 12.5215 13.5893ZM15.7996 9.81892C15.727 10.1344 15.291 10.1864 15.057 9.96268C14.9505 9.86094 14.8999 9.71201 14.9318 9.56826C15.041 9.07773 15.0985 8.56777 15.0985 8.04437C15.0985 5.19595 13.3938 2.7457 10.9489 1.65821C10.8193 1.60055 10.7311 1.47203 10.7095 1.33182C10.6597 1.00837 10.9642 0.68089 11.2641 0.811773C14.0516 2.02811 16 4.80871 16 8.04437C16 8.65455 15.9307 9.24855 15.7996 9.81892Z" fill="#364256"/>
<path fill-rule="evenodd" clip-rule="evenodd" d="M8.49999 2.75H7.49999V5.29534C6.21994 5.53047 5.24999 6.65197 5.24999 8C5.24999 8.42901 5.34823 8.83508 5.52344 9.19693L2.74994 11.6501L3.41247 12.3991L6.11851 10.0056C6.61041 10.4673 7.27218 10.75 7.99999 10.75C8.70591 10.75 9.3497 10.484 9.83662 10.0468L12.4961 12.3991L13.1586 11.6501L10.4486 9.25305C10.6413 8.87727 10.75 8.45133 10.75 8C10.75 6.65197 9.78005 5.53047 8.49999 5.29534V2.75Z" fill="#364256"/>
<path fill-rule="evenodd" clip-rule="evenodd" d="M10 2C10 3.10457 9.10457 4 8 4C6.89543 4 6 3.10457 6 2C6 0.895431 6.89543 0 8 0C9.10457 0 10 0.895431 10 2ZM15.25 12.25C15.25 13.3546 14.3546 14.25 13.25 14.25C12.1454 14.25 11.25 13.3546 11.25 12.25C11.25 11.1454 12.1454 10.25 13.25 10.25C14.3546 10.25 15.25 11.1454 15.25 12.25ZM2.75 14.25C3.85457 14.25 4.75 13.3546 4.75 12.25C4.75 11.1454 3.85457 10.25 2.75 10.25C1.64543 10.25 0.75 11.1454 0.75 12.25C0.75 13.3546 1.64543 14.25 2.75 14.25Z" fill="#364256"/>
</svg>
