<svg width="16" height="16" viewBox="0 0 16 16" fill="none" xmlns="http://www.w3.org/2000/svg">
<path d="M8.00004 2.04922L2.60004 4.99922L8.00004 7.64922L13.4 4.99922L8.00004 2.04922ZM8.25004 1.04922L14.75 4.54922C15.1 4.74922 15.1 5.24922 14.75 5.44922L8.25004 8.69922C8.10004 8.74922 7.95004 8.74922 7.80004 8.69922L1.30004 5.44922C0.950039 5.24922 0.950039 4.74922 1.30004 4.54922L7.80004 1.04922C7.90004 0.999219 8.10004 0.999219 8.25004 1.04922ZM1.70004 7.54922L8.00004 10.6492L14.3 7.54922C14.55 7.44922 14.85 7.54922 14.95 7.79922C15.05 8.04922 14.95 8.34922 14.7 8.44922L8.00004 11.7992L1.30004 8.44922C1.05004 8.34922 0.950039 8.04922 1.05004 7.79922C1.20004 7.54922 1.50004 7.44922 1.70004 7.54922ZM1.70004 10.5492L8.00004 13.6492L14.3 10.5492C14.55 10.4492 14.85 10.5492 14.95 10.7992C15.05 11.0492 14.95 11.3492 14.7 11.4492L8.00004 14.7992L1.30004 11.4492C1.05004 11.3492 0.950039 11.0492 1.05004 10.7992C1.20004 10.5492 1.50004 10.4492 1.70004 10.5492Z" fill="#0555FF" stroke="#0555FF" stroke-width="0.1"/>
</svg>
