<svg width="16" height="16" viewBox="0 0 16 16" fill="none" xmlns="http://www.w3.org/2000/svg">
<path fill-rule="evenodd" clip-rule="evenodd" d="M8.2659 1.001C8.18511 0.974076 8.09219 0.960938 8.00633 0.960938C7.9216 0.960938 7.83767 0.973716 7.77771 1.0037L1.27637 4.5044L1.27528 4.50503C0.891686 4.72422 0.891648 5.27272 1.27524 5.49192L7.7775 8.74361L7.78427 8.74587C7.94454 8.79929 8.10579 8.79977 8.26606 8.74635L14.7725 5.49323L14.7749 5.49185C15.1585 5.27266 15.1585 4.72421 14.7749 4.50501L8.27414 1.00375L8.2659 1.001ZM8.00008 7.59274L2.70873 4.99606L8.00008 2.10541L13.2914 4.99606L8.00008 7.59274ZM1.00721 7.77271C1.16724 7.506 1.49348 7.38937 1.72228 7.50364L8.00008 10.5927L14.2815 7.50201C14.5525 7.39362 14.8845 7.49981 14.9965 7.77987C15.1046 8.05021 14.9992 8.38127 14.7206 8.49407L8.00008 11.8543L1.27954 8.49407C1.00095 8.38127 0.895523 8.05021 1.00366 7.77987L1.00721 7.77271ZM1.00721 10.7727C1.16725 10.506 1.49354 10.3893 1.72235 10.5037L8.00008 13.5927L14.2815 10.502C14.5525 10.3936 14.8845 10.4998 14.9965 10.7799C15.1046 11.0502 14.9992 11.3813 14.7206 11.4941L8.00008 14.8543L1.27953 11.4941C1.00095 11.3813 0.895524 11.0502 1.00366 10.7799L1.00721 10.7727Z" fill="#364256"/>
</svg>
