<svg width="16" height="16" viewBox="0 0 16 16" fill="none" xmlns="http://www.w3.org/2000/svg">
<path d="M8.00918 0.582031C10.888 0.582031 13.3197 2.67582 13.8522 5.49421C14.2397 5.58912 14.5842 5.81126 14.8305 6.1251C15.0768 6.43893 15.2107 6.82631 15.2107 7.22525V9.83382C15.2107 10.642 14.6728 11.3248 13.9349 11.5435L13.9367 11.4706C13.9367 13.3475 12.4893 14.8847 10.664 14.9789L10.4862 14.9834L9.52418 14.9852C9.44708 15.0951 9.3446 15.1849 9.22542 15.2468C9.10624 15.3087 8.97388 15.3409 8.83958 15.3408H7.177C6.95535 15.3408 6.74278 15.2527 6.58604 15.096C6.42931 14.9393 6.34126 14.7267 6.34126 14.505V14.4739C6.34126 14.0116 6.71646 13.6382 7.177 13.6382H8.83958C9.08764 13.6382 9.30991 13.7449 9.46194 13.9156L10.4862 13.9165C11.7513 13.9165 12.7907 12.9029 12.8653 11.62L12.868 11.5275C12.5116 11.4099 12.2014 11.1829 11.9815 10.8788C11.7615 10.5748 11.643 10.2091 11.6429 9.83382V7.22525C11.6429 6.46953 12.1141 5.82317 12.7773 5.56356C12.291 3.30618 10.3235 1.64893 8.00918 1.64893C5.69401 1.64893 3.72647 3.30707 3.24014 5.56356C3.57458 5.69435 3.86177 5.923 4.06417 6.21963C4.26657 6.51625 4.37477 6.86704 4.37461 7.22614V9.83382C4.37461 10.3068 4.18671 10.7605 3.85224 11.0949C3.51777 11.4294 3.06413 11.6173 2.59112 11.6173C2.1181 11.6173 1.66446 11.4294 1.32999 11.0949C0.995521 10.7605 0.807617 10.3068 0.807617 9.83382V7.22525C0.807617 6.38685 1.38552 5.68358 2.16613 5.49243C2.69781 2.67671 5.12944 0.582031 8.00918 0.582031ZM10.4684 10.9167C10.5102 10.973 10.5406 11.0369 10.5577 11.1049C10.5748 11.1729 10.5783 11.2436 10.5681 11.313C10.5578 11.3823 10.534 11.449 10.498 11.5092C10.462 11.5693 10.4144 11.6218 10.3581 11.6635C10.0683 11.8778 9.76067 12.053 9.43882 12.1845C8.98095 12.3713 8.49995 12.4691 8.00918 12.4691C7.53619 12.4691 7.07298 12.3793 6.63021 12.205C6.28572 12.0684 5.96076 11.887 5.66378 11.6653C5.60554 11.6244 5.55607 11.5722 5.51829 11.5119C5.48052 11.4516 5.4552 11.3843 5.44382 11.314C5.43245 11.2438 5.43526 11.1719 5.45207 11.1028C5.46889 11.0336 5.49938 10.9685 5.54175 10.9113C5.58411 10.8541 5.6375 10.806 5.69876 10.7697C5.76002 10.7335 5.82791 10.7098 5.89844 10.7002C5.96897 10.6906 6.04071 10.6952 6.10943 10.7138C6.17815 10.7323 6.24247 10.7645 6.29859 10.8082C6.52886 10.979 6.7698 11.1141 7.01963 11.2119C7.3397 11.3373 7.67133 11.4013 8.00918 11.4013C8.35948 11.4013 8.70355 11.3328 9.03518 11.1968C9.27257 11.0999 9.50284 10.9692 9.72244 10.8056C9.83611 10.7214 9.97854 10.6859 10.1184 10.7067C10.2583 10.7276 10.3842 10.8031 10.4684 10.9167ZM2.59112 6.50865C2.49701 6.50865 2.40383 6.52718 2.31688 6.5632C2.22994 6.59921 2.15095 6.65199 2.0844 6.71854C2.01786 6.78508 1.96508 6.86408 1.92906 6.95102C1.89305 7.03796 1.87452 7.13114 1.87452 7.22525V9.83382C1.87452 10.0239 1.95001 10.2061 2.0844 10.3405C2.21879 10.4749 2.40106 10.5504 2.59112 10.5504C2.78117 10.5504 2.96344 10.4749 3.09783 10.3405C3.23222 10.2061 3.30772 10.0239 3.30772 9.83382V7.22525C3.30772 7.13114 3.28918 7.03796 3.25317 6.95102C3.21715 6.86408 3.16437 6.78508 3.09783 6.71854C3.03129 6.65199 2.95229 6.59921 2.86535 6.5632C2.7784 6.52718 2.68522 6.50865 2.59112 6.50865ZM13.4264 6.50865C13.3322 6.50865 13.2391 6.52718 13.1521 6.5632C13.0652 6.59921 12.9862 6.65199 12.9196 6.71854C12.8531 6.78508 12.8003 6.86408 12.7643 6.95102C12.7283 7.03796 12.7098 7.13114 12.7098 7.22525V9.83382C12.7098 10.024 12.7853 10.2064 12.9198 10.3408C13.0542 10.4753 13.2366 10.5509 13.4268 10.5509C13.617 10.5509 13.7994 10.4753 13.9338 10.3408C14.0683 10.2064 14.1438 10.024 14.1438 9.83382V7.22525C14.1438 7.13107 14.1253 7.03781 14.0892 6.95081C14.0531 6.86381 14.0003 6.78478 13.9336 6.71822C13.867 6.65167 13.7879 6.5989 13.7009 6.56294C13.6138 6.52698 13.5205 6.50853 13.4264 6.50865Z" fill="#0555FF" stroke="#0555FF" stroke-width="0.1"/>
</svg>
