<svg width="16" height="16" viewBox="0 0 16 16" fill="none" xmlns="http://www.w3.org/2000/svg">
<path d="M13.9 14.5H2.5C1.94772 14.5 1.5 14.0523 1.5 13.5V2.1C1.5 1.77 1.77 1.5 2.1 1.5C2.43 1.5 2.7 1.77 2.7 2.1V13.1C2.7 13.2105 2.78954 13.3 2.9 13.3H13.9C14.23 13.3 14.5 13.57 14.5 13.9C14.5 14.23 14.23 14.5 13.9 14.5Z" fill="#0555FF"/>
<path d="M5.09008 9.5C4.91351 9.5 4.73695 9.42212 4.61924 9.28305C4.42501 9.03829 4.4721 8.68783 4.73106 8.50426L7.04407 6.83541C7.45606 6.53502 8.02696 6.49052 8.48603 6.71859L10.0398 7.49182C10.1045 7.5252 10.1811 7.51407 10.234 7.46957L13.5181 4.64366C13.5753 4.59471 13.6422 4.5569 13.7148 4.53236C13.7875 4.50783 13.8646 4.49707 13.9416 4.50068C14.0187 4.5043 14.0942 4.52223 14.164 4.55344C14.2337 4.58465 14.2962 4.62854 14.348 4.6826C14.3998 4.73666 14.4398 4.79983 14.4658 4.8685C14.4917 4.93717 14.5031 5.01001 14.4993 5.08284C14.4955 5.15568 14.4765 5.22709 14.4435 5.29299C14.4104 5.3589 14.364 5.41801 14.3068 5.46696L11.0227 8.29287C10.6048 8.64889 9.99272 8.72677 9.49245 8.47644L7.93867 7.70321C7.90971 7.68937 7.87719 7.68359 7.84489 7.68654C7.81258 7.6895 7.78184 7.70106 7.75622 7.7199L5.44321 9.38874C5.34316 9.46106 5.21367 9.5 5.09008 9.5Z" fill="#0555FF" stroke="#0555FF" stroke-width="0.2"/>
</svg>
