<svg width="16" height="16" viewBox="0 0 16 16" fill="none" xmlns="http://www.w3.org/2000/svg">
<path d="M2.24035 7.42145C2.24302 8.36799 2.47629 9.29962 2.91997 10.1357C3.36366 10.9719 4.0044 11.6873 4.78675 12.2201C5.11866 12.4485 5.60035 12.7675 5.36974 13.2373C5.13913 13.7082 4.65851 13.5175 4.36002 13.3322C2.94151 12.4485 1.88824 11.084 1.39262 9.48793C0.897008 7.89187 0.992123 6.17078 1.66059 4.63905C1.36264 4.36366 1.17027 3.99283 1.11674 3.59065C1.0632 3.18847 1.15186 2.78023 1.36739 2.43649C1.58292 2.09274 1.91178 1.83511 2.29711 1.70811C2.68245 1.58111 3.10005 1.59274 3.47772 1.74097C3.8554 1.88921 4.16941 2.16474 4.36549 2.51994C4.56156 2.87514 4.62737 3.28768 4.55155 3.68626C4.47572 4.08484 4.26302 4.44439 3.95021 4.70278C3.6374 4.96117 3.24415 5.10215 2.83843 5.10134H2.72959C2.40765 5.83246 2.2414 6.62259 2.24143 7.42145H2.24035ZM9.60368 13.0067C12.329 12.2416 14.037 9.62301 13.8172 6.90635C13.7827 6.49254 13.7579 6.00438 14.2557 5.91818C14.7514 5.83197 14.9131 6.27487 14.9497 6.5863C15.1524 8.26461 14.7374 9.95932 13.7822 11.3541C12.827 12.7489 11.3969 13.7485 9.75886 14.1662C9.67348 14.5673 9.44919 14.9254 9.12555 15.1773C8.80192 15.4292 8.39973 15.5587 7.98993 15.543C7.58013 15.5272 7.18905 15.3673 6.88566 15.0914C6.58228 14.8154 6.38608 14.4412 6.33168 14.0347C6.27728 13.6283 6.36818 13.2156 6.58833 12.8696C6.80848 12.5236 7.14375 12.2665 7.53499 12.1436C7.92624 12.0206 8.34832 12.0398 8.7268 12.1978C9.10528 12.3557 9.41583 12.6422 9.60368 13.0067ZM11.5973 2.84805C10.8157 2.23637 9.88967 1.8364 8.90854 1.68672C7.9274 1.53704 6.92425 1.6427 5.99583 1.99351C5.77169 2.07864 5.27383 2.2198 5.04969 1.8157C4.82447 1.41159 5.17361 1.06783 5.42578 0.965461C6.55325 0.509084 7.78066 0.356185 8.98564 0.522006C10.1906 0.687826 11.3311 1.16657 12.2934 1.91053C12.6341 1.68255 13.0443 1.58223 13.4517 1.62725C13.8592 1.67227 14.2376 1.85975 14.5203 2.15661C14.803 2.45347 14.9717 2.84063 14.9967 3.24977C15.0218 3.65892 14.9015 4.06376 14.6571 4.39287C14.4127 4.72197 14.06 4.95419 13.6611 5.04855C13.2622 5.14292 12.8428 5.09335 12.4769 4.90861C12.1109 4.72387 11.822 4.41582 11.6611 4.03882C11.5002 3.66182 11.4776 3.2401 11.5973 2.84805Z" fill="#0555FF"/>
</svg>
