<svg width="16" height="16" viewBox="0 0 16 16" fill="none" xmlns="http://www.w3.org/2000/svg">
<path d="M15.1192 14.8145L14.6063 5.66817C14.6024 5.36462 14.4794 5.07474 14.2639 4.86093C14.0484 4.64711 13.7576 4.52644 13.454 4.52489H11.2911V3.2911C11.2911 2.85891 11.206 2.43095 11.0406 2.03165C10.8752 1.63236 10.6328 1.26955 10.3272 0.963941C10.0216 0.658334 9.65876 0.415913 9.25946 0.25052C8.86017 0.0851269 8.43221 0 8.00001 0C7.56782 0 7.13986 0.0851269 6.74056 0.25052C6.34127 0.415913 5.97846 0.658334 5.67285 0.963941C5.36725 1.26955 5.12483 1.63236 4.95943 2.03165C4.79404 2.43095 4.70891 2.85891 4.70891 3.2911V4.52489H2.54602C2.24295 4.52643 1.95257 4.64668 1.73714 4.85985C1.52171 5.07302 1.39841 5.36213 1.39368 5.66516L0.880859 14.8145V14.8477C0.884038 15.1512 1.00685 15.4412 1.22261 15.6547C1.43837 15.8682 1.72966 15.9879 2.0332 15.9879H13.9668C14.2724 15.9879 14.5656 15.8665 14.7817 15.6504C14.9978 15.4343 15.1192 15.1412 15.1192 14.8356V14.8145ZM5.92762 4.52489V3.2911C5.92762 3.01895 5.98122 2.74946 6.08537 2.49803C6.18952 2.24659 6.34217 2.01813 6.53461 1.82569C6.72705 1.63325 6.95551 1.4806 7.20694 1.37645C7.45838 1.27231 7.72786 1.2187 8.00001 1.2187C8.27217 1.2187 8.54165 1.27231 8.79309 1.37645C9.04452 1.4806 9.27298 1.63325 9.46542 1.82569C9.65786 2.01813 9.81051 2.24659 9.91466 2.49803C10.0188 2.74946 10.0724 3.01895 10.0724 3.2911V4.52489H5.92762ZM4.72098 6.79035C4.64238 6.87679 4.58308 6.97896 4.54701 7.09009C4.51094 7.20121 4.49892 7.31874 4.51176 7.43486C4.5246 7.55098 4.562 7.66305 4.62148 7.7636C4.68095 7.86416 4.76114 7.95091 4.85673 8.0181C4.91353 8.08905 4.98563 8.14625 5.06764 8.18542C5.14965 8.2246 5.23945 8.24474 5.33033 8.24434C5.42097 8.2451 5.51062 8.22543 5.59261 8.18678C5.6746 8.14814 5.74683 8.09151 5.80394 8.02112C5.8996 7.95364 5.97983 7.86661 6.03933 7.76579C6.09883 7.66498 6.13623 7.55267 6.14907 7.43631C6.1619 7.31995 6.14987 7.20219 6.11377 7.09083C6.07768 6.97947 6.01834 6.87705 5.93968 6.79035V5.75264H10.0724V6.7994C9.99376 6.8861 9.93442 6.98852 9.89832 7.09988C9.86222 7.21124 9.85019 7.329 9.86303 7.44536C9.87586 7.56172 9.91327 7.67403 9.97276 7.77484C10.0323 7.87566 10.1125 7.96269 10.2082 8.03016C10.2653 8.10056 10.3375 8.15719 10.4195 8.19583C10.5015 8.23448 10.5911 8.25415 10.6818 8.25339C10.7726 8.25379 10.8624 8.23365 10.9445 8.19447C11.0265 8.1553 11.0986 8.0981 11.1554 8.02715C11.2509 7.95996 11.3311 7.87321 11.3906 7.77265C11.4501 7.6721 11.4875 7.56003 11.5003 7.44391C11.5132 7.32779 11.5012 7.21026 11.4651 7.09914C11.429 6.98801 11.3697 6.88584 11.2911 6.7994V5.75264H13.4027L13.8944 14.7813H2.1056L2.60937 5.75264H4.72098V6.79035Z" fill="#0555FF"/>
</svg>
