<svg width="18" height="16" viewBox="0 0 18 16" fill="none" xmlns="http://www.w3.org/2000/svg">
<path d="M16.558 2.02014C15.8357 1.65706 12.1491 -0.013294 8.99995 1.90615C5.8507 -0.013294 2.1642 1.65706 1.44193 2.02005C1.30849 2.08674 1.19663 2.18786 1.11865 2.31227C1.04067 2.43668 0.999618 2.57955 1 2.72514V11.1857C1.0002 11.3185 1.03459 11.4491 1.10006 11.5656C1.16553 11.6822 1.26 11.7811 1.37488 11.8532C1.48975 11.9254 1.62141 11.9686 1.75786 11.9788C1.89432 11.9891 2.03126 11.9661 2.15623 11.912C3.05602 11.5223 5.47166 10.7449 8.4493 11.9392C8.62413 12.0094 8.81856 12.0191 8.99986 11.9665C9.18121 12.0191 9.37572 12.0095 9.5506 11.9392C12.528 10.7456 14.9435 11.5227 15.8438 11.9124C15.9688 11.9665 16.1057 11.9894 16.2421 11.9792C16.3786 11.9689 16.5102 11.9257 16.6251 11.8535C16.7399 11.7814 16.8344 11.6825 16.8999 11.566C16.9654 11.4494 16.9998 11.3188 17 11.1861V2.72514C17.0004 2.57955 16.9593 2.43669 16.8813 2.3123C16.8033 2.18791 16.6914 2.08681 16.558 2.02014ZM2.17244 10.6837V2.93486C3.09735 2.50632 5.99935 1.38688 8.41369 2.88741V10.7103C7.39291 10.3537 6.31643 10.1701 5.23144 10.1678C4.18869 10.1665 3.15363 10.341 2.17244 10.6833V10.6837ZM15.8274 10.6837C14.6153 10.2564 12.3264 9.76554 9.58613 10.711V2.8875C12.0006 1.38679 14.9025 2.50632 15.8274 2.93496V10.6833V10.6837Z" fill="#0555FF" stroke="#0555FF" stroke-width="0.05"/>
<path d="M16.4281 15C16.3103 15 16.1953 14.969 16.0989 14.9113C13.9374 13.6193 10.8159 14.2389 9.62512 14.8582C9.48841 14.9291 9.32987 14.9636 9.16994 14.9571C9.01002 14.9506 8.85606 14.9034 8.72793 14.8217C5.65561 12.8889 2.0364 14.8372 1.88379 14.9213C1.7567 14.9912 1.60233 15.0156 1.45423 14.9892C1.30613 14.9628 1.17626 14.8877 1.09285 14.7802C1.05191 14.7271 1.0237 14.6676 1.00984 14.6051C0.99599 14.5427 0.996766 14.4785 1.01213 14.4163C1.02749 14.3541 1.05713 14.2951 1.09936 14.2427C1.14158 14.1903 1.19555 14.1455 1.25817 14.1109C1.43456 14.0132 5.55402 11.7796 9.22846 13.9343C10.9434 13.1414 14.3504 12.6807 16.7588 14.1205C16.8578 14.1798 16.932 14.2645 16.9705 14.3622C17.009 14.4599 17.0098 14.5655 16.9729 14.6636C16.936 14.7618 16.8633 14.8473 16.7653 14.9078C16.6673 14.9683 16.5492 15.0006 16.4281 15Z" fill="#0555FF" stroke="#0555FF" stroke-width="0.05"/>
</svg>
