<svg width="16" height="16" viewBox="0 0 16 16" fill="none" xmlns="http://www.w3.org/2000/svg">
<path d="M8.00906 15.2108C7.71801 15.2101 7.4388 15.0955 7.23121 14.8915L1.05753 8.65229C0.310766 7.69788 -0.0622251 6.50386 0.00848783 5.29409C0.0792007 4.08432 0.588762 2.94188 1.44163 2.08097C2.2945 1.22007 3.43211 0.699814 4.64117 0.617759C5.85022 0.535703 7.04769 0.89748 8.00906 1.63526C8.96583 0.898616 10.1577 0.534831 11.3628 0.611654C12.5678 0.688476 13.7039 1.20067 14.5594 2.05284C15.4053 2.91182 15.9132 4.04698 15.9899 5.25012C16.0666 6.45326 15.707 7.64372 14.977 8.60316L14.6085 9.04531L8.78691 14.8915C8.68462 14.9932 8.56326 15.0738 8.42979 15.1286C8.29631 15.1834 8.15334 15.2113 8.00906 15.2108ZM2.59685 8.5131L8.00906 13.9253L13.7406 8.19377C14.4263 7.48908 14.81 6.54462 14.81 5.56136C14.81 4.57809 14.4263 3.63364 13.7406 2.92895C13.0873 2.27767 12.2173 1.8894 11.2963 1.83807C10.3753 1.78673 9.46757 2.07592 8.74597 2.65056C8.54717 2.81283 8.29843 2.90146 8.04181 2.90146C7.78519 2.90146 7.53645 2.81283 7.33765 2.65056C6.59195 2.05989 5.64964 1.7747 4.70156 1.85274C3.75348 1.93078 2.87049 2.36621 2.23141 3.07086C1.59233 3.77552 1.24494 4.69671 1.25958 5.64789C1.27422 6.59906 1.64981 7.50913 2.31028 8.19377L2.59685 8.5131Z" fill="#0555FF"/>
<path opacity="0.98" d="M9.04092 9.40637H8.97542C8.86245 9.3916 8.75559 9.3465 8.6662 9.27586C8.57681 9.20521 8.50824 9.11166 8.46777 9.00516L7.44428 6.25402L6.44535 7.21201C6.3303 7.32721 6.17421 7.392 6.01139 7.39214H3.98079C3.81792 7.39214 3.66173 7.32745 3.54656 7.21228C3.4314 7.09712 3.3667 6.94092 3.3667 6.77805C3.3667 6.61518 3.4314 6.45899 3.54656 6.34382C3.66173 6.22866 3.81792 6.16396 3.98079 6.16396H5.75757L7.24777 4.67376C7.32062 4.60164 7.41037 4.54891 7.50883 4.52037C7.60729 4.49183 7.71133 4.4884 7.81145 4.51037C7.91158 4.53235 8.00461 4.57905 8.08207 4.6462C8.15952 4.71336 8.21893 4.79883 8.25488 4.89483L9.19649 7.40852L9.72052 6.58973C9.78772 6.51536 9.8721 6.45857 9.9663 6.42431C10.0605 6.39006 10.1616 6.37938 10.2609 6.39322H12.136C12.2988 6.39322 12.455 6.45792 12.5702 6.57308C12.6853 6.68825 12.75 6.84444 12.75 7.00731C12.75 7.17018 12.6853 7.32638 12.5702 7.44154C12.455 7.55671 12.2988 7.6214 12.136 7.6214H10.5639L9.55676 9.16892C9.49624 9.2471 9.41774 9.30951 9.32794 9.35085C9.23813 9.39219 9.13967 9.41124 9.04092 9.40637Z" fill="#0555FF"/>
</svg>
