<svg width="16" height="16" viewBox="0 0 16 16" fill="none" xmlns="http://www.w3.org/2000/svg">
<path d="M11.1184 4.36538L11.1174 4.36443L11.1137 4.37188C11.1093 4.38066 11.0992 4.38944 11.0839 4.39621C11.069 4.40285 11.0525 4.40606 11.0401 4.40606H4.08008C4.01389 4.40606 3.96108 4.35325 3.96108 4.28706V3.42306C3.96108 3.35687 4.01389 3.30406 4.08008 3.30406H11.0401C11.0631 3.30406 11.0891 3.31546 11.1184 3.34474L11.1174 3.34569L11.1249 3.34942C11.1337 3.35381 11.1425 3.36398 11.1492 3.37921C11.1559 3.39414 11.1591 3.41069 11.1591 3.42306V4.28706C11.1591 4.31009 11.1477 4.33611 11.1184 4.36538ZM7.4864 6.95738L7.48545 6.95643L7.48172 6.96388C7.47733 6.97266 7.46716 6.98144 7.45193 6.98822C7.437 6.99485 7.42045 6.99806 7.40808 6.99806H4.08008C4.01389 6.99806 3.96108 6.94525 3.96108 6.87906V6.01506C3.96108 5.94887 4.01389 5.89606 4.08008 5.89606H7.42408C7.448 5.89606 7.47054 5.90788 7.48172 5.93024L7.48545 5.9377L7.4929 5.94142C7.50168 5.94581 7.51046 5.95598 7.51724 5.97121C7.52387 5.98614 7.52708 6.00269 7.52708 6.01506V6.87906C7.52708 6.90209 7.51568 6.92811 7.4864 6.95738ZM2.47108 14.1271V14.1521H2.49608H6.54408C6.61027 14.1521 6.66308 14.2049 6.66308 14.2711V15.2791C6.66308 15.3453 6.61027 15.3981 6.54408 15.3981H1.76008C1.45389 15.3981 1.20908 15.1533 1.20908 14.8471V0.719058C1.20908 0.566444 1.26988 0.428942 1.37708 0.321415C1.48517 0.229021 1.62329 0.168058 1.77608 0.168058H13.3441V0.168183L13.3466 0.167934C13.4978 0.152813 13.6347 0.213017 13.7424 0.320736C13.85 0.428363 13.9111 0.566122 13.9111 0.719058V7.19906C13.9111 7.26525 13.8583 7.31806 13.7921 7.31806H12.7841C12.7179 7.31806 12.6651 7.26525 12.6651 7.19906V1.43906V1.41406H12.6401H2.49608H2.47108V1.43906V14.1271ZM11.8951 12.5431V12.5681H11.9201H14.5281C14.6743 12.5681 14.7911 12.6849 14.7911 12.8311V15.5671C14.7911 15.7133 14.6743 15.8301 14.5281 15.8301H8.14408C7.99789 15.8301 7.88108 15.7133 7.88108 15.5671V12.8311C7.88108 12.6849 7.99789 12.5681 8.14408 12.5681H10.7681H10.7931V12.5431V11.8871V11.8685L10.7753 11.8631C9.93733 11.6102 9.33708 10.8515 9.33708 9.95106C9.33708 9.42966 9.54247 8.92403 9.92176 8.54474C10.301 8.16552 10.8066 7.96006 11.3441 7.96006C11.8816 7.96006 12.3872 8.16552 12.7664 8.54474L12.7668 8.54511C13.1456 8.90811 13.3511 9.41346 13.3511 9.95106C13.3511 10.8358 12.7665 11.6102 11.913 11.8631L11.8951 11.8684V11.8871V12.5431ZM13.6801 14.7601H13.7051V14.7351V13.6471V13.6221H13.6801H8.97608H8.95108V13.6471V14.7351V14.7601H8.97608H13.6801ZM11.3441 9.03006C10.8186 9.03006 10.4071 9.44097 10.4071 9.95106C10.4071 10.4612 10.8186 10.8721 11.3441 10.8721C11.8696 10.8721 12.2811 10.4612 12.2811 9.95106C12.2811 9.44068 11.8533 9.03006 11.3441 9.03006Z" fill="#364256" stroke="white" stroke-width="0.05"/>
</svg>
