<svg width="24" height="24" viewBox="0 0 24 24" fill="none" xmlns="http://www.w3.org/2000/svg">
<path d="M12.5507 10.8393C12.5507 10.8388 12.5503 10.8385 12.5498 10.8385C12.1772 10.8384 11.8045 10.7663 11.5058 10.6224L5.71055 7.80814C5.69729 7.8017 5.69065 7.79848 5.6848 7.79589C5.67892 7.79329 5.6763 7.7922 5.67031 7.78987C5.66435 7.78754 5.65441 7.78406 5.63451 7.77711C5.21055 7.62899 5 7.34404 5 6.99124C5 6.6312 5.22347 6.33975 5.59801 6.12201L11.5073 3.21945C11.8063 3.07372 12.2533 3 12.6262 3C13.0008 3 13.3753 3.07372 13.6728 3.21945L19.505 5.97628C19.8779 6.19573 20.103 6.48376 20.103 6.84722C20.103 7.21069 19.8779 7.49871 19.505 7.71816L13.5957 10.6207C13.3739 10.7663 12.9244 10.8401 12.5516 10.8402C12.5511 10.8402 12.5507 10.8398 12.5507 10.8393ZM14.1213 21C13.5988 21 13.2243 20.6365 13.2243 20.1291V13.0175C13.2243 12.4363 13.6743 11.8568 14.3463 11.5654L19.5789 8.87885C19.7439 8.79764 19.9208 8.74888 20.1014 8.73483C20.6255 8.73483 21 9.0983 21 9.60577V16.719C21 17.2985 20.5515 17.878 19.8779 18.1694L14.6453 20.8543C14.4833 20.9464 14.304 20.9963 14.1213 21Z" fill="url(#paint0_linear_1643_2267)"/>
<path d="M11.0755 21C10.8597 21 10.7109 20.9332 10.5019 20.8608C10.4846 20.8548 10.476 20.8518 10.4688 20.8489C10.462 20.8462 10.4566 20.8439 10.4499 20.8408C10.4429 20.8376 10.4357 20.8338 10.4211 20.8263L5.15442 18.0986C4.53916 17.7881 4 17.102 4 16.5676V9.91717C4 9.38095 4.38535 9 4.92289 9C5.07671 9 5.30662 9.07583 5.46205 9.15166L10.8456 11.9032C11.4608 12.2083 12 12.8962 12 13.4324V20.007C12 20.6172 11.5386 21 11.0771 21H11.0755Z" fill="url(#paint1_radial_1643_2267)"/>
<path d="M8.30662 21C8.13418 21 8.01882 20.9502 7.84517 20.8992L3.86582 19.0947C3.40437 18.8908 3 18.4402 3 18.0893V14.6023C3 14.2502 3.28901 14 3.69217 14C3.80753 14 3.97996 14.0498 4.09654 14.0996L8.13418 15.9065C8.59563 16.1069 9 16.5586 9 16.9107V20.3479C9 20.7486 8.65392 21 8.30783 21H8.30662Z" fill="url(#paint2_linear_1643_2267)"/>
<defs>
<linearGradient id="paint0_linear_1643_2267" x1="4.47748" y1="3" x2="23.041" y2="18.5659" gradientUnits="userSpaceOnUse">
<stop stop-color="#0555FF"/>
<stop offset="1" stop-color="#4380FF"/>
</linearGradient>
<radialGradient id="paint1_radial_1643_2267" cx="0" cy="0" r="1" gradientUnits="userSpaceOnUse" gradientTransform="translate(5.40252 9) rotate(63.6555) scale(11.927 48.9658)">
<stop stop-color="#FC790D"/>
<stop offset="1" stop-color="#FF9A23"/>
</radialGradient>
<linearGradient id="paint2_linear_1643_2267" x1="3.16981" y1="14.175" x2="9.95714" y2="17.9803" gradientUnits="userSpaceOnUse">
<stop stop-color="#07D988"/>
<stop offset="1" stop-color="#15F59F"/>
</linearGradient>
</defs>
</svg>
