<svg width="16" height="16" viewBox="0 0 16 16" fill="none" xmlns="http://www.w3.org/2000/svg">
<path fill-rule="evenodd" clip-rule="evenodd" d="M0 11.875C0 11.5989 0.223858 11.375 0.5 11.375C0.776142 11.375 1 11.5989 1 11.875V14.5C1 14.7761 1.22386 15 1.5 15H3.98438C4.26052 15 4.48438 15.2239 4.48438 15.5C4.48438 15.7761 4.26052 16 3.98438 16H1C0.447716 16 0 15.5523 0 15V11.875ZM12 1C11.7239 1 11.5 0.776142 11.5 0.5C11.5 0.223858 11.7239 0 12 0H15C15.5523 0 16 0.447715 16 1V4C16 4.27614 15.7761 4.5 15.5 4.5C15.2239 4.5 15 4.27614 15 4V1.5C15 1.22386 14.7761 1 14.5 1L12 1ZM4 0C4.27614 0 4.5 0.223857 4.5 0.499999C4.5 0.776142 4.27614 0.999999 4 0.999999L1.5 0.999999C1.22386 0.999999 1 1.22386 1 1.5L1 3.98437C1 4.26052 0.776142 4.48437 0.5 4.48437C0.223857 4.48437 0 4.26052 0 3.98437V1C0 0.447715 0.447715 0 1 0H4ZM15 12C15 11.7239 15.2239 11.5 15.5 11.5C15.7761 11.5 16 11.7239 16 12V15C16 15.5523 15.5523 16 15 16H12C11.7239 16 11.5 15.7761 11.5 15.5C11.5 15.2239 11.7239 15 12 15H14.5C14.7761 15 15 14.7761 15 14.5V12Z" fill="#364256"/>
<path d="M2.76805 3.1576C3.1259 3.02736 3.36995 3.14116 3.5002 3.49901L6.95539 13.2158C7.08563 13.5736 6.97183 13.8177 6.61398 13.9479C6.25613 14.0782 6.01209 13.9644 5.88184 13.6065L2.42665 3.88975C2.2964 3.5319 2.4102 3.28785 2.76805 3.1576Z" fill="#364256"/>
<path d="M4.03725 3.5962C4.01564 3.53724 4.03917 3.47109 4.0933 3.43927C5.38594 2.67956 6.4825 2.29971 7.38342 2.29971C8.76647 2.29971 9.62079 2.84088 10.7619 2.84088C11.4477 2.84088 12.119 2.61304 12.7761 2.15738C12.8653 2.09551 12.9908 2.1576 12.9908 2.26616V7.04983C12.9908 7.07167 12.9854 7.09327 12.9745 7.1122C12.6674 7.64691 12.0635 7.91402 11.1626 7.91402C9.78707 7.91402 9.34647 7.58693 7.88676 7.58693C7.04208 7.58693 6.43363 7.8674 6.06205 8.42769C5.99771 8.52471 5.8403 8.51627 5.80024 8.40696L4.03725 3.5962Z" fill="#364256"/>
</svg>
