<svg width="16" height="16" viewBox="0 0 16 16" fill="none" xmlns="http://www.w3.org/2000/svg">
<g clip-path="url(#clip0_4005_5908)">
<path d="M7.83921 1.0574C7.94033 1.12312 8.00073 1.23515 8.00047 1.35543V13.5819H9.41957V4.35702L13.9568 6.3014C14.0845 6.35616 14.1933 6.4472 14.2698 6.56323C14.3462 6.67927 14.3869 6.81519 14.3868 6.95414V13.5819H14.8613V15.001H1.13965V13.5819H1.6141V4.10875C1.6141 3.82828 1.77908 3.57389 2.0356 3.46L7.50153 1.03079C7.61143 0.981826 7.73809 0.991672 7.83921 1.0574ZM5.42836 10.2998H4.00899V11.7192H5.42809L5.42836 10.2998ZM5.42836 7.46159H4.00899V8.88069H5.42809L5.42836 7.46159ZM5.42836 4.62312H4.00899V6.04222H5.42809L5.42836 4.62312Z" fill="#0555FF"/>
<path d="M0.830421 15.2502H15.1703C15.637 15.2502 16.0154 14.8718 16.0154 14.4051C16.0154 13.9384 15.637 13.5601 15.1703 13.5601H0.830421C0.363701 13.5601 -0.0146484 13.9384 -0.0146484 14.4051C-0.0146484 14.8718 0.363701 15.2502 0.830421 15.2502Z" fill="#0555FF"/>
<path d="M9.41846 4.35547V13.5803H14.3857V6.95259C14.3858 6.81364 14.3451 6.67772 14.2687 6.56168C14.1922 6.44565 14.0834 6.35461 13.9557 6.29985L9.41846 4.35547Z" fill="#0555FF"/>
</g>
<defs>
<clipPath id="clip0_4005_5908">
<rect width="16" height="16" fill="white"/>
</clipPath>
</defs>
</svg>
