<svg width="69" height="64" viewBox="0 0 69 64" fill="none" xmlns="http://www.w3.org/2000/svg">
<g filter="url(#filter0_d_2735_4782)">
<path fill-rule="evenodd" clip-rule="evenodd" d="M44.257 32.0229C44.1959 32.0186 44.1349 32.0153 44.074 32.0128C44.621 30.8789 45.0257 29.6532 45.2612 28.3542C46.2184 23.0753 44.1347 17.9488 40.2581 14.7753C39.241 13.9426 38.6073 12.6991 39.1143 11.4863C39.1391 11.427 39.1604 11.3772 39.177 11.3389C39.1867 11.3166 39.1904 11.305 39.1932 11.2964C39.1978 11.2822 39.1999 11.2756 39.2214 11.2423C39.7354 10.4459 41.2296 9.91044 42.0054 10.455C46.7897 13.8135 49.8261 19.3015 49.9864 25.2913C50.1822 28.7403 49.4346 32.239 47.5083 35.4715C46.6591 36.8965 45.6505 38.168 44.519 39.2769C43.9946 38.1923 43.1574 37.244 42.0451 36.5812C41.7855 36.4265 41.5193 36.2924 41.2485 36.1783C42.1582 35.3081 42.9668 34.3019 43.6426 33.1678C43.8666 32.7919 44.0713 32.4099 44.257 32.0229ZM31.0766 44.5643C33.1508 44.5848 35.1729 44.2594 37.0764 43.6342C38.2012 43.2647 38.5374 41.8277 38.1128 40.7225C37.696 39.6375 36.4876 39.1136 35.3755 39.4517C33.2785 40.0894 31.0026 40.2512 28.6976 39.8333C27.862 39.6818 27.0569 39.4603 26.2869 39.176C25.5435 38.8892 24.8142 38.5359 24.1066 38.1142C21.4079 36.5061 19.4336 34.1461 18.2916 31.4609C17.2107 32.608 15.7593 33.2908 14.2411 33.4322C15.1146 35.4199 16.3373 37.2672 17.8833 38.873C17.8612 38.884 17.8391 38.8948 17.8169 38.9056C19.7144 40.854 22.0476 42.4043 24.6996 43.3877C26.628 44.1282 28.628 44.5292 30.622 44.6104C30.7804 44.6168 30.9323 44.6004 31.0766 44.5643ZM27.7244 7.48693C27.7336 7.45244 27.7431 7.41809 27.7529 7.38387C20.3472 8.78679 14.2157 14.6073 12.7906 22.4668C12.6486 23.25 12.5575 24.0306 12.5149 24.8053C12.4407 26.1531 13.6784 26.8203 15.0066 27.0611C15.9585 27.2337 16.956 26.0324 17.0078 25.0663C17.0398 24.4712 17.1094 23.8714 17.2185 23.2696C17.4031 22.2513 17.6917 21.278 18.0713 20.3587C18.1191 20.2933 18.1605 20.228 18.1946 20.164C18.3709 19.833 18.5743 19.5129 18.7799 19.1895C18.9078 18.9882 19.0366 18.7855 19.1601 18.5782C22.1835 13.5047 27.8638 10.9914 33.3678 11.7556C33.2506 10.4627 33.5259 9.12219 34.2413 7.92168C34.3512 7.73738 34.4688 7.56064 34.5936 7.39162C32.2979 6.99558 29.9683 7.03744 27.7244 7.48693Z" fill="#BB3DFF"/>
<path d="M44.257 32.0229L44.4261 32.104L44.5456 31.8549L44.27 31.8358L44.257 32.0229ZM44.074 32.0128L43.9051 31.9313L43.781 32.1886L44.0664 32.2001L44.074 32.0128ZM45.2612 28.3542L45.4457 28.3877L45.2612 28.3542ZM40.2581 14.7753L40.3769 14.6302L40.2581 14.7753ZM39.1143 11.4863L38.9413 11.414L39.1143 11.4863ZM39.177 11.3389L39.349 11.4134L39.349 11.4134L39.177 11.3389ZM39.1932 11.2964L39.3716 11.3539L39.3716 11.3539L39.1932 11.2964ZM39.2214 11.2423L39.0638 11.1406V11.1406L39.2214 11.2423ZM42.0054 10.455L42.1132 10.3016L42.0054 10.455ZM49.9864 25.2913L49.7989 25.2963L49.7992 25.3019L49.9864 25.2913ZM47.5083 35.4715L47.3472 35.3755L47.5083 35.4715ZM44.519 39.2769L44.3502 39.3585L44.4638 39.5935L44.6502 39.4108L44.519 39.2769ZM42.0451 36.5812L42.1411 36.4201L42.0451 36.5812ZM41.2485 36.1783L41.1189 36.0428L40.9125 36.2403L41.1757 36.3511L41.2485 36.1783ZM43.6426 33.1678L43.8037 33.2638L43.6426 33.1678ZM31.0766 44.5643L31.0784 44.3768L31.0543 44.3765L31.031 44.3824L31.0766 44.5643ZM37.0764 43.6342L37.0179 43.456H37.0179L37.0764 43.6342ZM38.1128 40.7225L37.9378 40.7898L38.1128 40.7225ZM35.3755 39.4517L35.4301 39.6311L35.3755 39.4517ZM28.6976 39.8333L28.731 39.6488H28.731L28.6976 39.8333ZM26.2869 39.176L26.2194 39.351L26.222 39.3519L26.2869 39.176ZM24.1066 38.1142L24.0106 38.2753L24.1066 38.1142ZM18.2916 31.4609L18.4642 31.3875L18.3519 31.1235L18.1552 31.3323L18.2916 31.4609ZM14.2411 33.4322L14.2237 33.2455L13.9648 33.2697L14.0694 33.5077L14.2411 33.4322ZM17.8833 38.873L17.9669 39.0408L18.1954 38.9269L18.0183 38.7429L17.8833 38.873ZM17.8169 38.9056L17.7352 38.7368L17.5012 38.8501L17.6826 39.0364L17.8169 38.9056ZM24.6996 43.3877L24.7669 43.2126L24.7648 43.2119L24.6996 43.3877ZM30.622 44.6104L30.6296 44.423H30.6296L30.622 44.6104ZM27.7244 7.48693L27.5433 7.43848L27.4653 7.73006L27.7612 7.67078L27.7244 7.48693ZM27.7529 7.38387L27.9332 7.43534L28.0166 7.14308L27.718 7.19965L27.7529 7.38387ZM12.7906 22.4668L12.9751 22.5003L12.7906 22.4668ZM12.5149 24.8053L12.3277 24.795L12.5149 24.8053ZM15.0066 27.0611L15.04 26.8766H15.04L15.0066 27.0611ZM17.0078 25.0663L17.1951 25.0763L17.0078 25.0663ZM17.2185 23.2696L17.4029 23.3031L17.2185 23.2696ZM18.0713 20.3587L17.9198 20.2482L17.9066 20.2664L17.898 20.2871L18.0713 20.3587ZM18.1946 20.164L18.3601 20.2521L18.1946 20.164ZM18.7799 19.1895L18.6216 19.0889H18.6216L18.7799 19.1895ZM19.1601 18.5782L18.9991 18.4822L19.1601 18.5782ZM33.3678 11.7556L33.342 11.9413L33.5758 11.9738L33.5545 11.7387L33.3678 11.7556ZM34.2413 7.92168L34.4024 8.01767V8.01766L34.2413 7.92168ZM34.5936 7.39162L34.7445 7.50301L34.925 7.25852L34.6255 7.20685L34.5936 7.39162ZM44.27 31.8358C44.2071 31.8314 44.1443 31.828 44.0816 31.8254L44.0664 32.2001C44.1255 32.2025 44.1847 32.2058 44.2441 32.2099L44.27 31.8358ZM44.2428 32.0943C44.7972 30.9453 45.2071 29.7035 45.4457 28.3877L45.0767 28.3208C44.8443 29.603 44.4449 30.8126 43.9051 31.9313L44.2428 32.0943ZM45.4457 28.3877C46.4155 23.039 44.3041 17.8451 40.3769 14.6302L40.1393 14.9203C43.9654 18.0525 46.0212 23.1115 45.0767 28.3208L45.4457 28.3877ZM40.3769 14.6302C39.3901 13.8224 38.8264 12.661 39.2873 11.5587L38.9413 11.414C38.3881 12.7371 39.0919 14.0629 40.1393 14.9203L40.3769 14.6302ZM39.2873 11.5587C39.3118 11.5001 39.3328 11.451 39.349 11.4134L39.005 11.2643C38.9881 11.3033 38.9664 11.3539 38.9413 11.414L39.2873 11.5587ZM39.349 11.4134C39.3618 11.3839 39.3676 11.3664 39.3716 11.3539L39.0147 11.2388C39.0135 11.2428 39.0128 11.2448 39.0117 11.2477C39.0106 11.2508 39.0086 11.256 39.005 11.2643L39.349 11.4134ZM39.3716 11.3539C39.373 11.3496 39.3727 11.3508 39.372 11.3526C39.3709 11.3555 39.3697 11.3583 39.3686 11.3604C39.3678 11.3619 39.3678 11.3618 39.3696 11.3589C39.3713 11.3559 39.3742 11.3513 39.3789 11.344L39.0638 11.1406C39.0525 11.1582 39.0419 11.1754 39.0332 11.1927C39.0226 11.2139 39.0174 11.2306 39.0147 11.2388L39.3716 11.3539ZM39.3789 11.344C39.6055 10.9929 40.0648 10.6813 40.5706 10.5249C41.0799 10.3675 41.5781 10.3841 41.8977 10.6085L42.1132 10.3016C41.657 9.98136 41.0202 9.99341 40.4598 10.1666C39.8961 10.3409 39.3513 10.6953 39.0638 11.1406L39.3789 11.344ZM41.8977 10.6085C46.6344 13.9335 49.6403 19.367 49.799 25.2963L50.1738 25.2862C50.012 19.2361 46.9451 13.6935 42.1132 10.3016L41.8977 10.6085ZM49.7992 25.3019C49.9931 28.7159 49.2532 32.1771 47.3472 35.3755L47.6693 35.5675C49.616 32.3009 50.3714 28.7647 50.1736 25.2806L49.7992 25.3019ZM47.3472 35.3755C46.5063 36.7865 45.5079 38.0453 44.3877 39.143L44.6502 39.4108C45.7932 38.2908 46.8118 37.0065 47.6693 35.5675L47.3472 35.3755ZM44.6878 39.1953C44.1479 38.0787 43.2858 37.1023 42.1411 36.4201L41.9491 36.7423C43.0289 37.3857 43.8413 38.306 44.3502 39.3585L44.6878 39.1953ZM42.1411 36.4201C41.874 36.261 41.6 36.1229 41.3213 36.0055L41.1757 36.3511C41.4386 36.4618 41.697 36.592 41.9491 36.7423L42.1411 36.4201ZM41.3781 36.3138C42.2999 35.432 43.1191 34.4126 43.8037 33.2638L43.4816 33.0718C42.8145 34.1913 42.0165 35.1842 41.1189 36.0428L41.3781 36.3138ZM43.8037 33.2638C44.0306 32.8831 44.238 32.4961 44.4261 32.104L44.088 31.9417C43.9047 32.3237 43.7027 32.7008 43.4816 33.0719L43.8037 33.2638ZM31.0747 44.7517C33.1698 44.7725 35.2123 44.4438 37.1349 43.8123L37.0179 43.456C35.1335 44.075 33.1318 44.3971 31.0784 44.3768L31.0747 44.7517ZM37.1349 43.8123C37.7669 43.6047 38.169 43.0983 38.3545 42.5107C38.5392 41.9253 38.5149 41.2462 38.2878 40.6553L37.9378 40.7898C38.1354 41.3041 38.1552 41.896 37.9968 42.3978C37.8392 42.8973 37.5107 43.2941 37.0179 43.456L37.1349 43.8123ZM38.2878 40.6553C37.8324 39.4698 36.518 38.9083 35.321 39.2723L35.4301 39.6311C36.4571 39.3188 37.5595 39.8052 37.9378 40.7898L38.2878 40.6553ZM35.321 39.2723C33.2518 39.9016 31.006 40.0613 28.731 39.6488L28.6641 40.0178C30.9991 40.4412 33.3052 40.2773 35.4301 39.6311L35.321 39.2723ZM28.731 39.6488C27.9063 39.4993 27.1116 39.2807 26.3519 39.0001L26.222 39.3519C27.0021 39.64 27.8178 39.8644 28.6641 40.0178L28.731 39.6488ZM26.3544 39.0011C25.6208 38.7181 24.901 38.3694 24.2025 37.9532L24.0106 38.2753C24.7273 38.7024 25.4662 39.0603 26.2194 39.351L26.3544 39.0011ZM24.2025 37.9532C21.5392 36.366 19.5911 34.0374 18.4642 31.3875L18.1191 31.5343C19.2761 34.2549 21.2766 36.6461 24.0106 38.2753L24.2025 37.9532ZM18.1552 31.3323C17.1064 32.4454 15.6976 33.1082 14.2237 33.2455L14.2585 33.6189C15.8209 33.4734 17.3151 32.7707 18.4281 31.5895L18.1552 31.3323ZM14.0694 33.5077C14.9517 35.5151 16.1866 37.3811 17.7482 39.003L18.0183 38.7429C16.4879 37.1534 15.2776 35.3246 14.4127 33.3568L14.0694 33.5077ZM17.7996 38.7052C17.7782 38.7158 17.7567 38.7264 17.7352 38.7368L17.8987 39.0743C17.9215 39.0633 17.9442 39.0521 17.9669 39.0408L17.7996 38.7052ZM17.6826 39.0364C19.599 41.0043 21.9557 42.5702 24.6345 43.5635L24.7648 43.2119C22.1395 42.2385 19.8298 40.7038 17.9513 38.7748L17.6826 39.0364ZM24.6324 43.5627C26.5802 44.3107 28.6003 44.7157 30.6144 44.7977L30.6296 44.423C28.6556 44.3427 26.6758 43.9457 24.7669 43.2126L24.6324 43.5627ZM30.6144 44.7977C30.7908 44.8049 30.9606 44.7866 31.1222 44.7461L31.031 44.3824C30.904 44.4142 30.7701 44.4288 30.6296 44.423L30.6144 44.7977ZM27.9055 7.53538C27.9145 7.50189 27.9237 7.46855 27.9332 7.43534L27.5726 7.33241C27.5625 7.36764 27.5527 7.40299 27.5433 7.43848L27.9055 7.53538ZM27.718 7.19965C20.2386 8.61653 14.0455 14.495 12.6062 22.4334L12.9751 22.5003C14.3859 14.7197 20.4558 8.95705 27.7878 7.5681L27.718 7.19965ZM12.6062 22.4334C12.4628 23.2242 12.3707 24.0126 12.3277 24.795L12.7021 24.8156C12.7443 24.0487 12.8345 23.2758 12.9751 22.5003L12.6062 22.4334ZM12.3277 24.795C12.2867 25.5391 12.6124 26.0987 13.1192 26.4959C13.6186 26.8873 14.2932 27.1223 14.9731 27.2456L15.04 26.8766C14.3918 26.759 13.7835 26.5401 13.3505 26.2007C12.925 25.8672 12.6689 25.4193 12.7021 24.8156L12.3277 24.795ZM14.9731 27.2456C15.5386 27.3481 16.0859 27.0406 16.4815 26.619C16.8796 26.1946 17.1663 25.6127 17.1951 25.0763L16.8206 25.0562C16.7975 25.486 16.5595 25.9877 16.208 26.3624C15.8539 26.7398 15.4265 26.9467 15.04 26.8766L14.9731 27.2456ZM17.1951 25.0763C17.2266 24.489 17.2952 23.8971 17.4029 23.3031L17.034 23.2362C16.9235 23.8457 16.8529 24.4533 16.8206 25.0562L17.1951 25.0763ZM17.4029 23.3031C17.5852 22.2979 17.87 21.3374 18.2446 20.4303L17.898 20.2871C17.5134 21.2186 17.221 22.2047 17.034 23.2362L17.4029 23.3031ZM18.2228 20.4692C18.275 20.3977 18.3213 20.325 18.3601 20.2521L18.0291 20.0758C17.9998 20.131 17.9632 20.1888 17.9198 20.2482L18.2228 20.4692ZM18.3601 20.2521C18.5325 19.9286 18.7319 19.6146 18.9381 19.29L18.6216 19.0889C18.4168 19.4113 18.2094 19.7375 18.0291 20.0758L18.3601 20.2521ZM18.9381 19.29C19.0658 19.0891 19.196 18.8842 19.3212 18.6742L18.9991 18.4822C18.8771 18.6869 18.7498 18.8872 18.6216 19.0889L18.9381 19.29ZM19.3212 18.6742C22.3047 13.6677 27.91 11.1871 33.342 11.9413L33.3936 11.5699C27.8176 10.7957 22.0624 13.3417 18.9991 18.4822L19.3212 18.6742ZM33.5545 11.7387C33.4408 10.4838 33.7079 9.18307 34.4024 8.01767L34.0803 7.8257C33.3439 9.06132 33.0604 10.4415 33.1811 11.7725L33.5545 11.7387ZM34.4024 8.01766C34.5091 7.83868 34.6233 7.66707 34.7445 7.50301L34.4428 7.28023C34.3143 7.45421 34.1932 7.63609 34.0803 7.8257L34.4024 8.01766ZM34.6255 7.20685C32.3067 6.80682 29.9538 6.84913 27.6876 7.30308L27.7612 7.67078C29.9829 7.22575 32.2892 7.18434 34.5618 7.57639L34.6255 7.20685Z" fill="#BB3DFF"/>
<g filter="url(#filter1_b_2735_4782)">
<circle cx="31.6982" cy="9.80324" r="5.85806" transform="rotate(10.2048 31.6982 9.80324)" fill="#BB3DFF" fill-opacity="0.3"/>
<circle cx="31.6982" cy="9.80324" r="5.67056" transform="rotate(10.2048 31.6982 9.80324)" stroke="#BB3DFF" stroke-opacity="0.1" stroke-width="0.375"/>
</g>
<g filter="url(#filter2_b_2735_4782)">
<circle cx="17.3176" cy="34.6487" r="5.87049" transform="rotate(10.2048 17.3176 34.6487)" fill="#BB3DFF" fill-opacity="0.3"/>
<circle cx="17.3176" cy="34.6487" r="5.68299" transform="rotate(10.2048 17.3176 34.6487)" stroke="#BB3DFF" stroke-opacity="0.1" stroke-width="0.375"/>
</g>
<g filter="url(#filter3_b_2735_4782)">
<circle cx="45.3384" cy="34.7752" r="5.8575" transform="rotate(10.2048 45.3384 34.7752)" fill="#BB3DFF" fill-opacity="0.3"/>
<circle cx="45.3384" cy="34.7752" r="5.67" transform="rotate(10.2048 45.3384 34.7752)" stroke="#BB3DFF" stroke-opacity="0.3" stroke-width="0.375"/>
</g>
</g>
<defs>
<filter id="filter0_d_2735_4782" x="0.196289" y="0.194092" width="62.251" height="63.3552" filterUnits="userSpaceOnUse" color-interpolation-filters="sRGB">
<feFlood flood-opacity="0" result="BackgroundImageFix"/>
<feColorMatrix in="SourceAlpha" type="matrix" values="0 0 0 0 0 0 0 0 0 0 0 0 0 0 0 0 0 0 127 0" result="hardAlpha"/>
<feOffset dy="7.5"/>
<feGaussianBlur stdDeviation="5.625"/>
<feComposite in2="hardAlpha" operator="out"/>
<feColorMatrix type="matrix" values="0 0 0 0 0.733333 0 0 0 0 0.239216 0 0 0 0 1 0 0 0 0.3 0"/>
<feBlend mode="normal" in2="BackgroundImageFix" result="effect1_dropShadow_2735_4782"/>
<feBlend mode="normal" in="SourceGraphic" in2="effect1_dropShadow_2735_4782" result="shape"/>
</filter>
<filter id="filter1_b_2735_4782" x="21.3389" y="-0.555908" width="20.7188" height="20.7183" filterUnits="userSpaceOnUse" color-interpolation-filters="sRGB">
<feFlood flood-opacity="0" result="BackgroundImageFix"/>
<feGaussianBlur in="BackgroundImageFix" stdDeviation="2.25"/>
<feComposite in2="SourceAlpha" operator="in" result="effect1_backgroundBlur_2735_4782"/>
<feBlend mode="normal" in="SourceGraphic" in2="effect1_backgroundBlur_2735_4782" result="shape"/>
</filter>
<filter id="filter2_b_2735_4782" x="6.94629" y="24.2773" width="20.7432" height="20.7429" filterUnits="userSpaceOnUse" color-interpolation-filters="sRGB">
<feFlood flood-opacity="0" result="BackgroundImageFix"/>
<feGaussianBlur in="BackgroundImageFix" stdDeviation="2.25"/>
<feComposite in2="SourceAlpha" operator="in" result="effect1_backgroundBlur_2735_4782"/>
<feBlend mode="normal" in="SourceGraphic" in2="effect1_backgroundBlur_2735_4782" result="shape"/>
</filter>
<filter id="filter3_b_2735_4782" x="34.9795" y="24.4167" width="20.7178" height="20.717" filterUnits="userSpaceOnUse" color-interpolation-filters="sRGB">
<feFlood flood-opacity="0" result="BackgroundImageFix"/>
<feGaussianBlur in="BackgroundImageFix" stdDeviation="2.25"/>
<feComposite in2="SourceAlpha" operator="in" result="effect1_backgroundBlur_2735_4782"/>
<feBlend mode="normal" in="SourceGraphic" in2="effect1_backgroundBlur_2735_4782" result="shape"/>
</filter>
</defs>
</svg>
