<svg width="1440" height="264" viewBox="0 0 1440 264" fill="none" xmlns="http://www.w3.org/2000/svg">
<g clip-path="url(#clip0_3614_11252)">
<rect width="1440" height="264" fill="url(#paint0_linear_3614_11252)"/>
<g style="mix-blend-mode:screen" opacity="0.2" clip-path="url(#clip1_3614_11252)">
<path style="mix-blend-mode:color-dodge" d="M1187.01 746.258C1341.57 478.557 1269.33 147.5 1025.67 6.82021C782.001 -133.859 459.179 -30.8883 304.622 236.812C150.065 504.513 222.301 835.571 465.965 976.25C709.629 1116.93 1032.45 1013.96 1187.01 746.258Z" fill="url(#paint1_linear_3614_11252)"/>
<g style="mix-blend-mode:overlay">
<path d="M1282.84 855.446C1357.65 669.524 1077.63 381.717 657.39 212.611C237.15 43.5052 -164.172 57.1374 -238.988 243.06C-313.804 428.982 -33.7814 716.789 386.459 885.895C806.699 1055 1208.02 1041.37 1282.84 855.446Z" stroke="white" stroke-width="1.06" stroke-miterlimit="10"/>
</g>
<g style="mix-blend-mode:overlay">
<path d="M1103.83 984.062C1295.23 813.351 1261.74 463.453 1029.03 202.543C796.326 -58.366 452.519 -131.486 261.118 39.2251C69.7181 209.936 103.204 559.834 335.911 820.744C568.618 1081.65 912.425 1154.77 1103.83 984.062Z" stroke="white" stroke-width="1.06" stroke-miterlimit="10"/>
</g>
<g style="mix-blend-mode:overlay">
<path d="M1757.16 605.946C1743.18 413.316 1365.71 283.724 914.05 316.496C462.391 349.268 107.579 531.992 121.556 724.622C135.533 917.253 513.006 1046.84 964.665 1014.07C1416.32 981.301 1771.14 798.576 1757.16 605.946Z" stroke="white" stroke-width="1.04" stroke-miterlimit="10"/>
</g>
<g style="mix-blend-mode:overlay">
<path d="M1693.08 1011.97C1747.64 830.571 1437.87 577.042 1001.19 445.699C564.512 314.356 166.282 354.936 111.721 536.337C57.16 717.738 366.93 971.267 803.611 1102.61C1240.29 1233.95 1638.52 1193.37 1693.08 1011.97Z" stroke="white" stroke-width="1.04" stroke-miterlimit="10"/>
</g>
<g style="mix-blend-mode:overlay">
<path d="M1267.33 1262.17C1418.16 1085.81 1313.94 749.134 1034.54 510.168C755.141 271.202 406.371 220.444 255.539 396.796C104.707 573.148 208.93 909.829 488.328 1148.79C767.725 1387.76 1116.49 1438.52 1267.33 1262.17Z" stroke="white" stroke-width="1.03" stroke-miterlimit="10"/>
</g>
<g style="mix-blend-mode:overlay">
<path d="M878.41 1170.67C1135.82 969.561 1215.75 641.746 1056.94 438.477C898.129 235.207 560.714 233.458 303.303 434.569C45.8925 635.681 -34.0382 963.496 124.773 1166.77C283.584 1370.03 620.999 1371.78 878.41 1170.67Z" stroke="white" stroke-width="1.03" stroke-miterlimit="10"/>
</g>
<g style="mix-blend-mode:overlay">
<path d="M1240.09 582.96C1208.04 389.998 841.817 290.081 422.109 359.789C2.40102 429.496 -311.859 642.433 -279.811 835.395C-247.762 1028.36 118.459 1128.27 538.167 1058.57C957.875 988.858 1272.13 775.922 1240.09 582.96Z" stroke="white" stroke-width="1.02" stroke-miterlimit="10"/>
</g>
<g style="mix-blend-mode:overlay">
<path d="M1289.03 764.525C1325.85 586.858 996.115 368.296 552.534 276.355C108.953 184.413 -280.493 253.907 -317.319 431.574C-354.144 609.241 -24.4037 827.802 419.177 919.744C862.758 1011.69 1252.2 942.192 1289.03 764.525Z" stroke="white" stroke-width="1.01" stroke-miterlimit="10"/>
</g>
<g style="mix-blend-mode:overlay">
<path d="M1179.16 916.82C1297.75 741.61 1136.27 425.226 818.491 210.157C500.716 -4.91177 146.98 -37.2242 28.3983 137.985C-90.1829 313.195 71.2956 629.578 389.071 844.647C706.846 1059.72 1060.58 1092.03 1179.16 916.82Z" stroke="white" stroke-width="1.01" stroke-miterlimit="10"/>
</g>
<g style="mix-blend-mode:color-dodge">
<path d="M520.908 54.4039C535.371 50.5285 529.379 28.0248 514.881 31.9097C500.382 35.7946 506.392 58.2936 520.908 54.4039Z" fill="white"/>
</g>
<path d="M385.84 261.176C396.696 258.267 392.191 241.382 381.317 244.296C370.443 247.21 374.966 264.09 385.84 261.176Z" fill="#FF4F37"/>
<g style="mix-blend-mode:color-dodge">
<path d="M-10.5135 169.152C0.342795 166.243 -4.16233 149.359 -15.0364 152.273C-25.9104 155.186 -21.3875 172.066 -10.5135 169.152Z" fill="white"/>
</g>
<g style="mix-blend-mode:overlay" opacity="0.6">
<path d="M1065.29 946.378C1381.94 771.291 1542.62 455.725 1424.19 241.541C1305.76 27.3581 953.059 -4.33548 636.412 170.752C319.765 345.839 159.078 661.405 277.509 875.589C395.94 1089.77 748.64 1121.47 1065.29 946.378Z" stroke="white" stroke-width="1.05" stroke-miterlimit="10"/>
</g>
</g>
<g style="mix-blend-mode:color-dodge">
<path d="M559.754 125.598C565.319 124.107 563.012 115.46 557.438 116.954C551.864 118.448 554.18 127.092 559.754 125.598Z" fill="#F01305"/>
</g>
<path d="M690.678 266.064C701.535 263.155 697.03 246.27 686.156 249.184C675.281 252.098 679.804 268.977 690.678 266.064Z" fill="#FF2406"/>
<path opacity="0.5" d="M1293.28 48.6668C1295.87 47.9751 1298.04 48.4607 1299.69 49.5931C1301.36 50.7333 1302.54 52.551 1303.08 54.5605C1303.62 56.57 1303.5 58.7352 1302.63 60.5575C1301.76 62.3675 1300.12 63.8723 1297.54 64.5628C1294.96 65.2546 1292.79 64.7692 1291.13 63.637C1289.46 62.4971 1288.28 60.6797 1287.74 58.6707C1287.2 56.6616 1287.32 54.4967 1288.2 52.6742C1289.07 50.8642 1290.7 49.3586 1293.28 48.6668Z" stroke="#FF1405"/>
<g style="mix-blend-mode:overlay" opacity="0.5">
<path d="M1195.76 779.011C1343.83 522.545 1273.79 204.899 1039.32 69.5273C804.848 -65.8441 494.738 32.322 346.668 288.787C198.597 545.253 268.638 862.899 503.108 998.271C737.578 1133.64 1047.69 1035.48 1195.76 779.011Z" stroke="url(#paint2_linear_3614_11252)" stroke-miterlimit="10"/>
</g>
<g style="mix-blend-mode:color-dodge" opacity="0.4">
<path d="M1131.84 200.277C1141.11 197.791 1137.28 183.373 1127.98 185.867C1118.67 188.361 1122.54 202.767 1131.84 200.277Z" fill="#24E7FC"/>
</g>
<path d="M683.876 30.8421C690.62 29.0351 687.821 18.5464 681.066 20.3564C674.311 22.1664 677.121 32.6521 683.876 30.8421Z" fill="#FF4105"/>
<path d="M683.876 30.8421C690.62 29.0351 687.821 18.5464 681.066 20.3564C674.311 22.1664 677.121 32.6521 683.876 30.8421Z" fill="#FC3124" fill-opacity="0.5"/>
<path opacity="0.2" d="M219.901 195.405C234.365 191.53 228.373 169.026 213.874 172.911C199.375 176.795 205.403 199.29 219.901 195.405Z" fill="white"/>
</g>
<defs>
<linearGradient id="paint0_linear_3614_11252" x1="720" y1="0" x2="720" y2="264" gradientUnits="userSpaceOnUse">
<stop stop-color="#FF3234"/>
<stop offset="1" stop-color="#DD0000"/>
</linearGradient>
<linearGradient id="paint1_linear_3614_11252" x1="107.833" y1="-157.986" x2="902.787" y2="651.343" gradientUnits="userSpaceOnUse">
<stop offset="0.24" stop-color="white"/>
<stop offset="1" stop-color="white" stop-opacity="0"/>
</linearGradient>
<linearGradient id="paint2_linear_3614_11252" x1="346.668" y1="288.787" x2="1195.76" y2="779.011" gradientUnits="userSpaceOnUse">
<stop stop-color="#55FFFC"/>
<stop offset="1" stop-color="#55FFFC" stop-opacity="0"/>
</linearGradient>
<clipPath id="clip0_3614_11252">
<rect width="1440" height="264" fill="white"/>
</clipPath>
<clipPath id="clip1_3614_11252">
<rect width="2032.58" height="1732.58" fill="white" transform="translate(-506.762 -19.9307) rotate(-15)"/>
</clipPath>
</defs>
</svg>
