<svg width="608" height="544" viewBox="0 0 608 544" fill="none" xmlns="http://www.w3.org/2000/svg">
<g clip-path="url(#clip0_612_1427)">
<path d="M342.42 288.971L343.278 288.119C354.355 281.687 363.643 272.616 370.302 261.726C376.961 250.837 380.781 238.472 381.417 225.749C382.37 182.686 344.041 146.437 295.605 145.491C247.169 144.545 206.932 178.522 205.979 221.206C205.025 263.89 243.355 300.517 291.791 301.464H297.321C302.781 305.32 308.481 308.829 314.388 311.969C323.441 316.958 333.593 319.656 343.946 319.825C353.48 318.878 355.006 312.916 353.48 309.698C351.955 306.48 348.427 306.48 345.662 304.682C342.68 303.146 340.249 300.733 338.701 297.773C338.22 296.896 337.948 295.921 337.905 294.923C337.862 293.926 338.051 292.931 338.456 292.017C338.861 291.103 339.472 290.294 340.242 289.651C341.012 289.008 341.92 288.548 342.897 288.308" fill="#F0F4FD"/>
<rect x="218" y="-33" width="446.774" height="446.774" rx="90" transform="rotate(30 218 -33)" fill="#F0F4FD"/>
<g opacity="0.7">
<line x1="64" y1="405" x2="187.85" y2="405" stroke="#0DE592" stroke-width="6" stroke-linecap="round" stroke-dasharray="0.2 25"/>
<line x1="64.0005" y1="377" x2="187.851" y2="377" stroke="#0DE592" stroke-width="6" stroke-linecap="round" stroke-dasharray="0.2 25"/>
<line x1="64" y1="433" x2="187.85" y2="433" stroke="#0DE592" stroke-width="6" stroke-linecap="round" stroke-dasharray="0.2 25"/>
<line x1="64" y1="461" x2="187.85" y2="461" stroke="#0DE592" stroke-width="6" stroke-linecap="round" stroke-dasharray="0.2 25"/>
<line x1="64" y1="489" x2="187.85" y2="489" stroke="#0DE592" stroke-width="6" stroke-linecap="round" stroke-dasharray="0.2 25"/>
</g>
<g opacity="0.6">
<line x1="440" y1="125.337" x2="440" y2="11.3372" stroke="#0555FF" stroke-width="6" stroke-linecap="round" stroke-dasharray="0.2 25"/>
<line x1="471.963" y1="125" x2="471.963" y2="11.0003" stroke="#0555FF" stroke-width="6" stroke-linecap="round" stroke-dasharray="0.2 25"/>
<line x1="535.89" y1="125" x2="535.89" y2="11.0003" stroke="#0555FF" stroke-width="6" stroke-linecap="round" stroke-dasharray="0.2 25"/>
<line x1="567.853" y1="125" x2="567.853" y2="11.0003" stroke="#0555FF" stroke-width="6" stroke-linecap="round" stroke-dasharray="0.2 25"/>
<line x1="503.927" y1="125" x2="503.927" y2="11.0003" stroke="#0555FF" stroke-width="6" stroke-linecap="round" stroke-dasharray="0.2 25"/>
</g>
<g filter="url(#filter0_d_612_1427)">
<rect x="127" y="70" width="396" height="266" rx="16" fill="white"/>
<line x1="157.25" y1="100" x2="157.25" y2="307" stroke="#2C70FF" stroke-opacity="0.16" stroke-width="0.5"/>
<line x1="213.25" y1="100" x2="213.25" y2="307" stroke="#2C70FF" stroke-opacity="0.16" stroke-width="0.5"/>
<line x1="269.25" y1="100" x2="269.25" y2="307" stroke="#2C70FF" stroke-opacity="0.16" stroke-width="0.5"/>
<line x1="325.25" y1="100" x2="325.25" y2="307" stroke="#2C70FF" stroke-opacity="0.16" stroke-width="0.5"/>
<line x1="380.25" y1="100" x2="380.25" y2="307" stroke="#2C70FF" stroke-opacity="0.16" stroke-width="0.5"/>
<line x1="436.25" y1="100" x2="436.25" y2="307" stroke="#2C70FF" stroke-opacity="0.16" stroke-width="0.5"/>
<line x1="492.25" y1="100" x2="492.25" y2="307" stroke="#2C70FF" stroke-opacity="0.16" stroke-width="0.5"/>
<rect x="127.5" y="70.5" width="395" height="265" rx="15.5" stroke="#F2F6FF"/>
</g>
<g filter="url(#filter1_d_612_1427)">
<rect x="129" y="354" width="120" height="120" rx="20" fill="white"/>
<rect x="129.5" y="354.5" width="119" height="119" rx="19.5" stroke="#F2F6FF"/>
</g>
<g filter="url(#filter2_d_612_1427)">
<path fill-rule="evenodd" clip-rule="evenodd" d="M182.605 386.009C183.637 386.01 184.665 386.134 185.668 386.379C186.654 386.613 187.614 386.945 188.534 387.372C189.377 387.758 190.176 388.234 190.918 388.792C191.526 389.248 192.07 389.783 192.537 390.382C193.451 391.582 194.14 392.938 194.572 394.383C194.972 395.75 195.272 397.145 195.469 398.555C195.663 400.079 195.758 401.614 195.753 403.15C196.002 403.349 196.204 403.6 196.344 403.887C196.495 404.212 196.605 404.556 196.672 404.908C196.766 405.414 196.781 405.93 196.716 406.44C196.663 407.094 196.508 407.735 196.256 408.341C196.06 408.753 195.793 409.127 195.469 409.448C195.186 409.731 194.842 409.945 194.462 410.072C194.297 410.68 194.123 411.285 193.938 411.888C193.741 412.38 193.543 412.861 193.325 413.336C193.128 413.748 192.862 414.122 192.537 414.443C191.973 414.914 191.419 415.397 190.875 415.891C190.384 416.456 190.085 417.161 190.021 417.906C189.919 418.477 189.914 419.334 189.943 419.913C189.454 420.808 189.183 421.49 188.925 422.152L188.869 422.328C188.498 423.494 188.35 423.961 188.2 424.846C188.049 425.683 188.005 426.346 187.982 426.683L187.978 426.743C187.887 427.951 188.031 429.299 188.126 430.066C188.289 431.159 188.587 432.187 188.759 432.741C188.92 433.205 189.096 433.665 189.285 434.119L189.308 434.169C189.586 434.772 189.725 435.073 190.152 435.833C190.333 436.129 190.519 436.421 190.709 436.711C191.115 437.313 191.443 437.729 191.65 437.967C192.319 438.765 192.756 439.174 192.756 439.174C193.24 439.633 193.729 440.094 194.454 440.636C194.75 440.848 195.066 441.067 195.066 441.067C195.397 441.284 195.733 441.492 196.074 441.693L196.075 441.693C196.124 441.721 196.149 441.735 196.174 441.749C196.189 441.758 196.203 441.767 196.223 441.778C196.237 441.786 196.253 441.796 196.272 441.807C194.772 442.04 192.209 442.313 190.678 442.446C189.207 442.574 187.733 442.678 186.259 442.759C184.859 442.836 183.634 442.873 182.605 442.873C181.577 442.873 180.374 442.836 178.996 442.759C177.617 442.682 176.217 442.58 174.751 442.446C173.298 442.314 171.847 442.162 170.398 441.991C168.954 441.82 167.641 441.641 166.46 441.453C165.279 441.265 164.294 441.074 163.463 440.884C162.918 440.804 162.396 440.61 161.931 440.316C161.385 439.491 161.096 438.524 161.1 437.535C160.91 435.527 160.991 433.503 161.34 431.516C161.431 430.284 161.996 429.135 162.916 428.309C163.821 427.556 164.85 426.964 165.957 426.559C167.141 426.114 168.345 425.725 169.566 425.395C170.74 425.086 171.856 424.587 172.87 423.919C173.503 423.529 174.078 423.051 174.576 422.499C174.938 422.097 175.226 421.636 175.429 421.136C175.622 420.687 175.718 420.204 175.714 419.716C175.714 419.224 175.692 418.675 175.648 418.068C175.624 417.297 175.321 416.561 174.795 415.996C174.261 415.454 173.706 414.933 173.132 414.434C172.816 414.116 172.563 413.74 172.388 413.327C172.188 412.846 171.991 412.363 171.798 411.879C171.612 411.277 171.438 410.671 171.273 410.063C171.003 409.976 170.751 409.841 170.529 409.665C170.265 409.429 170.03 409.162 169.829 408.871C169.535 408.418 169.321 407.919 169.195 407.394C168.984 406.836 168.902 406.238 168.954 405.644C168.991 405.179 169.087 404.721 169.238 404.281C169.396 403.844 169.634 403.439 169.938 403.089C169.902 401.647 169.975 400.205 170.157 398.774C170.314 397.452 170.57 396.143 170.923 394.858C171.269 393.523 171.839 392.256 172.607 391.111C173.219 390.13 173.987 389.257 174.883 388.527C175.663 387.895 176.524 387.37 177.442 386.965C178.281 386.598 179.163 386.34 180.067 386.199C180.907 386.069 181.756 386.002 182.606 386V386.009H182.605ZM216.935 427.685C216.935 434.778 211.185 440.528 204.092 440.528C196.999 440.528 191.249 434.778 191.249 427.685C191.249 420.592 196.999 414.842 204.092 414.842C211.185 414.842 216.935 420.592 216.935 427.685ZM210.445 421.6C210.562 421.479 210.772 421.321 211.07 421.321C211.368 421.321 211.578 421.479 211.694 421.6L212.621 422.561C212.741 422.685 212.88 422.892 212.88 423.174C212.88 423.454 212.742 423.661 212.622 423.785L206.481 430.203L206.465 430.216C205.908 430.712 205.028 430.764 204.466 430.18L202.684 428.332L197.743 433.544C197.627 433.665 197.416 433.824 197.118 433.824C196.82 433.824 196.609 433.666 196.493 433.545L195.566 432.584C195.406 432.418 195.307 432.193 195.307 431.953C195.307 431.748 195.387 431.49 195.61 431.313L195.601 431.322L195.722 431.438L195.62 431.305L195.61 431.313L201.66 424.99L201.676 424.977C202.233 424.482 203.113 424.429 203.675 425.013L205.457 426.861L210.441 421.604L210.445 421.6Z" fill="url(#paint0_linear_612_1427)"/>
</g>
<g filter="url(#filter3_d_612_1427)">
<rect x="267" y="354" width="120" height="120" rx="20" fill="url(#paint1_radial_612_1427)"/>
</g>
<path fill-rule="evenodd" clip-rule="evenodd" d="M320.714 386.009C321.746 386.01 322.775 386.134 323.777 386.379C324.763 386.613 325.723 386.945 326.643 387.372C327.486 387.758 328.286 388.234 329.027 388.792C329.635 389.248 330.179 389.783 330.647 390.382C331.56 391.582 332.249 392.938 332.681 394.383C333.081 395.75 333.381 397.145 333.578 398.555C333.772 400.079 333.867 401.614 333.862 403.15C334.111 403.349 334.313 403.6 334.453 403.887C334.604 404.212 334.715 404.556 334.781 404.908C334.876 405.414 334.89 405.93 334.825 406.44C334.772 407.094 334.617 407.735 334.366 408.341C334.169 408.753 333.903 409.127 333.578 409.448C333.296 409.731 332.951 409.945 332.572 410.072C332.407 410.68 332.232 411.285 332.047 411.888C331.85 412.38 331.653 412.861 331.434 413.336C331.238 413.748 330.971 414.122 330.647 414.443C330.083 414.914 329.528 415.397 328.984 415.891C328.493 416.456 328.194 417.161 328.131 417.906C328.029 418.477 328.023 419.334 328.052 419.913C327.563 420.808 327.293 421.49 327.035 422.152L326.979 422.328C326.608 423.494 326.459 423.961 326.31 424.846C326.158 425.683 326.114 426.346 326.092 426.683L326.088 426.743C325.997 427.951 326.14 429.299 326.235 430.066C326.398 431.159 326.697 432.187 326.868 432.741C327.03 433.205 327.205 433.665 327.394 434.119L327.417 434.169C327.695 434.772 327.835 435.073 328.262 435.833C328.443 436.129 328.628 436.421 328.819 436.711C329.225 437.313 329.553 437.729 329.759 437.967C330.428 438.765 330.865 439.174 330.865 439.174C331.35 439.633 331.838 440.094 332.563 440.636C332.859 440.848 333.175 441.067 333.175 441.067C333.506 441.284 333.842 441.492 334.183 441.693L334.184 441.693C334.234 441.721 334.258 441.735 334.283 441.749C334.298 441.758 334.313 441.767 334.333 441.778C334.346 441.786 334.362 441.796 334.382 441.807C332.881 442.04 330.319 442.313 328.787 442.446C327.316 442.574 325.843 442.678 324.368 442.759C322.968 442.836 321.743 442.873 320.715 442.873C319.686 442.873 318.483 442.836 317.105 442.759C315.726 442.682 314.326 442.58 312.861 442.446C311.407 442.314 309.956 442.162 308.507 441.991C307.063 441.82 305.75 441.641 304.569 441.453C303.388 441.265 302.403 441.074 301.572 440.884C301.027 440.804 300.506 440.61 300.04 440.316C299.494 439.491 299.205 438.524 299.209 437.535C299.02 435.527 299.1 433.503 299.45 431.516C299.541 430.284 300.105 429.135 301.025 428.309C301.931 427.556 302.959 426.964 304.066 426.559C305.25 426.114 306.455 425.725 307.676 425.395C308.85 425.086 309.966 424.587 310.979 423.919C311.613 423.529 312.187 423.051 312.686 422.499C313.047 422.097 313.336 421.636 313.539 421.136C313.731 420.687 313.828 420.204 313.823 419.716C313.823 419.224 313.801 418.675 313.757 418.068C313.734 417.297 313.43 416.561 312.904 415.996C312.37 415.454 311.816 414.933 311.242 414.434C310.925 414.116 310.672 413.74 310.498 413.327C310.297 412.846 310.1 412.363 309.907 411.879C309.722 411.277 309.547 410.671 309.382 410.063C309.113 409.976 308.861 409.841 308.639 409.665C308.374 409.429 308.139 409.162 307.938 408.871C307.645 408.418 307.43 407.919 307.304 407.394C307.094 406.836 307.011 406.238 307.063 405.644C307.1 405.179 307.196 404.721 307.348 404.281C307.506 403.844 307.743 403.439 308.048 403.089C308.011 401.647 308.085 400.205 308.266 398.774C308.423 397.452 308.679 396.143 309.032 394.858C309.378 393.523 309.948 392.256 310.717 391.111C311.328 390.13 312.097 389.257 312.992 388.527C313.773 387.895 314.633 387.37 315.552 386.965C316.39 386.598 317.272 386.34 318.177 386.199C319.017 386.069 319.865 386.002 320.715 386V386.009H320.714ZM355.043 427.685C355.043 434.778 349.293 440.528 342.2 440.528C335.107 440.528 329.357 434.778 329.357 427.685C329.357 420.592 335.107 414.842 342.2 414.842C349.293 414.842 355.043 420.592 355.043 427.685ZM347.333 422.694C347.334 422.694 347.334 422.694 347.334 422.694H347.333C347.333 422.694 347.333 422.694 347.333 422.694ZM347.333 422.694C344.972 423.358 344.54 425.241 344.692 426.437C343.073 424.559 343.074 422.409 343.077 419.368C343.077 419.247 343.077 419.124 343.077 419C338.567 420.678 338.697 424.992 338.77 427.396C338.784 427.871 338.796 428.272 338.769 428.562C337.411 427.465 337.154 424.844 337.154 424.844C335.72 425.572 335 427.517 335 429.094C335 432.908 338.134 436 342 436C345.866 436 349 432.908 349 429.094C349 428.052 348.644 427.268 348.26 426.425C347.81 425.434 347.322 424.362 347.333 422.694Z" fill="url(#paint2_linear_612_1427)"/>
<g filter="url(#filter4_d_612_1427)">
<rect x="405" y="354" width="120" height="120" rx="20" fill="white"/>
<rect x="405.5" y="354.5" width="119" height="119" rx="19.5" stroke="#F2F6FF"/>
</g>
<path fill-rule="evenodd" clip-rule="evenodd" d="M461.668 386.379C460.665 386.134 459.637 386.01 458.605 386.009H458.606V386C457.756 386.002 456.907 386.069 456.067 386.199C455.163 386.34 454.281 386.598 453.442 386.965C452.524 387.37 451.663 387.895 450.883 388.527C449.987 389.257 449.219 390.13 448.607 391.111C447.839 392.256 447.269 393.523 446.923 394.858C446.57 396.143 446.314 397.452 446.157 398.774C445.975 400.205 445.902 401.647 445.938 403.089C445.634 403.439 445.396 403.844 445.238 404.281C445.087 404.721 444.991 405.179 444.954 405.644C444.902 406.238 444.984 406.836 445.195 407.394C445.321 407.919 445.535 408.418 445.829 408.871C446.03 409.162 446.265 409.429 446.529 409.665C446.751 409.841 447.003 409.976 447.273 410.063C447.438 410.671 447.612 411.277 447.798 411.879C447.991 412.363 448.188 412.846 448.388 413.327C448.563 413.74 448.816 414.116 449.132 414.434C449.706 414.933 450.261 415.454 450.795 415.996C451.321 416.561 451.624 417.297 451.648 418.068C451.692 418.675 451.714 419.224 451.714 419.716C451.718 420.204 451.622 420.687 451.429 421.136C451.226 421.636 450.938 422.097 450.576 422.499C450.078 423.051 449.503 423.529 448.87 423.919C447.856 424.587 446.74 425.086 445.566 425.395C444.345 425.725 443.141 426.114 441.957 426.559C440.85 426.964 439.821 427.556 438.916 428.309C437.996 429.135 437.431 430.284 437.34 431.516C436.991 433.503 436.91 435.527 437.1 437.535C437.096 438.524 437.385 439.491 437.931 440.316C438.396 440.61 438.918 440.804 439.463 440.884C440.294 441.074 441.279 441.265 442.46 441.453C443.641 441.641 444.954 441.82 446.398 441.991C447.847 442.162 449.298 442.314 450.751 442.446C452.217 442.58 453.617 442.682 454.996 442.759C456.374 442.836 457.577 442.873 458.605 442.873C459.634 442.873 460.859 442.836 462.259 442.759C463.733 442.678 465.207 442.574 466.678 442.446C468.209 442.313 470.772 442.04 472.272 441.807L472.223 441.778L472.174 441.749C472.149 441.735 472.124 441.721 472.075 441.693L472.074 441.693C471.733 441.492 471.397 441.284 471.066 441.067C471.066 441.067 470.75 440.848 470.454 440.636C469.729 440.094 469.24 439.633 468.756 439.174C468.756 439.174 468.319 438.765 467.65 437.967C467.443 437.729 467.115 437.313 466.709 436.711C466.519 436.421 466.333 436.129 466.152 435.833C465.725 435.073 465.586 434.772 465.308 434.169L465.285 434.119C465.096 433.665 464.92 433.205 464.759 432.741C464.587 432.187 464.289 431.159 464.126 430.066C464.031 429.299 463.887 427.951 463.978 426.743L463.982 426.683C464.005 426.346 464.049 425.683 464.2 424.846C464.35 423.961 464.498 423.494 464.869 422.328L464.925 422.152C465.183 421.49 465.454 420.808 465.943 419.913C465.914 419.334 465.919 418.477 466.021 417.906C466.085 417.161 466.384 416.456 466.875 415.891C467.419 415.397 467.973 414.914 468.537 414.443C468.862 414.122 469.128 413.748 469.325 413.336C469.543 412.861 469.741 412.38 469.938 411.888C470.123 411.285 470.297 410.68 470.462 410.072C470.842 409.945 471.186 409.731 471.469 409.448C471.793 409.127 472.06 408.753 472.256 408.341C472.508 407.735 472.663 407.094 472.716 406.44C472.781 405.93 472.766 405.414 472.672 404.908C472.605 404.556 472.495 404.212 472.344 403.887C472.204 403.6 472.002 403.349 471.753 403.15C471.758 401.614 471.663 400.079 471.469 398.555C471.272 397.145 470.972 395.75 470.572 394.383C470.14 392.938 469.451 391.582 468.537 390.382C468.07 389.783 467.526 389.248 466.918 388.792C466.176 388.234 465.377 387.758 464.534 387.372C463.614 386.945 462.654 386.613 461.668 386.379ZM480.091 440.528C487.184 440.528 492.934 434.778 492.934 427.685C492.934 420.592 487.184 414.842 480.091 414.842C472.998 414.842 467.248 420.592 467.248 427.685C467.248 434.778 472.998 440.528 480.091 440.528ZM479.009 427.149H477.916L477.925 426.929C478.018 424.793 478.132 422.16 481.535 420.038C481.556 420.027 481.572 420.009 481.582 419.986C481.591 419.964 481.592 419.938 481.586 419.915C481.58 419.892 481.565 419.871 481.546 419.858C481.527 419.844 481.504 419.838 481.481 419.841C474.657 421.003 474.099 425.836 474.088 427.126H472.995C472.918 427.126 472.843 427.149 472.779 427.192C472.714 427.235 472.663 427.297 472.63 427.369C472.597 427.442 472.584 427.523 472.592 427.603C472.601 427.683 472.63 427.76 472.677 427.823L475.444 431.53C475.513 431.626 475.602 431.704 475.705 431.758C475.807 431.812 475.92 431.84 476.035 431.84C476.149 431.84 476.262 431.812 476.365 431.758C476.467 431.704 476.556 431.626 476.625 431.53L479.348 427.823C479.392 427.76 479.419 427.685 479.426 427.606C479.432 427.528 479.419 427.449 479.386 427.378C479.354 427.307 479.303 427.248 479.241 427.205C479.178 427.163 479.105 427.14 479.031 427.138L479.009 427.149ZM482.264 428.531H481.171L481.149 428.542C481.075 428.54 481.002 428.517 480.939 428.475C480.876 428.432 480.826 428.373 480.794 428.302C480.761 428.231 480.747 428.152 480.754 428.074C480.761 427.995 480.787 427.92 480.832 427.857L483.555 424.15C483.623 424.054 483.712 423.976 483.815 423.922C483.917 423.868 484.03 423.84 484.145 423.84C484.26 423.84 484.373 423.868 484.475 423.922C484.578 423.976 484.667 424.054 484.736 424.15L487.502 427.857C487.55 427.92 487.579 427.997 487.587 428.077C487.596 428.157 487.583 428.238 487.55 428.311C487.517 428.383 487.465 428.445 487.401 428.488C487.336 428.531 487.262 428.554 487.185 428.554H486.092C486.081 429.844 485.523 434.677 478.699 435.839C478.676 435.842 478.653 435.836 478.633 435.822C478.614 435.809 478.6 435.788 478.594 435.765C478.587 435.742 478.589 435.716 478.598 435.694C478.607 435.671 478.624 435.653 478.645 435.642C482.047 433.52 482.162 430.887 482.254 428.751C482.258 428.677 482.261 428.604 482.264 428.531Z" fill="url(#paint3_linear_612_1427)"/>
<mask id="mask0_612_1427" style="mask-type:alpha" maskUnits="userSpaceOnUse" x="157" y="100" width="335" height="207">
<rect x="157" y="100" width="335" height="206.786" fill="#C4C4C4"/>
</mask>
<g mask="url(#mask0_612_1427)">
<line x1="293.216" y1="100.25" x2="293.216" y2="306.75" stroke="#FD7D10" stroke-width="0.5" stroke-linecap="round" stroke-dasharray="2 4"/>
<path opacity="0.4" fill-rule="evenodd" clip-rule="evenodd" d="M-180.087 386V368.972C-180.087 344.276 -164.524 322.261 -141.242 314.024V314.024C-132.434 310.908 -123.007 309.954 -113.753 311.244L-110.61 311.683C-88.0984 314.821 -65.4395 307.038 -49.6083 290.728L-48.1991 289.276C-31.1239 271.685 -6.55271 263.51 17.6578 267.365L31.2886 269.535L53.4873 274.49C73.9676 279.062 95.3934 276.54 114.252 267.338L122.41 263.357C132.704 258.334 144.205 256.311 155.595 257.52V257.52C177.157 259.809 198.314 250.478 211.164 233.012L219.001 222.359C234.186 201.719 259.038 190.497 284.561 192.755L286.14 192.894C292.48 193.455 298.7 194.974 304.585 197.399V197.399C331.067 208.312 361.578 199.98 378.838 177.121L386.725 166.675C397.024 153.036 411.423 143.056 427.81 138.202L436.163 135.727C449.02 131.918 461.042 125.713 471.594 117.438L508.665 88.3676V88.3676C529.269 70.8717 560.915 85.5156 560.915 112.546V386H-180.087Z" fill="url(#paint4_linear_612_1427)"/>
<path fill-rule="evenodd" clip-rule="evenodd" d="M-180.087 386V368.972C-180.087 344.276 -164.524 322.261 -141.242 314.024V314.024C-132.434 310.908 -123.007 309.954 -113.753 311.244L-110.61 311.683C-88.0984 314.821 -65.4395 307.038 -49.6083 290.728L-48.1991 289.276C-31.1239 271.685 -6.55271 263.51 17.6578 267.365L31.2886 269.535L53.4873 274.49C73.9676 279.062 95.3934 276.54 114.252 267.338L122.41 263.357C132.704 258.334 144.205 256.311 155.595 257.52V257.52C177.157 259.809 198.314 250.478 211.164 233.012L219.001 222.359C234.186 201.719 259.038 190.497 284.561 192.755L286.14 192.894C292.48 193.455 298.7 194.974 304.585 197.399V197.399C331.067 208.312 361.578 199.98 378.838 177.121L386.725 166.675C397.024 153.036 411.423 143.056 427.81 138.202L436.163 135.727C449.02 131.918 461.042 125.713 471.594 117.438L508.665 88.3676V88.3676C529.269 70.8717 560.915 85.5156 560.915 112.546V386H-180.087Z" stroke="url(#paint5_linear_612_1427)"/>
<g filter="url(#filter5_d_612_1427)">
<circle cx="293" cy="194" r="3" fill="#FD7D10"/>
<circle cx="293" cy="194" r="4" stroke="white" stroke-width="2"/>
</g>
<path opacity="0.2" fill-rule="evenodd" clip-rule="evenodd" d="M-180.087 313V313C-180.087 292.022 -163.826 274.636 -142.895 273.234L-127.837 272.225L-96.7769 273.045C-82.1663 273.43 -67.5575 272.213 -53.2122 269.415L-42.9166 267.407C-28.3254 264.561 -13.4624 263.351 1.39705 263.799L31.2886 264.7L85.122 266.975L138.164 262.075L163.053 262.575C181.209 262.94 199.515 260.783 217.101 256.257V256.257C234.47 251.787 252.544 249.627 270.477 249.928L295.706 250.35L316.999 252.011C338.55 253.693 360.231 251.869 381.198 246.612L384.13 245.876C396.403 242.799 408.94 240.893 421.573 240.185L455.623 238.275L508.665 230.4V230.4C536.072 225.994 560.915 247.161 560.915 274.921V313H-180.087Z" stroke="url(#paint6_linear_612_1427)"/>
<g filter="url(#filter6_d_612_1427)">
<rect x="305" y="181" width="47" height="25" rx="4" fill="url(#paint7_radial_612_1427)"/>
</g>
<path d="M343.844 191.964L340.502 188L337.16 191.964C336.871 192.305 336.985 192.582 337.41 192.582L338.953 192.582L338.953 197.164C338.953 197.629 339.296 198 339.728 198L341.277 198C341.702 198 342.045 197.629 342.052 197.171L342.052 192.582L343.595 192.582C344.013 192.582 344.127 192.305 343.844 191.964V191.964Z" fill="white"/>
<g filter="url(#filter7_d_612_1427)">
<rect x="305" y="237" width="36" height="25" rx="4" fill="url(#paint8_radial_612_1427)"/>
</g>
<path d="M319.144 196.788V195.312H318.364V193.716H316.864V195.312H315.076L318.004 189.456H316.3L313.372 195.312V196.788H316.864V198H318.364V196.788H319.144ZM325.444 195.12C325.444 194.316 325.348 193.512 324.676 192.84C324.328 192.492 323.788 192.264 323.08 192.264C322.504 192.264 322.024 192.48 321.796 192.696V190.86H325.252V189.456H320.38V194.28H321.808C321.916 193.944 322.204 193.584 322.84 193.584C323.596 193.584 323.884 194.136 323.884 195.12C323.884 195.66 323.824 196.116 323.548 196.392C323.356 196.584 323.104 196.668 322.804 196.668C322.156 196.668 321.844 196.284 321.76 195.612H320.2C320.248 196.236 320.368 196.86 320.896 197.388C321.268 197.76 321.916 198.072 322.804 198.072C323.692 198.072 324.304 197.76 324.688 197.376C325.312 196.752 325.444 196.08 325.444 195.12ZM332.031 195.516C332.031 194.472 331.419 193.908 330.951 193.596C331.383 193.296 331.911 192.732 331.911 191.82C331.911 190.308 330.723 189.384 329.295 189.384C327.867 189.384 326.667 190.308 326.667 191.82C326.667 192.732 327.195 193.296 327.627 193.596C327.159 193.908 326.559 194.472 326.559 195.516C326.559 197.172 327.783 198.072 329.295 198.072C330.807 198.072 332.031 197.172 332.031 195.516ZM330.471 195.492C330.471 196.152 329.955 196.668 329.295 196.668C328.635 196.668 328.119 196.152 328.119 195.492C328.119 194.832 328.635 194.304 329.295 194.304C329.955 194.304 330.471 194.832 330.471 195.492ZM330.351 191.868C330.351 192.492 329.907 192.948 329.295 192.948C328.683 192.948 328.227 192.492 328.227 191.868C328.227 191.256 328.683 190.788 329.295 190.788C329.907 190.788 330.351 191.256 330.351 191.868Z" fill="white"/>
<path d="M318.904 254V252.596H315.604L317.992 249.824C318.58 249.14 318.904 248.696 318.904 247.868C318.904 246.332 317.824 245.384 316.312 245.384C314.848 245.384 313.708 246.32 313.708 247.88H315.268C315.268 247.052 315.796 246.788 316.312 246.788C316.972 246.788 317.344 247.22 317.344 247.856C317.344 248.252 317.212 248.516 316.9 248.888L313.708 252.596V254H318.904ZM325.456 251.528C325.456 250.496 324.964 249.908 324.352 249.584C324.916 249.284 325.336 248.756 325.336 247.832C325.336 246.392 324.244 245.384 322.732 245.384C321.292 245.384 320.152 246.296 320.116 247.82H321.676C321.712 247.172 322.144 246.788 322.732 246.788C323.296 246.788 323.776 247.16 323.776 247.88C323.776 248.48 323.452 248.948 322.696 248.948H322.468V250.304H322.696C323.464 250.304 323.896 250.772 323.896 251.48C323.896 252.248 323.416 252.668 322.744 252.668C322.132 252.668 321.604 252.32 321.58 251.552H320.02C320.044 253.34 321.352 254.072 322.744 254.072C324.208 254.072 325.456 253.232 325.456 251.528ZM331.887 251.528V247.928C331.887 246.296 330.687 245.384 329.295 245.384C327.903 245.384 326.691 246.296 326.691 247.928V251.528C326.691 253.16 327.903 254.072 329.295 254.072C330.687 254.072 331.887 253.16 331.887 251.528ZM330.327 251.516C330.327 252.236 329.907 252.668 329.295 252.668C328.683 252.668 328.251 252.236 328.251 251.516V247.952C328.251 247.232 328.683 246.788 329.295 246.788C329.907 246.788 330.327 247.232 330.327 247.952V251.516Z" fill="white"/>
<g filter="url(#filter8_d_612_1427)">
<circle cx="293" cy="250" r="3" fill="#FD7D10"/>
<circle cx="293" cy="250" r="4" stroke="white" stroke-width="2"/>
</g>
</g>
</g>
<defs>
<filter id="filter0_d_612_1427" x="87" y="50" width="476" height="346" filterUnits="userSpaceOnUse" color-interpolation-filters="sRGB">
<feFlood flood-opacity="0" result="BackgroundImageFix"/>
<feColorMatrix in="SourceAlpha" type="matrix" values="0 0 0 0 0 0 0 0 0 0 0 0 0 0 0 0 0 0 127 0" result="hardAlpha"/>
<feMorphology radius="20" operator="erode" in="SourceAlpha" result="effect1_dropShadow_612_1427"/>
<feOffset dy="20"/>
<feGaussianBlur stdDeviation="30"/>
<feColorMatrix type="matrix" values="0 0 0 0 0.0196078 0 0 0 0 0.333333 0 0 0 0 1 0 0 0 0.1 0"/>
<feBlend mode="normal" in2="BackgroundImageFix" result="effect1_dropShadow_612_1427"/>
<feBlend mode="normal" in="SourceGraphic" in2="effect1_dropShadow_612_1427" result="shape"/>
</filter>
<filter id="filter1_d_612_1427" x="89" y="334" width="200" height="200" filterUnits="userSpaceOnUse" color-interpolation-filters="sRGB">
<feFlood flood-opacity="0" result="BackgroundImageFix"/>
<feColorMatrix in="SourceAlpha" type="matrix" values="0 0 0 0 0 0 0 0 0 0 0 0 0 0 0 0 0 0 127 0" result="hardAlpha"/>
<feMorphology radius="20" operator="erode" in="SourceAlpha" result="effect1_dropShadow_612_1427"/>
<feOffset dy="20"/>
<feGaussianBlur stdDeviation="30"/>
<feColorMatrix type="matrix" values="0 0 0 0 0.0196078 0 0 0 0 0.333333 0 0 0 0 1 0 0 0 0.1 0"/>
<feBlend mode="normal" in2="BackgroundImageFix" result="effect1_dropShadow_612_1427"/>
<feBlend mode="normal" in="SourceGraphic" in2="effect1_dropShadow_612_1427" result="shape"/>
</filter>
<filter id="filter2_d_612_1427" x="151" y="377" width="75.9351" height="76.873" filterUnits="userSpaceOnUse" color-interpolation-filters="sRGB">
<feFlood flood-opacity="0" result="BackgroundImageFix"/>
<feColorMatrix in="SourceAlpha" type="matrix" values="0 0 0 0 0 0 0 0 0 0 0 0 0 0 0 0 0 0 127 0" result="hardAlpha"/>
<feOffset dy="1"/>
<feGaussianBlur stdDeviation="5"/>
<feComposite in2="hardAlpha" operator="out"/>
<feColorMatrix type="matrix" values="0 0 0 0 0.164706 0 0 0 0 0.435294 0 0 0 0 1 0 0 0 0.15 0"/>
<feBlend mode="normal" in2="BackgroundImageFix" result="effect1_dropShadow_612_1427"/>
<feBlend mode="normal" in="SourceGraphic" in2="effect1_dropShadow_612_1427" result="shape"/>
</filter>
<filter id="filter3_d_612_1427" x="247" y="354" width="160" height="160" filterUnits="userSpaceOnUse" color-interpolation-filters="sRGB">
<feFlood flood-opacity="0" result="BackgroundImageFix"/>
<feColorMatrix in="SourceAlpha" type="matrix" values="0 0 0 0 0 0 0 0 0 0 0 0 0 0 0 0 0 0 127 0" result="hardAlpha"/>
<feOffset dy="20"/>
<feGaussianBlur stdDeviation="10"/>
<feColorMatrix type="matrix" values="0 0 0 0 0.988235 0 0 0 0 0.47451 0 0 0 0 0.0509804 0 0 0 0.1 0"/>
<feBlend mode="normal" in2="BackgroundImageFix" result="effect1_dropShadow_612_1427"/>
<feBlend mode="normal" in="SourceGraphic" in2="effect1_dropShadow_612_1427" result="shape"/>
</filter>
<filter id="filter4_d_612_1427" x="365" y="334" width="200" height="200" filterUnits="userSpaceOnUse" color-interpolation-filters="sRGB">
<feFlood flood-opacity="0" result="BackgroundImageFix"/>
<feColorMatrix in="SourceAlpha" type="matrix" values="0 0 0 0 0 0 0 0 0 0 0 0 0 0 0 0 0 0 127 0" result="hardAlpha"/>
<feMorphology radius="20" operator="erode" in="SourceAlpha" result="effect1_dropShadow_612_1427"/>
<feOffset dy="20"/>
<feGaussianBlur stdDeviation="30"/>
<feColorMatrix type="matrix" values="0 0 0 0 0.0470588 0 0 0 0 0.882353 0 0 0 0 0.560784 0 0 0 0.1 0"/>
<feBlend mode="normal" in2="BackgroundImageFix" result="effect1_dropShadow_612_1427"/>
<feBlend mode="normal" in="SourceGraphic" in2="effect1_dropShadow_612_1427" result="shape"/>
</filter>
<filter id="filter5_d_612_1427" x="284" y="185" width="18" height="18" filterUnits="userSpaceOnUse" color-interpolation-filters="sRGB">
<feFlood flood-opacity="0" result="BackgroundImageFix"/>
<feColorMatrix in="SourceAlpha" type="matrix" values="0 0 0 0 0 0 0 0 0 0 0 0 0 0 0 0 0 0 127 0" result="hardAlpha"/>
<feOffset/>
<feGaussianBlur stdDeviation="2"/>
<feComposite in2="hardAlpha" operator="out"/>
<feColorMatrix type="matrix" values="0 0 0 0 0.992157 0 0 0 0 0.490196 0 0 0 0 0.0627451 0 0 0 0.23 0"/>
<feBlend mode="normal" in2="BackgroundImageFix" result="effect1_dropShadow_612_1427"/>
<feBlend mode="normal" in="SourceGraphic" in2="effect1_dropShadow_612_1427" result="shape"/>
</filter>
<filter id="filter6_d_612_1427" x="285" y="181" width="87" height="65" filterUnits="userSpaceOnUse" color-interpolation-filters="sRGB">
<feFlood flood-opacity="0" result="BackgroundImageFix"/>
<feColorMatrix in="SourceAlpha" type="matrix" values="0 0 0 0 0 0 0 0 0 0 0 0 0 0 0 0 0 0 127 0" result="hardAlpha"/>
<feOffset dy="20"/>
<feGaussianBlur stdDeviation="10"/>
<feColorMatrix type="matrix" values="0 0 0 0 0.988235 0 0 0 0 0.47451 0 0 0 0 0.0509804 0 0 0 0.1 0"/>
<feBlend mode="normal" in2="BackgroundImageFix" result="effect1_dropShadow_612_1427"/>
<feBlend mode="normal" in="SourceGraphic" in2="effect1_dropShadow_612_1427" result="shape"/>
</filter>
<filter id="filter7_d_612_1427" x="285" y="237" width="76" height="65" filterUnits="userSpaceOnUse" color-interpolation-filters="sRGB">
<feFlood flood-opacity="0" result="BackgroundImageFix"/>
<feColorMatrix in="SourceAlpha" type="matrix" values="0 0 0 0 0 0 0 0 0 0 0 0 0 0 0 0 0 0 127 0" result="hardAlpha"/>
<feOffset dy="20"/>
<feGaussianBlur stdDeviation="10"/>
<feColorMatrix type="matrix" values="0 0 0 0 0.988235 0 0 0 0 0.47451 0 0 0 0 0.0509804 0 0 0 0.1 0"/>
<feBlend mode="normal" in2="BackgroundImageFix" result="effect1_dropShadow_612_1427"/>
<feBlend mode="normal" in="SourceGraphic" in2="effect1_dropShadow_612_1427" result="shape"/>
</filter>
<filter id="filter8_d_612_1427" x="284" y="241" width="18" height="18" filterUnits="userSpaceOnUse" color-interpolation-filters="sRGB">
<feFlood flood-opacity="0" result="BackgroundImageFix"/>
<feColorMatrix in="SourceAlpha" type="matrix" values="0 0 0 0 0 0 0 0 0 0 0 0 0 0 0 0 0 0 127 0" result="hardAlpha"/>
<feOffset/>
<feGaussianBlur stdDeviation="2"/>
<feComposite in2="hardAlpha" operator="out"/>
<feColorMatrix type="matrix" values="0 0 0 0 0.992157 0 0 0 0 0.490196 0 0 0 0 0.0627451 0 0 0 0.23 0"/>
<feBlend mode="normal" in2="BackgroundImageFix" result="effect1_dropShadow_612_1427"/>
<feBlend mode="normal" in="SourceGraphic" in2="effect1_dropShadow_612_1427" result="shape"/>
</filter>
<linearGradient id="paint0_linear_612_1427" x1="210" y1="437" x2="171.292" y2="389.388" gradientUnits="userSpaceOnUse">
<stop stop-color="#6395FD"/>
<stop offset="1" stop-color="#2A6FFF"/>
</linearGradient>
<radialGradient id="paint1_radial_612_1427" cx="0" cy="0" r="1" gradientUnits="userSpaceOnUse" gradientTransform="translate(267.015 414) scale(120.138 557.005)">
<stop stop-color="#FC790D"/>
<stop offset="1" stop-color="#FF9A23"/>
</radialGradient>
<linearGradient id="paint2_linear_612_1427" x1="327.076" y1="386" x2="327.076" y2="442.873" gradientUnits="userSpaceOnUse">
<stop stop-color="white"/>
<stop offset="0.993319" stop-color="white" stop-opacity="0.6"/>
</linearGradient>
<linearGradient id="paint3_linear_612_1427" x1="438.583" y1="387.422" x2="497.404" y2="425.26" gradientUnits="userSpaceOnUse">
<stop stop-color="#07D988"/>
<stop offset="1" stop-color="#15F59F"/>
</linearGradient>
<linearGradient id="paint4_linear_612_1427" x1="189.892" y1="100" x2="189.892" y2="311.604" gradientUnits="userSpaceOnUse">
<stop stop-color="#FD7E10"/>
<stop offset="1" stop-color="#FD7E10" stop-opacity="0"/>
</linearGradient>
<linearGradient id="paint5_linear_612_1427" x1="494.087" y1="139.5" x2="154.543" y2="139.541" gradientUnits="userSpaceOnUse">
<stop stop-color="#FD7F11"/>
<stop offset="1" stop-color="#FF9B25" stop-opacity="0"/>
</linearGradient>
<linearGradient id="paint6_linear_612_1427" x1="494.087" y1="247.411" x2="154.543" y2="247.565" gradientUnits="userSpaceOnUse">
<stop stop-color="#FD7F11"/>
<stop offset="1" stop-color="#FF9B25" stop-opacity="0.4"/>
</linearGradient>
<radialGradient id="paint7_radial_612_1427" cx="0" cy="0" r="1" gradientUnits="userSpaceOnUse" gradientTransform="translate(305.006 193.5) scale(47.0539 116.043)">
<stop stop-color="#FC790D"/>
<stop offset="1" stop-color="#FF9A23"/>
</radialGradient>
<radialGradient id="paint8_radial_612_1427" cx="0" cy="0" r="1" gradientUnits="userSpaceOnUse" gradientTransform="translate(305.004 249.5) scale(36.0413 116.043)">
<stop stop-color="#FC790D"/>
<stop offset="1" stop-color="#FF9A23"/>
</radialGradient>
<clipPath id="clip0_612_1427">
<rect width="608" height="544" fill="white"/>
</clipPath>
</defs>
</svg>
