<svg width="106" height="30" viewBox="0 0 106 30" fill="none" xmlns="http://www.w3.org/2000/svg">
<g clip-path="url(#clip0_3614_11205)">
<path fill-rule="evenodd" clip-rule="evenodd" d="M18.1998 0.978585C19.765 1.63616 21.178 2.60416 22.3519 3.82305C23.5808 4.99523 24.5568 6.40255 25.2208 7.95973C25.8848 9.5169 26.2229 11.1915 26.2147 12.882C26.2324 20.6243 20.7845 26.3283 9.87091 29.9941V25.3013C7.06238 24.5686 4.59695 22.8934 2.89454 20.5611C1.21198 18.3481 0.300161 15.6532 0.296333 12.882C0.275575 11.1921 0.605383 9.51595 1.26529 7.95761C1.92521 6.39927 2.90114 4.99198 4.13254 3.82305C5.30494 2.59793 6.7199 1.62595 8.2888 0.967991C9.8577 0.310028 11.5468 -0.0197472 13.2502 -0.000683026C14.9501 -0.0122424 16.6345 0.321011 18.1998 0.978585ZM16.0462 15.8689L15.9984 15.9163L16.0249 15.8794C15.9705 15.8928 15.9199 15.9183 15.877 15.9541C15.8341 15.9899 15.8 16.035 15.7775 16.0858C15.7549 16.1367 15.7444 16.192 15.7468 16.2475C15.7491 16.3031 15.7643 16.3573 15.7911 16.4061C15.8774 16.5708 16.0128 16.7051 16.179 16.7906C16.232 16.825 16.29 16.8476 16.3468 16.8697C16.4551 16.9118 16.5589 16.9522 16.6147 17.0697C16.6997 17.2488 16.6147 17.5806 16.0834 17.6333C15.5064 17.6239 14.9407 17.4738 14.4362 17.1961C14.1071 17.0214 13.7894 16.8261 13.4852 16.6115H13.177C10.4778 16.5588 8.34188 14.5206 8.39501 12.1452C8.44815 9.76987 10.6904 7.87907 13.3895 7.93174C16.0887 7.98441 18.2246 10.0016 18.1715 12.398C18.136 13.1061 17.9232 13.7942 17.5521 14.4002C17.181 15.0062 16.6635 15.5109 16.0462 15.8689Z" fill="white"/>
<path d="M73.9982 11.6557L76.0704 3.09178H73.164V1.51172H86.9786V3.09178H77.8451L77.2181 5.85687H85.9904L84.5717 14.1785H87.4993V15.7586H72.6221V14.1785H82.7174L83.2115 11.6557H73.9982ZM83.424 10.1652L83.9235 7.35266H76.8568L76.2245 10.1862H83.424V10.1652Z" fill="white"/>
<path d="M69.6783 8.22162H63.6265V7.48953L68.4191 2.67036V1.53271H56.1559V3.07064H65.6508L61.7827 6.88384V8.22162H55.0508V9.78588H61.7827V14.1574H57.6171V15.7164H63.6265V14.3575V9.78588H69.6783V8.22162Z" fill="white"/>
<path d="M95.6234 10.7446L95.9847 13.7309H92.4301L93.5778 7.86887H97.6903V6.32568H90.4482V7.86887H91.8669L90.4482 15.2951H97.9188L97.1749 10.4549L95.6234 10.7446Z" fill="white"/>
<path d="M97.4246 2.1123H90.8096V3.58702H97.4246V2.1123Z" fill="white"/>
<path d="M101.808 2.53854L101.968 1.28503L100.305 1.10596L100.145 2.53854H98.8169V4.09753H99.9646L98.6362 15.5161L100.305 15.7162L101.654 4.09753H103.923L103.721 14.0255H102.866V15.653H105.57L105.703 2.53854H101.808Z" fill="white"/>
<path d="M40.1789 1.64321L40.5402 0.394965L38.8984 0.194824L38.4893 1.64321L38.0855 3.2022L36.7837 7.48942L38.4468 7.66322L39.7751 3.2022H49.4931L49.27 13.9992H46.3902V15.6267H51.1137L51.2731 1.64321H40.1789Z" fill="white"/>
<path d="M40.3491 11.9032H47.5168V5.23535H40.3491V11.9032ZM42.1238 6.75221H45.7262V10.3231H42.1344V6.73114L42.1238 6.75221Z" fill="white"/>
<path d="M41.9431 26.5081C41.9431 28.7904 40.9938 29.9316 39.0952 29.9316C38.3173 29.915 37.5763 29.5996 37.0283 29.052L38.2238 27.8511C38.3141 28.0255 38.447 28.1746 38.6103 28.285C38.7737 28.3954 38.9623 28.4635 39.159 28.4832C39.3128 28.4877 39.4648 28.4497 39.5981 28.3734C39.7313 28.2971 39.8405 28.1856 39.9134 28.0513C40.131 27.4603 40.2162 26.8295 40.1632 26.2026V20.3301H41.9431V26.5081Z" fill="white"/>
<path d="M46.4592 23.6006V26.8924C46.4592 28.0774 46.9215 28.6673 47.846 28.6673C48.7705 28.6673 49.2381 28.0774 49.2381 26.8924V23.6006H50.9171V27.1768C50.9171 28.9833 49.8969 29.8892 47.846 29.8892C45.7951 29.8892 44.7749 28.978 44.7749 27.1768V23.6006H46.4592Z" fill="white"/>
<path d="M59.4185 28.4672V29.6838H53.0425L56.7618 24.8172H53.4835V23.6006H59.5194L55.8745 28.4672H59.4185Z" fill="white"/>
<path d="M63.7278 21.0411C63.7278 21.1588 63.7016 21.275 63.6511 21.3816C63.6006 21.4881 63.527 21.5822 63.4356 21.6573C63.2424 21.8234 62.9953 21.9148 62.7396 21.9148C62.4839 21.9148 62.2367 21.8234 62.0435 21.6573C61.9522 21.5822 61.8786 21.488 61.8281 21.3815C61.7776 21.275 61.7515 21.1588 61.7515 21.0411C61.7515 20.9234 61.7776 20.8072 61.8281 20.7007C61.8786 20.5942 61.9522 20.5 62.0435 20.4249C62.2367 20.2589 62.4839 20.1675 62.7396 20.1675C62.9953 20.1675 63.2424 20.2589 63.4356 20.4249C63.527 20.5 63.6006 20.5942 63.6511 20.7007C63.7016 20.8072 63.7278 20.9234 63.7278 21.0411ZM63.5897 29.684H61.9054V23.6008H63.5897V29.684Z" fill="white"/>
<path d="M69.1099 28.8046C69.1111 28.9547 69.08 29.1033 69.0186 29.2404C68.9572 29.3776 68.867 29.5002 68.7539 29.5999C68.5169 29.8203 68.202 29.9395 67.8772 29.9317C67.5504 29.9382 67.2333 29.8215 66.9899 29.6052C66.872 29.5094 66.777 29.3888 66.7118 29.2522C66.6466 29.1156 66.6128 28.9663 66.6128 28.8152C66.6128 28.664 66.6466 28.5148 66.7118 28.3782C66.777 28.2416 66.872 28.121 66.9899 28.0252C67.2298 27.81 67.5431 27.6933 67.8666 27.6986C68.1875 27.691 68.4999 27.8017 68.7433 28.0094C68.863 28.1042 68.9585 28.2255 69.0222 28.3637C69.0859 28.5018 69.1159 28.6529 69.1099 28.8046Z" fill="white"/>
<path d="M71.9153 19.1606H73.5996V24.1536C73.8884 23.8858 74.2303 23.6804 74.6035 23.5508C74.9768 23.4211 75.3732 23.3699 75.7675 23.4005C76.1893 23.3894 76.6085 23.4689 76.9964 23.6334C77.3843 23.798 77.7318 24.0437 78.015 24.3538C78.5994 24.9582 78.9217 25.7655 78.9129 26.6027C78.9387 27.4675 78.6199 28.3076 78.0256 28.9412C77.7341 29.2515 77.3788 29.4962 76.9838 29.6589C76.5887 29.8215 76.1631 29.8983 75.7356 29.884C74.726 29.884 74.0247 29.6259 73.6102 29.115L73.5784 29.6838H71.894L71.9153 19.1606ZM77.1914 26.6501C77.1955 26.1466 77.0055 25.6605 76.6601 25.2913C76.4879 25.1013 76.2761 24.9506 76.0395 24.8497C75.8028 24.7487 75.5468 24.6999 75.2892 24.7066C75.0343 24.6984 74.7807 24.746 74.5465 24.8462C74.3122 24.9463 74.1032 25.0965 73.9344 25.286C73.5883 25.659 73.3984 26.1486 73.403 26.6554C73.3909 27.165 73.5818 27.6589 73.9344 28.03C74.112 28.2098 74.324 28.3527 74.558 28.4502C74.7921 28.5477 75.0434 28.5979 75.2972 28.5979C75.5511 28.5979 75.8024 28.5477 76.0364 28.4502C76.2704 28.3527 76.4825 28.2098 76.6601 28.03C77.0082 27.654 77.1983 27.1604 77.1914 26.6501Z" fill="white"/>
<path d="M87.8765 26.65C87.891 27.0873 87.8102 27.5225 87.6396 27.9261C87.4691 28.3296 87.2128 28.692 86.8882 28.9885C86.176 29.6143 85.2462 29.9411 84.2953 29.8996C83.3381 29.941 82.4016 29.6146 81.6812 28.9885C81.352 28.6948 81.0916 28.3333 80.9181 27.9293C80.7446 27.5254 80.6623 27.0888 80.6769 26.65C80.6632 26.2136 80.7444 25.7793 80.9149 25.3768C81.0854 24.9742 81.3413 24.6127 81.6652 24.3168C82.3812 23.6907 83.3151 23.3658 84.2688 23.4109C85.2228 23.3679 86.1569 23.6904 86.8776 24.3115C87.2069 24.6048 87.4672 24.9663 87.6398 25.3705C87.8124 25.7746 87.8932 26.2114 87.8765 26.65ZM82.3772 26.65C82.3657 26.9062 82.4068 27.162 82.4981 27.402C82.5895 27.6419 82.7291 27.8609 82.9085 28.0457C83.0912 28.2227 83.3084 28.3608 83.5469 28.4513C83.7854 28.5419 84.0401 28.5831 84.2953 28.5724C84.5517 28.5833 84.8072 28.5374 85.0434 28.4381C85.2796 28.3388 85.4906 28.1885 85.6608 27.9983C86.0054 27.6222 86.195 27.1317 86.1922 26.6237C86.1968 26.1169 86.0069 25.6273 85.6608 25.2543C85.4909 25.0646 85.281 24.9144 85.0459 24.8143C84.8108 24.7142 84.5564 24.6666 84.3006 24.6749C84.0436 24.6654 83.7874 24.7103 83.5492 24.8066C83.311 24.9028 83.0963 25.0483 82.9192 25.2332C82.7372 25.421 82.5954 25.6433 82.5023 25.8868C82.4092 26.1302 82.3666 26.3898 82.3772 26.65Z" fill="white"/>
<path d="M93.6203 28.5621C93.371 28.5591 93.1257 28.499 92.9036 28.3867C92.6815 28.2743 92.4886 28.1126 92.3398 27.9143C92.2534 27.5551 92.2053 27.1879 92.1964 26.8188L92.1698 25.6917V25.6232V25.4757V25.165H93.3281V23.7113H92.1698V21.5361H90.5067V23.3743V23.7113H89.375V25.1913H90.5067V26.6502C90.5067 27.6088 90.6077 28.5885 90.969 29.0151C91.2757 29.3461 91.6538 29.6042 92.0752 29.7701C92.4965 29.9361 92.9502 30.0057 93.4025 29.9736H94.2473V28.5621H93.6203Z" fill="white"/>
</g>
<defs>
<clipPath id="clip0_3614_11205">
<rect width="105.405" height="30" fill="white" transform="translate(0.297363)"/>
</clipPath>
</defs>
</svg>
