<svg width="560" height="440" viewBox="0 0 560 440" fill="none" xmlns="http://www.w3.org/2000/svg">
<g clip-path="url(#clip0_3614_11072)">
<rect width="560" height="440" fill="white"/>
<path d="M299.195 250.846L300.002 250.045C310.423 243.994 319.16 235.461 325.425 225.216C331.689 214.972 335.283 203.34 335.881 191.371C336.778 150.86 300.72 116.759 255.154 115.869C209.588 114.979 171.736 146.942 170.839 187.097C169.942 227.252 206 261.709 251.566 262.599H256.769C261.905 266.227 267.267 269.528 272.824 272.482C281.341 277.175 290.891 279.713 300.63 279.872C309.6 278.982 311.035 273.372 309.6 270.345C308.165 267.318 304.846 267.318 302.245 265.626C299.44 264.181 297.153 261.911 295.697 259.127C295.244 258.302 294.988 257.385 294.948 256.446C294.908 255.507 295.085 254.572 295.466 253.712C295.847 252.852 296.422 252.091 297.146 251.486C297.871 250.881 298.725 250.449 299.644 250.223" fill="#F0F4FD"/>
<g filter="url(#filter0_d_3614_11072)">
<circle cx="55.1479" cy="327.215" r="5.78516" fill="url(#paint0_linear_3614_11072)"/>
</g>
<circle opacity="0.2" cx="357.126" cy="201.015" r="144.874" stroke="#869BB9" stroke-width="0.940741" stroke-linecap="round" stroke-dasharray="1.88 3.76"/>
<circle opacity="0.1" cx="325.141" cy="217.948" r="179.681" stroke="#869BB9" stroke-width="0.940741" stroke-linecap="round" stroke-dasharray="1.88 3.76"/>
<rect x="121" y="327.074" width="261.526" height="77.8351" rx="12.2296" fill="url(#paint1_linear_3614_11072)" fill-opacity="0.2"/>
<rect x="97.4814" y="264.985" width="308.563" height="94.0741" rx="12.2296" fill="white"/>
<rect x="97.4814" y="264.985" width="308.563" height="94.0741" rx="12.2296" fill="url(#paint2_linear_3614_11072)" fill-opacity="0.2"/>
<rect opacity="0.2" x="187.792" y="289.444" width="79.963" height="16.9333" rx="8.46667" fill="#3376FF"/>
<rect opacity="0.2" x="187.792" y="317.667" width="198.496" height="16.9333" rx="8.46667" fill="#FE8C1A"/>
<ellipse opacity="0.2" cx="146.87" cy="312.022" rx="23.9889" ry="24.4593" fill="#FE8C1A"/>
<path d="M138.909 307.319L143.375 302.854C143.645 302.583 143.645 302.147 143.375 301.878C143.105 301.608 142.669 301.608 142.401 301.878L137.933 306.342L133.466 301.877C133.196 301.607 132.759 301.607 132.491 301.877C132.221 302.147 132.221 302.583 132.491 302.852L136.957 307.317L132.491 311.784C132.221 312.054 132.221 312.491 132.491 312.76C132.626 312.895 132.803 312.961 132.978 312.961C133.156 312.961 133.331 312.895 133.466 312.76L137.933 308.294L142.401 312.761C142.536 312.896 142.711 312.963 142.888 312.963C143.065 312.963 143.24 312.896 143.375 312.761C143.645 312.491 143.645 312.054 143.375 311.786L138.909 307.319Z" fill="white" stroke="white" stroke-width="0.940741"/>
<path d="M156.784 307.319L161.25 302.854C161.519 302.583 161.519 302.147 161.25 301.878C160.98 301.608 160.543 301.608 160.275 301.878L155.808 306.342L151.34 301.877C151.07 301.607 150.634 301.607 150.366 301.877C150.096 302.147 150.096 302.583 150.366 302.852L154.831 307.317L150.366 311.784C150.096 312.054 150.096 312.491 150.366 312.76C150.5 312.895 150.677 312.961 150.853 312.961C151.03 312.961 151.205 312.895 151.34 312.76L155.808 308.294L160.275 312.761C160.41 312.896 160.585 312.963 160.762 312.963C160.939 312.963 161.115 312.896 161.25 312.761C161.519 312.491 161.519 312.054 161.25 311.786L156.784 307.319Z" fill="white" stroke="white" stroke-width="0.940741"/>
<rect x="121" y="42.1643" width="261.526" height="77.8351" rx="12.2296" fill="url(#paint3_linear_3614_11072)" fill-opacity="0.2"/>
<rect x="97.4814" y="88.126" width="308.563" height="94.0741" rx="12.2296" fill="white"/>
<rect x="97.4814" y="88.126" width="308.563" height="94.0741" rx="12.2296" fill="url(#paint4_linear_3614_11072)" fill-opacity="0.2"/>
<rect opacity="0.2" x="187.792" y="112.585" width="79.963" height="16.9333" rx="8.46667" fill="#FE8C1A"/>
<rect opacity="0.2" x="187.792" y="140.807" width="198.496" height="16.9333" rx="8.46667" fill="#3376FF"/>
<ellipse opacity="0.2" cx="146.87" cy="135.163" rx="23.9889" ry="24.4593" fill="#FE8C1A"/>
<path d="M138.909 130.46L143.375 125.994C143.645 125.724 143.645 125.287 143.375 125.019C143.105 124.749 142.669 124.749 142.401 125.019L137.933 129.483L133.466 125.017C133.196 124.747 132.759 124.747 132.491 125.017C132.221 125.287 132.221 125.724 132.491 125.992L136.957 130.458L132.491 134.925C132.221 135.195 132.221 135.632 132.491 135.9C132.626 136.035 132.803 136.102 132.978 136.102C133.156 136.102 133.331 136.035 133.466 135.9L137.933 131.435L142.401 135.902C142.536 136.037 142.711 136.104 142.888 136.104C143.065 136.104 143.24 136.037 143.375 135.902C143.645 135.632 143.645 135.195 143.375 134.927L138.909 130.46Z" fill="white" stroke="white" stroke-width="0.940741"/>
<path d="M156.784 130.46L161.25 125.994C161.519 125.724 161.519 125.287 161.25 125.019C160.98 124.749 160.543 124.749 160.275 125.019L155.808 129.483L151.34 125.017C151.07 124.747 150.634 124.747 150.366 125.017C150.096 125.287 150.096 125.724 150.366 125.992L154.831 130.458L150.366 134.925C150.096 135.195 150.096 135.632 150.366 135.9C150.5 136.035 150.677 136.102 150.853 136.102C151.03 136.102 151.205 136.035 151.34 135.9L155.808 131.435L160.275 135.902C160.41 136.037 160.585 136.104 160.762 136.104C160.939 136.104 161.115 136.037 161.25 135.902C161.519 135.632 161.519 135.195 161.25 134.927L156.784 130.46Z" fill="white" stroke="white" stroke-width="0.940741"/>
<circle opacity="0.4" cx="391.463" cy="173.263" r="101.13" stroke="#869BB9" stroke-width="0.940741" stroke-linecap="round" stroke-dasharray="1.88 3.76"/>
<g filter="url(#filter1_d_3614_11072)">
<rect x="74.9038" y="138.926" width="353.719" height="169.333" rx="15.0519" fill="url(#paint5_radial_3614_11072)"/>
</g>
<path d="M107.83 189.256C107.83 196.616 110.753 203.675 115.958 208.879C121.162 214.084 128.221 217.007 135.581 217.007C142.942 217.007 150 214.084 155.205 208.879C160.409 203.675 163.333 196.616 163.333 189.256C163.333 181.895 160.409 174.836 155.205 169.632C150 164.428 142.942 161.504 135.581 161.504C128.221 161.504 121.162 164.428 115.958 169.632C110.753 174.836 107.83 181.895 107.83 189.256Z" fill="url(#paint6_linear_3614_11072)"/>
<path d="M146.099 187.305C144.862 187.305 143.917 186.376 143.917 185.16V180.583C143.917 179.367 144.862 178.437 146.099 178.437C147.336 178.437 148.282 179.367 148.282 180.583V185.16C148.282 186.376 147.263 187.305 146.099 187.305ZM125.074 187.305C123.838 187.305 122.892 186.376 122.892 185.16V180.583C122.892 179.367 123.838 178.437 125.074 178.437C126.311 178.437 127.257 179.367 127.257 180.583V185.16C127.257 186.376 126.311 187.305 125.074 187.305ZM135.478 202.896C130.749 202.896 126.384 200.822 123.401 197.318C122.601 196.388 122.746 195.029 123.692 194.314C124.638 193.527 126.02 193.67 126.748 194.6C128.93 197.175 132.058 198.677 135.478 198.677C138.897 198.677 142.025 197.175 144.208 194.6C145.008 193.67 146.317 193.527 147.263 194.314C148.209 195.101 148.354 196.388 147.554 197.318C144.571 200.822 140.206 202.896 135.478 202.896Z" fill="#FE8716"/>
<rect x="107.83" y="264.044" width="287.867" height="16.9333" rx="8.46667" fill="url(#paint7_linear_3614_11072)"/>
<rect x="107.83" y="235.822" width="115.711" height="16.9333" rx="8.46667" fill="url(#paint8_linear_3614_11072)"/>
<g filter="url(#filter2_d_3614_11072)">
<rect x="410.748" y="74.9556" width="88.4296" height="88.4296" rx="15.0519" fill="url(#paint9_linear_3614_11072)"/>
</g>
<path fill-rule="evenodd" clip-rule="evenodd" d="M433.191 95.6519C429.035 95.6519 425.665 99.0213 425.665 103.178V135.163C425.665 139.319 429.035 142.689 433.191 142.689H478.616C482.772 142.689 486.141 139.319 486.141 135.163V103.178C486.141 99.0213 482.772 95.6519 478.616 95.6519H433.191ZM452.305 103.458C452.734 103.458 453.109 103.748 453.216 104.164L461.34 135.773C461.493 136.368 461.044 136.948 460.429 136.948H455.446C455 136.948 454.616 136.635 454.525 136.198L453.754 132.477C453.664 132.04 453.279 131.727 452.833 131.727H446.65C446.205 131.727 445.82 132.04 445.729 132.477L444.958 136.198C444.868 136.635 444.483 136.948 444.037 136.948H439.054C438.44 136.948 437.99 136.368 438.143 135.773L446.268 104.164C446.374 103.748 446.749 103.458 447.179 103.458H452.305ZM447.391 124.574C447.269 125.158 447.715 125.706 448.312 125.706H451.172C451.769 125.706 452.215 125.158 452.093 124.574L450.663 117.709C450.455 116.711 449.029 116.711 448.821 117.709L447.391 124.574ZM470.23 103.458C470.75 103.458 471.171 103.879 471.171 104.399V136.007C471.171 136.527 470.75 136.948 470.23 136.948H465.432C464.913 136.948 464.492 136.527 464.492 136.007V104.399C464.492 103.879 464.913 103.458 465.432 103.458H470.23Z" fill="url(#paint10_linear_3614_11072)"/>
<circle cx="339.252" cy="81.5407" r="26.3407" fill="white"/>
<circle cx="339.252" cy="81.5407" r="26.3407" fill="white"/>
<g filter="url(#filter3_d_3614_11072)">
<path d="M337.079 66.4888C330.484 66.4888 325.141 71.4196 325.141 77.5049C325.141 80.978 326.89 84.0696 329.619 86.0948V91.6616L334.849 88.3157C335.573 88.4428 336.317 88.5113 337.079 88.5113C343.673 88.5113 349.017 83.5804 349.017 77.5049C349.026 71.4196 343.673 66.4888 337.079 66.4888ZM331.114 79.0801C330.286 79.0801 329.619 78.3757 329.619 77.5049C329.619 76.6342 330.286 75.9298 331.114 75.9298C331.942 75.9298 332.61 76.6342 332.61 77.5049C332.601 78.3757 331.933 79.0801 331.114 79.0801ZM337.079 79.0801C336.251 79.0801 335.583 78.3757 335.583 77.5049C335.583 76.6342 336.251 75.9298 337.079 75.9298C337.906 75.9298 338.574 76.6342 338.574 77.5049C338.574 78.3757 337.906 79.0801 337.079 79.0801V79.0801ZM343.052 79.0801C342.225 79.0801 341.557 78.3757 341.557 77.5049C341.557 76.6342 342.224 75.9298 343.052 75.9298C343.88 75.9298 344.548 76.6342 344.548 77.5049C344.548 78.3757 343.88 79.0801 343.052 79.0801V79.0801ZM350.823 75.9005L350.87 76.6831C350.879 77.4267 350.87 77.3582 350.87 78.043C350.87 85.2632 345.47 90.2626 337.972 90.2626H335.395C337.445 92.366 339.826 93.6574 343.128 93.6574C343.833 93.6574 344.52 93.589 345.188 93.4715L350.004 96.5925V91.4562C352.62 89.5679 354.304 86.6427 354.304 83.3555C354.304 80.4204 352.958 77.7789 350.823 75.9005V75.9005Z" fill="url(#paint11_linear_3614_11072)"/>
</g>
<g filter="url(#filter4_bd_3614_11072)">
<path d="M83.1474 146.452C91.8828 146.452 97.4815 153.394 97.4815 162.736C97.4815 169.986 90.8617 177.97 77.8191 186.942C76.9626 187.53 75.9455 187.844 74.9037 187.844C73.8619 187.844 72.8448 187.53 71.9883 186.942C58.9457 177.97 52.3259 169.986 52.3259 162.736C52.3259 153.394 57.9247 146.452 66.66 146.452C69.8147 146.452 71.9545 147.544 74.9037 150.023C77.8535 147.545 79.9927 146.452 83.1474 146.452Z" fill="#FFD4B0" fill-opacity="0.44"/>
</g>
</g>
<defs>
<filter id="filter0_d_3614_11072" x="45.7471" y="321.43" width="18.8018" height="22.4175" filterUnits="userSpaceOnUse" color-interpolation-filters="sRGB">
<feFlood flood-opacity="0" result="BackgroundImageFix"/>
<feColorMatrix in="SourceAlpha" type="matrix" values="0 0 0 0 0 0 0 0 0 0 0 0 0 0 0 0 0 0 127 0" result="hardAlpha"/>
<feMorphology radius="3.61572" operator="erode" in="SourceAlpha" result="effect1_dropShadow_3614_11072"/>
<feOffset dy="7.23145"/>
<feGaussianBlur stdDeviation="3.61572"/>
<feColorMatrix type="matrix" values="0 0 0 0 0.0352941 0 0 0 0 0.866667 0 0 0 0 0.545098 0 0 0 0.2 0"/>
<feBlend mode="normal" in2="BackgroundImageFix" result="effect1_dropShadow_3614_11072"/>
<feBlend mode="normal" in="SourceGraphic" in2="effect1_dropShadow_3614_11072" result="shape"/>
</filter>
<filter id="filter1_d_3614_11072" x="37.2742" y="120.111" width="428.978" height="244.593" filterUnits="userSpaceOnUse" color-interpolation-filters="sRGB">
<feFlood flood-opacity="0" result="BackgroundImageFix"/>
<feColorMatrix in="SourceAlpha" type="matrix" values="0 0 0 0 0 0 0 0 0 0 0 0 0 0 0 0 0 0 127 0" result="hardAlpha"/>
<feMorphology radius="18.8148" operator="erode" in="SourceAlpha" result="effect1_dropShadow_3614_11072"/>
<feOffset dy="18.8148"/>
<feGaussianBlur stdDeviation="28.2222"/>
<feColorMatrix type="matrix" values="0 0 0 0 0.988235 0 0 0 0 0.47451 0 0 0 0 0.0509804 0 0 0 0.1 0"/>
<feBlend mode="normal" in2="BackgroundImageFix" result="effect1_dropShadow_3614_11072"/>
<feBlend mode="normal" in="SourceGraphic" in2="effect1_dropShadow_3614_11072" result="shape"/>
</filter>
<filter id="filter2_d_3614_11072" x="391.933" y="74.9556" width="126.059" height="126.059" filterUnits="userSpaceOnUse" color-interpolation-filters="sRGB">
<feFlood flood-opacity="0" result="BackgroundImageFix"/>
<feColorMatrix in="SourceAlpha" type="matrix" values="0 0 0 0 0 0 0 0 0 0 0 0 0 0 0 0 0 0 127 0" result="hardAlpha"/>
<feOffset dy="18.8148"/>
<feGaussianBlur stdDeviation="9.40741"/>
<feComposite in2="hardAlpha" operator="out"/>
<feColorMatrix type="matrix" values="0 0 0 0 0.0196078 0 0 0 0 0.333333 0 0 0 0 1 0 0 0 0.1 0"/>
<feBlend mode="normal" in2="BackgroundImageFix" result="effect1_dropShadow_3614_11072"/>
<feBlend mode="normal" in="SourceGraphic" in2="effect1_dropShadow_3614_11072" result="shape"/>
</filter>
<filter id="filter3_d_3614_11072" x="317.444" y="66.4888" width="44.557" height="45.4977" filterUnits="userSpaceOnUse" color-interpolation-filters="sRGB">
<feFlood flood-opacity="0" result="BackgroundImageFix"/>
<feColorMatrix in="SourceAlpha" type="matrix" values="0 0 0 0 0 0 0 0 0 0 0 0 0 0 0 0 0 0 127 0" result="hardAlpha"/>
<feOffset dy="7.69697"/>
<feGaussianBlur stdDeviation="3.84848"/>
<feComposite in2="hardAlpha" operator="out"/>
<feColorMatrix type="matrix" values="0 0 0 0 0.0666667 0 0 0 0 0.368627 0 0 0 0 1 0 0 0 0.1 0"/>
<feBlend mode="normal" in2="BackgroundImageFix" result="effect1_dropShadow_3614_11072"/>
<feBlend mode="normal" in="SourceGraphic" in2="effect1_dropShadow_3614_11072" result="shape"/>
</filter>
<filter id="filter4_bd_3614_11072" x="33.5111" y="134.222" width="82.7851" height="91.2518" filterUnits="userSpaceOnUse" color-interpolation-filters="sRGB">
<feFlood flood-opacity="0" result="BackgroundImageFix"/>
<feGaussianBlur in="BackgroundImageFix" stdDeviation="6.11481"/>
<feComposite in2="SourceAlpha" operator="in" result="effect1_backgroundBlur_3614_11072"/>
<feColorMatrix in="SourceAlpha" type="matrix" values="0 0 0 0 0 0 0 0 0 0 0 0 0 0 0 0 0 0 127 0" result="hardAlpha"/>
<feOffset dy="18.8148"/>
<feGaussianBlur stdDeviation="9.40741"/>
<feColorMatrix type="matrix" values="0 0 0 0 1 0 0 0 0 0.741176 0 0 0 0 0.431373 0 0 0 0.1 0"/>
<feBlend mode="normal" in2="effect1_backgroundBlur_3614_11072" result="effect2_dropShadow_3614_11072"/>
<feBlend mode="normal" in="SourceGraphic" in2="effect2_dropShadow_3614_11072" result="shape"/>
</filter>
<linearGradient id="paint0_linear_3614_11072" x1="49.6903" y1="321.719" x2="61.7384" y2="329.599" gradientUnits="userSpaceOnUse">
<stop stop-color="#07D988"/>
<stop offset="1" stop-color="#15F59F"/>
</linearGradient>
<linearGradient id="paint1_linear_3614_11072" x1="251.763" y1="327.074" x2="251.763" y2="404.909" gradientUnits="userSpaceOnUse">
<stop stop-color="#FF9313"/>
<stop offset="1" stop-color="#FFC37D" stop-opacity="0.4"/>
</linearGradient>
<linearGradient id="paint2_linear_3614_11072" x1="251.763" y1="264.985" x2="251.763" y2="359.059" gradientUnits="userSpaceOnUse">
<stop stop-color="#FF9313"/>
<stop offset="1" stop-color="#FFC37D" stop-opacity="0.4"/>
</linearGradient>
<linearGradient id="paint3_linear_3614_11072" x1="251.763" y1="42.1643" x2="251.763" y2="119.999" gradientUnits="userSpaceOnUse">
<stop stop-color="#FF9313"/>
<stop offset="1" stop-color="#FFC37D" stop-opacity="0.4"/>
</linearGradient>
<linearGradient id="paint4_linear_3614_11072" x1="251.763" y1="88.126" x2="251.763" y2="182.2" gradientUnits="userSpaceOnUse">
<stop stop-color="#FF9313"/>
<stop offset="1" stop-color="#FFC37D" stop-opacity="0.4"/>
</linearGradient>
<radialGradient id="paint5_radial_3614_11072" cx="0" cy="0" r="1" gradientUnits="userSpaceOnUse" gradientTransform="translate(74.9475 223.593) scale(354.124 785.996)">
<stop stop-color="#FC790D"/>
<stop offset="1" stop-color="#FF9A23"/>
</radialGradient>
<linearGradient id="paint6_linear_3614_11072" x1="107.83" y1="189.256" x2="163.333" y2="189.256" gradientUnits="userSpaceOnUse">
<stop stop-color="white"/>
<stop offset="1" stop-color="white" stop-opacity="0.6"/>
</linearGradient>
<linearGradient id="paint7_linear_3614_11072" x1="107.83" y1="272.511" x2="395.696" y2="272.511" gradientUnits="userSpaceOnUse">
<stop stop-color="white"/>
<stop offset="1" stop-color="white" stop-opacity="0.6"/>
</linearGradient>
<linearGradient id="paint8_linear_3614_11072" x1="107.83" y1="244.289" x2="223.541" y2="244.289" gradientUnits="userSpaceOnUse">
<stop stop-color="white"/>
<stop offset="1" stop-color="white" stop-opacity="0.6"/>
</linearGradient>
<linearGradient id="paint9_linear_3614_11072" x1="434.044" y1="74.9556" x2="472.194" y2="161.661" gradientUnits="userSpaceOnUse">
<stop stop-color="#0555FF"/>
<stop offset="1" stop-color="#4380FF"/>
</linearGradient>
<linearGradient id="paint10_linear_3614_11072" x1="429.025" y1="119.17" x2="482.782" y2="119.17" gradientUnits="userSpaceOnUse">
<stop stop-color="white"/>
<stop offset="1" stop-color="white" stop-opacity="0.6"/>
</linearGradient>
<linearGradient id="paint11_linear_3614_11072" x1="325.141" y1="66.4888" x2="355.926" y2="86.4196" gradientUnits="userSpaceOnUse">
<stop stop-color="#115EFF"/>
<stop offset="1" stop-color="#4280FF"/>
</linearGradient>
<clipPath id="clip0_3614_11072">
<rect width="560" height="440" fill="white"/>
</clipPath>
</defs>
</svg>
