<svg width="560" height="440" viewBox="0 0 560 440" fill="none" xmlns="http://www.w3.org/2000/svg">
    <g clip-path="url(#clip0_647_1208)">
        <rect x="360" y="70" width="120" height="120" rx="13" fill="url(#paint0_linear_647_1208)" fill-opacity="0.1" />
        <rect x="75" y="237" width="120" height="120" rx="13" fill="url(#paint1_linear_647_1208)" fill-opacity="0.1" />
        <rect x="459" y="43" width="54" height="54" rx="13" fill="url(#paint2_linear_647_1208)" fill-opacity="0.1" />
        <rect x="48" y="318" width="54" height="54" rx="13" fill="url(#paint3_linear_647_1208)" fill-opacity="0.1" />
        <g filter="url(#filter0_d_647_1208)">
            <circle cx="493.5" cy="363.5" r="12.5" fill="url(#paint4_linear_647_1208)" />
            <circle cx="493.5" cy="363.5" r="12.5" fill="url(#paint5_radial_647_1208)" />
        </g>
        <g opacity="0.31" filter="url(#filter1_d_647_1208)">
            <circle cx="81" cy="61" r="9" transform="rotate(-180 81 61)" fill="url(#paint6_radial_647_1208)" />
        </g>
        <g filter="url(#filter2_d_647_1208)">
            <rect x="136" y="16" width="300" height="380" rx="16" fill="white" />
            <rect x="136.5" y="16.5" width="299" height="379" rx="15.5" stroke="#F2F6FF" />
        </g>
        <line x1="286.25" y1="272" x2="286.25" y2="365" stroke="#6344FF" stroke-opacity="0.16" stroke-width="0.5" stroke-dasharray="2 2" />
        <circle cx="354.5" cy="318.5" r="41.5" stroke="#EAF0F7" stroke-width="10" />
        <mask id="path-11-inside-1_647_1208" fill="white">
            <path d="M342.36 358.211C341.557 360.838 338.761 362.342 336.234 361.262C327.316 357.453 319.769 350.929 314.708 342.559C308.785 332.763 306.684 321.127 308.806 309.879C310.929 298.63 317.125 288.56 326.21 281.595C335.295 274.631 346.63 271.263 358.044 272.135C369.457 273.008 380.148 278.059 388.069 286.323C395.99 294.587 400.585 305.482 400.973 316.923C401.362 328.363 397.516 339.545 390.174 348.327C383.9 355.831 375.449 361.132 366.055 363.542C363.394 364.224 360.859 362.314 360.464 359.595C360.07 356.876 361.969 354.384 364.609 353.625C371.582 351.618 377.839 347.568 382.541 341.945C388.312 335.042 391.335 326.253 391.029 317.26C390.724 308.268 387.113 299.704 380.886 293.208C374.66 286.712 366.257 282.742 357.285 282.056C348.314 281.37 339.405 284.018 332.264 289.492C325.123 294.966 320.252 302.882 318.583 311.723C316.915 320.565 318.567 329.711 323.222 337.411C327.015 343.684 332.584 348.637 339.17 351.68C341.664 352.833 343.163 355.583 342.36 358.211Z" />
        </mask>
        <path d="M342.36 358.211C341.557 360.838 338.761 362.342 336.234 361.262C327.316 357.453 319.769 350.929 314.708 342.559C308.785 332.763 306.684 321.127 308.806 309.879C310.929 298.63 317.125 288.56 326.21 281.595C335.295 274.631 346.63 271.263 358.044 272.135C369.457 273.008 380.148 278.059 388.069 286.323C395.99 294.587 400.585 305.482 400.973 316.923C401.362 328.363 397.516 339.545 390.174 348.327C383.9 355.831 375.449 361.132 366.055 363.542C363.394 364.224 360.859 362.314 360.464 359.595C360.07 356.876 361.969 354.384 364.609 353.625C371.582 351.618 377.839 347.568 382.541 341.945C388.312 335.042 391.335 326.253 391.029 317.26C390.724 308.268 387.113 299.704 380.886 293.208C374.66 286.712 366.257 282.742 357.285 282.056C348.314 281.37 339.405 284.018 332.264 289.492C325.123 294.966 320.252 302.882 318.583 311.723C316.915 320.565 318.567 329.711 323.222 337.411C327.015 343.684 332.584 348.637 339.17 351.68C341.664 352.833 343.163 355.583 342.36 358.211Z" stroke="#2A6FFF" stroke-width="16" mask="url(#path-11-inside-1_647_1208)" />
        <path d="M353.419 305.309H352.326C352.424 303.137 352.424 300.394 355.945 298.198C355.966 298.187 355.982 298.169 355.992 298.146C356.001 298.124 356.003 298.098 355.996 298.075C355.99 298.052 355.976 298.031 355.956 298.018C355.937 298.004 355.914 297.998 355.891 298.001C349.067 299.163 348.509 303.996 348.498 305.286H347.405C347.328 305.286 347.254 305.309 347.189 305.352C347.125 305.395 347.073 305.457 347.04 305.529C347.007 305.602 346.994 305.683 347.002 305.763C347.011 305.843 347.04 305.92 347.088 305.983L349.854 309.69C349.923 309.786 350.012 309.864 350.115 309.918C350.217 309.972 350.33 310 350.445 310C350.559 310 350.672 309.972 350.775 309.918C350.877 309.864 350.967 309.786 351.035 309.69L353.758 305.983C353.802 305.92 353.829 305.845 353.836 305.766C353.843 305.688 353.829 305.609 353.796 305.538C353.764 305.467 353.713 305.408 353.651 305.365C353.588 305.323 353.515 305.3 353.441 305.298L353.419 305.309Z" fill="#2A6FFF" />
        <path d="M356.581 307.691L357.674 307.691C357.576 309.863 357.576 312.606 354.055 314.802C354.034 314.813 354.018 314.831 354.008 314.854C353.999 314.876 353.997 314.902 354.004 314.925C354.01 314.948 354.024 314.969 354.044 314.982C354.063 314.996 354.086 315.002 354.109 314.999C360.933 313.837 361.491 309.004 361.502 307.714L362.595 307.714C362.672 307.714 362.746 307.691 362.811 307.648C362.875 307.605 362.927 307.543 362.96 307.471C362.993 307.398 363.006 307.317 362.998 307.237C362.989 307.157 362.96 307.08 362.912 307.017L360.146 303.31C360.077 303.214 359.988 303.136 359.885 303.082C359.783 303.028 359.67 303 359.555 303C359.441 303 359.328 303.028 359.225 303.082C359.123 303.136 359.033 303.214 358.965 303.31L356.242 307.017C356.198 307.08 356.171 307.155 356.164 307.234C356.157 307.312 356.171 307.391 356.204 307.462C356.236 307.533 356.287 307.592 356.349 307.635C356.412 307.677 356.485 307.7 356.559 307.702L356.581 307.691Z" fill="#2A6FFF" />
        <mask id="path-14-inside-2_647_1208" fill="white">
            <path d="M342.36 358.211C341.557 360.838 338.761 362.342 336.235 361.263C329.595 358.427 323.706 354.082 319.036 348.576C317.259 346.481 317.87 343.366 320.143 341.823C322.417 340.28 325.487 340.9 327.325 342.942C330.639 346.628 334.67 349.601 339.17 351.68C341.664 352.833 343.163 355.583 342.36 358.211Z" />
        </mask>
        <path d="M342.36 358.211C341.557 360.838 338.761 362.342 336.235 361.263C329.595 358.427 323.706 354.082 319.036 348.576C317.259 346.481 317.87 343.366 320.143 341.823C322.417 340.28 325.487 340.9 327.325 342.942C330.639 346.628 334.67 349.601 339.17 351.68C341.664 352.833 343.163 355.583 342.36 358.211Z" stroke="url(#paint7_angular_647_1208)" stroke-width="16" mask="url(#path-14-inside-2_647_1208)" />
        <circle cx="217.5" cy="318.5" r="41.5" stroke="#EAF0F7" stroke-width="10" />
        <mask id="path-16-inside-3_647_1208" fill="white">
            <path d="M257.423 307.077C260.065 306.321 262.847 307.848 263.316 310.555C264.978 320.136 263.6 330.043 259.306 338.86C254.282 349.175 245.623 357.268 234.993 361.584C224.363 365.9 212.513 366.134 201.721 362.241C190.929 358.348 181.957 350.603 176.53 340.494C171.104 330.386 169.606 318.629 172.324 307.483C175.042 296.336 181.785 286.589 191.256 280.114C200.727 273.639 212.257 270.893 223.63 272.406C233.351 273.699 242.371 278.024 249.438 284.703C251.435 286.59 251.17 289.753 249.081 291.537C246.991 293.321 243.871 293.043 241.82 291.215C236.389 286.374 229.604 283.238 222.318 282.269C213.379 281.08 204.316 283.238 196.872 288.327C189.427 293.417 184.127 301.079 181.99 309.84C179.854 318.601 181.031 327.843 185.297 335.788C189.562 343.734 196.614 349.822 205.097 352.882C213.58 355.942 222.895 355.758 231.25 352.365C239.606 348.973 246.412 342.611 250.36 334.504C253.579 327.895 254.713 320.508 253.68 313.306C253.289 310.587 254.781 307.832 257.423 307.077Z" />
        </mask>
        <path d="M257.423 307.077C260.065 306.321 262.847 307.848 263.316 310.555C264.978 320.136 263.6 330.043 259.306 338.86C254.282 349.175 245.623 357.268 234.993 361.584C224.363 365.9 212.513 366.134 201.721 362.241C190.929 358.348 181.957 350.603 176.53 340.494C171.104 330.386 169.606 318.629 172.324 307.483C175.042 296.336 181.785 286.589 191.256 280.114C200.727 273.639 212.257 270.893 223.63 272.406C233.351 273.699 242.371 278.024 249.438 284.703C251.435 286.59 251.17 289.753 249.081 291.537C246.991 293.321 243.871 293.043 241.82 291.215C236.389 286.374 229.604 283.238 222.318 282.269C213.379 281.08 204.316 283.238 196.872 288.327C189.427 293.417 184.127 301.079 181.99 309.84C179.854 318.601 181.031 327.843 185.297 335.788C189.562 343.734 196.614 349.822 205.097 352.882C213.58 355.942 222.895 355.758 231.25 352.365C239.606 348.973 246.412 342.611 250.36 334.504C253.579 327.895 254.713 320.508 253.68 313.306C253.289 310.587 254.781 307.832 257.423 307.077Z" stroke="#2A6FFF" stroke-width="16" mask="url(#path-16-inside-3_647_1208)" />
        <mask id="path-17-inside-4_647_1208" fill="white">
            <path d="M257.423 307.077C260.065 306.321 262.847 307.848 263.316 310.555C264.595 317.929 264.079 325.528 261.778 332.701C258.97 341.459 253.627 349.186 246.426 354.908C239.226 360.629 230.49 364.086 221.324 364.842C213.817 365.462 206.298 364.247 199.404 361.334C196.873 360.265 196.014 357.21 197.348 354.807C198.681 352.405 201.701 351.574 204.262 352.569C209.408 354.568 214.961 355.384 220.506 354.927C227.711 354.332 234.577 351.614 240.237 347.117C245.897 342.62 250.096 336.546 252.304 329.663C254.003 324.365 254.464 318.771 253.679 313.306C253.289 310.587 254.781 307.832 257.423 307.077Z" />
        </mask>
        <path d="M257.423 307.077C260.065 306.321 262.847 307.848 263.316 310.555C264.595 317.929 264.079 325.528 261.778 332.701C258.97 341.459 253.627 349.186 246.426 354.908C239.226 360.629 230.49 364.086 221.324 364.842C213.817 365.462 206.298 364.247 199.404 361.334C196.873 360.265 196.014 357.21 197.348 354.807C198.681 352.405 201.701 351.574 204.262 352.569C209.408 354.568 214.961 355.384 220.506 354.927C227.711 354.332 234.577 351.614 240.237 347.117C245.897 342.62 250.096 336.546 252.304 329.663C254.003 324.365 254.464 318.771 253.679 313.306C253.289 310.587 254.781 307.832 257.423 307.077Z" stroke="url(#paint8_angular_647_1208)" stroke-width="16" mask="url(#path-17-inside-4_647_1208)" />
        <path d="M214.196 334L211.334 328.474C212.576 328.024 213.674 326.908 213.674 325.108C213.674 322.966 212.126 321.184 209.516 321.184H204.494V334H206.996V328.888H208.796L211.298 334H214.196ZM211.172 325.108C211.172 326.098 210.452 326.8 209.354 326.8H206.996V323.416H209.354C210.452 323.416 211.172 324.118 211.172 325.108ZM225.307 327.592C225.307 325.378 225.325 323.776 224.029 322.48C223.129 321.58 222.031 321.076 220.573 321.076C219.115 321.076 217.999 321.58 217.099 322.48C215.803 323.776 215.839 325.378 215.839 327.592C215.839 329.806 215.803 331.408 217.099 332.704C217.999 333.604 219.115 334.108 220.573 334.108C222.031 334.108 223.129 333.604 224.029 332.704C225.325 331.408 225.307 329.806 225.307 327.592ZM222.805 327.592C222.805 330.058 222.661 330.652 222.175 331.192C221.815 331.606 221.257 331.876 220.573 331.876C219.889 331.876 219.313 331.606 218.953 331.192C218.467 330.652 218.341 330.058 218.341 327.592C218.341 325.126 218.467 324.532 218.953 323.992C219.313 323.578 219.889 323.308 220.573 323.308C221.257 323.308 221.815 323.578 222.175 323.992C222.661 324.532 222.805 325.126 222.805 327.592ZM230.357 334V321.184H227.855V334H230.357Z" fill="black" />
        <path d="M222.755 305.342L217.504 299L212.252 305.342C211.797 305.889 211.977 306.331 212.644 306.331L215.068 306.331L215.068 313.662C215.068 314.407 215.608 315 216.286 315L218.721 315C219.388 315 219.928 314.407 219.939 313.673L219.939 306.331L222.364 306.331C223.02 306.331 223.2 305.889 222.755 305.342Z" fill="#2A6FFF" />
        <path d="M349.81 334V331.768H343.996V321.184H341.494V334H349.81ZM358.65 323.416V321.184H349.452V323.416H352.8V334H355.302V323.416H358.65ZM369.599 321.184H366.989L364.415 329.536L361.841 321.184H359.249L363.479 334H365.351L369.599 321.184Z" fill="black" />
        <line x1="151" y1="239.75" x2="419" y2="239.75" stroke="#2C70FF" stroke-opacity="0.16" stroke-width="0.5" />
        <line x1="151" y1="213.75" x2="419" y2="213.75" stroke="#2C70FF" stroke-opacity="0.16" stroke-width="0.5" stroke-dasharray="2 2" />
        <line x1="151" y1="187.75" x2="419" y2="187.75" stroke="#2C70FF" stroke-opacity="0.16" stroke-width="0.5" stroke-dasharray="2 2" />
        <line x1="151" y1="161.75" x2="419" y2="161.75" stroke="#2C70FF" stroke-opacity="0.16" stroke-width="0.5" stroke-dasharray="2 2" />
        <line x1="151" y1="135.75" x2="419" y2="135.75" stroke="#2C70FF" stroke-opacity="0.16" stroke-width="0.5" stroke-dasharray="2 2" />
        <line x1="151" y1="109.75" x2="419" y2="109.75" stroke="#2C70FF" stroke-opacity="0.16" stroke-width="0.5" stroke-dasharray="2 2" />
        <line x1="151" y1="83.75" x2="419" y2="83.75" stroke="#2C70FF" stroke-opacity="0.16" stroke-width="0.5" stroke-dasharray="2 2" />
        <line x1="151" y1="57.75" x2="419" y2="57.75" stroke="#2C70FF" stroke-opacity="0.16" stroke-width="0.5" stroke-dasharray="2 2" />
        <path fill-rule="evenodd" clip-rule="evenodd" d="M159 220.44L169.5 205.812C180 191.184 201 171.928 222 166.077C243 160.226 268.959 164.822 289.959 158.971C310.959 153.12 329 141.5 352 127C375 112.5 396 79 399.5 75.5C403 72 411 60 411 60V240H400.5C390 240 369 240 348 240C327 240 306 240 285 240C264 240 243 240 222 240C201 240 180 240 169.5 240H159V220.44Z" fill="url(#paint9_linear_647_1208)" fill-opacity="0.2" />
        <path d="M159 220L169.5 205.421C180 190.842 201 171.684 222 165.853C243 160.021 268.959 164.602 289.959 158.771C310.959 152.939 334.405 141.76 356 124C379.709 104.502 394.5 83.5 410.5 60" stroke="url(#paint10_linear_647_1208)" stroke-width="3" stroke-linecap="round" />
        <g filter="url(#filter3_d_647_1208)">
            <path fill-rule="evenodd" clip-rule="evenodd" d="M441.864 23.865C441.864 23.8658 441.865 23.8664 441.866 23.8664C441.866 23.8664 441.867 23.8657 441.867 23.8664C441.873 23.8926 443.802 32.2711 441.621 38.6841C441.619 38.6909 441.614 38.6967 441.609 38.7023C441.606 38.7059 441.604 38.7101 441.603 38.7146C440.676 41.9703 439.021 44.6125 436.47 47.5346C435.157 49.0369 434.171 50.5132 433.707 52.5215C432.739 56.6911 430.474 60.1731 427.088 62.8326C426.566 63.2425 425.523 63.5772 425.069 63.3229C424.631 63.079 424.335 61.9478 424.498 61.3484C425.565 57.4643 424.721 54.7503 420.923 52.5915C418.951 51.4708 417.245 49.8869 415.535 48.2999C414.645 47.473 413.753 46.6453 412.822 45.8818C412.314 45.4641 411.463 45.0775 410.884 45.2046C409.961 45.4062 409.061 45.7129 408.161 46.0198C407.462 46.2582 406.762 46.4967 406.05 46.6862C405.493 46.8341 404.54 46.8315 404.302 46.5071C403.972 46.0609 403.9 45.1216 404.149 44.6001C406.131 40.4772 409.208 37.4467 413.331 35.3839C414.6 34.7509 415.817 33.7026 416.644 32.548C422.072 24.9821 429.353 21.2666 438.675 21.5156C440.39 21.5623 441.591 21.9799 441.864 23.865ZM424.213 37.2677C424.54 40.2177 426.859 42.1014 429.742 41.7616C432.721 41.4113 434.713 38.9594 434.371 36.0715C434.034 33.2641 431.309 31.121 428.569 31.5076C425.819 31.8942 423.899 34.4343 424.213 37.2677ZM417.01 51.9976C418.598 53.2794 419.262 56.0686 418.118 57.4853C416.922 58.9642 413.453 61.1125 410.78 62.4877C409.356 63.222 407.641 61.8442 408.048 60.2952C408.806 57.4204 410.121 53.5933 411.377 52.0391C412.521 50.6225 415.388 50.6873 416.976 51.9691L416.992 51.9846C416.995 51.9872 416.998 51.9892 417.001 51.9911C417.004 51.9931 417.008 51.995 417.01 51.9976Z" fill="url(#paint11_linear_647_1208)" />
        </g>
        <g filter="url(#filter4_d_647_1208)">
            <rect x="96" y="78" width="94" height="94" rx="16" fill="url(#paint12_linear_647_1208)" />
            <g filter="url(#filter5_d_647_1208)">
                <circle cx="183" cy="80" r="18" fill="url(#paint13_radial_647_1208)" />
            </g>
            <g filter="url(#filter6_d_647_1208)">
                <path d="M186.066 69.5716C187.576 70.12 188.899 71.0654 189.885 72.3018C191.028 73.7361 191.647 75.4977 191.645 77.31C191.677 78.7622 191.325 80.1983 190.624 81.482C190.097 82.3541 189.448 83.1521 188.697 83.8539C188.369 84.1469 188.074 84.4729 187.818 84.8265C187.733 84.9384 187.673 85.0662 187.642 85.2019C187.527 85.8586 187.471 86.5237 187.474 87.1898V87.258C187.46 88.3762 186.516 89.2725 185.363 89.2631H183.603V81.4052L185.961 79.1272C186.098 78.9972 186.176 78.8187 186.176 78.6324C186.176 78.4461 186.098 78.2676 185.961 78.1376C185.676 77.8632 185.216 77.8632 184.931 78.1376L182.872 80.1255L180.813 78.1034C180.528 77.829 180.069 77.829 179.784 78.1034C179.647 78.232 179.569 78.409 179.569 78.594C179.569 78.779 179.647 78.956 179.784 79.0846L182.142 81.3626V89.2118H180.497C179.942 89.2186 179.407 89.011 179.011 88.6347C178.615 88.2585 178.389 87.7446 178.385 87.2068V87.1301C178.397 86.4792 178.353 85.8285 178.253 85.1848C178.187 84.9587 178.066 84.7511 177.901 84.5791C177.624 84.2627 177.33 83.9608 177.021 83.6747C176.096 82.8236 175.36 81.7989 174.856 80.663C174.426 79.5921 174.214 78.4505 174.231 77.3014C174.233 75.4897 174.852 73.7292 175.991 72.2933C177.076 71.0101 178.486 70.0222 180.083 69.4266L180.453 69.3327C180.964 69.1894 181.489 69.0923 182.019 69.0427H182.098C182.371 69.0427 182.635 69 182.916 69C183.216 69 183.479 69 183.743 69.0427H183.823C184.35 69.0993 184.871 69.1992 185.38 69.3413L186.066 69.5716Z" fill="url(#paint14_linear_647_1208)" shape-rendering="crispEdges" />
            </g>
            <path d="M180.557 89.8423H185.276C185.705 89.8423 185.919 90.0353 185.919 90.4212C185.919 90.8072 185.705 91.0002 185.276 91.0002H180.557C180.128 91.0002 179.914 90.8072 179.914 90.4212C179.914 90.0353 180.128 89.8423 180.557 89.8423Z" fill="#FFFDFA" fill-opacity="0.54" />
            <path d="M117.226 144.709H165.742C166.546 144.709 167.317 145.029 167.886 145.598C168.455 146.166 168.774 146.938 168.774 147.742C168.774 148.546 168.455 149.317 167.886 149.886C167.317 150.454 166.546 150.774 165.742 150.774H117.226C116.421 150.774 115.65 150.454 115.081 149.886C114.513 149.317 114.193 148.546 114.193 147.742C114.193 146.938 114.513 146.166 115.081 145.598C115.65 145.029 116.421 144.709 117.226 144.709ZM127.839 115.398C129.045 115.398 130.202 115.877 131.055 116.73C131.908 117.583 132.387 118.74 132.387 119.946V135.107C132.387 136.314 131.908 137.471 131.055 138.323C130.202 139.176 129.045 139.656 127.839 139.656C126.632 139.656 125.475 139.176 124.622 138.323C123.769 137.471 123.29 136.314 123.29 135.107V119.946C123.29 118.74 123.769 117.583 124.622 116.73C125.475 115.877 126.632 115.398 127.839 115.398ZM143 109.333C144.206 109.333 145.363 109.812 146.216 110.665C147.069 111.518 147.548 112.675 147.548 113.881V135.107C147.548 136.314 147.069 137.471 146.216 138.323C145.363 139.176 144.206 139.656 143 139.656C141.794 139.656 140.637 139.176 139.784 138.323C138.931 137.471 138.451 136.314 138.451 135.107V113.881C138.451 112.675 138.931 111.518 139.784 110.665C140.637 109.812 141.794 109.333 143 109.333ZM158.161 100.236C159.367 100.236 160.524 100.716 161.377 101.569C162.23 102.422 162.709 103.578 162.709 104.785V135.107C162.709 136.314 162.23 137.471 161.377 138.323C160.524 139.176 159.367 139.656 158.161 139.656C156.955 139.656 155.798 139.176 154.945 138.323C154.092 137.471 153.613 136.314 153.613 135.107V104.785C153.613 103.578 154.092 102.422 154.945 101.569C155.798 100.716 156.955 100.236 158.161 100.236Z" fill="url(#paint15_linear_647_1208)" />
        </g>
    </g>
    <defs>
        <filter id="filter0_d_647_1208" x="471" y="351" width="45" height="45" filterUnits="userSpaceOnUse" color-interpolation-filters="sRGB">
            <feFlood flood-opacity="0" result="BackgroundImageFix" />
            <feColorMatrix in="SourceAlpha" type="matrix" values="0 0 0 0 0 0 0 0 0 0 0 0 0 0 0 0 0 0 127 0" result="hardAlpha" />
            <feOffset dy="10" />
            <feGaussianBlur stdDeviation="5" />
            <feColorMatrix type="matrix" values="0 0 0 0 0.396078 0 0 0 0 0.278431 0 0 0 0 1 0 0 0 0.1 0" />
            <feBlend mode="normal" in2="BackgroundImageFix" result="effect1_dropShadow_647_1208" />
            <feBlend mode="normal" in="SourceGraphic" in2="effect1_dropShadow_647_1208" result="shape" />
        </filter>
        <filter id="filter1_d_647_1208" x="62" y="52" width="38" height="38" filterUnits="userSpaceOnUse" color-interpolation-filters="sRGB">
            <feFlood flood-opacity="0" result="BackgroundImageFix" />
            <feColorMatrix in="SourceAlpha" type="matrix" values="0 0 0 0 0 0 0 0 0 0 0 0 0 0 0 0 0 0 127 0" result="hardAlpha" />
            <feOffset dy="10" />
            <feGaussianBlur stdDeviation="5" />
            <feColorMatrix type="matrix" values="0 0 0 0 0.396078 0 0 0 0 0.278431 0 0 0 0 1 0 0 0 0.1 0" />
            <feBlend mode="normal" in2="BackgroundImageFix" result="effect1_dropShadow_647_1208" />
            <feBlend mode="normal" in="SourceGraphic" in2="effect1_dropShadow_647_1208" result="shape" />
        </filter>
        <filter id="filter2_d_647_1208" x="96" y="-4" width="380" height="460" filterUnits="userSpaceOnUse" color-interpolation-filters="sRGB">
            <feFlood flood-opacity="0" result="BackgroundImageFix" />
            <feColorMatrix in="SourceAlpha" type="matrix" values="0 0 0 0 0 0 0 0 0 0 0 0 0 0 0 0 0 0 127 0" result="hardAlpha" />
            <feMorphology radius="20" operator="erode" in="SourceAlpha" result="effect1_dropShadow_647_1208" />
            <feOffset dy="20" />
            <feGaussianBlur stdDeviation="30" />
            <feColorMatrix type="matrix" values="0 0 0 0 0.0196078 0 0 0 0 0.333333 0 0 0 0 1 0 0 0 0.1 0" />
            <feBlend mode="normal" in2="BackgroundImageFix" result="effect1_dropShadow_647_1208" />
            <feBlend mode="normal" in="SourceGraphic" in2="effect1_dropShadow_647_1208" result="shape" />
        </filter>
        <filter id="filter3_d_647_1208" x="384" y="21.5039" width="78.6602" height="81.9072" filterUnits="userSpaceOnUse" color-interpolation-filters="sRGB">
            <feFlood flood-opacity="0" result="BackgroundImageFix" />
            <feColorMatrix in="SourceAlpha" type="matrix" values="0 0 0 0 0 0 0 0 0 0 0 0 0 0 0 0 0 0 127 0" result="hardAlpha" />
            <feOffset dy="20" />
            <feGaussianBlur stdDeviation="10" />
            <feComposite in2="hardAlpha" operator="out" />
            <feColorMatrix type="matrix" values="0 0 0 0 0.164706 0 0 0 0 0.435294 0 0 0 0 1 0 0 0 0.1 0" />
            <feBlend mode="normal" in2="BackgroundImageFix" result="effect1_dropShadow_647_1208" />
            <feBlend mode="normal" in="SourceGraphic" in2="effect1_dropShadow_647_1208" result="shape" />
        </filter>
        <filter id="filter4_d_647_1208" x="86" y="62" width="125" height="130" filterUnits="userSpaceOnUse" color-interpolation-filters="sRGB">
            <feFlood flood-opacity="0" result="BackgroundImageFix" />
            <feColorMatrix in="SourceAlpha" type="matrix" values="0 0 0 0 0 0 0 0 0 0 0 0 0 0 0 0 0 0 127 0" result="hardAlpha" />
            <feOffset dy="10" />
            <feGaussianBlur stdDeviation="5" />
            <feComposite in2="hardAlpha" operator="out" />
            <feColorMatrix type="matrix" values="0 0 0 0 0.0509804 0 0 0 0 0.894118 0 0 0 0 0.572549 0 0 0 0.1 0" />
            <feBlend mode="normal" in2="BackgroundImageFix" result="effect1_dropShadow_647_1208" />
            <feBlend mode="normal" in="SourceGraphic" in2="effect1_dropShadow_647_1208" result="shape" />
        </filter>
        <filter id="filter5_d_647_1208" x="161" y="62" width="44" height="44" filterUnits="userSpaceOnUse" color-interpolation-filters="sRGB">
            <feFlood flood-opacity="0" result="BackgroundImageFix" />
            <feColorMatrix in="SourceAlpha" type="matrix" values="0 0 0 0 0 0 0 0 0 0 0 0 0 0 0 0 0 0 127 0" result="hardAlpha" />
            <feOffset dy="4" />
            <feGaussianBlur stdDeviation="2" />
            <feComposite in2="hardAlpha" operator="out" />
            <feColorMatrix type="matrix" values="0 0 0 0 1 0 0 0 0 0.733333 0 0 0 0 0.423529 0 0 0 0.2 0" />
            <feBlend mode="normal" in2="BackgroundImageFix" result="effect1_dropShadow_647_1208" />
            <feBlend mode="normal" in="SourceGraphic" in2="effect1_dropShadow_647_1208" result="shape" />
        </filter>
        <filter id="filter6_d_647_1208" x="170.23" y="69" width="25.4165" height="28.2632" filterUnits="userSpaceOnUse" color-interpolation-filters="sRGB">
            <feFlood flood-opacity="0" result="BackgroundImageFix" />
            <feColorMatrix in="SourceAlpha" type="matrix" values="0 0 0 0 0 0 0 0 0 0 0 0 0 0 0 0 0 0 127 0" result="hardAlpha" />
            <feOffset dy="4" />
            <feGaussianBlur stdDeviation="2" />
            <feComposite in2="hardAlpha" operator="out" />
            <feColorMatrix type="matrix" values="0 0 0 0 1 0 0 0 0 0.733333 0 0 0 0 0.423529 0 0 0 0.2 0" />
            <feBlend mode="normal" in2="BackgroundImageFix" result="effect1_dropShadow_647_1208" />
            <feBlend mode="normal" in="SourceGraphic" in2="effect1_dropShadow_647_1208" result="shape" />
        </filter>
        <linearGradient id="paint0_linear_647_1208" x1="420" y1="70" x2="420" y2="190" gradientUnits="userSpaceOnUse">
            <stop stop-color="#08DB89" />
            <stop offset="1" stop-color="#09DC8A" stop-opacity="0.4" />
        </linearGradient>
        <linearGradient id="paint1_linear_647_1208" x1="135" y1="237" x2="135" y2="357" gradientUnits="userSpaceOnUse">
            <stop stop-color="#08DB89" />
            <stop offset="1" stop-color="#09DC8A" stop-opacity="0.4" />
        </linearGradient>
        <linearGradient id="paint2_linear_647_1208" x1="486" y1="43" x2="486" y2="97" gradientUnits="userSpaceOnUse">
            <stop stop-color="#08DB89" />
            <stop offset="1" stop-color="#09DC8A" stop-opacity="0.4" />
        </linearGradient>
        <linearGradient id="paint3_linear_647_1208" x1="75" y1="318" x2="75" y2="372" gradientUnits="userSpaceOnUse">
            <stop stop-color="#08DB89" />
            <stop offset="1" stop-color="#09DC8A" stop-opacity="0.4" />
        </linearGradient>
        <linearGradient id="paint4_linear_647_1208" x1="475.534" y1="351" x2="497.404" y2="380.332" gradientUnits="userSpaceOnUse">
            <stop stop-color="#00F395" />
            <stop offset="1" stop-color="#09DD8B" />
        </linearGradient>
        <radialGradient id="paint5_radial_647_1208" cx="0" cy="0" r="1" gradientUnits="userSpaceOnUse" gradientTransform="translate(483.15 353.083) rotate(57.6111) scale(25.7288 28.4151)">
            <stop stop-color="#5432FF" />
            <stop offset="1" stop-color="#7256FF" />
        </radialGradient>
        <radialGradient id="paint6_radial_647_1208" cx="0" cy="0" r="1" gradientUnits="userSpaceOnUse" gradientTransform="translate(85.7045 52) rotate(116.565) scale(19.2099 21.2156)">
            <stop stop-color="#0958FF" />
            <stop offset="1" stop-color="#3073FF" stop-opacity="0" />
        </radialGradient>
        <radialGradient id="paint7_angular_647_1208" cx="0" cy="0" r="1" gradientUnits="userSpaceOnUse" gradientTransform="translate(354.5 318.5) rotate(147.67) scale(46.7467)">
            <stop offset="0.549883" stop-color="#D2E0F8" stop-opacity="0.5" />
            <stop offset="0.915458" stop-color="#9DBCFA" />
        </radialGradient>
        <radialGradient id="paint8_angular_647_1208" cx="0" cy="0" r="1" gradientUnits="userSpaceOnUse" gradientTransform="translate(217.5 318.5) rotate(147.67) scale(46.7467)">
            <stop offset="0.549883" stop-color="#D2E0F8" stop-opacity="0.5" />
            <stop offset="0.915458" stop-color="#9DBCFA" />
        </radialGradient>
        <linearGradient id="paint9_linear_647_1208" x1="285" y1="99" x2="285" y2="240" gradientUnits="userSpaceOnUse">
            <stop stop-color="#125EFF" />
            <stop offset="1" stop-color="#105DFE" stop-opacity="0" />
        </linearGradient>
        <linearGradient id="paint10_linear_647_1208" x1="416.5" y1="56" x2="166" y2="220" gradientUnits="userSpaceOnUse">
            <stop stop-color="#0C5AFF" />
            <stop offset="1" stop-color="#0C5AFF" stop-opacity="0" />
        </linearGradient>
        <linearGradient id="paint11_linear_647_1208" x1="414.185" y1="21.5039" x2="433.242" y2="61.4597" gradientUnits="userSpaceOnUse">
            <stop stop-color="#0555FF" />
            <stop offset="1" stop-color="#4380FF" />
        </linearGradient>
        <linearGradient id="paint12_linear_647_1208" x1="98.6604" y1="80.35" x2="196.542" y2="144.373" gradientUnits="userSpaceOnUse">
            <stop stop-color="#07D988" />
            <stop offset="1" stop-color="#15F59F" />
        </linearGradient>
        <radialGradient id="paint13_radial_647_1208" cx="0" cy="0" r="1" gradientUnits="userSpaceOnUse" gradientTransform="translate(173.571 65) rotate(62.5009) scale(35.2707)">
            <stop stop-color="#FF9A23" />
            <stop offset="1" stop-color="#FFC37D" />
        </radialGradient>
        <linearGradient id="paint14_linear_647_1208" x1="182.939" y1="69" x2="182.939" y2="89.2632" gradientUnits="userSpaceOnUse">
            <stop stop-color="white" />
            <stop offset="0.993319" stop-color="white" stop-opacity="0.6" />
        </linearGradient>
        <linearGradient id="paint15_linear_647_1208" x1="168.361" y1="99.8015" x2="130.64" y2="154.49" gradientUnits="userSpaceOnUse">
            <stop offset="0.474963" stop-color="#FCFCFC" />
            <stop offset="1" stop-color="#FCFCFC" stop-opacity="0.6" />
        </linearGradient>
        <clipPath id="clip0_647_1208">
            <rect width="560" height="440" fill="white" />
        </clipPath>
    </defs>
</svg>
    