<svg width="560" height="448" viewBox="0 0 560 448" fill="none" xmlns="http://www.w3.org/2000/svg">
    <rect width="560" height="440" fill="white" />
    <circle cx="280" cy="220" r="220" fill="url(#paint0_linear_647_1123)" />
    <circle cx="280" cy="220" r="219.5" stroke="url(#paint1_linear_647_1123)" stroke-opacity="0.6" />
    <circle cx="448" cy="37" r="12" fill="url(#paint2_radial_647_1123)" fill-opacity="0.3" />
    <ellipse cx="279.5" cy="201" rx="191" ry="191.5" transform="rotate(90 279.5 201)" stroke="url(#paint3_linear_647_1123)" stroke-opacity="0.24" stroke-linecap="round" />
    <circle cx="279" cy="187" r="177" stroke="url(#paint4_linear_647_1123)" stroke-opacity="0.16" stroke-linecap="round" />
    <circle cx="278.5" cy="153.5" r="121.5" fill="#1863FF" fill-opacity="0.04" stroke="url(#paint5_linear_647_1123)" stroke-opacity="0.14" stroke-linecap="round" stroke-dasharray="2 4" />
    <path opacity="0.6" d="M186.5 191.167C186.5 190.891 186.276 190.667 186 190.667C185.724 190.667 185.5 190.891 185.5 191.167H186.5ZM185.5 187.833C185.5 188.109 185.724 188.333 186 188.333C186.276 188.333 186.5 188.109 186.5 187.833H185.5ZM186.5 186.167C186.5 185.891 186.276 185.667 186 185.667C185.724 185.667 185.5 185.891 185.5 186.167H186.5ZM185.5 182.833C185.5 183.109 185.724 183.333 186 183.333C186.276 183.333 186.5 183.109 186.5 182.833H185.5ZM186.536 181.171C186.559 180.896 186.356 180.653 186.081 180.63C185.805 180.606 185.563 180.81 185.539 181.085L186.536 181.171ZM186.482 177.561C186.365 177.811 186.473 178.109 186.723 178.226C186.973 178.343 187.271 178.235 187.388 177.984L186.482 177.561ZM188.217 176.551C188.376 176.325 188.321 176.013 188.095 175.854C187.869 175.696 187.557 175.751 187.398 175.977L188.217 176.551ZM189.977 173.398C189.751 173.557 189.696 173.869 189.854 174.095C190.013 174.321 190.325 174.376 190.551 174.217L189.977 173.398ZM191.984 173.388C192.235 173.271 192.343 172.973 192.226 172.723C192.109 172.473 191.811 172.365 191.561 172.482L191.984 173.388ZM195.085 171.539C194.81 171.563 194.606 171.805 194.63 172.081C194.653 172.356 194.896 172.559 195.171 172.536L195.085 171.539ZM196.964 172.5C197.24 172.5 197.464 172.276 197.464 172C197.464 171.724 197.24 171.5 196.964 171.5V172.5ZM200.821 171.5C200.545 171.5 200.321 171.724 200.321 172C200.321 172.276 200.545 172.5 200.821 172.5V171.5ZM202.75 172.5C203.026 172.5 203.25 172.276 203.25 172C203.25 171.724 203.026 171.5 202.75 171.5V172.5ZM206.607 171.5C206.331 171.5 206.107 171.724 206.107 172C206.107 172.276 206.331 172.5 206.607 172.5V171.5ZM208.536 172.5C208.812 172.5 209.036 172.276 209.036 172C209.036 171.724 208.812 171.5 208.536 171.5V172.5ZM212.393 171.5C212.117 171.5 211.893 171.724 211.893 172C211.893 172.276 212.117 172.5 212.393 172.5V171.5ZM214.321 172.5C214.598 172.5 214.821 172.276 214.821 172C214.821 171.724 214.598 171.5 214.321 171.5V172.5ZM218.179 171.5C217.902 171.5 217.679 171.724 217.679 172C217.679 172.276 217.902 172.5 218.179 172.5V171.5ZM220.107 172.5C220.383 172.5 220.607 172.276 220.607 172C220.607 171.724 220.383 171.5 220.107 171.5V172.5ZM223.964 171.5C223.688 171.5 223.464 171.724 223.464 172C223.464 172.276 223.688 172.5 223.964 172.5V171.5ZM225.893 172.5C226.169 172.5 226.393 172.276 226.393 172C226.393 171.724 226.169 171.5 225.893 171.5V172.5ZM229.75 171.5C229.474 171.5 229.25 171.724 229.25 172C229.25 172.276 229.474 172.5 229.75 172.5V171.5ZM231.679 172.5C231.955 172.5 232.179 172.276 232.179 172C232.179 171.724 231.955 171.5 231.679 171.5V172.5ZM235.536 171.5C235.26 171.5 235.036 171.724 235.036 172C235.036 172.276 235.26 172.5 235.536 172.5V171.5ZM237.464 172.5C237.74 172.5 237.964 172.276 237.964 172C237.964 171.724 237.74 171.5 237.464 171.5V172.5ZM241.321 171.5C241.045 171.5 240.821 171.724 240.821 172C240.821 172.276 241.045 172.5 241.321 172.5V171.5ZM243.25 172.5C243.526 172.5 243.75 172.276 243.75 172C243.75 171.724 243.526 171.5 243.25 171.5V172.5ZM247.107 171.5C246.831 171.5 246.607 171.724 246.607 172C246.607 172.276 246.831 172.5 247.107 172.5V171.5ZM249.036 172.5C249.312 172.5 249.536 172.276 249.536 172C249.536 171.724 249.312 171.5 249.036 171.5V172.5ZM252.893 171.5C252.617 171.5 252.393 171.724 252.393 172C252.393 172.276 252.617 172.5 252.893 172.5V171.5ZM254.821 172.5C255.098 172.5 255.321 172.276 255.321 172C255.321 171.724 255.098 171.5 254.821 171.5V172.5ZM258.679 171.5C258.402 171.5 258.179 171.724 258.179 172C258.179 172.276 258.402 172.5 258.679 172.5V171.5ZM260.607 172.5C260.883 172.5 261.107 172.276 261.107 172C261.107 171.724 260.883 171.5 260.607 171.5V172.5ZM264.464 171.5C264.188 171.5 263.964 171.724 263.964 172C263.964 172.276 264.188 172.5 264.464 172.5V171.5ZM266.393 172.5C266.669 172.5 266.893 172.276 266.893 172C266.893 171.724 266.669 171.5 266.393 171.5V172.5ZM270.25 171.5C269.974 171.5 269.75 171.724 269.75 172C269.75 172.276 269.974 172.5 270.25 172.5V171.5ZM272.179 172.5C272.455 172.5 272.679 172.276 272.679 172C272.679 171.724 272.455 171.5 272.179 171.5V172.5ZM276.036 171.5C275.76 171.5 275.536 171.724 275.536 172C275.536 172.276 275.76 172.5 276.036 172.5V171.5ZM186.5 192V191.167H185.5V192H186.5ZM186.5 187.833V186.167H185.5V187.833H186.5ZM186.5 182.833V182H185.5V182.833H186.5ZM186.5 182C186.5 181.721 186.512 181.444 186.536 181.171L185.539 181.085C185.513 181.386 185.5 181.692 185.5 182H186.5ZM187.388 177.984C187.623 177.481 187.901 177.002 188.217 176.551L187.398 175.977C187.049 176.475 186.742 177.005 186.482 177.561L187.388 177.984ZM190.551 174.217C191.002 173.901 191.481 173.623 191.984 173.388L191.561 172.482C191.005 172.742 190.475 173.049 189.977 173.398L190.551 174.217ZM195.171 172.536C195.444 172.512 195.721 172.5 196 172.5V171.5C195.692 171.5 195.386 171.513 195.085 171.539L195.171 172.536ZM196 172.5H196.964V171.5H196V172.5ZM200.821 172.5H202.75V171.5H200.821V172.5ZM206.607 172.5H208.536V171.5H206.607V172.5ZM212.393 172.5H214.321V171.5H212.393V172.5ZM218.179 172.5H220.107V171.5H218.179V172.5ZM223.964 172.5H225.893V171.5H223.964V172.5ZM229.75 172.5H231.679V171.5H229.75V172.5ZM235.536 172.5H237.464V171.5H235.536V172.5ZM241.321 172.5H243.25V171.5H241.321V172.5ZM247.107 172.5H249.036V171.5H247.107V172.5ZM252.893 172.5H254.821V171.5H252.893V172.5ZM258.679 172.5H260.607V171.5H258.679V172.5ZM264.464 172.5H266.393V171.5H264.464V172.5ZM270.25 172.5H272.179V171.5H270.25V172.5ZM276.036 172.5H277V171.5H276.036V172.5Z" fill="#869BB9" />
    <path opacity="0.6" d="M138.5 319.167C138.5 318.891 138.276 318.667 138 318.667C137.724 318.667 137.5 318.891 137.5 319.167H138.5ZM137.5 315.833C137.5 316.109 137.724 316.333 138 316.333C138.276 316.333 138.5 316.109 138.5 315.833H137.5ZM138.5 314.167C138.5 313.891 138.276 313.667 138 313.667C137.724 313.667 137.5 313.891 137.5 314.167H138.5ZM137.5 310.833C137.5 311.109 137.724 311.333 138 311.333C138.276 311.333 138.5 311.109 138.5 310.833H137.5ZM138.536 309.171C138.559 308.896 138.356 308.653 138.081 308.63C137.805 308.606 137.563 308.81 137.539 309.085L138.536 309.171ZM138.482 305.561C138.365 305.811 138.473 306.109 138.723 306.226C138.973 306.343 139.271 306.235 139.388 305.984L138.482 305.561ZM140.217 304.551C140.376 304.325 140.321 304.013 140.095 303.854C139.869 303.696 139.557 303.751 139.398 303.977L140.217 304.551ZM141.977 301.398C141.751 301.557 141.696 301.869 141.854 302.095C142.013 302.321 142.325 302.376 142.551 302.217L141.977 301.398ZM143.984 301.388C144.235 301.271 144.343 300.973 144.226 300.723C144.109 300.473 143.811 300.365 143.561 300.482L143.984 301.388ZM147.085 299.539C146.81 299.563 146.606 299.805 146.63 300.081C146.653 300.356 146.896 300.559 147.171 300.536L147.085 299.539ZM149.056 300.5C149.332 300.5 149.556 300.276 149.556 300C149.556 299.724 149.332 299.5 149.056 299.5V300.5ZM153.278 299.5C153.002 299.5 152.778 299.724 152.778 300C152.778 300.276 153.002 300.5 153.278 300.5V299.5ZM155.389 300.5C155.665 300.5 155.889 300.276 155.889 300C155.889 299.724 155.665 299.5 155.389 299.5V300.5ZM159.611 299.5C159.335 299.5 159.111 299.724 159.111 300C159.111 300.276 159.335 300.5 159.611 300.5V299.5ZM161.722 300.5C161.998 300.5 162.222 300.276 162.222 300C162.222 299.724 161.998 299.5 161.722 299.5V300.5ZM165.944 299.5C165.668 299.5 165.444 299.724 165.444 300C165.444 300.276 165.668 300.5 165.944 300.5V299.5ZM168.056 300.5C168.332 300.5 168.556 300.276 168.556 300C168.556 299.724 168.332 299.5 168.056 299.5V300.5ZM172.278 299.5C172.002 299.5 171.778 299.724 171.778 300C171.778 300.276 172.002 300.5 172.278 300.5V299.5ZM174.389 300.5C174.665 300.5 174.889 300.276 174.889 300C174.889 299.724 174.665 299.5 174.389 299.5V300.5ZM178.611 299.5C178.335 299.5 178.111 299.724 178.111 300C178.111 300.276 178.335 300.5 178.611 300.5V299.5ZM180.722 300.5C180.998 300.5 181.222 300.276 181.222 300C181.222 299.724 180.998 299.5 180.722 299.5V300.5ZM184.944 299.5C184.668 299.5 184.444 299.724 184.444 300C184.444 300.276 184.668 300.5 184.944 300.5V299.5ZM138.5 320V319.167H137.5V320H138.5ZM138.5 315.833V314.167H137.5V315.833H138.5ZM138.5 310.833V310H137.5V310.833H138.5ZM138.5 310C138.5 309.721 138.512 309.444 138.536 309.171L137.539 309.085C137.513 309.386 137.5 309.692 137.5 310H138.5ZM139.388 305.984C139.623 305.481 139.901 305.002 140.217 304.551L139.398 303.977C139.049 304.475 138.742 305.005 138.482 305.561L139.388 305.984ZM142.551 302.217C143.002 301.901 143.481 301.623 143.984 301.388L143.561 300.482C143.005 300.742 142.475 301.049 141.977 301.398L142.551 302.217ZM147.171 300.536C147.444 300.512 147.721 300.5 148 300.5V299.5C147.692 299.5 147.386 299.513 147.085 299.539L147.171 300.536ZM148 300.5H149.056V299.5H148V300.5ZM153.278 300.5H155.389V299.5H153.278V300.5ZM159.611 300.5H161.722V299.5H159.611V300.5ZM165.944 300.5H168.056V299.5H165.944V300.5ZM172.278 300.5H174.389V299.5H172.278V300.5ZM178.611 300.5H180.722V299.5H178.611V300.5ZM184.944 300.5H186V299.5H184.944V300.5Z" fill="#869BB9" />
    <path opacity="0.6" d="M332.5 319.167C332.5 318.891 332.276 318.667 332 318.667C331.724 318.667 331.5 318.891 331.5 319.167H332.5ZM331.5 315.833C331.5 316.109 331.724 316.333 332 316.333C332.276 316.333 332.5 316.109 332.5 315.833H331.5ZM332.5 314.167C332.5 313.891 332.276 313.667 332 313.667C331.724 313.667 331.5 313.891 331.5 314.167H332.5ZM331.5 310.833C331.5 311.109 331.724 311.333 332 311.333C332.276 311.333 332.5 311.109 332.5 310.833H331.5ZM332.536 309.171C332.559 308.896 332.356 308.653 332.081 308.63C331.805 308.606 331.563 308.81 331.539 309.085L332.536 309.171ZM332.482 305.561C332.365 305.811 332.473 306.109 332.723 306.226C332.973 306.343 333.271 306.235 333.388 305.984L332.482 305.561ZM334.217 304.551C334.376 304.325 334.321 304.013 334.095 303.854C333.869 303.696 333.557 303.751 333.398 303.977L334.217 304.551ZM335.977 301.398C335.751 301.557 335.696 301.869 335.854 302.095C336.013 302.321 336.325 302.376 336.551 302.217L335.977 301.398ZM337.984 301.388C338.235 301.271 338.343 300.973 338.226 300.723C338.109 300.473 337.811 300.365 337.561 300.482L337.984 301.388ZM341.085 299.539C340.81 299.563 340.606 299.805 340.63 300.081C340.653 300.356 340.896 300.559 341.171 300.536L341.085 299.539ZM342.933 300.5C343.209 300.5 343.433 300.276 343.433 300C343.433 299.724 343.209 299.5 342.933 299.5V300.5ZM346.667 299.5C346.391 299.5 346.167 299.724 346.167 300C346.167 300.276 346.391 300.5 346.667 300.5V299.5ZM348.533 300.5C348.809 300.5 349.033 300.276 349.033 300C349.033 299.724 348.809 299.5 348.533 299.5V300.5ZM352.267 299.5C351.991 299.5 351.767 299.724 351.767 300C351.767 300.276 351.991 300.5 352.267 300.5V299.5ZM354.133 300.5C354.409 300.5 354.633 300.276 354.633 300C354.633 299.724 354.409 299.5 354.133 299.5V300.5ZM357.867 299.5C357.591 299.5 357.367 299.724 357.367 300C357.367 300.276 357.591 300.5 357.867 300.5V299.5ZM359.733 300.5C360.009 300.5 360.233 300.276 360.233 300C360.233 299.724 360.009 299.5 359.733 299.5V300.5ZM363.467 299.5C363.191 299.5 362.967 299.724 362.967 300C362.967 300.276 363.191 300.5 363.467 300.5V299.5ZM365.333 300.5C365.609 300.5 365.833 300.276 365.833 300C365.833 299.724 365.609 299.5 365.333 299.5V300.5ZM369.067 299.5C368.791 299.5 368.567 299.724 368.567 300C368.567 300.276 368.791 300.5 369.067 300.5V299.5ZM332.5 320V319.167H331.5V320H332.5ZM332.5 315.833V314.167H331.5V315.833H332.5ZM332.5 310.833V310H331.5V310.833H332.5ZM332.5 310C332.5 309.721 332.512 309.444 332.536 309.171L331.539 309.085C331.513 309.386 331.5 309.692 331.5 310H332.5ZM333.388 305.984C333.623 305.481 333.901 305.002 334.217 304.551L333.398 303.977C333.049 304.475 332.742 305.005 332.482 305.561L333.388 305.984ZM336.551 302.217C337.002 301.901 337.481 301.623 337.984 301.388L337.561 300.482C337.005 300.742 336.475 301.049 335.977 301.398L336.551 302.217ZM341.171 300.536C341.444 300.512 341.721 300.5 342 300.5V299.5C341.692 299.5 341.386 299.513 341.085 299.539L341.171 300.536ZM342 300.5H342.933V299.5H342V300.5ZM346.667 300.5H348.533V299.5H346.667V300.5ZM352.267 300.5H354.133V299.5H352.267V300.5ZM357.867 300.5H359.733V299.5H357.867V300.5ZM363.467 300.5H365.333V299.5H363.467V300.5ZM369.067 300.5H370V299.5H369.067V300.5Z" fill="#869BB9" />
    <path opacity="0.6" d="M369.5 191.167C369.5 190.891 369.724 190.667 370 190.667C370.276 190.667 370.5 190.891 370.5 191.167H369.5ZM370.5 187.833C370.5 188.109 370.276 188.333 370 188.333C369.724 188.333 369.5 188.109 369.5 187.833H370.5ZM369.5 186.167C369.5 185.891 369.724 185.667 370 185.667C370.276 185.667 370.5 185.891 370.5 186.167H369.5ZM370.5 182.833C370.5 183.109 370.276 183.333 370 183.333C369.724 183.333 369.5 183.109 369.5 182.833H370.5ZM369.464 181.171C369.441 180.896 369.644 180.653 369.919 180.63C370.195 180.606 370.437 180.81 370.461 181.085L369.464 181.171ZM369.518 177.561C369.635 177.811 369.527 178.109 369.277 178.226C369.027 178.343 368.729 178.235 368.612 177.984L369.518 177.561ZM367.783 176.551C367.624 176.325 367.679 176.013 367.905 175.854C368.131 175.696 368.443 175.751 368.602 175.977L367.783 176.551ZM366.023 173.398C366.249 173.557 366.304 173.869 366.146 174.095C365.987 174.321 365.675 174.376 365.449 174.217L366.023 173.398ZM364.016 173.388C363.765 173.271 363.657 172.973 363.774 172.723C363.891 172.473 364.189 172.365 364.439 172.482L364.016 173.388ZM360.915 171.539C361.19 171.563 361.394 171.805 361.37 172.081C361.347 172.356 361.104 172.559 360.829 172.536L360.915 171.539ZM359.036 172.5C358.76 172.5 358.536 172.276 358.536 172C358.536 171.724 358.76 171.5 359.036 171.5V172.5ZM355.179 171.5C355.455 171.5 355.679 171.724 355.679 172C355.679 172.276 355.455 172.5 355.179 172.5V171.5ZM353.25 172.5C352.974 172.5 352.75 172.276 352.75 172C352.75 171.724 352.974 171.5 353.25 171.5V172.5ZM349.393 171.5C349.669 171.5 349.893 171.724 349.893 172C349.893 172.276 349.669 172.5 349.393 172.5V171.5ZM347.464 172.5C347.188 172.5 346.964 172.276 346.964 172C346.964 171.724 347.188 171.5 347.464 171.5V172.5ZM343.607 171.5C343.883 171.5 344.107 171.724 344.107 172C344.107 172.276 343.883 172.5 343.607 172.5V171.5ZM341.679 172.5C341.402 172.5 341.179 172.276 341.179 172C341.179 171.724 341.402 171.5 341.679 171.5V172.5ZM337.821 171.5C338.098 171.5 338.321 171.724 338.321 172C338.321 172.276 338.098 172.5 337.821 172.5V171.5ZM335.893 172.5C335.617 172.5 335.393 172.276 335.393 172C335.393 171.724 335.617 171.5 335.893 171.5V172.5ZM332.036 171.5C332.312 171.5 332.536 171.724 332.536 172C332.536 172.276 332.312 172.5 332.036 172.5V171.5ZM330.107 172.5C329.831 172.5 329.607 172.276 329.607 172C329.607 171.724 329.831 171.5 330.107 171.5V172.5ZM326.25 171.5C326.526 171.5 326.75 171.724 326.75 172C326.75 172.276 326.526 172.5 326.25 172.5V171.5ZM324.321 172.5C324.045 172.5 323.821 172.276 323.821 172C323.821 171.724 324.045 171.5 324.321 171.5V172.5ZM320.464 171.5C320.74 171.5 320.964 171.724 320.964 172C320.964 172.276 320.74 172.5 320.464 172.5V171.5ZM318.536 172.5C318.26 172.5 318.036 172.276 318.036 172C318.036 171.724 318.26 171.5 318.536 171.5V172.5ZM314.679 171.5C314.955 171.5 315.179 171.724 315.179 172C315.179 172.276 314.955 172.5 314.679 172.5V171.5ZM312.75 172.5C312.474 172.5 312.25 172.276 312.25 172C312.25 171.724 312.474 171.5 312.75 171.5V172.5ZM308.893 171.5C309.169 171.5 309.393 171.724 309.393 172C309.393 172.276 309.169 172.5 308.893 172.5V171.5ZM306.964 172.5C306.688 172.5 306.464 172.276 306.464 172C306.464 171.724 306.688 171.5 306.964 171.5V172.5ZM303.107 171.5C303.383 171.5 303.607 171.724 303.607 172C303.607 172.276 303.383 172.5 303.107 172.5V171.5ZM301.179 172.5C300.902 172.5 300.679 172.276 300.679 172C300.679 171.724 300.902 171.5 301.179 171.5V172.5ZM297.321 171.5C297.598 171.5 297.821 171.724 297.821 172C297.821 172.276 297.598 172.5 297.321 172.5V171.5ZM295.393 172.5C295.117 172.5 294.893 172.276 294.893 172C294.893 171.724 295.117 171.5 295.393 171.5V172.5ZM291.536 171.5C291.812 171.5 292.036 171.724 292.036 172C292.036 172.276 291.812 172.5 291.536 172.5V171.5ZM289.607 172.5C289.331 172.5 289.107 172.276 289.107 172C289.107 171.724 289.331 171.5 289.607 171.5V172.5ZM285.75 171.5C286.026 171.5 286.25 171.724 286.25 172C286.25 172.276 286.026 172.5 285.75 172.5V171.5ZM283.821 172.5C283.545 172.5 283.321 172.276 283.321 172C283.321 171.724 283.545 171.5 283.821 171.5V172.5ZM279.964 171.5C280.24 171.5 280.464 171.724 280.464 172C280.464 172.276 280.24 172.5 279.964 172.5V171.5ZM369.5 192V191.167H370.5V192H369.5ZM369.5 187.833V186.167H370.5V187.833H369.5ZM369.5 182.833V182H370.5V182.833H369.5ZM369.5 182C369.5 181.721 369.488 181.444 369.464 181.171L370.461 181.085C370.487 181.386 370.5 181.692 370.5 182H369.5ZM368.612 177.984C368.377 177.481 368.099 177.002 367.783 176.551L368.602 175.977C368.951 176.475 369.258 177.005 369.518 177.561L368.612 177.984ZM365.449 174.217C364.998 173.901 364.519 173.623 364.016 173.388L364.439 172.482C364.995 172.742 365.525 173.049 366.023 173.398L365.449 174.217ZM360.829 172.536C360.556 172.512 360.279 172.5 360 172.5V171.5C360.308 171.5 360.614 171.513 360.915 171.539L360.829 172.536ZM360 172.5H359.036V171.5H360V172.5ZM355.179 172.5H353.25V171.5H355.179V172.5ZM349.393 172.5H347.464V171.5H349.393V172.5ZM343.607 172.5H341.679V171.5H343.607V172.5ZM337.821 172.5H335.893V171.5H337.821V172.5ZM332.036 172.5H330.107V171.5H332.036V172.5ZM326.25 172.5H324.321V171.5H326.25V172.5ZM320.464 172.5H318.536V171.5H320.464V172.5ZM314.679 172.5H312.75V171.5H314.679V172.5ZM308.893 172.5H306.964V171.5H308.893V172.5ZM303.107 172.5H301.179V171.5H303.107V172.5ZM297.321 172.5H295.393V171.5H297.321V172.5ZM291.536 172.5H289.607V171.5H291.536V172.5ZM285.75 172.5H283.821V171.5H285.75V172.5ZM279.964 172.5H279V171.5H279.964V172.5Z" fill="#869BB9" />
    <path opacity="0.6" d="M235.5 319.167C235.5 318.891 235.724 318.667 236 318.667C236.276 318.667 236.5 318.891 236.5 319.167H235.5ZM236.5 315.833C236.5 316.109 236.276 316.333 236 316.333C235.724 316.333 235.5 316.109 235.5 315.833H236.5ZM235.5 314.167C235.5 313.891 235.724 313.667 236 313.667C236.276 313.667 236.5 313.891 236.5 314.167H235.5ZM236.5 310.833C236.5 311.109 236.276 311.333 236 311.333C235.724 311.333 235.5 311.109 235.5 310.833H236.5ZM235.464 309.171C235.441 308.896 235.644 308.653 235.919 308.63C236.195 308.606 236.437 308.81 236.461 309.085L235.464 309.171ZM235.518 305.561C235.635 305.811 235.527 306.109 235.277 306.226C235.027 306.343 234.729 306.235 234.612 305.984L235.518 305.561ZM233.783 304.551C233.624 304.325 233.679 304.013 233.905 303.854C234.131 303.696 234.443 303.751 234.602 303.977L233.783 304.551ZM232.023 301.398C232.249 301.557 232.304 301.869 232.146 302.095C231.987 302.321 231.675 302.376 231.449 302.217L232.023 301.398ZM230.016 301.388C229.765 301.271 229.657 300.973 229.774 300.723C229.891 300.473 230.189 300.365 230.439 300.482L230.016 301.388ZM226.915 299.539C227.19 299.563 227.394 299.805 227.37 300.081C227.347 300.356 227.104 300.559 226.829 300.536L226.915 299.539ZM224.944 300.5C224.668 300.5 224.444 300.276 224.444 300C224.444 299.724 224.668 299.5 224.944 299.5V300.5ZM220.722 299.5C220.998 299.5 221.222 299.724 221.222 300C221.222 300.276 220.998 300.5 220.722 300.5V299.5ZM218.611 300.5C218.335 300.5 218.111 300.276 218.111 300C218.111 299.724 218.335 299.5 218.611 299.5V300.5ZM214.389 299.5C214.665 299.5 214.889 299.724 214.889 300C214.889 300.276 214.665 300.5 214.389 300.5V299.5ZM212.278 300.5C212.002 300.5 211.778 300.276 211.778 300C211.778 299.724 212.002 299.5 212.278 299.5V300.5ZM208.056 299.5C208.332 299.5 208.556 299.724 208.556 300C208.556 300.276 208.332 300.5 208.056 300.5V299.5ZM205.944 300.5C205.668 300.5 205.444 300.276 205.444 300C205.444 299.724 205.668 299.5 205.944 299.5V300.5ZM201.722 299.5C201.998 299.5 202.222 299.724 202.222 300C202.222 300.276 201.998 300.5 201.722 300.5V299.5ZM199.611 300.5C199.335 300.5 199.111 300.276 199.111 300C199.111 299.724 199.335 299.5 199.611 299.5V300.5ZM195.389 299.5C195.665 299.5 195.889 299.724 195.889 300C195.889 300.276 195.665 300.5 195.389 300.5V299.5ZM193.278 300.5C193.002 300.5 192.778 300.276 192.778 300C192.778 299.724 193.002 299.5 193.278 299.5V300.5ZM189.056 299.5C189.332 299.5 189.556 299.724 189.556 300C189.556 300.276 189.332 300.5 189.056 300.5V299.5ZM235.5 320V319.167H236.5V320H235.5ZM235.5 315.833V314.167H236.5V315.833H235.5ZM235.5 310.833V310H236.5V310.833H235.5ZM235.5 310C235.5 309.721 235.488 309.444 235.464 309.171L236.461 309.085C236.487 309.386 236.5 309.692 236.5 310H235.5ZM234.612 305.984C234.377 305.481 234.099 305.002 233.783 304.551L234.602 303.977C234.951 304.475 235.258 305.005 235.518 305.561L234.612 305.984ZM231.449 302.217C230.998 301.901 230.519 301.623 230.016 301.388L230.439 300.482C230.995 300.742 231.525 301.049 232.023 301.398L231.449 302.217ZM226.829 300.536C226.556 300.512 226.279 300.5 226 300.5V299.5C226.308 299.5 226.614 299.513 226.915 299.539L226.829 300.536ZM226 300.5H224.944V299.5H226V300.5ZM220.722 300.5H218.611V299.5H220.722V300.5ZM214.389 300.5H212.278V299.5H214.389V300.5ZM208.056 300.5H205.944V299.5H208.056V300.5ZM201.722 300.5H199.611V299.5H201.722V300.5ZM195.389 300.5H193.278V299.5H195.389V300.5ZM189.056 300.5H188V299.5H189.056V300.5Z" fill="#869BB9" />
    <path opacity="0.6" d="M426.5 319.167C426.5 318.891 426.724 318.667 427 318.667C427.276 318.667 427.5 318.891 427.5 319.167H426.5ZM427.5 315.833C427.5 316.109 427.276 316.333 427 316.333C426.724 316.333 426.5 316.109 426.5 315.833H427.5ZM426.5 314.167C426.5 313.891 426.724 313.667 427 313.667C427.276 313.667 427.5 313.891 427.5 314.167H426.5ZM427.5 310.833C427.5 311.109 427.276 311.333 427 311.333C426.724 311.333 426.5 311.109 426.5 310.833H427.5ZM426.464 309.171C426.441 308.896 426.644 308.653 426.919 308.63C427.195 308.606 427.437 308.81 427.461 309.085L426.464 309.171ZM426.518 305.561C426.635 305.811 426.527 306.109 426.277 306.226C426.027 306.343 425.729 306.235 425.612 305.984L426.518 305.561ZM424.783 304.551C424.624 304.325 424.679 304.013 424.905 303.854C425.131 303.696 425.443 303.751 425.602 303.977L424.783 304.551ZM423.023 301.398C423.249 301.557 423.304 301.869 423.146 302.095C422.987 302.321 422.675 302.376 422.449 302.217L423.023 301.398ZM421.016 301.388C420.765 301.271 420.657 300.973 420.774 300.723C420.891 300.473 421.189 300.365 421.439 300.482L421.016 301.388ZM417.915 299.539C418.19 299.563 418.394 299.805 418.37 300.081C418.347 300.356 418.104 300.559 417.829 300.536L417.915 299.539ZM416.067 300.5C415.791 300.5 415.567 300.276 415.567 300C415.567 299.724 415.791 299.5 416.067 299.5V300.5ZM412.333 299.5C412.609 299.5 412.833 299.724 412.833 300C412.833 300.276 412.609 300.5 412.333 300.5V299.5ZM410.467 300.5C410.191 300.5 409.967 300.276 409.967 300C409.967 299.724 410.191 299.5 410.467 299.5V300.5ZM406.733 299.5C407.009 299.5 407.233 299.724 407.233 300C407.233 300.276 407.009 300.5 406.733 300.5V299.5ZM404.867 300.5C404.591 300.5 404.367 300.276 404.367 300C404.367 299.724 404.591 299.5 404.867 299.5V300.5ZM401.133 299.5C401.409 299.5 401.633 299.724 401.633 300C401.633 300.276 401.409 300.5 401.133 300.5V299.5ZM399.267 300.5C398.991 300.5 398.767 300.276 398.767 300C398.767 299.724 398.991 299.5 399.267 299.5V300.5ZM395.533 299.5C395.809 299.5 396.033 299.724 396.033 300C396.033 300.276 395.809 300.5 395.533 300.5V299.5ZM393.667 300.5C393.391 300.5 393.167 300.276 393.167 300C393.167 299.724 393.391 299.5 393.667 299.5V300.5ZM389.933 299.5C390.209 299.5 390.433 299.724 390.433 300C390.433 300.276 390.209 300.5 389.933 300.5V299.5ZM426.5 320V319.167H427.5V320H426.5ZM426.5 315.833V314.167H427.5V315.833H426.5ZM426.5 310.833V310H427.5V310.833H426.5ZM426.5 310C426.5 309.721 426.488 309.444 426.464 309.171L427.461 309.085C427.487 309.386 427.5 309.692 427.5 310H426.5ZM425.612 305.984C425.377 305.481 425.099 305.002 424.783 304.551L425.602 303.977C425.951 304.475 426.258 305.005 426.518 305.561L425.612 305.984ZM422.449 302.217C421.998 301.901 421.519 301.623 421.016 301.388L421.439 300.482C421.995 300.742 422.525 301.049 423.023 301.398L422.449 302.217ZM417.829 300.536C417.556 300.512 417.279 300.5 417 300.5V299.5C417.308 299.5 417.614 299.513 417.915 299.539L417.829 300.536ZM417 300.5H416.067V299.5H417V300.5ZM412.333 300.5H410.467V299.5H412.333V300.5ZM406.733 300.5H404.867V299.5H406.733V300.5ZM401.133 300.5H399.267V299.5H401.133V300.5ZM395.533 300.5H393.667V299.5H395.533V300.5ZM389.933 300.5H389V299.5H389.933V300.5Z" fill="#869BB9" />
    <path opacity="0.6" d="M277.5 172C277.5 172.276 277.724 172.5 278 172.5C278.276 172.5 278.5 172.276 278.5 172L277.5 172ZM278.5 152C278.5 151.724 278.276 151.5 278 151.5C277.724 151.5 277.5 151.724 277.5 152L278.5 152ZM278.5 170.889C278.5 170.613 278.276 170.389 278 170.389C277.724 170.389 277.5 170.613 277.5 170.889L278.5 170.889ZM277.5 166.444C277.5 166.721 277.724 166.944 278 166.944C278.276 166.944 278.5 166.721 278.5 166.444L277.5 166.444ZM278.5 164.222C278.5 163.946 278.276 163.722 278 163.722C277.724 163.722 277.5 163.946 277.5 164.222L278.5 164.222ZM277.5 159.778C277.5 160.054 277.724 160.278 278 160.278C278.276 160.278 278.5 160.054 278.5 159.778L277.5 159.778ZM278.5 157.556C278.5 157.279 278.276 157.056 278 157.056C277.724 157.056 277.5 157.279 277.5 157.556L278.5 157.556ZM277.5 153.111C277.5 153.387 277.724 153.611 278 153.611C278.276 153.611 278.5 153.387 278.5 153.111L277.5 153.111ZM278.5 172L278.5 170.889L277.5 170.889L277.5 172L278.5 172ZM278.5 166.444L278.5 164.222L277.5 164.222L277.5 166.444L278.5 166.444ZM278.5 159.778L278.5 157.556L277.5 157.556L277.5 159.778L278.5 159.778ZM278.5 153.111L278.5 152L277.5 152L277.5 153.111L278.5 153.111Z" fill="#869BB9" />
    <path opacity="0.6" d="M187.5 280C187.5 279.724 187.276 279.5 187 279.5C186.724 279.5 186.5 279.724 186.5 280L187.5 280ZM187.5 298.889C187.5 298.613 187.276 298.389 187 298.389C186.724 298.389 186.5 298.613 186.5 298.889L187.5 298.889ZM186.5 294.444C186.5 294.721 186.724 294.944 187 294.944C187.276 294.944 187.5 294.721 187.5 294.444L186.5 294.444ZM187.5 292.222C187.5 291.946 187.276 291.722 187 291.722C186.724 291.722 186.5 291.946 186.5 292.222L187.5 292.222ZM186.5 287.778C186.5 288.054 186.724 288.278 187 288.278C187.276 288.278 187.5 288.054 187.5 287.778L186.5 287.778ZM187.5 285.556C187.5 285.279 187.276 285.056 187 285.056C186.724 285.056 186.5 285.279 186.5 285.556L187.5 285.556ZM186.5 281.111C186.5 281.387 186.724 281.611 187 281.611C187.276 281.611 187.5 281.387 187.5 281.111L186.5 281.111ZM187.5 300L187.5 298.889L186.5 298.889L186.5 300L187.5 300ZM187.5 294.444L187.5 292.222L186.5 292.222L186.5 294.444L187.5 294.444ZM187.5 287.778L187.5 285.556L186.5 285.556L186.5 287.778L187.5 287.778ZM187.5 281.111L187.5 280L186.5 280L186.5 281.111L187.5 281.111Z" fill="#869BB9" />
    <path opacity="0.6" d="M371.5 280C371.5 279.724 371.276 279.5 371 279.5C370.724 279.5 370.5 279.724 370.5 280L371.5 280ZM371.5 298.889C371.5 298.613 371.276 298.389 371 298.389C370.724 298.389 370.5 298.613 370.5 298.889L371.5 298.889ZM370.5 294.444C370.5 294.721 370.724 294.944 371 294.944C371.276 294.944 371.5 294.721 371.5 294.444L370.5 294.444ZM371.5 292.222C371.5 291.946 371.276 291.722 371 291.722C370.724 291.722 370.5 291.946 370.5 292.222L371.5 292.222ZM370.5 287.778C370.5 288.054 370.724 288.278 371 288.278C371.276 288.278 371.5 288.054 371.5 287.778L370.5 287.778ZM371.5 285.556C371.5 285.279 371.276 285.056 371 285.056C370.724 285.056 370.5 285.279 370.5 285.556L371.5 285.556ZM370.5 281.111C370.5 281.387 370.724 281.611 371 281.611C371.276 281.611 371.5 281.387 371.5 281.111L370.5 281.111ZM371.5 300L371.5 298.889L370.5 298.889L370.5 300L371.5 300ZM371.5 294.444L371.5 292.222L370.5 292.222L370.5 294.444L371.5 294.444ZM371.5 287.778L371.5 285.556L370.5 285.556L370.5 287.778L371.5 287.778ZM371.5 281.111L371.5 280L370.5 280L370.5 281.111L371.5 281.111Z" fill="#869BB9" />
    <path opacity="0.6" d="M388.5 280C388.5 279.724 388.276 279.5 388 279.5C387.724 279.5 387.5 279.724 387.5 280L388.5 280ZM388.5 298.889C388.5 298.613 388.276 298.389 388 298.389C387.724 298.389 387.5 298.613 387.5 298.889L388.5 298.889ZM387.5 294.444C387.5 294.721 387.724 294.944 388 294.944C388.276 294.944 388.5 294.721 388.5 294.444L387.5 294.444ZM388.5 292.222C388.5 291.946 388.276 291.722 388 291.722C387.724 291.722 387.5 291.946 387.5 292.222L388.5 292.222ZM387.5 287.778C387.5 288.054 387.724 288.278 388 288.278C388.276 288.278 388.5 288.054 388.5 287.778L387.5 287.778ZM388.5 285.556C388.5 285.279 388.276 285.056 388 285.056C387.724 285.056 387.5 285.279 387.5 285.556L388.5 285.556ZM387.5 281.111C387.5 281.387 387.724 281.611 388 281.611C388.276 281.611 388.5 281.387 388.5 281.111L387.5 281.111ZM388.5 300L388.5 298.889L387.5 298.889L387.5 300L388.5 300ZM388.5 294.444L388.5 292.222L387.5 292.222L387.5 294.444L388.5 294.444ZM388.5 287.778L388.5 285.556L387.5 285.556L387.5 287.778L388.5 287.778ZM388.5 281.111L388.5 280L387.5 280L387.5 281.111L388.5 281.111Z" fill="#869BB9" />
    <circle cx="428" cy="356" r="36" fill="white" />
    <circle cx="428" cy="356" r="36" fill="#0ADE8C" fill-opacity="0.15" />
    <g filter="url(#filter0_d_647_1123)">
        <path fill-rule="evenodd" clip-rule="evenodd" d="M416.193 349.959L417.182 350.948L419.146 352.863C419.581 353.304 419.823 353.899 419.819 354.517C419.815 355.136 419.565 355.728 419.125 356.163C418.685 356.597 418.09 356.839 417.471 356.835C416.852 356.832 416.261 356.582 415.826 356.142L413.903 354.205L412.914 353.216C411.206 351.553 410.178 349.315 410.03 346.936C409.969 345.782 410.144 344.628 410.545 343.544C410.945 342.46 411.563 341.469 412.36 340.632C413.158 339.796 414.117 339.131 415.181 338.678C416.244 338.225 417.388 337.995 418.544 338C421.072 338.047 423.48 339.088 425.246 340.898L432.46 348.07C433.352 348.951 434.061 349.998 434.548 351.153C435.034 352.308 435.289 353.547 435.296 354.8C435.308 355.916 435.098 357.023 434.679 358.057C434.26 359.091 433.64 360.032 432.854 360.824C432.417 361.25 431.829 361.487 431.219 361.485C430.608 361.482 430.023 361.24 429.589 360.811C429.155 360.381 428.907 359.799 428.898 359.188C428.889 358.578 429.12 357.988 429.541 357.546C431.125 355.955 430.952 353.195 429.147 351.39L421.982 344.197C421.535 343.727 420.999 343.352 420.405 343.093C419.811 342.834 419.171 342.697 418.523 342.689C418.001 342.688 417.484 342.793 417.004 342.998C416.523 343.204 416.09 343.505 415.731 343.884C415.371 344.263 415.093 344.711 414.913 345.202C414.733 345.692 414.656 346.214 414.685 346.736C414.772 347.959 415.309 349.107 416.193 349.959ZM440.206 355.88L443.077 358.75C444.782 360.414 445.808 362.652 445.954 365.03C446.013 366.218 445.825 367.405 445.401 368.516C444.977 369.626 444.327 370.637 443.492 371.483C442.702 372.275 441.762 372.902 440.728 373.328C439.694 373.754 438.586 373.971 437.467 373.966C434.932 373.93 432.513 372.893 430.738 371.082L423.565 363.896C421.767 362.116 420.748 359.696 420.73 357.166C420.717 356.05 420.927 354.943 421.346 353.909C421.765 352.875 422.386 351.934 423.171 351.142C423.377 350.889 423.634 350.682 423.926 350.534C424.217 350.387 424.536 350.302 424.862 350.286C425.188 350.269 425.514 350.322 425.819 350.439C426.124 350.557 426.4 350.737 426.631 350.969C426.861 351.2 427.04 351.478 427.157 351.783C427.273 352.088 427.324 352.414 427.306 352.74C427.289 353.066 427.203 353.385 427.054 353.675C426.905 353.966 426.697 354.222 426.443 354.427C424.859 356.018 425.032 358.778 426.837 360.583L433.982 367.783C434.89 368.723 436.133 369.265 437.44 369.291C437.962 369.293 438.479 369.187 438.96 368.982C439.44 368.777 439.873 368.475 440.232 368.096C440.592 367.717 440.87 367.269 441.05 366.779C441.23 366.288 441.308 365.766 441.278 365.245C441.191 364.021 440.654 362.873 439.771 362.022L436.928 359.179C436.49 358.744 436.244 358.153 436.242 357.537C436.24 356.92 436.483 356.328 436.918 355.89C437.352 355.453 437.943 355.206 438.56 355.204C439.177 355.202 439.769 355.445 440.206 355.88Z" fill="url(#paint6_linear_647_1123)" />
    </g>
    <circle cx="235" cy="356" r="36" fill="white" />
    <circle cx="235" cy="356" r="36" fill="#7256FF" fill-opacity="0.15" />
    <g opacity="0.5" filter="url(#filter1_d_647_1123)">
        <path d="M220.942 344.494C220.942 346.613 222.608 348.329 224.662 348.329C226.716 348.329 228.379 346.613 228.379 344.494C228.379 342.375 226.717 340.659 224.663 340.659C222.609 340.659 220.944 342.375 220.944 344.494H220.942Z" fill="url(#paint7_radial_647_1123)" />
    </g>
    <g filter="url(#filter2_d_647_1123)">
        <path d="M225.491 357.718C224.883 356.851 223.899 356.851 223.292 357.718L214.841 369.773C214.233 370.639 214.596 371.341 215.649 371.341H254.359C255.414 371.341 255.767 370.64 255.155 369.776L241.768 350.898C241.151 350.029 240.16 350.032 239.547 350.898L230.073 364.257L225.489 357.718H225.491Z" fill="url(#paint8_radial_647_1123)" />
    </g>
    <g filter="url(#filter3_d_647_1123)">
        <circle cx="219.182" cy="397.181" r="17.1818" fill="white" />
        <circle cx="219.182" cy="397.181" r="16.7727" stroke="#F2F6FF" stroke-width="0.818182" />
    </g>
    <g opacity="0.4" filter="url(#filter4_d_647_1123)">
        <path fill-rule="evenodd" clip-rule="evenodd" d="M217.31 388.401C217.426 387.973 217.83 387.677 218.28 387.677C219.455 387.677 220.523 388.211 221.233 389.137C221.934 390.055 222.15 391.23 221.826 392.338L221.14 394.658H226.145C226.753 394.658 227.329 394.925 227.713 395.394C228.103 395.858 228.262 396.465 228.144 397.053C228.14 397.104 228.126 397.148 228.111 397.181L225.648 404.347C225.356 405.159 224.58 405.706 223.721 405.706H215.007C213.89 405.706 212.977 404.802 212.977 403.697V395.452C212.977 395.015 213.338 394.658 213.78 394.658C214.769 394.658 215.667 393.995 215.951 393.042L217.31 388.401ZM209.708 395.565C209.708 395.089 210.014 394.701 210.39 394.701C210.766 394.701 211.073 395.089 211.073 395.565V404.762C211.073 405.238 210.766 405.627 210.39 405.627C210.014 405.627 209.708 405.238 209.708 404.762V395.565Z" fill="#6D50FF" />
    </g>
    <g opacity="0.2">
        <g filter="url(#filter5_d_647_1123)">
            <circle cx="404" cy="236" r="44" fill="url(#paint9_radial_647_1123)" />
        </g>
    </g>
    <g opacity="0.2">
        <g filter="url(#filter6_d_647_1123)">
            <circle cx="388" cy="236" r="44" fill="url(#paint10_radial_647_1123)" />
        </g>
        <path d="M404.061 246.391C404.596 246.849 404.917 247.422 405.132 248.109C405.239 248.682 405.346 249.14 405.453 249.713C405.56 250.4 405.56 249.827 405.56 250.515C405.56 251.058 405.56 251.703 405.469 252.257C405.459 252.317 405.454 252.379 405.45 252.44C405.432 252.747 405.328 253.053 405.233 253.359C405.161 253.592 405.025 253.804 404.822 253.938C404.595 254.086 404.353 254.217 404.061 254.295C399.241 255.785 394.206 256.472 389.065 256.472C383.924 256.472 378.782 255.899 373.641 254.868C373.064 254.765 372.487 254.57 371.911 254.283C371.78 254.218 371.665 254.121 371.586 253.998C371.242 253.465 371.07 252.849 371.07 252.233C370.963 251.202 370.963 250.057 371.177 249.025C371.285 248.109 371.713 247.307 372.249 246.734C372.891 246.161 373.534 245.818 374.284 245.474C375.033 245.13 378.782 243.756 379.639 243.526C380.389 243.297 381.139 242.954 381.889 242.495C382.317 242.266 382.745 241.923 383.067 241.464C383.281 241.121 383.495 240.891 383.709 240.433C383.817 240.09 383.924 239.746 383.924 239.402V238.256C383.924 237.684 383.709 237.111 383.388 236.767L382.317 235.622C382.103 235.392 381.889 235.163 381.781 234.82C381.674 234.476 381.46 234.132 381.353 233.788L381.122 232.719C381.065 232.453 380.899 232.243 380.647 232.141C380.553 232.103 380.46 232.032 380.392 231.958C380.244 231.797 380.156 231.686 380.068 231.497C379.853 231.154 379.746 230.81 379.639 230.466C379.532 230.008 379.425 229.664 379.532 229.206C379.627 228.901 379.638 228.686 379.789 228.401C379.829 228.325 379.866 228.248 379.893 228.167C379.957 227.979 380.026 227.821 380.122 227.645C380.22 227.465 380.275 227.263 380.267 227.057C380.198 225.203 380.412 223.258 380.817 221.416C381.032 220.499 381.46 219.583 381.889 218.781C382.638 217.406 383.924 216.375 385.316 215.802C385.852 215.573 386.387 215.344 387.03 215.229C387.541 215.12 388.052 215.115 388.656 215.015C388.714 215.005 388.773 215 388.832 215.001C389.427 215.01 390.103 215.11 390.697 215.215C390.751 215.224 390.805 215.238 390.857 215.257C391.474 215.477 392.086 215.697 392.6 215.917C393.115 216.137 393.63 216.463 394.05 216.896C394.083 216.93 394.118 216.962 394.155 216.993C394.556 217.322 394.863 217.655 395.17 218.093C395.813 219.01 396.241 219.926 396.563 220.957C396.884 221.874 397.098 222.905 397.205 223.936C397.299 224.84 397.393 225.831 397.415 226.834C397.421 227.095 397.628 227.357 397.717 227.603C397.753 227.7 397.765 227.765 397.807 227.86C397.865 227.991 397.917 228.122 397.941 228.253C397.959 228.352 397.973 228.453 397.994 228.551C398.054 228.819 398.049 229.096 397.98 229.437C397.965 229.512 397.956 229.588 397.953 229.665C397.937 230.085 397.83 230.505 397.634 230.924C397.527 231.268 397.313 231.497 397.098 231.726C397.032 231.797 396.976 231.857 396.921 231.909C396.674 232.143 396.41 232.385 396.33 232.715C396.265 232.984 396.2 233.236 396.134 233.445C396.027 233.788 395.813 234.132 395.706 234.476C395.599 234.82 395.385 235.049 395.17 235.278C394.995 235.465 394.821 235.576 394.646 235.735C394.565 235.808 394.475 235.874 394.393 235.946C394.341 235.992 394.293 236.044 394.245 236.095C394.098 236.253 393.937 236.412 393.802 236.581C393.763 236.631 393.727 236.68 393.703 236.734C393.662 236.826 393.655 236.931 393.627 237.027C393.442 237.666 393.349 238.305 393.349 238.944C393.349 239.402 393.457 239.86 393.671 240.204C393.885 240.662 394.206 241.121 394.528 241.464C394.956 241.923 395.492 242.266 396.134 242.495C396.777 242.724 397.42 243.068 398.169 243.183C398.852 243.287 401.309 244.53 402.229 244.925C402.376 244.988 402.51 245.078 402.623 245.19C403.102 245.662 403.582 245.981 404.061 246.391Z" fill="url(#paint11_linear_647_1123)" />
    </g>
    <g filter="url(#filter7_d_647_1123)">
        <circle cx="372" cy="236" r="44" fill="url(#paint12_radial_647_1123)" />
    </g>
    <path d="M388.061 246.391C388.596 246.849 388.917 247.422 389.132 248.109C389.239 248.682 389.346 249.14 389.453 249.713C389.56 250.4 389.56 249.827 389.56 250.515C389.56 251.058 389.56 251.703 389.469 252.257C389.459 252.317 389.454 252.379 389.45 252.44C389.432 252.747 389.328 253.053 389.233 253.359C389.161 253.592 389.025 253.804 388.822 253.938C388.595 254.086 388.353 254.217 388.061 254.295C383.241 255.785 378.206 256.472 373.065 256.472C367.924 256.472 362.782 255.899 357.641 254.868C357.064 254.765 356.487 254.57 355.911 254.283C355.78 254.218 355.665 254.121 355.586 253.998C355.242 253.465 355.07 252.849 355.07 252.233C354.963 251.202 354.963 250.057 355.177 249.025C355.285 248.109 355.713 247.307 356.249 246.734C356.891 246.161 357.534 245.818 358.284 245.474C359.033 245.13 362.782 243.756 363.639 243.526C364.389 243.297 365.139 242.954 365.889 242.495C366.317 242.266 366.745 241.923 367.067 241.464C367.281 241.121 367.495 240.891 367.709 240.433C367.817 240.09 367.924 239.746 367.924 239.402V238.256C367.924 237.684 367.709 237.111 367.388 236.767L366.317 235.622C366.103 235.392 365.889 235.163 365.781 234.82C365.674 234.476 365.46 234.132 365.353 233.788L365.122 232.719C365.065 232.453 364.899 232.243 364.647 232.141C364.553 232.103 364.46 232.032 364.392 231.958C364.244 231.797 364.156 231.686 364.068 231.497C363.853 231.154 363.746 230.81 363.639 230.466C363.532 230.008 363.425 229.664 363.532 229.206C363.627 228.901 363.638 228.686 363.789 228.401C363.829 228.325 363.866 228.248 363.893 228.167C363.957 227.979 364.026 227.821 364.122 227.645C364.22 227.465 364.275 227.263 364.267 227.057C364.198 225.203 364.412 223.258 364.817 221.416C365.032 220.499 365.46 219.583 365.889 218.781C366.638 217.406 367.924 216.375 369.316 215.802C369.852 215.573 370.387 215.344 371.03 215.229C371.541 215.12 372.052 215.115 372.656 215.015C372.714 215.005 372.773 215 372.832 215.001C373.427 215.01 374.103 215.11 374.697 215.215C374.751 215.224 374.805 215.238 374.857 215.257C375.474 215.477 376.086 215.697 376.6 215.917C377.115 216.137 377.63 216.463 378.05 216.896C378.083 216.93 378.118 216.962 378.155 216.993C378.556 217.322 378.863 217.655 379.17 218.093C379.813 219.01 380.241 219.926 380.563 220.957C380.884 221.874 381.098 222.905 381.205 223.936C381.299 224.84 381.393 225.831 381.415 226.834C381.421 227.095 381.628 227.357 381.717 227.603C381.753 227.7 381.765 227.765 381.807 227.86C381.865 227.991 381.917 228.122 381.941 228.253C381.959 228.352 381.973 228.453 381.994 228.551C382.054 228.819 382.049 229.096 381.98 229.437C381.965 229.512 381.956 229.588 381.953 229.665C381.937 230.085 381.83 230.505 381.634 230.924C381.527 231.268 381.313 231.497 381.098 231.726C381.032 231.797 380.976 231.857 380.921 231.909C380.674 232.143 380.41 232.385 380.33 232.715C380.265 232.984 380.2 233.236 380.134 233.445C380.027 233.788 379.813 234.132 379.706 234.476C379.599 234.82 379.385 235.049 379.17 235.278C378.995 235.465 378.821 235.576 378.646 235.735C378.565 235.808 378.475 235.874 378.393 235.946C378.341 235.992 378.293 236.044 378.245 236.095C378.098 236.253 377.937 236.412 377.802 236.581C377.763 236.631 377.727 236.68 377.703 236.734C377.662 236.826 377.655 236.931 377.627 237.027C377.442 237.666 377.349 238.305 377.349 238.944C377.349 239.402 377.457 239.86 377.671 240.204C377.885 240.662 378.206 241.121 378.528 241.464C378.956 241.923 379.492 242.266 380.134 242.495C380.777 242.724 381.42 243.068 382.169 243.183C382.852 243.287 385.309 244.53 386.229 244.925C386.376 244.988 386.51 245.078 386.623 245.19C387.102 245.662 387.582 245.981 388.061 246.391Z" fill="url(#paint13_linear_647_1123)" />
    <path opacity="0.5" d="M374.003 252.242C374.203 252.135 374.203 251.921 374.303 251.707C374.303 251.385 374.303 251.171 374.203 250.85C374.103 250.422 374.003 249.994 374.003 249.566L373.703 248.174C373.603 247.746 373.503 247.318 373.503 247.104C373.703 246.89 374.003 246.676 374.103 246.462C374.203 246.248 374.303 245.927 374.303 245.713C374.303 245.498 374.203 245.284 374.103 245.07C374.003 244.856 373.803 244.642 373.703 244.535L373.102 244H371.401C371.201 244.214 371.001 244.321 370.801 244.535C370.701 244.642 370.5 244.856 370.4 245.07C370.3 245.284 370.2 245.498 370.2 245.713C370.2 245.927 370.3 246.141 370.4 246.355C370.6 246.676 370.801 246.89 371.001 247.104C370.901 247.425 370.901 247.639 370.701 248.067C370.6 248.495 370.5 248.924 370.4 249.459C370.3 249.887 370.1 250.422 370.1 250.743C370 251.064 370 251.385 370 251.707C370 251.921 370.1 252.135 370.3 252.242C370.5 252.456 370.701 252.777 370.901 252.991C371.101 253.205 371.401 253.419 371.601 253.633C371.701 253.74 371.901 253.847 372.102 253.847C372.302 253.847 372.502 253.74 372.602 253.633C372.802 253.419 373.102 253.312 373.302 252.991C373.603 252.777 373.803 252.563 374.003 252.242Z" fill="#FF921E" />
    <g filter="url(#filter8_d_647_1123)">
        <circle cx="187" cy="236" r="44" fill="url(#paint14_radial_647_1123)" />
    </g>
    <path d="M207.598 243.307C208.099 243.735 208.399 244.271 208.599 244.913C208.699 245.448 208.799 245.876 208.899 246.411C209 247.053 209 246.518 209 247.161C209 247.696 209 248.338 208.899 248.873C208.899 249.301 208.699 249.729 208.599 250.158C208.299 250.372 207.999 250.586 207.598 250.693C203.095 252.084 198.392 252.726 193.588 252.726C188.785 252.726 183.981 252.191 179.178 251.228C178.577 251.121 177.977 250.907 177.377 250.586C176.976 250.05 176.776 249.408 176.776 248.766C176.676 247.803 176.676 246.732 176.876 245.769C176.976 244.913 177.377 244.164 177.877 243.628C178.477 243.093 179.078 242.772 179.778 242.451C180.479 242.13 183.981 240.845 184.782 240.631C185.482 240.417 186.183 240.096 186.883 239.668C187.284 239.454 187.684 239.133 187.984 238.705C188.184 238.384 188.385 238.17 188.585 237.741C188.685 237.42 188.785 237.099 188.785 236.778V235.708C188.785 235.173 188.585 234.637 188.285 234.316L187.284 233.246C187.084 233.032 186.883 232.818 186.783 232.497C186.683 232.176 186.483 231.854 186.383 231.533L186.083 230.142C185.883 230.035 185.783 230.035 185.583 229.928C185.382 229.714 185.282 229.607 185.182 229.393C184.982 229.072 184.882 228.75 184.782 228.429C184.682 228.001 184.582 227.68 184.682 227.252C184.782 226.931 184.782 226.717 184.982 226.396C185.082 226.075 185.182 225.86 185.382 225.539C185.282 223.72 185.482 221.793 185.883 219.973C186.083 219.117 186.483 218.261 186.883 217.512C187.584 216.227 188.785 215.264 190.086 214.729C190.586 214.515 191.087 214.301 191.687 214.194C192.187 214.087 192.688 214.087 193.288 213.979C193.889 213.979 194.589 214.087 195.19 214.194C195.79 214.408 196.39 214.622 196.891 214.836C197.391 215.05 197.891 215.371 198.292 215.799C198.692 216.12 198.992 216.441 199.292 216.869C199.893 217.726 200.293 218.582 200.593 219.545C200.894 220.402 201.094 221.365 201.194 222.328C201.294 223.292 201.394 224.362 201.394 225.432C201.594 225.539 201.694 225.753 201.694 225.86C201.794 226.075 201.894 226.289 201.894 226.503C201.994 226.824 201.994 227.145 201.894 227.573C201.894 228.001 201.794 228.429 201.594 228.857C201.494 229.179 201.294 229.393 201.094 229.607C200.894 229.821 200.794 229.928 200.493 230.035C200.393 230.463 200.293 230.891 200.193 231.212C200.093 231.533 199.893 231.854 199.793 232.176C199.693 232.497 199.493 232.711 199.292 232.925C199.092 233.139 198.892 233.246 198.692 233.46C198.492 233.567 198.392 233.781 198.192 233.888C198.092 234.102 197.891 234.209 197.891 234.423C197.691 235.065 197.591 235.708 197.591 236.35C197.591 236.778 197.691 237.206 197.891 237.527C198.092 237.955 198.392 238.384 198.692 238.705C199.092 239.133 199.593 239.454 200.193 239.668C200.794 239.882 201.394 240.203 202.095 240.31C202.795 240.417 205.497 241.809 206.097 242.023C206.598 242.558 207.098 242.879 207.598 243.307Z" fill="url(#paint15_linear_647_1123)" />
    <mask id="mask0_647_1123" style="mask-type:alpha" maskUnits="userSpaceOnUse" x="176" y="213" width="33" height="40">
        <path d="M207.598 243.307C208.099 243.735 208.399 244.271 208.599 244.913C208.699 245.448 208.799 245.876 208.899 246.411C209 247.053 209 246.518 209 247.161C209 247.696 209 248.338 208.899 248.873C208.899 249.301 208.699 249.729 208.599 250.158C208.299 250.372 207.999 250.586 207.598 250.693C203.095 252.084 198.392 252.726 193.588 252.726C188.785 252.726 183.981 252.191 179.178 251.228C178.577 251.121 177.977 250.907 177.377 250.586C176.976 250.05 176.776 249.408 176.776 248.766C176.676 247.803 176.676 246.732 176.876 245.769C176.976 244.913 177.377 244.164 177.877 243.628C178.477 243.093 179.078 242.772 179.778 242.451C180.479 242.13 183.981 240.845 184.782 240.631C185.482 240.417 186.183 240.096 186.883 239.668C187.284 239.454 187.684 239.133 187.984 238.705C188.184 238.384 188.385 238.17 188.585 237.741C188.685 237.42 188.785 237.099 188.785 236.778V235.708C188.785 235.173 188.585 234.637 188.285 234.316L187.284 233.246C187.084 233.032 186.883 232.818 186.783 232.497C186.683 232.176 186.483 231.854 186.383 231.533L186.083 230.142C185.883 230.035 185.783 230.035 185.583 229.928C185.382 229.714 185.282 229.607 185.182 229.393C184.982 229.072 184.882 228.75 184.782 228.429C184.682 228.001 184.582 227.68 184.682 227.252C184.782 226.931 184.782 226.717 184.982 226.396C185.082 226.075 185.182 225.86 185.382 225.539C185.282 223.72 185.482 221.793 185.883 219.973C186.083 219.117 186.483 218.261 186.883 217.512C187.584 216.227 188.785 215.264 190.086 214.729C190.586 214.515 191.087 214.301 191.687 214.194C192.187 214.087 192.688 214.087 193.288 213.979C193.889 213.979 194.589 214.087 195.19 214.194C195.79 214.408 196.39 214.622 196.891 214.836C197.391 215.05 197.891 215.371 198.292 215.799C198.692 216.12 198.992 216.441 199.292 216.869C199.893 217.726 200.293 218.582 200.593 219.545C200.894 220.402 201.094 221.365 201.194 222.328C201.294 223.292 201.394 224.362 201.394 225.432C201.594 225.539 201.694 225.753 201.694 225.86C201.794 226.075 201.894 226.289 201.894 226.503C201.994 226.824 201.994 227.145 201.894 227.573C201.894 228.001 201.794 228.429 201.594 228.857C201.494 229.179 201.294 229.393 201.094 229.607C200.894 229.821 200.794 229.928 200.493 230.035C200.393 230.463 200.293 230.891 200.193 231.212C200.093 231.533 199.893 231.854 199.793 232.176C199.693 232.497 199.493 232.711 199.292 232.925C199.092 233.139 198.892 233.246 198.692 233.46C198.492 233.567 198.392 233.781 198.192 233.888C198.092 234.102 197.891 234.209 197.891 234.423C197.691 235.065 197.591 235.708 197.591 236.35C197.591 236.778 197.691 237.206 197.891 237.527C198.092 237.955 198.392 238.384 198.692 238.705C199.092 239.133 199.593 239.454 200.193 239.668C200.794 239.882 201.394 240.203 202.095 240.31C202.795 240.417 205.497 241.809 206.097 242.023C206.598 242.558 207.098 242.879 207.598 243.307Z" fill="#0EE492" />
    </mask>
    <g mask="url(#mask0_647_1123)">
        <path d="M198.882 250.084L198.868 250.008L198.845 249.934C198.592 249.124 198.18 248.351 197.444 247.722C197.257 247.562 197.048 247.398 196.87 247.258C196.794 247.198 196.723 247.143 196.662 247.094C196.434 246.911 196.238 246.741 196.049 246.539L195.831 246.306L195.531 246.199C195.38 246.145 195.009 245.971 194.504 245.734C194.257 245.618 193.979 245.487 193.678 245.348C193.255 245.152 192.812 244.951 192.424 244.792C192.085 244.652 191.642 244.479 191.285 244.425C191.071 244.392 190.846 244.323 190.571 244.217C190.5 244.189 190.398 244.148 190.284 244.102C190.073 244.016 189.818 243.912 189.627 243.844C189.206 243.694 188.888 243.483 188.643 243.221C188.429 242.992 188.21 242.677 188.073 242.384L188.04 242.312L187.998 242.245C187.959 242.182 187.896 242.011 187.896 241.762C187.896 241.267 187.972 240.765 188.129 240.253C188.133 240.247 188.138 240.241 188.143 240.235C188.148 240.227 188.154 240.219 188.161 240.21C188.174 240.199 188.187 240.187 188.199 240.176C188.282 240.101 188.353 240.026 188.387 239.989L188.393 239.982C188.394 239.982 188.394 239.981 188.395 239.98L188.495 239.927L188.643 239.768C188.671 239.739 188.701 239.712 188.806 239.628L188.819 239.618C188.916 239.54 189.079 239.41 189.244 239.233L188.285 238.337L189.244 239.233C189.253 239.224 189.262 239.213 189.272 239.203C189.466 238.996 189.847 238.591 190.038 237.978C190.057 237.918 190.092 237.839 190.175 237.662C190.178 237.654 190.181 237.647 190.185 237.639C190.253 237.493 190.362 237.262 190.439 237.015C190.505 236.802 190.569 236.556 190.63 236.308C190.804 236.174 190.944 236.024 191.027 235.935C191.033 235.928 191.039 235.921 191.045 235.915C191.054 235.905 191.064 235.895 191.074 235.885C191.258 235.689 191.61 235.314 191.809 234.753C192.04 234.238 192.175 233.698 192.196 233.139C192.294 232.656 192.31 232.182 192.186 231.688C192.146 231.344 192.026 231.043 191.943 230.861C191.889 230.661 191.804 230.491 191.726 230.364C191.715 230.347 191.703 230.329 191.692 230.312C191.666 229.353 191.577 228.421 191.492 227.605C191.384 226.565 191.167 225.508 190.832 224.545C190.497 223.475 190.041 222.5 189.36 221.528C189.007 221.025 188.641 220.627 188.176 220.245C187.644 219.698 187.012 219.303 186.4 219.041C185.862 218.811 185.23 218.586 184.647 218.378L184.623 218.37L184.52 218.333L184.413 218.314C183.808 218.206 183.007 218.079 182.281 218.079H182.165L182.05 218.1C181.815 218.142 181.596 218.164 181.335 218.19L181.31 218.193C181.058 218.219 180.749 218.25 180.427 218.318C179.688 218.452 179.077 218.714 178.599 218.919C178.589 218.923 178.58 218.927 178.57 218.931C177.04 219.562 175.589 220.709 174.724 222.295L174.724 222.295L174.719 222.305C174.302 223.085 173.837 224.062 173.598 225.087L173.596 225.095L173.594 225.104C173.201 226.888 172.987 228.789 173.047 230.626C172.937 230.834 172.85 231.036 172.77 231.27C172.648 231.494 172.575 231.697 172.524 231.881C172.501 231.96 172.481 232.043 172.468 232.099C172.465 232.109 172.463 232.119 172.461 232.128C172.446 232.19 172.434 232.232 172.422 232.274L172.407 232.319L172.397 232.365C172.231 233.073 172.381 233.675 172.469 234.027C172.479 234.068 172.489 234.106 172.497 234.14L172.508 234.186L172.522 234.232C172.525 234.243 172.529 234.254 172.532 234.266C172.624 234.56 172.758 234.991 173.022 235.434C173.203 235.795 173.411 236.017 173.59 236.207C173.599 236.217 173.608 236.227 173.617 236.236L173.765 236.395L173.934 236.485L174.093 237.222L174.105 237.28L174.123 237.336C174.2 237.583 174.308 237.814 174.377 237.96C174.38 237.968 174.384 237.976 174.387 237.983C174.47 238.16 174.504 238.239 174.523 238.299C174.714 238.913 175.095 239.317 175.289 239.524C175.299 239.535 175.309 239.545 175.318 239.554L176.319 240.625L177.277 239.728L176.319 240.625C176.326 240.633 176.368 240.685 176.407 240.792C176.444 240.895 176.465 241.011 176.465 241.12V242.19C176.465 242.268 176.442 242.379 176.353 242.67C176.303 242.767 176.252 242.848 176.192 242.937C176.177 242.959 176.157 242.989 176.131 243.024C176.065 243.12 175.969 243.257 175.887 243.385C175.723 243.61 175.497 243.795 175.257 243.923L175.224 243.941L175.192 243.96C174.581 244.334 173.987 244.604 173.41 244.783C172.927 244.915 171.812 245.306 170.785 245.68C169.738 246.063 168.632 246.483 168.224 246.67C167.476 247.013 166.739 247.398 165.996 248.061L165.952 248.101L165.911 248.144C165.253 248.848 164.72 249.829 164.573 250.969C164.353 252.068 164.356 253.234 164.457 254.25C164.472 255.14 164.756 256.032 165.318 256.784L165.493 257.017L165.75 257.155C166.454 257.531 167.18 257.795 167.926 257.929C172.798 258.906 177.684 259.451 182.581 259.451C187.494 259.451 192.322 258.795 196.957 257.365C197.577 257.194 198.035 256.866 198.317 256.664C198.33 256.655 198.342 256.647 198.354 256.638L198.757 256.351L198.87 255.868C198.893 255.767 198.916 255.695 198.949 255.59C198.973 255.516 199.001 255.425 199.039 255.295C199.103 255.078 199.184 254.769 199.201 254.418C199.305 253.789 199.305 253.098 199.305 252.621L199.305 252.573C199.305 252.426 199.305 252.311 199.302 252.234C199.301 252.199 199.298 252.116 199.284 252.021C199.268 251.921 199.243 251.826 199.208 251.735C199.203 251.711 199.197 251.674 199.189 251.621L199.186 251.602L199.182 251.582C199.13 251.302 199.077 251.05 199.028 250.812L199.027 250.807C198.977 250.565 198.929 250.337 198.882 250.084Z" stroke="#FE8616" stroke-width="2.62475" />
    </g>
    <path d="M196.591 248.719C197.092 249.147 197.392 249.683 197.592 250.325C197.692 250.86 197.792 251.288 197.892 251.823C197.992 252.466 197.992 251.93 197.992 252.573C197.992 253.108 197.992 253.75 197.892 254.285C197.892 254.713 197.692 255.141 197.592 255.57C197.292 255.784 196.991 255.998 196.591 256.105C192.088 257.496 187.384 258.138 182.581 258.138C177.778 258.138 172.974 257.603 168.171 256.64C167.57 256.533 166.97 256.319 166.369 255.998C165.969 255.463 165.769 254.82 165.769 254.178C165.669 253.215 165.669 252.144 165.869 251.181C165.969 250.325 166.369 249.576 166.87 249.04C167.47 248.505 168.071 248.184 168.771 247.863C169.472 247.542 172.974 246.258 173.775 246.043C174.475 245.829 175.176 245.508 175.876 245.08C176.276 244.866 176.677 244.545 176.977 244.117C177.177 243.796 177.377 243.582 177.577 243.153C177.677 242.832 177.778 242.511 177.778 242.19V241.12C177.778 240.585 177.577 240.049 177.277 239.728L176.276 238.658C176.076 238.444 175.876 238.23 175.776 237.909C175.676 237.588 175.476 237.267 175.376 236.945L175.076 235.554C174.875 235.447 174.775 235.447 174.575 235.34C174.375 235.126 174.275 235.019 174.175 234.805C173.975 234.484 173.875 234.163 173.775 233.841C173.675 233.413 173.575 233.092 173.675 232.664C173.775 232.343 173.775 232.129 173.975 231.808C174.075 231.487 174.175 231.273 174.375 230.951C174.275 229.132 174.475 227.205 174.875 225.386C175.076 224.529 175.476 223.673 175.876 222.924C176.577 221.639 177.778 220.676 179.078 220.141C179.579 219.927 180.079 219.713 180.68 219.606C181.18 219.499 181.68 219.499 182.281 219.392C182.881 219.392 183.582 219.499 184.182 219.606C184.783 219.82 185.383 220.034 185.883 220.248C186.384 220.462 186.884 220.783 187.284 221.211C187.685 221.532 187.985 221.853 188.285 222.282C188.886 223.138 189.286 223.994 189.586 224.957C189.886 225.814 190.086 226.777 190.187 227.74C190.287 228.704 190.387 229.774 190.387 230.844C190.587 230.951 190.687 231.166 190.687 231.273C190.787 231.487 190.887 231.701 190.887 231.915C190.987 232.236 190.987 232.557 190.887 232.985C190.887 233.413 190.787 233.841 190.587 234.27C190.487 234.591 190.287 234.805 190.086 235.019C189.886 235.233 189.786 235.34 189.486 235.447C189.386 235.875 189.286 236.303 189.186 236.624C189.086 236.945 188.886 237.267 188.786 237.588C188.685 237.909 188.485 238.123 188.285 238.337C188.085 238.551 187.885 238.658 187.685 238.872C187.485 238.979 187.384 239.193 187.184 239.3C187.084 239.514 186.884 239.621 186.884 239.835C186.684 240.478 186.584 241.12 186.584 241.762C186.584 242.19 186.684 242.618 186.884 242.939C187.084 243.368 187.384 243.796 187.685 244.117C188.085 244.545 188.585 244.866 189.186 245.08C189.786 245.294 190.387 245.615 191.087 245.722C191.788 245.829 194.49 247.221 195.09 247.435C195.59 247.97 196.091 248.291 196.591 248.719Z" fill="url(#paint16_linear_647_1123)" />
    <path opacity="0.5" d="M184.281 254.057C184.481 253.95 184.481 253.736 184.581 253.522C184.581 253.2 184.581 252.986 184.481 252.665C184.381 252.237 184.281 251.809 184.281 251.381L183.981 249.989C183.881 249.561 183.781 249.133 183.781 248.919C183.981 248.705 184.281 248.491 184.381 248.277C184.481 248.063 184.581 247.742 184.581 247.528C184.581 247.313 184.481 247.099 184.381 246.885C184.281 246.671 184.081 246.457 183.981 246.35L183.381 245.815H181.679C181.479 246.029 181.279 246.136 181.079 246.35C180.979 246.457 180.779 246.671 180.679 246.885C180.579 247.099 180.478 247.313 180.478 247.528C180.478 247.742 180.579 247.956 180.679 248.17C180.879 248.491 181.079 248.705 181.279 248.919C181.179 249.24 181.179 249.454 180.979 249.882C180.879 250.31 180.779 250.739 180.679 251.274C180.579 251.702 180.378 252.237 180.378 252.558C180.278 252.879 180.278 253.2 180.278 253.522C180.278 253.736 180.378 253.95 180.579 254.057C180.779 254.271 180.979 254.592 181.179 254.806C181.379 255.02 181.679 255.234 181.879 255.448C181.98 255.555 182.18 255.662 182.38 255.662C182.58 255.662 182.78 255.555 182.88 255.448C183.08 255.234 183.381 255.127 183.581 254.806C183.881 254.592 184.081 254.378 184.281 254.057Z" fill="#FF921E" />
    <circle cx="332" cy="356" r="36" fill="white" />
    <circle cx="332" cy="356" r="36" fill="#FC790D" fill-opacity="0.15" />
    <g filter="url(#filter9_d_647_1123)">
        <path d="M314 354.619C314 346.796 321.951 340.454 331.759 340.454C341.567 340.454 349.519 346.796 349.519 354.619C349.519 362.442 341.568 368.784 331.759 368.784C329.706 368.784 324.779 374 322.669 374C322.566 374 322.47 373.987 322.381 373.961C320.633 373.449 322.265 366.68 320.824 365.781C316.67 363.188 314 359.152 314 354.619Z" fill="url(#paint17_radial_647_1123)" />
    </g>
    <path opacity="0.5" d="M338.525 352.762H324.997C324.564 352.762 324.149 352.59 323.843 352.283C323.537 351.976 323.365 351.561 323.365 351.127C323.365 350.694 323.537 350.278 323.843 349.971C324.149 349.665 324.564 349.493 324.997 349.493H338.525C338.958 349.493 339.373 349.665 339.679 349.971C339.986 350.278 340.158 350.694 340.158 351.127C340.158 351.561 339.986 351.976 339.679 352.283C339.373 352.59 338.958 352.762 338.525 352.762ZM336.426 360.234H327.097C326.664 360.234 326.248 360.062 325.942 359.755C325.636 359.449 325.464 359.033 325.464 358.599C325.464 358.166 325.636 357.75 325.942 357.444C326.248 357.137 326.664 356.965 327.097 356.965H336.426C336.859 356.965 337.274 357.137 337.58 357.444C337.887 357.75 338.059 358.166 338.059 358.599C338.059 359.033 337.887 359.449 337.58 359.755C337.274 360.062 336.859 360.234 336.426 360.234Z" fill="white" />
    <g filter="url(#filter10_d_647_1123)">
        <circle cx="368.182" cy="372.182" r="17.1818" fill="white" />
        <circle cx="368.182" cy="372.182" r="16.7727" stroke="#F2F6FF" stroke-width="0.818182" />
    </g>
    <path opacity="0.4" d="M376.364 370.307C376.364 367.733 374.223 365.638 371.595 365.638C370.297 365.638 369.069 366.166 368.182 367.067C367.294 366.166 366.064 365.638 364.769 365.638C362.14 365.638 360 367.732 360 370.307C360 370.393 360.009 370.47 360.016 370.533C360.015 370.554 360.013 370.575 360.013 370.597C360.013 371.053 360.131 371.553 360.361 372.085C360.368 372.105 360.376 372.123 360.384 372.14C361.837 375.429 367.43 379.213 367.668 379.387C367.816 379.494 367.991 379.547 368.168 379.547C368.348 379.547 368.525 379.492 368.673 379.382C368.877 379.233 373.648 375.992 375.541 372.927C375.613 372.823 375.667 372.723 375.715 372.637C375.729 372.609 375.743 372.581 375.759 372.555L375.765 372.542C375.771 372.532 375.778 372.52 375.785 372.511C375.899 372.303 375.989 372.109 376.061 371.921C376.257 371.435 376.354 371.002 376.354 370.598C376.354 370.567 376.353 370.539 376.35 370.516C376.356 370.463 376.364 370.392 376.364 370.307Z" fill="#FD7B0F" />
    <circle cx="139" cy="356" r="36" fill="white" />
    <circle cx="139" cy="356" r="36" fill="#0555FF" fill-opacity="0.1" />
    <g filter="url(#filter11_d_647_1123)">
        <path d="M158.778 348.703C157.844 348.18 156.723 348.18 155.783 348.703L151.325 351.188V344.175C151.325 342.575 149.979 341.273 148.33 341.273H124.813C123.158 341.273 121.818 342.575 121.818 344.175V367.013C121.818 368.614 123.164 369.909 124.813 369.909H148.324C149.979 369.909 151.319 368.608 151.319 367.013V359.733L155.776 362.224C156.717 362.747 157.838 362.747 158.772 362.224C159.712 361.701 160.272 360.76 160.272 359.714V351.213C160.279 350.16 159.712 349.22 158.778 348.703Z" fill="url(#paint18_linear_647_1123)" />
    </g>
    <path opacity="0.5" d="M140.75 354.708L133.675 350.462C132.761 349.913 131.637 350.626 131.637 351.754V360.246C131.637 361.375 132.761 362.087 133.675 361.539L140.75 357.293C141.69 356.729 141.69 355.272 140.75 354.708Z" fill="white" />
    <g filter="url(#filter12_d_647_1123)">
        <circle cx="111" cy="331" r="6" fill="#2C71FF" fill-opacity="0.44" />
    </g>
    <circle cx="278" cy="96" r="56" fill="url(#paint19_linear_647_1123)" />
    <g filter="url(#filter13_d_647_1123)">
        <circle cx="278" cy="95.9999" r="47.4667" fill="url(#paint20_linear_647_1123)" />
    </g>
    <g filter="url(#filter14_d_647_1123)">
        <circle cx="278" cy="96.0005" r="42.1333" stroke="url(#paint21_linear_647_1123)" stroke-opacity="0.27" stroke-width="0.665021" stroke-linecap="round" stroke-dasharray="1.33 2.66" />
    </g>
    <g filter="url(#filter15_d_647_1123)">
        <circle cx="278.533" cy="95.4664" r="38.4" fill="url(#paint22_linear_647_1123)" fill-opacity="0.46" />
    </g>
    <path d="M276.601 109.616C276.601 109.138 276.988 108.75 277.467 108.75C277.945 108.75 278.333 109.138 278.333 109.616V113.636C278.333 114.114 277.945 114.502 277.467 114.502C276.988 114.502 276.601 114.114 276.601 113.636V109.616ZM295.63 76.2661H259.304C257.555 76.2661 256.133 77.6843 256.133 79.4274V105.589C256.133 107.332 257.555 108.75 259.304 108.75H273.23C273.819 108.75 274.296 109.227 274.296 109.816V113.435C274.296 114.024 273.819 114.502 273.23 114.502H269.394C268.758 114.502 268.242 115.016 268.242 115.651C268.242 116.285 268.758 116.799 269.394 116.799H285.539C286.175 116.799 286.691 116.285 286.691 115.651C286.691 115.016 286.175 114.502 285.539 114.502H281.704C281.115 114.502 280.637 114.024 280.637 113.435V109.816C280.637 109.227 281.115 108.75 281.704 108.75H295.63C297.378 108.75 298.8 107.332 298.8 105.588V79.4274C298.8 77.6843 297.378 76.2661 295.63 76.2661ZM278.333 113.636C278.333 114.114 277.945 114.502 277.467 114.502C276.988 114.502 276.601 114.114 276.601 113.636V109.616C276.601 109.138 276.988 108.75 277.467 108.75C277.945 108.75 278.333 109.138 278.333 109.616V113.636Z" fill="url(#paint23_linear_647_1123)" />
    <g filter="url(#filter16_d_647_1123)">
        <rect x="258.267" y="101.867" width="38.4" height="2.13333" rx="1.06667" fill="url(#paint24_linear_647_1123)" />
    </g>
    <g filter="url(#filter17_d_647_1123)">
        <circle cx="90" cy="109" r="6" fill="url(#paint25_linear_647_1123)" />
    </g>
    <g filter="url(#filter18_d_647_1123)">
        <circle cx="464" cy="158" r="6" fill="url(#paint26_radial_647_1123)" />
    </g>
    <g filter="url(#filter19_d_647_1123)">
        <circle cx="363" cy="422" r="6" fill="#115EFF" />
    </g>
    <defs>
        <filter id="filter0_d_647_1123" x="401.836" y="338" width="52.3099" height="52.3299" filterUnits="userSpaceOnUse" color-interpolation-filters="sRGB">
            <feFlood flood-opacity="0" result="BackgroundImageFix" />
            <feColorMatrix in="SourceAlpha" type="matrix" values="0 0 0 0 0 0 0 0 0 0 0 0 0 0 0 0 0 0 127 0" result="hardAlpha" />
            <feOffset dy="8.18182" />
            <feGaussianBlur stdDeviation="4.09091" />
            <feComposite in2="hardAlpha" operator="out" />
            <feColorMatrix type="matrix" values="0 0 0 0 0.0588235 0 0 0 0 0.909804 0 0 0 0 0.584314 0 0 0 0.1 0" />
            <feBlend mode="normal" in2="BackgroundImageFix" result="effect1_dropShadow_647_1123" />
            <feBlend mode="normal" in="SourceGraphic" in2="effect1_dropShadow_647_1123" result="shape" />
        </filter>
        <filter id="filter1_d_647_1123" x="213.17" y="340.659" width="22.9825" height="23.2159" filterUnits="userSpaceOnUse" color-interpolation-filters="sRGB">
            <feFlood flood-opacity="0" result="BackgroundImageFix" />
            <feColorMatrix in="SourceAlpha" type="matrix" values="0 0 0 0 0 0 0 0 0 0 0 0 0 0 0 0 0 0 127 0" result="hardAlpha" />
            <feOffset dy="7.77273" />
            <feGaussianBlur stdDeviation="3.88636" />
            <feColorMatrix type="matrix" values="0 0 0 0 0.364706 0 0 0 0 0.239216 0 0 0 0 1 0 0 0 0.1 0" />
            <feBlend mode="normal" in2="BackgroundImageFix" result="effect1_dropShadow_647_1123" />
            <feBlend mode="normal" in="SourceGraphic" in2="effect1_dropShadow_647_1123" result="shape" />
        </filter>
        <filter id="filter2_d_647_1123" x="206.773" y="350.248" width="56.4546" height="36.6387" filterUnits="userSpaceOnUse" color-interpolation-filters="sRGB">
            <feFlood flood-opacity="0" result="BackgroundImageFix" />
            <feColorMatrix in="SourceAlpha" type="matrix" values="0 0 0 0 0 0 0 0 0 0 0 0 0 0 0 0 0 0 127 0" result="hardAlpha" />
            <feOffset dy="7.77273" />
            <feGaussianBlur stdDeviation="3.88636" />
            <feColorMatrix type="matrix" values="0 0 0 0 0.364706 0 0 0 0 0.239216 0 0 0 0 1 0 0 0 0.1 0" />
            <feBlend mode="normal" in2="BackgroundImageFix" result="effect1_dropShadow_647_1123" />
            <feBlend mode="normal" in="SourceGraphic" in2="effect1_dropShadow_647_1123" result="shape" />
        </filter>
        <filter id="filter3_d_647_1123" x="193.818" y="380" width="50.7274" height="50.7274" filterUnits="userSpaceOnUse" color-interpolation-filters="sRGB">
            <feFlood flood-opacity="0" result="BackgroundImageFix" />
            <feColorMatrix in="SourceAlpha" type="matrix" values="0 0 0 0 0 0 0 0 0 0 0 0 0 0 0 0 0 0 127 0" result="hardAlpha" />
            <feOffset dy="8.18182" />
            <feGaussianBlur stdDeviation="4.09091" />
            <feColorMatrix type="matrix" values="0 0 0 0 0.992157 0 0 0 0 0.482353 0 0 0 0 0.0588235 0 0 0 0.05 0" />
            <feBlend mode="normal" in2="BackgroundImageFix" result="effect1_dropShadow_647_1123" />
            <feBlend mode="normal" in="SourceGraphic" in2="effect1_dropShadow_647_1123" result="shape" />
        </filter>
        <filter id="filter4_d_647_1123" x="206.435" y="387.677" width="25.0201" height="24.5738" filterUnits="userSpaceOnUse" color-interpolation-filters="sRGB">
            <feFlood flood-opacity="0" result="BackgroundImageFix" />
            <feColorMatrix in="SourceAlpha" type="matrix" values="0 0 0 0 0 0 0 0 0 0 0 0 0 0 0 0 0 0 127 0" result="hardAlpha" />
            <feOffset dy="3.27273" />
            <feGaussianBlur stdDeviation="1.63636" />
            <feColorMatrix type="matrix" values="0 0 0 0 0.52549 0 0 0 0 0.607843 0 0 0 0 0.72549 0 0 0 0.1 0" />
            <feBlend mode="normal" in2="BackgroundImageFix" result="effect1_dropShadow_647_1123" />
            <feBlend mode="normal" in="SourceGraphic" in2="effect1_dropShadow_647_1123" result="shape" />
        </filter>
        <filter id="filter5_d_647_1123" x="350" y="192" width="108" height="108" filterUnits="userSpaceOnUse" color-interpolation-filters="sRGB">
            <feFlood flood-opacity="0" result="BackgroundImageFix" />
            <feColorMatrix in="SourceAlpha" type="matrix" values="0 0 0 0 0 0 0 0 0 0 0 0 0 0 0 0 0 0 127 0" result="hardAlpha" />
            <feOffset dy="10" />
            <feGaussianBlur stdDeviation="5" />
            <feColorMatrix type="matrix" values="0 0 0 0 0.992157 0 0 0 0 0.486275 0 0 0 0 0.0588235 0 0 0 0.1 0" />
            <feBlend mode="normal" in2="BackgroundImageFix" result="effect1_dropShadow_647_1123" />
            <feBlend mode="normal" in="SourceGraphic" in2="effect1_dropShadow_647_1123" result="shape" />
        </filter>
        <filter id="filter6_d_647_1123" x="334" y="192" width="108" height="108" filterUnits="userSpaceOnUse" color-interpolation-filters="sRGB">
            <feFlood flood-opacity="0" result="BackgroundImageFix" />
            <feColorMatrix in="SourceAlpha" type="matrix" values="0 0 0 0 0 0 0 0 0 0 0 0 0 0 0 0 0 0 127 0" result="hardAlpha" />
            <feOffset dy="10" />
            <feGaussianBlur stdDeviation="5" />
            <feColorMatrix type="matrix" values="0 0 0 0 0.992157 0 0 0 0 0.486275 0 0 0 0 0.0588235 0 0 0 0.1 0" />
            <feBlend mode="normal" in2="BackgroundImageFix" result="effect1_dropShadow_647_1123" />
            <feBlend mode="normal" in="SourceGraphic" in2="effect1_dropShadow_647_1123" result="shape" />
        </filter>
        <filter id="filter7_d_647_1123" x="318" y="192" width="108" height="108" filterUnits="userSpaceOnUse" color-interpolation-filters="sRGB">
            <feFlood flood-opacity="0" result="BackgroundImageFix" />
            <feColorMatrix in="SourceAlpha" type="matrix" values="0 0 0 0 0 0 0 0 0 0 0 0 0 0 0 0 0 0 127 0" result="hardAlpha" />
            <feOffset dy="10" />
            <feGaussianBlur stdDeviation="5" />
            <feColorMatrix type="matrix" values="0 0 0 0 0.992157 0 0 0 0 0.486275 0 0 0 0 0.0588235 0 0 0 0.1 0" />
            <feBlend mode="normal" in2="BackgroundImageFix" result="effect1_dropShadow_647_1123" />
            <feBlend mode="normal" in="SourceGraphic" in2="effect1_dropShadow_647_1123" result="shape" />
        </filter>
        <filter id="filter8_d_647_1123" x="133" y="192" width="108" height="108" filterUnits="userSpaceOnUse" color-interpolation-filters="sRGB">
            <feFlood flood-opacity="0" result="BackgroundImageFix" />
            <feColorMatrix in="SourceAlpha" type="matrix" values="0 0 0 0 0 0 0 0 0 0 0 0 0 0 0 0 0 0 127 0" result="hardAlpha" />
            <feOffset dy="10" />
            <feGaussianBlur stdDeviation="5" />
            <feColorMatrix type="matrix" values="0 0 0 0 0.992157 0 0 0 0 0.486275 0 0 0 0 0.0588235 0 0 0 0.1 0" />
            <feBlend mode="normal" in2="BackgroundImageFix" result="effect1_dropShadow_647_1123" />
            <feBlend mode="normal" in="SourceGraphic" in2="effect1_dropShadow_647_1123" result="shape" />
        </filter>
        <filter id="filter9_d_647_1123" x="305.818" y="340.454" width="51.8822" height="49.909" filterUnits="userSpaceOnUse" color-interpolation-filters="sRGB">
            <feFlood flood-opacity="0" result="BackgroundImageFix" />
            <feColorMatrix in="SourceAlpha" type="matrix" values="0 0 0 0 0 0 0 0 0 0 0 0 0 0 0 0 0 0 127 0" result="hardAlpha" />
            <feOffset dy="8.18182" />
            <feGaussianBlur stdDeviation="4.09091" />
            <feComposite in2="hardAlpha" operator="out" />
            <feColorMatrix type="matrix" values="0 0 0 0 0.992157 0 0 0 0 0.490196 0 0 0 0 0.0627451 0 0 0 0.1 0" />
            <feBlend mode="normal" in2="BackgroundImageFix" result="effect1_dropShadow_647_1123" />
            <feBlend mode="normal" in="SourceGraphic" in2="effect1_dropShadow_647_1123" result="shape" />
        </filter>
        <filter id="filter10_d_647_1123" x="342.818" y="355" width="50.7274" height="50.7274" filterUnits="userSpaceOnUse" color-interpolation-filters="sRGB">
            <feFlood flood-opacity="0" result="BackgroundImageFix" />
            <feColorMatrix in="SourceAlpha" type="matrix" values="0 0 0 0 0 0 0 0 0 0 0 0 0 0 0 0 0 0 127 0" result="hardAlpha" />
            <feOffset dy="8.18182" />
            <feGaussianBlur stdDeviation="4.09091" />
            <feColorMatrix type="matrix" values="0 0 0 0 0.992157 0 0 0 0 0.482353 0 0 0 0 0.0588235 0 0 0 0.05 0" />
            <feBlend mode="normal" in2="BackgroundImageFix" result="effect1_dropShadow_647_1123" />
            <feBlend mode="normal" in="SourceGraphic" in2="effect1_dropShadow_647_1123" result="shape" />
        </filter>
        <filter id="filter11_d_647_1123" x="113.636" y="341.273" width="54.8182" height="44.9999" filterUnits="userSpaceOnUse" color-interpolation-filters="sRGB">
            <feFlood flood-opacity="0" result="BackgroundImageFix" />
            <feColorMatrix in="SourceAlpha" type="matrix" values="0 0 0 0 0 0 0 0 0 0 0 0 0 0 0 0 0 0 127 0" result="hardAlpha" />
            <feOffset dy="8.18182" />
            <feGaussianBlur stdDeviation="4.09091" />
            <feComposite in2="hardAlpha" operator="out" />
            <feColorMatrix type="matrix" values="0 0 0 0 0.0666667 0 0 0 0 0.368627 0 0 0 0 1 0 0 0 0.1 0" />
            <feBlend mode="normal" in2="BackgroundImageFix" result="effect1_dropShadow_647_1123" />
            <feBlend mode="normal" in="SourceGraphic" in2="effect1_dropShadow_647_1123" result="shape" />
        </filter>
        <filter id="filter12_d_647_1123" x="83.1702" y="325" width="55.6596" height="55.6596" filterUnits="userSpaceOnUse" color-interpolation-filters="sRGB">
            <feFlood flood-opacity="0" result="BackgroundImageFix" />
            <feColorMatrix in="SourceAlpha" type="matrix" values="0 0 0 0 0 0 0 0 0 0 0 0 0 0 0 0 0 0 127 0" result="hardAlpha" />
            <feOffset dy="21.8298" />
            <feGaussianBlur stdDeviation="10.9149" />
            <feColorMatrix type="matrix" values="0 0 0 0 0.401771 0 0 0 0 0.526108 0 0 0 0 0.845833 0 0 0 0.1 0" />
            <feBlend mode="normal" in2="BackgroundImageFix" result="effect1_dropShadow_647_1123" />
            <feBlend mode="normal" in="SourceGraphic" in2="effect1_dropShadow_647_1123" result="shape" />
        </filter>
        <filter id="filter13_d_647_1123" x="217.233" y="41.883" width="121.534" height="121.534" filterUnits="userSpaceOnUse" color-interpolation-filters="sRGB">
            <feFlood flood-opacity="0" result="BackgroundImageFix" />
            <feColorMatrix in="SourceAlpha" type="matrix" values="0 0 0 0 0 0 0 0 0 0 0 0 0 0 0 0 0 0 127 0" result="hardAlpha" />
            <feOffset dy="6.65021" />
            <feGaussianBlur stdDeviation="6.65021" />
            <feComposite in2="hardAlpha" operator="out" />
            <feColorMatrix type="matrix" values="0 0 0 0 0.164706 0 0 0 0 0.435294 0 0 0 0 1 0 0 0 0.15 0" />
            <feBlend mode="normal" in2="BackgroundImageFix" result="effect1_dropShadow_647_1123" />
            <feBlend mode="normal" in="SourceGraphic" in2="effect1_dropShadow_647_1123" result="shape" />
        </filter>
        <filter id="filter14_d_647_1123" x="208.933" y="40.2343" width="138.133" height="138.133" filterUnits="userSpaceOnUse" color-interpolation-filters="sRGB">
            <feFlood flood-opacity="0" result="BackgroundImageFix" />
            <feColorMatrix in="SourceAlpha" type="matrix" values="0 0 0 0 0 0 0 0 0 0 0 0 0 0 0 0 0 0 127 0" result="hardAlpha" />
            <feMorphology radius="13.3004" operator="erode" in="SourceAlpha" result="effect1_dropShadow_647_1123" />
            <feOffset dy="13.3004" />
            <feGaussianBlur stdDeviation="19.9506" />
            <feColorMatrix type="matrix" values="0 0 0 0 0.0196078 0 0 0 0 0.333333 0 0 0 0 1 0 0 0 0.05 0" />
            <feBlend mode="normal" in2="BackgroundImageFix" result="effect1_dropShadow_647_1123" />
            <feBlend mode="normal" in="SourceGraphic" in2="effect1_dropShadow_647_1123" result="shape" />
        </filter>
        <filter id="filter15_d_647_1123" x="226.066" y="53.5497" width="104.934" height="104.934" filterUnits="userSpaceOnUse" color-interpolation-filters="sRGB">
            <feFlood flood-opacity="0" result="BackgroundImageFix" />
            <feColorMatrix in="SourceAlpha" type="matrix" values="0 0 0 0 0 0 0 0 0 0 0 0 0 0 0 0 0 0 127 0" result="hardAlpha" />
            <feOffset dy="10.5502" />
            <feGaussianBlur stdDeviation="7.03348" />
            <feColorMatrix type="matrix" values="0 0 0 0 0.180392 0 0 0 0 0.843137 0 0 0 0 0.301961 0 0 0 0.1 0" />
            <feBlend mode="normal" in2="BackgroundImageFix" result="effect1_dropShadow_647_1123" />
            <feBlend mode="normal" in="SourceGraphic" in2="effect1_dropShadow_647_1123" result="shape" />
        </filter>
        <filter id="filter16_d_647_1123" x="244.966" y="95.2165" width="65.0007" height="28.7341" filterUnits="userSpaceOnUse" color-interpolation-filters="sRGB">
            <feFlood flood-opacity="0" result="BackgroundImageFix" />
            <feColorMatrix in="SourceAlpha" type="matrix" values="0 0 0 0 0 0 0 0 0 0 0 0 0 0 0 0 0 0 127 0" result="hardAlpha" />
            <feOffset dy="6.65021" />
            <feGaussianBlur stdDeviation="6.65021" />
            <feComposite in2="hardAlpha" operator="out" />
            <feColorMatrix type="matrix" values="0 0 0 0 0.164706 0 0 0 0 0.435294 0 0 0 0 1 0 0 0 0.15 0" />
            <feBlend mode="normal" in2="BackgroundImageFix" result="effect1_dropShadow_647_1123" />
            <feBlend mode="normal" in="SourceGraphic" in2="effect1_dropShadow_647_1123" result="shape" />
        </filter>
        <filter id="filter17_d_647_1123" x="75.8182" y="103" width="28.3636" height="28.3636" filterUnits="userSpaceOnUse" color-interpolation-filters="sRGB">
            <feFlood flood-opacity="0" result="BackgroundImageFix" />
            <feColorMatrix in="SourceAlpha" type="matrix" values="0 0 0 0 0 0 0 0 0 0 0 0 0 0 0 0 0 0 127 0" result="hardAlpha" />
            <feOffset dy="8.18182" />
            <feGaussianBlur stdDeviation="4.09091" />
            <feComposite in2="hardAlpha" operator="out" />
            <feColorMatrix type="matrix" values="0 0 0 0 0.0588235 0 0 0 0 0.909804 0 0 0 0 0.584314 0 0 0 0.1 0" />
            <feBlend mode="normal" in2="BackgroundImageFix" result="effect1_dropShadow_647_1123" />
            <feBlend mode="normal" in="SourceGraphic" in2="effect1_dropShadow_647_1123" result="shape" />
        </filter>
        <filter id="filter18_d_647_1123" x="450.227" y="152" width="27.5455" height="27.5455" filterUnits="userSpaceOnUse" color-interpolation-filters="sRGB">
            <feFlood flood-opacity="0" result="BackgroundImageFix" />
            <feColorMatrix in="SourceAlpha" type="matrix" values="0 0 0 0 0 0 0 0 0 0 0 0 0 0 0 0 0 0 127 0" result="hardAlpha" />
            <feOffset dy="7.77273" />
            <feGaussianBlur stdDeviation="3.88636" />
            <feColorMatrix type="matrix" values="0 0 0 0 0.364706 0 0 0 0 0.239216 0 0 0 0 1 0 0 0 0.1 0" />
            <feBlend mode="normal" in2="BackgroundImageFix" result="effect1_dropShadow_647_1123" />
            <feBlend mode="normal" in="SourceGraphic" in2="effect1_dropShadow_647_1123" result="shape" />
        </filter>
        <filter id="filter19_d_647_1123" x="347" y="416" width="32" height="32" filterUnits="userSpaceOnUse" color-interpolation-filters="sRGB">
            <feFlood flood-opacity="0" result="BackgroundImageFix" />
            <feColorMatrix in="SourceAlpha" type="matrix" values="0 0 0 0 0 0 0 0 0 0 0 0 0 0 0 0 0 0 127 0" result="hardAlpha" />
            <feOffset dy="10" />
            <feGaussianBlur stdDeviation="5" />
            <feComposite in2="hardAlpha" operator="out" />
            <feColorMatrix type="matrix" values="0 0 0 0 0.164706 0 0 0 0 0.435294 0 0 0 0 1 0 0 0 0.1 0" />
            <feBlend mode="normal" in2="BackgroundImageFix" result="effect1_dropShadow_647_1123" />
            <feBlend mode="normal" in="SourceGraphic" in2="effect1_dropShadow_647_1123" result="shape" />
        </filter>
        <linearGradient id="paint0_linear_647_1123" x1="280" y1="-7.20844e-06" x2="280" y2="440" gradientUnits="userSpaceOnUse">
            <stop stop-color="#F4F7FF" />
            <stop offset="1" stop-color="#E6EEFF" stop-opacity="0" />
        </linearGradient>
        <linearGradient id="paint1_linear_647_1123" x1="280" y1="0" x2="280" y2="440" gradientUnits="userSpaceOnUse">
            <stop stop-color="#1460FF" stop-opacity="0.3" />
            <stop offset="0.127276" stop-color="#1460FF" stop-opacity="0.06" />
            <stop offset="0.719026" stop-color="#1460FF" stop-opacity="0.07" />
            <stop offset="1" stop-color="#1460FF" stop-opacity="0.15" />
        </linearGradient>
        <radialGradient id="paint2_radial_647_1123" cx="0" cy="0" r="1" gradientUnits="userSpaceOnUse" gradientTransform="translate(441.5 46.5) rotate(-43.4089) scale(25.4657 28.1246)">
            <stop stop-color="#FD8011" />
            <stop offset="1" stop-color="#FD7F11" stop-opacity="0" />
        </radialGradient>
        <linearGradient id="paint3_linear_647_1123" x1="82.7556" y1="201.478" x2="470.469" y2="193.728" gradientUnits="userSpaceOnUse">
            <stop stop-color="#0A59FF" stop-opacity="0.46" />
            <stop offset="0.255208" stop-color="#0A59FF" stop-opacity="0.26" />
            <stop offset="1" stop-color="#0C5AFF" stop-opacity="0.22" />
        </linearGradient>
        <linearGradient id="paint4_linear_647_1123" x1="278.332" y1="10" x2="278.332" y2="364" gradientUnits="userSpaceOnUse">
            <stop stop-color="#0A59FF" stop-opacity="0" />
            <stop offset="0.479167" stop-color="#0B59FF" stop-opacity="0.05" />
            <stop offset="1" stop-color="#0C5AFF" stop-opacity="0.49" />
        </linearGradient>
        <linearGradient id="paint5_linear_647_1123" x1="210.156" y1="45.9219" x2="314.887" y2="265.191" gradientUnits="userSpaceOnUse">
            <stop stop-color="#0A59FF" />
            <stop offset="0.255208" stop-color="#0A59FF" />
            <stop offset="0.479167" stop-color="#0B59FF" stop-opacity="0.05" />
            <stop offset="1" stop-color="#0C5AFF" />
        </linearGradient>
        <linearGradient id="paint6_linear_647_1123" x1="419.488" y1="338" x2="444.515" y2="371.95" gradientUnits="userSpaceOnUse">
            <stop stop-color="#0ADE8C" />
            <stop offset="1" stop-color="#14F29D" />
        </linearGradient>
        <radialGradient id="paint7_radial_647_1123" cx="0" cy="0" r="1" gradientUnits="userSpaceOnUse" gradientTransform="translate(218.063 343.216) rotate(49.7754) scale(34.9225 42.0424)">
            <stop stop-color="#5432FF" />
            <stop offset="1" stop-color="#7256FF" />
        </radialGradient>
        <radialGradient id="paint8_radial_647_1123" cx="0" cy="0" r="1" gradientUnits="userSpaceOnUse" gradientTransform="translate(218.064 343.216) rotate(49.7754) scale(34.9225 42.0424)">
            <stop stop-color="#5432FF" />
            <stop offset="1" stop-color="#7256FF" />
        </radialGradient>
        <radialGradient id="paint9_radial_647_1123" cx="0" cy="0" r="1" gradientUnits="userSpaceOnUse" gradientTransform="translate(360.011 236) scale(88.1009 408.471)">
            <stop stop-color="#FC790D" />
            <stop offset="1" stop-color="#FF9A23" />
        </radialGradient>
        <radialGradient id="paint10_radial_647_1123" cx="0" cy="0" r="1" gradientUnits="userSpaceOnUse" gradientTransform="translate(344.011 236) scale(88.1009 408.471)">
            <stop stop-color="#FC790D" />
            <stop offset="1" stop-color="#FF9A23" />
        </radialGradient>
        <linearGradient id="paint11_linear_647_1123" x1="372.92" y1="235.736" x2="403.64" y2="235.736" gradientUnits="userSpaceOnUse">
            <stop stop-color="white" />
            <stop offset="1" stop-color="white" stop-opacity="0.6" />
        </linearGradient>
        <radialGradient id="paint12_radial_647_1123" cx="0" cy="0" r="1" gradientUnits="userSpaceOnUse" gradientTransform="translate(328.011 236) scale(88.1009 408.471)">
            <stop stop-color="#FC790D" />
            <stop offset="1" stop-color="#FF9A23" />
        </radialGradient>
        <linearGradient id="paint13_linear_647_1123" x1="356.92" y1="235.736" x2="387.64" y2="235.736" gradientUnits="userSpaceOnUse">
            <stop stop-color="white" />
            <stop offset="1" stop-color="white" stop-opacity="0.6" />
        </linearGradient>
        <radialGradient id="paint14_radial_647_1123" cx="0" cy="0" r="1" gradientUnits="userSpaceOnUse" gradientTransform="translate(143.011 236) scale(88.1009 408.471)">
            <stop stop-color="#FC790D" />
            <stop offset="1" stop-color="#FF9A23" />
        </radialGradient>
        <linearGradient id="paint15_linear_647_1123" x1="185.507" y1="213.588" x2="203.007" y2="252.588" gradientUnits="userSpaceOnUse">
            <stop stop-color="white" />
            <stop offset="1" stop-color="#FFD4A5" />
        </linearGradient>
        <linearGradient id="paint16_linear_647_1123" x1="174.5" y1="219" x2="192" y2="258" gradientUnits="userSpaceOnUse">
            <stop stop-color="white" />
            <stop offset="1" stop-color="#FFD4A5" />
        </linearGradient>
        <radialGradient id="paint17_radial_647_1123" cx="0" cy="0" r="1" gradientUnits="userSpaceOnUse" gradientTransform="translate(320.227 340.454) rotate(55.0608) scale(41.032 198.871)">
            <stop stop-color="#FC790D" />
            <stop offset="1" stop-color="#FF9A23" />
        </radialGradient>
        <linearGradient id="paint18_linear_647_1123" x1="121.818" y1="341.273" x2="153.727" y2="369.909" gradientUnits="userSpaceOnUse">
            <stop stop-color="#115EFF" />
            <stop offset="1" stop-color="#4280FF" />
        </linearGradient>
        <linearGradient id="paint19_linear_647_1123" x1="278" y1="40" x2="278" y2="152" gradientUnits="userSpaceOnUse">
            <stop stop-color="white" />
            <stop offset="1" stop-color="#E3ECFF" />
        </linearGradient>
        <linearGradient id="paint20_linear_647_1123" x1="255.543" y1="48.5332" x2="296.498" y2="141.615" gradientUnits="userSpaceOnUse">
            <stop stop-color="#0555FF" />
            <stop offset="1" stop-color="#4380FF" />
        </linearGradient>
        <linearGradient id="paint21_linear_647_1123" x1="251.106" y1="62.8317" x2="307.583" y2="125.583" gradientUnits="userSpaceOnUse">
            <stop stop-color="white" />
            <stop offset="1" stop-color="white" stop-opacity="0.47" />
        </linearGradient>
        <linearGradient id="paint22_linear_647_1123" x1="251.866" y1="64.2717" x2="313.485" y2="108.351" gradientUnits="userSpaceOnUse">
            <stop stop-color="#D0E0FF" stop-opacity="0" />
            <stop offset="1" stop-color="#7DA7FF" />
        </linearGradient>
        <linearGradient id="paint23_linear_647_1123" x1="258.504" y1="96.5328" x2="296.43" y2="96.5328" gradientUnits="userSpaceOnUse">
            <stop stop-color="white" />
            <stop offset="1" stop-color="white" stop-opacity="0.6" />
        </linearGradient>
        <linearGradient id="paint24_linear_647_1123" x1="258.267" y1="102.933" x2="259.327" y2="109.227" gradientUnits="userSpaceOnUse">
            <stop stop-color="#0555FF" />
            <stop offset="1" stop-color="#4380FF" />
        </linearGradient>
        <linearGradient id="paint25_linear_647_1123" x1="87.1613" y1="103" x2="95.51" y2="114.332" gradientUnits="userSpaceOnUse">
            <stop stop-color="#0ADE8C" />
            <stop offset="1" stop-color="#14F29D" />
        </linearGradient>
        <radialGradient id="paint26_radial_647_1123" cx="0" cy="0" r="1" gradientUnits="userSpaceOnUse" gradientTransform="translate(459.032 147.999) rotate(66.4378) scale(16.5489 14.8053)">
            <stop stop-color="#5432FF" />
            <stop offset="1" stop-color="#7256FF" />
        </radialGradient>
    </defs>
</svg>
    