<svg width="1440" height="264" viewBox="0 0 1440 264" fill="none" xmlns="http://www.w3.org/2000/svg">
    <g clip-path="url(#clip0_647_429)">
        <rect width="1440" height="264" fill="#0555FF" />
        <g opacity="0.2" clip-path="url(#clip1_647_429)">
            <path style="mix-blend-mode:color-dodge" d="M1187.01 746.258C1341.57 478.557 1269.33 147.499 1025.67 6.81972C782.001 -133.86 459.179 -30.8888 304.622 236.812C150.065 504.513 222.301 835.57 465.965 976.25C709.629 1116.93 1032.45 1013.96 1187.01 746.258Z" fill="url(#paint0_linear_647_429)" />
            <g style="mix-blend-mode:overlay">
                <path d="M1282.84 855.446C1357.65 669.524 1077.63 381.717 657.39 212.611C237.15 43.5047 -164.172 57.1369 -238.988 243.059C-313.804 428.981 -33.7814 716.788 386.459 885.894C806.699 1055 1208.02 1041.37 1282.84 855.446Z" stroke="#55FFFC" stroke-width="1.06" stroke-miterlimit="10" />
            </g>
            <g style="mix-blend-mode:overlay">
                <path d="M1103.83 984.061C1295.23 813.35 1261.74 463.452 1029.03 202.543C796.326 -58.3665 452.519 -131.487 261.118 39.2246C69.7181 209.936 103.204 559.834 335.911 820.743C568.618 1081.65 912.425 1154.77 1103.83 984.061Z" stroke="#55FFFC" stroke-width="1.06" stroke-miterlimit="10" />
            </g>
            <g style="mix-blend-mode:overlay">
                <path d="M1757.16 605.947C1743.18 413.316 1365.71 283.725 914.05 316.496C462.391 349.268 107.579 531.992 121.556 724.623C135.533 917.253 513.006 1046.84 964.665 1014.07C1416.32 981.301 1771.14 798.577 1757.16 605.947Z" stroke="#55FFFC" stroke-width="1.04" stroke-miterlimit="10" />
            </g>
            <g style="mix-blend-mode:overlay">
                <path d="M1693.08 1011.97C1747.64 830.571 1437.87 577.042 1001.19 445.699C564.512 314.356 166.282 354.936 111.721 536.337C57.16 717.738 366.93 971.267 803.611 1102.61C1240.29 1233.95 1638.52 1193.37 1693.08 1011.97Z" stroke="#55FFFC" stroke-width="1.04" stroke-miterlimit="10" />
            </g>
            <g style="mix-blend-mode:overlay">
                <path d="M1267.33 1262.17C1418.16 1085.81 1313.94 749.134 1034.54 510.168C755.141 271.202 406.371 220.444 255.539 396.796C104.707 573.148 208.93 909.829 488.328 1148.79C767.725 1387.76 1116.49 1438.52 1267.33 1262.17Z" stroke="#55FFFC" stroke-width="1.03" stroke-miterlimit="10" />
            </g>
            <g style="mix-blend-mode:overlay">
                <path d="M878.41 1170.67C1135.82 969.561 1215.75 641.746 1056.94 438.477C898.129 235.207 560.714 233.458 303.303 434.569C45.8925 635.681 -34.0382 963.496 124.773 1166.77C283.584 1370.03 620.999 1371.78 878.41 1170.67Z" stroke="#55FFFC" stroke-width="1.03" stroke-miterlimit="10" />
            </g>
            <g style="mix-blend-mode:overlay">
                <path d="M1240.09 582.96C1208.04 389.998 841.817 290.081 422.109 359.789C2.40102 429.496 -311.859 642.433 -279.811 835.395C-247.762 1028.36 118.459 1128.27 538.167 1058.57C957.875 988.858 1272.13 775.922 1240.09 582.96Z" stroke="#55FFFC" stroke-width="1.02" stroke-miterlimit="10" />
            </g>
            <g style="mix-blend-mode:overlay">
                <path d="M1289.03 764.524C1325.85 586.857 996.115 368.296 552.534 276.354C108.953 184.412 -280.493 253.906 -317.319 431.573C-354.144 609.24 -24.4037 827.802 419.177 919.744C862.758 1011.69 1252.2 942.191 1289.03 764.524Z" stroke="#55FFFC" stroke-width="1.01" stroke-miterlimit="10" />
            </g>
            <g style="mix-blend-mode:overlay">
                <path d="M1179.16 916.82C1297.74 741.61 1136.27 425.226 818.491 210.157C500.716 -4.91177 146.979 -37.2242 28.3978 137.985C-90.1834 313.195 71.2951 629.578 389.07 844.647C706.845 1059.72 1060.58 1092.03 1179.16 916.82Z" stroke="#55FFFC" stroke-width="1.01" stroke-miterlimit="10" />
            </g>
            <g style="mix-blend-mode:color-dodge">
                <path d="M520.908 54.4039C535.371 50.5285 529.379 28.0248 514.881 31.9097C500.382 35.7946 506.392 58.2936 520.908 54.4039Z" fill="#55FFFC" />
            </g>
            <path d="M385.84 261.175C396.696 258.266 392.191 241.382 381.317 244.296C370.443 247.209 374.966 264.089 385.84 261.175Z" fill="#3777FF" />
            <g style="mix-blend-mode:color-dodge">
                <path d="M-10.5135 169.153C0.342795 166.244 -4.16233 149.36 -15.0364 152.273C-25.9104 155.187 -21.3875 172.067 -10.5135 169.153Z" fill="#24E7FC" />
            </g>
            <g style="mix-blend-mode:overlay" opacity="0.6">
                <path d="M1065.29 946.378C1381.94 771.291 1542.62 455.725 1424.19 241.541C1305.76 27.3581 953.059 -4.33548 636.412 170.752C319.765 345.839 159.078 661.405 277.509 875.589C395.94 1089.77 748.64 1121.47 1065.29 946.378Z" stroke="#55FFFC" stroke-width="1.05" stroke-miterlimit="10" />
            </g>
        </g>
        <g style="mix-blend-mode:color-dodge">
            <path d="M559.754 125.597C565.319 124.106 563.012 115.46 557.438 116.954C551.864 118.447 554.18 127.091 559.754 125.597Z" fill="#054AF0" />
        </g>
        <path d="M690.678 266.063C701.535 263.154 697.03 246.27 686.156 249.183C675.281 252.097 679.804 268.977 690.678 266.063Z" fill="#0677FF" />
        <path opacity="0.5" d="M1293.28 48.6664C1295.87 47.9746 1298.04 48.4602 1299.69 49.5926C1301.36 50.7328 1302.54 52.5505 1303.08 54.56C1303.62 56.5695 1303.5 58.7347 1302.63 60.557C1301.76 62.367 1300.12 63.8718 1297.54 64.5623C1294.96 65.2541 1292.79 64.7687 1291.13 63.6365C1289.46 62.4966 1288.28 60.6793 1287.74 58.6702C1287.2 56.6611 1287.32 54.4962 1288.2 52.6738C1289.07 50.8637 1290.7 49.3581 1293.28 48.6664Z" stroke="#05B2FF" />
        <g style="mix-blend-mode:overlay" opacity="0.5">
            <path d="M1195.76 779.01C1343.83 522.545 1273.79 204.898 1039.32 69.5268C804.848 -65.8446 494.738 32.3215 346.668 288.787C198.597 545.252 268.638 862.899 503.108 998.27C737.578 1133.64 1047.69 1035.48 1195.76 779.01Z" stroke="url(#paint1_linear_647_429)" stroke-miterlimit="10" />
        </g>
        <g style="mix-blend-mode:color-dodge" opacity="0.4">
            <path d="M1131.84 200.277C1141.11 197.791 1137.28 183.373 1127.98 185.867C1118.67 188.361 1122.54 202.767 1131.84 200.277Z" fill="#24E7FC" />
        </g>
        <path d="M683.876 30.8416C690.62 29.0346 687.821 18.5459 681.066 20.3559C674.311 22.1659 677.121 32.6516 683.876 30.8416Z" fill="#0561FF" />
        <path d="M683.876 30.8416C690.62 29.0346 687.821 18.5459 681.066 20.3559C674.311 22.1659 677.121 32.6516 683.876 30.8416Z" fill="#24E7FC" fill-opacity="0.5" />
        <path opacity="0.2" d="M219.901 195.405C234.365 191.529 228.373 169.025 213.874 172.91C199.375 176.795 205.403 199.289 219.901 195.405Z" fill="white" />
    </g>
    <defs>
        <linearGradient id="paint0_linear_647_429" x1="107.833" y1="-157.987" x2="902.787" y2="651.343" gradientUnits="userSpaceOnUse">
            <stop offset="0.24" stop-color="#00C2FF" />
            <stop offset="1" stop-color="#1B1464" stop-opacity="0" />
        </linearGradient>
        <linearGradient id="paint1_linear_647_429" x1="346.668" y1="288.787" x2="1195.76" y2="779.01" gradientUnits="userSpaceOnUse">
            <stop stop-color="#55FFFC" />
            <stop offset="1" stop-color="#55FFFC" stop-opacity="0" />
        </linearGradient>
        <clipPath id="clip0_647_429">
            <rect width="1440" height="264" fill="white" />
        </clipPath>
        <clipPath id="clip1_647_429">
            <rect width="2032.58" height="1732.58" fill="white" transform="translate(-506.762 -19.9307) rotate(-15)" />
        </clipPath>
    </defs>
</svg>
    