<svg width="608" height="544" viewBox="0 0 608 544" fill="none" xmlns="http://www.w3.org/2000/svg">
<g clip-path="url(#clip0_612_1101)">
<path d="M476.609 71.5971C455.522 49.7348 430.139 32.3727 402.023 20.5783C373.906 8.78397 343.648 2.80669 313.111 3.01402C282.512 2.67209 252.17 8.58698 223.988 20.3883C195.805 32.1896 170.387 49.6231 149.327 71.5971C127.207 92.563 109.676 117.804 97.8214 145.755C85.9671 173.706 80.0426 203.769 80.4155 234.08C80.4843 283.784 96.8637 332.12 127.088 371.813C157.669 413.646 201.957 443.692 252.408 456.834V541.004C448.452 475.255 546.316 372.947 545.997 234.08C546.146 203.759 540.072 173.723 528.145 145.793C516.217 117.863 498.685 92.6214 476.609 71.5971Z" fill="#F0F4FD"/>
<line x1="475" y1="171.337" x2="475" y2="57.3372" stroke="#0555FF" stroke-opacity="0.3" stroke-width="6" stroke-linecap="round" stroke-dasharray="0.2 25"/>
<line x1="506.963" y1="171" x2="506.963" y2="56.9998" stroke="#0555FF" stroke-opacity="0.3" stroke-width="6" stroke-linecap="round" stroke-dasharray="0.2 25"/>
<line x1="570.89" y1="171" x2="570.89" y2="56.9998" stroke="#0555FF" stroke-opacity="0.3" stroke-width="6" stroke-linecap="round" stroke-dasharray="0.2 25"/>
<line x1="602.853" y1="171" x2="602.853" y2="56.9998" stroke="#0555FF" stroke-opacity="0.3" stroke-width="6" stroke-linecap="round" stroke-dasharray="0.2 25"/>
<line x1="538.927" y1="171" x2="538.927" y2="56.9998" stroke="#0555FF" stroke-opacity="0.3" stroke-width="6" stroke-linecap="round" stroke-dasharray="0.2 25"/>
<line x1="181" y1="417" x2="304.85" y2="417" stroke="#0DE592" stroke-opacity="0.4" stroke-width="6" stroke-linecap="round" stroke-dasharray="0.2 25"/>
<line x1="181" y1="389" x2="304.851" y2="389" stroke="#0DE592" stroke-opacity="0.4" stroke-width="6" stroke-linecap="round" stroke-dasharray="0.2 25"/>
<line x1="181" y1="445" x2="304.85" y2="445" stroke="#0DE592" stroke-opacity="0.4" stroke-width="6" stroke-linecap="round" stroke-dasharray="0.2 25"/>
<line x1="181" y1="473" x2="304.85" y2="473" stroke="#0DE592" stroke-opacity="0.4" stroke-width="6" stroke-linecap="round" stroke-dasharray="0.2 25"/>
<line x1="181" y1="501" x2="304.85" y2="501" stroke="#0DE592" stroke-opacity="0.4" stroke-width="6" stroke-linecap="round" stroke-dasharray="0.2 25"/>
<g filter="url(#filter0_d_612_1101)">
<rect x="195" y="94" width="328" height="390" rx="16" fill="white"/>
<rect opacity="0.3" x="218" y="168" width="282" height="84" rx="10" fill="#E1EAFF"/>
<rect opacity="0.3" x="218" y="268" width="282" height="84" rx="10" fill="#E1EAFF"/>
<rect opacity="0.3" x="218" y="368" width="282" height="84" rx="10" fill="#E1EAFF"/>
<rect x="302" y="188" width="70" height="16" rx="8" fill="#ECF1FD"/>
<rect x="302" y="288" width="70" height="16" rx="8" fill="#ECF1FD"/>
<rect x="302" y="388" width="70" height="16" rx="8" fill="#ECF1FD"/>
<rect x="302" y="216" width="175" height="16" rx="8" fill="#ECF1FD"/>
<rect x="302" y="316" width="175" height="16" rx="8" fill="#ECF1FD"/>
<rect x="302" y="416" width="175" height="16" rx="8" fill="#ECF1FD"/>
<circle cx="262" cy="210" r="24" fill="#ECF1FD"/>
<circle cx="262" cy="310" r="24" fill="#ECF1FD"/>
<circle cx="262" cy="410" r="24" fill="#ECF1FD"/>
<rect x="195.5" y="94.5" width="327" height="389" rx="15.5" stroke="#F2F6FF"/>
</g>
<g filter="url(#filter1_d_612_1101)">
<rect x="235" y="46" width="248" height="96" rx="16" fill="url(#paint0_radial_612_1101)"/>
</g>
<path d="M364.005 86.7019L371.545 93.0084L364.005 99.315L364.005 98.5431L364.005 95.0431L360.505 95.0431L344.5 95.0431L344.5 90.9737L360.505 90.9737L364.005 90.9737L364.005 87.4737L364.005 86.7019Z" stroke="url(#paint1_linear_612_1101)" stroke-width="7"/>
<path d="M451 94C451 108.912 438.912 121 424 121C409.088 121 397 108.912 397 94C397 79.0883 409.088 67 424 67C438.912 67 451 79.0883 451 94ZM401.59 94C401.59 106.377 411.623 116.41 424 116.41C436.377 116.41 446.41 106.377 446.41 94C446.41 81.6233 436.377 71.59 424 71.59C411.623 71.59 401.59 81.6233 401.59 94Z" fill="url(#paint2_linear_612_1101)"/>
<path fill-rule="evenodd" clip-rule="evenodd" d="M419.846 104L419.861 104L419.875 104C420.509 103.997 421.116 103.745 421.567 103.298L436.269 90.1906L436.286 90.1743C436.512 89.948 436.692 89.6788 436.814 89.3823C436.937 89.0858 437 88.7677 437 88.4465C437 88.1253 436.937 87.8073 436.814 87.5107C436.692 87.2161 436.514 86.9485 436.29 86.7232C436.068 86.4949 435.802 86.3135 435.51 86.1893C435.215 86.0644 434.899 86 434.579 86C434.259 86 433.943 86.0644 433.648 86.1893C433.364 86.3098 433.106 86.4841 432.888 86.7028L419.909 98.1381L415.13 93.298C414.905 93.0703 414.638 92.8896 414.343 92.7663C414.049 92.6429 413.733 92.5794 413.414 92.5794C413.095 92.5794 412.779 92.6429 412.485 92.7663C412.191 92.8896 411.923 93.0704 411.698 93.2982L411.694 93.3025L411.69 93.3068C411.247 93.7688 411 94.3857 411 95.0276C411 95.6696 411.247 96.2865 411.69 96.7485L411.696 96.7545L418.209 103.277C418.642 103.722 419.228 103.98 419.846 104Z" fill="url(#paint3_linear_612_1101)"/>
<path d="M275.126 77.0338C274.969 76.8753 274.845 76.6873 274.761 76.4806C274.677 76.2738 274.635 76.0525 274.637 75.8294C274.64 75.6083 274.687 75.3899 274.774 75.1868C274.862 74.9837 274.989 74.7999 275.147 74.6459C280.219 69.7157 286.914 67 294 67C300.736 67 307.187 69.4862 312.166 74.0007C312.33 74.149 312.463 74.3284 312.557 74.5284C312.652 74.7283 312.706 74.945 312.716 75.1659C312.726 75.3868 312.693 75.6077 312.618 75.8157C312.543 76.0237 312.427 76.2148 312.278 76.378C311.649 77.0649 310.583 77.1148 309.893 76.4896C305.538 72.5408 299.893 70.3651 294 70.3651C287.799 70.3651 281.942 72.7411 277.504 77.0548C277.189 77.3621 276.766 77.5338 276.326 77.5331C276.103 77.5333 275.882 77.4892 275.676 77.4035C275.47 77.3178 275.283 77.1921 275.126 77.0338ZM267.071 95.8729C267.024 95.2192 267 94.564 267 93.9086C266.997 88.9812 268.353 84.1482 270.918 79.9411C271.405 79.1475 272.441 78.896 273.237 79.3782C273.427 79.4926 273.591 79.6432 273.722 79.8214C273.853 79.9997 273.948 80.202 274 80.4168C274.053 80.6316 274.062 80.8547 274.028 81.0732C273.994 81.2917 273.918 81.5014 273.803 81.6902C271.559 85.3705 270.374 89.5983 270.377 93.9086C270.377 94.4802 270.398 95.0597 270.439 95.6322C270.455 95.8632 270.424 96.0952 270.346 96.3135C270.269 96.5319 270.147 96.7319 269.989 96.9011C269.831 97.0703 269.639 97.205 269.427 97.2969C269.214 97.3887 268.985 97.4357 268.753 97.4348C267.869 97.4356 267.135 96.7539 267.071 95.8729ZM317.724 102.88C317.512 102.816 317.315 102.711 317.144 102.571C316.973 102.431 316.831 102.258 316.727 102.063C316.623 101.868 316.558 101.654 316.536 101.434C316.515 101.214 316.537 100.992 316.601 100.78C317.281 98.553 317.625 96.2371 317.623 93.9086C317.623 89.2453 316.257 84.7381 313.676 80.8744C313.553 80.6906 313.467 80.4843 313.424 80.2673C313.382 80.0504 313.382 79.8272 313.425 79.6104C313.469 79.3936 313.555 79.1875 313.678 79.004C313.802 78.8205 313.96 78.6632 314.145 78.5412C314.921 78.026 315.968 78.2352 316.486 79.0092C319.438 83.4268 321 88.5784 321 93.9077C321.002 96.5687 320.608 99.2152 319.831 101.76C319.725 102.106 319.511 102.408 319.22 102.622C318.93 102.837 318.578 102.953 318.217 102.953C318.05 102.953 317.884 102.929 317.724 102.88H317.724ZM279.9 98.8231C279.625 98.5835 279.436 98.2612 279.36 97.9046C279.285 97.5481 279.327 97.1766 279.481 96.8463C279.583 96.3634 279.723 94.792 279.723 93.8582C279.754 86.0373 286.158 79.6796 294 79.6796C295.384 79.6796 296.752 79.8772 298.066 80.266C298.278 80.3284 298.476 80.432 298.648 80.5709C298.82 80.7098 298.963 80.8813 299.069 81.0756C299.175 81.2699 299.241 81.4831 299.264 81.7031C299.287 81.9231 299.267 82.1455 299.204 82.3576C298.937 83.2496 297.998 83.757 297.105 83.4921C296.097 83.1944 295.051 83.0438 294 83.0451C288.013 83.0451 283.123 87.8984 283.1 93.8645C283.1 95.0232 283.02 97.8245 282.283 98.6651C282.124 98.846 281.929 98.9908 281.709 99.0898C281.49 99.1888 281.252 99.2398 281.012 99.2393C280.603 99.2398 280.208 99.0919 279.9 98.8231ZM298.855 119.966C298.666 119.851 298.501 119.701 298.371 119.522C298.24 119.344 298.146 119.141 298.093 118.926C298.041 118.711 298.032 118.488 298.066 118.27C298.101 118.051 298.178 117.841 298.293 117.653C300.272 114.423 301.848 110.988 302.98 107.443C303.001 107.377 305.052 100.88 304.9 93.9451C304.872 92.6837 304.721 91.6758 304.41 90.6781C303.971 89.2694 303.248 87.9659 302.284 86.8486C302.14 86.681 302.03 86.4865 301.961 86.2763C301.893 86.0662 301.866 85.8445 301.883 85.6241C301.9 85.4036 301.961 85.1887 302.061 84.9917C302.162 84.7947 302.3 84.6195 302.469 84.4762C303.177 83.8719 304.241 83.954 304.849 84.6598C306.112 86.1243 307.06 87.8326 307.635 89.6787C308.044 90.989 308.242 92.2819 308.276 93.8722C308.44 101.387 306.288 108.181 306.196 108.466C304.984 112.265 303.295 115.946 301.175 119.406C301.024 119.653 300.812 119.857 300.56 119.998C300.307 120.139 300.022 120.213 299.733 120.212C299.423 120.212 299.12 120.127 298.856 119.966H298.855ZM269.894 106.056C269.72 105.92 269.575 105.75 269.467 105.557C269.36 105.363 269.291 105.151 269.265 104.931C269.24 104.712 269.258 104.489 269.319 104.276C269.38 104.064 269.482 103.865 269.619 103.692C272.688 99.8342 273.332 96.1793 273.332 93.7925C273.381 85.4918 278.377 78.074 286.058 74.8853C286.918 74.5282 287.905 74.9335 288.266 75.7921C288.351 75.9962 288.395 76.2152 288.395 76.4364C288.396 76.6576 288.353 76.8767 288.268 77.0811C288.184 77.2856 288.06 77.4713 287.903 77.6278C287.747 77.7842 287.561 77.9082 287.357 77.9926C280.93 80.6597 276.75 86.8657 276.709 93.8029C276.709 96.7144 275.937 101.165 272.266 105.782C272.107 105.982 271.906 106.142 271.677 106.253C271.447 106.363 271.196 106.42 270.942 106.42C270.561 106.421 270.192 106.292 269.894 106.056ZM308.264 115.464C308.07 115.358 307.899 115.214 307.761 115.041C307.623 114.868 307.52 114.67 307.459 114.458C307.398 114.245 307.379 114.022 307.404 113.803C307.429 113.583 307.497 113.37 307.604 113.177C310.051 108.769 311.292 102.285 311.292 93.9077C311.292 93.6864 311.336 93.4673 311.421 93.2629C311.507 93.0586 311.631 92.873 311.788 92.7167C311.945 92.5605 312.131 92.4366 312.335 92.3523C312.54 92.268 312.759 92.2248 312.981 92.2252C313.202 92.2248 313.421 92.2681 313.626 92.3524C313.83 92.4368 314.016 92.5606 314.173 92.7169C314.33 92.8731 314.454 93.0587 314.539 93.263C314.624 93.4673 314.668 93.6864 314.668 93.9077C314.668 102.862 313.286 109.893 310.558 114.806C310.412 115.07 310.197 115.289 309.937 115.442C309.678 115.595 309.381 115.675 309.08 115.675C308.794 115.675 308.514 115.602 308.264 115.464ZM310.311 88.1716C307.876 81.2961 301.322 76.675 294 76.675C293.66 76.675 293.321 76.6853 292.985 76.7043C292.056 76.7585 291.259 76.0494 291.204 75.1202C291.192 74.8993 291.223 74.678 291.296 74.4691C291.369 74.2602 291.483 74.0678 291.631 73.9029C291.778 73.738 291.957 73.6038 292.157 73.508C292.356 73.4122 292.573 73.3567 292.794 73.3446C302.008 72.8189 310.452 78.4575 313.495 87.0515C313.569 87.2602 313.601 87.4812 313.589 87.7021C313.577 87.923 313.521 88.1394 313.426 88.3389C313.33 88.5383 313.196 88.7169 313.031 88.8644C312.866 89.0119 312.674 89.1255 312.465 89.1985C312.285 89.2625 312.095 89.2952 311.903 89.2952C311.554 89.2953 311.214 89.1874 310.929 88.9862C310.643 88.785 310.428 88.5004 310.311 88.1716ZM273.09 111.13C272.953 110.956 272.852 110.757 272.793 110.544C272.733 110.331 272.717 110.108 272.743 109.889C272.77 109.669 272.84 109.457 272.949 109.265C273.058 109.072 273.204 108.903 273.379 108.768C275.612 107.025 276.528 104.82 277.265 103.049C277.624 102.189 278.61 101.782 279.47 102.138C279.675 102.222 279.861 102.346 280.018 102.502C280.175 102.658 280.299 102.844 280.384 103.048C280.469 103.252 280.513 103.471 280.513 103.692C280.513 103.914 280.469 104.133 280.384 104.337C279.591 106.245 278.392 109.129 275.46 111.418C275.163 111.65 274.797 111.776 274.421 111.775C274.164 111.776 273.911 111.718 273.681 111.606C273.45 111.494 273.248 111.332 273.09 111.13L273.09 111.13ZM291.664 121C291.283 121 290.912 120.871 290.614 120.634C290.44 120.496 290.296 120.326 290.188 120.133C290.081 119.94 290.013 119.727 289.988 119.507C289.963 119.288 289.981 119.065 290.043 118.853C290.104 118.64 290.207 118.442 290.345 118.269C291.687 116.589 293.625 113.846 295.234 110.33C296.743 107.031 297.725 103.683 298.234 100.093C298.265 99.8732 298.339 99.6623 298.452 99.4716C298.565 99.281 298.714 99.1145 298.891 98.9816C299.069 98.8488 299.27 98.7522 299.485 98.6973C299.699 98.6425 299.923 98.6305 300.142 98.662C300.361 98.6924 300.572 98.7657 300.763 98.8778C300.954 98.9898 301.121 99.1384 301.254 99.3151C301.388 99.4917 301.485 99.6929 301.54 99.9072C301.596 100.121 301.608 100.345 301.578 100.564C301.022 104.478 299.952 108.129 298.306 111.725C296.556 115.554 294.447 118.537 292.986 120.365C292.828 120.564 292.627 120.724 292.398 120.834C292.169 120.944 291.918 121 291.664 121ZM282.973 117.782C282.965 117.562 283 117.341 283.077 117.134C283.154 116.927 283.271 116.737 283.422 116.575C286.504 113.257 290.46 107.733 291.802 100.265C292.175 98.1803 292.328 96.062 292.259 93.9451C292.252 93.7238 292.289 93.5034 292.367 93.2963C292.446 93.0893 292.564 92.8998 292.716 92.7385C292.868 92.5773 293.05 92.4475 293.251 92.3567C293.453 92.2658 293.671 92.2157 293.892 92.209C294.82 92.1739 295.604 92.9083 295.634 93.8367C295.71 96.1886 295.54 98.5421 295.125 100.858C293.95 107.404 290.76 113.629 285.899 118.861C285.741 119.032 285.549 119.168 285.336 119.26C285.123 119.353 284.892 119.401 284.66 119.4C283.754 119.402 283.009 118.687 282.973 117.782ZM278.733 116.252C278.289 116.252 277.862 116.077 277.545 115.765C277.388 115.61 277.263 115.425 277.177 115.221C277.091 115.018 277.046 114.799 277.045 114.578C277.044 114.357 277.086 114.137 277.17 113.933C277.254 113.728 277.378 113.542 277.534 113.386C279.966 110.936 283.397 107.032 285.091 101.447C285.908 98.7538 285.95 96.3562 285.988 94.2421L285.995 93.8763C285.994 89.5085 289.586 85.9292 294 85.9292C298.414 85.9292 302.005 89.5085 302.005 93.9077C302.005 94.129 301.961 94.3481 301.876 94.5525C301.791 94.7568 301.667 94.9425 301.51 95.0987C301.354 95.255 301.168 95.3789 300.963 95.4633C300.759 95.5478 300.539 95.5911 300.318 95.5908C300.097 95.5912 299.877 95.5481 299.672 95.4637C299.468 95.3794 299.282 95.2555 299.125 95.0992C298.968 94.9429 298.843 94.7572 298.758 94.5528C298.673 94.3483 298.629 94.1292 298.629 93.9077C298.629 91.3644 296.552 89.2952 294 89.2952C291.447 89.2952 289.371 91.3644 289.371 93.9077L289.364 94.3006C289.324 96.5191 289.276 99.2798 288.324 102.42C286.411 108.723 282.62 113.047 279.933 115.753C279.776 115.911 279.589 116.037 279.383 116.122C279.177 116.208 278.956 116.252 278.733 116.252V116.252Z" fill="url(#paint4_linear_612_1101)"/>
<path d="M174.5 281C174.5 280.724 174.276 280.5 174 280.5C173.724 280.5 173.5 280.724 173.5 281L174.5 281ZM148 412.5C147.724 412.5 147.5 412.724 147.5 413C147.5 413.276 147.724 413.5 148 413.5L148 412.5ZM149.076 413.399C149.347 413.348 149.525 413.086 149.474 412.815C149.423 412.543 149.162 412.365 148.89 412.416L149.076 413.399ZM151.372 411.294C151.147 411.455 151.095 411.767 151.256 411.992C151.417 412.216 151.729 412.268 151.954 412.107L151.372 411.294ZM153.52 410.747C153.713 410.55 153.71 410.233 153.512 410.04C153.315 409.847 152.998 409.851 152.805 410.048L153.52 410.747ZM154.619 407.833C154.46 408.059 154.515 408.371 154.74 408.53C154.966 408.689 155.278 408.635 155.437 408.409L154.619 407.833ZM156.535 406.716C156.677 406.479 156.6 406.172 156.364 406.03C156.127 405.887 155.82 405.964 155.678 406.201L156.535 406.716ZM157.079 403.634C156.956 403.881 157.056 404.182 157.303 404.305C157.55 404.429 157.85 404.328 157.974 404.081L157.079 403.634ZM158.835 402.268C158.949 402.016 158.837 401.72 158.585 401.606C158.334 401.493 158.038 401.604 157.924 401.856L158.835 402.268ZM159.071 399.144C158.969 399.401 159.095 399.692 159.351 399.794C159.608 399.896 159.898 399.77 160 399.514L159.071 399.144ZM160.714 397.647C160.81 397.387 160.677 397.1 160.418 397.005C160.159 396.909 159.871 397.042 159.776 397.301L160.714 397.647ZM160.748 394.522C160.661 394.784 160.803 395.067 161.065 395.154C161.327 395.241 161.61 395.099 161.697 394.837L160.748 394.522ZM162.306 392.949C162.389 392.686 162.242 392.405 161.978 392.323C161.715 392.24 161.434 392.387 161.352 392.651L162.306 392.949ZM162.204 389.808C162.128 390.073 162.281 390.35 162.546 390.427C162.812 390.503 163.089 390.35 163.165 390.084L162.204 389.808ZM163.697 388.183C163.77 387.917 163.612 387.642 163.346 387.569C163.08 387.497 162.805 387.654 162.732 387.92L163.697 388.183ZM163.483 385.06C163.415 385.327 163.577 385.599 163.845 385.667C164.113 385.735 164.385 385.572 164.452 385.305L163.483 385.06ZM164.932 383.362C164.996 383.093 164.831 382.823 164.563 382.758C164.294 382.694 164.024 382.859 163.96 383.127L164.932 383.362ZM164.627 380.259C164.567 380.529 164.736 380.796 165.005 380.857C165.275 380.918 165.542 380.748 165.603 380.479L164.627 380.259ZM166.033 378.524C166.091 378.254 165.92 377.988 165.65 377.93C165.38 377.872 165.114 378.043 165.056 378.313L166.033 378.524ZM165.658 375.427C165.603 375.698 165.778 375.962 166.049 376.016C166.319 376.071 166.583 375.896 166.638 375.625L165.658 375.427ZM167.024 373.675C167.076 373.403 166.899 373.141 166.628 373.089C166.357 373.036 166.095 373.213 166.042 373.484L167.024 373.675ZM166.589 370.574C166.54 370.846 166.72 371.106 166.991 371.156C167.263 371.206 167.524 371.025 167.573 370.754L166.589 370.574ZM167.922 368.804C167.969 368.532 167.788 368.272 167.516 368.225C167.244 368.177 166.984 368.359 166.937 368.631L167.922 368.804ZM167.434 365.707C167.389 365.979 167.574 366.237 167.846 366.282C168.119 366.327 168.376 366.142 168.421 365.87L167.434 365.707ZM168.738 363.917C168.781 363.644 168.595 363.388 168.322 363.344C168.05 363.301 167.793 363.487 167.75 363.76L168.738 363.917ZM168.203 360.828C168.162 361.101 168.35 361.356 168.623 361.397C168.896 361.438 169.151 361.25 169.192 360.976L168.203 360.828ZM169.48 359.017C169.52 358.744 169.33 358.49 169.057 358.451C168.783 358.411 168.53 358.601 168.49 358.874L169.48 359.017ZM168.902 355.94C168.865 356.214 169.056 356.466 169.33 356.503C169.603 356.54 169.855 356.349 169.893 356.075L168.902 355.94ZM170.156 354.106C170.192 353.832 169.999 353.581 169.725 353.545C169.451 353.51 169.2 353.702 169.164 353.976L170.156 354.106ZM169.538 351.043C169.504 351.317 169.699 351.567 169.973 351.601C170.247 351.635 170.497 351.44 170.53 351.166L169.538 351.043ZM170.771 349.186C170.803 348.912 170.607 348.663 170.333 348.63C170.059 348.598 169.81 348.794 169.778 349.068L170.771 349.186ZM170.116 346.138C170.085 346.412 170.283 346.66 170.557 346.69C170.832 346.721 171.079 346.524 171.11 346.249L170.116 346.138ZM171.328 344.265C171.357 343.99 171.159 343.744 170.884 343.714C170.61 343.685 170.363 343.883 170.333 344.158L171.328 344.265ZM170.64 341.224C170.612 341.499 170.812 341.744 171.087 341.772C171.362 341.8 171.607 341.6 171.635 341.325L170.64 341.224ZM171.831 339.346C171.858 339.071 171.657 338.827 171.382 338.8C171.107 338.774 170.862 338.975 170.836 339.25L171.831 339.346ZM171.113 336.302C171.088 336.577 171.291 336.82 171.566 336.845C171.841 336.87 172.084 336.668 172.109 336.393L171.113 336.302ZM172.285 334.42C172.309 334.145 172.105 333.903 171.83 333.879C171.555 333.855 171.312 334.058 171.288 334.333L172.285 334.42ZM171.538 331.372C171.516 331.647 171.721 331.889 171.996 331.911C172.271 331.933 172.512 331.728 172.535 331.453L171.538 331.372ZM172.691 329.487C172.713 329.212 172.507 328.971 172.232 328.95C171.956 328.928 171.716 329.134 171.694 329.409L172.691 329.487ZM171.917 326.436C171.898 326.712 172.105 326.951 172.38 326.971C172.655 326.991 172.895 326.784 172.915 326.508L171.917 326.436ZM173.053 324.546C173.072 324.27 172.864 324.032 172.589 324.013C172.313 323.994 172.074 324.202 172.056 324.477L173.053 324.546ZM172.251 321.515C172.234 321.791 172.443 322.028 172.719 322.046C172.994 322.063 173.232 321.854 173.249 321.578L172.251 321.515ZM173.372 319.597C173.388 319.322 173.178 319.085 172.903 319.068C172.627 319.052 172.39 319.262 172.374 319.537L173.372 319.597ZM172.543 316.585C172.528 316.861 172.74 317.097 173.015 317.112C173.291 317.127 173.527 316.916 173.542 316.64L172.543 316.585ZM173.648 314.654C173.662 314.378 173.45 314.143 173.175 314.128C172.899 314.114 172.664 314.326 172.649 314.602L173.648 314.654ZM172.795 311.648C172.782 311.924 172.995 312.158 173.271 312.171C173.547 312.184 173.781 311.971 173.794 311.695L172.795 311.648ZM173.884 309.716C173.896 309.44 173.682 309.206 173.406 309.194C173.13 309.182 172.897 309.396 172.884 309.672L173.884 309.716ZM173.007 306.703C172.996 306.979 173.211 307.211 173.487 307.222C173.763 307.233 173.996 307.018 174.006 306.742L173.007 306.703ZM174.08 304.77C174.09 304.494 173.874 304.262 173.598 304.252C173.322 304.242 173.09 304.458 173.081 304.734L174.08 304.77ZM173.18 301.762C173.171 302.038 173.388 302.268 173.664 302.277C173.94 302.286 174.171 302.069 174.18 301.793L173.18 301.762ZM174.238 299.817C174.246 299.541 174.028 299.311 173.752 299.303C173.476 299.295 173.246 299.512 173.238 299.789L174.238 299.817ZM173.315 296.827C173.308 297.103 173.527 297.332 173.803 297.339C174.079 297.345 174.308 297.127 174.315 296.851L173.315 296.827ZM174.358 294.862C174.364 294.586 174.145 294.358 173.869 294.352C173.593 294.346 173.364 294.566 173.359 294.842L174.358 294.862ZM173.413 291.885C173.408 292.161 173.629 292.389 173.905 292.393C174.181 292.397 174.408 292.177 174.413 291.901L173.413 291.885ZM174.442 289.92C174.445 289.644 174.224 289.417 173.948 289.414C173.672 289.41 173.445 289.631 173.442 289.907L174.442 289.92ZM173.474 286.936C173.472 287.212 173.694 287.438 173.97 287.441C174.246 287.443 174.472 287.221 174.474 286.945L173.474 286.936ZM174.488 284.97C174.49 284.694 174.268 284.469 173.991 284.468C173.715 284.466 173.49 284.689 173.488 284.965L174.488 284.97ZM173.499 281.994C173.499 282.27 173.722 282.494 173.999 282.495C174.275 282.495 174.499 282.271 174.499 281.995L173.499 281.994ZM148 413.5C148.361 413.5 148.719 413.466 149.076 413.399L148.89 412.416C148.594 412.472 148.297 412.5 148 412.5L148 413.5ZM151.954 412.107C152.486 411.726 153.008 411.272 153.52 410.747L152.805 410.048C152.327 410.537 151.849 410.952 151.372 411.294L151.954 412.107ZM155.437 408.409C155.807 407.882 156.173 407.317 156.535 406.716L155.678 406.201C155.327 406.784 154.974 407.328 154.619 407.833L155.437 408.409ZM157.974 404.081C158.264 403.502 158.551 402.897 158.835 402.268L157.924 401.856C157.645 402.474 157.363 403.067 157.079 403.634L157.974 404.081ZM160 399.514C160.241 398.909 160.478 398.287 160.714 397.647L159.776 397.301C159.543 397.933 159.308 398.548 159.071 399.144L160 399.514ZM161.697 394.837C161.902 394.222 162.105 393.592 162.306 392.949L161.352 392.651C161.152 393.288 160.951 393.912 160.748 394.522L161.697 394.837ZM163.165 390.084C163.344 389.461 163.521 388.827 163.697 388.183L162.732 387.92C162.558 388.56 162.382 389.19 162.204 389.808L163.165 390.084ZM164.452 385.305C164.614 384.666 164.773 384.019 164.932 383.362L163.96 383.127C163.802 383.781 163.643 384.425 163.483 385.06L164.452 385.305ZM165.603 380.479C165.748 379.835 165.891 379.183 166.033 378.524L165.056 378.313C164.914 378.97 164.772 379.619 164.627 380.259L165.603 380.479ZM166.638 375.625C166.768 374.982 166.897 374.332 167.024 373.675L166.042 373.484C165.915 374.139 165.787 374.786 165.658 375.427L166.638 375.625ZM167.573 370.754C167.691 370.11 167.807 369.46 167.922 368.804L166.937 368.631C166.822 369.285 166.706 369.932 166.589 370.574L167.573 370.754ZM168.421 365.87C168.528 365.224 168.633 364.573 168.738 363.917L167.75 363.76C167.646 364.414 167.541 365.063 167.434 365.707L168.421 365.87ZM169.192 360.976C169.289 360.328 169.385 359.675 169.48 359.017L168.49 358.874C168.396 359.53 168.3 360.181 168.203 360.828L169.192 360.976ZM169.893 356.075C169.982 355.423 170.069 354.767 170.156 354.106L169.164 353.976C169.078 354.635 168.991 355.29 168.902 355.94L169.893 356.075ZM170.53 351.166C170.612 350.51 170.692 349.85 170.771 349.186L169.778 349.068C169.699 349.73 169.619 350.388 169.538 351.043L170.53 351.166ZM171.11 346.249C171.183 345.591 171.256 344.93 171.328 344.265L170.333 344.158C170.262 344.821 170.19 345.481 170.116 346.138L171.11 346.249ZM171.635 341.325C171.701 340.668 171.767 340.009 171.831 339.346L170.836 339.25C170.771 339.911 170.706 340.569 170.64 341.224L171.635 341.325ZM172.109 336.393C172.169 335.738 172.227 335.081 172.285 334.42L171.288 334.333C171.231 334.993 171.173 335.649 171.113 336.302L172.109 336.393ZM172.535 331.453C172.588 330.8 172.64 330.145 172.691 329.487L171.694 329.409C171.643 330.066 171.591 330.72 171.538 331.372L172.535 331.453ZM172.915 326.508C172.962 325.856 173.008 325.202 173.053 324.546L172.056 324.477C172.01 325.132 171.964 325.785 171.917 326.436L172.915 326.508ZM173.249 321.578C173.291 320.92 173.332 320.26 173.372 319.597L172.374 319.537C172.334 320.199 172.293 320.858 172.251 321.515L173.249 321.578ZM173.542 316.64C173.578 315.98 173.614 315.318 173.648 314.654L172.649 314.602C172.615 315.265 172.58 315.926 172.543 316.585L173.542 316.64ZM173.794 311.695C173.825 311.037 173.855 310.377 173.884 309.716L172.884 309.672C172.856 310.333 172.826 310.991 172.795 311.648L173.794 311.695ZM174.006 306.742C174.032 306.086 174.056 305.429 174.08 304.77L173.081 304.734C173.057 305.392 173.032 306.048 173.007 306.703L174.006 306.742ZM174.18 301.793C174.2 301.136 174.219 300.477 174.238 299.817L173.238 299.789C173.22 300.448 173.2 301.106 173.18 301.762L174.18 301.793ZM174.315 296.851C174.33 296.189 174.345 295.527 174.358 294.862L173.359 294.842C173.345 295.505 173.33 296.167 173.315 296.827L174.315 296.851ZM174.413 291.901C174.423 291.242 174.433 290.582 174.442 289.92L173.442 289.907C173.433 290.568 173.423 291.227 173.413 291.885L174.413 291.901ZM174.474 286.945C174.48 286.288 174.485 285.63 174.488 284.97L173.488 284.965C173.485 285.623 173.48 286.28 173.474 286.936L174.474 286.945ZM174.499 281.995C174.5 281.664 174.5 281.332 174.5 281L173.5 281C173.5 281.332 173.5 281.663 173.499 281.994L174.499 281.995Z" fill="#869BB9"/>
<path d="M174.5 333C174.5 332.724 174.276 332.5 174 332.5C173.724 332.5 173.5 332.724 173.5 333L174.5 333ZM148 523.5C147.724 523.5 147.5 523.724 147.5 524C147.5 524.276 147.724 524.5 148 524.5L148 523.5ZM149.123 524.346C149.389 524.273 149.546 523.998 149.473 523.731C149.399 523.465 149.124 523.309 148.858 523.382L149.123 524.346ZM151.15 521.928C150.953 522.122 150.951 522.438 151.146 522.635C151.34 522.831 151.656 522.833 151.853 522.639L151.15 521.928ZM153.203 521.047C153.366 520.824 153.317 520.511 153.094 520.349C152.871 520.186 152.558 520.235 152.395 520.458L153.203 521.047ZM153.962 517.929C153.831 518.172 153.922 518.476 154.166 518.606C154.409 518.737 154.712 518.646 154.843 518.403L153.962 517.929ZM155.741 516.606C155.858 516.356 155.75 516.058 155.5 515.941C155.25 515.824 154.952 515.932 154.835 516.183L155.741 516.606ZM156.011 513.438C155.909 513.695 156.035 513.985 156.292 514.087C156.549 514.188 156.839 514.062 156.941 513.805L156.011 513.438ZM157.66 511.896C157.754 511.636 157.619 511.349 157.359 511.256C157.1 511.162 156.813 511.297 156.719 511.557L157.66 511.896ZM157.691 508.693C157.606 508.956 157.751 509.238 158.014 509.322C158.277 509.406 158.559 509.261 158.643 508.998L157.691 508.693ZM159.229 507.105C159.308 506.84 159.158 506.562 158.893 506.483C158.629 506.403 158.35 506.554 158.271 506.818L159.229 507.105ZM159.099 503.919C159.027 504.185 159.184 504.46 159.45 504.533C159.716 504.606 159.991 504.449 160.064 504.183L159.099 503.919ZM160.582 502.231C160.651 501.964 160.491 501.691 160.223 501.622C159.956 501.553 159.683 501.713 159.614 501.981L160.582 502.231ZM160.339 499.068C160.274 499.337 160.44 499.607 160.708 499.671C160.977 499.735 161.247 499.57 161.311 499.301L160.339 499.068ZM161.774 497.322C161.836 497.052 161.668 496.784 161.398 496.723C161.129 496.661 160.861 496.83 160.799 497.099L161.774 497.322ZM161.446 494.175C161.388 494.445 161.56 494.711 161.83 494.769C162.1 494.827 162.366 494.654 162.424 494.384L161.446 494.175ZM162.841 492.395C162.896 492.124 162.722 491.86 162.451 491.805C162.181 491.749 161.917 491.923 161.861 492.194L162.841 492.395ZM162.447 489.255C162.394 489.526 162.572 489.788 162.843 489.841C163.114 489.893 163.376 489.716 163.429 489.445L162.447 489.255ZM163.807 487.456C163.857 487.184 163.678 486.923 163.407 486.873C163.135 486.822 162.874 487.001 162.824 487.273L163.807 487.456ZM163.361 484.312C163.313 484.584 163.494 484.843 163.766 484.891C164.038 484.939 164.298 484.758 164.346 484.486L163.361 484.312ZM164.69 482.504C164.736 482.232 164.553 481.974 164.281 481.927C164.009 481.881 163.751 482.064 163.704 482.336L164.69 482.504ZM164.201 479.348C164.157 479.621 164.342 479.878 164.615 479.922C164.887 479.966 165.144 479.781 165.188 479.509L164.201 479.348ZM165.503 477.537C165.546 477.265 165.36 477.009 165.087 476.966C164.814 476.923 164.558 477.109 164.516 477.382L165.503 477.537ZM164.979 474.366C164.938 474.639 165.126 474.893 165.399 474.934C165.672 474.975 165.927 474.787 165.968 474.514L164.979 474.366ZM166.257 472.552C166.297 472.279 166.108 472.025 165.834 471.986C165.561 471.946 165.307 472.135 165.268 472.409L166.257 472.552ZM165.693 469.418C165.655 469.692 165.846 469.944 166.119 469.982C166.393 470.02 166.645 469.83 166.683 469.556L165.693 469.418ZM166.959 467.547C166.995 467.273 166.804 467.021 166.53 466.985C166.256 466.948 166.004 467.14 165.968 467.413L166.959 467.547ZM166.359 464.449C166.324 464.723 166.517 464.974 166.791 465.009C167.065 465.044 167.315 464.851 167.351 464.577L166.359 464.449ZM167.608 462.563C167.642 462.289 167.448 462.039 167.174 462.005C166.9 461.97 166.65 462.165 166.615 462.439L167.608 462.563ZM166.982 459.455C166.949 459.73 167.145 459.979 167.419 460.012C167.693 460.045 167.942 459.849 167.975 459.575L166.982 459.455ZM168.212 457.582C168.244 457.308 168.048 457.059 167.773 457.027C167.499 456.995 167.251 457.191 167.219 457.466L168.212 457.582ZM167.566 454.436C167.535 454.71 167.733 454.958 168.007 454.989C168.282 455.019 168.529 454.822 168.56 454.548L167.566 454.436ZM168.779 452.574C168.809 452.299 168.611 452.053 168.336 452.023C168.061 451.993 167.815 452.191 167.785 452.465L168.779 452.574ZM168.106 449.469C168.077 449.743 168.276 449.989 168.551 450.018C168.825 450.047 169.071 449.848 169.1 449.573L168.106 449.469ZM169.31 447.546C169.338 447.271 169.138 447.026 168.863 446.998C168.589 446.97 168.343 447.17 168.315 447.445L169.31 447.546ZM168.613 444.471C168.586 444.746 168.787 444.99 169.062 445.017C169.336 445.044 169.581 444.843 169.608 444.568L168.613 444.471ZM169.802 442.564C169.828 442.29 169.627 442.045 169.352 442.019C169.077 441.993 168.833 442.195 168.806 442.469L169.802 442.564ZM169.089 439.442C169.064 439.717 169.267 439.96 169.542 439.986C169.817 440.011 170.06 439.808 170.085 439.533L169.089 439.442ZM170.264 437.55C170.289 437.275 170.086 437.032 169.811 437.008C169.536 436.983 169.293 437.186 169.268 437.461L170.264 437.55ZM169.531 434.458C169.507 434.733 169.711 434.975 169.986 434.999C170.261 435.022 170.504 434.818 170.527 434.543L169.531 434.458ZM170.698 432.517C170.721 432.242 170.516 432 170.241 431.978C169.966 431.955 169.724 432.159 169.702 432.434L170.698 432.517ZM169.945 429.448C169.923 429.724 170.128 429.964 170.404 429.986C170.679 430.008 170.92 429.803 170.942 429.528L169.945 429.448ZM171.099 427.524C171.121 427.249 170.915 427.009 170.64 426.987C170.364 426.966 170.124 427.172 170.102 427.447L171.099 427.524ZM170.333 424.417C170.312 424.692 170.519 424.932 170.794 424.952C171.07 424.973 171.31 424.766 171.33 424.491L170.333 424.417ZM171.476 422.496C171.496 422.22 171.289 421.981 171.014 421.961C170.738 421.941 170.499 422.148 170.479 422.424L171.476 422.496ZM170.691 419.426C170.672 419.701 170.88 419.94 171.155 419.959C171.431 419.978 171.67 419.77 171.689 419.495L170.691 419.426ZM171.826 417.477C171.845 417.201 171.636 416.963 171.361 416.944C171.085 416.926 170.847 417.134 170.829 417.41L171.826 417.477ZM171.027 414.397C171.009 414.673 171.218 414.911 171.493 414.928C171.769 414.946 172.007 414.737 172.024 414.462L171.027 414.397ZM172.151 412.464C172.168 412.189 171.959 411.951 171.683 411.934C171.407 411.917 171.17 412.126 171.153 412.402L172.151 412.464ZM171.337 409.385C171.32 409.661 171.53 409.898 171.806 409.914C172.082 409.931 172.318 409.72 172.335 409.445L171.337 409.385ZM172.454 407.417C172.469 407.141 172.259 406.905 171.983 406.889C171.707 406.873 171.471 407.084 171.455 407.359L172.454 407.417ZM171.623 404.371C171.608 404.646 171.819 404.882 172.095 404.897C172.371 404.912 172.607 404.701 172.622 404.425L171.623 404.371ZM172.73 402.418C172.745 402.142 172.533 401.907 172.257 401.892C171.982 401.877 171.746 402.089 171.732 402.365L172.73 402.418ZM171.888 399.335C171.875 399.611 172.087 399.846 172.363 399.86C172.638 399.874 172.873 399.661 172.887 399.386L171.888 399.335ZM172.987 397.381C173 397.105 172.787 396.87 172.511 396.857C172.236 396.844 172.001 397.056 171.988 397.332L172.987 397.381ZM172.13 394.331C172.117 394.607 172.331 394.841 172.606 394.854C172.882 394.866 173.116 394.653 173.129 394.377L172.13 394.331ZM173.22 392.362C173.233 392.087 173.019 391.853 172.743 391.841C172.467 391.828 172.234 392.042 172.221 392.318L173.22 392.362ZM172.352 389.29C172.34 389.566 172.555 389.799 172.831 389.811C173.107 389.822 173.34 389.608 173.351 389.332L172.352 389.29ZM173.433 387.335C173.444 387.059 173.23 386.826 172.954 386.815C172.678 386.804 172.445 387.019 172.434 387.294L173.433 387.335ZM172.552 384.284C172.541 384.56 172.757 384.792 173.032 384.803C173.308 384.813 173.541 384.598 173.551 384.322L172.552 384.284ZM173.626 382.302C173.636 382.026 173.42 381.794 173.144 381.784C172.868 381.774 172.637 381.99 172.627 382.266L173.626 382.302ZM172.732 379.251C172.723 379.526 172.939 379.758 173.215 379.767C173.491 379.776 173.722 379.56 173.732 379.284L172.732 379.251ZM173.798 377.282C173.807 377.006 173.59 376.775 173.314 376.766C173.038 376.757 172.807 376.973 172.798 377.249L173.798 377.282ZM172.892 374.232C172.884 374.508 173.101 374.739 173.377 374.747C173.653 374.755 173.884 374.538 173.892 374.262L172.892 374.232ZM173.951 372.239C173.959 371.963 173.741 371.733 173.465 371.725C173.189 371.718 172.959 371.935 172.951 372.211L173.951 372.239ZM173.033 369.205C173.026 369.481 173.244 369.71 173.52 369.717C173.796 369.725 174.026 369.507 174.033 369.231L173.033 369.205ZM174.084 367.224C174.091 366.948 173.872 366.719 173.596 366.712C173.32 366.705 173.091 366.923 173.084 367.199L174.084 367.224ZM173.155 364.178C173.149 364.454 173.368 364.683 173.644 364.689C173.92 364.695 174.149 364.476 174.155 364.2L173.155 364.178ZM174.199 362.176C174.204 361.9 173.985 361.671 173.709 361.665C173.433 361.66 173.205 361.879 173.199 362.155L174.199 362.176ZM173.258 359.154C173.253 359.43 173.473 359.658 173.749 359.663C174.025 359.669 174.253 359.449 174.258 359.173L173.258 359.154ZM174.294 357.164C174.299 356.887 174.079 356.66 173.803 356.655C173.527 356.65 173.299 356.87 173.294 357.146L174.294 357.164ZM173.343 354.122C173.339 354.399 173.559 354.626 173.835 354.63C174.111 354.634 174.339 354.414 174.343 354.137L173.343 354.122ZM174.371 352.118C174.375 351.842 174.154 351.615 173.878 351.611C173.602 351.608 173.375 351.829 173.372 352.105L174.371 352.118ZM173.409 349.101C173.406 349.377 173.627 349.604 173.903 349.607C174.179 349.61 174.406 349.389 174.409 349.113L173.409 349.101ZM174.43 347.102C174.433 346.826 174.211 346.599 173.935 346.597C173.659 346.594 173.433 346.816 173.43 347.092L174.43 347.102ZM173.457 344.067C173.455 344.343 173.677 344.568 173.953 344.57C174.229 344.573 174.455 344.35 174.457 344.074L173.457 344.067ZM174.471 342.059C174.473 341.783 174.251 341.558 173.974 341.556C173.698 341.554 173.473 341.777 173.471 342.053L174.471 342.059ZM173.487 339.047C173.486 339.323 173.709 339.548 173.985 339.549C174.261 339.55 174.486 339.327 174.487 339.051L173.487 339.047ZM174.494 337.039C174.495 336.763 174.272 336.538 173.996 336.538C173.72 336.537 173.495 336.76 173.494 337.036L174.494 337.039ZM173.5 334.011C173.499 334.287 173.723 334.511 173.999 334.511C174.275 334.511 174.499 334.288 174.5 334.012L173.5 334.011ZM148 524.5C148.378 524.5 148.753 524.448 149.123 524.346L148.858 523.382C148.571 523.461 148.285 523.5 148 523.5L148 524.5ZM151.853 522.639C152.311 522.185 152.761 521.653 153.203 521.047L152.395 520.458C151.979 521.029 151.563 521.518 151.15 521.928L151.853 522.639ZM154.843 518.403C155.145 517.84 155.444 517.241 155.741 516.606L154.835 516.183C154.546 516.803 154.254 517.385 153.962 517.929L154.843 518.403ZM156.941 513.805C157.182 513.193 157.422 512.557 157.66 511.896L156.719 511.557C156.485 512.209 156.248 512.836 156.011 513.438L156.941 513.805ZM158.643 508.998C158.84 508.384 159.035 507.753 159.229 507.105L158.271 506.818C158.079 507.46 157.885 508.085 157.691 508.693L158.643 508.998ZM160.064 504.183C160.238 503.546 160.411 502.895 160.582 502.231L159.614 501.981C159.444 502.641 159.272 503.287 159.099 503.919L160.064 504.183ZM161.311 499.301C161.467 498.653 161.621 497.993 161.774 497.322L160.799 497.099C160.647 497.767 160.493 498.423 160.339 499.068L161.311 499.301ZM162.424 494.384C162.564 493.731 162.703 493.067 162.841 492.395L161.861 492.194C161.724 492.864 161.585 493.524 161.446 494.175L162.424 494.384ZM163.429 489.445C163.556 488.79 163.681 488.127 163.807 487.456L162.824 487.273C162.699 487.941 162.573 488.602 162.447 489.255L163.429 489.445ZM164.346 484.486C164.461 483.832 164.576 483.172 164.69 482.504L163.704 482.336C163.59 483.002 163.476 483.66 163.361 484.312L164.346 484.486ZM165.188 479.509C165.294 478.857 165.399 478.2 165.503 477.537L164.516 477.382C164.412 478.043 164.307 478.699 164.201 479.348L165.188 479.509ZM165.968 474.514C166.065 473.865 166.161 473.212 166.257 472.552L165.268 472.409C165.172 473.066 165.076 473.719 164.979 474.366L165.968 474.514ZM166.683 469.556C166.776 468.891 166.867 468.222 166.959 467.547L165.968 467.413C165.877 468.087 165.785 468.755 165.693 469.418L166.683 469.556ZM167.351 464.577C167.437 463.91 167.523 463.239 167.608 462.563L166.615 462.439C166.531 463.113 166.445 463.783 166.359 464.449L167.351 464.577ZM167.975 459.575C168.055 458.915 168.134 458.25 168.212 457.582L167.219 457.466C167.14 458.133 167.062 458.796 166.982 459.455L167.975 459.575ZM168.56 454.548C168.633 453.893 168.706 453.235 168.779 452.574L167.785 452.465C167.712 453.126 167.64 453.783 167.566 454.436L168.56 454.548ZM169.1 449.573C169.171 448.901 169.241 448.225 169.31 447.546L168.315 447.445C168.246 448.123 168.176 448.798 168.106 449.469L169.1 449.573ZM169.608 444.568C169.673 443.904 169.738 443.236 169.802 442.564L168.806 442.469C168.742 443.14 168.678 443.807 168.613 444.471L169.608 444.568ZM170.085 439.533C170.146 438.875 170.205 438.214 170.264 437.55L169.268 437.461C169.209 438.124 169.15 438.785 169.089 439.442L170.085 439.533ZM170.527 434.543C170.585 433.871 170.642 433.195 170.698 432.517L169.702 432.434C169.645 433.112 169.588 433.786 169.531 434.458L170.527 434.543ZM170.942 429.528C170.995 428.863 171.047 428.195 171.099 427.524L170.102 427.447C170.05 428.117 169.998 428.784 169.945 429.448L170.942 429.528ZM171.33 424.491C171.379 423.828 171.428 423.163 171.476 422.496L170.479 422.424C170.431 423.09 170.382 423.755 170.333 424.417L171.33 424.491ZM171.689 419.495C171.735 418.824 171.781 418.152 171.826 417.477L170.829 417.41C170.783 418.084 170.737 418.756 170.691 419.426L171.689 419.495ZM172.024 414.462C172.067 413.798 172.109 413.132 172.151 412.464L171.153 412.402C171.111 413.069 171.069 413.734 171.027 414.397L172.024 414.462ZM172.335 409.445C172.375 408.771 172.414 408.095 172.454 407.417L171.455 407.359C171.416 408.037 171.377 408.712 171.337 409.385L172.335 409.445ZM172.622 404.425C172.658 403.758 172.695 403.089 172.73 402.418L171.732 402.365C171.696 403.035 171.66 403.704 171.623 404.371L172.622 404.425ZM172.887 399.386C172.921 398.719 172.954 398.051 172.987 397.381L171.988 397.332C171.955 398.002 171.922 398.669 171.888 399.335L172.887 399.386ZM173.129 394.377C173.16 393.707 173.19 393.036 173.22 392.362L172.221 392.318C172.191 392.991 172.161 393.662 172.13 394.331L173.129 394.377ZM173.351 389.332C173.379 388.668 173.406 388.002 173.433 387.335L172.434 387.294C172.407 387.961 172.38 388.626 172.352 389.29L173.351 389.332ZM173.551 384.322C173.576 383.65 173.601 382.977 173.626 382.302L172.627 382.266C172.602 382.94 172.577 383.613 172.552 384.284L173.551 384.322ZM173.732 379.284C173.754 378.618 173.776 377.951 173.798 377.282L172.798 377.249C172.777 377.918 172.755 378.585 172.732 379.251L173.732 379.284ZM173.892 374.262C173.912 373.589 173.932 372.915 173.951 372.239L172.951 372.211C172.932 372.886 172.913 373.56 172.892 374.232L173.892 374.262ZM174.033 369.231C174.05 368.563 174.067 367.894 174.084 367.224L173.084 367.199C173.068 367.869 173.051 368.537 173.033 369.205L174.033 369.231ZM174.155 364.2C174.17 363.527 174.185 362.852 174.199 362.176L173.199 362.155C173.185 362.83 173.17 363.505 173.155 364.178L174.155 364.2ZM174.258 359.173C174.27 358.504 174.282 357.834 174.294 357.164L173.294 357.146C173.283 357.817 173.271 358.486 173.258 359.154L174.258 359.173ZM174.343 354.137C174.353 353.465 174.362 352.792 174.371 352.118L173.372 352.105C173.362 352.778 173.353 353.451 173.343 354.122L174.343 354.137ZM174.409 349.113C174.416 348.443 174.424 347.773 174.43 347.102L173.43 347.092C173.424 347.763 173.416 348.432 173.409 349.101L174.409 349.113ZM174.457 344.074C174.462 343.404 174.467 342.732 174.471 342.059L173.471 342.053C173.467 342.725 173.462 343.396 173.457 344.067L174.457 344.074ZM174.487 339.051C174.49 338.381 174.492 337.711 174.494 337.039L173.494 337.036C173.492 337.707 173.49 338.378 173.487 339.047L174.487 339.051ZM174.5 334.012C174.5 333.675 174.5 333.337 174.5 333L173.5 333C173.5 333.337 173.5 333.674 173.5 334.011L174.5 334.012Z" fill="url(#paint5_linear_612_1101)"/>
<path d="M148.982 300.48C149.258 300.469 149.473 300.236 149.462 299.96C149.45 299.684 149.218 299.47 148.942 299.481L148.982 300.48ZM151.746 299.195C151.473 299.24 151.289 299.497 151.333 299.769C151.378 300.042 151.635 300.226 151.908 300.181L151.746 299.195ZM153.829 299.784C154.097 299.717 154.26 299.446 154.193 299.178C154.126 298.91 153.855 298.747 153.587 298.814L153.829 299.784ZM156.276 297.965C156.018 298.064 155.889 298.353 155.988 298.611C156.087 298.869 156.376 298.998 156.634 298.899L156.276 297.965ZM158.435 298.125C158.684 298.006 158.79 297.708 158.671 297.459C158.552 297.209 158.254 297.104 158.004 297.223L158.435 298.125ZM160.477 295.861C160.243 296.008 160.172 296.316 160.319 296.55C160.466 296.784 160.775 296.854 161.009 296.707L160.477 295.861ZM162.627 295.604C162.849 295.44 162.896 295.127 162.732 294.905C162.568 294.683 162.255 294.635 162.033 294.799L162.627 295.604ZM164.212 292.999C164.009 293.186 163.996 293.502 164.183 293.705C164.37 293.908 164.687 293.921 164.89 293.734L164.212 292.999ZM166.28 292.359C166.469 292.158 166.46 291.841 166.259 291.652C166.058 291.463 165.742 291.472 165.552 291.673L166.28 292.359ZM167.385 289.516C167.217 289.736 167.258 290.05 167.478 290.217C167.697 290.385 168.011 290.344 168.179 290.124L167.385 289.516ZM169.315 288.533C169.467 288.303 169.405 287.993 169.175 287.84C168.945 287.687 168.635 287.749 168.482 287.979L169.315 288.533ZM169.932 285.547C169.802 285.791 169.895 286.094 170.139 286.223C170.382 286.353 170.685 286.261 170.815 286.017L169.932 285.547ZM171.677 284.265C171.791 284.013 171.679 283.717 171.428 283.603C171.176 283.489 170.88 283.601 170.766 283.852L171.677 284.265ZM171.812 281.218C171.722 281.479 171.861 281.764 172.122 281.853C172.383 281.943 172.668 281.804 172.758 281.543L171.812 281.218ZM173.335 279.678C173.409 279.411 173.252 279.136 172.986 279.062C172.72 278.989 172.445 279.145 172.371 279.411L173.335 279.678ZM173 276.646C172.951 276.918 173.131 277.178 173.403 277.227C173.675 277.276 173.935 277.095 173.984 276.823L173 276.646ZM174.271 274.895C174.304 274.621 174.108 274.372 173.833 274.339C173.559 274.307 173.311 274.503 173.278 274.777L174.271 274.895ZM173.486 271.948C173.478 272.224 173.695 272.454 173.971 272.462C174.247 272.47 174.478 272.253 174.486 271.977L173.486 271.948ZM148 300.5C148.329 300.5 148.656 300.493 148.982 300.48L148.942 299.481C148.629 299.494 148.315 299.5 148 299.5L148 300.5ZM151.908 300.181C152.556 300.075 153.197 299.942 153.829 299.784L153.587 298.814C152.981 298.965 152.367 299.092 151.746 299.195L151.908 300.181ZM156.634 298.899C157.245 298.665 157.846 298.407 158.435 298.125L158.004 297.223C157.438 297.493 156.862 297.741 156.276 297.965L156.634 298.899ZM161.009 296.707C161.561 296.361 162.1 295.992 162.627 295.604L162.033 294.799C161.526 295.173 161.007 295.527 160.477 295.861L161.009 296.707ZM164.89 293.734C165.368 293.294 165.831 292.835 166.28 292.359L165.552 291.673C165.12 292.132 164.673 292.574 164.212 292.999L164.89 293.734ZM168.179 290.124C168.573 289.609 168.952 289.078 169.315 288.533L168.482 287.979C168.132 288.506 167.766 289.019 167.385 289.516L168.179 290.124ZM170.815 286.017C171.119 285.445 171.407 284.861 171.677 284.265L170.766 283.852C170.505 284.429 170.227 284.994 169.932 285.547L170.815 286.017ZM172.758 281.543C172.968 280.931 173.161 280.309 173.335 279.678L172.371 279.411C172.202 280.023 172.016 280.625 171.812 281.218L172.758 281.543ZM173.984 276.823C174.098 276.188 174.194 275.545 174.271 274.895L173.278 274.777C173.203 275.407 173.11 276.03 173 276.646L173.984 276.823ZM174.486 271.977C174.495 271.653 174.5 271.327 174.5 271L173.5 271C173.5 271.317 173.495 271.633 173.486 271.948L174.486 271.977Z" fill="#869BB9"/>
<path d="M174.5 208C174.5 208.276 174.276 208.5 174 208.5C173.724 208.5 173.5 208.276 173.5 208L174.5 208ZM148 78.5C147.724 78.5 147.5 78.2761 147.5 78C147.5 77.7239 147.724 77.5 148 77.5L148 78.5ZM149.099 77.6042C149.37 77.6557 149.548 77.9174 149.496 78.1887C149.445 78.46 149.183 78.6381 148.912 78.5866L149.099 77.6042ZM151.452 79.7437C151.228 79.5822 151.177 79.2697 151.339 79.0457C151.5 78.8218 151.813 78.7711 152.037 78.9327L151.452 79.7437ZM153.632 80.3269C153.824 80.5251 153.82 80.8416 153.621 81.034C153.423 81.2263 153.107 81.2217 152.914 81.0235L153.632 80.3269ZM154.761 83.2942C154.603 83.0678 154.659 82.7561 154.885 82.598C155.111 82.4399 155.423 82.4952 155.581 82.7216L154.761 83.2942ZM156.696 84.4522C156.837 84.6893 156.76 84.9963 156.523 85.1378C156.286 85.2793 155.979 85.2018 155.837 84.9647L156.696 84.4522ZM157.266 87.5999C157.144 87.3526 157.245 87.0525 157.492 86.9298C157.739 86.807 158.04 86.9081 158.162 87.1554L157.266 87.5999ZM159.033 89.0019C159.146 89.2539 159.033 89.5498 158.781 89.6628C158.529 89.7758 158.233 89.6632 158.12 89.4112L159.033 89.0019ZM159.286 92.1877C159.185 91.9308 159.311 91.6404 159.568 91.5392C159.825 91.438 160.115 91.5642 160.216 91.8211L159.286 92.1877ZM160.945 93.7441C161.04 94.0035 160.907 94.2905 160.647 94.3852C160.388 94.4799 160.101 94.3464 160.006 94.087L160.945 93.7441ZM160.997 96.946C160.91 96.6837 161.053 96.4011 161.315 96.3147C161.578 96.2282 161.86 96.3708 161.947 96.6331L160.997 96.946ZM162.557 98.5434C162.639 98.8072 162.491 99.0873 162.227 99.169C161.964 99.2508 161.684 99.1032 161.602 98.8394L162.557 98.5434ZM162.462 101.739C162.387 101.473 162.541 101.197 162.806 101.121C163.072 101.046 163.348 101.2 163.424 101.466L162.462 101.739ZM163.97 103.441C164.042 103.708 163.884 103.982 163.618 104.054C163.351 104.125 163.077 103.968 163.005 103.701L163.97 103.441ZM163.76 106.615C163.693 106.347 163.856 106.075 164.124 106.008C164.392 105.942 164.663 106.105 164.73 106.372L163.76 106.615ZM165.212 108.35C165.276 108.618 165.11 108.888 164.841 108.952C164.573 109.016 164.303 108.85 164.239 108.581L165.212 108.35ZM164.919 111.54C164.859 111.27 165.029 111.003 165.298 110.943C165.568 110.884 165.835 111.054 165.895 111.323L164.919 111.54ZM166.321 113.289C166.379 113.559 166.206 113.825 165.936 113.882C165.666 113.94 165.4 113.767 165.343 113.497L166.321 113.289ZM165.956 116.48C165.902 116.21 166.078 115.946 166.349 115.893C166.619 115.839 166.883 116.015 166.936 116.286L165.956 116.48ZM167.32 118.258C167.372 118.529 167.194 118.791 166.922 118.843C166.651 118.894 166.389 118.716 166.338 118.445L167.32 118.258ZM166.89 121.435C166.841 121.163 167.022 120.903 167.294 120.855C167.566 120.806 167.826 120.987 167.874 121.259L166.89 121.435ZM168.223 123.245C168.269 123.518 168.087 123.776 167.814 123.823C167.542 123.87 167.284 123.687 167.237 123.415L168.223 123.245ZM167.736 126.411C167.692 126.138 167.878 125.882 168.15 125.838C168.423 125.793 168.68 125.979 168.724 126.251L167.736 126.411ZM169.04 128.247C169.082 128.519 168.895 128.775 168.623 128.817C168.35 128.86 168.094 128.673 168.052 128.4L169.04 128.247ZM168.504 131.403C168.464 131.13 168.654 130.876 168.927 130.836C169.2 130.796 169.454 130.985 169.494 131.258L168.504 131.403ZM169.781 133.258C169.819 133.532 169.629 133.784 169.355 133.823C169.082 133.861 168.829 133.671 168.79 133.397L169.781 133.258ZM169.201 136.407C169.165 136.134 169.357 135.882 169.631 135.846C169.905 135.81 170.156 136.002 170.193 136.276L169.201 136.407ZM170.452 138.278C170.487 138.552 170.293 138.802 170.019 138.837C169.745 138.872 169.495 138.678 169.46 138.404L170.452 138.278ZM169.833 141.423C169.8 141.149 169.996 140.9 170.27 140.867C170.544 140.834 170.793 141.03 170.826 141.304L169.833 141.423ZM171.06 143.306C171.092 143.58 170.895 143.828 170.621 143.86C170.346 143.891 170.098 143.694 170.067 143.42L171.06 143.306ZM170.404 146.448C170.374 146.173 170.573 145.927 170.847 145.897C171.122 145.868 171.368 146.066 171.398 146.341L170.404 146.448ZM171.609 148.341C171.638 148.616 171.438 148.862 171.163 148.89C170.889 148.918 170.643 148.719 170.615 148.444L171.609 148.341ZM170.918 151.476C170.891 151.201 171.093 150.957 171.367 150.93C171.642 150.904 171.887 151.105 171.913 151.38L170.918 151.476ZM172.103 153.383C172.129 153.658 171.926 153.902 171.651 153.927C171.376 153.953 171.133 153.751 171.107 153.476L172.103 153.383ZM171.378 156.501C171.354 156.226 171.558 155.984 171.833 155.96C172.108 155.936 172.351 156.14 172.375 156.415L171.378 156.501ZM172.545 158.432C172.568 158.708 172.363 158.949 172.088 158.972C171.813 158.994 171.571 158.79 171.548 158.515L172.545 158.432ZM171.788 161.533C171.767 161.258 171.973 161.017 172.249 160.996C172.524 160.975 172.764 161.181 172.785 161.456L171.788 161.533ZM172.937 163.488C172.957 163.763 172.75 164.003 172.475 164.023C172.199 164.043 171.96 163.836 171.94 163.561L172.937 163.488ZM172.151 166.572C172.132 166.296 172.341 166.058 172.616 166.039C172.892 166.021 173.13 166.229 173.148 166.504L172.151 166.572ZM173.281 168.534C173.299 168.81 173.09 169.047 172.814 169.065C172.538 169.082 172.301 168.873 172.283 168.597L173.281 168.534ZM172.467 171.617C172.451 171.341 172.662 171.105 172.937 171.089C173.213 171.073 173.449 171.283 173.465 171.559L172.467 171.617ZM173.58 173.582C173.595 173.858 173.384 174.093 173.108 174.108C172.832 174.124 172.596 173.912 172.581 173.637L173.58 173.582ZM172.739 176.669C172.726 176.393 172.938 176.158 173.214 176.145C173.49 176.131 173.724 176.344 173.738 176.619L172.739 176.669ZM173.835 178.636C173.847 178.912 173.634 179.146 173.358 179.159C173.082 179.172 172.848 178.958 172.836 178.682L173.835 178.636ZM172.968 181.725C172.957 181.449 173.171 181.216 173.447 181.205C173.723 181.194 173.956 181.408 173.967 181.684L172.968 181.725ZM174.047 183.697C174.057 183.973 173.842 184.205 173.566 184.216C173.29 184.226 173.058 184.011 173.048 183.735L174.047 183.697ZM173.155 186.767C173.146 186.491 173.362 186.26 173.638 186.251C173.914 186.242 174.145 186.458 174.154 186.734L173.155 186.767ZM174.218 188.763C174.226 189.039 174.009 189.27 173.733 189.278C173.457 189.286 173.226 189.069 173.218 188.793L174.218 188.763ZM173.3 191.816C173.293 191.54 173.512 191.311 173.788 191.304C174.064 191.297 174.293 191.515 174.3 191.791L173.3 191.816ZM174.347 193.822C174.353 194.098 174.134 194.327 173.858 194.333C173.582 194.339 173.353 194.12 173.348 193.844L174.347 193.822ZM173.406 196.871C173.401 196.595 173.621 196.368 173.897 196.363C174.174 196.358 174.401 196.578 174.406 196.854L173.406 196.871ZM174.437 198.878C174.441 199.155 174.22 199.381 173.944 199.385C173.668 199.389 173.441 199.168 173.437 198.892L174.437 198.878ZM173.472 201.931C173.47 201.655 173.691 201.429 173.968 201.427C174.244 201.424 174.47 201.646 174.472 201.922L173.472 201.931ZM174.488 203.941C174.489 204.217 174.267 204.442 173.991 204.444C173.715 204.445 173.489 204.223 173.488 203.947L174.488 203.941ZM173.499 206.984C173.499 206.708 173.722 206.483 173.998 206.483C174.275 206.483 174.499 206.706 174.499 206.982L173.499 206.984ZM148 77.5C148.368 77.5 148.735 77.535 149.099 77.6042L148.912 78.5866C148.609 78.5289 148.305 78.5 148 78.5L148 77.5ZM152.037 78.9327C152.579 79.3233 153.11 79.7896 153.632 80.3269L152.914 81.0235C152.427 80.5219 151.94 80.0954 151.452 79.7437L152.037 78.9327ZM155.581 82.7216C155.957 83.2599 156.329 83.8372 156.696 84.4522L155.837 84.9647C155.481 84.3681 155.122 83.811 154.761 83.2942L155.581 82.7216ZM158.162 87.1554C158.455 87.7461 158.746 88.3618 159.033 89.0019L158.12 89.4112C157.838 88.7821 157.553 88.1782 157.266 87.5999L158.162 87.1554ZM160.216 91.8211C160.462 92.4437 160.705 93.0849 160.945 93.7441L160.006 94.087C159.768 93.4353 159.528 92.8021 159.286 92.1877L160.216 91.8211ZM161.947 96.6331C162.152 97.2564 162.355 97.8932 162.557 98.5434L161.602 98.8394C161.402 98.1947 161.2 97.5635 160.997 96.946L161.947 96.6331ZM163.424 101.466C163.608 102.113 163.79 102.771 163.97 103.441L163.005 103.701C162.826 103.035 162.645 102.381 162.462 101.739L163.424 101.466ZM164.73 106.372C164.892 107.022 165.053 107.681 165.212 108.35L164.239 108.581C164.081 107.916 163.921 107.261 163.76 106.615L164.73 106.372ZM165.895 111.323C166.038 111.971 166.181 112.626 166.321 113.289L165.343 113.497C165.203 112.837 165.061 112.184 164.919 111.54L165.895 111.323ZM166.936 116.286C167.066 116.936 167.194 117.594 167.32 118.258L166.338 118.445C166.212 117.783 166.084 117.129 165.956 116.48L166.936 116.286ZM167.874 121.259C167.992 121.915 168.108 122.577 168.223 123.245L167.237 123.415C167.123 122.749 167.007 122.089 166.89 121.435L167.874 121.259ZM168.724 126.251C168.83 126.911 168.936 127.576 169.04 128.247L168.052 128.4C167.948 127.732 167.843 127.069 167.736 126.411L168.724 126.251ZM169.494 131.258C169.591 131.92 169.686 132.587 169.781 133.258L168.79 133.397C168.696 132.728 168.601 132.063 168.504 131.403L169.494 131.258ZM170.193 136.276C170.28 136.939 170.367 137.607 170.452 138.278L169.46 138.404C169.375 137.735 169.289 137.069 169.201 136.407L170.193 136.276ZM170.826 141.304C170.905 141.968 170.983 142.635 171.06 143.306L170.067 143.42C169.99 142.751 169.912 142.085 169.833 141.423L170.826 141.304ZM171.398 146.341C171.47 147.004 171.54 147.671 171.609 148.341L170.615 148.444C170.545 147.775 170.475 147.11 170.404 146.448L171.398 146.341ZM171.913 151.38C171.978 152.045 172.041 152.712 172.103 153.383L171.107 153.476C171.045 152.806 170.982 152.14 170.918 151.476L171.913 151.38ZM172.375 156.415C172.432 157.085 172.489 157.757 172.545 158.432L171.548 158.515C171.493 157.841 171.436 157.169 171.378 156.501L172.375 156.415ZM172.785 161.456C172.837 162.131 172.888 162.808 172.937 163.488L171.94 163.561C171.89 162.882 171.84 162.206 171.788 161.533L172.785 161.456ZM173.148 166.504C173.194 167.179 173.238 167.855 173.281 168.534L172.283 168.597C172.24 167.92 172.196 167.244 172.151 166.572L173.148 166.504ZM173.465 171.559C173.505 172.231 173.543 172.905 173.58 173.582L172.581 173.637C172.544 172.961 172.506 172.288 172.467 171.617L173.465 171.559ZM173.738 176.619C173.771 177.29 173.803 177.962 173.835 178.636L172.836 178.682C172.805 178.009 172.772 177.338 172.739 176.669L173.738 176.619ZM173.967 181.684C173.995 182.353 174.021 183.024 174.047 183.697L173.048 183.735C173.022 183.063 172.996 182.393 172.968 181.725L173.967 181.684ZM174.154 186.734C174.176 187.409 174.197 188.085 174.218 188.763L173.218 188.793C173.198 188.116 173.177 187.441 173.155 186.767L174.154 186.734ZM174.3 191.791C174.317 192.467 174.333 193.144 174.347 193.822L173.348 193.844C173.333 193.166 173.317 192.491 173.3 191.816L174.3 191.791ZM174.406 196.854C174.417 197.528 174.428 198.202 174.437 198.878L173.437 198.892C173.428 198.217 173.417 197.543 173.406 196.871L174.406 196.854ZM174.472 201.922C174.478 202.594 174.483 203.266 174.488 203.941L173.488 203.947C173.483 203.274 173.478 202.602 173.472 201.931L174.472 201.922ZM174.499 206.982C174.5 207.321 174.5 207.66 174.5 208L173.5 208C173.5 207.661 173.5 207.322 173.499 206.984L174.499 206.982Z" fill="#869BB9"/>
<path d="M190.945 243.466C190.669 243.448 190.461 243.21 190.479 242.934C190.497 242.659 190.735 242.45 191.01 242.468L190.945 243.466ZM188.085 241.985C188.351 242.056 188.51 242.33 188.438 242.597C188.367 242.864 188.093 243.022 187.826 242.951L188.085 241.985ZM185.829 242.276C185.574 242.171 185.452 241.878 185.557 241.623C185.662 241.368 185.954 241.246 186.209 241.351L185.829 242.276ZM183.576 239.972C183.808 240.121 183.875 240.431 183.726 240.663C183.576 240.895 183.266 240.962 183.034 240.812L183.576 239.972ZM181.337 239.574C181.124 239.398 181.093 239.083 181.268 238.87C181.443 238.656 181.758 238.625 181.972 238.801L181.337 239.574ZM179.827 236.726C180.01 236.933 179.99 237.249 179.783 237.431C179.575 237.614 179.259 237.594 179.077 237.387L179.827 236.726ZM177.773 235.747C177.612 235.522 177.664 235.21 177.889 235.049C178.113 234.888 178.425 234.94 178.586 235.164L177.773 235.747ZM177.024 232.61C177.151 232.856 177.055 233.157 176.81 233.284C176.565 233.411 176.263 233.315 176.136 233.07L177.024 232.61ZM175.262 231.171C175.158 230.916 175.281 230.624 175.537 230.52C175.793 230.416 176.085 230.539 176.189 230.795L175.262 231.171ZM175.248 227.947C175.317 228.215 175.156 228.487 174.889 228.556C174.622 228.626 174.349 228.465 174.28 228.198L175.248 227.947ZM173.845 226.156C173.799 225.883 173.983 225.625 174.255 225.579C174.527 225.534 174.785 225.717 174.831 225.989L173.845 226.156ZM174.521 223.002C174.532 223.278 174.317 223.511 174.042 223.522C173.766 223.534 173.533 223.319 173.521 223.043L174.521 223.002ZM192 243.5C191.646 243.5 191.294 243.488 190.945 243.466L191.01 242.468C191.338 242.489 191.668 242.5 192 242.5L192 243.5ZM187.826 242.951C187.145 242.768 186.479 242.542 185.829 242.276L186.209 241.351C186.82 241.601 187.446 241.814 188.085 241.985L187.826 242.951ZM183.034 240.812C182.448 240.434 181.882 240.02 181.337 239.574L181.972 238.801C182.487 239.224 183.023 239.615 183.576 239.972L183.034 240.812ZM179.077 237.387C178.618 236.867 178.183 236.319 177.773 235.747L178.586 235.164C178.977 235.71 179.391 236.231 179.827 236.726L179.077 237.387ZM176.136 233.07C175.819 232.456 175.527 231.823 175.262 231.171L176.189 230.795C176.442 231.418 176.721 232.024 177.024 232.61L176.136 233.07ZM174.28 228.198C174.107 227.53 173.962 226.849 173.845 226.156L174.831 225.989C174.943 226.654 175.083 227.307 175.248 227.947L174.28 228.198ZM173.521 223.043C173.507 222.698 173.5 222.35 173.5 222L174.5 222C174.5 222.336 174.507 222.67 174.521 223.002L173.521 223.043Z" fill="#869BB9"/>
<path d="M190.912 243.548C190.637 243.573 190.434 243.816 190.458 244.091C190.483 244.366 190.726 244.569 191.001 244.544L190.912 243.548ZM188.077 245.197C188.337 245.103 188.471 244.817 188.377 244.557C188.283 244.297 187.997 244.163 187.737 244.257L188.077 245.197ZM185.766 245.151C185.524 245.284 185.435 245.588 185.568 245.83C185.701 246.072 186.005 246.161 186.247 246.028L185.766 245.151ZM183.754 247.752C183.965 247.574 183.992 247.258 183.814 247.047C183.636 246.836 183.321 246.809 183.11 246.987L183.754 247.752ZM181.552 248.46C181.362 248.66 181.37 248.977 181.571 249.167C181.771 249.357 182.088 249.349 182.278 249.148L181.552 248.46ZM180.338 251.516C180.498 251.291 180.446 250.979 180.221 250.819C179.996 250.659 179.683 250.712 179.523 250.937L180.338 251.516ZM178.363 252.72C178.222 252.957 178.299 253.264 178.537 253.406C178.774 253.547 179.081 253.469 179.222 253.232L178.363 252.72ZM177.794 255.959C177.909 255.708 177.799 255.411 177.548 255.296C177.297 255.18 177 255.29 176.885 255.541L177.794 255.959ZM176.063 257.498C175.964 257.756 176.093 258.045 176.351 258.144C176.609 258.243 176.898 258.114 176.997 257.856L176.063 257.498ZM176.022 260.786C176.097 260.52 175.943 260.243 175.678 260.167C175.412 260.092 175.136 260.246 175.06 260.511L176.022 260.786ZM174.535 262.562C174.474 262.831 174.643 263.099 174.912 263.16C175.181 263.221 175.449 263.053 175.51 262.783L174.535 262.562ZM174.945 265.825C174.985 265.551 174.796 265.297 174.522 265.257C174.249 265.217 173.995 265.406 173.955 265.68L174.945 265.825ZM173.701 267.78C173.674 268.055 173.876 268.299 174.151 268.325C174.426 268.352 174.67 268.15 174.696 267.875L173.701 267.78ZM174.512 270.966C174.519 270.69 174.3 270.46 174.024 270.454C173.748 270.447 173.519 270.666 173.512 270.942L174.512 270.966ZM192 243.5C191.635 243.5 191.272 243.516 190.912 243.548L191.001 244.544C191.331 244.515 191.665 244.5 192 244.5L192 243.5ZM187.737 244.257C187.064 244.5 186.406 244.8 185.766 245.151L186.247 246.028C186.844 245.7 187.455 245.422 188.077 245.197L187.737 244.257ZM183.11 246.987C182.573 247.44 182.053 247.932 181.552 248.46L182.278 249.148C182.755 248.646 183.247 248.179 183.754 247.752L183.11 246.987ZM179.523 250.937C179.119 251.505 178.732 252.1 178.363 252.72L179.222 253.232C179.578 252.634 179.951 252.062 180.338 251.516L179.523 250.937ZM176.885 255.541C176.595 256.175 176.32 256.828 176.063 257.498L176.997 257.856C177.246 257.205 177.513 256.572 177.794 255.959L176.885 255.541ZM175.06 260.511C174.869 261.182 174.693 261.866 174.535 262.562L175.51 262.783C175.665 262.105 175.835 261.438 176.022 260.786L175.06 260.511ZM173.955 265.68C173.854 266.37 173.769 267.071 173.701 267.78L174.696 267.875C174.763 267.183 174.846 266.499 174.945 265.825L173.955 265.68ZM173.512 270.942C173.504 271.293 173.5 271.646 173.5 272L174.5 272C174.5 271.654 174.504 271.309 174.512 270.966L173.512 270.942Z" fill="#869BB9"/>
<path d="M149.079 187.528C149.355 187.542 149.566 187.778 149.552 188.053C149.538 188.329 149.303 188.541 149.027 188.527L149.079 187.528ZM152.075 188.926C151.805 188.869 151.632 188.604 151.689 188.333C151.746 188.063 152.011 187.89 152.282 187.947L152.075 188.926ZM154.363 188.5C154.626 188.584 154.771 188.866 154.687 189.129C154.603 189.392 154.321 189.537 154.058 189.452L154.363 188.5ZM156.914 190.606C156.666 190.485 156.564 190.185 156.685 189.937C156.807 189.689 157.106 189.587 157.354 189.708L156.914 190.606ZM159.237 190.743C159.473 190.887 159.548 191.195 159.404 191.43C159.26 191.666 158.953 191.741 158.717 191.597L159.237 190.743ZM161.246 193.374C161.03 193.201 160.995 192.886 161.168 192.671C161.341 192.455 161.655 192.42 161.871 192.593L161.246 193.374ZM163.488 193.997C163.689 194.186 163.699 194.502 163.51 194.703C163.321 194.905 163.005 194.915 162.803 194.726L163.488 193.997ZM164.943 196.97C164.763 196.76 164.788 196.445 164.998 196.265C165.208 196.086 165.523 196.11 165.703 196.32L164.943 196.97ZM167.035 197.99C167.2 198.212 167.154 198.525 166.933 198.69C166.711 198.855 166.398 198.809 166.233 198.587L167.035 197.99ZM167.966 201.166C167.823 200.93 167.898 200.623 168.134 200.48C168.37 200.336 168.678 200.412 168.821 200.648L167.966 201.166ZM169.871 202.506C170 202.751 169.906 203.053 169.662 203.182C169.417 203.31 169.115 203.217 168.986 202.972L169.871 202.506ZM170.317 205.786C170.209 205.532 170.329 205.239 170.583 205.131C170.837 205.024 171.131 205.143 171.238 205.397L170.317 205.786ZM172.013 207.382C172.106 207.642 171.971 207.928 171.711 208.022C171.452 208.115 171.165 207.98 171.072 207.72L172.013 207.382ZM172.009 210.692C171.937 210.426 172.094 210.151 172.36 210.078C172.626 210.005 172.901 210.162 172.974 210.429L172.009 210.692ZM173.482 212.495C173.542 212.765 173.371 213.031 173.101 213.09C172.831 213.15 172.565 212.979 172.506 212.709L173.482 212.495ZM173.061 215.778C173.021 215.504 173.211 215.251 173.485 215.212C173.758 215.173 174.011 215.363 174.05 215.636L173.061 215.778ZM174.301 217.749C174.327 218.024 174.125 218.268 173.85 218.294C173.575 218.32 173.331 218.118 173.305 217.843L174.301 217.749ZM173.488 220.957C173.481 220.681 173.7 220.452 173.976 220.446C174.252 220.439 174.481 220.658 174.488 220.934L173.488 220.957ZM148 187.5C148.361 187.5 148.721 187.509 149.079 187.528L149.027 188.527C148.686 188.509 148.344 188.5 148 188.5L148 187.5ZM152.282 187.947C152.985 188.096 153.68 188.281 154.363 188.5L154.058 189.452C153.406 189.243 152.745 189.067 152.075 188.926L152.282 187.947ZM157.354 189.708C157.995 190.023 158.623 190.368 159.237 190.743L158.717 191.597C158.127 191.237 157.526 190.907 156.914 190.606L157.354 189.708ZM161.871 192.593C162.424 193.036 162.963 193.504 163.488 193.997L162.803 194.726C162.297 194.251 161.778 193.8 161.246 193.374L161.871 192.593ZM165.703 196.32C166.162 196.857 166.606 197.414 167.035 197.99L166.233 198.587C165.817 198.029 165.387 197.489 164.943 196.97L165.703 196.32ZM168.821 200.648C169.186 201.252 169.537 201.871 169.871 202.506L168.986 202.972C168.661 202.355 168.321 201.752 167.966 201.166L168.821 200.648ZM171.238 205.397C171.512 206.047 171.771 206.708 172.013 207.382L171.072 207.72C170.836 207.064 170.584 206.419 170.317 205.786L171.238 205.397ZM172.974 210.429C173.16 211.108 173.329 211.797 173.482 212.495L172.506 212.709C172.356 212.028 172.19 211.355 172.009 210.692L172.974 210.429ZM174.05 215.636C174.15 216.333 174.234 217.038 174.301 217.749L173.305 217.843C173.24 217.148 173.158 216.459 173.061 215.778L174.05 215.636ZM174.488 220.934C174.496 221.288 174.5 221.643 174.5 222L173.5 222C173.5 221.651 173.496 221.304 173.488 220.957L174.488 220.934Z" fill="#869BB9"/>
<g filter="url(#filter2_d_612_1101)">
<ellipse cx="195" cy="244" rx="3" ry="3" transform="rotate(-90 195 244)" fill="#FD8011"/>
<path d="M199.5 244C199.5 241.515 197.485 239.5 195 239.5C192.515 239.5 190.5 241.515 190.5 244C190.5 246.485 192.515 248.5 195 248.5C197.485 248.5 199.5 246.485 199.5 244Z" stroke="white" stroke-width="3"/>
</g>
<g filter="url(#filter3_d_612_1101)">
<rect x="60" y="32" width="88" height="88" rx="20" fill="url(#paint6_linear_612_1101)"/>
<path d="M114.263 67.2204C114.93 67.2204 115.588 67.2694 116.24 67.3407C114.464 59.1139 105.622 53 95.5287 53C84.2442 53 75 60.6522 75 70.3683C75 75.9758 78.0761 80.5813 83.2147 84.1534L81.1618 90.2983L88.3374 86.7174C90.9067 87.2223 92.9657 87.7429 95.5287 87.7429C96.1726 87.7429 96.8102 87.7114 97.4446 87.6608C97.0431 86.2965 96.8101 84.8658 96.8101 83.3827C96.8102 74.4612 104.512 67.2204 114.263 67.2204ZM103.227 61.6826C104.773 61.6826 105.796 62.6955 105.796 64.2323C105.796 65.7627 104.773 66.7883 103.227 66.7883C101.687 66.7883 100.145 65.7627 100.145 64.2323C100.145 62.6955 101.687 61.6826 103.227 61.6826ZM88.8601 66.7882C87.3203 66.7882 85.7681 65.7627 85.7681 64.2322C85.7681 62.6954 87.3203 61.6825 88.8601 61.6825C90.3981 61.6825 91.423 62.6954 91.423 64.2322C91.423 65.7627 90.3981 66.7882 88.8601 66.7882ZM133 83.1374C133 74.9723 124.787 68.3172 115.563 68.3172C105.796 68.3172 98.1043 74.9723 98.1043 83.1374C98.1043 91.3143 105.796 97.9552 115.563 97.9552C117.607 97.9552 119.669 97.4455 121.722 96.9328L127.353 100L125.809 94.8975C129.93 91.8208 133 87.7429 133 83.1374ZM109.902 80.5813C108.88 80.5813 107.849 79.57 107.849 78.5381C107.849 77.5205 108.88 76.4965 109.902 76.4965C111.454 76.4965 112.471 77.5205 112.471 78.5381C112.471 79.57 111.454 80.5813 109.902 80.5813ZM121.193 80.5813C120.179 80.5813 119.154 79.57 119.154 78.5381C119.154 77.5205 120.179 76.4965 121.193 76.4965C122.732 76.4965 123.762 77.5205 123.762 78.5381C123.762 79.57 122.732 80.5813 121.193 80.5813Z" fill="#FAF9FC"/>
</g>
<g filter="url(#filter4_d_612_1101)">
<rect x="60" y="144" width="88" height="88" rx="20" fill="url(#paint7_radial_612_1101)"/>
<path d="M99.5554 182.282V180.151C98.8161 180.033 98.0693 179.969 97.3208 179.96C93.7973 179.952 90.3632 181.069 87.5195 183.15C84.6759 185.231 82.5714 188.166 81.5132 191.527C80.4549 194.887 80.4982 198.499 81.6368 201.833C82.7754 205.168 84.9496 208.051 87.8424 210.063C85.6672 207.733 84.2128 204.823 83.6546 201.685C83.0964 198.547 83.4583 195.314 84.6967 192.377C85.935 189.44 87.9969 186.924 90.6334 185.133C93.27 183.341 96.3686 182.351 99.5554 182.282V182.282Z" fill="#65D2E9"/>
<path d="M99.9581 206.356C101.904 206.354 103.775 205.601 105.18 204.254C106.585 202.907 107.416 201.071 107.501 199.126V163.087H114.086C113.952 162.335 113.887 161.571 113.893 160.806H104.888V196.808C104.816 198.762 103.99 200.611 102.583 201.969C101.176 203.326 99.2985 204.086 97.3437 204.089C96.1301 204.078 94.9362 203.78 93.8599 203.22C94.5573 204.186 95.4733 204.974 96.5331 205.519C97.5928 206.064 98.7664 206.351 99.9581 206.356V206.356Z" fill="#65D2E9"/>
<path d="M126.384 175.314V173.311C123.961 173.311 121.592 172.596 119.573 171.255C121.342 173.313 123.733 174.739 126.384 175.318V175.314Z" fill="#65D2E9"/>
<path d="M119.572 171.256C117.584 168.991 116.488 166.081 116.489 163.067H114.085C114.396 164.733 115.043 166.318 115.985 167.726C116.928 169.134 118.148 170.335 119.57 171.256H119.572Z" fill="#E6436D"/>
<path d="M97.3282 188.971C95.6422 188.98 94.0078 189.553 92.6844 190.597C91.3611 191.642 90.4247 193.099 90.0242 194.737C89.6236 196.374 89.7818 198.099 90.4736 199.637C91.1653 201.174 92.3511 202.436 93.8424 203.223C93.0268 202.096 92.5384 200.766 92.4313 199.38C92.3242 197.993 92.6024 196.604 93.2353 195.365C93.8682 194.127 94.8311 193.088 96.0176 192.362C97.2041 191.636 98.5681 191.253 99.9589 191.254C100.717 191.262 101.469 191.379 102.193 191.601V182.438C101.454 182.327 100.707 182.27 99.9589 182.265H99.5526V189.233C98.8277 189.039 98.0784 188.95 97.3282 188.971V188.971Z" fill="#E6436D"/>
<path d="M126.383 175.314V182.282C121.896 182.272 117.526 180.85 113.892 178.219V196.528C113.883 200.915 112.134 205.12 109.028 208.219C105.922 211.319 101.714 213.059 97.3261 213.059C93.9326 213.066 90.6207 212.019 87.8477 210.063C90.1089 212.495 93.0502 214.19 96.2885 214.927C99.5268 215.664 102.912 215.408 106.003 214.194C109.094 212.98 111.748 210.862 113.618 208.118C115.489 205.374 116.49 202.13 116.49 198.809V180.557C120.137 183.171 124.513 184.573 129 184.565V175.592C128.12 175.59 127.243 175.497 126.383 175.314V175.314Z" fill="#E6436D"/>
<path d="M113.893 196.533V178.224C117.541 180.84 121.921 182.241 126.41 182.229V175.262C123.76 174.702 121.363 173.296 119.581 171.256C118.159 170.335 116.939 169.134 115.996 167.726C115.053 166.318 114.407 164.733 114.096 163.067H107.5V199.129C107.436 200.698 106.884 202.209 105.922 203.451C104.96 204.692 103.635 205.604 102.131 206.058C100.627 206.512 99.0195 206.486 97.5309 205.985C96.0423 205.483 94.7469 204.53 93.8246 203.258C92.3329 202.473 91.1466 201.211 90.4543 199.673C89.762 198.136 89.6035 196.411 90.0039 194.773C90.4043 193.136 91.3407 191.679 92.6642 190.634C93.9877 189.589 95.6224 189.017 97.3085 189.008C98.0663 189.014 98.8191 189.131 99.543 189.356V182.386C96.3388 182.44 93.2196 183.426 90.5658 185.222C87.912 187.019 85.8381 189.549 84.5972 192.503C83.3562 195.458 83.0016 198.71 83.5767 201.863C84.1518 205.015 85.6318 207.932 87.8361 210.259C90.6357 212.147 93.9502 213.126 97.3268 213.06C101.714 213.06 105.921 211.32 109.027 208.221C112.133 205.123 113.883 200.919 113.893 196.533V196.533Z" fill="white"/>
</g>
<g filter="url(#filter5_d_612_1101)">
<rect x="60" y="256" width="88" height="88" rx="20" fill="url(#paint8_radial_612_1101)"/>
<path d="M89.9701 307.539H84.3403V270.979H89.9701V307.539ZM101.196 279.606H95.5664V329.021H101.196V279.606ZM112.433 279.606H106.804V329.021H112.433V279.606ZM123.659 279.594H118.03V307.595H123.659V279.594Z" fill="white"/>
</g>
<g filter="url(#filter6_d_612_1101)">
<rect x="60" y="368" width="88" height="88" rx="20" fill="url(#paint9_linear_612_1101)"/>
<path fill-rule="evenodd" clip-rule="evenodd" d="M80.6065 395.667C84.5699 391.602 90.0883 389 96.1758 388.33V388.329C98.2637 388.106 100.37 388.112 102.456 388.35C108.325 388.946 113.805 391.556 117.965 395.738C119.493 397.31 120.762 399.114 121.725 401.084C123.196 404.07 123.835 407.399 123.575 410.718L123.422 410.535C122.884 409.997 122.18 409.656 121.423 409.568C120.667 409.479 119.904 409.648 119.255 410.047C119.259 409.976 119.263 409.903 119.267 409.83C119.276 409.674 119.286 409.515 119.286 409.356C119.286 407.131 118.778 404.956 117.772 402.903C117.02 401.358 116.003 399.905 114.753 398.614C111.522 395.281 106.969 393.116 101.938 392.537C100.189 392.344 98.4233 392.344 96.6738 392.537C91.6127 393.086 87.0395 395.22 83.7874 398.574C82.5273 399.864 81.511 401.297 80.7386 402.842C79.5795 405.182 79.0663 407.789 79.2522 410.394C79.438 412.999 80.316 415.507 81.7956 417.659C82.9759 419.395 84.4394 420.92 86.1249 422.171C86.4298 422.395 86.6568 422.708 86.7735 423.067C86.8903 423.427 86.8909 423.814 86.7753 424.173L86.4196 425.495L86.1147 426.684L85.9216 427.405L85.759 428.066C85.7562 428.142 85.7833 428.217 85.8345 428.274C85.8857 428.331 85.957 428.365 86.0334 428.371C86.0842 428.371 86.135 428.35 86.2367 428.289L86.4196 428.178L90.7083 425.657L90.8505 425.586C91.1297 425.43 91.4375 425.333 91.7555 425.299C92.0735 425.266 92.3949 425.298 92.7002 425.393C93.832 425.721 94.9871 425.962 96.1555 426.115L96.6738 426.186C99.9099 426.553 103.187 426.227 106.288 425.23C106.212 425.996 106.399 426.764 106.819 427.409C107.238 428.053 107.864 428.536 108.595 428.777C105.597 429.86 102.432 430.41 99.2449 430.403C96.6672 430.421 94.1003 430.069 91.6229 429.356L86.4094 431.978L84.6614 432.852L84.5496 432.934H84.5191C84.2499 433.093 83.9446 433.181 83.6319 433.191C83.3191 433.2 83.0092 433.13 82.731 432.986C82.4528 432.843 82.2155 432.632 82.0412 432.372C81.8669 432.112 81.7614 431.813 81.7345 431.501L81.7142 431.318L81.7345 431.135C81.738 431.111 81.7403 431.085 81.7426 431.059C81.747 431.009 81.7516 430.958 81.765 430.911L81.8463 430.667L82.578 424.915C80.9622 423.472 79.1939 421.44 78.1166 419.814C76.2451 417.08 75.1369 413.896 74.9064 410.591C74.676 407.286 75.3316 403.98 76.8056 401.013C77.7507 399.082 79.0312 397.273 80.6065 395.667ZM117.442 413.973C117.583 413.349 117.898 412.777 118.35 412.324C118.77 411.904 119.292 411.602 119.865 411.447C120.438 411.292 121.041 411.291 121.615 411.442C122.189 411.593 122.713 411.892 123.135 412.309C123.557 412.726 123.863 413.246 124.021 413.818C124.334 416.213 125.469 418.426 127.233 420.078C127.328 420.141 127.409 420.224 127.47 420.32C127.531 420.417 127.571 420.525 127.588 420.638C127.604 420.751 127.597 420.867 127.565 420.977C127.534 421.087 127.48 421.189 127.407 421.277C127.334 421.365 127.243 421.436 127.14 421.486C127.037 421.536 126.925 421.564 126.811 421.568C126.696 421.572 126.583 421.551 126.477 421.508C126.371 421.465 126.275 421.4 126.196 421.318C124.665 419.64 122.627 418.508 120.393 418.096C119.757 418.028 119.152 417.781 118.65 417.385C118.147 416.988 117.767 416.457 117.554 415.853C117.34 415.25 117.301 414.598 117.442 413.973ZM127.914 421.897C127.363 422.446 127.019 423.167 126.938 423.94C126.525 426.174 125.394 428.211 123.716 429.743C123.634 429.822 123.569 429.917 123.526 430.023C123.483 430.129 123.462 430.243 123.466 430.357C123.47 430.471 123.498 430.584 123.548 430.686C123.598 430.789 123.669 430.88 123.757 430.954C123.845 431.027 123.947 431.081 124.057 431.112C124.167 431.143 124.282 431.151 124.396 431.134C124.509 431.118 124.617 431.078 124.714 431.017C124.81 430.955 124.893 430.875 124.956 430.779C126.607 429.015 128.82 427.88 131.216 427.568C131.719 427.432 132.183 427.182 132.574 426.838C132.965 426.493 133.271 426.064 133.469 425.582C133.667 425.101 133.752 424.58 133.716 424.061C133.681 423.542 133.527 423.037 133.265 422.587C133.004 422.137 132.642 421.753 132.209 421.464C131.775 421.176 131.281 420.992 130.764 420.925C130.248 420.858 129.723 420.911 129.231 421.08C128.738 421.248 128.291 421.528 127.924 421.897H127.914ZM114.134 427.273C114.05 427.357 113.985 427.457 113.944 427.569C113.903 427.68 113.886 427.799 113.896 427.917C113.906 428.035 113.941 428.149 114 428.252C114.058 428.355 114.139 428.444 114.235 428.513C115.999 430.165 117.134 432.377 117.447 434.773C117.609 435.369 117.931 435.91 118.378 436.337C118.825 436.763 119.38 437.06 119.984 437.194C120.587 437.328 121.215 437.296 121.801 437.099C122.387 436.903 122.908 436.55 123.308 436.079C123.708 435.608 123.972 435.037 124.072 434.427C124.171 433.818 124.102 433.192 123.873 432.619C123.643 432.045 123.261 431.545 122.768 431.173C122.275 430.8 121.689 430.569 121.075 430.505C118.843 430.088 116.809 428.953 115.282 427.273C115.13 427.121 114.923 427.036 114.708 427.036C114.493 427.036 114.286 427.121 114.134 427.273ZM116.684 417.628L116.623 417.689C114.966 419.514 112.715 420.691 110.271 421.012C109.695 421.164 109.169 421.466 108.747 421.887C108.325 422.308 108.022 422.833 107.869 423.41C107.717 423.986 107.719 424.592 107.877 425.167C108.035 425.742 108.342 426.265 108.767 426.683C109.221 427.135 109.792 427.45 110.417 427.591C111.042 427.732 111.693 427.693 112.297 427.479C112.9 427.266 113.431 426.886 113.828 426.383C114.225 425.881 114.472 425.277 114.54 424.64C114.956 422.405 116.09 420.367 117.771 418.837C117.932 418.693 118.028 418.491 118.04 418.275C118.051 418.06 117.977 417.849 117.832 417.689C117.688 417.528 117.486 417.432 117.271 417.42C117.056 417.409 116.844 417.483 116.684 417.628Z" fill="white"/>
</g>
<rect x="60" y="480" width="88" height="88" rx="20" fill="url(#paint10_linear_612_1101)"/>
<path d="M89.3451 530.67C89.3451 533.593 86.9573 535.981 84.0343 535.981C81.1114 535.981 78.7236 533.593 78.7236 530.67C78.7236 527.747 81.1114 525.359 84.0343 525.359H89.3451V530.67Z" fill="white"/>
<path d="M92.0229 530.67C92.0229 527.747 94.4107 525.359 97.3337 525.359C100.257 525.359 102.644 527.747 102.644 530.67V543.967C102.644 546.89 100.257 549.278 97.3337 549.278C94.4107 549.278 92.0229 546.89 92.0229 543.967V530.67Z" fill="white"/>
<path d="M97.3337 509.345C94.4107 509.345 92.0229 506.957 92.0229 504.034C92.0229 501.111 94.4107 498.724 97.3337 498.724C100.257 498.724 102.644 501.111 102.644 504.034V509.345H97.3337Z" fill="white"/>
<path d="M97.3317 512.021C100.255 512.021 102.642 514.409 102.642 517.332C102.642 520.255 100.255 522.642 97.3317 522.642H84.0343C81.1114 522.642 78.7236 520.255 78.7236 517.332C78.7236 514.409 81.1114 512.021 84.0343 512.021H97.3317Z" fill="white"/>
<path d="M118.656 517.332C118.656 514.409 121.044 512.021 123.966 512.021C126.889 512.021 129.277 514.409 129.277 517.332C129.277 520.255 126.889 522.642 123.966 522.642H118.656V517.332Z" fill="white"/>
<path d="M115.981 517.332C115.981 520.255 113.594 522.642 110.671 522.642C107.748 522.642 105.36 520.255 105.36 517.332V504.034C105.36 501.111 107.748 498.724 110.671 498.724C113.594 498.724 115.981 501.111 115.981 504.034V517.332Z" fill="white"/>
<path d="M110.671 538.657C113.594 538.657 115.981 541.045 115.981 543.968C115.981 546.891 113.594 549.279 110.671 549.279C107.748 549.279 105.36 546.891 105.36 543.968V538.657H110.671Z" fill="white"/>
<path d="M110.671 535.981C107.748 535.981 105.36 533.593 105.36 530.67C105.36 527.747 107.748 525.359 110.671 525.359H123.968C126.891 525.359 129.279 527.747 129.279 530.67C129.279 533.593 126.891 535.981 123.968 535.981H110.671Z" fill="white"/>
<path d="M60 500H148V535.6C148 547.179 148 552.968 145.675 557.359C143.799 560.902 140.902 563.799 137.359 565.675C132.968 568 127.179 568 115.6 568H92.4C80.8213 568 75.032 568 70.6414 565.675C67.0983 563.799 64.2007 560.902 62.3247 557.359C60 552.968 60 547.179 60 535.6V500Z" fill="url(#paint11_linear_612_1101)"/>
</g>
<defs>
<filter id="filter0_d_612_1101" x="155" y="74" width="408" height="470" filterUnits="userSpaceOnUse" color-interpolation-filters="sRGB">
<feFlood flood-opacity="0" result="BackgroundImageFix"/>
<feColorMatrix in="SourceAlpha" type="matrix" values="0 0 0 0 0 0 0 0 0 0 0 0 0 0 0 0 0 0 127 0" result="hardAlpha"/>
<feMorphology radius="20" operator="erode" in="SourceAlpha" result="effect1_dropShadow_612_1101"/>
<feOffset dy="20"/>
<feGaussianBlur stdDeviation="30"/>
<feColorMatrix type="matrix" values="0 0 0 0 0.0196078 0 0 0 0 0.333333 0 0 0 0 1 0 0 0 0.1 0"/>
<feBlend mode="normal" in2="BackgroundImageFix" result="effect1_dropShadow_612_1101"/>
<feBlend mode="normal" in="SourceGraphic" in2="effect1_dropShadow_612_1101" result="shape"/>
</filter>
<filter id="filter1_d_612_1101" x="225" y="46" width="268" height="126" filterUnits="userSpaceOnUse" color-interpolation-filters="sRGB">
<feFlood flood-opacity="0" result="BackgroundImageFix"/>
<feColorMatrix in="SourceAlpha" type="matrix" values="0 0 0 0 0 0 0 0 0 0 0 0 0 0 0 0 0 0 127 0" result="hardAlpha"/>
<feMorphology radius="10" operator="erode" in="SourceAlpha" result="effect1_dropShadow_612_1101"/>
<feOffset dy="20"/>
<feGaussianBlur stdDeviation="10"/>
<feColorMatrix type="matrix" values="0 0 0 0 0.988235 0 0 0 0 0.47451 0 0 0 0 0.0509804 0 0 0 0.1 0"/>
<feBlend mode="normal" in2="BackgroundImageFix" result="effect1_dropShadow_612_1101"/>
<feBlend mode="normal" in="SourceGraphic" in2="effect1_dropShadow_612_1101" result="shape"/>
</filter>
<filter id="filter2_d_612_1101" x="181" y="230" width="28" height="28" filterUnits="userSpaceOnUse" color-interpolation-filters="sRGB">
<feFlood flood-opacity="0" result="BackgroundImageFix"/>
<feColorMatrix in="SourceAlpha" type="matrix" values="0 0 0 0 0 0 0 0 0 0 0 0 0 0 0 0 0 0 127 0" result="hardAlpha"/>
<feOffset/>
<feGaussianBlur stdDeviation="4"/>
<feComposite in2="hardAlpha" operator="out"/>
<feColorMatrix type="matrix" values="0 0 0 0 0.992157 0 0 0 0 0.490196 0 0 0 0 0.0627451 0 0 0 0.1 0"/>
<feBlend mode="normal" in2="BackgroundImageFix" result="effect1_dropShadow_612_1101"/>
<feBlend mode="normal" in="SourceGraphic" in2="effect1_dropShadow_612_1101" result="shape"/>
</filter>
<filter id="filter3_d_612_1101" x="40" y="32" width="128" height="128" filterUnits="userSpaceOnUse" color-interpolation-filters="sRGB">
<feFlood flood-opacity="0" result="BackgroundImageFix"/>
<feColorMatrix in="SourceAlpha" type="matrix" values="0 0 0 0 0 0 0 0 0 0 0 0 0 0 0 0 0 0 127 0" result="hardAlpha"/>
<feOffset dy="20"/>
<feGaussianBlur stdDeviation="10"/>
<feColorMatrix type="matrix" values="0 0 0 0 0.2 0 0 0 0 0.858824 0 0 0 0 0.321569 0 0 0 0.1 0"/>
<feBlend mode="normal" in2="BackgroundImageFix" result="effect1_dropShadow_612_1101"/>
<feBlend mode="normal" in="SourceGraphic" in2="effect1_dropShadow_612_1101" result="shape"/>
</filter>
<filter id="filter4_d_612_1101" x="40" y="144" width="128" height="128" filterUnits="userSpaceOnUse" color-interpolation-filters="sRGB">
<feFlood flood-opacity="0" result="BackgroundImageFix"/>
<feColorMatrix in="SourceAlpha" type="matrix" values="0 0 0 0 0 0 0 0 0 0 0 0 0 0 0 0 0 0 127 0" result="hardAlpha"/>
<feOffset dy="20"/>
<feGaussianBlur stdDeviation="10"/>
<feColorMatrix type="matrix" values="0 0 0 0 0.298039 0 0 0 0 0.294118 0 0 0 0 0.294118 0 0 0 0.1 0"/>
<feBlend mode="normal" in2="BackgroundImageFix" result="effect1_dropShadow_612_1101"/>
<feBlend mode="normal" in="SourceGraphic" in2="effect1_dropShadow_612_1101" result="shape"/>
</filter>
<filter id="filter5_d_612_1101" x="50" y="256" width="108" height="118" filterUnits="userSpaceOnUse" color-interpolation-filters="sRGB">
<feFlood flood-opacity="0" result="BackgroundImageFix"/>
<feColorMatrix in="SourceAlpha" type="matrix" values="0 0 0 0 0 0 0 0 0 0 0 0 0 0 0 0 0 0 127 0" result="hardAlpha"/>
<feMorphology radius="10" operator="erode" in="SourceAlpha" result="effect1_dropShadow_612_1101"/>
<feOffset dy="20"/>
<feGaussianBlur stdDeviation="10"/>
<feColorMatrix type="matrix" values="0 0 0 0 1 0 0 0 0 0.384314 0 0 0 0 0.34902 0 0 0 0.1 0"/>
<feBlend mode="normal" in2="BackgroundImageFix" result="effect1_dropShadow_612_1101"/>
<feBlend mode="normal" in="SourceGraphic" in2="effect1_dropShadow_612_1101" result="shape"/>
</filter>
<filter id="filter6_d_612_1101" x="40" y="368" width="128" height="128" filterUnits="userSpaceOnUse" color-interpolation-filters="sRGB">
<feFlood flood-opacity="0" result="BackgroundImageFix"/>
<feColorMatrix in="SourceAlpha" type="matrix" values="0 0 0 0 0 0 0 0 0 0 0 0 0 0 0 0 0 0 127 0" result="hardAlpha"/>
<feOffset dy="20"/>
<feGaussianBlur stdDeviation="10"/>
<feComposite in2="hardAlpha" operator="out"/>
<feColorMatrix type="matrix" values="0 0 0 0 0.164706 0 0 0 0 0.435294 0 0 0 0 1 0 0 0 0.1 0"/>
<feBlend mode="normal" in2="BackgroundImageFix" result="effect1_dropShadow_612_1101"/>
<feBlend mode="normal" in="SourceGraphic" in2="effect1_dropShadow_612_1101" result="shape"/>
</filter>
<radialGradient id="paint0_radial_612_1101" cx="0" cy="0" r="1" gradientUnits="userSpaceOnUse" gradientTransform="translate(294.048 54) rotate(36.6357) scale(139.811 163.458)">
<stop stop-color="#FC790D"/>
<stop offset="1" stop-color="#FF9A23"/>
</radialGradient>
<linearGradient id="paint1_linear_612_1101" x1="341" y1="94.7857" x2="372.804" y2="83.234" gradientUnits="userSpaceOnUse">
<stop stop-color="white" stop-opacity="0"/>
<stop offset="1" stop-color="white"/>
</linearGradient>
<linearGradient id="paint2_linear_612_1101" x1="397" y1="94" x2="451" y2="94" gradientUnits="userSpaceOnUse">
<stop stop-color="white"/>
<stop offset="1" stop-color="white" stop-opacity="0.8"/>
</linearGradient>
<linearGradient id="paint3_linear_612_1101" x1="411" y1="95" x2="437" y2="95" gradientUnits="userSpaceOnUse">
<stop stop-color="white"/>
<stop offset="1" stop-color="white" stop-opacity="0.8"/>
</linearGradient>
<linearGradient id="paint4_linear_612_1101" x1="267" y1="94" x2="321" y2="94" gradientUnits="userSpaceOnUse">
<stop stop-color="white"/>
<stop offset="1" stop-color="white" stop-opacity="0.8"/>
</linearGradient>
<linearGradient id="paint5_linear_612_1101" x1="174" y1="394" x2="148" y2="526.5" gradientUnits="userSpaceOnUse">
<stop stop-color="#869BB9"/>
<stop offset="1" stop-color="#869BB9" stop-opacity="0"/>
</linearGradient>
<linearGradient id="paint6_linear_612_1101" x1="62.4906" y1="34.2" x2="154.124" y2="94.1366" gradientUnits="userSpaceOnUse">
<stop stop-color="#2DD64C"/>
<stop offset="1" stop-color="#58F473"/>
</linearGradient>
<radialGradient id="paint7_radial_612_1101" cx="0" cy="0" r="1" gradientUnits="userSpaceOnUse" gradientTransform="translate(87.914 144) rotate(61.2602) scale(100.364)">
<stop offset="0.00833341" stop-color="#2E2D2D"/>
<stop offset="0.98626" stop-color="#525252"/>
</radialGradient>
<radialGradient id="paint8_radial_612_1101" cx="0" cy="0" r="1" gradientUnits="userSpaceOnUse" gradientTransform="translate(82 263.333) rotate(62.5009) scale(86.2172)">
<stop stop-color="#FF5656"/>
<stop offset="1" stop-color="#FF9061"/>
</radialGradient>
<linearGradient id="paint9_linear_612_1101" x1="60" y1="368" x2="151.79" y2="451.851" gradientUnits="userSpaceOnUse">
<stop stop-color="#0555FF"/>
<stop offset="1" stop-color="#4380FF"/>
</linearGradient>
<linearGradient id="paint10_linear_612_1101" x1="62.4906" y1="482.2" x2="154.124" y2="542.137" gradientUnits="userSpaceOnUse">
<stop stop-color="#FFC700"/>
<stop offset="0.484375" stop-color="#FFE812"/>
<stop offset="1" stop-color="#FFE812"/>
</linearGradient>
<linearGradient id="paint11_linear_612_1101" x1="109" y1="500" x2="109" y2="568" gradientUnits="userSpaceOnUse">
<stop stop-color="#FBFBFD" stop-opacity="0"/>
<stop offset="0.553821" stop-color="#FBFBFD"/>
</linearGradient>
<clipPath id="clip0_612_1101">
<rect width="608" height="544" fill="white"/>
</clipPath>
</defs>
</svg>
