<svg width="600" height="565" viewBox="0 0 600 565" fill="none" xmlns="http://www.w3.org/2000/svg">
    <path d="M569.383 340.008C595.511 366.136 583.557 410.75 547.865 420.314L104.253 539.179C68.5612 548.743 35.9015 516.083 45.465 480.392L164.331 36.779C173.894 1.08764 218.508 -10.8666 244.636 15.2613L569.383 340.008Z" fill="#F0F4FD" />
    <g opacity="0.7">
        <line x1="78" y1="439" x2="201.85" y2="439" stroke="#0DE592" stroke-width="6" stroke-linecap="round" stroke-dasharray="0.2 25" />
        <line x1="78.0005" y1="411" x2="201.851" y2="411" stroke="#0DE592" stroke-width="6" stroke-linecap="round" stroke-dasharray="0.2 25" />
        <line x1="78" y1="467" x2="201.85" y2="467" stroke="#0DE592" stroke-width="6" stroke-linecap="round" stroke-dasharray="0.2 25" />
        <line x1="78" y1="495" x2="201.85" y2="495" stroke="#0DE592" stroke-width="6" stroke-linecap="round" stroke-dasharray="0.2 25" />
        <line x1="78" y1="523" x2="201.85" y2="523" stroke="#0DE592" stroke-width="6" stroke-linecap="round" stroke-dasharray="0.2 25" />
    </g>
    <g opacity="0.6">
        <line x1="416" y1="125.337" x2="416" y2="11.3374" stroke="#0555FF" stroke-width="6" stroke-linecap="round" stroke-dasharray="0.2 25" />
        <line x1="447.963" y1="125" x2="447.963" y2="11" stroke="#0555FF" stroke-width="6" stroke-linecap="round" stroke-dasharray="0.2 25" />
        <line x1="511.89" y1="125" x2="511.89" y2="11" stroke="#0555FF" stroke-width="6" stroke-linecap="round" stroke-dasharray="0.2 25" />
        <line x1="543.853" y1="125" x2="543.853" y2="11" stroke="#0555FF" stroke-width="6" stroke-linecap="round" stroke-dasharray="0.2 25" />
        <line x1="479.927" y1="125" x2="479.927" y2="11" stroke="#0555FF" stroke-width="6" stroke-linecap="round" stroke-dasharray="0.2 25" />
    </g>
    <g filter="url(#filter0_d_432_2572)">
        <circle cx="471" cy="505" r="21" fill="url(#paint0_linear_432_2572)" />
    </g>
    <g filter="url(#filter1_d_432_2572)">
        <rect x="121" y="71" width="345" height="433.434" rx="16" fill="white" />
        <rect x="121.5" y="71.5" width="344" height="432.434" rx="15.5" stroke="#F2F6FF" />
    </g>
    <g filter="url(#filter2_d_432_2572)">
        <rect x="178.864" y="128.864" width="246.741" height="91.7089" rx="10" fill="url(#paint1_linear_432_2572)" />
    </g>
    <rect x="229.085" y="155.066" width="70.8839" height="13.1013" rx="6.55063" fill="url(#paint2_linear_432_2572)" />
    <rect x="229.085" y="181.269" width="168.133" height="13.1013" rx="6.55063" fill="url(#paint3_linear_432_2572)" />
    <g filter="url(#filter3_d_432_2572)">
        <rect x="178.864" y="244.592" width="246.741" height="91.7089" rx="10" fill="url(#paint4_radial_432_2572)" />
    </g>
    <path d="M234.124 286.852C234.124 285.46 232.996 284.332 231.605 284.332C230.213 284.332 229.085 285.46 229.085 286.852V294.041C229.085 295.432 230.213 296.56 231.605 296.56C232.996 296.56 234.124 295.432 234.124 294.041V286.852ZM294.592 294.041C294.592 295.432 293.464 296.56 292.072 296.56C290.681 296.56 289.553 295.432 289.553 294.041V286.852C289.553 285.46 290.681 284.332 292.072 284.332C293.464 284.332 294.592 285.46 294.592 286.852V294.041ZM249.241 297.098C249.241 298.489 248.113 299.617 246.722 299.617C245.33 299.617 244.202 298.489 244.202 297.098V283.795C244.202 282.403 245.33 281.275 246.722 281.275C248.113 281.275 249.241 282.403 249.241 283.795V297.098ZM279.475 297.098C279.475 298.489 278.347 299.617 276.955 299.617C275.564 299.617 274.436 298.489 274.436 297.098V283.795C274.436 282.403 275.564 281.275 276.955 281.275C278.347 281.275 279.475 282.403 279.475 283.795V297.098ZM264.358 303.211C264.358 304.603 263.23 305.731 261.839 305.731C260.447 305.731 259.319 304.603 259.319 303.211V277.681C259.319 276.289 260.447 275.161 261.839 275.161C263.23 275.161 264.358 276.289 264.358 277.681V303.211Z" fill="url(#paint5_linear_432_2572)" />
    <path d="M308.365 286.852C308.365 285.46 307.237 284.332 305.845 284.332C304.454 284.332 303.326 285.46 303.326 286.852V294.041C303.326 295.432 304.454 296.56 305.845 296.56C307.237 296.56 308.365 295.432 308.365 294.041V286.852ZM368.832 294.041C368.832 295.432 367.704 296.56 366.313 296.56C364.921 296.56 363.793 295.432 363.793 294.041V286.852C363.793 285.46 364.921 284.332 366.313 284.332C367.704 284.332 368.832 285.46 368.832 286.852V294.041ZM323.482 297.098C323.482 298.489 322.354 299.617 320.962 299.617C319.571 299.617 318.443 298.489 318.443 297.098V283.795C318.443 282.403 319.571 281.275 320.962 281.275C322.354 281.275 323.482 282.403 323.482 283.795V297.098ZM353.715 297.098C353.715 298.489 352.587 299.617 351.196 299.617C349.804 299.617 348.676 298.489 348.676 297.098V283.795C348.676 282.403 349.804 281.275 351.196 281.275C352.587 281.275 353.715 282.403 353.715 283.795V297.098ZM338.599 303.211C338.599 304.603 337.471 305.731 336.079 305.731C334.688 305.731 333.56 304.603 333.56 303.211V277.681C333.56 276.289 334.688 275.161 336.079 275.161C337.471 275.161 338.599 276.289 338.599 277.681V303.211Z" fill="white" />
    <path d="M379.247 283.795V297.097C379.247 298.489 380.375 299.617 381.766 299.617C383.158 299.617 384.286 298.489 384.286 297.097V283.795C384.286 282.403 383.158 281.275 381.766 281.275C380.375 281.275 379.247 282.403 379.247 283.795Z" fill="white" />
    <path d="M394.363 286.852V294.041C394.363 295.432 395.491 296.56 396.883 296.56C398.274 296.56 399.402 295.432 399.402 294.041V286.852C399.402 285.46 398.274 284.332 396.883 284.332C395.491 284.332 394.363 285.46 394.363 286.852Z" fill="white" />
    <g filter="url(#filter4_d_432_2572)">
        <rect x="178.864" y="360.32" width="246.741" height="91.7089" rx="10" fill="url(#paint6_radial_432_2572)" />
    </g>
    <path d="M263.134 394.73C263.583 394.297 264.184 394.057 264.807 394.063C265.431 394.068 266.027 394.318 266.468 394.759C266.909 395.2 267.159 395.796 267.165 396.419C267.17 397.042 266.931 397.643 266.497 398.091C265.435 399.149 264.593 400.407 264.019 401.791C263.445 403.176 263.151 404.66 263.153 406.159C263.153 409.228 264.369 412.102 266.497 414.227C266.931 414.675 267.17 415.276 267.165 415.899C267.159 416.523 266.909 417.119 266.468 417.559C266.027 418 265.431 418.25 264.807 418.256C264.184 418.261 263.583 418.021 263.134 417.588C261.63 416.089 260.437 414.308 259.624 412.346C258.811 410.385 258.394 408.282 258.396 406.159C258.394 404.036 258.811 401.933 259.624 399.972C260.437 398.011 261.63 396.229 263.134 394.73ZM256.631 388.231C257.08 387.798 257.681 387.558 258.304 387.564C258.928 387.569 259.525 387.819 259.966 388.26C260.407 388.701 260.657 389.297 260.662 389.92C260.668 390.543 260.428 391.144 259.995 391.592C258.077 393.503 256.557 395.773 255.521 398.273C254.485 400.773 253.954 403.453 253.958 406.159C253.958 411.698 256.153 416.887 259.995 420.726C260.222 420.946 260.403 421.208 260.528 421.498C260.652 421.788 260.718 422.1 260.721 422.415C260.723 422.731 260.663 423.044 260.544 423.336C260.424 423.628 260.247 423.894 260.024 424.117C259.801 424.34 259.535 424.517 259.243 424.636C258.95 424.756 258.637 424.816 258.321 424.813C258.006 424.81 257.694 424.745 257.403 424.62C257.113 424.496 256.851 424.315 256.631 424.088C254.272 421.736 252.401 418.941 251.126 415.864C249.851 412.788 249.197 409.489 249.201 406.159C249.201 399.344 251.905 392.952 256.631 388.231ZM250.128 381.729C250.577 381.297 251.178 381.057 251.802 381.063C252.426 381.069 253.022 381.32 253.463 381.761C253.903 382.202 254.153 382.798 254.158 383.421C254.163 384.045 253.923 384.645 253.489 385.093C250.717 387.856 248.519 391.14 247.021 394.755C245.522 398.37 244.754 402.246 244.76 406.159C244.76 414.17 247.936 421.672 253.489 427.225C253.923 427.673 254.163 428.274 254.158 428.897C254.153 429.52 253.903 430.117 253.463 430.558C253.022 430.999 252.426 431.249 251.802 431.255C251.178 431.261 250.577 431.022 250.128 430.589C246.914 427.384 244.364 423.576 242.626 419.384C240.889 415.191 239.997 410.697 240.003 406.159C240.003 396.874 243.69 388.164 250.128 381.729ZM348.977 394.73C350.481 396.229 351.674 398.011 352.487 399.972C353.3 401.933 353.717 404.036 353.715 406.159C353.717 408.282 353.3 410.385 352.487 412.346C351.674 414.308 350.481 416.089 348.977 417.588C348.528 418.021 347.927 418.261 347.304 418.256C346.68 418.25 346.083 418 345.642 417.559C345.201 417.119 344.951 416.523 344.946 415.899C344.94 415.276 345.18 414.675 345.613 414.227C346.676 413.169 347.518 411.912 348.092 410.527C348.666 409.142 348.96 407.658 348.958 406.159C348.958 403.09 347.742 400.216 345.613 398.091C345.386 397.872 345.205 397.61 345.08 397.32C344.956 397.03 344.89 396.718 344.887 396.402C344.885 396.086 344.945 395.773 345.064 395.481C345.184 395.189 345.361 394.924 345.584 394.7C345.807 394.477 346.073 394.301 346.365 394.181C346.657 394.062 346.971 394.002 347.286 394.004C347.602 394.007 347.914 394.073 348.205 394.197C348.495 394.322 348.757 394.503 348.977 394.73ZM355.479 388.231C357.839 390.583 359.709 393.377 360.985 396.454C362.26 399.531 362.914 402.829 362.91 406.159C362.91 412.974 360.206 419.367 355.479 424.088C355.031 424.521 354.43 424.76 353.806 424.755C353.183 424.749 352.586 424.499 352.145 424.059C351.704 423.618 351.454 423.022 351.449 422.398C351.443 421.775 351.683 421.175 352.116 420.726C354.034 418.816 355.554 416.545 356.59 414.045C357.626 411.545 358.157 408.865 358.153 406.159C358.153 400.62 355.958 395.431 352.116 391.592C351.889 391.373 351.708 391.111 351.583 390.82C351.459 390.53 351.393 390.219 351.39 389.903C351.387 389.587 351.448 389.274 351.567 388.982C351.687 388.69 351.863 388.425 352.087 388.201C352.31 387.978 352.576 387.802 352.868 387.682C353.16 387.563 353.473 387.502 353.789 387.505C354.105 387.508 354.417 387.574 354.707 387.698C354.998 387.823 355.26 388.004 355.479 388.231ZM361.982 381.729C365.197 384.934 367.747 388.742 369.484 392.934C371.222 397.127 372.113 401.621 372.108 406.159C372.108 415.444 368.421 424.154 361.982 430.589C361.536 431.035 360.931 431.285 360.3 431.285C359.669 431.285 359.064 431.034 358.618 430.588C358.172 430.142 357.921 429.537 357.922 428.906C357.922 428.276 358.173 427.671 358.619 427.225C361.392 424.462 363.591 421.179 365.089 417.563C366.588 413.948 367.356 410.072 367.351 406.159C367.351 398.148 364.175 390.646 358.621 385.093C358.188 384.645 357.948 384.045 357.953 383.421C357.958 382.798 358.207 382.202 358.648 381.761C359.089 381.32 359.685 381.069 360.309 381.063C360.932 381.057 361.533 381.297 361.982 381.729Z" fill="url(#paint7_linear_432_2572)" />
    <path fill-rule="evenodd" clip-rule="evenodd" d="M283.674 406.174C283.674 418.234 293.45 428.01 305.51 428.01C317.569 428.01 327.345 418.234 327.345 406.174C327.345 394.114 317.569 384.339 305.51 384.339C293.45 384.339 283.674 394.114 283.674 406.174ZM304.744 397.969L312.243 402.724C312.731 403.034 313.132 403.463 313.41 403.971C313.689 404.478 313.834 405.048 313.834 405.628C313.834 406.208 313.689 406.778 313.41 407.285C313.132 407.793 312.731 408.222 312.243 408.532L304.744 413.287C304.228 413.615 303.633 413.797 303.022 413.815C302.412 413.833 301.807 413.686 301.272 413.39C300.737 413.093 300.291 412.658 299.98 412.13C299.669 411.602 299.505 410.999 299.505 410.386V400.87C299.505 400.257 299.669 399.654 299.98 399.126C300.291 398.597 300.737 398.163 301.272 397.866C301.807 397.57 302.412 397.423 303.022 397.441C303.633 397.459 304.228 397.641 304.744 397.969Z" fill="url(#paint8_linear_432_2572)" />
    <g filter="url(#filter5_bd_432_2572)">
        <circle cx="178.864" cy="174.718" r="24.019" fill="#BAF5C5" fill-opacity="0.45" />
    </g>
    <path d="M174.684 183.725L174.684 183.725L174.67 183.725C173.98 183.704 173.323 183.426 172.837 182.947C172.837 182.946 172.837 182.946 172.836 182.945L166.274 176.617L166.27 176.614L166.27 176.613L166.264 176.608C165.768 176.109 165.49 175.442 165.49 174.745C165.49 174.049 165.768 173.381 166.264 172.883L166.264 172.883L166.269 172.878L166.272 172.876L166.272 172.876L166.276 172.871L174.684 183.725ZM174.684 183.725L174.694 183.725L174.708 183.725C175.413 183.722 176.089 183.453 176.595 182.974L191.407 170.258L191.413 170.253L191.418 170.248L191.435 170.232L191.245 170.035M174.684 183.725L191.245 170.035M191.245 170.035L191.435 170.232C191.689 169.987 191.891 169.696 192.029 169.374C192.167 169.053 192.238 168.707 192.238 168.358C192.238 168.009 192.167 167.664 192.029 167.343C191.892 167.023 191.692 166.734 191.441 166.491M191.245 170.035L191.441 166.491M191.441 166.491C191.191 166.244 190.894 166.049 190.567 165.915C190.237 165.78 189.883 165.711 189.525 165.711C189.168 165.711 188.814 165.78 188.484 165.915C188.169 166.044 187.882 166.23 187.638 166.464L174.754 177.395L170.115 172.871C170.115 172.871 170.115 172.871 170.115 172.871C169.863 172.625 169.563 172.43 169.234 172.297C168.905 172.165 168.552 172.096 168.196 172.096C167.839 172.096 167.487 172.165 167.157 172.297L167.259 172.551L167.157 172.297C166.828 172.43 166.528 172.625 166.276 172.871L191.441 166.491Z" fill="white" stroke="#A4FFB4" stroke-width="0.545886" />
    <g filter="url(#filter6_bd_432_2572)">
        <circle cx="178.864" cy="290.446" r="24.019" fill="#FF987E" fill-opacity="0.5" />
    </g>
    <path d="M174.684 299.453L174.684 299.453L174.67 299.453C173.98 299.432 173.323 299.154 172.837 298.675C172.837 298.674 172.837 298.674 172.836 298.673L166.274 292.346L166.27 292.342L166.27 292.342L166.264 292.336C165.768 291.837 165.49 291.17 165.49 290.473C165.49 289.777 165.768 289.109 166.264 288.611L166.264 288.611L166.269 288.606L166.272 288.604L166.272 288.604L166.276 288.599L174.684 299.453ZM174.684 299.453L174.694 299.453L174.708 299.453C175.413 299.45 176.089 299.181 176.595 298.702L191.407 285.986L191.413 285.981L191.418 285.976L191.435 285.96L191.245 285.763M174.684 299.453L191.245 285.763M191.245 285.763L191.435 285.96C191.689 285.715 191.891 285.424 192.029 285.102C192.167 284.781 192.238 284.435 192.238 284.086C192.238 283.737 192.167 283.392 192.029 283.071C191.892 282.751 191.692 282.462 191.441 282.219M191.245 285.763L191.441 282.219M191.441 282.219C191.191 281.972 190.894 281.777 190.567 281.643C190.237 281.509 189.883 281.439 189.525 281.439C189.168 281.439 188.814 281.509 188.484 281.643C188.169 281.772 187.882 281.958 187.638 282.192L174.754 293.123L170.115 288.599C170.115 288.599 170.115 288.599 170.115 288.599C169.863 288.353 169.563 288.158 169.234 288.025C168.905 287.893 168.552 287.824 168.196 287.824C167.839 287.824 167.487 287.893 167.157 288.025L167.259 288.279L167.157 288.025C166.828 288.158 166.528 288.353 166.276 288.599L191.441 282.219Z" fill="white" stroke="#FB8B87" stroke-width="0.545886" />
    <g filter="url(#filter7_bd_432_2572)">
        <circle cx="178.864" cy="406.174" r="24.019" fill="#FFD4B0" fill-opacity="0.44" />
    </g>
    <path d="M174.684 415.181L174.684 415.181L174.67 415.181C173.98 415.16 173.323 414.882 172.837 414.402C172.837 414.402 172.837 414.402 172.836 414.401L166.274 408.073L166.27 408.069L166.27 408.069L166.264 408.063C165.768 407.565 165.49 406.897 165.49 406.201C165.49 405.505 165.768 404.837 166.264 404.338L166.264 404.338L166.269 404.334L166.272 404.331L166.272 404.331L166.276 404.327L174.684 415.181ZM174.684 415.181L174.694 415.181L174.708 415.181C175.413 415.178 176.089 414.909 176.595 414.43L191.407 401.714L191.413 401.709L191.418 401.703L191.435 401.688L191.245 401.491M174.684 415.181L191.245 401.491M191.245 401.491L191.435 401.688C191.689 401.443 191.891 401.152 192.029 400.83C192.167 400.508 192.238 400.163 192.238 399.814C192.238 399.465 192.167 399.12 192.029 398.798C191.892 398.479 191.692 398.19 191.441 397.947M191.245 401.491L191.441 397.947M191.441 397.947C191.191 397.7 190.894 397.505 190.567 397.371C190.237 397.236 189.883 397.167 189.525 397.167C189.168 397.167 188.814 397.236 188.484 397.371C188.169 397.5 187.882 397.686 187.638 397.919L174.754 408.851L170.115 404.327C170.115 404.327 170.115 404.327 170.115 404.327C169.863 404.081 169.563 403.886 169.234 403.753C168.905 403.62 168.552 403.552 168.196 403.552C167.839 403.552 167.487 403.62 167.157 403.753L167.259 404.006L167.157 403.753C166.828 403.886 166.528 404.081 166.276 404.327L191.441 397.947Z" fill="white" stroke="#FFD3A4" stroke-width="0.545886" />
    <g filter="url(#filter8_d_432_2572)">
        <rect x="75" y="22" width="94" height="94" rx="20" fill="url(#paint9_linear_432_2572)" />
        <path fill-rule="evenodd" clip-rule="evenodd" d="M99.979 54.5295C100.384 54.0243 100.845 53.5537 101.353 53.1316C101.355 53.1289 101.358 53.1273 101.36 53.1259C101.364 53.1236 101.367 53.122 101.367 53.1177L101.47 53.0278H101.476L101.95 52.6333C101.999 52.5939 102.052 52.558 102.103 52.5231L102.146 52.493L102.163 52.481H102.157L104.451 50.5503L104.499 50.5087L119.075 38.8825C120.497 37.6922 122.572 37.706 123.98 38.924L138.309 50.7579L138.439 50.8755L141.338 53.3738H141.345L141.771 53.7406C142.073 54.0035 142.355 54.2803 142.623 54.571C144.299 56.4049 145.247 58.8201 145.247 61.3461V77.1868C145.247 81.1315 142.952 84.7024 139.38 86.3218L125.388 92.6609L124.99 92.8408C124.945 92.8615 124.9 92.8806 124.856 92.8996C124.837 92.9076 124.818 92.9157 124.799 92.9238L124.723 92.9578C124.722 92.958 124.722 92.9582 124.722 92.9584C124.722 92.9584 124.722 92.9584 124.722 92.9584C124.717 92.9627 124.716 92.9643 124.713 92.965C124.712 92.9653 124.71 92.9653 124.708 92.9653C124.708 92.9654 124.707 92.9655 124.707 92.9656L121.108 94.557L107.796 99.7612C106.106 100.426 104.471 98.6885 105.206 97.0207L108.476 89.6782L108.84 88.6885L108.841 88.6859L103.62 86.3218C100.048 84.7024 97.7603 81.1315 97.7603 77.1868V60.8409C97.7603 58.5225 98.5571 56.3011 99.979 54.5295ZM104.087 71.0761C104.787 77.7474 109.754 81.9619 121.5 82.1418C133.246 81.9619 138.219 77.7543 138.913 71.0831C139.325 67.1246 138.996 63.2423 138.652 60.744C138.419 59.0277 137.278 57.5606 135.664 56.9516C129.125 54.5018 124.66 54.3911 121.507 54.3911C117.227 54.3911 113.525 54.6333 107.329 56.9516C105.715 57.5606 104.574 59.0208 104.341 60.744C104.004 63.2353 103.675 67.1177 104.087 71.0761ZM94.8333 44H95.6667C95.8452 44 96 44.0885 96 44.1906V59.0069H96.517C96.6269 59.0069 96.7093 59.0969 96.7093 59.2007V72.3494C96.7093 72.4601 96.62 72.5432 96.517 72.5432H94.4631C93.6594 72.5432 93.0069 71.8858 93 71.0761V60.4809C93 59.6643 93.6594 59.0069 94.4631 59.0069H94.5V44.1906C94.5 44.0885 94.6429 44 94.8333 44ZM146.483 72.5916H148.537C149.341 72.5916 149.993 71.9342 150 71.1245V60.5294C150 59.7128 149.341 59.0553 148.537 59.0553H146.483C146.373 59.0553 146.291 59.1453 146.291 59.2491V72.3979C146.291 72.5086 146.38 72.5916 146.483 72.5916ZM115.428 69.9685H113.408C112.962 69.9685 112.598 69.6017 112.598 69.1518V62.8266C112.598 62.3768 112.962 62.01 113.408 62.01H115.428C115.874 62.01 116.238 62.3768 116.238 62.8266V69.1518C116.238 69.6017 115.874 69.9685 115.428 69.9685ZM129.599 69.9685H127.579C127.133 69.9685 126.769 69.6017 126.769 69.1518V62.8266C126.769 62.3768 127.133 62.01 127.579 62.01H129.599C130.045 62.01 130.409 62.3768 130.409 62.8266V69.1518C130.409 69.6017 130.045 69.9685 129.599 69.9685ZM121.521 76.6958C122.867 76.6958 124.131 76.2736 125.003 75.547C125.223 75.3601 125.257 75.0279 125.072 74.8065C124.886 74.585 124.557 74.5504 124.337 74.7373C123.65 75.3117 122.626 75.6439 121.527 75.6439C120.408 75.6439 119.37 75.3048 118.69 74.7096C118.471 74.5228 118.141 74.5435 117.955 74.765C117.77 74.9864 117.791 75.3186 118.01 75.5055C118.869 76.2667 120.154 76.6958 121.521 76.6958Z" fill="url(#paint10_linear_432_2572)" />
    </g>
    <defs>
        <filter id="filter0_d_432_2572" x="440" y="484" width="62" height="72" filterUnits="userSpaceOnUse" color-interpolation-filters="sRGB">
            <feFlood flood-opacity="0" result="BackgroundImageFix" />
            <feColorMatrix in="SourceAlpha" type="matrix" values="0 0 0 0 0 0 0 0 0 0 0 0 0 0 0 0 0 0 127 0" result="hardAlpha" />
            <feMorphology radius="10" operator="erode" in="SourceAlpha" result="effect1_dropShadow_432_2572" />
            <feOffset dy="20" />
            <feGaussianBlur stdDeviation="10" />
            <feColorMatrix type="matrix" values="0 0 0 0 0.0352941 0 0 0 0 0.866667 0 0 0 0 0.545098 0 0 0 0.2 0" />
            <feBlend mode="normal" in2="BackgroundImageFix" result="effect1_dropShadow_432_2572" />
            <feBlend mode="normal" in="SourceGraphic" in2="effect1_dropShadow_432_2572" result="shape" />
        </filter>
        <filter id="filter1_d_432_2572" x="81" y="51" width="425" height="513.434" filterUnits="userSpaceOnUse" color-interpolation-filters="sRGB">
            <feFlood flood-opacity="0" result="BackgroundImageFix" />
            <feColorMatrix in="SourceAlpha" type="matrix" values="0 0 0 0 0 0 0 0 0 0 0 0 0 0 0 0 0 0 127 0" result="hardAlpha" />
            <feMorphology radius="20" operator="erode" in="SourceAlpha" result="effect1_dropShadow_432_2572" />
            <feOffset dy="20" />
            <feGaussianBlur stdDeviation="30" />
            <feColorMatrix type="matrix" values="0 0 0 0 0.0196078 0 0 0 0 0.333333 0 0 0 0 1 0 0 0 0.1 0" />
            <feBlend mode="normal" in2="BackgroundImageFix" result="effect1_dropShadow_432_2572" />
            <feBlend mode="normal" in="SourceGraphic" in2="effect1_dropShadow_432_2572" result="shape" />
        </filter>
        <filter id="filter2_d_432_2572" x="168.864" y="128.864" width="266.74" height="121.709" filterUnits="userSpaceOnUse" color-interpolation-filters="sRGB">
            <feFlood flood-opacity="0" result="BackgroundImageFix" />
            <feColorMatrix in="SourceAlpha" type="matrix" values="0 0 0 0 0 0 0 0 0 0 0 0 0 0 0 0 0 0 127 0" result="hardAlpha" />
            <feMorphology radius="10" operator="erode" in="SourceAlpha" result="effect1_dropShadow_432_2572" />
            <feOffset dy="20" />
            <feGaussianBlur stdDeviation="10" />
            <feColorMatrix type="matrix" values="0 0 0 0 0.0352941 0 0 0 0 0.866667 0 0 0 0 0.545098 0 0 0 0.1 0" />
            <feBlend mode="normal" in2="BackgroundImageFix" result="effect1_dropShadow_432_2572" />
            <feBlend mode="normal" in="SourceGraphic" in2="effect1_dropShadow_432_2572" result="shape" />
        </filter>
        <filter id="filter3_d_432_2572" x="168.864" y="244.592" width="266.74" height="121.709" filterUnits="userSpaceOnUse" color-interpolation-filters="sRGB">
            <feFlood flood-opacity="0" result="BackgroundImageFix" />
            <feColorMatrix in="SourceAlpha" type="matrix" values="0 0 0 0 0 0 0 0 0 0 0 0 0 0 0 0 0 0 127 0" result="hardAlpha" />
            <feMorphology radius="10" operator="erode" in="SourceAlpha" result="effect1_dropShadow_432_2572" />
            <feOffset dy="20" />
            <feGaussianBlur stdDeviation="10" />
            <feColorMatrix type="matrix" values="0 0 0 0 1 0 0 0 0 0.384314 0 0 0 0 0.34902 0 0 0 0.1 0" />
            <feBlend mode="normal" in2="BackgroundImageFix" result="effect1_dropShadow_432_2572" />
            <feBlend mode="normal" in="SourceGraphic" in2="effect1_dropShadow_432_2572" result="shape" />
        </filter>
        <filter id="filter4_d_432_2572" x="168.864" y="360.32" width="266.74" height="121.709" filterUnits="userSpaceOnUse" color-interpolation-filters="sRGB">
            <feFlood flood-opacity="0" result="BackgroundImageFix" />
            <feColorMatrix in="SourceAlpha" type="matrix" values="0 0 0 0 0 0 0 0 0 0 0 0 0 0 0 0 0 0 127 0" result="hardAlpha" />
            <feMorphology radius="10" operator="erode" in="SourceAlpha" result="effect1_dropShadow_432_2572" />
            <feOffset dy="20" />
            <feGaussianBlur stdDeviation="10" />
            <feColorMatrix type="matrix" values="0 0 0 0 0.988235 0 0 0 0 0.47451 0 0 0 0 0.0509804 0 0 0 0.1 0" />
            <feBlend mode="normal" in2="BackgroundImageFix" result="effect1_dropShadow_432_2572" />
            <feBlend mode="normal" in="SourceGraphic" in2="effect1_dropShadow_432_2572" result="shape" />
        </filter>
        <filter id="filter5_bd_432_2572" x="134.845" y="141.965" width="88.0381" height="96.7723" filterUnits="userSpaceOnUse" color-interpolation-filters="sRGB">
            <feFlood flood-opacity="0" result="BackgroundImageFix" />
            <feGaussianBlur in="BackgroundImage" stdDeviation="4.36709" />
            <feComposite in2="SourceAlpha" operator="in" result="effect1_backgroundBlur_432_2572" />
            <feColorMatrix in="SourceAlpha" type="matrix" values="0 0 0 0 0 0 0 0 0 0 0 0 0 0 0 0 0 0 127 0" result="hardAlpha" />
            <feOffset dy="20" />
            <feGaussianBlur stdDeviation="10" />
            <feColorMatrix type="matrix" values="0 0 0 0 0.0509804 0 0 0 0 0.894118 0 0 0 0 0.572549 0 0 0 0.1 0" />
            <feBlend mode="normal" in2="effect1_backgroundBlur_432_2572" result="effect2_dropShadow_432_2572" />
            <feBlend mode="normal" in="SourceGraphic" in2="effect2_dropShadow_432_2572" result="shape" />
        </filter>
        <filter id="filter6_bd_432_2572" x="134.845" y="256.601" width="88.0381" height="97.864" filterUnits="userSpaceOnUse" color-interpolation-filters="sRGB">
            <feFlood flood-opacity="0" result="BackgroundImageFix" />
            <feGaussianBlur in="BackgroundImage" stdDeviation="4.91297" />
            <feComposite in2="SourceAlpha" operator="in" result="effect1_backgroundBlur_432_2572" />
            <feColorMatrix in="SourceAlpha" type="matrix" values="0 0 0 0 0 0 0 0 0 0 0 0 0 0 0 0 0 0 127 0" result="hardAlpha" />
            <feOffset dy="20" />
            <feGaussianBlur stdDeviation="10" />
            <feColorMatrix type="matrix" values="0 0 0 0 1 0 0 0 0 0.380392 0 0 0 0 0.34902 0 0 0 0.1 0" />
            <feBlend mode="normal" in2="effect1_backgroundBlur_432_2572" result="effect2_dropShadow_432_2572" />
            <feBlend mode="normal" in="SourceGraphic" in2="effect2_dropShadow_432_2572" result="shape" />
        </filter>
        <filter id="filter7_bd_432_2572" x="133.01" y="367.962" width="91.709" height="105.902" filterUnits="userSpaceOnUse" color-interpolation-filters="sRGB">
            <feFlood flood-opacity="0" result="BackgroundImageFix" />
            <feGaussianBlur in="BackgroundImage" stdDeviation="7.09652" />
            <feComposite in2="SourceAlpha" operator="in" result="effect1_backgroundBlur_432_2572" />
            <feColorMatrix in="SourceAlpha" type="matrix" values="0 0 0 0 0 0 0 0 0 0 0 0 0 0 0 0 0 0 127 0" result="hardAlpha" />
            <feOffset dy="21.8354" />
            <feGaussianBlur stdDeviation="10.9177" />
            <feColorMatrix type="matrix" values="0 0 0 0 1 0 0 0 0 0.639216 0 0 0 0 0.211765 0 0 0 0.1 0" />
            <feBlend mode="normal" in2="effect1_backgroundBlur_432_2572" result="effect2_dropShadow_432_2572" />
            <feBlend mode="normal" in="SourceGraphic" in2="effect2_dropShadow_432_2572" result="shape" />
        </filter>
        <filter id="filter8_d_432_2572" x="55" y="22" width="134" height="134" filterUnits="userSpaceOnUse" color-interpolation-filters="sRGB">
            <feFlood flood-opacity="0" result="BackgroundImageFix" />
            <feColorMatrix in="SourceAlpha" type="matrix" values="0 0 0 0 0 0 0 0 0 0 0 0 0 0 0 0 0 0 127 0" result="hardAlpha" />
            <feOffset dy="20" />
            <feGaussianBlur stdDeviation="10" />
            <feComposite in2="hardAlpha" operator="out" />
            <feColorMatrix type="matrix" values="0 0 0 0 0.164706 0 0 0 0 0.435294 0 0 0 0 1 0 0 0 0.1 0" />
            <feBlend mode="normal" in2="BackgroundImageFix" result="effect1_dropShadow_432_2572" />
            <feBlend mode="normal" in="SourceGraphic" in2="effect1_dropShadow_432_2572" result="shape" />
        </filter>
        <linearGradient id="paint0_linear_432_2572" x1="451.189" y1="485.05" x2="494.923" y2="513.656" gradientUnits="userSpaceOnUse">
            <stop stop-color="#07D988" />
            <stop offset="1" stop-color="#15F59F" />
        </linearGradient>
        <linearGradient id="paint1_linear_432_2572" x1="185.847" y1="131.157" x2="275.39" y2="288.736" gradientUnits="userSpaceOnUse">
            <stop stop-color="#07D988" />
            <stop offset="1" stop-color="#15F59F" />
        </linearGradient>
        <linearGradient id="paint2_linear_432_2572" x1="229.085" y1="161.617" x2="299.969" y2="161.617" gradientUnits="userSpaceOnUse">
            <stop stop-color="white" />
            <stop offset="1" stop-color="white" stop-opacity="0.6" />
        </linearGradient>
        <linearGradient id="paint3_linear_432_2572" x1="229.085" y1="187.82" x2="395.586" y2="187.82" gradientUnits="userSpaceOnUse">
            <stop stop-color="white" />
            <stop offset="1" stop-color="white" stop-opacity="0.6" />
        </linearGradient>
        <radialGradient id="paint4_radial_432_2572" cx="0" cy="0" r="1" gradientUnits="userSpaceOnUse" gradientTransform="translate(240.549 252.234) rotate(35.5276) scale(137.154 158.368)">
            <stop stop-color="#FF5656" />
            <stop offset="1" stop-color="#FF9061" />
        </radialGradient>
        <linearGradient id="paint5_linear_432_2572" x1="298.959" y1="290.446" x2="220.351" y2="290.446" gradientUnits="userSpaceOnUse">
            <stop stop-color="white" />
            <stop offset="1" stop-color="white" stop-opacity="0" />
        </linearGradient>
        <radialGradient id="paint6_radial_432_2572" cx="0" cy="0" r="1" gradientUnits="userSpaceOnUse" gradientTransform="translate(237.612 367.962) rotate(35.5276) scale(137.154 158.368)">
            <stop stop-color="#FF9A23" />
            <stop offset="1" stop-color="#FFC37D" />
        </radialGradient>
        <linearGradient id="paint7_linear_432_2572" x1="240.003" y1="406.174" x2="372.108" y2="406.174" gradientUnits="userSpaceOnUse">
            <stop stop-color="white" />
            <stop offset="0.196709" stop-color="white" stop-opacity="0.4" />
            <stop offset="0.814893" stop-color="white" stop-opacity="0.4" />
            <stop offset="1" stop-color="white" />
        </linearGradient>
        <linearGradient id="paint8_linear_432_2572" x1="283.674" y1="406.174" x2="327.345" y2="406.174" gradientUnits="userSpaceOnUse">
            <stop stop-color="white" />
            <stop offset="1" stop-color="white" stop-opacity="0.6" />
        </linearGradient>
        <linearGradient id="paint9_linear_432_2572" x1="99.7634" y1="22" x2="140.316" y2="114.167" gradientUnits="userSpaceOnUse">
            <stop stop-color="#0555FF" />
            <stop offset="1" stop-color="#4380FF" />
        </linearGradient>
        <linearGradient id="paint10_linear_432_2572" x1="93.4317" y1="37.4452" x2="144.177" y2="97.6602" gradientUnits="userSpaceOnUse">
            <stop offset="0.474963" stop-color="#FCFCFC" />
            <stop offset="1" stop-color="#FCFCFC" stop-opacity="0.6" />
        </linearGradient>
    </defs>
</svg>
    