<svg width="600" height="544" viewBox="0 0 600 544" fill="none" xmlns="http://www.w3.org/2000/svg">
    <path d="M342.42 288.971L343.278 288.119C354.355 281.687 363.642 272.616 370.301 261.726C376.96 250.837 380.78 238.472 381.416 225.749C382.37 182.686 344.04 146.437 295.604 145.491C247.168 144.544 206.932 178.522 205.978 221.206C205.025 263.89 243.354 300.517 291.79 301.464H297.321C302.78 305.32 308.481 308.829 314.388 311.969C323.44 316.958 333.592 319.656 343.945 319.825C353.48 318.878 355.005 312.916 353.48 309.698C351.954 306.48 348.426 306.48 345.661 304.682C342.68 303.145 340.249 300.732 338.701 297.773C338.22 296.896 337.947 295.921 337.904 294.923C337.862 293.925 338.051 292.931 338.456 292.017C338.861 291.103 339.472 290.293 340.242 289.65C341.012 289.007 341.92 288.548 342.896 288.308" fill="#F0F4FD" />
    <path d="M137.246 421.754C115.578 400.142 98.394 374.461 86.6821 346.187C74.9703 317.913 68.9612 287.604 69.0002 257C69.0002 128.314 173.314 24 302 24C430.686 24 535 128.314 535 257C535 385.686 430.686 490 302 490H69.0002L137.246 421.754Z" fill="#F0F4FD" />
    <g filter="url(#filter0_d_647_213)">
        <circle cx="83" cy="380" r="16" fill="url(#paint0_linear_647_213)" />
    </g>
    <line x1="90" y1="69" x2="213.85" y2="69" stroke="#FC790D" stroke-opacity="0.5" stroke-width="6" stroke-linecap="round" stroke-dasharray="0.2 25" />
    <line x1="90" y1="41" x2="213.85" y2="41" stroke="#FC790D" stroke-opacity="0.5" stroke-width="6" stroke-linecap="round" stroke-dasharray="0.2 25" />
    <line x1="90" y1="97" x2="213.85" y2="97" stroke="#FC790D" stroke-opacity="0.5" stroke-width="6" stroke-linecap="round" stroke-dasharray="0.2 25" />
    <line x1="90" y1="125" x2="213.85" y2="125" stroke="#FC790D" stroke-opacity="0.5" stroke-width="6" stroke-linecap="round" stroke-dasharray="0.2 25" />
    <line x1="90" y1="153" x2="213.85" y2="153" stroke="#FC790D" stroke-opacity="0.5" stroke-width="6" stroke-linecap="round" stroke-dasharray="0.2 25" />
    <g opacity="0.6">
        <line x1="381" y1="476.337" x2="381" y2="362.337" stroke="#0555FF" stroke-opacity="0.5" stroke-width="6" stroke-linecap="round" stroke-dasharray="0.2 25" />
        <line x1="412.963" y1="476" x2="412.963" y2="362" stroke="#0555FF" stroke-opacity="0.5" stroke-width="6" stroke-linecap="round" stroke-dasharray="0.2 25" />
        <line x1="476.89" y1="476" x2="476.89" y2="362" stroke="#0555FF" stroke-opacity="0.5" stroke-width="6" stroke-linecap="round" stroke-dasharray="0.2 25" />
        <line x1="508.854" y1="476" x2="508.854" y2="362" stroke="#0555FF" stroke-opacity="0.5" stroke-width="6" stroke-linecap="round" stroke-dasharray="0.2 25" />
        <line x1="444.927" y1="476" x2="444.927" y2="362" stroke="#0555FF" stroke-opacity="0.5" stroke-width="6" stroke-linecap="round" stroke-dasharray="0.2 25" />
    </g>
    <circle opacity="0.3" cx="404" cy="236" r="154" stroke="#869BB9" stroke-linecap="round" stroke-dasharray="2 4" />
    <circle opacity="0.3" cx="370" cy="254" r="191" stroke="#869BB9" stroke-linecap="round" stroke-dasharray="2 4" />
    <g filter="url(#filter1_d_647_213)">
        <rect x="153" y="380.119" width="278" height="82.7381" rx="13.2381" fill="white" />
        <rect opacity="0.3" x="232.429" y="401.631" width="70.3274" height="14.8929" rx="7.44643" fill="#ECF1FD" />
        <rect opacity="0.3" x="232.429" y="426.452" width="174.577" height="14.8929" rx="7.44643" fill="#ECF1FD" />
        <ellipse opacity="0.3" cx="196.437" cy="421.488" rx="21.0982" ry="21.5119" fill="#ECF1FD" />
        <path d="M190.767 416L193.983 412.785C194.178 412.59 194.178 412.276 193.983 412.083C193.789 411.888 193.475 411.888 193.282 412.083L190.065 415.297L186.847 412.081C186.653 411.887 186.339 411.887 186.146 412.081C185.951 412.276 185.951 412.59 186.146 412.784L189.362 415.999L186.146 419.216C185.951 419.41 185.951 419.725 186.146 419.918C186.243 420.015 186.37 420.063 186.497 420.063C186.624 420.063 186.75 420.015 186.847 419.918L190.065 416.703L193.282 419.919C193.379 420.017 193.505 420.065 193.632 420.065C193.76 420.065 193.886 420.017 193.983 419.919C194.178 419.725 194.178 419.41 193.983 419.217L190.767 416Z" fill="white" stroke="white" stroke-width="0.677419" />
        <path d="M203.639 416L206.854 412.785C207.049 412.59 207.049 412.276 206.854 412.083C206.66 411.888 206.346 411.888 206.153 412.083L202.936 415.297L199.719 412.081C199.524 411.887 199.21 411.887 199.017 412.081C198.823 412.276 198.823 412.59 199.017 412.784L202.233 415.999L199.017 419.216C198.823 419.41 198.823 419.725 199.017 419.918C199.114 420.015 199.242 420.063 199.368 420.063C199.495 420.063 199.621 420.015 199.719 419.918L202.936 416.703L206.153 419.919C206.25 420.017 206.376 420.065 206.503 420.065C206.631 420.065 206.757 420.017 206.854 419.919C207.049 419.725 207.049 419.41 206.854 419.217L203.639 416Z" fill="white" stroke="white" stroke-width="0.677419" />
        <rect x="153.414" y="380.533" width="277.173" height="81.9107" rx="12.8244" stroke="#F2F6FF" stroke-width="0.827381" />
    </g>
    <g filter="url(#filter2_d_647_213)">
        <rect x="128" y="314" width="328" height="100" rx="16" fill="white" />
        <rect opacity="0.3" x="224" y="340" width="85" height="18" rx="9" fill="#ECF1FD" />
        <rect opacity="0.3" x="224" y="370" width="211" height="18" rx="9" fill="#ECF1FD" />
        <ellipse opacity="0.3" cx="180.5" cy="364" rx="25.5" ry="26" fill="#ECF1FD" />
        <path d="M172.038 359L176.785 354.254C177.072 353.967 177.072 353.502 176.785 353.217C176.498 352.93 176.034 352.93 175.749 353.217L171 357.962L166.251 353.215C165.964 352.928 165.5 352.928 165.215 353.215C164.928 353.502 164.928 353.967 165.215 354.252L169.962 358.999L165.215 363.747C164.928 364.034 164.928 364.498 165.215 364.784C165.359 364.927 165.547 364.998 165.733 364.998C165.921 364.998 166.108 364.927 166.251 364.784L171 360.037L175.749 364.786C175.892 364.929 176.079 365 176.267 365C176.455 365 176.641 364.929 176.785 364.786C177.072 364.498 177.072 364.034 176.785 363.749L172.038 359Z" fill="white" stroke="white" />
        <path d="M191.038 359L195.785 354.254C196.072 353.967 196.072 353.502 195.785 353.217C195.498 352.93 195.034 352.93 194.749 353.217L190 357.962L185.251 353.215C184.964 352.928 184.5 352.928 184.215 353.215C183.928 353.502 183.928 353.967 184.215 354.252L188.962 358.999L184.215 363.747C183.928 364.034 183.928 364.498 184.215 364.784C184.359 364.927 184.547 364.998 184.733 364.998C184.921 364.998 185.108 364.927 185.251 364.784L190 360.037L194.749 364.786C194.892 364.929 195.079 365 195.267 365C195.455 365 195.641 364.929 195.785 364.786C196.072 364.498 196.072 364.034 195.785 363.749L191.038 359Z" fill="white" stroke="white" />
        <rect x="128.5" y="314.5" width="327" height="99" rx="15.5" stroke="#F2F6FF" />
    </g>
    <g filter="url(#filter3_d_647_213)">
        <rect x="153" y="57.1431" width="278" height="82.7381" rx="13.2381" fill="white" />
        <rect opacity="0.3" x="232.429" y="78.6548" width="70.3274" height="14.8929" rx="7.44643" fill="#ECF1FD" />
        <rect opacity="0.3" x="232.429" y="103.476" width="174.577" height="14.8929" rx="7.44643" fill="#ECF1FD" />
        <ellipse opacity="0.3" cx="196.437" cy="98.5119" rx="21.0982" ry="21.5119" fill="#ECF1FD" />
        <path d="M190.767 93.0004L193.983 89.7849C194.178 89.5904 194.178 89.2759 193.983 89.0827C193.789 88.8882 193.475 88.8882 193.282 89.0827L190.065 92.2969L186.847 89.0814C186.653 88.8869 186.339 88.8869 186.146 89.0814C185.951 89.2759 185.951 89.5904 186.146 89.7836L189.362 92.9991L186.146 96.2159C185.951 96.4104 185.951 96.7248 186.146 96.9181C186.243 97.0153 186.37 97.0633 186.497 97.0633C186.624 97.0633 186.75 97.0153 186.847 96.9181L190.065 93.7026L193.282 96.9193C193.379 97.0166 193.505 97.0646 193.632 97.0646C193.76 97.0646 193.886 97.0166 193.983 96.9193C194.178 96.7248 194.178 96.4104 193.983 96.2171L190.767 93.0004Z" fill="white" stroke="white" stroke-width="0.677419" />
        <path d="M203.639 93.0004L206.854 89.7849C207.049 89.5904 207.049 89.2759 206.854 89.0827C206.66 88.8882 206.346 88.8882 206.153 89.0827L202.936 92.2969L199.719 89.0814C199.524 88.8869 199.21 88.8869 199.017 89.0814C198.823 89.2759 198.823 89.5904 199.017 89.7836L202.233 92.9991L199.017 96.2159C198.823 96.4104 198.823 96.7248 199.017 96.9181C199.114 97.0153 199.242 97.0633 199.368 97.0633C199.495 97.0633 199.621 97.0153 199.719 96.9181L202.936 93.7026L206.153 96.9193C206.25 97.0166 206.376 97.0646 206.503 97.0646C206.631 97.0646 206.757 97.0166 206.854 96.9193C207.049 96.7248 207.049 96.4104 206.854 96.2171L203.639 93.0004Z" fill="white" stroke="white" stroke-width="0.677419" />
        <rect x="153.414" y="57.5568" width="277.173" height="81.9107" rx="12.8244" stroke="#F2F6FF" stroke-width="0.827381" />
    </g>
    <g filter="url(#filter4_d_647_213)">
        <rect x="128" y="106" width="328" height="100" rx="16" fill="white" />
        <rect opacity="0.3" x="224" y="132" width="85" height="18" rx="9" fill="#E3EAFC" />
        <rect opacity="0.3" x="224" y="162" width="211" height="18" rx="9" fill="#E3EAFC" />
        <ellipse opacity="0.3" cx="180.5" cy="156" rx="25.5" ry="26" fill="#E3EAFC" />
        <path d="M172.038 151L176.785 146.254C177.072 145.967 177.072 145.502 176.785 145.217C176.498 144.93 176.034 144.93 175.749 145.217L171 149.962L166.251 145.215C165.964 144.928 165.5 144.928 165.215 145.215C164.928 145.502 164.928 145.967 165.215 146.252L169.962 150.999L165.215 155.747C164.928 156.034 164.928 156.498 165.215 156.784C165.359 156.927 165.547 156.998 165.733 156.998C165.921 156.998 166.108 156.927 166.251 156.784L171 152.037L175.749 156.786C175.892 156.929 176.079 157 176.267 157C176.455 157 176.641 156.929 176.785 156.786C177.072 156.498 177.072 156.034 176.785 155.749L172.038 151Z" fill="white" stroke="white" />
        <path d="M191.038 151L195.785 146.254C196.072 145.967 196.072 145.502 195.785 145.217C195.498 144.93 195.034 144.93 194.749 145.217L190 149.962L185.251 145.215C184.964 144.928 184.5 144.928 184.215 145.215C183.928 145.502 183.928 145.967 184.215 146.252L188.962 150.999L184.215 155.747C183.928 156.034 183.928 156.498 184.215 156.784C184.359 156.927 184.547 156.998 184.733 156.998C184.921 156.998 185.108 156.927 185.251 156.784L190 152.037L194.749 156.786C194.892 156.929 195.079 157 195.267 157C195.455 157 195.641 156.929 195.785 156.786C196.072 156.498 196.072 156.034 195.785 155.749L191.038 151Z" fill="white" stroke="white" />
        <rect x="128.5" y="106.5" width="327" height="99" rx="15.5" stroke="#F2F6FF" />
    </g>
    <circle cx="440.5" cy="206.5" r="107.5" stroke="#869BB9" stroke-linecap="round" stroke-dasharray="2 4" />
    <g filter="url(#filter5_d_647_213)">
        <rect x="104" y="170" width="376" height="180" rx="16" fill="url(#paint1_radial_647_213)" />
    </g>
    <path d="M139 223.5C139 231.324 142.108 238.827 147.64 244.36C153.173 249.892 160.676 253 168.5 253C176.324 253 183.827 249.892 189.36 244.36C194.892 238.827 198 231.324 198 223.5C198 215.676 194.892 208.173 189.36 202.64C183.827 197.108 176.324 194 168.5 194C160.676 194 153.173 197.108 147.64 202.64C142.108 208.173 139 215.676 139 223.5Z" fill="url(#paint2_linear_647_213)" />
    <path d="M179.68 221.427C178.365 221.427 177.36 220.439 177.36 219.146V214.281C177.36 212.988 178.365 212 179.68 212C180.995 212 182 212.988 182 214.281V219.146C182 220.439 180.917 221.427 179.68 221.427ZM157.331 221.427C156.016 221.427 155.011 220.439 155.011 219.146V214.281C155.011 212.988 156.016 212 157.331 212C158.645 212 159.651 212.988 159.651 214.281V219.146C159.651 220.439 158.645 221.427 157.331 221.427ZM168.389 238C163.363 238 158.723 235.795 155.552 232.07C154.702 231.082 154.856 229.637 155.861 228.877C156.867 228.041 158.336 228.193 159.109 229.181C161.429 231.918 164.755 233.515 168.389 233.515C172.024 233.515 175.349 231.918 177.669 229.181C178.52 228.193 179.912 228.041 180.917 228.877C181.923 229.713 182.077 231.082 181.227 232.07C178.056 235.795 173.416 238 168.389 238Z" fill="#FE8716" />
    <rect x="139" y="303" width="306" height="18" rx="9" fill="url(#paint3_linear_647_213)" />
    <rect x="139" y="273" width="123" height="18" rx="9" fill="url(#paint4_linear_647_213)" />
    <g filter="url(#filter6_bd_647_213)">
        <path d="M112.763 178C122.049 178 128 185.379 128 195.31C128 203.016 120.963 211.504 107.099 221.04C106.189 221.665 105.107 222 104 222C102.893 222 101.811 221.665 100.901 221.04C87.0368 211.504 80 203.016 80 195.31C80 185.379 85.9514 178 95.237 178C98.5904 178 100.865 179.161 104 181.796C107.136 179.162 109.41 178 112.763 178Z" fill="#FFD4B0" fill-opacity="0.44" />
    </g>
    <g filter="url(#filter7_d_647_213)">
        <rect x="461" y="102" width="94" height="94" rx="16" fill="url(#paint5_linear_647_213)" />
    </g>
    <path fill-rule="evenodd" clip-rule="evenodd" d="M484.857 124C480.439 124 476.857 127.582 476.857 132V166C476.857 170.418 480.439 174 484.857 174H533.143C537.561 174 541.143 170.418 541.143 166V132C541.143 127.582 537.561 124 533.143 124H484.857ZM505.175 132.4C505.631 132.4 506.03 132.709 506.144 133.151L514.779 166.751C514.942 167.384 514.464 168 513.811 168H508.515C508.04 168 507.632 167.667 507.535 167.203L506.716 163.247C506.619 162.783 506.211 162.45 505.736 162.45H499.165C498.69 162.45 498.282 162.783 498.185 163.247L497.366 167.203C497.269 167.667 496.861 168 496.386 168H491.09C490.437 168 489.959 167.384 490.121 166.751L498.757 133.151C498.871 132.709 499.27 132.4 499.726 132.4H505.175ZM499.951 154.846C499.822 155.467 500.296 156.05 500.93 156.05H503.971C504.605 156.05 505.079 155.467 504.95 154.846L503.429 147.549C503.208 146.488 501.693 146.488 501.472 147.549L499.951 154.846ZM524.229 132.4C524.782 132.4 525.229 132.848 525.229 133.4V167C525.229 167.552 524.782 168 524.229 168H519.129C518.577 168 518.129 167.552 518.129 167V133.4C518.129 132.848 518.577 132.4 519.129 132.4H524.229Z" fill="url(#paint6_linear_647_213)" />
    <circle cx="501" cy="295" r="6" fill="#125EFF" />
    <circle cx="385" cy="109" r="28" fill="white" />
    <circle cx="385" cy="109" r="28" fill="#0555FF" fill-opacity="0.1" />
    <g filter="url(#filter8_d_647_213)">
        <path d="M382.69 93C375.68 93 370 98.2415 370 104.71C370 108.402 371.86 111.688 374.76 113.841V119.759L380.32 116.202C381.09 116.337 381.88 116.41 382.69 116.41C389.7 116.41 395.38 111.168 395.38 104.71C395.39 98.2415 389.7 93 382.69 93ZM376.35 106.384C375.47 106.384 374.76 105.636 374.76 104.71C374.76 103.785 375.47 103.036 376.35 103.036C377.23 103.036 377.94 103.785 377.94 104.71C377.93 105.636 377.22 106.384 376.35 106.384ZM382.69 106.384C381.81 106.384 381.1 105.636 381.1 104.71C381.1 103.785 381.81 103.036 382.69 103.036C383.57 103.036 384.28 103.785 384.28 104.71C384.28 105.636 383.57 106.384 382.69 106.384ZM389.04 106.384C388.16 106.384 387.45 105.636 387.45 104.71C387.45 103.785 388.16 103.036 389.04 103.036C389.92 103.036 390.63 103.785 390.63 104.71C390.63 105.636 389.92 106.384 389.04 106.384ZM397.3 103.005L397.35 103.837C397.36 104.627 397.35 104.554 397.35 105.282C397.35 112.957 391.61 118.271 383.64 118.271H380.9C383.08 120.507 385.61 121.88 389.12 121.88C389.87 121.88 390.6 121.807 391.31 121.682L396.43 125V119.54C399.21 117.533 401 114.423 401 110.929C401 107.809 399.57 105.001 397.3 103.005Z" fill="url(#paint7_linear_647_213)" />
    </g>
    <defs>
        <filter id="filter0_d_647_213" x="57" y="364" width="52" height="62" filterUnits="userSpaceOnUse" color-interpolation-filters="sRGB">
            <feFlood flood-opacity="0" result="BackgroundImageFix" />
            <feColorMatrix in="SourceAlpha" type="matrix" values="0 0 0 0 0 0 0 0 0 0 0 0 0 0 0 0 0 0 127 0" result="hardAlpha" />
            <feMorphology radius="10" operator="erode" in="SourceAlpha" result="effect1_dropShadow_647_213" />
            <feOffset dy="20" />
            <feGaussianBlur stdDeviation="10" />
            <feColorMatrix type="matrix" values="0 0 0 0 0.0352941 0 0 0 0 0.866667 0 0 0 0 0.545098 0 0 0 0.2 0" />
            <feBlend mode="normal" in2="BackgroundImageFix" result="effect1_dropShadow_647_213" />
            <feBlend mode="normal" in="SourceGraphic" in2="effect1_dropShadow_647_213" result="shape" />
        </filter>
        <filter id="filter1_d_647_213" x="111.631" y="355.298" width="360.738" height="165.476" filterUnits="userSpaceOnUse" color-interpolation-filters="sRGB">
            <feFlood flood-opacity="0" result="BackgroundImageFix" />
            <feColorMatrix in="SourceAlpha" type="matrix" values="0 0 0 0 0 0 0 0 0 0 0 0 0 0 0 0 0 0 127 0" result="hardAlpha" />
            <feMorphology radius="8.27381" operator="erode" in="SourceAlpha" result="effect1_dropShadow_647_213" />
            <feOffset dy="16.5476" />
            <feGaussianBlur stdDeviation="24.8214" />
            <feColorMatrix type="matrix" values="0 0 0 0 0.0196078 0 0 0 0 0.333333 0 0 0 0 1 0 0 0 0.1 0" />
            <feBlend mode="normal" in2="BackgroundImageFix" result="effect1_dropShadow_647_213" />
            <feBlend mode="normal" in="SourceGraphic" in2="effect1_dropShadow_647_213" result="shape" />
        </filter>
        <filter id="filter2_d_647_213" x="78" y="284" width="428" height="200" filterUnits="userSpaceOnUse" color-interpolation-filters="sRGB">
            <feFlood flood-opacity="0" result="BackgroundImageFix" />
            <feColorMatrix in="SourceAlpha" type="matrix" values="0 0 0 0 0 0 0 0 0 0 0 0 0 0 0 0 0 0 127 0" result="hardAlpha" />
            <feMorphology radius="10" operator="erode" in="SourceAlpha" result="effect1_dropShadow_647_213" />
            <feOffset dy="20" />
            <feGaussianBlur stdDeviation="30" />
            <feColorMatrix type="matrix" values="0 0 0 0 0.0196078 0 0 0 0 0.333333 0 0 0 0 1 0 0 0 0.1 0" />
            <feBlend mode="normal" in2="BackgroundImageFix" result="effect1_dropShadow_647_213" />
            <feBlend mode="normal" in="SourceGraphic" in2="effect1_dropShadow_647_213" result="shape" />
        </filter>
        <filter id="filter3_d_647_213" x="111.631" y="32.3216" width="360.738" height="165.476" filterUnits="userSpaceOnUse" color-interpolation-filters="sRGB">
            <feFlood flood-opacity="0" result="BackgroundImageFix" />
            <feColorMatrix in="SourceAlpha" type="matrix" values="0 0 0 0 0 0 0 0 0 0 0 0 0 0 0 0 0 0 127 0" result="hardAlpha" />
            <feMorphology radius="8.27381" operator="erode" in="SourceAlpha" result="effect1_dropShadow_647_213" />
            <feOffset dy="16.5476" />
            <feGaussianBlur stdDeviation="24.8214" />
            <feColorMatrix type="matrix" values="0 0 0 0 0.0196078 0 0 0 0 0.333333 0 0 0 0 1 0 0 0 0.1 0" />
            <feBlend mode="normal" in2="BackgroundImageFix" result="effect1_dropShadow_647_213" />
            <feBlend mode="normal" in="SourceGraphic" in2="effect1_dropShadow_647_213" result="shape" />
        </filter>
        <filter id="filter4_d_647_213" x="78" y="76" width="428" height="200" filterUnits="userSpaceOnUse" color-interpolation-filters="sRGB">
            <feFlood flood-opacity="0" result="BackgroundImageFix" />
            <feColorMatrix in="SourceAlpha" type="matrix" values="0 0 0 0 0 0 0 0 0 0 0 0 0 0 0 0 0 0 127 0" result="hardAlpha" />
            <feMorphology radius="10" operator="erode" in="SourceAlpha" result="effect1_dropShadow_647_213" />
            <feOffset dy="20" />
            <feGaussianBlur stdDeviation="30" />
            <feColorMatrix type="matrix" values="0 0 0 0 0.0196078 0 0 0 0 0.333333 0 0 0 0 1 0 0 0 0.1 0" />
            <feBlend mode="normal" in2="BackgroundImageFix" result="effect1_dropShadow_647_213" />
            <feBlend mode="normal" in="SourceGraphic" in2="effect1_dropShadow_647_213" result="shape" />
        </filter>
        <filter id="filter5_d_647_213" x="64" y="150" width="456" height="260" filterUnits="userSpaceOnUse" color-interpolation-filters="sRGB">
            <feFlood flood-opacity="0" result="BackgroundImageFix" />
            <feColorMatrix in="SourceAlpha" type="matrix" values="0 0 0 0 0 0 0 0 0 0 0 0 0 0 0 0 0 0 127 0" result="hardAlpha" />
            <feMorphology radius="20" operator="erode" in="SourceAlpha" result="effect1_dropShadow_647_213" />
            <feOffset dy="20" />
            <feGaussianBlur stdDeviation="30" />
            <feColorMatrix type="matrix" values="0 0 0 0 0.988235 0 0 0 0 0.47451 0 0 0 0 0.0509804 0 0 0 0.1 0" />
            <feBlend mode="normal" in2="BackgroundImageFix" result="effect1_dropShadow_647_213" />
            <feBlend mode="normal" in="SourceGraphic" in2="effect1_dropShadow_647_213" result="shape" />
        </filter>
        <filter id="filter6_bd_647_213" x="60" y="165" width="88" height="97" filterUnits="userSpaceOnUse" color-interpolation-filters="sRGB">
            <feFlood flood-opacity="0" result="BackgroundImageFix" />
            <feGaussianBlur in="BackgroundImage" stdDeviation="6.5" />
            <feComposite in2="SourceAlpha" operator="in" result="effect1_backgroundBlur_647_213" />
            <feColorMatrix in="SourceAlpha" type="matrix" values="0 0 0 0 0 0 0 0 0 0 0 0 0 0 0 0 0 0 127 0" result="hardAlpha" />
            <feOffset dy="20" />
            <feGaussianBlur stdDeviation="10" />
            <feColorMatrix type="matrix" values="0 0 0 0 1 0 0 0 0 0.741176 0 0 0 0 0.431373 0 0 0 0.1 0" />
            <feBlend mode="normal" in2="effect1_backgroundBlur_647_213" result="effect2_dropShadow_647_213" />
            <feBlend mode="normal" in="SourceGraphic" in2="effect2_dropShadow_647_213" result="shape" />
        </filter>
        <filter id="filter7_d_647_213" x="441" y="102" width="134" height="134" filterUnits="userSpaceOnUse" color-interpolation-filters="sRGB">
            <feFlood flood-opacity="0" result="BackgroundImageFix" />
            <feColorMatrix in="SourceAlpha" type="matrix" values="0 0 0 0 0 0 0 0 0 0 0 0 0 0 0 0 0 0 127 0" result="hardAlpha" />
            <feOffset dy="20" />
            <feGaussianBlur stdDeviation="10" />
            <feComposite in2="hardAlpha" operator="out" />
            <feColorMatrix type="matrix" values="0 0 0 0 0.0196078 0 0 0 0 0.333333 0 0 0 0 1 0 0 0 0.1 0" />
            <feBlend mode="normal" in2="BackgroundImageFix" result="effect1_dropShadow_647_213" />
            <feBlend mode="normal" in="SourceGraphic" in2="effect1_dropShadow_647_213" result="shape" />
        </filter>
        <filter id="filter8_d_647_213" x="361.818" y="93" width="47.3636" height="48.3636" filterUnits="userSpaceOnUse" color-interpolation-filters="sRGB">
            <feFlood flood-opacity="0" result="BackgroundImageFix" />
            <feColorMatrix in="SourceAlpha" type="matrix" values="0 0 0 0 0 0 0 0 0 0 0 0 0 0 0 0 0 0 127 0" result="hardAlpha" />
            <feOffset dy="8.18182" />
            <feGaussianBlur stdDeviation="4.09091" />
            <feComposite in2="hardAlpha" operator="out" />
            <feColorMatrix type="matrix" values="0 0 0 0 0.0666667 0 0 0 0 0.368627 0 0 0 0 1 0 0 0 0.1 0" />
            <feBlend mode="normal" in2="BackgroundImageFix" result="effect1_dropShadow_647_213" />
            <feBlend mode="normal" in="SourceGraphic" in2="effect1_dropShadow_647_213" result="shape" />
        </filter>
        <linearGradient id="paint0_linear_647_213" x1="67.9057" y1="364.8" x2="101.227" y2="386.595" gradientUnits="userSpaceOnUse">
            <stop stop-color="#07D988" />
            <stop offset="1" stop-color="#15F59F" />
        </linearGradient>
        <radialGradient id="paint1_radial_647_213" cx="0" cy="0" r="1" gradientUnits="userSpaceOnUse" gradientTransform="translate(104.046 260) scale(376.431 835.508)">
            <stop stop-color="#FC790D" />
            <stop offset="1" stop-color="#FF9A23" />
        </radialGradient>
        <linearGradient id="paint2_linear_647_213" x1="139" y1="223.5" x2="198" y2="223.5" gradientUnits="userSpaceOnUse">
            <stop stop-color="white" />
            <stop offset="1" stop-color="white" stop-opacity="0.6" />
        </linearGradient>
        <linearGradient id="paint3_linear_647_213" x1="139" y1="312" x2="445" y2="312" gradientUnits="userSpaceOnUse">
            <stop stop-color="white" />
            <stop offset="1" stop-color="white" stop-opacity="0.6" />
        </linearGradient>
        <linearGradient id="paint4_linear_647_213" x1="139" y1="282" x2="262" y2="282" gradientUnits="userSpaceOnUse">
            <stop stop-color="white" />
            <stop offset="1" stop-color="white" stop-opacity="0.6" />
        </linearGradient>
        <linearGradient id="paint5_linear_647_213" x1="485.763" y1="102" x2="526.316" y2="194.167" gradientUnits="userSpaceOnUse">
            <stop stop-color="#0555FF" />
            <stop offset="1" stop-color="#4380FF" />
        </linearGradient>
        <linearGradient id="paint6_linear_647_213" x1="480.429" y1="149" x2="537.572" y2="149" gradientUnits="userSpaceOnUse">
            <stop stop-color="white" />
            <stop offset="1" stop-color="white" stop-opacity="0.6" />
        </linearGradient>
        <linearGradient id="paint7_linear_647_213" x1="370" y1="93" x2="402.724" y2="114.186" gradientUnits="userSpaceOnUse">
            <stop stop-color="#115EFF" />
            <stop offset="1" stop-color="#4280FF" />
        </linearGradient>
    </defs>
</svg>
    