<svg width="608" height="544" viewBox="0 0 608 544" fill="none" xmlns="http://www.w3.org/2000/svg">
<g clip-path="url(#clip0_612_1365)">
<path d="M217.625 27.0557C229.751 14.9297 247.425 10.194 263.989 14.6324L472.673 70.5491C489.238 74.9875 502.176 87.9258 506.615 104.49L562.531 313.174C566.97 329.739 562.234 347.413 550.108 359.539L397.341 512.306C385.215 524.432 367.541 529.168 350.976 524.729L142.292 468.812C125.728 464.374 112.79 451.436 108.351 434.871L52.4345 226.187C47.9961 209.623 52.7318 191.949 64.8578 179.823L217.625 27.0557Z" fill="#F0F4FD"/>
<path d="M342.42 288.971L343.278 288.119C354.355 281.687 363.643 272.616 370.302 261.726C376.961 250.837 380.781 238.472 381.417 225.749C382.37 182.686 344.041 146.437 295.605 145.491C247.169 144.545 206.932 178.522 205.979 221.206C205.025 263.89 243.355 300.517 291.791 301.464H297.321C302.781 305.32 308.481 308.829 314.388 311.969C323.441 316.958 333.593 319.656 343.946 319.825C353.48 318.878 355.006 312.916 353.48 309.698C351.955 306.48 348.427 306.48 345.662 304.682C342.68 303.146 340.249 300.733 338.701 297.773C338.22 296.896 337.948 295.921 337.905 294.923C337.862 293.926 338.051 292.931 338.456 292.017C338.861 291.103 339.472 290.294 340.242 289.651C341.012 289.008 341.92 288.548 342.897 288.308" fill="#F0F4FD"/>
<g opacity="0.7">
<line x1="471" y1="427" x2="594.85" y2="427" stroke="#0DE592" stroke-width="6" stroke-linecap="round" stroke-dasharray="0.2 25"/>
<line x1="471" y1="399" x2="594.851" y2="399" stroke="#0DE592" stroke-width="6" stroke-linecap="round" stroke-dasharray="0.2 25"/>
<line x1="471" y1="455" x2="594.85" y2="455" stroke="#0DE592" stroke-width="6" stroke-linecap="round" stroke-dasharray="0.2 25"/>
<line x1="471" y1="483" x2="594.85" y2="483" stroke="#0DE592" stroke-width="6" stroke-linecap="round" stroke-dasharray="0.2 25"/>
<line x1="471" y1="511" x2="594.85" y2="511" stroke="#0DE592" stroke-width="6" stroke-linecap="round" stroke-dasharray="0.2 25"/>
</g>
<g opacity="0.6">
<line x1="62" y1="125.337" x2="62" y2="11.3372" stroke="#0555FF" stroke-width="6" stroke-linecap="round" stroke-dasharray="0.2 25"/>
<line x1="93.9634" y1="125" x2="93.9634" y2="10.9998" stroke="#0555FF" stroke-width="6" stroke-linecap="round" stroke-dasharray="0.2 25"/>
<line x1="157.89" y1="125" x2="157.89" y2="10.9998" stroke="#0555FF" stroke-width="6" stroke-linecap="round" stroke-dasharray="0.2 25"/>
<line x1="189.853" y1="125" x2="189.853" y2="10.9998" stroke="#0555FF" stroke-width="6" stroke-linecap="round" stroke-dasharray="0.2 25"/>
<line x1="125.927" y1="125" x2="125.927" y2="10.9998" stroke="#0555FF" stroke-width="6" stroke-linecap="round" stroke-dasharray="0.2 25"/>
</g>
<g filter="url(#filter0_d_612_1365)">
<rect x="111" y="69" width="396" height="400" rx="16" fill="white"/>
<g filter="url(#filter1_d_612_1365)">
<path d="M461.317 267C466.665 267 471.03 262.661 470.711 257.323C469.636 239.358 465.573 221.674 458.668 205.005C450.527 185.351 438.594 167.492 423.551 152.449C408.508 137.406 390.649 125.473 370.995 117.332C351.34 109.19 330.274 105 309 105C287.726 105 266.66 109.19 247.005 117.332C227.351 125.473 209.492 137.406 194.449 152.449C179.406 167.492 167.473 185.351 159.332 205.005C152.427 221.674 148.364 239.358 147.289 257.323C146.97 262.661 151.335 267 156.683 267V267C162.03 267 166.331 262.66 166.694 257.325C167.742 241.904 171.292 226.735 177.223 212.416C184.391 195.111 194.897 179.387 208.142 166.142C221.387 152.897 237.111 142.391 254.416 135.223C271.721 128.055 290.269 124.365 309 124.365C327.731 124.365 346.279 128.055 363.584 135.223C380.889 142.391 396.613 152.897 409.858 166.142C423.103 179.387 433.609 195.111 440.777 212.416C446.708 226.735 450.258 241.904 451.306 257.325C451.669 262.66 455.97 267 461.317 267V267Z" fill="url(#paint0_radial_612_1365)"/>
</g>
<g opacity="0.4" filter="url(#filter2_d_612_1365)">
<path d="M483.702 267C484.419 267 485 266.419 484.995 265.702C484.828 243.031 480.282 220.601 471.603 199.648C462.758 178.294 449.794 158.892 433.451 142.549C417.108 126.206 397.706 113.242 376.352 104.397C354.999 95.5524 332.113 91 309 91C285.887 91 263.001 95.5524 241.648 104.397C220.294 113.242 200.892 126.206 184.549 142.549C168.206 158.892 155.242 178.294 146.397 199.648C137.718 220.601 133.172 243.031 133.005 265.702C133 266.419 133.581 267 134.298 267V267C135.015 267 135.595 266.419 135.601 265.702C135.768 243.372 140.247 221.28 148.795 200.641C157.51 179.603 170.283 160.487 186.385 144.385C202.487 128.283 221.603 115.51 242.641 106.795C263.679 98.081 286.228 93.5958 309 93.5958C331.772 93.5958 354.321 98.081 375.359 106.795C396.397 115.51 415.513 128.283 431.615 144.385C447.717 160.487 460.49 179.603 469.205 200.641C477.753 221.28 482.232 243.372 482.399 265.702C482.405 266.419 482.985 267 483.702 267V267Z" fill="url(#paint1_radial_612_1365)"/>
</g>
<path d="M274.12 241V212.52H268.92L263.12 217.56V223.16L268.92 218.12V241H274.12ZM300.239 232.76V220.76C300.239 215.32 296.239 212.28 291.599 212.28C286.959 212.28 282.919 215.32 282.919 220.76V232.76C282.919 238.2 286.959 241.24 291.599 241.24C296.239 241.24 300.239 238.2 300.239 232.76ZM295.039 232.72C295.039 235.12 293.639 236.56 291.599 236.56C289.559 236.56 288.119 235.12 288.119 232.72V220.84C288.119 218.44 289.559 216.96 291.599 216.96C293.639 216.96 295.039 218.44 295.039 220.84V232.72ZM321.958 232.76V220.76C321.958 215.32 317.958 212.28 313.318 212.28C308.678 212.28 304.638 215.32 304.638 220.76V232.76C304.638 238.2 308.678 241.24 313.318 241.24C317.958 241.24 321.958 238.2 321.958 232.76ZM316.758 232.72C316.758 235.12 315.358 236.56 313.318 236.56C311.278 236.56 309.838 235.12 309.838 232.72V220.84C309.838 218.44 311.278 216.96 313.318 216.96C315.358 216.96 316.758 218.44 316.758 220.84V232.72ZM355.996 235.76V231.8C355.996 228.2 353.316 226.32 350.196 226.32C347.036 226.32 344.396 228.2 344.396 231.8V235.76C344.396 239.36 347.036 241.24 350.196 241.24C353.316 241.24 355.996 239.36 355.996 235.76ZM337.836 221.72V217.76C337.836 214.16 335.156 212.28 332.036 212.28C328.876 212.28 326.236 214.16 326.236 217.76V221.72C326.236 225.32 328.876 227.2 332.036 227.2C335.156 227.2 337.836 225.32 337.836 221.72ZM349.916 212.52H345.836L332.356 241H336.436L349.916 212.52ZM352.236 235.6C352.236 237.12 351.476 237.88 350.196 237.88C348.876 237.88 348.156 237.12 348.156 235.6V231.96C348.156 230.44 348.876 229.68 350.196 229.68C351.476 229.68 352.236 230.44 352.236 231.96V235.6ZM334.076 221.56C334.076 223.08 333.316 223.84 332.036 223.84C330.756 223.84 329.996 223.08 329.996 221.56V217.92C329.996 216.4 330.716 215.64 332.036 215.64C333.316 215.64 334.076 216.4 334.076 217.92V221.56Z" fill="black"/>
<g filter="url(#filter3_d_612_1365)">
<path d="M378.644 227.116L371.005 218L363.367 227.116C362.704 227.903 362.966 228.538 363.936 228.538L367.463 228.538L367.463 239.076C367.463 240.147 368.249 241 369.234 241L372.777 241C373.747 241 374.532 240.147 374.548 239.093L374.548 228.538L378.074 228.538C379.029 228.538 379.291 227.903 378.644 227.116V227.116Z" fill="url(#paint2_radial_612_1365)"/>
</g>
<path d="M185.008 336.036C185.008 333.498 183.28 332.076 181.012 332.076C178.744 332.076 177.016 333.552 177.016 336.072C177.016 338.448 178.672 339.87 180.4 339.87C180.706 339.87 181.048 339.834 181.354 339.708L178.69 345H181.228L183.946 339.456C184.522 338.286 185.008 337.206 185.008 336.036ZM182.668 336.054C182.668 337.242 181.966 337.926 181.012 337.926C180.022 337.926 179.356 337.188 179.356 336.054C179.356 334.866 180.058 334.182 181.012 334.182C181.966 334.182 182.668 334.866 182.668 336.054ZM194.727 341.112C194.727 338.736 193.089 337.314 191.361 337.314C191.055 337.314 190.713 337.35 190.407 337.476L193.071 332.184H190.515L187.815 337.728C187.239 338.898 186.735 339.978 186.735 341.148C186.735 343.686 188.463 345.108 190.731 345.108C192.999 345.108 194.727 343.632 194.727 341.112ZM192.387 341.13C192.387 342.318 191.685 343.002 190.731 343.002C189.777 343.002 189.075 342.318 189.075 341.13C189.075 339.942 189.777 339.258 190.731 339.258C191.721 339.258 192.387 339.996 192.387 341.13ZM209.973 342.642V340.86C209.973 339.24 208.767 338.394 207.363 338.394C205.941 338.394 204.753 339.24 204.753 340.86V342.642C204.753 344.262 205.941 345.108 207.363 345.108C208.767 345.108 209.973 344.262 209.973 342.642ZM201.801 336.324V334.542C201.801 332.922 200.595 332.076 199.191 332.076C197.769 332.076 196.581 332.922 196.581 334.542V336.324C196.581 337.944 197.769 338.79 199.191 338.79C200.595 338.79 201.801 337.944 201.801 336.324ZM207.237 332.184H205.401L199.335 345H201.171L207.237 332.184ZM208.281 342.57C208.281 343.254 207.939 343.596 207.363 343.596C206.769 343.596 206.445 343.254 206.445 342.57V340.932C206.445 340.248 206.769 339.906 207.363 339.906C207.939 339.906 208.281 340.248 208.281 340.932V342.57ZM200.109 336.252C200.109 336.936 199.767 337.278 199.191 337.278C198.615 337.278 198.273 336.936 198.273 336.252V334.614C198.273 333.93 198.597 333.588 199.191 333.588C199.767 333.588 200.109 333.93 200.109 334.614V336.252Z" fill="black"/>
<circle cx="193.5" cy="337.5" r="41.5" stroke="#EAF0F7" stroke-width="10"/>
<g filter="url(#filter4_d_612_1365)">
<path d="M233.423 326.077C236.065 325.321 238.847 326.848 239.316 329.555C241.025 339.406 239.518 349.595 234.945 358.585C229.616 369.059 220.519 377.127 209.483 381.167C198.447 385.206 186.291 384.917 175.459 380.358C164.628 375.798 155.924 367.307 151.1 356.591C146.275 345.875 145.686 333.729 149.453 322.597C153.219 311.465 161.061 302.172 171.401 296.587C181.741 291.002 193.812 289.539 205.187 292.493C214.949 295.028 223.577 300.654 229.82 308.463C231.535 310.609 230.835 313.705 228.518 315.182V315.182C226.201 316.658 223.149 315.95 221.372 313.855C216.527 308.143 210.013 304.025 202.686 302.123C193.746 299.801 184.257 300.951 176.13 305.341C168.002 309.731 161.838 317.036 158.878 325.786C155.917 334.536 156.38 344.083 160.172 352.506C163.964 360.929 170.806 367.603 179.319 371.187C187.833 374.771 197.388 374.998 206.063 371.823C214.738 368.648 221.888 362.306 226.077 354.073C229.509 347.327 230.744 339.72 229.68 332.306C229.289 329.587 230.781 326.832 233.423 326.077V326.077Z" fill="url(#paint3_linear_612_1365)"/>
</g>
<rect x="147" y="406" width="79" height="12" rx="6" fill="#EAF0F7"/>
<rect x="263" y="406" width="93" height="12" rx="6" fill="#EAF0F7"/>
<rect x="379" y="406" width="77" height="12" rx="6" fill="#EAF0F7"/>
<rect x="147" y="426" width="41" height="12" rx="6" fill="#EAF0F7"/>
<rect x="263" y="426" width="61" height="12" rx="6" fill="#EAF0F7"/>
<rect x="379" y="426" width="43" height="12" rx="6" fill="#EAF0F7"/>
<path d="M301.008 336.036C301.008 333.498 299.28 332.076 297.012 332.076C294.744 332.076 293.016 333.552 293.016 336.072C293.016 338.448 294.672 339.87 296.4 339.87C296.706 339.87 297.048 339.834 297.354 339.708L294.69 345H297.228L299.946 339.456C300.522 338.286 301.008 337.206 301.008 336.036ZM298.668 336.054C298.668 337.242 297.966 337.926 297.012 337.926C296.022 337.926 295.356 337.188 295.356 336.054C295.356 334.866 296.058 334.182 297.012 334.182C297.966 334.182 298.668 334.866 298.668 336.054ZM310.763 340.68C310.763 339.474 310.619 338.268 309.611 337.26C309.089 336.738 308.279 336.396 307.217 336.396C306.353 336.396 305.633 336.72 305.291 337.044V334.29H310.475V332.184H303.167V339.42H305.309C305.471 338.916 305.903 338.376 306.857 338.376C307.991 338.376 308.423 339.204 308.423 340.68C308.423 341.49 308.333 342.174 307.919 342.588C307.631 342.876 307.253 343.002 306.803 343.002C305.831 343.002 305.363 342.426 305.237 341.418H302.897C302.969 342.354 303.149 343.29 303.941 344.082C304.499 344.64 305.471 345.108 306.803 345.108C308.135 345.108 309.053 344.64 309.629 344.064C310.565 343.128 310.763 342.12 310.763 340.68ZM325.973 342.642V340.86C325.973 339.24 324.767 338.394 323.363 338.394C321.941 338.394 320.753 339.24 320.753 340.86V342.642C320.753 344.262 321.941 345.108 323.363 345.108C324.767 345.108 325.973 344.262 325.973 342.642ZM317.801 336.324V334.542C317.801 332.922 316.595 332.076 315.191 332.076C313.769 332.076 312.581 332.922 312.581 334.542V336.324C312.581 337.944 313.769 338.79 315.191 338.79C316.595 338.79 317.801 337.944 317.801 336.324ZM323.237 332.184H321.401L315.335 345H317.171L323.237 332.184ZM324.281 342.57C324.281 343.254 323.939 343.596 323.363 343.596C322.769 343.596 322.445 343.254 322.445 342.57V340.932C322.445 340.248 322.769 339.906 323.363 339.906C323.939 339.906 324.281 340.248 324.281 340.932V342.57ZM316.109 336.252C316.109 336.936 315.767 337.278 315.191 337.278C314.615 337.278 314.273 336.936 314.273 336.252V334.614C314.273 333.93 314.597 333.588 315.191 333.588C315.767 333.588 316.109 333.93 316.109 334.614V336.252Z" fill="black"/>
<circle cx="309.5" cy="337.5" r="41.5" stroke="#EAF0F7" stroke-width="10"/>
<g filter="url(#filter5_d_612_1365)">
<path d="M309.5 295.975C309.5 293.227 311.734 290.972 314.466 291.266C324.025 292.292 333.076 296.264 340.334 302.693C348.838 310.227 354.29 320.613 355.661 331.891C357.031 343.17 354.225 354.56 347.772 363.91C341.319 373.261 331.666 379.926 320.635 382.647C309.605 385.368 297.959 383.956 287.899 378.678C277.838 373.4 270.057 364.621 266.026 353.999C261.994 343.377 261.991 331.647 266.017 321.023C269.453 311.957 275.619 304.231 283.605 298.877C285.887 297.347 288.913 298.305 290.191 300.737V300.737C291.468 303.17 290.507 306.151 288.27 307.747C282.418 311.923 277.895 317.757 275.321 324.549C272.157 332.899 272.159 342.12 275.328 350.469C278.497 358.818 284.612 365.719 292.521 369.867C300.429 374.016 309.582 375.125 318.253 372.987C326.923 370.848 334.511 365.609 339.583 358.259C344.655 350.909 346.861 341.957 345.783 333.091C344.706 324.226 340.421 316.062 333.736 310.141C328.3 305.325 321.582 302.263 314.46 301.288C311.737 300.915 309.5 298.722 309.5 295.975V295.975Z" fill="url(#paint4_linear_612_1365)"/>
</g>
<path d="M417.008 336.036C417.008 333.498 415.28 332.076 413.012 332.076C410.744 332.076 409.016 333.552 409.016 336.072C409.016 338.448 410.672 339.87 412.4 339.87C412.706 339.87 413.048 339.834 413.354 339.708L410.69 345H413.228L415.946 339.456C416.522 338.286 417.008 337.206 417.008 336.036ZM414.668 336.054C414.668 337.242 413.966 337.926 413.012 337.926C412.022 337.926 411.356 337.188 411.356 336.054C411.356 334.866 412.058 334.182 413.012 334.182C413.966 334.182 414.668 334.866 414.668 336.054ZM426.925 334.29V332.184H418.771V336.306H421.003V334.29H424.387L420.229 345H422.767L426.925 334.29ZM441.973 342.642V340.86C441.973 339.24 440.767 338.394 439.363 338.394C437.941 338.394 436.753 339.24 436.753 340.86V342.642C436.753 344.262 437.941 345.108 439.363 345.108C440.767 345.108 441.973 344.262 441.973 342.642ZM433.801 336.324V334.542C433.801 332.922 432.595 332.076 431.191 332.076C429.769 332.076 428.581 332.922 428.581 334.542V336.324C428.581 337.944 429.769 338.79 431.191 338.79C432.595 338.79 433.801 337.944 433.801 336.324ZM439.237 332.184H437.401L431.335 345H433.171L439.237 332.184ZM440.281 342.57C440.281 343.254 439.939 343.596 439.363 343.596C438.769 343.596 438.445 343.254 438.445 342.57V340.932C438.445 340.248 438.769 339.906 439.363 339.906C439.939 339.906 440.281 340.248 440.281 340.932V342.57ZM432.109 336.252C432.109 336.936 431.767 337.278 431.191 337.278C430.615 337.278 430.273 336.936 430.273 336.252V334.614C430.273 333.93 430.597 333.588 431.191 333.588C431.767 333.588 432.109 333.93 432.109 334.614V336.252Z" fill="black"/>
<circle cx="425.5" cy="337.5" r="41.5" stroke="#EAF0F7" stroke-width="10"/>
<g filter="url(#filter6_d_612_1365)">
<path d="M467.025 337.5C469.773 337.5 472.028 339.734 471.734 342.466C470.644 352.623 466.229 362.19 459.105 369.639C450.829 378.293 439.534 383.42 427.573 383.954C415.611 384.487 403.904 380.386 394.89 372.504C385.877 364.622 380.251 353.567 379.185 341.641C378.118 329.715 381.694 317.837 389.166 308.481C396.638 299.125 407.432 293.012 419.299 291.415C431.166 289.819 443.191 292.861 452.871 299.909C461.203 305.976 467.245 314.609 470.12 324.411C470.893 327.047 469.07 329.646 466.367 330.133V330.133C463.663 330.621 461.108 328.808 460.258 326.195C457.889 318.91 453.274 312.51 447.014 307.952C439.406 302.412 429.953 300.021 420.626 301.276C411.298 302.531 402.814 307.336 396.941 314.69C391.067 322.044 388.257 331.381 389.095 340.755C389.933 350.129 394.355 358.819 401.44 365.014C408.525 371.21 417.727 374.434 427.129 374.014C436.531 373.595 445.41 369.564 451.915 362.762C457.267 357.166 460.673 350.049 461.712 342.46C462.085 339.738 464.278 337.5 467.025 337.5V337.5Z" fill="url(#paint5_linear_612_1365)"/>
</g>
<rect x="111.5" y="69.5" width="395" height="399" rx="15.5" stroke="#F2F6FF"/>
</g>
<g filter="url(#filter7_d_612_1365)">
<rect x="460" y="22" width="94" height="94" rx="20" fill="url(#paint6_linear_612_1365)"/>
</g>
<path opacity="0.6" d="M530.819 50.9676H513.982C513.982 47.1156 510.854 44 506.986 44H485.2C481.787 44 479 46.7474 479 50.1745V84.3328H535V55.1312C535 52.837 533.123 50.9676 530.819 50.9676Z" fill="url(#paint7_linear_612_1365)"/>
<path d="M487.996 69.9447C486.892 69.9447 485.996 69.0493 485.996 67.9447V56.1401C485.996 55.0356 486.892 54.1401 487.996 54.1401H526.003C527.108 54.1401 528.003 55.0356 528.003 56.1401V67.9447C528.003 69.0493 527.108 69.9447 526.003 69.9447H487.996Z" fill="url(#paint8_linear_612_1365)"/>
<path d="M530.961 92.9999H483.039C480.792 92.9999 479 91.1872 479 88.978V63.8266C479 61.5891 480.82 59.8047 483.039 59.8047H530.933C533.18 59.8047 534.972 61.6174 534.972 63.8266V88.978C535 91.1872 533.18 92.9999 530.961 92.9999Z" fill="url(#paint9_linear_612_1365)"/>
<g filter="url(#filter8_d_612_1365)">
<rect x="64" y="406" width="94" height="94" rx="20" fill="url(#paint10_radial_612_1365)"/>
</g>
<path d="M109.113 480.683C110.336 481.106 111.669 481.106 112.892 480.683C121.237 477.812 124.251 475.466 124.251 475.466C132.924 469.53 133 461.737 133 461.737V437.139C133 435.933 132.022 434.897 130.821 434.854C124.666 434.634 115.596 430.096 112.275 428.321C111.478 427.893 110.522 427.893 109.725 428.321C106.404 430.091 97.3391 434.634 91.179 434.854C89.9775 434.897 89 435.933 89 437.139V461.737C89 461.737 89.0765 469.53 97.7487 475.466C97.7541 475.466 100.769 477.812 109.113 480.683V480.683Z" fill="url(#paint11_linear_612_1365)"/>
<g filter="url(#filter9_d_612_1365)">
<circle cx="426" cy="489" r="12" fill="url(#paint12_linear_612_1365)"/>
</g>
<g filter="url(#filter10_d_612_1365)">
<circle cx="483" cy="263" r="4" fill="url(#paint13_radial_612_1365)"/>
</g>
<rect x="108" y="448" width="6" height="21" rx="3" fill="url(#paint14_linear_612_1365)"/>
<circle cx="111" cy="448" r="7" fill="url(#paint15_radial_612_1365)"/>
</g>
<defs>
<filter id="filter0_d_612_1365" x="71" y="49" width="476" height="480" filterUnits="userSpaceOnUse" color-interpolation-filters="sRGB">
<feFlood flood-opacity="0" result="BackgroundImageFix"/>
<feColorMatrix in="SourceAlpha" type="matrix" values="0 0 0 0 0 0 0 0 0 0 0 0 0 0 0 0 0 0 127 0" result="hardAlpha"/>
<feMorphology radius="20" operator="erode" in="SourceAlpha" result="effect1_dropShadow_612_1365"/>
<feOffset dy="20"/>
<feGaussianBlur stdDeviation="30"/>
<feColorMatrix type="matrix" values="0 0 0 0 0.0196078 0 0 0 0 0.333333 0 0 0 0 1 0 0 0 0.1 0"/>
<feBlend mode="normal" in2="BackgroundImageFix" result="effect1_dropShadow_612_1365"/>
<feBlend mode="normal" in="SourceGraphic" in2="effect1_dropShadow_612_1365" result="shape"/>
</filter>
<filter id="filter1_d_612_1365" x="127.273" y="105" width="363.454" height="202" filterUnits="userSpaceOnUse" color-interpolation-filters="sRGB">
<feFlood flood-opacity="0" result="BackgroundImageFix"/>
<feColorMatrix in="SourceAlpha" type="matrix" values="0 0 0 0 0 0 0 0 0 0 0 0 0 0 0 0 0 0 127 0" result="hardAlpha"/>
<feOffset dy="20"/>
<feGaussianBlur stdDeviation="10"/>
<feColorMatrix type="matrix" values="0 0 0 0 0.988235 0 0 0 0 0.47451 0 0 0 0 0.0509804 0 0 0 0.1 0"/>
<feBlend mode="normal" in2="BackgroundImageFix" result="effect1_dropShadow_612_1365"/>
<feBlend mode="normal" in="SourceGraphic" in2="effect1_dropShadow_612_1365" result="shape"/>
</filter>
<filter id="filter2_d_612_1365" x="113.005" y="91" width="391.99" height="216" filterUnits="userSpaceOnUse" color-interpolation-filters="sRGB">
<feFlood flood-opacity="0" result="BackgroundImageFix"/>
<feColorMatrix in="SourceAlpha" type="matrix" values="0 0 0 0 0 0 0 0 0 0 0 0 0 0 0 0 0 0 127 0" result="hardAlpha"/>
<feOffset dy="20"/>
<feGaussianBlur stdDeviation="10"/>
<feColorMatrix type="matrix" values="0 0 0 0 0.988235 0 0 0 0 0.47451 0 0 0 0 0.0509804 0 0 0 0.1 0"/>
<feBlend mode="normal" in2="BackgroundImageFix" result="effect1_dropShadow_612_1365"/>
<feBlend mode="normal" in="SourceGraphic" in2="effect1_dropShadow_612_1365" result="shape"/>
</filter>
<filter id="filter3_d_612_1365" x="353" y="218" width="36" height="53" filterUnits="userSpaceOnUse" color-interpolation-filters="sRGB">
<feFlood flood-opacity="0" result="BackgroundImageFix"/>
<feColorMatrix in="SourceAlpha" type="matrix" values="0 0 0 0 0 0 0 0 0 0 0 0 0 0 0 0 0 0 127 0" result="hardAlpha"/>
<feMorphology radius="10" operator="erode" in="SourceAlpha" result="effect1_dropShadow_612_1365"/>
<feOffset dy="20"/>
<feGaussianBlur stdDeviation="10"/>
<feColorMatrix type="matrix" values="0 0 0 0 0.988235 0 0 0 0 0.47451 0 0 0 0 0.0509804 0 0 0 0.1 0"/>
<feBlend mode="normal" in2="BackgroundImageFix" result="effect1_dropShadow_612_1365"/>
<feBlend mode="normal" in="SourceGraphic" in2="effect1_dropShadow_612_1365" result="shape"/>
</filter>
<filter id="filter4_d_612_1365" x="127" y="291" width="133" height="133" filterUnits="userSpaceOnUse" color-interpolation-filters="sRGB">
<feFlood flood-opacity="0" result="BackgroundImageFix"/>
<feColorMatrix in="SourceAlpha" type="matrix" values="0 0 0 0 0 0 0 0 0 0 0 0 0 0 0 0 0 0 127 0" result="hardAlpha"/>
<feOffset dy="20"/>
<feGaussianBlur stdDeviation="10"/>
<feColorMatrix type="matrix" values="0 0 0 0 0.0352941 0 0 0 0 0.866667 0 0 0 0 0.545098 0 0 0 0.1 0"/>
<feBlend mode="normal" in2="BackgroundImageFix" result="effect1_dropShadow_612_1365"/>
<feBlend mode="normal" in="SourceGraphic" in2="effect1_dropShadow_612_1365" result="shape"/>
</filter>
<filter id="filter5_d_612_1365" x="243" y="291.24" width="133" height="132.76" filterUnits="userSpaceOnUse" color-interpolation-filters="sRGB">
<feFlood flood-opacity="0" result="BackgroundImageFix"/>
<feColorMatrix in="SourceAlpha" type="matrix" values="0 0 0 0 0 0 0 0 0 0 0 0 0 0 0 0 0 0 127 0" result="hardAlpha"/>
<feOffset dy="20"/>
<feGaussianBlur stdDeviation="10"/>
<feColorMatrix type="matrix" values="0 0 0 0 0.0352941 0 0 0 0 0.866667 0 0 0 0 0.545098 0 0 0 0.1 0"/>
<feBlend mode="normal" in2="BackgroundImageFix" result="effect1_dropShadow_612_1365"/>
<feBlend mode="normal" in="SourceGraphic" in2="effect1_dropShadow_612_1365" result="shape"/>
</filter>
<filter id="filter6_d_612_1365" x="359" y="291" width="132.76" height="133" filterUnits="userSpaceOnUse" color-interpolation-filters="sRGB">
<feFlood flood-opacity="0" result="BackgroundImageFix"/>
<feColorMatrix in="SourceAlpha" type="matrix" values="0 0 0 0 0 0 0 0 0 0 0 0 0 0 0 0 0 0 127 0" result="hardAlpha"/>
<feOffset dy="20"/>
<feGaussianBlur stdDeviation="10"/>
<feColorMatrix type="matrix" values="0 0 0 0 0.0352941 0 0 0 0 0.866667 0 0 0 0 0.545098 0 0 0 0.1 0"/>
<feBlend mode="normal" in2="BackgroundImageFix" result="effect1_dropShadow_612_1365"/>
<feBlend mode="normal" in="SourceGraphic" in2="effect1_dropShadow_612_1365" result="shape"/>
</filter>
<filter id="filter7_d_612_1365" x="440" y="22" width="134" height="134" filterUnits="userSpaceOnUse" color-interpolation-filters="sRGB">
<feFlood flood-opacity="0" result="BackgroundImageFix"/>
<feColorMatrix in="SourceAlpha" type="matrix" values="0 0 0 0 0 0 0 0 0 0 0 0 0 0 0 0 0 0 127 0" result="hardAlpha"/>
<feOffset dy="20"/>
<feGaussianBlur stdDeviation="10"/>
<feComposite in2="hardAlpha" operator="out"/>
<feColorMatrix type="matrix" values="0 0 0 0 0.164706 0 0 0 0 0.435294 0 0 0 0 1 0 0 0 0.1 0"/>
<feBlend mode="normal" in2="BackgroundImageFix" result="effect1_dropShadow_612_1365"/>
<feBlend mode="normal" in="SourceGraphic" in2="effect1_dropShadow_612_1365" result="shape"/>
</filter>
<filter id="filter8_d_612_1365" x="44" y="406" width="134" height="134" filterUnits="userSpaceOnUse" color-interpolation-filters="sRGB">
<feFlood flood-opacity="0" result="BackgroundImageFix"/>
<feColorMatrix in="SourceAlpha" type="matrix" values="0 0 0 0 0 0 0 0 0 0 0 0 0 0 0 0 0 0 127 0" result="hardAlpha"/>
<feOffset dy="20"/>
<feGaussianBlur stdDeviation="10"/>
<feColorMatrix type="matrix" values="0 0 0 0 0.988235 0 0 0 0 0.47451 0 0 0 0 0.0509804 0 0 0 0.1 0"/>
<feBlend mode="normal" in2="BackgroundImageFix" result="effect1_dropShadow_612_1365"/>
<feBlend mode="normal" in="SourceGraphic" in2="effect1_dropShadow_612_1365" result="shape"/>
</filter>
<filter id="filter9_d_612_1365" x="404" y="477" width="44" height="54" filterUnits="userSpaceOnUse" color-interpolation-filters="sRGB">
<feFlood flood-opacity="0" result="BackgroundImageFix"/>
<feColorMatrix in="SourceAlpha" type="matrix" values="0 0 0 0 0 0 0 0 0 0 0 0 0 0 0 0 0 0 127 0" result="hardAlpha"/>
<feMorphology radius="10" operator="erode" in="SourceAlpha" result="effect1_dropShadow_612_1365"/>
<feOffset dy="20"/>
<feGaussianBlur stdDeviation="10"/>
<feColorMatrix type="matrix" values="0 0 0 0 0.0352941 0 0 0 0 0.866667 0 0 0 0 0.545098 0 0 0 0.2 0"/>
<feBlend mode="normal" in2="BackgroundImageFix" result="effect1_dropShadow_612_1365"/>
<feBlend mode="normal" in="SourceGraphic" in2="effect1_dropShadow_612_1365" result="shape"/>
</filter>
<filter id="filter10_d_612_1365" x="459" y="259" width="48" height="48" filterUnits="userSpaceOnUse" color-interpolation-filters="sRGB">
<feFlood flood-opacity="0" result="BackgroundImageFix"/>
<feColorMatrix in="SourceAlpha" type="matrix" values="0 0 0 0 0 0 0 0 0 0 0 0 0 0 0 0 0 0 127 0" result="hardAlpha"/>
<feOffset dy="20"/>
<feGaussianBlur stdDeviation="10"/>
<feColorMatrix type="matrix" values="0 0 0 0 0.988235 0 0 0 0 0.47451 0 0 0 0 0.0509804 0 0 0 0.1 0"/>
<feBlend mode="normal" in2="BackgroundImageFix" result="effect1_dropShadow_612_1365"/>
<feBlend mode="normal" in="SourceGraphic" in2="effect1_dropShadow_612_1365" result="shape"/>
</filter>
<radialGradient id="paint0_radial_612_1365" cx="0" cy="0" r="1" gradientUnits="userSpaceOnUse" gradientTransform="translate(224.143 132) rotate(62.5009) scale(317.436)">
<stop stop-color="#FC790D"/>
<stop offset="1" stop-color="#FF9A23"/>
</radialGradient>
<radialGradient id="paint1_radial_612_1365" cx="0" cy="0" r="1" gradientUnits="userSpaceOnUse" gradientTransform="translate(133 267) scale(352)">
<stop stop-color="#FF9A23" stop-opacity="0"/>
<stop offset="1" stop-color="#FC790D"/>
</radialGradient>
<radialGradient id="paint2_radial_612_1365" cx="0" cy="0" r="1" gradientUnits="userSpaceOnUse" gradientTransform="translate(375.19 239.083) rotate(-109.906) scale(21.2583 16.6166)">
<stop stop-color="#FF9A23"/>
<stop offset="1" stop-color="#FC790D"/>
</radialGradient>
<linearGradient id="paint3_linear_612_1365" x1="149.632" y1="293.325" x2="246.472" y2="356.667" gradientUnits="userSpaceOnUse">
<stop stop-color="#07D988"/>
<stop offset="1" stop-color="#15F59F"/>
</linearGradient>
<linearGradient id="paint4_linear_612_1365" x1="265.632" y1="293.325" x2="362.472" y2="356.667" gradientUnits="userSpaceOnUse">
<stop stop-color="#07D988"/>
<stop offset="1" stop-color="#15F59F"/>
</linearGradient>
<linearGradient id="paint5_linear_612_1365" x1="381.632" y1="293.325" x2="478.472" y2="356.667" gradientUnits="userSpaceOnUse">
<stop stop-color="#07D988"/>
<stop offset="1" stop-color="#15F59F"/>
</linearGradient>
<linearGradient id="paint6_linear_612_1365" x1="484.763" y1="22" x2="525.316" y2="114.167" gradientUnits="userSpaceOnUse">
<stop stop-color="#0555FF"/>
<stop offset="1" stop-color="#4380FF"/>
</linearGradient>
<linearGradient id="paint7_linear_612_1365" x1="482.111" y1="64.1664" x2="531.889" y2="64.1664" gradientUnits="userSpaceOnUse">
<stop stop-color="white"/>
<stop offset="1" stop-color="white" stop-opacity="0.6"/>
</linearGradient>
<linearGradient id="paint8_linear_612_1365" x1="488.33" y1="62.0424" x2="525.669" y2="62.0424" gradientUnits="userSpaceOnUse">
<stop stop-color="white"/>
<stop offset="1" stop-color="white" stop-opacity="0.6"/>
</linearGradient>
<linearGradient id="paint9_linear_612_1365" x1="482.11" y1="75.8358" x2="531.862" y2="75.8358" gradientUnits="userSpaceOnUse">
<stop stop-color="white"/>
<stop offset="1" stop-color="#B0CAFF"/>
</linearGradient>
<radialGradient id="paint10_radial_612_1365" cx="0" cy="0" r="1" gradientUnits="userSpaceOnUse" gradientTransform="translate(64.0116 453) scale(94.1078 436.321)">
<stop stop-color="#FC790D"/>
<stop offset="1" stop-color="#FF9A23"/>
</radialGradient>
<linearGradient id="paint11_linear_612_1365" x1="89" y1="428" x2="133" y2="481" gradientUnits="userSpaceOnUse">
<stop stop-color="white"/>
<stop offset="0.993319" stop-color="white" stop-opacity="0.6"/>
</linearGradient>
<linearGradient id="paint12_linear_612_1365" x1="414.679" y1="477.6" x2="439.67" y2="493.946" gradientUnits="userSpaceOnUse">
<stop stop-color="#07D988"/>
<stop offset="1" stop-color="#15F59F"/>
</linearGradient>
<radialGradient id="paint13_radial_612_1365" cx="0" cy="0" r="1" gradientUnits="userSpaceOnUse" gradientTransform="translate(480.905 259.667) rotate(62.5009) scale(7.83793)">
<stop stop-color="#FC790D"/>
<stop offset="1" stop-color="#FF9A23"/>
</radialGradient>
<linearGradient id="paint14_linear_612_1365" x1="111" y1="448" x2="111" y2="469" gradientUnits="userSpaceOnUse">
<stop stop-color="#FF941F" stop-opacity="0.6"/>
<stop offset="1" stop-color="#FF941F"/>
</linearGradient>
<radialGradient id="paint15_radial_612_1365" cx="0" cy="0" r="1" gradientUnits="userSpaceOnUse" gradientTransform="translate(104.002 448) scale(14.0161 64.9839)">
<stop stop-color="#FC790D"/>
<stop offset="1" stop-color="#FF9A23"/>
</radialGradient>
<clipPath id="clip0_612_1365">
<rect width="608" height="544" fill="white"/>
</clipPath>
</defs>
</svg>
