<svg width="600" height="546" viewBox="0 0 600 546" fill="none" xmlns="http://www.w3.org/2000/svg">
    <path d="M342.42 289.971L343.278 289.119C354.355 282.687 363.642 273.616 370.301 262.726C376.96 251.837 380.78 239.472 381.416 226.749C382.37 183.686 344.04 147.437 295.604 146.491C247.168 145.545 206.932 179.522 205.978 222.206C205.025 264.89 243.354 301.517 291.79 302.464H297.321C302.78 306.32 308.481 309.829 314.388 312.969C323.44 317.958 333.592 320.656 343.945 320.825C353.48 319.878 355.005 313.916 353.48 310.698C351.954 307.48 348.426 307.48 345.661 305.682C342.68 304.146 340.249 301.733 338.701 298.773C338.22 297.896 337.947 296.921 337.904 295.923C337.862 294.926 338.051 293.931 338.456 293.017C338.861 292.103 339.472 291.294 340.242 290.651C341.012 290.008 341.92 289.548 342.896 289.308" fill="#F0F4FD" />
    <rect x="218" y="-32" width="446.774" height="446.774" rx="90" transform="rotate(30 218 -32)" fill="#F0F4FD" />
    <g opacity="0.7">
        <line x1="64" y1="406" x2="187.85" y2="406" stroke="#0DE592" stroke-width="6" stroke-linecap="round" stroke-dasharray="0.2 25" />
        <line x1="64" y1="378" x2="187.85" y2="378" stroke="#0DE592" stroke-width="6" stroke-linecap="round" stroke-dasharray="0.2 25" />
        <line x1="64" y1="434" x2="187.85" y2="434" stroke="#0DE592" stroke-width="6" stroke-linecap="round" stroke-dasharray="0.2 25" />
        <line x1="64" y1="462" x2="187.85" y2="462" stroke="#0DE592" stroke-width="6" stroke-linecap="round" stroke-dasharray="0.2 25" />
        <line x1="64" y1="490" x2="187.85" y2="490" stroke="#0DE592" stroke-width="6" stroke-linecap="round" stroke-dasharray="0.2 25" />
    </g>
    <g opacity="0.6">
        <line x1="440" y1="126.337" x2="440" y2="12.3372" stroke="#0555FF" stroke-width="6" stroke-linecap="round" stroke-dasharray="0.2 25" />
        <line x1="471.963" y1="126" x2="471.963" y2="11.9998" stroke="#0555FF" stroke-width="6" stroke-linecap="round" stroke-dasharray="0.2 25" />
        <line x1="535.89" y1="126" x2="535.89" y2="11.9998" stroke="#0555FF" stroke-width="6" stroke-linecap="round" stroke-dasharray="0.2 25" />
        <line x1="567.854" y1="126" x2="567.854" y2="11.9998" stroke="#0555FF" stroke-width="6" stroke-linecap="round" stroke-dasharray="0.2 25" />
        <line x1="503.927" y1="126" x2="503.927" y2="11.9998" stroke="#0555FF" stroke-width="6" stroke-linecap="round" stroke-dasharray="0.2 25" />
    </g>
    <g filter="url(#filter0_d_647_358)">
        <rect x="127" y="71" width="396" height="266" rx="16" fill="white" />
        <line x1="157.25" y1="101" x2="157.25" y2="308" stroke="#2C70FF" stroke-opacity="0.16" stroke-width="0.5" />
        <line x1="213.25" y1="101" x2="213.25" y2="308" stroke="#2C70FF" stroke-opacity="0.16" stroke-width="0.5" />
        <line x1="269.25" y1="101" x2="269.25" y2="308" stroke="#2C70FF" stroke-opacity="0.16" stroke-width="0.5" />
        <line x1="325.25" y1="101" x2="325.25" y2="308" stroke="#2C70FF" stroke-opacity="0.16" stroke-width="0.5" />
        <line x1="380.25" y1="101" x2="380.25" y2="308" stroke="#2C70FF" stroke-opacity="0.16" stroke-width="0.5" />
        <line x1="436.25" y1="101" x2="436.25" y2="308" stroke="#2C70FF" stroke-opacity="0.16" stroke-width="0.5" />
        <line x1="492.25" y1="101" x2="492.25" y2="308" stroke="#2C70FF" stroke-opacity="0.16" stroke-width="0.5" />
        <rect x="127.5" y="71.5" width="395" height="265" rx="15.5" stroke="#F2F6FF" />
    </g>
    <g filter="url(#filter1_d_647_358)">
        <rect x="129" y="355" width="120" height="120" rx="20" fill="white" />
        <rect x="129.5" y="355.5" width="119" height="119" rx="19.5" stroke="#F2F6FF" />
    </g>
    <g filter="url(#filter2_d_647_358)">
        <path fill-rule="evenodd" clip-rule="evenodd" d="M182.605 387.009C183.637 387.01 184.665 387.134 185.668 387.379C186.654 387.613 187.614 387.945 188.534 388.372C189.377 388.758 190.176 389.234 190.918 389.792C191.526 390.248 192.07 390.783 192.537 391.382C193.451 392.582 194.14 393.938 194.572 395.383C194.972 396.75 195.272 398.145 195.469 399.555C195.663 401.079 195.758 402.614 195.753 404.15C196.002 404.349 196.204 404.6 196.344 404.887C196.495 405.212 196.605 405.556 196.672 405.908C196.766 406.414 196.781 406.93 196.716 407.44C196.663 408.094 196.508 408.735 196.256 409.341C196.06 409.753 195.793 410.127 195.469 410.448C195.186 410.731 194.842 410.945 194.462 411.072C194.297 411.68 194.123 412.285 193.938 412.888C193.741 413.38 193.543 413.861 193.325 414.336C193.128 414.748 192.862 415.122 192.537 415.443C191.973 415.915 191.419 416.397 190.875 416.891C190.384 417.456 190.085 418.161 190.021 418.906C189.919 419.477 189.914 420.334 189.943 420.913C189.454 421.808 189.183 422.49 188.925 423.152L188.869 423.328C188.498 424.495 188.35 424.961 188.2 425.846C188.049 426.683 188.005 427.346 187.982 427.683L187.978 427.743C187.887 428.951 188.031 430.299 188.126 431.066C188.289 432.159 188.587 433.187 188.759 433.741C188.92 434.206 189.096 434.665 189.285 435.119L189.308 435.169C189.586 435.772 189.725 436.073 190.152 436.833C190.333 437.129 190.519 437.421 190.709 437.711C191.115 438.313 191.443 438.729 191.65 438.967C192.319 439.765 192.756 440.174 192.756 440.174C193.24 440.633 193.729 441.094 194.454 441.636C194.75 441.848 195.066 442.067 195.066 442.067C195.397 442.284 195.733 442.492 196.074 442.693L196.075 442.693C196.124 442.721 196.149 442.735 196.174 442.749C196.189 442.758 196.203 442.767 196.223 442.778C196.237 442.786 196.253 442.796 196.272 442.807C194.772 443.04 192.209 443.313 190.678 443.446C189.207 443.574 187.733 443.678 186.259 443.759C184.859 443.836 183.634 443.873 182.605 443.873C181.577 443.873 180.374 443.836 178.996 443.759C177.617 443.682 176.217 443.58 174.751 443.446C173.298 443.314 171.847 443.162 170.398 442.991C168.954 442.82 167.641 442.641 166.46 442.453C165.279 442.265 164.294 442.074 163.463 441.884C162.918 441.804 162.396 441.61 161.931 441.316C161.385 440.491 161.096 439.524 161.1 438.535C160.91 436.527 160.991 434.503 161.34 432.516C161.431 431.284 161.996 430.135 162.916 429.309C163.821 428.556 164.85 427.964 165.957 427.559C167.141 427.114 168.345 426.725 169.566 426.395C170.74 426.086 171.856 425.587 172.87 424.919C173.503 424.529 174.078 424.051 174.576 423.499C174.938 423.097 175.226 422.636 175.429 422.136C175.622 421.687 175.718 421.204 175.714 420.716C175.714 420.224 175.692 419.675 175.648 419.068C175.624 418.297 175.321 417.561 174.795 416.996C174.261 416.454 173.706 415.933 173.132 415.434C172.816 415.116 172.563 414.74 172.388 414.327C172.188 413.846 171.991 413.363 171.798 412.879C171.612 412.277 171.438 411.671 171.273 411.063C171.003 410.976 170.751 410.841 170.529 410.665C170.265 410.429 170.03 410.162 169.829 409.871C169.535 409.418 169.321 408.919 169.195 408.394C168.984 407.836 168.902 407.238 168.954 406.644C168.991 406.179 169.087 405.721 169.238 405.281C169.396 404.844 169.634 404.439 169.938 404.089C169.902 402.647 169.975 401.205 170.157 399.774C170.314 398.452 170.57 397.143 170.923 395.858C171.269 394.523 171.839 393.256 172.607 392.111C173.219 391.13 173.987 390.257 174.883 389.527C175.663 388.895 176.524 388.37 177.442 387.965C178.281 387.598 179.163 387.34 180.067 387.199C180.907 387.069 181.756 387.002 182.606 387V387.009H182.605ZM216.935 428.685C216.935 435.778 211.185 441.528 204.092 441.528C196.999 441.528 191.249 435.778 191.249 428.685C191.249 421.592 196.999 415.842 204.092 415.842C211.185 415.842 216.935 421.592 216.935 428.685ZM210.445 422.6C210.562 422.479 210.772 422.321 211.07 422.321C211.368 422.321 211.578 422.479 211.694 422.6L212.621 423.561C212.741 423.685 212.88 423.892 212.88 424.174C212.88 424.454 212.742 424.661 212.622 424.785L206.481 431.203L206.465 431.216C205.908 431.712 205.028 431.764 204.466 431.18L202.684 429.332L197.743 434.544C197.627 434.665 197.416 434.824 197.118 434.824C196.82 434.824 196.609 434.666 196.493 434.545L195.566 433.584C195.406 433.418 195.307 433.193 195.307 432.953C195.307 432.748 195.387 432.49 195.61 432.313L195.601 432.322L195.722 432.438L195.62 432.305L195.61 432.313L201.66 425.99L201.676 425.977C202.233 425.482 203.113 425.429 203.675 426.013L205.457 427.861L210.441 422.604L210.445 422.6Z" fill="url(#paint0_linear_647_358)" />
    </g>
    <g filter="url(#filter3_d_647_358)">
        <rect x="267" y="355" width="120" height="120" rx="20" fill="url(#paint1_radial_647_358)" />
    </g>
    <path fill-rule="evenodd" clip-rule="evenodd" d="M320.714 387.009C321.746 387.01 322.775 387.134 323.777 387.379C324.763 387.613 325.723 387.945 326.643 388.372C327.486 388.758 328.286 389.234 329.027 389.792C329.635 390.248 330.179 390.783 330.647 391.382C331.56 392.582 332.249 393.938 332.681 395.383C333.081 396.75 333.381 398.145 333.578 399.555C333.772 401.079 333.867 402.614 333.862 404.15C334.111 404.349 334.313 404.6 334.453 404.887C334.604 405.212 334.715 405.556 334.781 405.908C334.876 406.414 334.89 406.93 334.825 407.44C334.772 408.094 334.617 408.735 334.366 409.341C334.169 409.753 333.903 410.127 333.578 410.448C333.296 410.731 332.951 410.945 332.572 411.072C332.407 411.68 332.232 412.285 332.047 412.888C331.85 413.38 331.653 413.861 331.434 414.336C331.238 414.748 330.971 415.122 330.647 415.443C330.083 415.915 329.528 416.397 328.984 416.891C328.493 417.456 328.194 418.161 328.131 418.906C328.029 419.477 328.023 420.334 328.052 420.913C327.563 421.808 327.293 422.49 327.035 423.152L326.979 423.328C326.608 424.495 326.459 424.961 326.31 425.846C326.158 426.683 326.114 427.346 326.092 427.683L326.088 427.743C325.997 428.951 326.14 430.299 326.235 431.066C326.398 432.159 326.697 433.187 326.868 433.741C327.03 434.206 327.205 434.665 327.394 435.119L327.417 435.169C327.695 435.772 327.835 436.073 328.262 436.833C328.443 437.129 328.628 437.421 328.819 437.711C329.225 438.313 329.553 438.729 329.759 438.967C330.428 439.765 330.865 440.174 330.865 440.174C331.35 440.633 331.838 441.094 332.563 441.636C332.859 441.848 333.175 442.067 333.175 442.067C333.506 442.284 333.842 442.492 334.183 442.693L334.184 442.693C334.234 442.721 334.258 442.735 334.283 442.749C334.298 442.758 334.313 442.767 334.333 442.778C334.346 442.786 334.362 442.796 334.382 442.807C332.881 443.04 330.319 443.313 328.787 443.446C327.316 443.574 325.843 443.678 324.368 443.759C322.968 443.836 321.743 443.873 320.715 443.873C319.686 443.873 318.483 443.836 317.105 443.759C315.726 443.682 314.326 443.58 312.861 443.446C311.407 443.314 309.956 443.162 308.507 442.991C307.063 442.82 305.75 442.641 304.569 442.453C303.388 442.265 302.403 442.074 301.572 441.884C301.027 441.804 300.506 441.61 300.04 441.316C299.494 440.491 299.205 439.524 299.209 438.535C299.02 436.527 299.1 434.503 299.45 432.516C299.541 431.284 300.105 430.135 301.025 429.309C301.931 428.556 302.959 427.964 304.066 427.559C305.25 427.114 306.455 426.725 307.676 426.395C308.85 426.086 309.966 425.587 310.979 424.919C311.613 424.529 312.187 424.051 312.686 423.499C313.047 423.097 313.336 422.636 313.539 422.136C313.731 421.687 313.828 421.204 313.823 420.716C313.823 420.224 313.801 419.675 313.757 419.068C313.734 418.297 313.43 417.561 312.904 416.996C312.37 416.454 311.816 415.933 311.242 415.434C310.925 415.116 310.672 414.74 310.498 414.327C310.297 413.846 310.1 413.363 309.907 412.879C309.722 412.277 309.547 411.671 309.382 411.063C309.113 410.976 308.861 410.841 308.639 410.665C308.374 410.429 308.139 410.162 307.938 409.871C307.645 409.418 307.43 408.919 307.304 408.394C307.094 407.836 307.011 407.238 307.063 406.644C307.1 406.179 307.196 405.721 307.348 405.281C307.506 404.844 307.743 404.439 308.048 404.089C308.011 402.647 308.085 401.205 308.266 399.774C308.423 398.452 308.679 397.143 309.032 395.858C309.378 394.523 309.948 393.256 310.717 392.111C311.328 391.13 312.097 390.257 312.992 389.527C313.773 388.895 314.633 388.37 315.552 387.965C316.39 387.598 317.272 387.34 318.177 387.199C319.017 387.069 319.865 387.002 320.715 387V387.009H320.714ZM355.043 428.685C355.043 435.778 349.293 441.528 342.2 441.528C335.107 441.528 329.357 435.778 329.357 428.685C329.357 421.592 335.107 415.842 342.2 415.842C349.293 415.842 355.043 421.592 355.043 428.685ZM347.333 423.694C347.334 423.694 347.334 423.694 347.334 423.694H347.333C347.333 423.694 347.333 423.694 347.333 423.694ZM347.333 423.694C344.972 424.358 344.54 426.241 344.692 427.437C343.073 425.559 343.074 423.409 343.077 420.368C343.077 420.247 343.077 420.124 343.077 420C338.567 421.678 338.697 425.992 338.77 428.396C338.784 428.871 338.796 429.272 338.769 429.562C337.411 428.465 337.154 425.844 337.154 425.844C335.72 426.572 335 428.517 335 430.094C335 433.908 338.134 437 342 437C345.866 437 349 433.908 349 430.094C349 429.052 348.644 428.268 348.26 427.425C347.81 426.434 347.322 425.362 347.333 423.694Z" fill="url(#paint2_linear_647_358)" />
    <g filter="url(#filter4_d_647_358)">
        <rect x="405" y="355" width="120" height="120" rx="20" fill="white" />
        <rect x="405.5" y="355.5" width="119" height="119" rx="19.5" stroke="#F2F6FF" />
    </g>
    <path fill-rule="evenodd" clip-rule="evenodd" d="M461.668 387.379C460.665 387.134 459.637 387.01 458.605 387.009H458.606V387C457.756 387.002 456.907 387.069 456.067 387.199C455.163 387.34 454.281 387.598 453.442 387.965C452.524 388.37 451.663 388.895 450.883 389.527C449.987 390.257 449.219 391.13 448.607 392.111C447.839 393.256 447.269 394.523 446.923 395.858C446.57 397.143 446.314 398.452 446.157 399.774C445.975 401.205 445.902 402.647 445.938 404.089C445.634 404.439 445.396 404.844 445.238 405.281C445.087 405.721 444.991 406.179 444.954 406.644C444.902 407.238 444.984 407.836 445.195 408.394C445.321 408.919 445.535 409.418 445.829 409.871C446.03 410.162 446.265 410.429 446.529 410.665C446.751 410.841 447.003 410.976 447.273 411.063C447.438 411.671 447.612 412.277 447.798 412.879C447.991 413.363 448.188 413.846 448.388 414.327C448.563 414.74 448.816 415.116 449.132 415.434C449.706 415.933 450.261 416.454 450.795 416.996C451.321 417.561 451.624 418.297 451.648 419.068C451.692 419.675 451.714 420.224 451.714 420.716C451.718 421.204 451.622 421.687 451.429 422.136C451.226 422.636 450.938 423.097 450.576 423.499C450.078 424.051 449.503 424.529 448.87 424.919C447.856 425.587 446.74 426.086 445.566 426.395C444.345 426.725 443.141 427.114 441.957 427.559C440.85 427.964 439.821 428.556 438.916 429.309C437.996 430.135 437.431 431.284 437.34 432.516C436.991 434.503 436.91 436.527 437.1 438.535C437.096 439.524 437.385 440.491 437.931 441.316C438.396 441.61 438.918 441.804 439.463 441.884C440.294 442.074 441.279 442.265 442.46 442.453C443.641 442.641 444.954 442.82 446.398 442.991C447.847 443.162 449.298 443.314 450.751 443.446C452.217 443.58 453.617 443.682 454.996 443.759C456.374 443.836 457.577 443.873 458.605 443.873C459.634 443.873 460.859 443.836 462.259 443.759C463.733 443.678 465.207 443.574 466.678 443.446C468.209 443.313 470.772 443.04 472.272 442.807L472.223 442.778L472.174 442.749C472.149 442.735 472.124 442.721 472.075 442.693L472.074 442.693C471.733 442.492 471.397 442.284 471.066 442.067C471.066 442.067 470.75 441.848 470.454 441.636C469.729 441.094 469.24 440.633 468.756 440.174C468.756 440.174 468.319 439.765 467.65 438.967C467.443 438.729 467.115 438.313 466.709 437.711C466.519 437.421 466.333 437.129 466.152 436.833C465.725 436.073 465.586 435.772 465.308 435.169L465.285 435.119C465.096 434.665 464.92 434.206 464.759 433.741C464.587 433.187 464.289 432.159 464.126 431.066C464.031 430.299 463.887 428.951 463.978 427.743L463.982 427.683C464.005 427.346 464.049 426.683 464.2 425.846C464.35 424.961 464.498 424.495 464.869 423.328L464.925 423.152C465.183 422.49 465.454 421.808 465.943 420.913C465.914 420.334 465.919 419.477 466.021 418.906C466.085 418.161 466.384 417.456 466.875 416.891C467.419 416.397 467.973 415.915 468.537 415.443C468.862 415.122 469.128 414.748 469.325 414.336C469.543 413.861 469.741 413.38 469.938 412.888C470.123 412.285 470.297 411.68 470.462 411.072C470.842 410.945 471.186 410.731 471.469 410.448C471.793 410.127 472.06 409.753 472.256 409.341C472.508 408.735 472.663 408.094 472.716 407.44C472.781 406.93 472.766 406.414 472.672 405.908C472.605 405.556 472.495 405.212 472.344 404.887C472.204 404.6 472.002 404.349 471.753 404.15C471.758 402.614 471.663 401.079 471.469 399.555C471.272 398.145 470.972 396.75 470.572 395.383C470.14 393.938 469.451 392.582 468.537 391.382C468.07 390.783 467.526 390.248 466.918 389.792C466.176 389.234 465.377 388.758 464.534 388.372C463.614 387.945 462.654 387.613 461.668 387.379ZM480.091 441.528C487.184 441.528 492.934 435.778 492.934 428.685C492.934 421.592 487.184 415.842 480.091 415.842C472.998 415.842 467.248 421.592 467.248 428.685C467.248 435.778 472.998 441.528 480.091 441.528ZM479.009 428.149H477.916L477.925 427.929C478.018 425.793 478.132 423.16 481.535 421.038C481.556 421.027 481.572 421.009 481.582 420.986C481.591 420.964 481.592 420.939 481.586 420.915C481.58 420.892 481.565 420.871 481.546 420.858C481.527 420.844 481.504 420.838 481.481 420.841C474.657 422.003 474.099 426.836 474.088 428.126H472.995C472.918 428.126 472.843 428.149 472.779 428.192C472.714 428.235 472.663 428.297 472.63 428.369C472.597 428.442 472.584 428.523 472.592 428.603C472.601 428.683 472.63 428.76 472.677 428.823L475.444 432.53C475.513 432.626 475.602 432.704 475.705 432.758C475.807 432.812 475.92 432.84 476.035 432.84C476.149 432.84 476.262 432.812 476.365 432.758C476.467 432.704 476.556 432.626 476.625 432.53L479.348 428.823C479.392 428.76 479.419 428.685 479.426 428.606C479.432 428.528 479.419 428.449 479.386 428.378C479.354 428.307 479.303 428.248 479.241 428.205C479.178 428.163 479.105 428.14 479.031 428.138L479.009 428.149ZM482.264 429.531H481.171L481.149 429.542C481.075 429.54 481.002 429.517 480.939 429.475C480.876 429.432 480.826 429.373 480.794 429.302C480.761 429.231 480.747 429.152 480.754 429.074C480.761 428.995 480.787 428.92 480.832 428.857L483.555 425.15C483.623 425.054 483.712 424.976 483.815 424.922C483.917 424.868 484.03 424.84 484.145 424.84C484.26 424.84 484.373 424.868 484.475 424.922C484.578 424.976 484.667 425.054 484.736 425.15L487.502 428.857C487.55 428.92 487.579 428.997 487.587 429.077C487.596 429.157 487.583 429.238 487.55 429.311C487.517 429.384 487.465 429.445 487.401 429.488C487.336 429.531 487.262 429.554 487.185 429.554H486.092C486.081 430.844 485.523 435.677 478.699 436.839C478.676 436.842 478.653 436.836 478.633 436.822C478.614 436.809 478.6 436.788 478.594 436.765C478.587 436.742 478.589 436.716 478.598 436.694C478.607 436.671 478.624 436.653 478.645 436.642C482.047 434.52 482.162 431.887 482.254 429.751C482.258 429.677 482.261 429.604 482.264 429.531Z" fill="url(#paint3_linear_647_358)" />
    <mask id="mask0_647_358" style="mask-type:alpha" maskUnits="userSpaceOnUse" x="157" y="101" width="335" height="207">
        <rect x="157" y="101" width="335" height="206.786" fill="#C4C4C4" />
    </mask>
    <g mask="url(#mask0_647_358)">
        <line x1="293.216" y1="101.25" x2="293.216" y2="307.75" stroke="#FD7D10" stroke-width="0.5" stroke-linecap="round" stroke-dasharray="2 4" />
        <path opacity="0.4" fill-rule="evenodd" clip-rule="evenodd" d="M-180.087 387V369.972C-180.087 345.276 -164.524 323.261 -141.242 315.024C-132.434 311.908 -123.007 310.954 -113.753 312.244L-110.61 312.683C-88.0984 315.821 -65.4395 308.038 -49.6083 291.728L-48.1991 290.276C-31.1239 272.685 -6.5527 264.51 17.6578 268.365L31.2886 270.535L53.4873 275.49C73.9676 280.062 95.3934 277.54 114.252 268.338L122.41 264.357C132.704 259.334 144.205 257.311 155.595 258.52C177.157 260.809 198.314 251.478 211.164 234.012L219.001 223.359C234.186 202.719 259.038 191.497 284.561 193.755L286.14 193.894C292.48 194.455 298.7 195.974 304.585 198.399C331.067 209.312 361.578 200.98 378.838 178.121L386.725 167.675C397.024 154.036 411.423 144.056 427.81 139.202L436.163 136.727C449.02 132.918 461.042 126.713 471.594 118.438L508.665 89.3676C529.269 71.8717 560.915 86.5156 560.915 113.546V387H-180.087Z" fill="url(#paint4_linear_647_358)" />
        <path fill-rule="evenodd" clip-rule="evenodd" d="M-180.087 387V369.972C-180.087 345.276 -164.524 323.261 -141.242 315.024V315.024C-132.434 311.908 -123.007 310.954 -113.753 312.244L-110.61 312.683C-88.0984 315.821 -65.4395 308.038 -49.6083 291.728L-48.1991 290.276C-31.1239 272.685 -6.55271 264.51 17.6578 268.365L31.2886 270.535L53.4873 275.49C73.9676 280.062 95.3934 277.54 114.252 268.338L122.41 264.357C132.704 259.334 144.205 257.311 155.595 258.52V258.52C177.157 260.809 198.314 251.478 211.164 234.012L219.001 223.359C234.186 202.719 259.038 191.497 284.561 193.755L286.14 193.894C292.48 194.455 298.7 195.974 304.585 198.399V198.399C331.067 209.312 361.578 200.98 378.838 178.121L386.725 167.675C397.024 154.036 411.423 144.056 427.81 139.202L436.163 136.727C449.02 132.918 461.042 126.713 471.594 118.438L508.665 89.3676V89.3676C529.269 71.8717 560.915 86.5156 560.915 113.546V387H-180.087Z" stroke="url(#paint5_linear_647_358)" />
        <g filter="url(#filter5_d_647_358)">
            <circle cx="293" cy="195" r="3" fill="#FD7D10" />
            <circle cx="293" cy="195" r="4" stroke="white" stroke-width="2" />
        </g>
        <path opacity="0.2" fill-rule="evenodd" clip-rule="evenodd" d="M-180.087 314V314C-180.087 293.022 -163.826 275.636 -142.895 274.234L-127.837 273.225L-96.7769 274.045C-82.1663 274.43 -67.5575 273.213 -53.2122 270.415L-42.9166 268.407C-28.3254 265.561 -13.4624 264.351 1.39705 264.799L31.2886 265.7L85.122 267.975L138.164 263.075L163.053 263.575C181.209 263.94 199.515 261.783 217.101 257.257V257.257C234.47 252.787 252.544 250.627 270.477 250.928L295.706 251.35L316.999 253.011C338.55 254.693 360.231 252.869 381.198 247.612L384.13 246.876C396.403 243.799 408.94 241.893 421.573 241.185L455.623 239.275L508.665 231.4V231.4C536.072 226.994 560.915 248.161 560.915 275.921V314H-180.087Z" stroke="url(#paint6_linear_647_358)" />
        <g filter="url(#filter6_d_647_358)">
            <rect x="305" y="182" width="47" height="25" rx="4" fill="url(#paint7_radial_647_358)" />
        </g>
        <path d="M343.844 192.964L340.502 189L337.16 192.964C336.871 193.305 336.985 193.582 337.41 193.582L338.953 193.582L338.953 198.164C338.953 198.629 339.296 199 339.728 199L341.277 199C341.702 199 342.045 198.629 342.052 198.171L342.052 193.582L343.595 193.582C344.013 193.582 344.127 193.305 343.844 192.964Z" fill="white" />
        <g filter="url(#filter7_d_647_358)">
            <rect x="305" y="238" width="36" height="25" rx="4" fill="url(#paint8_radial_647_358)" />
        </g>
        <path d="M319.144 197.788V196.312H318.364V194.716H316.864V196.312H315.076L318.004 190.456H316.3L313.372 196.312V197.788H316.864V199H318.364V197.788H319.144ZM325.444 196.12C325.444 195.316 325.348 194.512 324.676 193.84C324.328 193.492 323.788 193.264 323.08 193.264C322.504 193.264 322.024 193.48 321.796 193.696V191.86H325.252V190.456H320.38V195.28H321.808C321.916 194.944 322.204 194.584 322.84 194.584C323.596 194.584 323.884 195.136 323.884 196.12C323.884 196.66 323.824 197.116 323.548 197.392C323.356 197.584 323.104 197.668 322.804 197.668C322.156 197.668 321.844 197.284 321.76 196.612H320.2C320.248 197.236 320.368 197.86 320.896 198.388C321.268 198.76 321.916 199.072 322.804 199.072C323.692 199.072 324.304 198.76 324.688 198.376C325.312 197.752 325.444 197.08 325.444 196.12ZM332.031 196.516C332.031 195.472 331.419 194.908 330.951 194.596C331.383 194.296 331.911 193.732 331.911 192.82C331.911 191.308 330.723 190.384 329.295 190.384C327.867 190.384 326.667 191.308 326.667 192.82C326.667 193.732 327.195 194.296 327.627 194.596C327.159 194.908 326.559 195.472 326.559 196.516C326.559 198.172 327.783 199.072 329.295 199.072C330.807 199.072 332.031 198.172 332.031 196.516ZM330.471 196.492C330.471 197.152 329.955 197.668 329.295 197.668C328.635 197.668 328.119 197.152 328.119 196.492C328.119 195.832 328.635 195.304 329.295 195.304C329.955 195.304 330.471 195.832 330.471 196.492ZM330.351 192.868C330.351 193.492 329.907 193.948 329.295 193.948C328.683 193.948 328.227 193.492 328.227 192.868C328.227 192.256 328.683 191.788 329.295 191.788C329.907 191.788 330.351 192.256 330.351 192.868Z" fill="white" />
        <path d="M318.904 255V253.596H315.604L317.992 250.824C318.58 250.14 318.904 249.696 318.904 248.868C318.904 247.332 317.824 246.384 316.312 246.384C314.848 246.384 313.708 247.32 313.708 248.88H315.268C315.268 248.052 315.796 247.788 316.312 247.788C316.972 247.788 317.344 248.22 317.344 248.856C317.344 249.252 317.212 249.516 316.9 249.888L313.708 253.596V255H318.904ZM325.456 252.528C325.456 251.496 324.964 250.908 324.352 250.584C324.916 250.284 325.336 249.756 325.336 248.832C325.336 247.392 324.244 246.384 322.732 246.384C321.292 246.384 320.152 247.296 320.116 248.82H321.676C321.712 248.172 322.144 247.788 322.732 247.788C323.296 247.788 323.776 248.16 323.776 248.88C323.776 249.48 323.452 249.948 322.696 249.948H322.468V251.304H322.696C323.464 251.304 323.896 251.772 323.896 252.48C323.896 253.248 323.416 253.668 322.744 253.668C322.132 253.668 321.604 253.32 321.58 252.552H320.02C320.044 254.34 321.352 255.072 322.744 255.072C324.208 255.072 325.456 254.232 325.456 252.528ZM331.887 252.528V248.928C331.887 247.296 330.687 246.384 329.295 246.384C327.903 246.384 326.691 247.296 326.691 248.928V252.528C326.691 254.16 327.903 255.072 329.295 255.072C330.687 255.072 331.887 254.16 331.887 252.528ZM330.327 252.516C330.327 253.236 329.907 253.668 329.295 253.668C328.683 253.668 328.251 253.236 328.251 252.516V248.952C328.251 248.232 328.683 247.788 329.295 247.788C329.907 247.788 330.327 248.232 330.327 248.952V252.516Z" fill="white" />
        <g filter="url(#filter8_d_647_358)">
            <circle cx="293" cy="251" r="3" fill="#FD7D10" />
            <circle cx="293" cy="251" r="4" stroke="white" stroke-width="2" />
        </g>
    </g>
    <defs>
        <filter id="filter0_d_647_358" x="87" y="51" width="476" height="346" filterUnits="userSpaceOnUse" color-interpolation-filters="sRGB">
            <feFlood flood-opacity="0" result="BackgroundImageFix" />
            <feColorMatrix in="SourceAlpha" type="matrix" values="0 0 0 0 0 0 0 0 0 0 0 0 0 0 0 0 0 0 127 0" result="hardAlpha" />
            <feMorphology radius="20" operator="erode" in="SourceAlpha" result="effect1_dropShadow_647_358" />
            <feOffset dy="20" />
            <feGaussianBlur stdDeviation="30" />
            <feColorMatrix type="matrix" values="0 0 0 0 0.0196078 0 0 0 0 0.333333 0 0 0 0 1 0 0 0 0.1 0" />
            <feBlend mode="normal" in2="BackgroundImageFix" result="effect1_dropShadow_647_358" />
            <feBlend mode="normal" in="SourceGraphic" in2="effect1_dropShadow_647_358" result="shape" />
        </filter>
        <filter id="filter1_d_647_358" x="89" y="335" width="200" height="200" filterUnits="userSpaceOnUse" color-interpolation-filters="sRGB">
            <feFlood flood-opacity="0" result="BackgroundImageFix" />
            <feColorMatrix in="SourceAlpha" type="matrix" values="0 0 0 0 0 0 0 0 0 0 0 0 0 0 0 0 0 0 127 0" result="hardAlpha" />
            <feMorphology radius="20" operator="erode" in="SourceAlpha" result="effect1_dropShadow_647_358" />
            <feOffset dy="20" />
            <feGaussianBlur stdDeviation="30" />
            <feColorMatrix type="matrix" values="0 0 0 0 0.0196078 0 0 0 0 0.333333 0 0 0 0 1 0 0 0 0.1 0" />
            <feBlend mode="normal" in2="BackgroundImageFix" result="effect1_dropShadow_647_358" />
            <feBlend mode="normal" in="SourceGraphic" in2="effect1_dropShadow_647_358" result="shape" />
        </filter>
        <filter id="filter2_d_647_358" x="151" y="378" width="75.9346" height="76.873" filterUnits="userSpaceOnUse" color-interpolation-filters="sRGB">
            <feFlood flood-opacity="0" result="BackgroundImageFix" />
            <feColorMatrix in="SourceAlpha" type="matrix" values="0 0 0 0 0 0 0 0 0 0 0 0 0 0 0 0 0 0 127 0" result="hardAlpha" />
            <feOffset dy="1" />
            <feGaussianBlur stdDeviation="5" />
            <feComposite in2="hardAlpha" operator="out" />
            <feColorMatrix type="matrix" values="0 0 0 0 0.164706 0 0 0 0 0.435294 0 0 0 0 1 0 0 0 0.15 0" />
            <feBlend mode="normal" in2="BackgroundImageFix" result="effect1_dropShadow_647_358" />
            <feBlend mode="normal" in="SourceGraphic" in2="effect1_dropShadow_647_358" result="shape" />
        </filter>
        <filter id="filter3_d_647_358" x="247" y="355" width="160" height="160" filterUnits="userSpaceOnUse" color-interpolation-filters="sRGB">
            <feFlood flood-opacity="0" result="BackgroundImageFix" />
            <feColorMatrix in="SourceAlpha" type="matrix" values="0 0 0 0 0 0 0 0 0 0 0 0 0 0 0 0 0 0 127 0" result="hardAlpha" />
            <feOffset dy="20" />
            <feGaussianBlur stdDeviation="10" />
            <feColorMatrix type="matrix" values="0 0 0 0 0.988235 0 0 0 0 0.47451 0 0 0 0 0.0509804 0 0 0 0.1 0" />
            <feBlend mode="normal" in2="BackgroundImageFix" result="effect1_dropShadow_647_358" />
            <feBlend mode="normal" in="SourceGraphic" in2="effect1_dropShadow_647_358" result="shape" />
        </filter>
        <filter id="filter4_d_647_358" x="365" y="335" width="200" height="200" filterUnits="userSpaceOnUse" color-interpolation-filters="sRGB">
            <feFlood flood-opacity="0" result="BackgroundImageFix" />
            <feColorMatrix in="SourceAlpha" type="matrix" values="0 0 0 0 0 0 0 0 0 0 0 0 0 0 0 0 0 0 127 0" result="hardAlpha" />
            <feMorphology radius="20" operator="erode" in="SourceAlpha" result="effect1_dropShadow_647_358" />
            <feOffset dy="20" />
            <feGaussianBlur stdDeviation="30" />
            <feColorMatrix type="matrix" values="0 0 0 0 0.0196078 0 0 0 0 0.333333 0 0 0 0 1 0 0 0 0.1 0" />
            <feBlend mode="normal" in2="BackgroundImageFix" result="effect1_dropShadow_647_358" />
            <feBlend mode="normal" in="SourceGraphic" in2="effect1_dropShadow_647_358" result="shape" />
        </filter>
        <filter id="filter5_d_647_358" x="284" y="186" width="18" height="18" filterUnits="userSpaceOnUse" color-interpolation-filters="sRGB">
            <feFlood flood-opacity="0" result="BackgroundImageFix" />
            <feColorMatrix in="SourceAlpha" type="matrix" values="0 0 0 0 0 0 0 0 0 0 0 0 0 0 0 0 0 0 127 0" result="hardAlpha" />
            <feOffset />
            <feGaussianBlur stdDeviation="2" />
            <feComposite in2="hardAlpha" operator="out" />
            <feColorMatrix type="matrix" values="0 0 0 0 0.992157 0 0 0 0 0.490196 0 0 0 0 0.0627451 0 0 0 0.23 0" />
            <feBlend mode="normal" in2="BackgroundImageFix" result="effect1_dropShadow_647_358" />
            <feBlend mode="normal" in="SourceGraphic" in2="effect1_dropShadow_647_358" result="shape" />
        </filter>
        <filter id="filter6_d_647_358" x="285" y="182" width="87" height="65" filterUnits="userSpaceOnUse" color-interpolation-filters="sRGB">
            <feFlood flood-opacity="0" result="BackgroundImageFix" />
            <feColorMatrix in="SourceAlpha" type="matrix" values="0 0 0 0 0 0 0 0 0 0 0 0 0 0 0 0 0 0 127 0" result="hardAlpha" />
            <feOffset dy="20" />
            <feGaussianBlur stdDeviation="10" />
            <feColorMatrix type="matrix" values="0 0 0 0 0.988235 0 0 0 0 0.47451 0 0 0 0 0.0509804 0 0 0 0.1 0" />
            <feBlend mode="normal" in2="BackgroundImageFix" result="effect1_dropShadow_647_358" />
            <feBlend mode="normal" in="SourceGraphic" in2="effect1_dropShadow_647_358" result="shape" />
        </filter>
        <filter id="filter7_d_647_358" x="285" y="238" width="76" height="65" filterUnits="userSpaceOnUse" color-interpolation-filters="sRGB">
            <feFlood flood-opacity="0" result="BackgroundImageFix" />
            <feColorMatrix in="SourceAlpha" type="matrix" values="0 0 0 0 0 0 0 0 0 0 0 0 0 0 0 0 0 0 127 0" result="hardAlpha" />
            <feOffset dy="20" />
            <feGaussianBlur stdDeviation="10" />
            <feColorMatrix type="matrix" values="0 0 0 0 0.988235 0 0 0 0 0.47451 0 0 0 0 0.0509804 0 0 0 0.1 0" />
            <feBlend mode="normal" in2="BackgroundImageFix" result="effect1_dropShadow_647_358" />
            <feBlend mode="normal" in="SourceGraphic" in2="effect1_dropShadow_647_358" result="shape" />
        </filter>
        <filter id="filter8_d_647_358" x="284" y="242" width="18" height="18" filterUnits="userSpaceOnUse" color-interpolation-filters="sRGB">
            <feFlood flood-opacity="0" result="BackgroundImageFix" />
            <feColorMatrix in="SourceAlpha" type="matrix" values="0 0 0 0 0 0 0 0 0 0 0 0 0 0 0 0 0 0 127 0" result="hardAlpha" />
            <feOffset />
            <feGaussianBlur stdDeviation="2" />
            <feComposite in2="hardAlpha" operator="out" />
            <feColorMatrix type="matrix" values="0 0 0 0 0.992157 0 0 0 0 0.490196 0 0 0 0 0.0627451 0 0 0 0.23 0" />
            <feBlend mode="normal" in2="BackgroundImageFix" result="effect1_dropShadow_647_358" />
            <feBlend mode="normal" in="SourceGraphic" in2="effect1_dropShadow_647_358" result="shape" />
        </filter>
        <linearGradient id="paint0_linear_647_358" x1="210" y1="438" x2="171.292" y2="390.388" gradientUnits="userSpaceOnUse">
            <stop stop-color="#6395FD" />
            <stop offset="1" stop-color="#2A6FFF" />
        </linearGradient>
        <radialGradient id="paint1_radial_647_358" cx="0" cy="0" r="1" gradientUnits="userSpaceOnUse" gradientTransform="translate(267.015 415) scale(120.138 557.005)">
            <stop stop-color="#FC790D" />
            <stop offset="1" stop-color="#FF9A23" />
        </radialGradient>
        <linearGradient id="paint2_linear_647_358" x1="327.076" y1="387" x2="327.076" y2="443.873" gradientUnits="userSpaceOnUse">
            <stop stop-color="white" />
            <stop offset="0.993319" stop-color="white" stop-opacity="0.6" />
        </linearGradient>
        <linearGradient id="paint3_linear_647_358" x1="438.583" y1="388.422" x2="497.404" y2="426.26" gradientUnits="userSpaceOnUse">
            <stop stop-color="#07D988" />
            <stop offset="1" stop-color="#15F59F" />
        </linearGradient>
        <linearGradient id="paint4_linear_647_358" x1="189.892" y1="101" x2="189.892" y2="312.604" gradientUnits="userSpaceOnUse">
            <stop stop-color="#FD7E10" />
            <stop offset="1" stop-color="#FD7E10" stop-opacity="0" />
        </linearGradient>
        <linearGradient id="paint5_linear_647_358" x1="494.087" y1="140.5" x2="154.543" y2="140.541" gradientUnits="userSpaceOnUse">
            <stop stop-color="#FD7F11" />
            <stop offset="1" stop-color="#FF9B25" stop-opacity="0" />
        </linearGradient>
        <linearGradient id="paint6_linear_647_358" x1="494.087" y1="248.411" x2="154.543" y2="248.565" gradientUnits="userSpaceOnUse">
            <stop stop-color="#FD7F11" />
            <stop offset="1" stop-color="#FF9B25" stop-opacity="0.4" />
        </linearGradient>
        <radialGradient id="paint7_radial_647_358" cx="0" cy="0" r="1" gradientUnits="userSpaceOnUse" gradientTransform="translate(305.006 194.5) scale(47.0539 116.043)">
            <stop stop-color="#FC790D" />
            <stop offset="1" stop-color="#FF9A23" />
        </radialGradient>
        <radialGradient id="paint8_radial_647_358" cx="0" cy="0" r="1" gradientUnits="userSpaceOnUse" gradientTransform="translate(305.004 250.5) scale(36.0413 116.043)">
            <stop stop-color="#FC790D" />
            <stop offset="1" stop-color="#FF9A23" />
        </radialGradient>
    </defs>
</svg>
    