<svg width="106" height="64" viewBox="0 0 106 64" fill="none" xmlns="http://www.w3.org/2000/svg">
  <g clip-path="url(#clip0_432_1767)">
    <path d="M22.3521 20.8231C21.1782 19.6042 19.7652 18.6362 18.1999 17.9786C16.6347 17.321 14.9503 16.9878 13.2504 16.9993C11.5469 16.9803 9.85788 17.31 8.28898 17.968C6.72008 18.626 5.30512 19.5979 4.13272 20.8231C2.90132 21.992 1.92539 23.3993 1.26548 24.9576C0.605566 26.516 0.275758 28.1921 0.296516 29.882C0.300344 32.6532 1.21217 35.3481 2.89472 37.5611C4.59714 39.8934 7.06257 41.5686 9.8711 42.3013V46.9941C20.7846 43.3283 26.2325 37.6243 26.2148 29.882C26.2231 28.1915 25.885 26.5169 25.221 24.9597C24.557 23.4026 23.581 21.9952 22.3521 20.8231Z" fill="#FC790D" />
    <path d="M15.9981 32.9164L16.0459 32.869C16.6632 32.5111 17.1808 32.0063 17.5518 31.4003C17.9229 30.7943 18.1358 30.1062 18.1713 29.3982C18.2244 27.0017 16.0884 24.9845 13.3893 24.9319C10.6901 24.8792 8.4479 26.77 8.39477 29.1453C8.34164 31.5207 10.4776 33.559 13.1767 33.6116H13.4849C13.7892 33.8262 14.1068 34.0215 14.436 34.1963C14.9405 34.4739 15.5062 34.624 16.0831 34.6334C16.6145 34.5807 16.6995 34.2489 16.6145 34.0699C16.5294 33.8908 16.3329 33.8908 16.1788 33.7907C16.0126 33.7052 15.8771 33.5709 15.7909 33.4062C15.7641 33.3574 15.7489 33.3032 15.7465 33.2477C15.7441 33.1921 15.7546 33.1368 15.7772 33.0859C15.7998 33.0351 15.8339 32.99 15.8768 32.9542C15.9197 32.9185 15.9703 32.8929 16.0247 32.8795" fill="white" />
    <path d="M73.9982 28.6556L76.0704 20.0917H73.164V18.5116H86.9786V20.0917H77.8451L77.2181 22.8568H85.9904L84.5717 31.1784H87.4993V32.7584H72.6221V31.1784H82.7174L83.2115 28.6556H73.9982ZM83.424 27.165L83.9235 24.3525H76.8568L76.2245 27.1861H83.424V27.165Z" fill="#3E3A39" />
    <path d="M69.6785 25.2215H63.6266V24.4894L68.4192 19.6702V18.5326H56.1561V20.0705H65.651L61.7829 23.8837V25.2215H55.051V26.7858H61.7829V31.1572H57.6173V32.7162H63.6266V31.3574V26.7858H69.6785V25.2215Z" fill="#3E3A39" />
    <path d="M95.6234 27.7445L95.9847 30.7308H92.43L93.5777 24.8687H97.6902V23.3256H90.4482V24.8687H91.8668L90.4482 32.295H97.9187L97.1748 27.4548L95.6234 27.7445Z" fill="#3E3A39" />
    <path d="M97.4246 19.1121H90.8095V20.5868H97.4246V19.1121Z" fill="#3E3A39" />
    <path d="M101.808 19.5385L101.967 18.285L100.304 18.106L100.145 19.5385H98.8166V21.0975H99.9643L98.636 32.5161L100.304 32.7162L101.654 21.0975H103.923L103.721 31.0255H102.865V32.653H105.57L105.703 19.5385H101.808Z" fill="#3E3A39" />
    <path d="M40.179 18.6432L40.5403 17.395L38.8985 17.1948L38.4893 18.6432L38.0855 20.2022L36.7838 24.4894L38.4468 24.6632L39.7751 20.2022H49.4932L49.27 30.9992H46.3902V32.6267H51.1137L51.2731 18.6432H40.179Z" fill="#3E3A39" />
    <path d="M40.349 28.9031H47.5167V22.2352H40.349V28.9031ZM42.1236 23.7521H45.7261V27.323H42.1343V23.731L42.1236 23.7521Z" fill="#3E3A39" />
    <path d="M41.943 43.5081C41.943 45.7904 40.9937 46.9316 39.0951 46.9316C38.3172 46.915 37.5761 46.5996 37.0282 46.052L38.2237 44.8511C38.314 45.0255 38.4469 45.1746 38.6102 45.285C38.7735 45.3954 38.9621 45.4635 39.1588 45.4832C39.3126 45.4877 39.4647 45.4497 39.5979 45.3734C39.7312 45.2971 39.8404 45.1856 39.9133 45.0513C40.1309 44.4603 40.2161 43.8295 40.163 43.2026V37.3301H41.943V43.5081Z" fill="#FC790D" />
    <path d="M46.4593 40.6007V43.8925C46.4593 45.0775 46.9216 45.6674 47.8461 45.6674C48.7706 45.6674 49.2382 45.0775 49.2382 43.8925V40.6007H50.9172V44.1769C50.9172 45.9834 49.8971 46.8893 47.8461 46.8893C45.7952 46.8893 44.775 45.9782 44.775 44.1769V40.6007H46.4593Z" fill="#FC790D" />
    <path d="M59.4185 45.4673V46.6839H53.0425L56.7618 41.8174H53.4835V40.6007H59.5194L55.8745 45.4673H59.4185Z" fill="#FC790D" />
    <path d="M63.7276 38.0411C63.7276 38.1588 63.7014 38.275 63.6509 38.3816C63.6004 38.4881 63.5268 38.5822 63.4354 38.6573C63.2422 38.8234 62.995 38.9148 62.7393 38.9148C62.4836 38.9148 62.2365 38.8234 62.0433 38.6573C61.9519 38.5822 61.8784 38.488 61.8279 38.3815C61.7774 38.275 61.7512 38.1588 61.7512 38.0411C61.7512 37.9234 61.7774 37.8072 61.8279 37.7007C61.8784 37.5942 61.9519 37.5 62.0433 37.4249C62.2365 37.2589 62.4836 37.1675 62.7393 37.1675C62.995 37.1675 63.2422 37.2589 63.4354 37.4249C63.5268 37.5 63.6004 37.5942 63.6509 37.7007C63.7014 37.8072 63.7276 37.9234 63.7276 38.0411ZM63.5895 46.684H61.9051V40.6008H63.5895V46.684Z" fill="#FC790D" />
    <path d="M69.11 45.8044C69.1112 45.9544 69.0801 46.103 69.0187 46.2402C68.9573 46.3773 68.867 46.4999 68.754 46.5997C68.517 46.8201 68.2021 46.9392 67.8773 46.9315C67.5505 46.9379 67.2334 46.8212 66.9899 46.605C66.8721 46.5091 66.7771 46.3885 66.7119 46.2519C66.6467 46.1153 66.6129 45.9661 66.6129 45.8149C66.6129 45.6638 66.6467 45.5145 66.7119 45.3779C66.7771 45.2413 66.8721 45.1208 66.9899 45.0249C67.2298 44.8098 67.5432 44.693 67.8666 44.6984C68.1876 44.6908 68.5 44.8015 68.7433 45.0091C68.863 45.1039 68.9586 45.2253 69.0223 45.3634C69.086 45.5016 69.116 45.6526 69.11 45.8044Z" fill="#3E3A39" />
    <path d="M71.9154 36.1609H73.5997V41.1539C73.8885 40.886 74.2304 40.6807 74.6036 40.551C74.9768 40.4213 75.3732 40.3702 75.7675 40.4007C76.1893 40.3897 76.6085 40.4691 76.9965 40.6337C77.3844 40.7982 77.7318 41.0439 78.015 41.354C78.5994 41.9585 78.9218 42.7658 78.913 43.603C78.9387 44.4677 78.62 45.3078 78.0257 45.9414C77.7342 46.2517 77.3789 46.4965 76.9838 46.6591C76.5888 46.8217 76.1632 46.8985 75.7356 46.8842C74.7261 46.8842 74.0247 46.6261 73.6103 46.1152L73.5784 46.6841H71.8941L71.9154 36.1609ZM77.1915 43.6504C77.1956 43.1468 77.0055 42.6608 76.6601 42.2915C76.488 42.1015 76.2762 41.9509 76.0395 41.8499C75.8028 41.749 75.5469 41.7002 75.2893 41.7069C75.0344 41.6986 74.7807 41.7462 74.5465 41.8464C74.3123 41.9465 74.1033 42.0967 73.9344 42.2862C73.5884 42.6593 73.3984 43.1489 73.4031 43.6556C73.3909 44.1653 73.5818 44.6592 73.9344 45.0303C74.112 45.2101 74.3241 45.3529 74.5581 45.4504C74.7921 45.5479 75.0434 45.5982 75.2973 45.5982C75.5511 45.5982 75.8025 45.5479 76.0365 45.4504C76.2705 45.3529 76.4825 45.2101 76.6601 45.0303C77.0083 44.6543 77.1983 44.1607 77.1915 43.6504Z" fill="#3E3A39" />
    <path d="M87.8766 43.6502C87.8911 44.0875 87.8103 44.5228 87.6398 44.9263C87.4692 45.3299 87.2129 45.6922 86.8883 45.9887C86.1761 46.6145 85.2463 46.9413 84.2954 46.8999C83.3382 46.9413 82.4017 46.6149 81.6813 45.9887C81.3521 45.695 81.0917 45.3335 80.9182 44.9296C80.7448 44.5256 80.6625 44.089 80.6771 43.6502C80.6634 43.2138 80.7445 42.7796 80.915 42.377C81.0856 41.9744 81.3415 41.6129 81.6653 41.317C82.3814 40.691 83.3152 40.366 84.2689 40.4111C85.2229 40.3682 86.157 40.6907 86.8777 41.3117C87.2071 41.605 87.4673 41.9666 87.6399 42.3707C87.8125 42.7748 87.8933 43.2117 87.8766 43.6502ZM82.3773 43.6502C82.3658 43.9064 82.4069 44.1623 82.4983 44.4022C82.5896 44.6422 82.7292 44.8612 82.9087 45.0459C83.0913 45.2229 83.3086 45.361 83.5471 45.4516C83.7856 45.5422 84.0403 45.5834 84.2954 45.5726C84.5518 45.5835 84.8073 45.5376 85.0436 45.4383C85.2798 45.339 85.4907 45.1888 85.661 44.9985C86.0055 44.6225 86.1952 44.1319 86.1923 43.6239C86.197 43.1171 86.007 42.6276 85.661 42.2545C85.491 42.0649 85.2811 41.9147 85.046 41.8146C84.8109 41.7144 84.5565 41.6668 84.3008 41.6752C84.0437 41.6657 83.7876 41.7106 83.5494 41.8068C83.3112 41.9031 83.0964 42.0485 82.9193 42.2334C82.7373 42.4212 82.5956 42.6435 82.5024 42.887C82.4093 43.1305 82.3668 43.3901 82.3773 43.6502Z" fill="#3E3A39" />
    <path d="M93.6203 45.5621C93.3709 45.5591 93.1257 45.499 92.9036 45.3867C92.6815 45.2743 92.4885 45.1126 92.3398 44.9143C92.2533 44.5551 92.2052 44.1879 92.1963 43.8188L92.1697 42.6917V42.6232V42.4757V42.165H93.328V40.7113H92.1697V38.5361H90.5067V40.3743V40.7113H89.3749V42.1913H90.5067V43.6502C90.5067 44.6088 90.6076 45.5885 90.9689 46.0151C91.2756 46.3461 91.6538 46.6042 92.0751 46.7701C92.4965 46.9361 92.9502 47.0057 93.4024 46.9736H94.2472V45.5621H93.6203Z" fill="#3E3A39" />
  </g>
  <defs>
    <clipPath id="clip0_432_1767">
      <rect width="105.405" height="30" fill="white" transform="translate(0.297302 17)" />
    </clipPath>
  </defs>
</svg>