<svg width="16" height="16" viewBox="0 0 16 16" fill="none" xmlns="http://www.w3.org/2000/svg">
<g clip-path="url(#clip0_2989_1976)">
<path d="M13.4741 9.29807L2.52464 9.29807C2.23844 9.29807 2.09824 9.73025 2.30449 9.97705L5.42711 13.6825C5.62872 13.9223 5.96474 13.7462 5.96474 13.3986L5.96474 11.2667C5.96474 11.05 6.1061 10.8727 6.28221 10.8727L13.4741 10.8727C13.6502 10.8727 13.7916 10.6966 13.7916 10.4788L13.7916 9.69086C13.7916 9.47418 13.6502 9.29691 13.4741 9.29691L13.4741 9.29807ZM2.52464 6.70148L13.4741 6.70148C13.7603 6.70148 13.9017 6.26929 13.6943 6.0225L10.5716 2.3159C10.3712 2.07721 10.0352 2.25449 10.0352 2.60093L10.0352 4.73173C10.0352 4.94841 9.89264 5.12568 9.71652 5.12568L2.52348 5.12568C2.34736 5.12568 2.206 5.3018 2.206 5.51963L2.206 6.30753C2.20716 6.5242 2.34968 6.70148 2.52464 6.70148Z" fill="#54657E"/>
</g>
<defs>
<clipPath id="clip0_2989_1976">
<rect width="16" height="16" fill="white" transform="translate(0 16) rotate(-90)"/>
</clipPath>
</defs>
</svg>
