<svg width="114" height="30" viewBox="0 0 114 30" fill="none" xmlns="http://www.w3.org/2000/svg">
<g clip-path="url(#clip0_1008_1327)">
<path d="M0.75 0H113.25V30H0.75V0Z" fill="white"/>
<path fill-rule="evenodd" clip-rule="evenodd" d="M15.4261 17.2217H3.02014V2.7489H0.75V18.995H15.4261V17.2217ZM12.9332 8.49567L15.9894 2.7489H13.5299L11.2501 8.49567H12.9332ZM28.1197 18.3494C23.5632 18.3494 19.8093 14.6861 19.8093 10.273C19.8093 5.86472 23.3869 2.02634 28.2953 2.02634C33.0844 2.02634 36.6032 5.86404 36.6032 10.273C36.6037 14.6861 32.6742 18.3494 28.1197 18.3494ZM28.1975 0C21.6133 0 17.1253 4.64423 17.1253 10.2682C17.1253 16.1877 22.0836 20.3644 28.1975 20.3644C34.311 20.3644 39.2663 16.2473 39.2663 10.2682C39.2663 4.64423 34.7223 0 28.1975 0ZM52.1318 10.26H44.5515V4.67282H52.3974C54.2026 4.67282 55.2189 5.51626 55.5851 6.58717C55.8269 7.32279 55.6714 8.28711 55.2725 8.94294C54.6164 10.0301 53.3709 10.26 52.1318 10.26ZM54.0763 12.2035C57.795 11.2099 58.1577 8.43838 58.1398 7.45031C57.9171 4.54778 55.9636 2.7489 52.4498 2.7489H42.2176V18.995H44.5509V12.1814H51.2114L56.1119 18.995H59.052C59.0531 18.995 55.5279 14.4091 54.0763 12.2035ZM83.5715 12.7569L87.4612 4.99572L91.3989 12.7569H83.5715ZM85.8792 2.7489L77.6243 18.995H80.4142L82.5272 14.7903H92.4278L94.5586 18.995H97.32L89.0579 2.7489H85.8792ZM113.25 17.2217H100.844V2.7489H98.5739V18.995H113.25V17.2217ZM73.7025 0.125718H69.4985L67.5319 2.33438L73.7025 0.125718ZM73.4774 11.5435V9.7471H64.4443V4.51851H76.4716V2.7489H61.9533V18.995H76.4716V17.2217H64.4443V11.5435H73.4774ZM65.9411 29.7642H67.1057V25.1259H65.9411V29.7642ZM65.934 24.4392H67.098V23.2746H65.934V24.4392ZM74.8319 26.3041L72.3313 25.8782C71.8193 25.7889 71.2947 25.6072 71.2947 25.0556C71.2947 24.0716 72.5503 23.918 73.2947 23.918C74.283 23.918 75.4052 24.2343 75.4654 25.2374H76.5758C76.527 24.5231 76.2215 23.1675 73.1606 23.1675C71.0388 23.1675 70.1474 24.1609 70.1474 25.1729C70.1474 26.3034 71.4406 26.6013 72.014 26.7002L73.8073 27.0088C75.2457 27.2612 75.6732 27.4787 75.6732 28.1559C75.6732 29.0869 74.2341 29.2495 73.3798 29.2495C72.2575 29.2495 70.965 28.9064 70.965 27.7312H69.8546C69.8546 28.3376 70.001 28.8797 70.7453 29.3764C71.1352 29.6378 71.7699 30 73.3917 30C74.892 30 76.8194 29.5754 76.8194 28.0386C76.8199 27.0093 75.9655 26.5031 74.8319 26.3041ZM47.7094 27.1338L49.3199 24.2777H49.3479L50.8322 27.1338H47.7094ZM48.6198 23.3111L44.8384 29.8006H46.2394L47.2896 27.9112H51.3228L52.317 29.8006H53.802L50.1606 23.3111H48.6198ZM57.2199 26.3113H59.6616C60.7619 26.3113 61.5085 26.0217 61.5085 25.1455C61.5085 24.323 60.7243 24.0603 59.7123 24.0603H57.2199V26.3113ZM63.0588 29.7535H61.674L59.8218 27.1207C59.7985 27.0868 59.7534 27.0694 59.7069 27.0611H59.7676C59.748 27.0576 59.7277 27.0564 59.7069 27.0611H57.2199V29.7999H55.9929V23.3104H60.0783C61.7603 23.3104 62.7725 24.0877 62.7725 25.1354C62.7725 25.8824 62.2772 26.7085 60.9911 26.9724L63.0588 29.7535ZM41.4013 26.3113H38.9603V24.0603H41.4519C42.4641 24.0603 43.2482 24.323 43.2482 25.1455C43.2482 26.0217 42.5016 26.3113 41.4013 26.3113ZM41.8187 23.3111H37.7332V29.8006H38.9603V27.0618H41.8187C43.7918 27.0618 44.5128 26.0403 44.5128 25.1366C44.5128 24.0884 43.5012 23.3111 41.8187 23.3111Z" fill="black"/>
</g>
<defs>
<clipPath id="clip0_1008_1327">
<rect width="112.5" height="30" fill="white" transform="translate(0.75)"/>
</clipPath>
</defs>
</svg>
