<svg width="70" height="69" viewBox="0 0 70 69" fill="none" xmlns="http://www.w3.org/2000/svg">
<path d="M16.1467 25.0875C16.0672 25.1472 16.0076 25.1869 15.9281 25.2466C15.8883 25.2863 15.8287 25.3261 15.769 25.3658C15.7492 25.3857 15.7293 25.3857 15.7094 25.4056C15.6299 25.4652 15.5305 25.5248 15.451 25.5845L15.4311 25.6044C14.9342 25.8826 14.4173 26.1411 13.9204 26.4194C13.8806 26.4392 13.821 26.4392 13.7812 26.4591C13.0458 26.6579 12.3103 26.6579 11.6543 26.2206C11.6941 26.1609 11.7139 26.0615 11.7537 26.0417C13.006 25.3459 13.9999 24.3322 14.9342 23.2786C16.1666 21.8872 17.2003 20.3764 18.214 18.826C18.2737 18.7266 18.3134 18.6073 18.3929 18.4483C18.1146 18.4483 17.9159 18.4483 17.6972 18.4483C17.1009 18.4483 16.4846 18.4682 15.8883 18.4085C15.2721 18.329 14.8348 17.8122 14.7553 17.2158C14.7155 16.8978 14.7155 16.5798 14.7354 16.2617C14.7354 16.2021 14.9342 16.0629 14.954 16.0828C15.769 16.6593 16.6834 16.5798 17.5978 16.54C18.1743 16.5201 18.7309 16.4605 19.3073 16.4406C19.526 16.4406 19.6651 16.3412 19.7645 16.1623C20.2018 15.2877 20.659 14.4131 21.0963 13.5384C21.2156 13.28 21.3548 13.0415 21.4541 12.7632C21.5535 12.465 21.7324 12.465 21.9511 12.5843C22.4679 12.8427 22.9649 13.1011 23.4817 13.3595C23.7997 13.5185 24.1178 13.6776 24.416 13.8366C24.5352 13.8962 24.6545 13.9956 24.7936 14.0751C24.3563 14.8106 23.9389 15.5262 23.5215 16.2418C24.0582 16.2418 24.5551 16.2418 25.0322 16.2418C25.7677 16.2219 26.5031 16.2219 27.2188 16.1822C29.4053 16.043 31.6118 16.0828 33.7984 15.7051C34.5736 15.566 34.514 15.5859 34.4742 16.3611C34.4543 17.2755 33.7189 17.3152 33.1623 17.4743C32.0093 17.7724 30.7173 17.8917 29.4451 17.9315C28.0338 17.9712 26.6423 18.0308 25.2508 18.0905C24.3364 18.1302 23.4221 18.17 22.5077 18.2296C22.3685 18.2296 22.1896 18.3091 22.1101 18.4085C21.6132 19.0247 21.156 19.6608 20.6789 20.2969C20.6391 20.3764 20.5994 20.456 20.5199 20.6349C20.8976 20.5156 21.2156 20.4361 21.4939 20.3367C22.6269 19.959 23.7997 19.7205 25.0123 19.6211C26.046 19.5416 27.0995 19.4621 28.153 19.5018C29.2264 19.5217 30.28 19.7404 31.254 20.2373C32.6256 20.9529 33.3412 22.3245 33.1026 23.9147C32.9039 25.2664 32.6256 26.6181 32.4069 27.9698C32.387 28.0891 32.4864 28.2879 32.6057 28.3276C33.3809 28.765 34.176 29.2023 34.991 29.5601C35.4085 29.7589 35.8856 29.9775 36.3626 29.6793C36.7006 29.4607 36.959 29.2023 36.9788 28.765C37.2174 28.3873 37.0981 27.8307 36.7006 27.4133L36.6807 27.3934C36.6409 27.3536 36.6012 27.3139 36.5614 27.2741C36.5415 27.2542 36.5018 27.2145 36.4819 27.1946C36.303 27.0753 36.1241 26.9362 35.9452 26.8169C35.9054 26.797 35.8856 26.7772 35.8458 26.7772C35.6271 26.6579 35.4085 26.4989 35.1699 26.4194C34.8519 26.3001 34.5935 26.1808 34.6531 25.7634C34.6531 25.7236 34.673 25.664 34.673 25.6242C34.7128 25.4453 34.7525 25.2664 34.7923 25.0875C34.7923 25.008 34.8121 24.9484 34.8121 24.8689C34.8718 24.5707 34.9314 24.2725 34.991 23.9942C35.0109 23.8948 35.0109 23.8153 35.0308 23.7159C35.1103 23.3979 35.1898 23.06 35.2892 22.7022C35.4284 22.7419 35.5675 22.7817 35.6868 22.8413C35.9054 22.9407 36.144 23.0401 36.3626 23.1395L36.3825 23.1594H36.4024C36.621 23.2985 36.8198 23.4377 37.0385 23.5768C37.0385 23.5768 37.0584 23.5768 37.0385 23.5768C37.277 23.7756 37.5354 23.9545 37.774 24.1533C37.8336 24.2129 37.8932 24.2725 37.9529 24.3322C38.092 24.4912 38.251 24.6701 38.3902 24.8291L38.748 25.3658C38.7679 25.3857 38.7679 25.4056 38.7877 25.4255C38.8871 25.6242 38.9666 25.823 39.066 26.0417L39.0859 26.1808C39.1257 26.6181 39.1654 27.0554 39.1853 27.4928C39.1853 27.7909 39.1257 28.0692 39.0859 28.3674C39.0859 28.427 39.066 28.4668 39.066 28.5264C38.8871 28.8643 38.7082 29.2023 38.5293 29.5402C38.4896 29.5998 38.4498 29.6396 38.4101 29.6992C38.3305 29.7787 38.2709 29.8582 38.1914 29.9378L38.0523 30.0769C38.0324 30.0968 38.0125 30.1167 37.9926 30.1564C37.9529 30.1962 37.8932 30.2359 37.8535 30.2956C37.7938 30.3353 37.7541 30.3949 37.7143 30.4347C37.6945 30.4347 37.6746 30.4347 37.6547 30.4546C37.4559 30.5738 37.2373 30.6931 36.9788 30.872C37.118 30.9317 37.1776 30.9714 37.2571 31.0112C37.277 31.031 37.2969 31.031 37.3168 31.0509C38.0523 31.4485 38.7679 31.8659 39.5232 32.2237C40.0599 32.4821 40.6165 32.6809 41.1731 32.9194L41.3122 32.9393L42.823 33.4562L42.9621 33.476C43.3994 33.5953 43.8169 33.6947 44.2542 33.814C44.2939 33.814 44.3536 33.8338 44.3933 33.8338L45.3475 34.0127C45.427 34.0127 45.4866 34.0326 45.5661 34.0326C46.083 34.0923 46.6197 34.1519 47.1365 34.2115C47.2359 34.2314 47.3353 34.2314 47.4148 34.2513C47.6732 34.2712 47.9316 34.3109 48.19 34.3109C48.846 34.291 49.4821 34.2712 50.1381 34.2513C50.2176 34.2513 50.2772 34.2314 50.3567 34.2314C50.8338 34.1718 51.3109 34.1121 51.7879 34.0525C51.8476 34.0525 51.9271 34.0326 52.0066 34.0326C52.4439 33.9332 52.8613 33.814 53.2987 33.6947C53.3583 33.6947 53.3981 33.6748 53.4577 33.6748C53.6366 33.6351 53.7956 33.5953 53.9745 33.5357C54.8889 33.2574 55.7635 32.8996 56.5587 32.3629C56.5785 32.3629 56.5984 32.3629 56.6183 32.3231C57.0357 32.0448 57.4532 31.7467 57.8706 31.4684C57.9104 31.4286 57.9501 31.4087 57.97 31.369C58.1489 31.2497 58.2682 31.2696 58.2682 31.5081C58.2682 31.7069 58.2284 31.8858 58.2085 32.0846C58.1688 32.1243 58.1489 32.1641 58.1091 32.2038C58.0694 32.2635 58.0296 32.3032 57.9899 32.3629C57.9501 32.4225 57.8905 32.4623 57.8507 32.5219C57.3736 32.9393 56.8966 33.3766 56.4195 33.7941C56.1611 33.9531 55.9226 34.0923 55.6641 34.2513C55.2268 34.4898 54.8094 34.7283 54.3721 34.9669C54.3323 34.9868 54.2727 35.0066 54.2329 35.0066C53.7757 35.1855 53.3185 35.3446 52.8613 35.5235C52.7818 35.5433 52.7222 35.5433 52.6427 35.5632C52.2849 35.6626 51.9271 35.762 51.5494 35.8813C51.4699 35.9011 51.3904 35.9011 51.3109 35.9011C50.9729 35.9608 50.635 36.0204 50.317 36.08C50.2176 36.08 50.1182 36.0999 50.0387 36.0999C49.9393 36.0999 49.8598 36.08 49.7604 36.08C48.6273 36.1198 47.5142 36.1794 46.3811 36.1794C45.8245 36.1794 45.2481 36.1198 44.6915 36.08C44.5921 36.08 44.4927 36.0602 44.4132 36.0602C43.9958 36.0005 43.5982 35.9409 43.1808 35.8813C43.141 35.8813 43.0814 35.8614 43.0416 35.8614C43.0019 35.8415 42.9621 35.8018 42.9224 35.8018C42.0477 35.603 41.1731 35.4042 40.2985 35.2054C40.2587 35.1855 40.1991 35.1855 40.1593 35.1657C39.1455 34.788 38.1318 34.4302 37.0981 34.0326C36.6012 33.8338 36.1241 33.6351 35.6271 33.4363H35.6073C35.3687 33.2971 35.1302 33.158 34.8718 33.0188C33.9176 32.5219 32.9436 32.0448 31.9895 31.5677C31.8901 31.4087 31.7907 31.4684 31.7509 31.6075C31.6913 31.846 31.6714 32.0846 31.6118 32.343C31.5919 32.4424 31.5919 32.5418 31.572 32.6213C31.5124 32.9195 31.4528 33.1977 31.3931 33.476C31.3931 33.5754 31.3733 33.6748 31.3534 33.7742C31.3136 33.9531 31.2739 34.132 31.2341 34.3109C31.2341 34.3904 31.2142 34.4501 31.2142 34.5296C31.1546 34.8277 31.095 35.1259 31.0353 35.4241C31.0353 35.5036 31.0154 35.5632 31.0154 35.6427C30.9757 35.8216 30.9359 36.0005 30.8962 36.1993H30.8763V36.2192C30.7372 36.2192 30.5781 36.2391 30.439 36.2192C29.7631 36.1794 29.0873 36.1397 28.4114 36.08L28.1331 36.0602C27.3778 35.8813 26.6224 35.7024 25.8869 35.5433L25.7478 35.5235C25.4894 35.4241 25.2508 35.3247 24.9924 35.2253L24.9725 35.2054H24.9527C24.6943 35.0861 24.416 34.947 24.1575 34.8277C24.1178 34.8079 24.0979 34.8079 24.0582 34.788C23.919 34.7085 23.7997 34.629 23.6805 34.5494L23.6606 34.5296C23.5612 34.4501 23.4419 34.3507 23.3425 34.2712C23.3425 34.2513 23.3227 34.2314 23.2829 34.2513C23.1835 34.1718 23.0841 34.0724 22.9847 33.9929C22.945 33.9531 22.9052 33.9134 22.8456 33.8736H22.8257C22.786 33.8338 22.7462 33.7941 22.7065 33.7344C22.6866 33.7146 22.6468 33.6947 22.6269 33.6549C22.5673 33.5754 22.5077 33.4959 22.448 33.4363C22.0902 32.8598 21.8716 32.2436 21.7126 31.6075C21.7126 31.5677 21.6927 31.5081 21.6927 31.4485C21.6927 31.2298 21.6927 30.9913 21.6927 30.7528C21.6927 30.6534 21.7126 30.554 21.7126 30.4745L22.2691 28.8445L22.4282 28.6258C22.4679 28.5861 22.5077 28.5463 22.5474 28.5065C22.5673 28.5065 22.5872 28.4867 22.5673 28.4668C22.8257 28.2282 23.0643 27.9897 23.3227 27.7711C23.7202 27.5524 24.1377 27.3337 24.5352 27.1151C24.5949 27.0952 24.6346 27.0952 24.6744 27.0952C24.8533 27.0356 25.0322 26.9759 25.2111 26.9163C25.2707 26.8964 25.3502 26.8964 25.4099 26.8765C25.5888 26.8368 25.7677 26.797 25.9466 26.7573C26.0261 26.7573 26.0857 26.7573 26.1652 26.7374C26.682 26.7374 27.1989 26.7374 27.7356 26.7374C27.8151 26.7374 27.8946 26.7374 27.9741 26.7374C28.1729 26.7772 28.3717 26.8169 28.5903 26.8765C28.6301 26.8765 28.6698 26.8765 28.7295 26.8765C28.809 26.638 28.8885 26.3995 28.9481 26.1609L28.968 25.9423C29.0078 25.7833 29.0873 25.6242 29.1072 25.4652C29.1072 25.3658 28.9879 25.1869 28.9481 25.1869C28.2524 25.2068 27.5766 25.2664 26.9007 25.3062C26.8013 25.3062 26.7019 25.3261 26.6224 25.3261C25.8869 25.3658 25.1713 25.5447 24.5153 25.8628C24.4756 25.8628 24.416 25.8826 24.3762 25.8826C23.8793 26.1411 23.4022 26.3796 22.9052 26.638C22.8854 26.638 22.8655 26.638 22.8655 26.6778L22.1499 27.1946C22.0704 27.2741 21.9908 27.3337 21.9113 27.4133C21.8716 27.453 21.8119 27.4928 21.7722 27.5524C21.6927 27.6319 21.6132 27.6915 21.5337 27.7711C21.474 27.8307 21.4144 27.8903 21.3548 27.95C21.2156 28.0891 21.0963 28.2481 20.9771 28.3873C20.9373 28.427 20.9174 28.4668 20.8777 28.5065C20.2416 29.2221 19.7844 30.0371 19.4663 30.9317L19.4266 31.031C19.2477 31.5677 19.0489 32.1045 18.87 32.6412C18.87 32.6809 18.8501 32.7405 18.8501 32.7803C18.7905 32.999 18.7309 33.2375 18.6712 33.4562C18.6712 33.5357 18.6513 33.5953 18.6315 33.6748C18.4923 33.9929 18.3532 34.3109 18.214 34.629C18.1942 34.629 18.1743 34.6488 18.1942 34.6687C18.0351 34.8874 17.8761 35.0862 17.6972 35.3048C17.6574 35.3247 17.6376 35.3247 17.5978 35.3446C16.6238 36.1794 15.451 36.3583 14.1987 36.2987C14.1589 36.2987 14.0993 36.2589 14.0595 36.2192C14.139 36.0403 14.2186 35.8813 14.2981 35.7222C14.3179 35.7024 14.3179 35.6825 14.3378 35.6626L14.4372 35.444C14.4571 35.444 14.477 35.4241 14.477 35.4042C14.6757 34.947 14.8944 34.4699 15.0932 34.0127C15.1131 33.973 15.1131 33.9134 15.1329 33.8736C15.3118 33.2971 15.4709 32.7405 15.6498 32.1641C15.6696 32.1045 15.6696 32.0249 15.6895 31.9454C15.7889 31.5081 15.9082 31.0907 16.0076 30.6534C16.0076 30.6136 16.0275 30.554 16.0275 30.5142C16.0871 30.1962 16.1467 29.8781 16.2064 29.5601C16.2064 29.4806 16.2262 29.4209 16.2262 29.3414C16.3256 28.8246 16.4449 28.2879 16.5443 27.7711C16.5642 27.6915 16.5642 27.6319 16.5642 27.5524C16.6238 27.2145 16.6834 26.8765 16.7431 26.5386C16.7431 26.4591 16.7629 26.3995 16.7629 26.32C16.8623 25.7435 16.9816 25.1869 17.081 24.6105C17.081 24.5508 17.1009 24.4713 17.1009 24.4117C17.1207 24.3719 17.1207 24.3123 17.1009 24.2725L16.9418 24.4117C16.922 24.4316 16.9021 24.4316 16.8822 24.4514C16.8226 24.5111 16.7828 24.5707 16.7232 24.6105C16.7033 24.6303 16.6834 24.6303 16.6834 24.6502C16.5642 24.7496 16.4449 24.849 16.3256 24.9484C16.3057 24.9683 16.2859 24.9683 16.266 24.9683C16.2262 25.0279 16.1865 25.0478 16.1467 25.0875ZM29.3457 22.6823C29.2463 22.5233 29.2066 22.4239 29.127 22.3444C28.7692 21.9866 28.3319 21.7679 27.8151 21.6486C26.9405 21.4697 26.0857 21.5095 25.2111 21.589C23.8196 21.7281 22.5077 22.086 21.2752 22.7419C20.9174 22.9208 20.6789 23.1792 20.6391 23.6166C20.6193 23.875 20.5398 24.1334 20.5 24.3918C20.3807 25.0279 20.2813 25.6839 20.1819 26.32C20.2018 26.3398 20.2217 26.3597 20.2416 26.3796C22.6866 23.7756 25.8472 22.9009 29.3457 22.6823ZM26.5429 29.6197C26.205 29.739 25.7677 29.7986 25.4099 29.9974C24.4955 30.554 24.3364 31.7864 25.0123 32.7207C25.5291 33.4363 26.2646 33.7941 27.0597 34.0326C27.497 34.1519 27.5169 34.132 27.5964 33.6748C27.6163 33.6152 27.6163 33.5754 27.6362 33.5158C27.8549 32.4225 28.0536 31.3491 28.2524 30.2558C28.2723 30.0968 28.312 29.9179 28.0735 29.8781C27.5964 29.7986 27.1194 29.7191 26.5429 29.6197Z" fill="#E70E19"/>
<path d="M44.6704 16.3788C44.3722 15.6433 44.1138 14.9873 43.8554 14.3313C43.7361 14.053 43.7162 13.8741 44.074 13.735C44.9884 13.3971 45.8829 12.9995 46.7973 12.6218C47.0359 12.5224 47.0557 12.6616 47.0756 12.8604C47.1949 13.894 47.3142 14.9476 47.4334 15.9812C47.4533 16.2595 47.5726 16.339 47.8509 16.339C48.2087 16.3191 48.487 16.2197 48.7255 15.9216C49.5405 14.8482 50.3952 13.7748 51.2102 12.7013C51.3693 12.4827 51.5084 12.4628 51.7271 12.5622C52.6017 12.9796 53.4565 13.4169 54.3311 13.8344C54.5895 13.9537 54.5895 14.0729 54.3708 14.2916C53.8739 14.7885 53.3769 15.2855 52.88 15.7824C52.8005 15.8619 52.721 15.9613 52.6017 16.1005C52.7408 16.1204 52.8005 16.1601 52.88 16.1601C54.1124 16.0607 55.325 15.9415 56.5574 15.8222C56.8556 15.8023 57.1339 15.7427 57.432 15.683C57.6308 15.6433 57.7302 15.6632 57.6905 15.9017C57.6308 16.2396 57.611 16.6173 57.4917 16.9354C57.4321 17.0944 57.2134 17.2136 57.0345 17.2932C56.0803 17.6907 55.0666 17.8497 54.0329 17.9491C53.2378 18.0286 52.4228 18.0485 51.6078 18.0883C51.2102 18.1082 50.8127 18.1082 50.4151 18.128C50.3356 18.128 50.2561 18.1479 50.1965 18.1877C49.7591 18.5256 49.3218 18.8635 48.8845 19.2014C48.8845 19.2412 48.9044 19.2611 48.9044 19.3008C49.0435 19.3207 49.1827 19.3406 49.302 19.3406C50.276 19.3008 51.2102 19.4201 52.1445 19.6785C53.0986 19.9369 53.9136 20.3941 54.2913 21.3681C54.5299 21.9844 54.5696 22.6403 54.4702 23.2764C54.2715 24.5089 54.0528 25.7413 53.8143 26.9737C53.6155 28.0471 53.4167 29.1007 53.2179 30.1741C53.1185 30.7108 53.0191 31.2475 52.9197 31.7842C52.88 32.0029 52.8005 32.1221 52.5818 32.142C51.5283 32.301 50.4946 32.4799 49.4411 32.6191C48.9442 32.6787 48.4472 32.7185 47.9503 32.6986C46.5787 32.6787 45.1872 32.6191 43.8355 32.3408C42.6826 32.1022 41.5694 31.7444 40.5159 31.2077C39.6015 30.7505 39.6015 30.7505 39.7804 29.7566C40.0388 28.4248 40.2972 27.093 40.5358 25.7612C40.7942 24.3498 41.0327 22.9584 41.2911 21.547C41.311 21.4278 41.3706 21.3284 41.3508 21.2091C41.311 20.7519 41.5694 20.5134 41.967 20.414C42.9808 20.1556 44.0144 19.8574 45.0481 19.6388C45.3661 19.5592 45.6245 19.4797 45.8432 19.2412C46.042 19.0027 46.2407 18.7641 46.4395 18.5455C46.4793 18.5057 46.519 18.3864 46.4992 18.3666C46.4594 18.3268 46.36 18.2672 46.3004 18.2672C45.1276 18.3268 43.9548 18.4063 42.782 18.4461C42.1856 18.466 41.5694 18.4461 40.993 18.3467C40.3767 18.2274 39.9394 17.4919 39.9593 16.6968C39.9593 16.6571 39.9593 16.6372 39.9593 16.5974C39.9991 15.9613 39.9991 15.9812 40.5556 16.2396C41.0128 16.4583 41.4899 16.5775 42.0067 16.5378C42.6627 16.498 43.3187 16.498 43.9945 16.4583C44.1933 16.4384 44.412 16.3986 44.6704 16.3788ZM46.6184 30.7108C47.4135 30.6114 48.2285 30.5716 49.0237 30.3927C49.8585 30.194 49.7393 30.2934 49.8585 29.5181C49.8784 29.3988 49.9182 29.2796 49.9381 29.1603C50.0772 28.6037 50.0374 28.5242 49.4809 28.4049C47.7714 27.9875 46.0817 28.067 44.4319 28.6435C43.8554 28.8423 43.3187 29.1206 42.9609 29.6374C42.8217 29.8362 42.8217 29.9952 43.0801 30.0747C44.2331 30.4325 45.4059 30.671 46.6184 30.7108ZM43.3187 27.4707C43.3783 27.4707 43.4181 27.4707 43.438 27.4508C44.7897 26.6159 46.2805 26.2581 47.831 26.0991C48.6261 26.0196 49.4212 26.0395 50.2163 25.9997C50.3157 25.9997 50.4946 25.9202 50.5145 25.8407C50.594 25.6021 50.6537 25.3636 50.6735 25.1052C50.6735 25.0058 50.5741 24.8269 50.4946 24.807C49.8784 24.6878 49.2423 24.5287 48.6062 24.5089C47.4533 24.4492 46.3203 24.5884 45.2071 24.9462C43.9349 25.3239 43.3584 26.0593 43.3187 27.4707ZM51.0313 22.3422C50.9121 22.1036 50.8723 21.9247 50.753 21.7856C50.3555 21.2489 49.7989 20.9706 49.1429 20.9308C48.6062 20.8911 48.0496 20.8911 47.5129 20.9109C46.4992 20.9507 45.5053 21.1892 44.5909 21.6464C44.4915 21.7061 44.3722 21.8055 44.3523 21.9048C44.2132 22.4813 44.0939 23.0776 43.9747 23.674C43.9747 23.7336 44.0144 23.7933 44.0343 23.8529C46.1811 22.5608 48.5267 22.3422 51.0313 22.3422Z" fill="#E70E19"/>
<path d="M5.29083 42.0014C5.4101 41.9616 5.48961 41.9418 5.56912 41.9418C6.28473 41.9418 7.00034 41.9616 7.71594 41.9616C8.49119 41.9616 8.94838 42.4387 8.82911 43.2139C8.68997 44.2476 8.47131 45.2813 8.33216 46.3149C8.27253 46.7125 8.23277 47.1697 8.37192 47.5473C8.61045 48.2431 9.48509 48.2431 10.0218 48.0443C10.6976 47.8058 11.0554 47.2492 11.1946 46.5932C11.4132 45.5794 11.5723 44.5656 11.7313 43.532C11.8307 42.9953 11.6915 42.5381 11.2343 42.2002C11.1747 42.1405 11.1151 42.0809 11.0356 42.0014C11.0952 41.9616 11.135 41.9219 11.1747 41.9219C11.9301 41.9219 12.6854 41.9418 13.4408 41.9418C14.2757 41.9418 14.7329 42.4785 14.5937 43.3332C14.3751 44.6253 14.1365 45.9372 13.9179 47.2293C13.7191 48.3822 13.5004 49.5351 13.0035 50.6085C12.0692 52.6361 10.5983 54.0474 8.35204 54.5046C7.5768 54.6637 6.7618 54.6438 5.96668 54.6438C5.54924 54.6438 5.11193 54.5444 4.91315 54.0872C4.87339 54.0077 4.85352 53.9282 4.85352 53.8685C4.97278 53.2523 5.11193 52.6361 5.25108 52.0199C5.27095 52.0199 5.29083 52 5.31071 52.0199C6.04619 52.7951 6.96058 52.5964 7.81534 52.4174C9.14716 52.1392 9.96216 51.2446 10.479 50.0321C10.4989 49.9725 10.4989 49.8929 10.5386 49.7339C10.3995 49.7936 10.3001 49.8333 10.2007 49.8731C9.02789 50.529 7.79546 50.7278 6.54314 50.1315C5.66851 49.7339 5.33059 48.9388 5.35047 48.0244C5.37034 47.2293 5.50949 46.4342 5.60888 45.6589C5.72815 44.8638 5.90705 44.0886 5.98656 43.2935C6.02632 42.9158 5.92693 42.5381 5.589 42.2797C5.48961 42.22 5.4101 42.1207 5.29083 42.0014Z" fill="#5F5862"/>
<path d="M42.959 42.9358C42.9988 42.8166 43.0584 42.6973 43.0783 42.5582C43.2175 41.8028 43.3566 41.0276 43.4957 40.2722C43.5951 39.6162 43.5753 39.0199 42.9392 38.6024C42.9193 38.5826 42.8994 38.5627 42.8795 38.5229C42.8596 38.5031 42.8795 38.4832 42.8597 38.4235C42.959 38.4037 43.0584 38.3838 43.1578 38.3838C43.8933 38.3838 44.6288 38.3838 45.3444 38.3838C45.7817 38.3838 46.3184 38.7813 46.3979 39.2187C46.4377 39.4373 46.4377 39.6759 46.3979 39.8945C46.06 41.763 45.7022 43.6316 45.3643 45.5001C45.1655 46.5139 44.9866 47.5277 44.8276 48.5613C44.7878 48.8992 44.8077 49.257 44.9071 49.5751C44.9866 49.8136 45.245 49.9925 45.4438 50.2311C45.404 50.2509 45.3046 50.2708 45.2251 50.2708C44.5294 50.2708 43.8535 50.2708 43.1777 50.2708C42.7006 50.2708 42.3826 50.0323 42.2434 49.5751C42.144 49.2372 42.1242 49.2372 41.826 49.4558C40.693 50.3106 39.4406 50.6684 38.0492 50.2708C37.1348 49.9925 36.5385 49.3564 36.28 48.442C35.8626 46.9711 36.1806 45.5796 36.8963 44.2677C37.3733 43.393 38.0691 42.7569 38.9636 42.3594C39.9972 41.9022 41.6471 41.7432 42.6012 42.6576C42.7205 42.7569 42.7603 42.916 42.8597 43.0551C42.8597 43.0154 42.9193 42.9756 42.959 42.9358ZM42.4621 45.6393C42.482 45.0628 42.3627 44.5658 41.826 44.2677C41.1303 43.8701 40.4147 43.9894 39.8382 44.5857C39.1623 45.2814 38.8841 46.1362 38.9636 47.0705C38.9834 47.4879 39.1623 47.8855 39.5599 48.124C40.0767 48.442 40.8321 48.4023 41.3489 48.0246C42.1639 47.4283 42.4422 46.5934 42.4621 45.6393Z" fill="#5F5862"/>
<path d="M34.7505 50.2706C34.5716 50.2905 34.4523 50.2905 34.333 50.2905C33.7566 50.2905 33.1801 50.2507 32.6235 50.2905C31.9079 50.3501 31.4905 49.9526 31.3911 49.2569C31.3116 49.2966 31.2122 49.3364 31.1724 49.396C30.258 50.2905 29.125 50.5489 27.9323 50.4297C26.6204 50.2905 25.7656 49.5153 25.7855 48.1039C25.8054 47.1498 25.9843 46.1758 26.1234 45.2216C26.2029 44.5458 26.3222 43.8898 26.3818 43.2139C26.4415 42.7766 26.2626 42.4387 25.9048 42.1803C25.865 42.1405 25.8253 42.1008 25.7855 42.061C25.7656 42.0411 25.7855 42.0213 25.7656 41.9418H26.2029C26.8589 41.9418 27.495 41.9616 28.151 41.9418C28.7274 41.9219 29.3437 42.3393 29.2443 43.0748C29.1648 43.6513 29.0852 44.2277 29.0057 44.8042C28.9063 45.4602 28.7672 46.0963 28.6678 46.7522C28.5883 47.2691 28.6877 47.7461 29.2045 48.0045C29.5822 48.2033 30.3376 48.2033 30.8544 47.7859C31.2718 47.448 31.5104 46.9908 31.6098 46.4938C31.8085 45.48 31.9676 44.4861 32.1465 43.4724C32.226 42.9754 32.0868 42.5381 31.6893 42.22C31.6097 42.1604 31.5104 42.1207 31.4308 42.061C31.4507 42.0213 31.4706 41.9815 31.4905 41.9219C31.6296 41.9219 31.7887 41.9219 31.9278 41.9219C32.5639 41.9219 33.1801 41.9418 33.8162 41.9418C34.7107 41.9418 35.148 42.4983 34.9691 43.373C34.7902 44.2277 34.671 45.1024 34.5318 45.9571C34.3728 46.8516 34.1939 47.7461 34.0547 48.6406C33.9554 49.1972 34.0349 49.7538 34.6113 50.0917C34.6511 50.1315 34.671 50.1712 34.7505 50.2706Z" fill="#5F5862"/>
<path d="M59.6781 50.5086C58.386 50.4887 57.2729 50.1905 56.438 49.2364C55.9609 48.6997 55.7423 48.0437 55.7224 47.3281C55.6628 45.9764 56.0802 44.8036 56.9548 43.7898C57.7698 42.8555 58.8035 42.3188 60.016 42.0803C60.8509 41.9213 61.7057 41.9014 62.5207 42.1002C63.7133 42.3785 64.6675 42.9947 65.0253 44.2271C65.5421 45.9764 65.065 47.5269 63.8326 48.8388C62.6996 50.0712 61.2286 50.5086 59.6781 50.5086ZM58.6445 46.7516C58.6445 46.8709 58.6246 46.9902 58.6445 47.0895C58.7041 47.666 58.9227 48.1828 59.4595 48.4214C59.9763 48.6599 60.5527 48.6003 61.0099 48.2226C61.9641 47.4871 62.3616 46.5131 62.2622 45.3204C62.2026 44.6843 61.9243 44.1675 61.2882 43.9687C60.7316 43.7898 60.1949 43.9488 59.7576 44.3265C59.0221 44.9626 58.724 45.7975 58.6445 46.7516Z" fill="#5F5862"/>
<path d="M15.3695 46.9519C15.3695 45.0237 16.6814 43.1552 18.5102 42.4396C19.7227 41.9625 20.9552 41.8233 22.2274 42.1215C23.7977 42.4793 24.8711 43.6322 24.8711 45.3219C24.8513 47.4488 23.8772 48.9794 21.9689 49.9335C20.5576 50.6293 19.0866 50.7088 17.6157 50.2516C16.3435 49.854 15.2899 48.8403 15.3695 46.9519ZM21.9491 45.8784C21.9491 44.9243 21.6509 44.328 21.1738 44.0894C20.5377 43.7913 19.9613 43.9304 19.4444 44.3478C18.4903 45.1231 18.1325 46.1965 18.3512 47.3693C18.5301 48.3632 19.3848 48.8999 20.498 48.3433C21.5515 47.7867 21.8497 46.7729 21.9491 45.8784Z" fill="#5F5862"/>
<path d="M47.275 44.8846C47.4141 44.2684 47.4737 43.6522 47.6924 43.0757C47.7719 42.8372 48.1098 42.5986 48.3881 42.4992C49.6007 42.0619 50.853 41.8035 52.1649 42.042C52.7414 42.1414 53.298 42.3005 53.7751 42.6583C54.272 43.0359 54.5304 43.5329 54.6298 44.1292C54.769 45.0834 54.5105 45.9779 54.3714 46.9121C54.2521 47.5681 54.1329 48.2241 54.0335 48.8999C53.954 49.4168 54.0931 49.6553 54.7093 50.2715C54.5702 50.2914 54.4509 50.2914 54.3515 50.2914C53.7552 50.2914 53.139 50.2914 52.5426 50.2914C51.9065 50.2914 51.6481 50.1125 51.4295 49.5162C51.4096 49.4565 51.3698 49.3969 51.3301 49.3373C50.9723 49.5758 50.6343 49.8541 50.2765 50.033C49.2628 50.4902 48.2092 50.5896 47.1756 50.1125C46.2811 49.6951 45.8835 48.6813 46.1618 47.6874C46.4997 46.4351 47.3942 45.7592 48.567 45.4014C49.6007 45.0834 50.6741 45.0834 51.7475 45.1828C52.0059 45.2026 52.1252 45.0635 52.0854 44.7653C52.0258 44.3876 51.8071 44.0895 51.4692 43.9503C50.8729 43.6919 50.2368 43.6919 49.6007 43.8311C48.7857 44.01 48.0701 44.3876 47.4539 44.9442L47.275 44.8846ZM49.6007 48.7012C49.7796 48.6614 49.9784 48.6217 50.1573 48.5421C50.9126 48.2042 51.3301 47.5284 51.668 46.8326C51.6879 46.7929 51.5487 46.6339 51.4891 46.614C51.2108 46.5941 50.9524 46.5941 50.6741 46.5941C50.0777 46.614 49.5013 46.7332 49.064 47.1904C48.8056 47.4687 48.7062 47.8067 48.8254 48.1645C48.905 48.4626 49.2429 48.6813 49.6007 48.7012Z" fill="#5F5862"/>
<path d="M39.3827 22.9795C38.5876 22.3832 37.8521 21.7868 37.0769 21.2501C36.7191 20.9917 36.2818 20.8128 35.9041 20.5743C35.8047 20.5146 35.6854 20.3556 35.7053 20.2761C35.8842 19.2027 36.083 18.1293 36.3017 17.0559C36.3017 17.0161 36.3414 16.9763 36.4209 16.877C36.9775 17.2745 37.554 17.6522 38.0708 18.0895C38.9255 18.825 39.5418 19.7195 39.6809 20.8525C39.7604 21.588 39.7405 22.3235 39.3827 22.9795Z" fill="#E70E19"/>
<path d="M44.6504 36.1185C45.207 36.1583 45.7834 36.2179 46.34 36.2179C47.4731 36.198 48.5862 36.1384 49.7193 36.0986C49.8187 36.0986 49.8982 36.1185 49.9976 36.1185C49.6199 36.198 49.2422 36.3173 48.8645 36.3372C47.9303 36.3769 46.996 36.3769 46.0617 36.3372C45.5847 36.3173 45.1275 36.1781 44.6504 36.1185Z" fill="#FBF4F4"/>
<path d="M14.3153 35.7202C14.2358 35.8792 14.1563 36.0382 14.0768 36.2171C14.1165 36.237 14.1761 36.2768 14.2159 36.2966C15.4483 36.3563 16.6211 36.1972 17.615 35.3425C17.6349 35.3226 17.6747 35.3226 17.7144 35.3027C17.6747 35.3624 17.6548 35.4419 17.5952 35.4816C16.9988 35.9587 16.323 36.2569 15.5676 36.3364C15.1502 36.3761 14.7327 36.396 14.3153 36.396C14.196 36.396 14.0569 36.3364 13.9972 36.2768C13.9575 36.2171 14.0171 36.0581 14.0768 35.9587C14.1364 35.8593 14.2358 35.7997 14.3153 35.7202Z" fill="#FBF4F4"/>
<path d="M35.5859 33.4746C36.0829 33.6734 36.56 33.892 37.0569 34.0709C38.0707 34.4486 39.0845 34.8263 40.0982 35.204C39.7603 35.1245 39.4025 35.0847 39.0845 34.9655C38.3689 34.707 37.6532 34.4288 36.9575 34.1505C36.5003 33.9318 36.0431 33.6933 35.5859 33.4746Z" fill="#FBF4F4"/>
<path d="M41.1513 32.9174C40.5947 32.6987 40.0381 32.4999 39.5014 32.2216C38.746 31.8638 38.0304 31.4464 37.2949 31.0488C37.4937 31.1283 37.7124 31.188 37.9111 31.2874C38.6864 31.665 39.4417 32.0626 40.217 32.4403C40.4356 32.5397 40.6742 32.5993 40.8928 32.6987C40.9922 32.7583 41.0717 32.8577 41.1513 32.9174Z" fill="#FBF4F4"/>
<path d="M31.9688 31.5859C32.9229 32.0829 33.8969 32.56 34.8511 33.0569C35.0896 33.1762 35.3281 33.3352 35.5865 33.4545C35.2089 33.3153 34.8312 33.1762 34.4734 32.9973C33.7975 32.6593 33.1416 32.3015 32.4856 31.9239C32.2868 31.8443 32.1477 31.7052 31.9688 31.5859Z" fill="#FBF4F4"/>
<path d="M26.8984 25.3243C27.5743 25.2846 28.27 25.2448 28.9657 25.2051C29.0254 25.2051 29.1248 25.384 29.1248 25.4834C29.1248 25.6424 29.0453 25.8014 28.9856 25.9604V25.3045H26.8984V25.3243Z" fill="#FBF4F4"/>
<path d="M56.517 32.3613C55.7219 32.8782 54.8472 33.2558 53.9328 33.5341C53.7738 33.5938 53.5949 33.6335 53.416 33.6733C53.7539 33.5341 54.0919 33.395 54.4298 33.2558C55.0063 32.9974 55.5827 32.7191 56.1791 32.4607C56.2784 32.4011 56.4176 32.4011 56.517 32.3613Z" fill="#FBF4F4"/>
<path d="M50.1159 34.2497C49.4599 34.2696 48.8238 34.3094 48.1678 34.3094C47.9094 34.3094 47.651 34.2696 47.3926 34.2497C47.8895 34.2298 48.3666 34.21 48.8635 34.21C49.281 34.21 49.6984 34.2298 50.1159 34.2497Z" fill="#FBF4F4"/>
<path d="M40.2578 35.2236C41.1324 35.4224 42.0071 35.6212 42.8817 35.82C42.9215 35.8399 42.9612 35.8597 43.001 35.8796C42.6034 35.8399 42.2059 35.82 41.8083 35.7405C41.3312 35.6411 40.874 35.5019 40.4168 35.3628C40.3572 35.3628 40.2976 35.2833 40.2578 35.2236Z" fill="#FBF4F4"/>
<path d="M28.4102 36.0986C29.086 36.1384 29.7619 36.198 30.4377 36.2378C30.5769 36.2577 30.7359 36.2378 30.875 36.2378C30.8551 36.2577 30.8551 36.2974 30.8353 36.2974C30.1594 36.2974 29.4836 36.2974 28.8077 36.2775C28.6884 36.2577 28.5493 36.1583 28.4102 36.0986Z" fill="#FBF4F4"/>
<path d="M19.4453 30.9105C19.7634 30.016 20.2206 29.201 20.8566 28.4854C20.6777 28.7835 20.479 29.1016 20.3199 29.3997C20.0615 29.8569 19.823 30.334 19.5646 30.7912C19.5248 30.8508 19.4851 30.8906 19.4453 30.9105Z" fill="#FBF4F4"/>
<path d="M25.8652 35.5615C26.6206 35.7404 27.376 35.9193 28.1114 36.0784C27.8928 36.0585 27.6543 36.0585 27.4356 36.0187C27.0778 35.9591 26.7399 35.8597 26.4019 35.7802C26.223 35.7404 26.0441 35.641 25.8652 35.5615Z" fill="#FBF4F4"/>
<path d="M39.0843 28.3848C39.1241 28.0866 39.1837 27.8084 39.1638 27.5102C39.1638 27.0729 39.1042 26.6356 39.0645 26.1982C39.4024 26.6157 39.4024 27.9674 39.0843 28.3848Z" fill="#FBF4F4"/>
<path d="M36.3611 23.138C36.1425 23.0387 35.9238 22.9393 35.6853 22.8399C35.566 22.7802 35.4269 22.7405 35.2877 22.7007C35.1883 23.0784 35.1088 23.3965 35.0293 23.7145C35.0691 23.3368 35.1287 22.9591 35.1684 22.5815L35.3076 22.502L36.3611 23.138Z" fill="#FBF4F4"/>
<path d="M54.3301 34.9863C54.7674 34.7477 55.2047 34.5092 55.6221 34.2707C55.8806 34.1315 56.1191 33.9725 56.3775 33.8135C56.1986 33.9725 56.0396 34.1514 55.8408 34.2707C55.3637 34.549 54.8867 34.7676 54.4096 35.026C54.3897 35.026 54.35 34.9863 54.3301 34.9863Z" fill="#FBF4F4"/>
<path d="M24.5137 25.8814C25.1895 25.5634 25.8853 25.4044 26.6207 25.3447C26.5213 25.4044 26.4418 25.464 26.3424 25.5038C25.8057 25.6429 25.269 25.782 24.7522 25.9013C24.6528 25.9013 24.5733 25.8814 24.5137 25.8814Z" fill="#FBF4F4"/>
<path d="M11.6719 26.1982C12.3477 26.6356 13.0633 26.6554 13.7988 26.4368C13.2621 26.7946 12.7055 26.7151 12.1489 26.5362C11.97 26.4765 11.8309 26.3175 11.6719 26.1982Z" fill="#FBF4F4"/>
<path d="M21.7109 31.626C21.8501 32.2819 22.0886 32.8982 22.4464 33.4548C22.2278 33.0969 21.9892 32.759 21.8302 32.4012C21.7308 32.1627 21.7507 31.8844 21.7109 31.626Z" fill="#FBF4F4"/>
<path d="M56.3789 33.8122C56.856 33.3948 57.3331 32.9575 57.8101 32.54C57.8101 32.5798 57.8101 32.6394 57.7902 32.6792C57.333 33.037 56.856 33.4147 56.3789 33.8122Z" fill="#FBF4F4"/>
<path d="M47.1133 34.2101C46.5965 34.1505 46.0598 34.0909 45.543 34.0313C46.0797 33.9319 46.5965 34.0909 47.1133 34.2101Z" fill="#FBF4F4"/>
<path d="M17.1192 24.6094C16.9999 25.1858 16.9005 25.7424 16.7812 26.3189C16.821 25.9611 16.8409 25.6033 16.9204 25.2256C16.9602 25.0268 17.0595 24.8082 17.1192 24.6094Z" fill="#FBF4F4"/>
<path d="M15.6477 32.1436C15.4688 32.72 15.3098 33.2766 15.1309 33.8531C15.1905 33.6145 15.2302 33.376 15.3098 33.1573C15.4092 32.8194 15.5483 32.4815 15.6477 32.1436Z" fill="#FBF4F4"/>
<path d="M42.7998 33.4748L41.2891 32.958C41.468 32.9978 41.6469 32.9978 41.8258 33.0574C42.1637 33.1767 42.4817 33.3357 42.7998 33.4748Z" fill="#FBF4F4"/>
<path d="M58.1682 32.0834C58.1881 31.9045 58.2279 31.7057 58.2279 31.5069C58.2279 31.2684 58.1086 31.2485 57.9297 31.3678C58.0092 31.2883 58.0887 31.2088 58.1682 31.1094C58.2477 31.2088 58.3869 31.2883 58.4068 31.3877C58.4266 31.6461 58.526 31.9442 58.1682 32.0834Z" fill="#FBF4F4"/>
<path d="M34.6504 25.7812C34.5709 26.1987 34.8293 26.318 35.1672 26.4372C35.4057 26.5167 35.6244 26.6758 35.8431 26.795C35.4455 26.636 35.0281 26.477 34.6703 26.2782C34.5907 26.2384 34.6504 25.9403 34.6504 25.7812Z" fill="#FBF4F4"/>
<path d="M16.5625 27.7686C16.4631 28.2854 16.3439 28.8221 16.2445 29.3389L16.2246 29.319C16.3041 28.7823 16.2445 28.2257 16.5625 27.7686Z" fill="#FBF4F4"/>
<path d="M18.8477 32.6404C19.0266 32.1037 19.2055 31.567 19.4042 31.0303C19.3645 31.2092 19.3247 31.3682 19.285 31.5471C19.2055 31.8254 19.1458 32.0838 19.0464 32.3621C19.0067 32.4416 18.9272 32.541 18.8477 32.6404Z" fill="#FBF4F4"/>
<path d="M22.2675 28.8604L21.7109 30.4903C21.7706 30.1325 21.8103 29.7747 21.9296 29.4368C21.9892 29.2182 22.1483 29.0591 22.2675 28.8604Z" fill="#FBF4F4"/>
<path d="M51.7672 34.0508C51.2901 34.1104 50.813 34.17 50.3359 34.2297C50.813 34.17 51.2901 34.1104 51.7672 34.0508Z" fill="#FBF4F4"/>
<path d="M13.9395 26.4175C14.4364 26.1392 14.9532 25.8808 15.4502 25.6025C15.1123 25.8212 14.7942 26.0597 14.4563 26.2585C14.2973 26.338 14.1184 26.3579 13.9395 26.4175Z" fill="#FBF4F4"/>
<path d="M22.8828 26.6567C23.3798 26.3983 23.8568 26.1598 24.3538 25.9014C24.1948 26.0008 24.0556 26.1001 23.8966 26.1797C23.5785 26.3586 23.2207 26.4977 22.8828 26.6567Z" fill="#FBF4F4"/>
<path d="M53.2764 33.6934C52.8391 33.8126 52.4217 33.912 51.9844 34.0313C52.0043 33.9915 52.0241 33.9319 52.044 33.9319C52.4614 33.8325 52.859 33.7729 53.2764 33.6934Z" fill="#FBF4F4"/>
<path d="M27.7735 26.7752C27.2567 26.7752 26.7398 26.7752 26.2031 26.7752C26.2429 26.7354 26.2826 26.6758 26.3224 26.6758C26.8193 26.6957 27.2964 26.7354 27.7735 26.7752Z" fill="#FBF4F4"/>
<path d="M52.8203 35.5412C53.2775 35.3822 53.7347 35.2033 54.1919 35.0244C53.9335 35.1636 53.6751 35.3027 53.4167 35.4021C53.2179 35.4816 53.0191 35.5015 52.8203 35.5412Z" fill="#FBF4F4"/>
<path d="M57.8285 31.4658C57.411 31.7441 56.9936 32.0423 56.5762 32.3206C56.6756 32.2212 56.775 32.1019 56.8743 32.0224C57.1924 31.8435 57.5104 31.6646 57.8285 31.4658Z" fill="#FBF4F4"/>
<path d="M15.1123 33.9912C14.9135 34.4484 14.6949 34.9255 14.4961 35.3827C14.6551 34.9454 14.7943 34.5279 14.9533 34.0906C14.9732 34.0508 15.0527 34.031 15.1123 33.9912Z" fill="#FBF4F4"/>
<path d="M16.0055 30.6514C15.9062 31.0887 15.7869 31.526 15.6875 31.9434C15.767 31.5061 15.7273 31.029 16.0055 30.6514Z" fill="#FBF4F4"/>
<path d="M43.1387 35.9199C43.5561 35.9796 43.9537 36.0392 44.3711 36.0988C43.9338 36.2181 43.5362 36.0392 43.1387 35.9199Z" fill="#FBF4F4"/>
<path d="M36.6797 27.4502C37.0772 27.8478 37.1965 28.4043 36.958 28.8019C37.0574 28.3049 36.8785 27.8676 36.6797 27.4502Z" fill="#FBF4F4"/>
<path d="M44.2335 33.8311C43.7962 33.7118 43.3787 33.6124 42.9414 33.4932C43.3787 33.5926 43.816 33.7118 44.2335 33.8311Z" fill="#FBF4F4"/>
<path d="M24.5524 27.1338C24.1548 27.3524 23.7374 27.5711 23.3398 27.7898C23.4989 27.6506 23.638 27.4916 23.8169 27.4121C24.0356 27.2729 24.294 27.2133 24.5524 27.1338Z" fill="#FBF4F4"/>
<path d="M51.5078 35.8796C51.8656 35.7802 52.2234 35.6808 52.6011 35.5615C52.5017 35.641 52.4023 35.7404 52.2831 35.7603C52.0445 35.8398 51.7662 35.8597 51.5078 35.8796Z" fill="#FBF4F4"/>
<path d="M38.5273 29.5597C38.7062 29.2218 38.8851 28.8838 39.0641 28.5459C39.0044 28.9435 38.8653 29.3013 38.5273 29.5597Z" fill="#FBF4F4"/>
<path d="M16.2054 29.5391C16.1458 29.8571 16.0862 30.1752 16.0265 30.4932C15.9073 30.1553 16.0265 29.8372 16.2054 29.5391Z" fill="#FBF4F4"/>
<path d="M50.2754 36.0773C50.6133 36.0177 50.9512 35.9581 51.2693 35.8984C50.9711 36.0773 50.6531 36.2165 50.2754 36.0773Z" fill="#FBF4F4"/>
<path d="M31.6094 32.3614C31.6491 32.1229 31.6889 31.8645 31.7286 31.6259C31.7684 31.4868 31.8479 31.4272 31.9672 31.5862C31.8877 31.7452 31.828 31.9241 31.7485 32.0831C31.7286 32.1825 31.669 32.262 31.6094 32.3614Z" fill="#FBF4F4"/>
<path d="M16.7605 26.5361C16.7009 26.8741 16.6412 27.212 16.5816 27.5499C16.4424 27.1722 16.6213 26.8542 16.7605 26.5361Z" fill="#FBF4F4"/>
<path d="M31.0527 35.4433C31.1124 35.1452 31.172 34.847 31.2316 34.5488C31.331 34.8868 31.2714 35.1849 31.0527 35.4433Z" fill="#FBF4F4"/>
<path d="M18.2129 34.6289C18.352 34.3109 18.4912 33.9929 18.6303 33.6748C18.6105 33.814 18.6105 33.973 18.5508 34.0922C18.4514 34.291 18.3322 34.45 18.2129 34.6289Z" fill="#FBF4F4"/>
<path d="M45.3252 34.0302L44.3711 33.8513C44.709 33.8314 45.0469 33.7718 45.3252 34.0302Z" fill="#FBF4F4"/>
<path d="M35.009 23.9932C34.9493 24.2913 34.8897 24.5895 34.8301 24.8877C34.8897 24.5895 34.9493 24.2913 35.009 23.9932Z" fill="#FBF4F4"/>
<path d="M23.3413 27.7686C23.0829 28.0071 22.8444 28.2456 22.5859 28.4643C22.6853 28.0866 23.0034 27.9276 23.3413 27.7686Z" fill="#FBF4F4"/>
<path d="M31.4121 33.513C31.4717 33.2347 31.5314 32.9365 31.591 32.6582C31.7103 32.9763 31.5314 33.2347 31.4121 33.513Z" fill="#FBF4F4"/>
<path d="M37.2549 31.0097C37.1753 30.97 37.1157 30.9302 36.9766 30.8706C37.2549 30.7115 37.4536 30.5923 37.6524 30.4531C37.553 30.5525 37.4338 30.6718 37.3344 30.7712C37.2946 30.8507 37.2747 30.9302 37.2549 31.0097Z" fill="#FBF4F4"/>
<path d="M37.7921 24.1526C37.5536 23.9539 37.2952 23.775 37.0566 23.5762C37.3548 23.6954 37.653 23.8147 37.7921 24.1526Z" fill="#FBF4F4"/>
<path d="M22.1289 27.2121L22.8445 26.6953L22.1289 27.2121Z" fill="#FBF4F4"/>
<path d="M24.9707 35.2451C25.2092 35.3445 25.4677 35.4439 25.7261 35.5433C25.408 35.6029 25.1894 35.424 24.9707 35.2451Z" fill="#FBF4F4"/>
<path d="M24.1562 34.8467C24.4147 34.9659 24.693 35.1051 24.9514 35.2244C24.6134 35.2244 24.355 35.0852 24.1562 34.8467Z" fill="#FBF4F4"/>
<path d="M18.6504 33.4551C18.71 33.2365 18.7697 32.998 18.8293 32.7793C18.9486 33.0576 18.8492 33.2564 18.6504 33.4551Z" fill="#FBF4F4"/>
<path d="M28.6084 26.8932C28.4096 26.8535 28.2108 26.8137 27.9922 26.774C28.2108 26.7541 28.4494 26.615 28.6084 26.8932Z" fill="#FBF4F4"/>
<path d="M28.967 26.1797C28.8875 26.4182 28.808 26.6568 28.7285 26.8953C28.8279 26.6568 28.8875 26.4182 28.967 26.1797Z" fill="#FBF4F4"/>
<path d="M37.0365 23.5756C36.8178 23.4365 36.619 23.2973 36.4004 23.1582C36.619 23.2973 36.8178 23.4365 37.0365 23.5756Z" fill="#FBF4F4"/>
<path d="M25.9859 26.7749C25.807 26.8147 25.6281 26.8544 25.4492 26.8942C25.5685 26.596 25.807 26.7749 25.9859 26.7749Z" fill="#FBF4F4"/>
<path d="M17.6953 35.3037C17.8543 35.1049 18.0134 34.8863 18.1923 34.6875C18.0134 34.8863 17.8543 35.0851 17.6953 35.3037Z" fill="#FBF4F4"/>
<path d="M30.9141 36.2187C30.9538 36.0398 30.9936 35.8609 31.0333 35.6621C31.0532 35.8609 31.2122 36.0795 30.9141 36.2187Z" fill="#FBF4F4"/>
<path d="M25.2496 26.9346C25.0707 26.9942 24.8918 27.0539 24.7129 27.1135C24.852 26.9346 24.9912 26.7955 25.2496 26.9346Z" fill="#FBF4F4"/>
<path d="M31.252 34.3502C31.2917 34.1713 31.3315 33.9924 31.3712 33.8135C31.4507 34.0123 31.4507 34.211 31.252 34.3502Z" fill="#FBF4F4"/>
<path d="M38.408 24.828C38.2689 24.669 38.1098 24.4901 37.9707 24.3311C38.2291 24.3907 38.3285 24.5895 38.408 24.828Z" fill="#FBF4F4"/>
<path d="M39.0635 26.04C38.9641 25.8413 38.8845 25.6425 38.7852 25.4238C38.8647 25.6425 38.9641 25.8413 39.0635 26.04Z" fill="#FBF4F4"/>
<path d="M34.7907 25.085C34.751 25.2639 34.7112 25.4428 34.6714 25.6217C34.6317 25.4229 34.5323 25.2241 34.7907 25.085Z" fill="#FBF4F4"/>
<path d="M35.9434 26.8359C36.1223 26.9751 36.3012 27.0944 36.4801 27.2136C36.3012 27.0944 36.1223 26.9751 35.9434 26.8359Z" fill="#FBF4F4"/>
<path d="M38.7465 25.3834L38.3887 24.8467L38.7465 25.3834Z" fill="#FBF4F4"/>
<path d="M20.9551 28.3846C21.0743 28.2454 21.2135 28.0864 21.3328 27.9473C21.1936 28.0864 21.0743 28.2454 20.9551 28.3846Z" fill="#FBF4F4"/>
<path d="M23.3203 34.3096C23.4197 34.3891 23.539 34.4885 23.6384 34.568C23.539 34.4686 23.4396 34.3891 23.3203 34.3096Z" fill="#FBF4F4"/>
<path d="M16.3242 24.9476C16.4435 24.8482 16.5628 24.7488 16.682 24.6494C16.5628 24.7488 16.4435 24.8482 16.3242 24.9476Z" fill="#FBF4F4"/>
<path d="M23.6582 34.5674C23.7775 34.6469 23.9166 34.7264 24.0359 34.8059C23.9166 34.7264 23.7973 34.6469 23.6582 34.5674Z" fill="#FBF4F4"/>
<path d="M22.9824 34.0117C23.0818 34.0912 23.1812 34.1906 23.2806 34.2701C23.1812 34.1906 23.0818 34.0912 22.9824 34.0117Z" fill="#FBF4F4"/>
<path d="M38.1895 29.9563C38.269 29.8768 38.3286 29.7973 38.4081 29.7178C38.3485 29.7973 38.269 29.8768 38.1895 29.9563Z" fill="#FBF4F4"/>
<path d="M16.9395 24.3891L17.0985 24.25C17.1184 24.2898 17.1184 24.3494 17.1382 24.3891C17.0587 24.409 16.9991 24.409 16.9395 24.3891Z" fill="#FBF4F4"/>
<path d="M21.5117 27.7704C21.5912 27.6909 21.6707 27.6313 21.7503 27.5518C21.6707 27.6313 21.5912 27.6909 21.5117 27.7704Z" fill="#FBF4F4"/>
<path d="M15.4707 25.5842C15.5502 25.5245 15.6297 25.4649 15.7291 25.4053C15.6297 25.4649 15.5502 25.5245 15.4707 25.5842Z" fill="#FBF4F4"/>
<path d="M22.4473 33.4355C22.5069 33.5151 22.5665 33.5946 22.6262 33.6542C22.5665 33.5946 22.5069 33.5151 22.4473 33.4355Z" fill="#FBF4F4"/>
<path d="M16.7207 24.6082C16.7803 24.5486 16.8201 24.5089 16.8797 24.4492C16.84 24.489 16.7803 24.5486 16.7207 24.6082Z" fill="#FBF4F4"/>
<path d="M14.4549 35.4414L14.3555 35.6601L14.4549 35.4414Z" fill="#FBF4F4"/>
<path d="M15.7676 25.3644C15.8073 25.3246 15.867 25.2849 15.9067 25.2451C15.867 25.2849 15.8272 25.3246 15.7676 25.3644Z" fill="#FBF4F4"/>
<path d="M38.0703 30.0962L38.2095 29.957L38.0703 30.0962Z" fill="#FBF4F4"/>
<path d="M16.1445 25.0851C16.1843 25.0453 16.224 25.0056 16.2638 24.9658C16.224 25.0255 16.1843 25.0453 16.1445 25.0851Z" fill="#FBF4F4"/>
<path d="M22.8438 33.8916C22.8835 33.9314 22.9233 33.9711 22.9829 34.0109C22.9233 33.9711 22.8835 33.9314 22.8438 33.8916Z" fill="#FBF4F4"/>
<path d="M37.7129 30.4341C37.7526 30.3943 37.8123 30.3347 37.852 30.2949C37.8123 30.3347 37.7526 30.3943 37.7129 30.4341Z" fill="#FBF4F4"/>
<path d="M21.7305 27.5513C21.7702 27.5115 21.8299 27.4717 21.8696 27.4121C21.8299 27.4717 21.7901 27.5115 21.7305 27.5513Z" fill="#FBF4F4"/>
<path d="M57.9688 32.3602C58.0085 32.3204 58.0483 32.2608 58.088 32.2012C58.0483 32.2608 58.0085 32.3204 57.9688 32.3602Z" fill="#FBF4F4"/>
<path d="M22.7031 33.7324C22.7429 33.7722 22.7826 33.8119 22.8224 33.8716C22.7826 33.8318 22.7429 33.7921 22.7031 33.7324Z" fill="#FBF4F4"/>
<path d="M37.8516 30.2944C37.8913 30.2547 37.951 30.2149 37.9907 30.1553C37.951 30.2149 37.8913 30.2547 37.8516 30.2944Z" fill="#FBF4F4"/>
<path d="M22.545 28.5244C22.5053 28.5642 22.4655 28.6039 22.4258 28.6437C22.4655 28.6039 22.5053 28.5642 22.545 28.5244Z" fill="#FBF4F4"/>
<path d="M36.5586 27.3125C36.5983 27.3523 36.6381 27.392 36.6779 27.4318C36.6381 27.392 36.5983 27.3523 36.5586 27.3125Z" fill="#FBF4F4"/>
<path d="M37.9922 30.1547C38.0121 30.1348 38.0319 30.115 38.0518 30.0752C38.0518 30.115 38.0121 30.1348 37.9922 30.1547Z" fill="#FBF4F4"/>
<path d="M29.3434 22.681C25.8449 22.8997 22.6843 23.7743 20.2393 26.3783C20.2194 26.3585 20.1996 26.3386 20.1797 26.3187C20.299 25.6826 20.3983 25.0465 20.4977 24.3905C20.5375 24.1321 20.617 23.8737 20.6369 23.6153C20.6568 23.178 20.9152 22.9394 21.273 22.7407C22.5054 22.0847 23.8174 21.7269 25.2088 21.5877C26.0834 21.5082 26.9581 21.4685 27.8128 21.6474C28.3098 21.7468 28.7471 21.9654 29.1248 22.3431C29.2043 22.4226 29.244 22.522 29.3434 22.681Z" fill="#FBF4F4"/>
<path d="M26.5398 29.6182C27.1162 29.7176 27.5933 29.7971 28.0903 29.8766C28.3288 29.9163 28.289 30.0952 28.2692 30.2543C28.0704 31.3475 27.8517 32.421 27.6529 33.5142C27.6331 33.5739 27.6331 33.6136 27.6132 33.6733C27.5337 34.1305 27.5138 34.1503 27.0765 34.0311C26.2615 33.7925 25.526 33.4347 25.0291 32.7191C24.3532 31.7849 24.5122 30.5326 25.4266 29.9958C25.7447 29.7772 26.2019 29.7176 26.5398 29.6182Z" fill="#F8F8F7"/>
<path d="M46.6177 30.7129C45.4051 30.6731 44.2323 30.4545 43.0993 30.0569C42.821 29.9575 42.8409 29.8184 42.98 29.6196C43.3378 29.1028 43.8745 28.8245 44.451 28.6257C46.1009 28.0691 47.7905 27.9896 49.5 28.3871C50.0566 28.5263 50.0963 28.5859 49.9572 29.1425C49.9373 29.2618 49.8976 29.381 49.8777 29.5003C49.7584 30.2756 49.8777 30.196 49.0428 30.3749C48.2278 30.5538 47.4128 30.6135 46.6177 30.7129Z" fill="#FBF4F4"/>
<path d="M43.3184 27.4716C43.3581 26.0603 43.9346 25.3248 45.2266 24.9272C46.3398 24.5694 47.4729 24.4303 48.6258 24.4899C49.2619 24.5297 49.8781 24.6688 50.5142 24.7881C50.5937 24.808 50.6931 24.9869 50.6931 25.0863C50.6732 25.3248 50.6335 25.5832 50.5341 25.8217C50.5142 25.9013 50.3353 25.9808 50.2359 25.9808C49.4408 26.0205 48.6457 26.0006 47.8505 26.0802C46.3001 26.2392 44.8092 26.597 43.4575 27.4319C43.4177 27.4716 43.378 27.4517 43.3184 27.4716Z" fill="#FBF4F4"/>
<path d="M51.031 22.3427C48.5264 22.3626 46.1808 22.5614 44.0539 23.8534C44.034 23.7739 43.9744 23.7143 43.9942 23.6745C44.1135 23.0782 44.2328 22.4819 44.3719 21.9054C44.3918 21.806 44.5111 21.7066 44.6105 21.647C45.5248 21.1898 46.5187 20.9513 47.5325 20.9115C48.0692 20.8916 48.6258 20.8916 49.1625 20.9314C49.8185 20.9711 50.3552 21.2693 50.7726 21.7861C50.8521 21.9253 50.9118 22.1042 51.031 22.3427Z" fill="#FBF4F4"/>
<path d="M42.4635 45.6394C42.4436 46.5935 42.1653 47.4284 41.3702 48.0247C40.8534 48.4223 40.098 48.4422 39.5812 48.1241C39.1836 47.8856 39.0047 47.488 38.9849 47.0706C38.9252 46.1363 39.1836 45.2617 39.8595 44.5859C40.436 43.9895 41.1516 43.8702 41.8473 44.2678C42.3641 44.566 42.4834 45.0828 42.4635 45.6394Z" fill="#F8F8F7"/>
<path d="M58.6445 46.7525C58.724 45.8182 59.0222 44.9833 59.7577 44.3472C60.195 43.9696 60.7317 43.8105 61.2883 43.9894C61.9244 44.1882 62.2226 44.705 62.2623 45.3411C62.3617 46.5139 61.9642 47.5078 61.01 48.2433C60.5329 48.6011 59.9764 48.6608 59.4595 48.4421C58.9228 48.2036 58.7042 47.6867 58.6445 47.1103C58.6445 46.9711 58.6445 46.8717 58.6445 46.7525Z" fill="#F8F8F7"/>
<path d="M21.9493 45.8785C21.8499 46.773 21.5517 47.7868 20.4982 48.3235C19.385 48.8801 18.5303 48.3632 18.3514 47.3495C18.1327 46.1568 18.5104 45.1033 19.4447 44.328C19.9416 43.9106 20.538 43.7714 21.1741 44.0696C21.6511 44.328 21.9493 44.9244 21.9493 45.8785Z" fill="#F8F8F7"/>
<path d="M49.5997 48.7018C49.2419 48.662 48.904 48.4633 48.8046 48.1651C48.6853 47.8073 48.8046 47.4694 49.0431 47.1911C49.4805 46.7339 50.0569 46.6146 50.6533 46.5947C50.9315 46.5947 51.2098 46.5947 51.4683 46.6146C51.5478 46.6345 51.667 46.7935 51.6472 46.8333C51.2894 47.5489 50.8918 48.2048 50.1364 48.5428C49.9774 48.6223 49.7786 48.662 49.5997 48.7018Z" fill="#FBF4F4"/>
</svg>
