<svg width="184" height="184" viewBox="0 0 184 184" fill="none" xmlns="http://www.w3.org/2000/svg">
  <path fill-rule="evenodd" clip-rule="evenodd"
    d="M125 95V15H185V95H125ZM110 10C110 4.47715 114.477 0 120 0H190C195.523 0 200 4.47715 200 10V100C200 105.523 195.523 110 190 110H120C114.477 110 110 105.523 110 100V10ZM1.16297 95.3236C0 97.5201 0 100.416 0 106.209V183.791C0 189.584 0 192.48 1.16297 194.676C2.10148 196.449 3.55105 197.899 5.32358 198.837C7.52005 200 10.4163 200 16.2088 200H73.7912C79.5837 200 82.4799 200 84.6764 198.837C86.449 197.899 87.8985 196.449 88.837 194.676C90 192.48 90 189.584 90 183.791V106.209C90 100.416 90 97.5201 88.837 95.3236C87.8985 93.551 86.449 92.1015 84.6764 91.163C82.4799 90 79.5837 90 73.7912 90H16.2088C10.4163 90 7.52005 90 5.32358 91.163C3.55105 92.1015 2.10148 93.551 1.16297 95.3236ZM110 146C110 140.399 110 137.599 111.09 135.46C112.049 133.578 113.578 132.049 115.46 131.09C117.599 130 120.399 130 126 130H184C189.601 130 192.401 130 194.54 131.09C196.422 132.049 197.951 133.578 198.91 135.46C200 137.599 200 140.399 200 146V184C200 189.601 200 192.401 198.91 194.54C197.951 196.422 196.422 197.951 194.54 198.91C192.401 200 189.601 200 184 200H126C120.399 200 117.599 200 115.46 198.91C113.578 197.951 112.049 196.422 111.09 194.54C110 192.401 110 189.601 110 184V146ZM10 0C4.47715 0 0 4.47715 0 10V60C0 65.5229 4.47715 70 10 70H80C85.5229 70 90 65.5229 90 60V10C90 4.47715 85.5229 0 80 0H10Z"
    fill="url(#paint0_linear_998_185)" />
  <defs>
    <linearGradient id="paint0_linear_998_185" x1="100" y1="0" x2="100" y2="200" gradientUnits="userSpaceOnUse">
      <stop stop-color="#3a79ff" />
      <stop offset="1" stop-color="#3a79ff" stop-opacity="0.2" />
    </linearGradient>
  </defs>
</svg>