<svg width="40" height="40" viewBox="0 0 40 40" fill="none" xmlns="http://www.w3.org/2000/svg">
  <path fill-rule="evenodd" clip-rule="evenodd"
    d="M0 29.6875C0 28.9971 0.559644 28.4375 1.25 28.4375C1.94036 28.4375 2.5 28.9971 2.5 29.6875V36.25C2.5 36.9404 3.05964 37.5 3.75 37.5H9.96094C10.6513 37.5 11.2109 38.0596 11.2109 38.75C11.2109 39.4404 10.6513 40 9.96094 40H2.5C1.11929 40 0 38.8807 0 37.5V29.6875ZM30 2.5C29.3096 2.5 28.75 1.94036 28.75 1.25C28.75 0.559644 29.3096 0 30 0H37.5C38.8807 0 40 1.11929 40 2.5V10C40 10.6904 39.4404 11.25 38.75 11.25C38.0596 11.25 37.5 10.6904 37.5 10V3.75C37.5 3.05964 36.9404 2.5 36.25 2.5H30ZM10 0C10.6904 0 11.25 0.559643 11.25 1.25C11.25 1.94035 10.6904 2.5 10 2.5L3.75 2.5C3.05964 2.5 2.5 3.05964 2.5 3.75L2.5 9.96094C2.5 10.6513 1.94036 11.2109 1.25 11.2109C0.559644 11.2109 0 10.6513 0 9.96094V2.5C0 1.11929 1.11929 0 2.5 0H10ZM37.5 30C37.5 29.3096 38.0596 28.75 38.75 28.75C39.4404 28.75 40 29.3096 40 30V37.5C40 38.8807 38.8807 40 37.5 40H30C29.3096 40 28.75 39.4404 28.75 38.75C28.75 38.0596 29.3096 37.5 30 37.5H36.25C36.9404 37.5 37.5 36.9404 37.5 36.25V30Z"
    fill="url(#paint0_linear_998_196)" />
  <path fill-rule="evenodd" clip-rule="evenodd"
    d="M21.25 15.625H18.75V18.75L12.5 18.75C11.1193 18.75 10 19.8693 10 21.25V24.375H12.5V21.25L27.5 21.25V24.375H30V21.25C30 19.8693 28.8807 18.75 27.5 18.75L21.25 18.75V15.625Z"
    fill="url(#paint1_radial_998_196)" />
  <path fill-rule="evenodd" clip-rule="evenodd"
    d="M15 7.5C15 6.80964 15.5596 6.25 16.25 6.25H23.75C24.4404 6.25 25 6.80964 25 7.5V15C25 15.6904 24.4404 16.25 23.75 16.25H16.25C15.5596 16.25 15 15.6904 15 15V7.5ZM6.25 25C6.25 24.3096 6.80964 23.75 7.5 23.75H15C15.6904 23.75 16.25 24.3096 16.25 25V32.5C16.25 33.1904 15.6904 33.75 15 33.75H7.5C6.80964 33.75 6.25 33.1904 6.25 32.5V25ZM25 23.75C24.3096 23.75 23.75 24.3096 23.75 25V32.5C23.75 33.1904 24.3096 33.75 25 33.75H32.5C33.1904 33.75 33.75 33.1904 33.75 32.5V25C33.75 24.3096 33.1904 23.75 32.5 23.75H25Z"
    fill="#105DFF" />
  <path fill-rule="evenodd" clip-rule="evenodd"
    d="M15 7.5C15 6.80964 15.5596 6.25 16.25 6.25H23.75C24.4404 6.25 25 6.80964 25 7.5V15C25 15.6904 24.4404 16.25 23.75 16.25H16.25C15.5596 16.25 15 15.6904 15 15V7.5ZM6.25 25C6.25 24.3096 6.80964 23.75 7.5 23.75H15C15.6904 23.75 16.25 24.3096 16.25 25V32.5C16.25 33.1904 15.6904 33.75 15 33.75H7.5C6.80964 33.75 6.25 33.1904 6.25 32.5V25ZM25 23.75C24.3096 23.75 23.75 24.3096 23.75 25V32.5C23.75 33.1904 24.3096 33.75 25 33.75H32.5C33.1904 33.75 33.75 33.1904 33.75 32.5V25C33.75 24.3096 33.1904 23.75 32.5 23.75H25Z"
    fill="url(#paint2_linear_998_196)" />
  <defs>
    <linearGradient id="paint0_linear_998_196" x1="1.13208" y1="0.999999" x2="42.7838" y2="28.2439"
      gradientUnits="userSpaceOnUse">
      <stop stop-color="#07D988" />
      <stop offset="1" stop-color="#15F59F" />
    </linearGradient>
    <radialGradient id="paint1_radial_998_196" cx="0" cy="0" r="1" gradientUnits="userSpaceOnUse"
      gradientTransform="translate(13.5063 15.625) rotate(33.547) scale(15.8766 75.4889)">
      <stop stop-color="#FC790D" />
      <stop offset="1" stop-color="#FF9A23" />
    </radialGradient>
    <linearGradient id="paint2_linear_998_196" x1="5.08735" y1="6.40046" x2="2.72121" y2="36.5404"
      gradientUnits="userSpaceOnUse">
      <stop stop-color="white" />
      <stop offset="1" stop-color="white" stop-opacity="0.6" />
    </linearGradient>
  </defs>
</svg>