<svg width="184" height="184" viewBox="0 0 184 184" fill="none" xmlns="http://www.w3.org/2000/svg">
  <path fill-rule="evenodd" clip-rule="evenodd"
    d="M-0.000976562 148.517C-0.000976562 145.064 2.79876 142.264 6.2524 142.264C9.70605 142.264 12.5058 145.064 12.5058 148.517V181.347C12.5058 184.801 15.3055 187.6 18.7592 187.6H49.8304C53.2841 187.6 56.0838 190.4 56.0838 193.854C56.0838 197.308 53.2841 200.107 49.8304 200.107H12.5058C5.5985 200.107 -0.000976562 194.508 -0.000976562 187.6V148.517ZM150.08 12.5058C146.626 12.5058 143.827 9.70605 143.827 6.25241C143.827 2.79876 146.626 -0.000976562 150.08 -0.000976562H187.6C194.508 -0.000976562 200.107 5.59848 200.107 12.5058V50.0264C200.107 53.48 197.308 56.2798 193.854 56.2798C190.4 56.2798 187.6 53.48 187.6 50.0264V18.7592C187.6 15.3055 184.801 12.5058 181.347 12.5058H150.08ZM50.0259 -0.000928583C53.4795 -0.000928432 56.2793 2.79881 56.2793 6.25245C56.2793 9.7061 53.4795 12.5058 50.0259 12.5058L18.7592 12.5058C15.3056 12.5058 12.5058 15.3056 12.5058 18.7592L12.5058 49.8292C12.5058 53.2828 9.70609 56.0825 6.25244 56.0825C2.79879 56.0825 -0.000948374 53.2828 -0.000948223 49.8291L-0.000946592 12.5058C-0.00094629 5.59855 5.59853 -0.000930525 12.5058 -0.000930223L50.0259 -0.000928583ZM187.601 150.082C187.601 146.628 190.4 143.829 193.854 143.829C197.308 143.829 200.107 146.628 200.107 150.082L200.107 187.601C200.107 194.508 194.508 200.107 187.601 200.107L150.081 200.107C146.627 200.107 143.827 197.308 143.827 193.854C143.827 190.4 146.627 187.601 150.081 187.601L181.347 187.601C184.801 187.601 187.601 184.801 187.601 181.347V150.082ZM93.8004 81.2951H81.2937C77.84 81.2951 75.0403 78.4954 75.0403 75.0417V37.5214C75.0403 34.0678 77.84 31.268 81.2937 31.268H118.814C122.268 31.268 125.067 34.0678 125.067 37.5214V75.0417C125.067 78.4954 122.268 81.2951 118.814 81.2951H106.307V93.8019H137.574C144.481 93.8019 150.081 99.4014 150.081 106.309V118.815H162.587C166.041 118.815 168.841 121.615 168.841 125.068V162.589C168.841 166.042 166.041 168.842 162.587 168.842H125.067C121.613 168.842 118.814 166.042 118.814 162.589V125.068C118.814 121.615 121.613 118.815 125.067 118.815H137.574V107.872C137.574 107.009 136.874 106.309 136.011 106.309L64.0968 106.309C63.2334 106.309 62.5335 107.009 62.5335 107.872V118.815H75.0402C78.4939 118.815 81.2936 121.615 81.2936 125.068V162.589C81.2936 166.042 78.4938 168.842 75.0402 168.842H37.5199C34.0662 168.842 31.2665 166.042 31.2665 162.589V125.068C31.2665 121.615 34.0663 118.815 37.5199 118.815H50.0267V106.309C50.0267 99.4013 55.6262 93.8019 62.5335 93.8019H93.8004V81.2951Z"
    fill="url(#paint0_linear_998_216)" />
  <defs>
    <linearGradient id="paint0_linear_998_216" x1="100.053" y1="-0.000976562" x2="100.053" y2="200.107"
      gradientUnits="userSpaceOnUse">
      <stop stop-color="#3a79ff" />
      <stop offset="1" stop-color="#3a79ff" stop-opacity="0.2" />
    </linearGradient>
  </defs>
</svg>