<svg width="182" height="184" viewBox="0 0 182 184" fill="none" xmlns="http://www.w3.org/2000/svg">
  <path fill-rule="evenodd" clip-rule="evenodd"
    d="M104.25 49.2124C115.032 46.4372 123 36.649 123 25C123 11.1929 111.807 0 97.9998 0C84.1927 0 72.9998 11.1929 72.9998 25C72.9998 36.649 80.9671 46.4371 91.7497 49.2124V66.1918C75.749 69.1309 63.6247 83.1496 63.6247 100C63.6247 105.363 64.8527 110.438 67.0428 114.962L46.9018 132.776C42.8075 129.848 37.7924 128.125 32.3748 128.125C18.5677 128.125 7.37482 139.318 7.37482 153.125C7.37482 166.932 18.5677 178.125 32.3748 178.125C46.1819 178.125 57.3748 166.932 57.3748 153.125C57.3748 149.268 56.5014 145.615 54.9416 142.353L74.4812 125.07C80.6299 130.841 88.9021 134.375 97.9997 134.375C106.824 134.375 114.871 131.05 120.958 125.585L140.728 143.072C139.376 146.148 138.625 149.549 138.625 153.125C138.625 166.932 149.818 178.125 163.625 178.125C177.432 178.125 188.625 166.932 188.625 153.125C188.625 139.318 177.432 128.125 163.625 128.125C157.929 128.125 152.679 130.03 148.475 133.236L128.607 115.663C131.016 110.966 132.375 105.642 132.375 100C132.375 83.1496 120.25 69.1309 104.25 66.1918V49.2124ZM63.634 18.0041C64.0954 13.9388 60.1255 10.0059 56.4441 11.7911C23.5173 27.7575 0.814453 61.5053 0.814453 100.556C0.814453 108.497 1.75342 116.22 3.5264 123.618C4.39625 127.247 9.06058 128.225 12.0955 126.053C13.8899 124.768 14.8439 122.539 14.3447 120.389C12.8649 114.017 12.0826 107.378 12.0826 100.556C12.0826 66.1851 31.9395 36.4524 60.8072 22.2036C62.3962 21.4193 63.4342 19.7649 63.634 18.0041ZM55.338 188.775C52.0051 187.107 52.119 182.337 54.911 179.868C56.5664 178.404 58.9438 177.991 60.9268 178.966C72.5358 184.674 85.5971 187.88 99.4071 187.88C113.687 187.88 127.166 184.453 139.067 178.376C140.707 177.538 142.65 177.673 144.212 178.65C147.638 180.79 148.392 186.233 144.808 188.096C131.22 195.158 115.779 199.148 99.4071 199.148C83.5674 199.148 68.6001 195.413 55.338 188.775ZM195.495 122.737C194.588 126.681 189.138 127.33 186.212 124.534C184.881 123.263 184.248 121.401 184.648 119.604C186.012 113.472 186.732 107.098 186.732 100.556C186.732 64.9503 165.422 34.3221 134.862 20.7284C133.242 20.0078 132.138 18.4015 131.869 16.649C131.246 12.6058 135.052 8.51193 138.801 10.148C173.645 25.3522 198 60.1097 198 100.556C198 108.183 197.134 115.608 195.495 122.737Z"
    fill="url(#paint0_linear_998_271)" />
  <defs>
    <linearGradient id="paint0_linear_998_271" x1="99.4071" y1="0" x2="99.4071" y2="199.148"
      gradientUnits="userSpaceOnUse">
      <stop stop-color="#3a79ff" />
      <stop offset="1" stop-color="#3a79ff" stop-opacity="0.2" />
    </linearGradient>
  </defs>
</svg>