<svg width="40" height="40" viewBox="0 0 40 40" fill="none" xmlns="http://www.w3.org/2000/svg">
  <path fill-rule="evenodd" clip-rule="evenodd"
    d="M13.1268 3.60126C13.219 2.7882 12.4251 2.00162 11.6888 2.35866C5.10349 5.55197 0.562988 12.3015 0.562988 20.1115C0.562988 21.6999 0.750789 23.2443 1.1054 24.724C1.27937 25.4499 2.21225 25.6455 2.81924 25.211C3.17809 24.9541 3.3689 24.5082 3.26906 24.0783C2.97308 22.8039 2.81661 21.476 2.81661 20.1115C2.81661 13.2374 6.78794 7.29093 12.5614 4.44116C12.8792 4.2843 13.0868 3.95341 13.1268 3.60126ZM11.4678 37.7554C10.8012 37.4218 10.824 36.4678 11.3824 35.974C11.7135 35.6813 12.1889 35.5987 12.5855 35.7937C14.9073 36.9353 17.5195 37.5764 20.2815 37.5764C23.1374 37.5764 25.8332 36.8909 28.2133 35.6755C28.5415 35.508 28.93 35.5351 29.2425 35.7303C29.9276 36.1583 30.0784 37.2471 29.3616 37.6196C26.644 39.0319 23.556 39.83 20.2815 39.83C17.1136 39.83 14.1202 39.083 11.4678 37.7554ZM4.32195 27.2155C4.32192 27.2155 4.32184 27.2154 4.32178 27.2155C3.62923 27.6977 3.08247 28.3748 2.76089 29.1673C2.76086 29.1673 2.76087 29.1674 2.76089 29.1674C2.76097 29.1676 2.7612 29.1676 2.76126 29.1674C3.08279 28.375 3.62946 27.6979 4.32191 27.2157C4.32196 27.2156 4.32197 27.2156 4.32195 27.2155ZM31.3035 33.9737C31.1847 33.9277 31.166 33.7713 31.265 33.6911C31.3067 33.6574 31.3617 33.6451 31.414 33.6569C31.7254 33.7271 32.0493 33.7642 32.3819 33.7642C34.802 33.7642 36.7638 31.8023 36.7638 29.3823C36.7638 28.6396 36.579 27.9401 36.2529 27.3271C36.2319 27.2877 36.2299 27.2407 36.2481 27.1999C36.2645 27.163 36.3139 27.1563 36.3388 27.1881C36.9208 27.9319 37.2677 28.8685 37.2677 29.8862C37.2677 30.0562 37.2155 30.2214 37.127 30.3665C36.5414 31.3262 35.8762 32.232 35.1404 33.0747C34.556 33.7441 33.7745 34.2681 32.8858 34.2681C32.3279 34.2681 31.7943 34.1638 31.3035 33.9737ZM39.499 24.5479C39.3176 25.3367 38.2276 25.4665 37.6425 24.9073C37.3763 24.653 37.2497 24.2806 37.3297 23.9213C37.6025 22.6949 37.7464 21.42 37.7464 20.1115C37.7464 12.9904 33.4845 6.86471 27.3723 4.14601C27.0483 4.00189 26.8277 3.68062 26.7737 3.33013C26.6493 2.52149 27.4104 1.70271 28.1603 2.02991C35.1291 5.07072 40.0001 12.0223 40.0001 20.1115C40.0001 21.637 39.8268 23.122 39.499 24.5479Z"
    fill="url(#paint0_linear_934_349)" />
  <path fill-rule="evenodd" clip-rule="evenodd"
    d="M21.25 6.875H18.75V13.2384C15.5499 13.8262 13.125 16.6299 13.125 20C13.125 21.0725 13.3706 22.0877 13.8086 22.9923L6.87488 29.1253L8.5312 30.9979L15.2963 25.0141C16.526 26.1682 18.1805 26.875 20 26.875C21.7648 26.875 23.3743 26.21 24.5916 25.117L31.2403 30.9979L32.8966 29.1253L26.1215 23.1326C26.6032 22.1932 26.875 21.1283 26.875 20C26.875 16.6299 24.4502 13.8262 21.25 13.2384V6.875Z"
    fill="url(#paint1_linear_934_349)" />
  <path fill-rule="evenodd" clip-rule="evenodd"
    d="M25 5C25 7.76142 22.7614 10 20 10C17.2386 10 15 7.76142 15 5C15 2.23858 17.2386 0 20 0C22.7614 0 25 2.23858 25 5ZM38.125 30.625C38.125 33.3864 35.8864 35.625 33.125 35.625C30.3636 35.625 28.125 33.3864 28.125 30.625C28.125 27.8636 30.3636 25.625 33.125 25.625C35.8864 25.625 38.125 27.8636 38.125 30.625ZM6.875 35.625C9.63642 35.625 11.875 33.3864 11.875 30.625C11.875 27.8636 9.63642 25.625 6.875 25.625C4.11358 25.625 1.875 27.8636 1.875 30.625C1.875 33.3864 4.11358 35.625 6.875 35.625Z"
    fill="url(#paint2_radial_934_349)" />
  <defs>
    <linearGradient id="paint0_linear_934_349" x1="1.67913" y1="3.14476" x2="41.5668" y2="30.4903"
      gradientUnits="userSpaceOnUse">
      <stop stop-color="#07D988" />
      <stop offset="1" stop-color="#15F59F" />
    </linearGradient>
    <linearGradient id="paint1_linear_934_349" x1="6.87488" y1="6.875" x2="32.137" y2="31.7688"
      gradientUnits="userSpaceOnUse">
      <stop stop-color="#0555FF" />
      <stop offset="1" stop-color="#4380FF" />
    </linearGradient>
    <radialGradient id="paint2_radial_934_349" cx="0" cy="0" r="1" gradientUnits="userSpaceOnUse"
      gradientTransform="translate(8.23017) rotate(56.123) scale(43.0258 205.559)">
      <stop stop-color="#FC790D" />
      <stop offset="1" stop-color="#FF9A23" />
    </radialGradient>
  </defs>
</svg>