<svg width="184" height="184" viewBox="0 0 184 184" fill="none" xmlns="http://www.w3.org/2000/svg">
  <path fill-rule="evenodd" clip-rule="evenodd"
    d="M153.125 10C153.125 4.47715 157.602 0 163.125 0H190C195.523 0 200 4.47715 200 10V36.875C200 42.3979 195.523 46.875 190 46.875H163.125C157.602 46.875 153.125 42.3978 153.125 36.875V10ZM84.375 28.125C84.375 22.8831 84.375 20.2621 85.3328 18.2336C86.3231 16.1362 88.0112 14.4481 90.1086 13.4578C92.1371 12.5 94.7581 12.5 100 12.5C105.242 12.5 107.863 12.5 109.891 13.4578C111.989 14.4481 113.677 16.1362 114.667 18.2336C115.625 20.2621 115.625 22.8831 115.625 28.125V153.125C115.625 158.367 115.625 160.988 114.667 163.016C113.677 165.114 111.989 166.802 109.891 167.792C107.863 168.75 105.242 168.75 100 168.75C94.7581 168.75 92.1371 168.75 90.1086 167.792C88.0112 166.802 86.3231 165.114 85.3328 163.016C84.375 160.988 84.375 158.367 84.375 153.125V28.125ZM31.25 57.8125C31.25 54.0366 31.25 52.1486 31.7531 50.6226C32.7464 47.6097 35.1097 45.2464 38.1226 44.2531C39.6486 43.75 41.5366 43.75 45.3125 43.75C49.0884 43.75 50.9764 43.75 52.5024 44.2531C55.5153 45.2464 57.8786 47.6097 58.8719 50.6226C59.375 52.1486 59.375 54.0366 59.375 57.8125V154.688C59.375 158.463 59.375 160.351 58.8719 161.877C57.8786 164.89 55.5153 167.254 52.5024 168.247C50.9764 168.75 49.0884 168.75 45.3125 168.75C41.5366 168.75 39.6486 168.75 38.1226 168.247C35.1097 167.254 32.7464 164.89 31.7531 161.877C31.25 160.351 31.25 158.463 31.25 154.688V57.8125ZM141.13 109.988C140.625 111.516 140.625 113.406 140.625 117.188V154.688C140.625 158.469 140.625 160.359 141.13 161.887C142.123 164.893 144.482 167.252 147.488 168.245C149.016 168.75 150.906 168.75 154.688 168.75C158.469 168.75 160.359 168.75 161.887 168.245C164.893 167.252 167.252 164.893 168.245 161.887C168.75 160.359 168.75 158.469 168.75 154.688V117.188C168.75 113.406 168.75 111.516 168.245 109.988C167.252 106.982 164.893 104.623 161.887 103.63C160.359 103.125 158.469 103.125 154.688 103.125C150.906 103.125 149.016 103.125 147.488 103.63C144.482 104.623 142.123 106.982 141.13 109.988ZM9.375 181.25C4.19733 181.25 0 185.447 0 190.625C0 195.803 4.19733 200 9.375 200H190.625C195.803 200 200 195.803 200 190.625C200 185.447 195.803 181.25 190.625 181.25H9.375Z"
    fill="url(#paint0_linear_998_298)" />
  <defs>
    <linearGradient id="paint0_linear_998_298" x1="100" y1="0" x2="100" y2="200" gradientUnits="userSpaceOnUse">
      <stop stop-color="#3a79ff" />
      <stop offset="1" stop-color="#3a79ff" stop-opacity="0.2" />
    </linearGradient>
  </defs>
</svg>