<svg width="200" height="200" viewBox="0 0 200 200" fill="none" xmlns="http://www.w3.org/2000/svg">
<g opacity="0.06">
<path fill-rule="evenodd" clip-rule="evenodd" d="M12.5 147.5V12.5H187.5V147.5H12.5ZM0 10C0 4.47715 4.47715 0 10 0H190C195.523 0 200 4.47715 200 10V150C200 155.523 195.523 160 190 160H10C4.47716 160 0 155.523 0 150V10ZM7.5 185C3.35786 185 0 188.358 0 192.5C0 196.642 3.35787 200 7.5 200H192.5C196.642 200 200 196.642 200 192.5C200 188.358 196.642 185 192.5 185H7.5ZM30 44.999C30 40.3396 30 38.0099 30.7612 36.1722C31.7761 33.7219 33.7229 31.7752 36.1732 30.7602C38.0109 29.999 40.3406 29.999 45 29.999C49.6594 29.999 51.9891 29.999 53.8268 30.7602C56.2771 31.7752 58.2239 33.7219 59.2388 36.1722C60 38.0099 60 40.3396 60 44.999V114.999C60 119.658 60 121.988 59.2388 123.826C58.2239 126.276 56.2771 128.223 53.8268 129.238C51.9891 129.999 49.6594 129.999 45 129.999C40.3406 129.999 38.0109 129.999 36.1732 129.238C33.7229 128.223 31.7761 126.276 30.7612 123.826C30 121.988 30 119.658 30 114.999V44.999ZM81.163 35.3226C80 37.5191 80 40.4153 80 46.2078V113.79C80 119.583 80 122.479 81.163 124.675C82.1015 126.448 83.551 127.898 85.3236 128.836C87.5201 129.999 90.4163 129.999 96.2088 129.999H153.791C159.584 129.999 162.48 129.999 164.676 128.836C166.449 127.898 167.899 126.448 168.837 124.675C170 122.479 170 119.583 170 113.79V46.2078C170 40.4153 170 37.5191 168.837 35.3226C167.899 33.5501 166.449 32.1005 164.676 31.162C162.48 29.999 159.584 29.999 153.791 29.999H96.2088C90.4163 29.999 87.5201 29.999 85.3236 31.162C83.551 32.1005 82.1015 33.5501 81.163 35.3226Z" fill="url(#paint0_linear_1053_249)"/>
</g>
<defs>
<linearGradient id="paint0_linear_1053_249" x1="100" y1="0" x2="100" y2="200" gradientUnits="userSpaceOnUse">
<stop stop-color="#FBFBFD"/>
<stop offset="1" stop-color="#FBFBFD" stop-opacity="0.2"/>
</linearGradient>
</defs>
</svg>
