<svg width="24" height="24" viewBox="0 0 24 24" fill="none" xmlns="http://www.w3.org/2000/svg">
<path d="M21.9213 10.985L18.273 6.34491C18.1828 6.22448 18.0657 6.12673 17.931 6.05941C17.7964 5.99208 17.648 5.95703 17.4974 5.95703C17.3469 5.95703 17.1985 5.99208 17.0639 6.05941C16.9292 6.12673 16.8121 6.22448 16.7218 6.34491L13.1167 10.985C13.0543 11.0647 13.0155 11.1604 13.0045 11.261C12.9936 11.3617 13.011 11.4635 13.0547 11.5548C13.0978 11.6454 13.1656 11.722 13.2504 11.7756C13.3353 11.8292 13.4335 11.8577 13.5339 11.8577H14.9702C14.9702 14.5632 14.9702 18.0105 10.2448 20.7451C10.2122 20.7569 10.1857 20.7811 10.1708 20.8124C10.156 20.8437 10.1542 20.8796 10.1657 20.9122C10.1712 20.9284 10.1799 20.9433 10.1912 20.9561C10.2025 20.9689 10.2162 20.9793 10.2316 20.9868C10.247 20.9942 10.2637 20.9985 10.2808 20.9995C10.2978 21.0004 10.3149 20.998 10.331 20.9922C19.2933 19.5377 20.0114 13.5013 20.04 11.8724H21.4764C21.5782 11.8682 21.6769 11.8355 21.7612 11.7781C21.8454 11.7206 21.9119 11.6407 21.9531 11.5474C21.9951 11.4536 22.0104 11.35 21.9972 11.2481C21.9841 11.1461 21.943 11.0497 21.8786 10.9696L21.9213 10.985Z" fill="#54657E"/>
<path d="M10.4312 12.1498H8.99488C9.12423 9.42982 9.12423 5.99695 13.749 3.24789C13.7763 3.234 13.7979 3.21101 13.81 3.1829C13.8222 3.15478 13.8242 3.1233 13.8156 3.09388C13.8073 3.06453 13.7888 3.03908 13.7635 3.02203C13.7382 3.00499 13.7077 2.99745 13.6774 3.00076C4.71485 4.4553 3.98236 10.5061 3.96791 12.1207H2.5316C2.43124 12.121 2.33302 12.1497 2.24831 12.2035C2.16359 12.2573 2.09584 12.334 2.0529 12.4247C2.00944 12.5159 1.99224 12.6174 2.00323 12.7179C2.01422 12.8183 2.05297 12.9137 2.11513 12.9934L5.74891 17.6334C5.83917 17.7539 5.95626 17.8517 6.09089 17.919C6.22551 17.9864 6.37398 18.0215 6.52451 18.0215C6.67505 18.0215 6.82351 17.9864 6.95814 17.919C7.09276 17.8517 7.20985 17.7539 7.30011 17.6334L10.8763 12.9934C10.9344 12.9137 10.9697 12.8198 10.9785 12.7216C10.9873 12.6234 10.9692 12.5247 10.9261 12.436C10.8837 12.3477 10.8176 12.2728 10.7352 12.2198C10.6528 12.1667 10.5574 12.1375 10.4594 12.1353L10.4312 12.1498Z" fill="#54657E"/>
</svg>
