<svg width="24" height="24" viewBox="0 0 24 24" fill="none" xmlns="http://www.w3.org/2000/svg">
<rect x="5.29785" y="0.499023" width="15.4944" height="19.7" rx="1.5" fill="#54657E" stroke="white"/>
<rect x="2.39844" y="3.7998" width="15.4944" height="19.7" rx="1.5" fill="#54657E" stroke="white"/>
<rect x="5" y="16.7998" width="11" height="1.5" rx="0.75" fill="white"/>
<path d="M9.14134 15.3002C8.97691 15.3002 8.81314 15.2284 8.68771 15.0856L6.12125 12.1522C5.87104 11.8659 5.87104 11.4013 6.12125 11.115C6.37211 10.8287 6.7783 10.8287 7.02851 11.115L9.14134 13.5298L13.1785 8.91549C13.4287 8.62843 13.8349 8.62843 14.0858 8.91549C14.336 9.2018 14.336 9.66567 14.0858 9.95198L9.59496 15.0856C9.46953 15.2284 9.30511 15.3002 9.14134 15.3002Z" fill="white"/>
</svg>
