<svg width="24" height="24" viewBox="0 0 24 24" fill="none" xmlns="http://www.w3.org/2000/svg">
<path fill-rule="evenodd" clip-rule="evenodd" d="M18.8119 16.374C18.8218 16.3538 18.8079 16.3301 18.7855 16.3289C18.7626 16.3276 18.7482 16.3035 18.758 16.2828C19.0364 15.6961 19.2429 15.0634 19.3643 14.3938C19.87 11.6051 18.7692 8.89686 16.7213 7.22036C16.184 6.7805 15.8492 6.12355 16.117 5.48289C16.1301 5.45154 16.1414 5.42522 16.1502 5.405C16.1553 5.39321 16.1572 5.38712 16.1587 5.38253C16.1611 5.37505 16.1622 5.37159 16.1736 5.35397C16.4451 4.93323 17.2345 4.65038 17.6444 4.93808C20.1734 6.71339 21.7779 9.61512 21.8607 12.7817C21.9625 14.601 21.5671 16.4462 20.5511 18.1512C20.4475 18.325 20.3395 18.4945 20.2271 18.6596C19.6854 19.456 18.4924 19.2306 17.665 18.7375C17.4735 18.6233 17.4236 18.3518 17.5747 18.1879C17.9221 17.8108 18.236 17.3923 18.5089 16.9343C18.6187 16.7501 18.7196 16.5632 18.8119 16.374ZM11.6304 22.9791C11.7845 22.9854 11.9388 22.9589 12.093 22.9569C13.1109 22.9441 14.1029 22.7738 15.0405 22.4659C15.6347 22.2707 15.8123 21.5116 15.588 20.9277C15.3678 20.3545 14.7294 20.0778 14.1419 20.2564C13.0341 20.5933 11.8318 20.6788 10.6141 20.458C10.225 20.3874 9.84841 20.2882 9.48603 20.1628C9.04284 20.0022 8.6084 19.7976 8.18846 19.5473C7.15477 18.9313 6.32226 18.1066 5.71266 17.1589C5.38721 16.6529 4.62584 16.5261 4.07947 16.7778C3.56272 17.016 3.21455 17.6123 3.50256 18.103C3.88759 18.759 4.3509 19.375 4.8886 19.9354C4.8955 19.9426 4.89347 19.9545 4.88452 19.9589C4.87548 19.9633 4.87337 19.9753 4.88041 19.9825C5.92347 21.0492 7.21442 21.8887 8.68407 22.4011C9.64626 22.749 10.6397 22.9388 11.6304 22.9791ZM10.127 3.36218C10.1149 3.36457 10.1045 3.35343 10.1078 3.34156C10.1111 3.32964 10.1007 3.31838 10.0886 3.32071C6.18817 4.07068 2.96195 7.14102 2.21083 11.2836C2.13581 11.6974 2.08767 12.1098 2.06515 12.519C2.02598 13.231 2.67982 13.5835 3.38145 13.7107C3.88435 13.8019 4.41129 13.1672 4.43867 12.6569C4.45554 12.3425 4.4923 12.0256 4.54994 11.7078C4.64074 11.207 4.77911 10.7269 4.95957 10.2712C4.98808 10.1992 5.02892 10.1329 5.06532 10.0646C5.15845 9.88979 5.26591 9.72069 5.3745 9.5498C5.44208 9.44345 5.5101 9.33641 5.57538 9.22687C6.78623 7.19498 8.80374 5.94041 10.9758 5.62826C12.0446 5.47466 12.9897 4.52484 13.5424 3.59728C13.6215 3.46464 13.5491 3.28678 13.3962 3.26575C12.3009 3.11515 11.1958 3.15119 10.127 3.36218Z" fill="#54657E"/>
<circle cx="12.1996" cy="4.59498" r="3.09468" transform="rotate(10.2048 12.1996 4.59498)" fill="#54657E"/>
<circle cx="4.60236" cy="17.7188" r="3.10125" transform="rotate(10.2048 4.60236 17.7188)" fill="#54657E"/>
<circle cx="19.4054" cy="17.787" r="3.09439" transform="rotate(10.2048 19.4054 17.787)" fill="#54657E"/>
</svg>
