<svg width="24" height="24" viewBox="0 0 24 24" fill="none" xmlns="http://www.w3.org/2000/svg">
<path d="M12 2V2C12 2.00316 12.0026 2.00571 12.0057 2.00572C17.5031 2.00834 22 5.78162 22 10.4286C22 15.0771 17.5 18.8514 12 18.8514C11.8016 18.8591 11.6064 18.9056 11.425 18.9886C10.345 19.4206 8.555 20.784 7.3 21.8057C7.15804 21.9242 6.98267 21.9923 6.8 22C6.6832 21.9977 6.56802 21.9714 6.46126 21.9226C6.35449 21.8739 6.25829 21.8036 6.17833 21.716C6.01467 21.5366 5.92557 21.2985 5.93 21.0526C5.93 19.3366 5.835 17.0829 5.335 16.704C3.285 15.1611 2 12.9189 2 10.4234C2 5.76988 6.49969 2.00083 11.9994 2.00057C11.9997 2.00057 12 2.00032 12 2V2ZM15.25 8.28057H8.75C8.33556 8.28057 8 8.63429 8 9.07029C8 9.50629 8.33556 9.86 8.75 9.86H15.25C15.6644 9.86 16 9.50629 16 9.07029C16 8.63429 15.6644 8.28057 15.25 8.28057ZM14.25 11.966C14.25 11.9662 14.2499 11.9663 14.2497 11.9663H9.75C9.33556 11.9663 9 12.3194 9 12.7554C9 13.192 9.33556 13.5451 9.75 13.5451H14.25C14.6644 13.5451 15 13.192 15 12.7554C15 12.3195 14.6646 11.9659 14.2503 11.9657C14.2501 11.9657 14.25 11.9658 14.25 11.966V11.966Z" fill="#54657E"/>
</svg>
