<svg width="20" height="20" viewBox="0 0 20 20" fill="none" xmlns="http://www.w3.org/2000/svg">
<path fill-rule="evenodd" clip-rule="evenodd" d="M12.75 0C12.3358 0 12 0.335786 12 0.75C12 1.16421 12.3358 1.5 12.75 1.5H19.25C19.6642 1.5 20 1.16421 20 0.75C20 0.335786 19.6642 0 19.25 0H12.75ZM14.25 4C13.8358 4 13.5 4.33579 13.5 4.75C13.5 5.16421 13.8358 5.5 14.25 5.5H19.25C19.6642 5.5 20 5.16421 20 4.75C20 4.33579 19.6642 4 19.25 4H14.25ZM13.5 9.25C13.5 8.83579 13.8358 8.5 14.25 8.5H19.25C19.6642 8.5 20 8.83579 20 9.25C20 9.66421 19.6642 10 19.25 10H14.25C13.8358 10 13.5 9.66421 13.5 9.25ZM15.4066 15.8702C15.3099 15.5718 15.1649 15.3232 14.9231 15.1243C14.8425 15.058 14.762 14.9972 14.6814 14.9365C14.3487 14.6855 13.996 14.4477 13.6162 14.2762C13.6079 14.2725 13.5996 14.2687 13.5912 14.2649C13.1007 14.0435 12.4819 13.7641 12.2639 13.732C12.0256 13.697 11.8112 13.6127 11.6039 13.5311C11.5168 13.4968 11.4311 13.4631 11.3453 13.4337C11.0552 13.3343 10.8135 13.1851 10.6201 12.9862C10.4751 12.837 10.33 12.6381 10.2333 12.4392C10.1366 12.2901 10.0883 12.0912 10.0883 11.8923C10.0883 11.6481 10.1206 11.404 10.1854 11.1599C10.2142 11.0513 10.235 10.935 10.3075 10.8492C10.3592 10.788 10.4187 10.7299 10.4755 10.6733C10.4835 10.6654 10.4913 10.6573 10.4992 10.6492C10.5718 10.5745 10.6562 10.5103 10.7383 10.4462C10.7473 10.4392 10.7562 10.4323 10.7651 10.4254C10.8135 10.3881 10.8618 10.3508 10.9102 10.3011C11.0069 10.2017 11.1036 10.1022 11.1519 9.95304C11.1761 9.87845 11.2124 9.80387 11.2486 9.72928C11.2849 9.6547 11.3212 9.58011 11.3453 9.50552C11.3937 9.35637 11.442 9.15751 11.4904 8.95865C11.4904 8.9586 11.4904 8.95855 11.4905 8.95854C11.6354 8.90882 11.6838 8.8591 11.7805 8.75967L11.7805 8.75966C11.8772 8.66022 11.9739 8.56077 12.0222 8.4116C12.0839 8.2848 12.1258 8.158 12.1482 8.0312C12.1733 7.88897 12.1929 7.74469 12.2018 7.60055C12.2033 7.57742 12.2038 7.55488 12.2034 7.53278C12.2007 7.38775 12.1643 7.24192 12.1095 7.10761C12.0987 7.08125 12.0886 7.05842 12.0814 7.04259C12.0743 7.02698 12.0748 7.03108 12.069 7.01491C12.0227 6.88427 11.9261 6.73329 11.9223 6.59475C11.9109 6.17377 11.8698 5.75821 11.8288 5.37845C11.7805 4.93094 11.6838 4.48343 11.5387 4.08564C11.3937 3.63812 11.2003 3.24033 10.9102 2.84254C10.6371 2.46807 10.2788 2.14614 9.86036 1.94681C9.82363 1.92931 9.78673 1.91297 9.74982 1.89779C9.62765 1.84753 9.49312 1.79727 9.35249 1.74701C9.07076 1.64632 8.78041 1.56883 8.4834 1.53285C8.4547 1.52938 8.42599 1.5261 8.39734 1.52307C8.13996 1.49579 7.88098 1.52269 7.62339 1.54786C7.4895 1.56095 7.3626 1.57335 7.2357 1.59945C6.9456 1.64917 6.70386 1.74862 6.46212 1.84807C5.83359 2.09669 5.2534 2.5442 4.91496 3.14088C4.72157 3.48895 4.52818 3.88674 4.43148 4.28453C4.26204 5.02511 4.16683 5.80386 4.17835 6.55389C4.18151 6.75951 4.11649 6.95897 4.0391 7.1495C4.00729 7.22781 3.96927 7.30224 3.93623 7.38005C3.91252 7.43589 3.89949 7.4875 3.88552 7.54283C3.87585 7.58114 3.86573 7.62123 3.8513 7.66575C3.80788 7.84434 3.84243 7.98284 3.88494 8.15325C3.88977 8.17262 3.89471 8.1924 3.89964 8.21271C3.94799 8.36188 3.99634 8.51105 4.09304 8.66022C4.12349 8.72287 4.15395 8.76578 4.19649 8.81382C4.25393 8.87869 4.32534 8.93046 4.4073 8.95856C4.48574 8.98545 4.53867 9.05505 4.55682 9.13595L4.67322 9.6547C4.6974 9.72928 4.73366 9.80387 4.76992 9.87845C4.80618 9.95304 4.84244 10.0276 4.86662 10.1022C4.91496 10.2514 5.01166 10.3508 5.10836 10.4503L5.59184 10.9475C5.73689 11.0967 5.83359 11.3453 5.83359 11.5939V12.0912C5.83359 12.2403 5.78524 12.3895 5.73689 12.5387C5.67243 12.6713 5.60796 12.7597 5.5435 12.8481C5.51126 12.8923 5.47903 12.9365 5.4468 12.9862C5.30175 13.1851 5.10836 13.3343 4.91496 13.4337C4.57652 13.6326 4.23808 13.7818 3.89964 13.8812C3.51286 13.9807 1.82066 14.5773 1.48222 14.7265C1.14378 14.8757 0.853684 15.0249 0.563592 15.2735C0.321849 15.5221 0.128455 15.8702 0.0801065 16.268C-0.0165906 16.7155 -0.0165906 17.2127 0.031758 17.6602C0.031758 18.2598 0.588503 18.6973 1.17895 18.8016C1.18334 18.8024 1.18773 18.8031 1.19212 18.8039C3.51286 19.2514 5.83359 19.5 8.15432 19.5C10.475 19.5 12.7474 19.2017 14.9231 18.5553C15.0407 18.525 15.1404 18.4764 15.2332 18.4206C15.3476 18.3516 15.4245 18.2349 15.4657 18.1077C15.5495 17.8491 15.5828 17.5754 15.5943 17.3038C15.6 17.1699 15.6 17.0362 15.6 16.9144V16.9144C15.6 16.7682 15.6 16.7533 15.5943 16.7411C15.5884 16.7283 15.5763 16.7185 15.5517 16.5663C15.5275 16.442 15.5033 16.3301 15.4791 16.2182C15.455 16.1063 15.4308 15.9945 15.4066 15.8702Z" fill="#54657E"/>
</svg>
