<svg width="24" height="24" viewBox="0 0 24 24" fill="none" xmlns="http://www.w3.org/2000/svg">
<path fill-rule="evenodd" clip-rule="evenodd" d="M4 2C2.89543 2 2 2.89543 2 4V15C2 16.1046 2.89543 17 4 17H8.99951V20.002C8.99951 21.1065 9.89495 22.002 10.9995 22.002H19.9995C21.1041 22.002 21.9995 21.1065 21.9995 20.002V11.002C21.9995 9.89738 21.1041 9.00195 19.9995 9.00195H17V4C17 2.89543 16.1046 2 15 2H4ZM10.4995 17H15C16.1046 17 17 16.1046 17 15V10.502H19.9995C20.2757 10.502 20.4995 10.7258 20.4995 11.002V20.002C20.4995 20.2781 20.2757 20.502 19.9995 20.502H10.9995C10.7234 20.502 10.4995 20.2781 10.4995 20.002V17Z" fill="#54657E"/>
</svg>
