<svg width="24" height="24" viewBox="0 0 24 24" fill="none" xmlns="http://www.w3.org/2000/svg">
<path d="M11.893 10.3467C11.0396 10.3467 10.293 11.04 10.293 11.9467C10.293 12.8 10.9863 13.5467 11.893 13.5467C12.7996 13.5467 13.493 12.8533 13.493 11.9467C13.493 11.0933 12.7996 10.3467 11.893 10.3467Z" fill="#54657E"/>
<path d="M11.8938 1.49316C6.13376 1.49316 1.44043 6.1865 1.44043 11.9465C1.44043 17.7065 6.13376 22.3998 11.8938 22.3998C17.6538 22.3998 22.3471 17.7065 22.3471 11.9465C22.4004 6.1865 17.7071 1.49316 11.8938 1.49316ZM16.6404 7.73316L14.5071 14.2398C14.4538 14.3998 14.2938 14.5598 14.1338 14.6132L7.6271 16.7465C7.4671 16.7998 7.25376 16.7998 7.20043 16.6932C7.09376 16.5865 7.04043 16.4265 7.1471 16.2665L9.28043 9.75983C9.33376 9.59983 9.49376 9.43983 9.65376 9.3865L16.1604 7.25316C16.3204 7.19983 16.5338 7.19983 16.5871 7.3065C16.6938 7.41316 16.7471 7.57316 16.6404 7.73316Z" fill="#54657E"/>
</svg>
