<svg width="24" height="24" viewBox="0 0 24 24" fill="none" xmlns="http://www.w3.org/2000/svg">
<path d="M22.2772 7.97109L19.8959 3.78281C19.5889 3.24375 18.9912 2.90625 18.3397 2.90625H5.6553C5.00374 2.90625 4.40608 3.24375 4.09905 3.78281L1.72014 7.97109C1.41311 8.5125 1.45061 9.17109 1.81858 9.67969L9.82952 20.7445C10.8701 22.1812 13.1272 22.1812 14.1678 20.7445L15.2553 19.2422L17.1912 16.5703L19.9686 12.7336L21.7076 10.3312L22.1764 9.68203C22.5467 9.17344 22.5842 8.51484 22.2772 7.97109Z" fill="#54657E"/>
<path d="M8.24535 11.5909C8.01942 11.3119 7.61011 11.2689 7.33115 11.4949C7.05218 11.7208 7.00918 12.1301 7.23511 12.4091L8.24535 11.5909ZM12.0002 17.26L11.4951 17.6691C11.6187 17.8217 11.8046 17.9102 12.001 17.91C12.1973 17.9098 12.3831 17.8208 12.5063 17.6679L12.0002 17.26ZM16.7463 12.4079C16.9716 12.1284 16.9276 11.7192 16.6482 11.4939C16.3687 11.2686 15.9595 11.3126 15.7342 11.5921L16.7463 12.4079ZM7.23511 12.4091L11.4951 17.6691L12.5054 16.8509L8.24535 11.5909L7.23511 12.4091ZM12.5063 17.6679L16.7463 12.4079L15.7342 11.5921L11.4942 16.8521L12.5063 17.6679Z" fill="white"/>
</svg>
