<svg width="24" height="24" viewBox="0 0 24 24" fill="none" xmlns="http://www.w3.org/2000/svg">
<path d="M20.8573 10.9849C21.2513 10.9849 21.4483 10.9849 21.6104 10.8947C21.7422 10.8213 21.8681 10.6788 21.9248 10.539C21.9945 10.367 21.973 10.193 21.9299 9.84495C21.8275 9.01719 21.6138 8.20524 21.2933 7.43144C20.8267 6.30485 20.1427 5.2812 19.2804 4.41894C18.4182 3.55668 17.3945 2.8727 16.2679 2.40605C15.4941 2.08554 14.6822 1.87186 13.8544 1.76946C13.5063 1.7264 13.3323 1.70487 13.1604 1.77455C13.0206 1.83122 12.8781 1.9572 12.8047 2.08898C12.7144 2.25103 12.7144 2.44805 12.7144 2.84208V9.84208C12.7144 10.2421 12.7144 10.4421 12.7923 10.5949C12.8608 10.7293 12.97 10.8386 13.1044 10.9071C13.2572 10.9849 13.4572 10.9849 13.8573 10.9849H20.8573Z" fill="#54657E"/>
<path d="M19.4286 12.4127C19.8226 12.4127 20.0196 12.4127 20.1817 12.5029C20.3135 12.5763 20.4394 12.7188 20.4961 12.8586C20.5658 13.0306 20.5443 13.2046 20.5012 13.5527C20.324 14.9853 19.8143 16.3625 19.0065 17.5715C17.9862 19.0986 16.5359 20.2887 14.8392 20.9916C13.1425 21.6944 11.2754 21.8783 9.47416 21.52C7.67291 21.1617 6.01835 20.2773 4.71972 18.9787C3.42109 17.68 2.53671 16.0255 2.17842 14.2242C1.82013 12.423 2.00402 10.5559 2.70683 8.85918C3.40965 7.16244 4.59982 5.71221 6.12685 4.69188C7.33586 3.88404 8.71304 3.37442 10.1457 3.19719C10.4938 3.15413 10.6678 3.1326 10.8397 3.20228C10.9795 3.25894 11.1221 3.38492 11.1955 3.51671C11.2857 3.67876 11.2857 3.87578 11.2857 4.26981V11.2698C11.2857 11.6698 11.2857 11.8699 11.3636 12.0227C11.432 12.1571 11.5413 12.2663 11.6757 12.3348C11.8285 12.4127 12.0285 12.4127 12.4286 12.4127H19.4286Z" fill="#54657E"/>
</svg>
