<svg width="24" height="24" viewBox="0 0 24 24" fill="none" xmlns="http://www.w3.org/2000/svg">
<path fill-rule="evenodd" clip-rule="evenodd" d="M12.7499 6.28362H18.5921C19.2426 6.28362 19.7704 6.8583 19.7704 7.56668V8.19351C19.7704 8.533 19.5179 8.80706 19.2061 8.80706H5.44713C4.77304 8.80706 4.22696 9.40259 4.22696 10.1356V18.3356C4.22696 18.9985 3.73315 19.5362 3.12437 19.5362H3.10172C2.49295 19.5362 2 18.9985 2 18.3356V4.45055C2 3.78769 2.49295 3.25 3.10172 3.25H9.91935C10.3975 3.25 10.8312 3.55535 11.0289 4.02951L11.6403 5.50412C11.8371 5.97922 12.2717 6.28362 12.7499 6.28362Z" fill="#54657E"/>
<path fill-rule="evenodd" clip-rule="evenodd" d="M5.34255 20.7504H19.7808C21.0062 20.7504 21.9999 19.6693 21.9999 18.3351V10.6624C21.9999 10.3229 21.7465 10.0479 21.4347 10.0479H5.90691C5.59512 10.0479 5.34255 10.3229 5.34255 10.6624V18.2355C5.3382 19.0833 5.02205 19.7243 4.53084 20.2004C4.3314 20.3929 4.45595 20.7504 4.72245 20.7504H5.34255Z" fill="#54657E"/>
</svg>
