<svg width="24" height="24" viewBox="0 0 24 24" fill="none" xmlns="http://www.w3.org/2000/svg">
<path fill-rule="evenodd" clip-rule="evenodd" d="M11.3468 22.6971C11.8464 22.8709 12.3906 22.8709 12.8903 22.6971C16.2985 21.5143 17.5297 20.5483 17.5297 20.5483C21.0718 18.1037 21.103 14.894 21.103 14.894V4.76384C21.103 4.26726 20.7037 3.84066 20.213 3.8226C17.6992 3.73231 13.9944 1.86337 12.6382 1.13204C12.3126 0.955985 11.9222 0.955985 11.5966 1.13204C10.2404 1.86111 6.53781 3.73231 4.02181 3.8226C3.5311 3.84066 3.13184 4.26726 3.13184 4.76384V14.894C3.13184 14.894 3.16306 18.1037 6.7051 20.5483L6.70957 20.5516C6.79305 20.6138 8.05376 21.5543 11.3468 22.6971ZM10.8926 11.8423V16.4202C10.8926 17.0969 11.4412 17.6455 12.1179 17.6455C12.7946 17.6455 13.3432 17.0969 13.3432 16.4202V11.8413C14.3086 11.3784 14.9759 10.386 14.9759 9.23639C14.9759 7.64422 13.6959 6.35352 12.1169 6.35352C10.5379 6.35352 9.25781 7.64422 9.25781 9.23639C9.25781 10.3868 9.9261 11.3798 10.8926 11.8423Z" fill="#54657E"/>
</svg>
