<svg width="24" height="24" viewBox="0 0 24 24" fill="none" xmlns="http://www.w3.org/2000/svg">
<path d="M11.2149 22.5178C11.7146 22.6901 12.2588 22.6901 12.7584 22.5178C16.1666 21.3448 17.3979 20.3867 17.3979 20.3867C20.9399 17.9624 20.9711 14.7792 20.9711 14.7792V4.73273C20.9711 4.24026 20.5719 3.81718 20.0812 3.79927C17.5674 3.70973 13.8625 1.85623 12.5064 1.13095C12.1807 0.956349 11.7904 0.956349 11.4647 1.13095C10.1086 1.854 6.40597 3.70973 3.88997 3.79927C3.39926 3.81718 3 4.24026 3 4.73273V14.7792C3 14.7792 3.03123 17.9624 6.57326 20.3867C6.57549 20.3867 7.80673 21.3448 11.2149 22.5178Z" fill="#54657E"/>
<path d="M10.6155 16C10.379 16 10.1433 15.913 9.96283 15.7399L6.27002 12.1843C5.90999 11.8372 5.90999 11.2741 6.27002 10.927C6.63098 10.58 7.21543 10.58 7.57545 10.927L10.6155 13.8541L16.4245 8.26096C16.7846 7.91301 17.369 7.91301 17.73 8.26096C18.09 8.608 18.09 9.17027 17.73 9.51732L11.2683 15.7399C11.0878 15.913 10.8512 16 10.6155 16Z" fill="white"/>
</svg>
