<svg width="480" height="448" viewBox="0 0 480 448" fill="none" xmlns="http://www.w3.org/2000/svg">
<circle opacity="0.4" cx="242" cy="224" r="151" stroke="url(#paint0_linear_1647_2515)" stroke-linecap="round" stroke-dasharray="2 4"/>
<circle cx="242" cy="224" r="192" fill="url(#paint1_linear_1647_2515)"/>
<circle cx="242" cy="224" r="219" fill="url(#paint2_radial_1647_2515)"/>
<circle cx="242" cy="224" r="90" fill="url(#paint3_linear_1647_2515)"/>
<g filter="url(#filter0_d_1647_2515)">
<circle cx="241.895" cy="223.895" r="69.8952" fill="url(#paint4_linear_1647_2515)"/>
</g>
<g filter="url(#filter1_d_1647_2515)">
<circle cx="242" cy="224" r="60" stroke="url(#paint5_linear_1647_2515)" stroke-opacity="0.27" stroke-linecap="round" stroke-dasharray="2 4"/>
</g>
<g filter="url(#filter2_d_1647_2515)">
<circle cx="242" cy="224" r="42" fill="url(#paint6_linear_1647_2515)" fill-opacity="0.46"/>
</g>
<path d="M238.046 227.764C238.046 227.763 238.046 227.763 238.046 227.763L231.8 221.481C231.582 221.262 231.324 221.088 231.039 220.969C230.754 220.851 230.449 220.79 230.141 220.79C229.832 220.79 229.527 220.851 229.242 220.969C228.958 221.088 228.699 221.262 228.481 221.481C228.263 221.7 228.09 221.96 227.972 222.247C227.854 222.533 227.794 222.84 227.794 223.15C227.794 223.46 227.854 223.767 227.972 224.053C228.09 224.34 228.263 224.6 228.481 224.819L236.365 232.746C236.682 233.066 237.084 233.287 237.522 233.384C237.961 233.48 238.418 233.448 238.839 233.292C239.172 233.18 239.487 232.99 239.752 232.722L254.302 218.09C254.743 217.647 254.99 217.047 254.99 216.421C254.991 215.795 254.743 215.194 254.303 214.751C253.863 214.309 253.267 214.06 252.644 214.06C252.022 214.059 251.424 214.308 250.984 214.75L238.047 227.764C238.046 227.764 238.046 227.764 238.046 227.764ZM264.196 201.375L266.013 201.512C266.57 201.554 267 202.018 267 202.576V230.663C266.999 241.412 244.568 253 241.999 253C239.196 253 217 241.411 217 230.664V202.582C217 202.022 217.434 201.557 217.993 201.518L220.033 201.377C220.036 201.376 220.037 201.376 220.04 201.376C220.143 201.369 223.637 201.137 229.85 199.269C235.956 197.23 240.091 194.992 240.35 194.851C240.359 194.846 240.368 194.841 240.377 194.837L241.544 194.236C241.833 194.087 242.174 194.078 242.47 194.212L243.819 194.819C243.853 194.835 243.886 194.852 243.918 194.87C244.387 195.137 248.259 197.296 254.383 199.268C260.438 201.368 264.172 201.375 264.197 201.375H264.196Z" fill="url(#paint7_linear_1647_2515)"/>
<circle opacity="0.6" cx="243.5" cy="223.5" r="135.5" fill="#1863FF" fill-opacity="0.04" stroke="url(#paint8_linear_1647_2515)" stroke-opacity="0.14" stroke-linecap="round" stroke-dasharray="2 4"/>
<g filter="url(#filter3_d_1647_2515)">
<circle cx="83.5" cy="84.5" r="7.5" fill="url(#paint9_linear_1647_2515)"/>
<circle cx="83.5" cy="84.5" r="7.5" fill="#6D50FF"/>
</g>
<g filter="url(#filter4_d_1647_2515)">
<circle cx="107" cy="224" r="8" fill="#FD7D10"/>
</g>
<circle opacity="0.4" cx="242" cy="224" r="192" stroke="url(#paint10_linear_1647_2515)" stroke-linecap="round" stroke-dasharray="2 4"/>
<g filter="url(#filter5_d_1647_2515)">
<circle cx="302" cy="39" r="6" fill="#115EFF"/>
</g>
<circle cx="106" cy="360" r="36" fill="white"/>
<circle cx="106" cy="360" r="36" fill="#0ADE8C" fill-opacity="0.15"/>
<g filter="url(#filter6_d_1647_2515)">
<path d="M104.602 343.858C105.51 343.563 106.49 343.563 107.398 343.858L118.713 347.542C119.299 347.733 119.81 348.099 120.171 348.589C120.533 349.079 120.727 349.668 120.727 350.272V358.583C120.727 364.905 117.492 370.809 112.106 374.315L106.817 377.759C106.575 377.916 106.291 378 106 378C105.709 378 105.425 377.916 105.183 377.759L99.8941 374.315C97.242 372.589 95.0675 370.249 93.5635 367.505C92.0595 364.761 91.2727 361.696 91.2727 358.583V350.27C91.2729 349.666 91.4676 349.078 91.8291 348.588C92.1907 348.099 92.7009 347.733 93.2874 347.542L104.602 343.858ZM106.465 346.588C106.163 346.49 105.837 346.49 105.535 346.588L94.2182 350.27V358.583C94.2182 363.942 96.9604 368.948 101.527 371.922L106 374.832L110.473 371.922C112.651 370.504 114.451 368.597 115.721 366.361C116.991 364.125 117.695 361.625 117.774 359.07L117.782 358.583V350.27L106.465 346.588ZM110.418 363.617C110.809 363.617 111.183 363.769 111.46 364.039C111.736 364.308 111.891 364.674 111.891 365.056C111.891 365.437 111.736 365.803 111.46 366.073C111.183 366.342 110.809 366.494 110.418 366.494H101.582C101.191 366.494 100.817 366.342 100.54 366.073C100.264 365.803 100.109 365.437 100.109 365.056C100.109 364.674 100.264 364.308 100.54 364.039C100.817 363.769 101.191 363.617 101.582 363.617H110.418ZM113.364 357.864C113.754 357.864 114.129 358.016 114.405 358.286C114.681 358.555 114.836 358.921 114.836 359.303C114.836 359.684 114.681 360.05 114.405 360.32C114.129 360.589 113.754 360.741 113.364 360.741H98.6364C98.2458 360.741 97.8712 360.589 97.595 360.32C97.3188 360.05 97.1636 359.684 97.1636 359.303C97.1636 358.921 97.3188 358.555 97.595 358.286C97.8712 358.016 98.2458 357.864 98.6364 357.864H113.364ZM110.418 352.111C110.809 352.111 111.183 352.263 111.46 352.532C111.736 352.802 111.891 353.168 111.891 353.549C111.891 353.931 111.736 354.297 111.46 354.566C111.183 354.836 110.809 354.988 110.418 354.988H101.582C101.388 354.988 101.197 354.95 101.018 354.878C100.84 354.806 100.677 354.7 100.54 354.566C100.404 354.433 100.295 354.274 100.221 354.1C100.147 353.925 100.109 353.738 100.109 353.549C100.109 353.361 100.147 353.174 100.221 352.999C100.295 352.825 100.404 352.666 100.54 352.532C100.677 352.399 100.84 352.293 101.018 352.221C101.197 352.148 101.388 352.111 101.582 352.111H110.418Z" fill="url(#paint11_linear_1647_2515)"/>
</g>
<g filter="url(#filter7_d_1647_2515)">
<circle cx="294.5" cy="365.5" r="7.5" fill="url(#paint12_linear_1647_2515)"/>
</g>
<circle cx="466.5" cy="141.5" r="7.5" fill="url(#paint13_radial_1647_2515)" fill-opacity="0.3"/>
<circle cx="378" cy="360" r="36" fill="white"/>
<circle cx="378" cy="360" r="36" fill="#7256FF" fill-opacity="0.15"/>
<g filter="url(#filter8_d_1647_2515)">
<path fill-rule="evenodd" clip-rule="evenodd" d="M371.516 354.964C371.516 358.504 374.468 361.382 378.09 361.382C381.712 361.382 384.66 358.504 384.663 354.964C384.663 351.424 381.716 348.547 378.09 348.547C374.464 348.547 371.516 351.428 371.516 354.964ZM374.369 354.964C374.369 352.963 376.036 351.332 378.09 351.332C380.14 351.332 381.811 352.963 381.811 354.964C381.811 356.966 380.144 358.597 378.09 358.597C376.04 358.597 374.369 356.969 374.369 354.964ZM371.454 373.911H384.722C385.882 373.911 386.983 373.419 387.746 372.564C388.504 371.71 388.847 370.577 388.683 369.455L388.14 365.709C387.859 363.796 386.155 362.354 384.178 362.354H372.002C370.021 362.354 368.317 363.796 368.04 365.709L367.496 369.455C367.332 370.577 367.675 371.71 368.434 372.564C369.193 373.419 370.294 373.911 371.454 373.911ZM370.586 370.741C370.459 370.595 370.251 370.289 370.316 369.847L370.86 366.101C370.94 365.549 371.429 365.135 371.998 365.135H384.178C384.747 365.135 385.236 365.552 385.316 366.101L385.86 369.847C385.925 370.289 385.717 370.595 385.59 370.741C385.462 370.887 385.178 371.129 384.722 371.129H371.454C370.998 371.129 370.714 370.887 370.586 370.741ZM386.024 360.456C386.195 361.072 386.772 361.478 387.395 361.478C387.519 361.478 387.647 361.464 387.775 361.428C390.193 360.776 391.886 358.608 391.886 356.154C391.886 353.565 390 351.31 387.406 350.794C386.633 350.641 385.882 351.129 385.725 351.88C385.568 352.635 386.068 353.369 386.837 353.522C388.114 353.775 389.037 354.882 389.037 356.154C389.037 357.361 388.209 358.426 387.02 358.746C386.261 358.949 385.816 359.715 386.024 360.456ZM390.744 371.792H391.667C392.685 371.792 393.651 371.361 394.323 370.602C394.99 369.851 395.289 368.853 395.147 367.871L394.706 364.829C394.461 363.148 392.966 361.88 391.226 361.88H390.671C389.883 361.88 389.245 362.504 389.245 363.273C389.245 364.042 389.883 364.665 390.671 364.665H391.226C391.558 364.665 391.839 364.908 391.886 365.224L392.327 368.266C392.364 368.522 392.243 368.7 392.17 368.782C392.094 368.868 391.93 369.007 391.667 369.007H390.744C389.956 369.007 389.318 369.63 389.318 370.399C389.318 371.168 389.956 371.792 390.744 371.792ZM368.226 361.429C368.354 361.461 368.482 361.479 368.606 361.479C369.233 361.479 369.806 361.073 369.977 360.457C370.185 359.716 369.74 358.95 368.982 358.747C367.796 358.427 366.964 357.362 366.964 356.155C366.964 354.883 367.891 353.776 369.164 353.523C369.937 353.37 370.433 352.633 370.277 351.881C370.12 351.13 369.368 350.642 368.595 350.795C365.998 351.311 364.115 353.566 364.115 356.155C364.115 358.608 365.804 360.777 368.226 361.429ZM364.334 371.792H365.257C366.045 371.792 366.683 371.176 366.683 370.407C366.683 369.638 366.045 369.015 365.257 369.015H364.338C364.072 369.015 363.907 368.872 363.834 368.79C363.761 368.708 363.641 368.53 363.678 368.274L364.119 365.236C364.163 364.915 364.447 364.677 364.776 364.677H365.334C366.122 364.677 366.76 364.054 366.76 363.284C366.76 362.515 366.122 361.892 365.334 361.892H364.776C363.036 361.892 361.54 363.16 361.296 364.841L360.854 367.878C360.708 368.861 361.011 369.859 361.679 370.61C362.346 371.361 363.316 371.792 364.334 371.792Z" fill="url(#paint14_linear_1647_2515)"/>
<path fill-rule="evenodd" clip-rule="evenodd" d="M371.516 354.964C371.516 358.504 374.468 361.382 378.09 361.382C381.712 361.382 384.66 358.504 384.663 354.964C384.663 351.424 381.716 348.547 378.09 348.547C374.464 348.547 371.516 351.428 371.516 354.964ZM374.369 354.964C374.369 352.963 376.036 351.332 378.09 351.332C380.14 351.332 381.811 352.963 381.811 354.964C381.811 356.966 380.144 358.597 378.09 358.597C376.04 358.597 374.369 356.969 374.369 354.964ZM371.454 373.911H384.722C385.882 373.911 386.983 373.419 387.746 372.564C388.504 371.71 388.847 370.577 388.683 369.455L388.14 365.709C387.859 363.796 386.155 362.354 384.178 362.354H372.002C370.021 362.354 368.317 363.796 368.04 365.709L367.496 369.455C367.332 370.577 367.675 371.71 368.434 372.564C369.193 373.419 370.294 373.911 371.454 373.911ZM370.586 370.741C370.459 370.595 370.251 370.289 370.316 369.847L370.86 366.101C370.94 365.549 371.429 365.135 371.998 365.135H384.178C384.747 365.135 385.236 365.552 385.316 366.101L385.86 369.847C385.925 370.289 385.717 370.595 385.59 370.741C385.462 370.887 385.178 371.129 384.722 371.129H371.454C370.998 371.129 370.714 370.887 370.586 370.741ZM386.024 360.456C386.195 361.072 386.772 361.478 387.395 361.478C387.519 361.478 387.647 361.464 387.775 361.428C390.193 360.776 391.886 358.608 391.886 356.154C391.886 353.565 390 351.31 387.406 350.794C386.633 350.641 385.882 351.129 385.725 351.88C385.568 352.635 386.068 353.369 386.837 353.522C388.114 353.775 389.037 354.882 389.037 356.154C389.037 357.361 388.209 358.426 387.02 358.746C386.261 358.949 385.816 359.715 386.024 360.456ZM390.744 371.792H391.667C392.685 371.792 393.651 371.361 394.323 370.602C394.99 369.851 395.289 368.853 395.147 367.871L394.706 364.829C394.461 363.148 392.966 361.88 391.226 361.88H390.671C389.883 361.88 389.245 362.504 389.245 363.273C389.245 364.042 389.883 364.665 390.671 364.665H391.226C391.558 364.665 391.839 364.908 391.886 365.224L392.327 368.266C392.364 368.522 392.243 368.7 392.17 368.782C392.094 368.868 391.93 369.007 391.667 369.007H390.744C389.956 369.007 389.318 369.63 389.318 370.399C389.318 371.168 389.956 371.792 390.744 371.792ZM368.226 361.429C368.354 361.461 368.482 361.479 368.606 361.479C369.233 361.479 369.806 361.073 369.977 360.457C370.185 359.716 369.74 358.95 368.982 358.747C367.796 358.427 366.964 357.362 366.964 356.155C366.964 354.883 367.891 353.776 369.164 353.523C369.937 353.37 370.433 352.633 370.277 351.881C370.12 351.13 369.368 350.642 368.595 350.795C365.998 351.311 364.115 353.566 364.115 356.155C364.115 358.608 365.804 360.777 368.226 361.429ZM364.334 371.792H365.257C366.045 371.792 366.683 371.176 366.683 370.407C366.683 369.638 366.045 369.015 365.257 369.015H364.338C364.072 369.015 363.907 368.872 363.834 368.79C363.761 368.708 363.641 368.53 363.678 368.274L364.119 365.236C364.163 364.915 364.447 364.677 364.776 364.677H365.334C366.122 364.677 366.76 364.054 366.76 363.284C366.76 362.515 366.122 361.892 365.334 361.892H364.776C363.036 361.892 361.54 363.16 361.296 364.841L360.854 367.878C360.708 368.861 361.011 369.859 361.679 370.61C362.346 371.361 363.316 371.792 364.334 371.792Z" fill="url(#paint15_radial_1647_2515)"/>
<path d="M368.04 365.709L368.121 365.721C368.392 363.85 370.06 362.436 372.002 362.436H384.178C386.116 362.436 387.784 363.85 388.059 365.721L368.04 365.709ZM368.04 365.709L368.121 365.721L367.577 369.467L367.577 369.467C367.417 370.565 367.752 371.673 368.495 372.51C369.238 373.347 370.317 373.829 371.454 373.829H384.722C385.858 373.829 386.938 373.347 387.684 372.51C388.427 371.673 388.763 370.565 388.602 369.467L388.602 369.467L388.059 365.721L368.04 365.709ZM370.779 366.089L370.779 366.089L370.235 369.835C370.235 369.835 370.235 369.835 370.235 369.835C370.165 370.31 370.389 370.64 370.525 370.795C370.661 370.951 370.967 371.211 371.454 371.211H384.722C385.209 371.211 385.514 370.951 385.651 370.795C385.787 370.64 386.011 370.31 385.941 369.835C385.941 369.835 385.941 369.835 385.941 369.835L385.397 366.089L385.397 366.089C385.311 365.499 384.786 365.054 384.178 365.054H371.998C371.39 365.054 370.865 365.495 370.779 366.089ZM386.103 360.434L386.103 360.434C385.907 359.738 386.325 359.017 387.041 358.825L387.041 358.825C388.265 358.496 389.119 357.399 389.119 356.154C389.119 354.842 388.167 353.702 386.853 353.442C386.126 353.297 385.658 352.606 385.805 351.897C385.952 351.191 386.66 350.73 387.391 350.874C389.947 351.383 391.804 353.605 391.804 356.154C391.804 358.569 390.137 360.707 387.754 361.349L387.753 361.349C387.633 361.383 387.513 361.396 387.395 361.396C386.806 361.396 386.264 361.012 386.103 360.434ZM394.262 370.548L394.261 370.548C393.606 371.289 392.662 371.71 391.667 371.71H390.744C390 371.71 389.4 371.121 389.4 370.399C389.4 369.677 390 369.088 390.744 369.088H391.667C391.961 369.088 392.146 368.932 392.231 368.837L392.232 368.837C392.313 368.745 392.45 368.544 392.408 368.254L392.408 368.254L391.967 365.213L391.967 365.212C391.913 364.855 391.597 364.584 391.226 364.584H390.671C389.927 364.584 389.327 363.995 389.327 363.273C389.327 362.551 389.927 361.962 390.671 361.962H391.226C392.927 361.962 394.386 363.202 394.625 364.841L395.066 367.882C395.205 368.841 394.913 369.814 394.262 370.548ZM369.899 360.435L369.899 360.435C369.738 361.013 369.199 361.397 368.606 361.397C368.49 361.397 368.369 361.38 368.247 361.35C365.86 360.707 364.197 358.57 364.197 356.155C364.197 353.606 366.051 351.384 368.611 350.875C369.342 350.73 370.049 351.192 370.196 351.898C370.344 352.603 369.878 353.298 369.148 353.443L369.148 353.443C367.838 353.703 366.882 354.843 366.882 356.155C366.882 357.4 367.74 358.496 368.96 358.826L368.96 358.826C369.677 359.018 370.094 359.739 369.899 360.435ZM363.597 368.262L363.597 368.262C363.555 368.552 363.692 368.753 363.773 368.845C363.855 368.936 364.039 369.096 364.338 369.096H365.257C366.002 369.096 366.602 369.685 366.602 370.407C366.602 371.129 366.002 371.711 365.257 371.711H364.334C363.339 371.711 362.391 371.289 361.74 370.556C361.088 369.822 360.793 368.849 360.935 367.89L360.935 367.89L361.376 364.852C361.615 363.213 363.075 361.974 364.776 361.974H365.334C366.078 361.974 366.678 362.562 366.678 363.284C366.678 364.007 366.078 364.595 365.334 364.595H364.776C364.409 364.595 364.088 364.862 364.038 365.225C364.038 365.225 364.038 365.225 364.038 365.225L363.597 368.262ZM378.09 361.3C374.511 361.3 371.598 358.457 371.598 354.964C371.598 351.475 374.507 348.629 378.09 348.629C381.672 348.629 384.581 351.471 384.581 354.964C384.578 358.457 381.669 361.3 378.09 361.3ZM378.09 351.25C375.993 351.25 374.287 352.916 374.287 354.964C374.287 357.016 375.996 358.679 378.09 358.679C380.187 358.679 381.892 357.013 381.892 354.964C381.892 352.916 380.183 351.25 378.09 351.25Z" stroke="#EAE6FF" stroke-width="0.163636"/>
</g>
<circle cx="105" cy="88" r="36" fill="white"/>
<circle cx="105" cy="88" r="36" fill="#0555FF" fill-opacity="0.15"/>
<g filter="url(#filter9_d_1647_2515)">
<path d="M115.619 92.6488C116.704 91.1783 117.684 89.6415 118.551 88.0487C115.671 81.903 111.277 79.0616 105 79.0616C103.766 79.0535 102.535 79.1775 101.331 79.4312L115.619 92.6481L115.619 92.6488ZM98.7229 77.0166C100.742 76.3627 102.866 76.04 105.001 76.0625C113.133 76.0625 118.86 80.1037 122.182 88.186C120.604 91.1117 119.201 93.3247 117.974 94.8249L120.762 97.404C120.837 97.4721 120.896 97.5539 120.936 97.6443C120.976 97.7346 120.996 97.8317 120.995 97.9296C120.994 98.0275 120.971 98.1241 120.929 98.2136C120.887 98.303 120.825 98.3834 120.749 98.4499L119.546 99.5127C119.388 99.6502 119.18 99.7255 118.965 99.7232C118.749 99.7208 118.543 99.6409 118.389 99.5001L109.169 90.9728C108.271 91.5353 107.216 91.834 106.137 91.8305C103.219 91.8305 100.852 89.7066 100.852 87.0862C100.853 86.0567 101.222 85.0575 101.901 84.2491L94.3125 77.2297C94.2377 77.1615 94.1785 77.0797 94.1385 76.9894C94.0985 76.899 94.0785 76.8019 94.0798 76.704C94.0811 76.6061 94.1037 76.5095 94.146 76.4201C94.1884 76.3306 94.2498 76.2503 94.3264 76.1839L95.5292 75.121C95.687 74.9834 95.895 74.908 96.1103 74.9102C96.3257 74.9124 96.5318 74.9922 96.6864 75.1329L98.7229 77.0166ZM91.4455 88.2897C94.38 94.4317 98.7784 97.2725 104.999 97.2725C106.761 97.2949 108.514 97.025 110.176 96.4752L112.65 98.7717C110.25 99.7996 107.636 100.312 104.999 100.272C96.9354 100.272 91.2085 96.2425 87.8182 88.1842C89.8331 84.3243 91.5343 81.7491 92.9218 80.4585L95.2364 82.6086C94.2978 83.5124 92.999 85.4323 91.4428 88.2893L91.4455 88.2897Z" fill="url(#paint16_linear_1647_2515)"/>
</g>
<circle cx="377" cy="88" r="36" fill="white"/>
<circle cx="377" cy="88" r="36" fill="#FC790D" fill-opacity="0.15"/>
<g filter="url(#filter10_d_1647_2515)">
<path fill-rule="evenodd" clip-rule="evenodd" d="M382.013 77.4486C382.267 78.1252 382.383 78.8464 382.351 79.5688V83.2038H371.649V79.5688C371.617 78.8464 371.733 78.1252 371.987 77.4486C372.242 76.772 372.631 76.1539 373.131 75.6317C373.631 75.1095 374.232 74.6939 374.897 74.41C375.562 74.1261 376.277 73.9797 377 73.9797C377.723 73.9797 378.438 74.1261 379.103 74.41C379.768 74.6939 380.369 75.1095 380.869 75.6317C381.369 76.1539 381.758 76.772 382.013 77.4486ZM365.759 100.855V85.8822H388.231V100.855H365.759ZM369.369 76.2788C369.01 77.336 368.874 78.4564 368.971 79.5688V83.2038H365.225C364.66 83.2064 364.119 83.4322 363.719 83.8319C363.319 84.2317 363.094 84.7731 363.091 85.3385V101.399C363.091 101.966 363.315 102.51 363.715 102.912C364.115 103.314 364.658 103.541 365.225 103.544H388.765C389.324 103.541 389.86 103.321 390.261 102.931C390.661 102.54 390.893 102.008 390.909 101.449V85.3385C390.904 84.7722 390.676 84.2308 390.275 83.8313C389.873 83.4318 389.331 83.2064 388.765 83.2038H385.019V79.5688C385.116 78.4564 384.98 77.336 384.621 76.2788C384.261 75.2217 383.686 74.2508 382.932 73.4278C382.177 72.6048 381.26 71.9476 380.238 71.4981C379.216 71.0485 378.111 70.8164 376.995 70.8164C375.878 70.8164 374.774 71.0485 373.752 71.4981C372.73 71.9476 371.813 72.6048 371.058 73.4278C370.304 74.2508 369.729 75.2217 369.369 76.2788ZM373.285 94.2718C373.776 95.0856 374.545 95.7041 375.458 96.0179V97.8478C375.458 98.1316 375.574 98.4037 375.779 98.6044C375.985 98.8051 376.264 98.9178 376.555 98.9178H377.098C377.388 98.9151 377.664 98.8013 377.868 98.6009C378.071 98.4005 378.185 98.1299 378.185 97.8478V96.0179C379.098 95.7041 379.868 95.0856 380.358 94.2718C380.848 93.458 381.028 92.5014 380.864 91.571C380.701 90.6407 380.206 89.7967 379.466 89.1881C378.726 88.5796 377.789 88.2458 376.822 88.2458C375.854 88.2458 374.917 88.5796 374.177 89.1881C373.438 89.7967 372.942 90.6407 372.779 91.571C372.616 92.5014 372.795 93.458 373.285 94.2718ZM377.583 93.3708C377.358 93.5188 377.093 93.5979 376.822 93.598V93.628C376.643 93.6307 376.465 93.5984 376.299 93.5332C376.133 93.4679 375.982 93.371 375.855 93.248C375.728 93.125 375.627 92.9785 375.559 92.8171C375.491 92.6557 375.457 92.4826 375.458 92.3081C375.45 92.0435 375.523 91.7825 375.668 91.5586C375.812 91.3347 376.022 91.158 376.271 91.0512C376.519 90.9444 376.794 90.9123 377.062 90.959C377.329 91.0057 377.576 91.1291 377.77 91.3134C377.965 91.4977 378.099 91.7345 378.155 91.9936C378.211 92.2526 378.187 92.522 378.085 92.7674C377.983 93.0127 377.808 93.2228 377.583 93.3708Z" fill="url(#paint17_radial_1647_2515)"/>
</g>
<defs>
<filter id="filter0_d_1647_2515" x="152" y="144" width="179.79" height="179.789" filterUnits="userSpaceOnUse" color-interpolation-filters="sRGB">
<feFlood flood-opacity="0" result="BackgroundImageFix"/>
<feColorMatrix in="SourceAlpha" type="matrix" values="0 0 0 0 0 0 0 0 0 0 0 0 0 0 0 0 0 0 127 0" result="hardAlpha"/>
<feOffset dy="10"/>
<feGaussianBlur stdDeviation="10"/>
<feComposite in2="hardAlpha" operator="out"/>
<feColorMatrix type="matrix" values="0 0 0 0 0.164706 0 0 0 0 0.435294 0 0 0 0 1 0 0 0 0.15 0"/>
<feBlend mode="normal" in2="BackgroundImageFix" result="effect1_dropShadow_1647_2515"/>
<feBlend mode="normal" in="SourceGraphic" in2="effect1_dropShadow_1647_2515" result="shape"/>
</filter>
<filter id="filter1_d_1647_2515" x="141.5" y="143.5" width="201" height="201" filterUnits="userSpaceOnUse" color-interpolation-filters="sRGB">
<feFlood flood-opacity="0" result="BackgroundImageFix"/>
<feColorMatrix in="SourceAlpha" type="matrix" values="0 0 0 0 0 0 0 0 0 0 0 0 0 0 0 0 0 0 127 0" result="hardAlpha"/>
<feMorphology radius="20" operator="erode" in="SourceAlpha" result="effect1_dropShadow_1647_2515"/>
<feOffset dy="20"/>
<feGaussianBlur stdDeviation="30"/>
<feColorMatrix type="matrix" values="0 0 0 0 0.0196078 0 0 0 0 0.333333 0 0 0 0 1 0 0 0 0.05 0"/>
<feBlend mode="normal" in2="BackgroundImageFix" result="effect1_dropShadow_1647_2515"/>
<feBlend mode="normal" in="SourceGraphic" in2="effect1_dropShadow_1647_2515" result="shape"/>
</filter>
<filter id="filter2_d_1647_2515" x="186.812" y="178.703" width="110.376" height="110.376" filterUnits="userSpaceOnUse" color-interpolation-filters="sRGB">
<feFlood flood-opacity="0" result="BackgroundImageFix"/>
<feColorMatrix in="SourceAlpha" type="matrix" values="0 0 0 0 0 0 0 0 0 0 0 0 0 0 0 0 0 0 127 0" result="hardAlpha"/>
<feOffset dy="9.89083"/>
<feGaussianBlur stdDeviation="6.59389"/>
<feColorMatrix type="matrix" values="0 0 0 0 0.180392 0 0 0 0 0.843137 0 0 0 0 0.301961 0 0 0 0.1 0"/>
<feBlend mode="normal" in2="BackgroundImageFix" result="effect1_dropShadow_1647_2515"/>
<feBlend mode="normal" in="SourceGraphic" in2="effect1_dropShadow_1647_2515" result="shape"/>
</filter>
<filter id="filter3_d_1647_2515" x="66" y="77" width="35" height="35" filterUnits="userSpaceOnUse" color-interpolation-filters="sRGB">
<feFlood flood-opacity="0" result="BackgroundImageFix"/>
<feColorMatrix in="SourceAlpha" type="matrix" values="0 0 0 0 0 0 0 0 0 0 0 0 0 0 0 0 0 0 127 0" result="hardAlpha"/>
<feOffset dy="10"/>
<feGaussianBlur stdDeviation="5"/>
<feColorMatrix type="matrix" values="0 0 0 0 0.396078 0 0 0 0 0.278431 0 0 0 0 1 0 0 0 0.1 0"/>
<feBlend mode="normal" in2="BackgroundImageFix" result="effect1_dropShadow_1647_2515"/>
<feBlend mode="normal" in="SourceGraphic" in2="effect1_dropShadow_1647_2515" result="shape"/>
</filter>
<filter id="filter4_d_1647_2515" x="89" y="216" width="36" height="36" filterUnits="userSpaceOnUse" color-interpolation-filters="sRGB">
<feFlood flood-opacity="0" result="BackgroundImageFix"/>
<feColorMatrix in="SourceAlpha" type="matrix" values="0 0 0 0 0 0 0 0 0 0 0 0 0 0 0 0 0 0 127 0" result="hardAlpha"/>
<feOffset dy="10"/>
<feGaussianBlur stdDeviation="5"/>
<feComposite in2="hardAlpha" operator="out"/>
<feColorMatrix type="matrix" values="0 0 0 0 1 0 0 0 0 0.658824 0 0 0 0 0.258824 0 0 0 0.1 0"/>
<feBlend mode="normal" in2="BackgroundImageFix" result="effect1_dropShadow_1647_2515"/>
<feBlend mode="normal" in="SourceGraphic" in2="effect1_dropShadow_1647_2515" result="shape"/>
</filter>
<filter id="filter5_d_1647_2515" x="286" y="33" width="32" height="32" filterUnits="userSpaceOnUse" color-interpolation-filters="sRGB">
<feFlood flood-opacity="0" result="BackgroundImageFix"/>
<feColorMatrix in="SourceAlpha" type="matrix" values="0 0 0 0 0 0 0 0 0 0 0 0 0 0 0 0 0 0 127 0" result="hardAlpha"/>
<feOffset dy="10"/>
<feGaussianBlur stdDeviation="5"/>
<feComposite in2="hardAlpha" operator="out"/>
<feColorMatrix type="matrix" values="0 0 0 0 0.164706 0 0 0 0 0.435294 0 0 0 0 1 0 0 0 0.1 0"/>
<feBlend mode="normal" in2="BackgroundImageFix" result="effect1_dropShadow_1647_2515"/>
<feBlend mode="normal" in="SourceGraphic" in2="effect1_dropShadow_1647_2515" result="shape"/>
</filter>
<filter id="filter6_d_1647_2515" x="83.0909" y="343.637" width="45.8182" height="50.7269" filterUnits="userSpaceOnUse" color-interpolation-filters="sRGB">
<feFlood flood-opacity="0" result="BackgroundImageFix"/>
<feColorMatrix in="SourceAlpha" type="matrix" values="0 0 0 0 0 0 0 0 0 0 0 0 0 0 0 0 0 0 127 0" result="hardAlpha"/>
<feOffset dy="8.18182"/>
<feGaussianBlur stdDeviation="4.09091"/>
<feComposite in2="hardAlpha" operator="out"/>
<feColorMatrix type="matrix" values="0 0 0 0 0.0588235 0 0 0 0 0.909804 0 0 0 0 0.584314 0 0 0 0.1 0"/>
<feBlend mode="normal" in2="BackgroundImageFix" result="effect1_dropShadow_1647_2515"/>
<feBlend mode="normal" in="SourceGraphic" in2="effect1_dropShadow_1647_2515" result="shape"/>
</filter>
<filter id="filter7_d_1647_2515" x="277" y="358" width="35" height="45" filterUnits="userSpaceOnUse" color-interpolation-filters="sRGB">
<feFlood flood-opacity="0" result="BackgroundImageFix"/>
<feColorMatrix in="SourceAlpha" type="matrix" values="0 0 0 0 0 0 0 0 0 0 0 0 0 0 0 0 0 0 127 0" result="hardAlpha"/>
<feMorphology radius="10" operator="erode" in="SourceAlpha" result="effect1_dropShadow_1647_2515"/>
<feOffset dy="20"/>
<feGaussianBlur stdDeviation="10"/>
<feColorMatrix type="matrix" values="0 0 0 0 0.0352941 0 0 0 0 0.866667 0 0 0 0 0.545098 0 0 0 0.2 0"/>
<feBlend mode="normal" in2="BackgroundImageFix" result="effect1_dropShadow_1647_2515"/>
<feBlend mode="normal" in="SourceGraphic" in2="effect1_dropShadow_1647_2515" result="shape"/>
</filter>
<filter id="filter8_d_1647_2515" x="352.636" y="348.547" width="50.7273" height="41.7269" filterUnits="userSpaceOnUse" color-interpolation-filters="sRGB">
<feFlood flood-opacity="0" result="BackgroundImageFix"/>
<feColorMatrix in="SourceAlpha" type="matrix" values="0 0 0 0 0 0 0 0 0 0 0 0 0 0 0 0 0 0 127 0" result="hardAlpha"/>
<feOffset dy="8.18182"/>
<feGaussianBlur stdDeviation="4.09091"/>
<feColorMatrix type="matrix" values="0 0 0 0 0.364706 0 0 0 0 0.239216 0 0 0 0 1 0 0 0 0.1 0"/>
<feBlend mode="normal" in2="BackgroundImageFix" result="effect1_dropShadow_1647_2515"/>
<feBlend mode="normal" in="SourceGraphic" in2="effect1_dropShadow_1647_2515" result="shape"/>
</filter>
<filter id="filter9_d_1647_2515" x="81.124" y="74.9102" width="47.7521" height="38.7517" filterUnits="userSpaceOnUse" color-interpolation-filters="sRGB">
<feFlood flood-opacity="0" result="BackgroundImageFix"/>
<feColorMatrix in="SourceAlpha" type="matrix" values="0 0 0 0 0 0 0 0 0 0 0 0 0 0 0 0 0 0 127 0" result="hardAlpha"/>
<feOffset dy="6.69421"/>
<feGaussianBlur stdDeviation="3.34711"/>
<feComposite in2="hardAlpha" operator="out"/>
<feColorMatrix type="matrix" values="0 0 0 0 0.0666667 0 0 0 0 0.368627 0 0 0 0 1 0 0 0 0.1 0"/>
<feBlend mode="normal" in2="BackgroundImageFix" result="effect1_dropShadow_1647_2515"/>
<feBlend mode="normal" in="SourceGraphic" in2="effect1_dropShadow_1647_2515" result="shape"/>
</filter>
<filter id="filter10_d_1647_2515" x="354.909" y="70.8164" width="44.1818" height="49.0902" filterUnits="userSpaceOnUse" color-interpolation-filters="sRGB">
<feFlood flood-opacity="0" result="BackgroundImageFix"/>
<feColorMatrix in="SourceAlpha" type="matrix" values="0 0 0 0 0 0 0 0 0 0 0 0 0 0 0 0 0 0 127 0" result="hardAlpha"/>
<feOffset dy="8.18182"/>
<feGaussianBlur stdDeviation="4.09091"/>
<feComposite in2="hardAlpha" operator="out"/>
<feColorMatrix type="matrix" values="0 0 0 0 0.992157 0 0 0 0 0.490196 0 0 0 0 0.0627451 0 0 0 0.1 0"/>
<feBlend mode="normal" in2="BackgroundImageFix" result="effect1_dropShadow_1647_2515"/>
<feBlend mode="normal" in="SourceGraphic" in2="effect1_dropShadow_1647_2515" result="shape"/>
</filter>
<linearGradient id="paint0_linear_1647_2515" x1="157.063" y1="90.3021" x2="287.221" y2="362.81" gradientUnits="userSpaceOnUse">
<stop stop-color="#0A59FF"/>
<stop offset="0.255208" stop-color="#0A59FF"/>
<stop offset="0.479167" stop-color="#0B59FF" stop-opacity="0.05"/>
<stop offset="1" stop-color="#0C5AFF"/>
</linearGradient>
<linearGradient id="paint1_linear_1647_2515" x1="242" y1="32" x2="242" y2="416" gradientUnits="userSpaceOnUse">
<stop stop-color="#F4F7FF"/>
<stop offset="1" stop-color="#E6EEFF" stop-opacity="0"/>
</linearGradient>
<radialGradient id="paint2_radial_1647_2515" cx="0" cy="0" r="1" gradientUnits="userSpaceOnUse" gradientTransform="translate(242 224) rotate(90) scale(219)">
<stop stop-color="#E6EEFF"/>
<stop offset="1" stop-color="#E6EEFF" stop-opacity="0"/>
</radialGradient>
<linearGradient id="paint3_linear_1647_2515" x1="242" y1="134" x2="242" y2="314" gradientUnits="userSpaceOnUse">
<stop stop-color="white"/>
<stop offset="1" stop-color="#E3ECFF"/>
</linearGradient>
<linearGradient id="paint4_linear_1647_2515" x1="208.827" y1="154" x2="269.134" y2="291.064" gradientUnits="userSpaceOnUse">
<stop stop-color="#0555FF"/>
<stop offset="1" stop-color="#4380FF"/>
</linearGradient>
<linearGradient id="paint5_linear_1647_2515" x1="203.702" y1="176.766" x2="284.128" y2="266.128" gradientUnits="userSpaceOnUse">
<stop stop-color="white"/>
<stop offset="1" stop-color="white" stop-opacity="0.47"/>
</linearGradient>
<linearGradient id="paint6_linear_1647_2515" x1="212.833" y1="189.881" x2="280.228" y2="238.093" gradientUnits="userSpaceOnUse">
<stop stop-color="#D0E0FF" stop-opacity="0"/>
<stop offset="1" stop-color="#7DA7FF"/>
</linearGradient>
<linearGradient id="paint7_linear_1647_2515" x1="219.778" y1="223.5" x2="264.222" y2="223.5" gradientUnits="userSpaceOnUse">
<stop stop-color="white"/>
<stop offset="1" stop-color="white" stop-opacity="0.6"/>
</linearGradient>
<linearGradient id="paint8_linear_1647_2515" x1="167.281" y1="103.526" x2="284.079" y2="348.061" gradientUnits="userSpaceOnUse">
<stop stop-color="#0A59FF"/>
<stop offset="0.255208" stop-color="#0A59FF"/>
<stop offset="0.479167" stop-color="#0B59FF" stop-opacity="0.05"/>
<stop offset="1" stop-color="#0C5AFF"/>
</linearGradient>
<linearGradient id="paint9_linear_1647_2515" x1="72.7202" y1="77" x2="85.8424" y2="94.5994" gradientUnits="userSpaceOnUse">
<stop stop-color="#00F395"/>
<stop offset="1" stop-color="#09DD8B"/>
</linearGradient>
<linearGradient id="paint10_linear_1647_2515" x1="134" y1="54" x2="299.5" y2="400.5" gradientUnits="userSpaceOnUse">
<stop stop-color="#0A59FF"/>
<stop offset="0.255208" stop-color="#0A59FF"/>
<stop offset="0.479167" stop-color="#0B59FF" stop-opacity="0.05"/>
<stop offset="1" stop-color="#0C5AFF"/>
</linearGradient>
<linearGradient id="paint11_linear_1647_2515" x1="99.0323" y1="343.637" x2="123.78" y2="372.428" gradientUnits="userSpaceOnUse">
<stop stop-color="#0ADE8C"/>
<stop offset="1" stop-color="#14F29D"/>
</linearGradient>
<linearGradient id="paint12_linear_1647_2515" x1="287.425" y1="358.375" x2="303.044" y2="368.591" gradientUnits="userSpaceOnUse">
<stop stop-color="#07D988"/>
<stop offset="1" stop-color="#15F59F"/>
</linearGradient>
<radialGradient id="paint13_radial_1647_2515" cx="0" cy="0" r="1" gradientUnits="userSpaceOnUse" gradientTransform="translate(462.437 147.438) rotate(-43.4089) scale(15.916 17.5778)">
<stop stop-color="#FD8011"/>
<stop offset="1" stop-color="#FD7F11" stop-opacity="0"/>
</radialGradient>
<linearGradient id="paint14_linear_1647_2515" x1="353.304" y1="348.547" x2="372.863" y2="384.086" gradientUnits="userSpaceOnUse">
<stop stop-color="#00F395"/>
<stop offset="1" stop-color="#09DD8B"/>
</linearGradient>
<radialGradient id="paint15_radial_1647_2515" cx="0" cy="0" r="1" gradientUnits="userSpaceOnUse" gradientTransform="translate(363.773 350.661) rotate(49.323) scale(29.0642 35.0784)">
<stop stop-color="#5432FF"/>
<stop offset="1" stop-color="#7256FF"/>
</radialGradient>
<linearGradient id="paint16_linear_1647_2515" x1="87.8182" y1="74.9102" x2="116.106" y2="100.524" gradientUnits="userSpaceOnUse">
<stop stop-color="#115EFF"/>
<stop offset="1" stop-color="#4280FF"/>
</linearGradient>
<radialGradient id="paint17_radial_1647_2515" cx="0" cy="0" r="1" gradientUnits="userSpaceOnUse" gradientTransform="translate(367.968 70.8164) rotate(60.7144) scale(37.6247 165.717)">
<stop stop-color="#FC790D"/>
<stop offset="1" stop-color="#FF9A23"/>
</radialGradient>
</defs>
</svg>
