<svg width="24" height="24" viewBox="0 0 24 24" fill="none" xmlns="http://www.w3.org/2000/svg">
<path fill-rule="evenodd" clip-rule="evenodd" d="M10.7985 9.36751C10.7985 8.89982 11.212 8.48633 11.6796 8.48633C12.1473 8.48633 12.5608 8.89982 12.5608 9.36751V11.0381H17.8851C18.291 11.0381 18.6196 11.3667 18.6196 11.7727V15.7773H16.8573V12.6955H6.39729V15.353H4.63184V11.7727C4.63184 11.3667 4.96045 11.0381 5.36642 11.0381H10.7985V9.36751Z" fill="#364256"/>
<path fill-rule="evenodd" clip-rule="evenodd" d="M10.7985 9.36751C10.7985 8.89982 11.212 8.48633 11.6796 8.48633C12.1473 8.48633 12.5608 8.89982 12.5608 9.36751V11.0381H17.8851C18.291 11.0381 18.6196 11.3667 18.6196 11.7727V15.7773H16.8573V12.6955H6.39729V15.353H4.63184V11.7727C4.63184 11.3667 4.96045 11.0381 5.36642 11.0381H10.7985V9.36751Z" fill="#54657E"/>
<path d="M8.67206 2H15.0055C15.5163 2 15.9314 2.41513 15.9314 2.92594V8.19605C15.9314 8.70686 15.5163 9.12198 15.0055 9.12198H8.67206C8.16125 9.12198 7.74613 8.70686 7.74613 8.19605V2.92594C7.74613 2.41513 8.16125 2 8.67206 2ZM3.13497 14.8782H8.85108C9.53318 14.8782 10.0857 15.4307 10.0857 16.1128V20.7656C10.0857 21.4477 9.53318 22.0002 8.85108 22.0002H3.13497C2.45287 22.0002 1.90039 21.4477 1.90039 20.7656V16.1128C1.90039 15.4307 2.45287 14.8782 3.13497 14.8782ZM14.9345 14.8782H20.6506C21.3327 14.8782 21.8852 15.4307 21.8852 16.1128V20.7656C21.8852 21.4477 21.3327 22.0002 20.6506 22.0002H14.9345C14.2524 22.0002 13.6999 21.4477 13.6999 20.7656V16.1128C13.6999 15.4307 14.2524 14.8782 14.9345 14.8782Z" fill="#364256"/>
<path d="M8.67206 2H15.0055C15.5163 2 15.9314 2.41513 15.9314 2.92594V8.19605C15.9314 8.70686 15.5163 9.12198 15.0055 9.12198H8.67206C8.16125 9.12198 7.74613 8.70686 7.74613 8.19605V2.92594C7.74613 2.41513 8.16125 2 8.67206 2ZM3.13497 14.8782H8.85108C9.53318 14.8782 10.0857 15.4307 10.0857 16.1128V20.7656C10.0857 21.4477 9.53318 22.0002 8.85108 22.0002H3.13497C2.45287 22.0002 1.90039 21.4477 1.90039 20.7656V16.1128C1.90039 15.4307 2.45287 14.8782 3.13497 14.8782ZM14.9345 14.8782H20.6506C21.3327 14.8782 21.8852 15.4307 21.8852 16.1128V20.7656C21.8852 21.4477 21.3327 22.0002 20.6506 22.0002H14.9345C14.2524 22.0002 13.6999 21.4477 13.6999 20.7656V16.1128C13.6999 15.4307 14.2524 14.8782 14.9345 14.8782Z" fill="#54657E"/>
</svg>
