<svg width="24" height="24" viewBox="0 0 24 24" fill="none" xmlns="http://www.w3.org/2000/svg">
<path d="M19.873 3.93333H18.4878C18.1139 3.93333 17.8077 4.24268 17.8077 4.62845C17.8077 5.01059 18.1104 5.32357 18.4878 5.32357H18.5021V5.33813H19.873C20.6065 5.33813 21.3009 5.62564 21.8243 6.16063C22.3478 6.69562 22.6291 7.40165 22.6291 8.155C22.6291 8.90472 22.3478 9.61439 21.8243 10.1494C21.3009 10.6807 20.6101 10.9682 19.873 10.9682V9.56708L17.8077 11.6779L19.873 13.7888V12.3876C22.1484 12.3876 24 10.4951 24 8.16956C23.9858 5.81125 22.1484 3.93333 19.873 3.93333ZM6.19229 19.3643L4.127 17.2534V18.6546C3.39347 18.6546 2.69911 18.3671 2.17567 17.8321C1.65223 17.2971 1.37092 16.5911 1.37092 15.8377C1.37092 15.088 1.65223 14.3783 2.17567 13.8433C2.69911 13.3084 3.38991 13.0208 4.127 13.0208H5.49792C5.61543 13.0208 5.73294 12.9881 5.8362 12.9262C6.04629 12.8025 6.17448 12.5732 6.17448 12.3257C6.17448 12.0782 6.04629 11.849 5.8362 11.7252C5.73294 11.6634 5.61543 11.6306 5.49792 11.6306V11.616H4.127C1.85163 11.6306 0 13.5231 0 15.8486C0 18.1742 1.85163 20.0667 4.127 20.0667V21.4678L6.19229 19.3643ZM14.165 1H10.0237C8.32878 1 6.94362 2.41572 6.94362 4.14806C6.94362 5.8804 8.32878 7.29611 10.0237 7.29611H14.165C15.8742 7.29611 17.2451 5.8804 17.2451 4.14806C17.2451 2.41572 15.8599 1 14.165 1ZM14.165 8.75914H10.0237C8.32878 8.75914 6.94362 10.1749 6.94362 11.9072C6.94362 13.6395 8.32878 15.0553 10.0237 15.0553H14.165C15.8742 15.0553 17.2451 13.6395 17.2451 11.9072C17.2451 10.1749 15.8599 8.75914 14.165 8.75914ZM14.165 16.7039H10.0237C8.32878 16.7039 6.94362 18.1196 6.94362 19.8519C6.94362 21.5843 8.32878 23 10.0237 23H14.165C15.8742 23 17.2451 21.5843 17.2451 19.8519C17.2451 18.1196 15.8599 16.7039 14.165 16.7039Z" fill="#54657E"/>
</svg>
