<svg width="24" height="24" viewBox="0 0 24 24" fill="none" xmlns="http://www.w3.org/2000/svg">
<path d="M13.1111 18.6667H6.44444C6.14976 18.6667 5.86714 18.5496 5.65877 18.3412C5.4504 18.1329 5.33333 17.8502 5.33333 17.5556V14.2222C5.33333 13.9275 5.4504 13.6449 5.65877 13.4365C5.86714 13.2282 6.14976 13.1111 6.44444 13.1111C6.73913 13.1111 7.02175 13.2282 7.23012 13.4365C7.43849 13.6449 7.55556 13.9275 7.55556 14.2222V16.4444H13.1111V14.2222C13.1111 13.9275 13.2282 13.6449 13.4365 13.4365C13.6449 13.2282 13.9275 13.1111 14.2222 13.1111H20.8889C21.1836 13.1111 21.4662 13.2282 21.6746 13.4365C21.8829 13.6449 22 13.9275 22 14.2222V20.8889C22 21.1836 21.8829 21.4662 21.6746 21.6746C21.4662 21.8829 21.1836 22 20.8889 22H14.2222C13.9275 22 13.6449 21.8829 13.4365 21.6746C13.2282 21.4662 13.1111 21.1836 13.1111 20.8889V18.6667ZM10.8889 7.55556V9.77778C10.8889 10.0725 10.7718 10.3551 10.5635 10.5635C10.3551 10.7718 10.0725 10.8889 9.77778 10.8889H3.11111C2.81643 10.8889 2.53381 10.7718 2.32544 10.5635C2.11706 10.3551 2 10.0725 2 9.77778V3.11111C2 2.81643 2.11706 2.53381 2.32544 2.32544C2.53381 2.11706 2.81643 2 3.11111 2H9.77778C10.0725 2 10.3551 2.11706 10.5635 2.32544C10.7718 2.53381 10.8889 2.81643 10.8889 3.11111V5.33333H17.5556C17.8502 5.33333 18.1329 5.4504 18.3412 5.65877C18.5496 5.86714 18.6667 6.14976 18.6667 6.44444V9.77778C18.6667 10.0725 18.5496 10.3551 18.3412 10.5635C18.1329 10.7718 17.8502 10.8889 17.5556 10.8889C17.2609 10.8889 16.9783 10.7718 16.7699 10.5635C16.5615 10.3551 16.4444 10.0725 16.4444 9.77778V7.55556H10.8889Z" fill="#54657E"/>
</svg>
