<svg width="83" height="75" viewBox="0 0 83 75" fill="none" xmlns="http://www.w3.org/2000/svg">
    <path d="M18.704 74.056C12.6027 74.056 7.968 72.1787 4.8 68.424C1.632 64.6693 0.0480003 59.6533 0.0480003 53.376V21.784C0.0480003 15.272 1.57333 10.168 4.624 6.472C7.73333 2.77599 12.4267 0.927994 18.704 0.927994C24.864 0.927994 29.4693 2.80533 32.52 6.56C35.6293 10.256 37.184 15.3307 37.184 21.784V53.376C37.184 59.6533 35.6 64.6693 32.432 68.424C29.264 72.1787 24.688 74.056 18.704 74.056ZM18.704 63.584C22.8107 63.584 24.864 60.1227 24.864 53.2V21.96C24.864 18.8507 24.4533 16.328 23.632 14.392C22.8107 12.3973 21.168 11.4 18.704 11.4C16.1813 11.4 14.5093 12.368 13.688 14.304C12.8667 16.24 12.456 18.792 12.456 21.96V53.2C12.456 60.1227 14.5387 63.584 18.704 63.584ZM63.7311 74.056C51.2938 74.056 45.0751 67.2507 45.0751 53.64V51.176H57.2191V53.288C57.2778 56.9253 57.7765 59.5947 58.7151 61.296C59.6538 62.9973 61.3551 63.848 63.8191 63.848C66.2831 63.848 67.9551 62.9387 68.8351 61.12C69.7738 59.3013 70.2431 56.4853 70.2431 52.672C70.2431 48.8 69.5978 45.8667 68.3071 43.872C67.0751 41.8773 64.9338 40.792 61.8831 40.616H59.8591V30.848H61.6191C64.7871 30.7893 67.0165 29.9387 68.3071 28.296C69.5978 26.6533 70.2431 23.9547 70.2431 20.2C70.2431 16.9733 69.7445 14.568 68.7471 12.984C67.8085 11.4 66.1071 10.608 63.6431 10.608C61.2378 10.608 59.5658 11.4587 58.6271 13.16C57.7471 14.8613 57.2778 17.384 57.2191 20.728V23.28H45.0751V19.936C45.0751 13.8347 46.6591 9.14133 49.8271 5.856C53.0538 2.512 57.6591 0.839995 63.6431 0.839995C69.6858 0.839995 74.2911 2.48266 77.4591 5.76799C80.6858 8.99466 82.2991 13.6293 82.2991 19.672C82.2991 23.8373 81.4191 27.2987 79.6591 30.056C77.9578 32.7547 75.6991 34.5147 72.8831 35.336C75.8165 36.3333 78.1045 38.24 79.7471 41.056C81.4485 43.8133 82.2991 47.5973 82.2991 52.408C82.2991 59.2133 80.8031 64.5227 77.8111 68.336C74.8191 72.1493 70.1258 74.056 63.7311 74.056Z" fill="url(#paint0_linear_432_2641)" fill-opacity="0.2" />
    <defs>
        <linearGradient id="paint0_linear_432_2641" x1="44.2019" y1="-32" x2="44.2019" y2="98" gradientUnits="userSpaceOnUse">
            <stop stop-color="#364256" />
            <stop offset="1" stop-color="#364256" stop-opacity="0" />
        </linearGradient>
    </defs>
</svg>
    