<svg width="83" height="75" viewBox="0 0 83 75" fill="none" xmlns="http://www.w3.org/2000/svg">
    <path d="M18.704 74.056C12.6027 74.056 7.968 72.1787 4.8 68.424C1.632 64.6693 0.0480003 59.6533 0.0480003 53.376V21.784C0.0480003 15.272 1.57333 10.168 4.624 6.472C7.73333 2.77599 12.4267 0.927994 18.704 0.927994C24.864 0.927994 29.4693 2.80533 32.52 6.56C35.6293 10.256 37.184 15.3307 37.184 21.784V53.376C37.184 59.6533 35.6 64.6693 32.432 68.424C29.264 72.1787 24.688 74.056 18.704 74.056ZM18.704 63.584C22.8107 63.584 24.864 60.1227 24.864 53.2V21.96C24.864 18.8507 24.4533 16.328 23.632 14.392C22.8107 12.3973 21.168 11.4 18.704 11.4C16.1813 11.4 14.5093 12.368 13.688 14.304C12.8667 16.24 12.456 18.792 12.456 21.96V53.2C12.456 60.1227 14.5387 63.584 18.704 63.584ZM63.8191 74.056C57.0725 74.056 52.3791 72.2667 49.7391 68.688C47.1578 65.0507 45.8671 59.6827 45.8671 52.584H57.7471C57.7471 56.632 58.1871 59.6827 59.0671 61.736C59.9471 63.7893 61.6778 64.816 64.2591 64.816C66.1951 64.816 67.6325 64.2 68.5711 62.968C69.5098 61.6773 70.0965 59.976 70.3311 57.864C70.6245 55.6933 70.7711 52.7013 70.7711 48.888C70.7711 44.1947 70.3311 40.7333 69.4511 38.504C68.5711 36.2747 66.7525 35.16 63.9951 35.16C62.3525 35.16 60.9445 35.7173 59.7711 36.832C58.6565 37.9467 57.8351 39.472 57.3071 41.408H46.8351L47.5391 1.71999H79.5711V12.632H57.7471L57.0431 29.792C58.0405 28.6773 59.4778 27.7973 61.3551 27.152C63.2325 26.448 65.2858 26.096 67.5151 26.096C72.5605 26.096 76.2858 28.032 78.6911 31.904C81.1551 35.7173 82.3871 41.1147 82.3871 48.096C82.3871 53.552 81.8591 58.1573 80.8031 61.912C79.8058 65.6667 77.9578 68.6293 75.2591 70.8C72.5605 72.9707 68.7471 74.056 63.8191 74.056Z" fill="url(#paint0_linear_647_356)" fill-opacity="0.2" />
    <defs>
        <linearGradient id="paint0_linear_647_356" x1="44.2019" y1="-32" x2="44.2019" y2="98" gradientUnits="userSpaceOnUse">
            <stop stop-color="#364256" />
            <stop offset="1" stop-color="#364256" stop-opacity="0" />
        </linearGradient>
    </defs>
</svg>
    