<svg width="20" height="20" viewBox="0 0 20 20" fill="none" xmlns="http://www.w3.org/2000/svg">
<g clip-path="url(#clip0_3750_5039)">
<path fill-rule="evenodd" clip-rule="evenodd" d="M10 0.5C6.02588 0.5 2.7737 3.59098 2.5164 7.5H2C1.17157 7.5 0.5 8.17157 0.5 9V12C0.5 12.8284 1.17157 13.5 2 13.5H2.5H3.5H4.5V8C4.5 4.96243 6.96243 2.5 10 2.5C13.0376 2.5 15.5 4.96243 15.5 8V8.5V12C15.5 13.9485 14.4863 15.6618 12.9563 16.6391C12.7947 15.985 12.204 15.5 11.5 15.5H8.5C7.67157 15.5 7 16.1716 7 17V18C7 18.8284 7.67157 19.5 8.5 19.5H10C10.8034 19.5 11.5792 19.3733 12.3074 19.1381L12.3074 19.1381L13 18.9143V18.8756C15.2058 17.9118 16.8593 15.9176 17.35 13.5H18C18.8284 13.5 19.5 12.8284 19.5 12V9C19.5 8.17157 18.8284 7.5 18 7.5H17.4836C17.2263 3.59098 13.9741 0.5 10 0.5Z" fill="white"/>
<path d="M2.5164 7.5V7.6H2.61004L2.61619 7.50657L2.5164 7.5ZM4.5 13.5V13.6H4.6V13.5H4.5ZM12.9563 16.6391L12.8592 16.663L12.8926 16.7984L13.0101 16.7233L12.9563 16.6391ZM12.3074 19.1381L12.2769 19.0428L12.2767 19.0429L12.3074 19.1381ZM12.3074 19.1381L12.3379 19.2333L12.3382 19.2332L12.3074 19.1381ZM13 18.9143L13.0307 19.0095L13.1 18.9871V18.9143H13ZM13 18.8756L12.96 18.784L12.9 18.8102V18.8756H13ZM17.35 13.5V13.4H17.2683L17.252 13.4801L17.35 13.5ZM17.4836 7.5L17.3838 7.50657L17.39 7.6H17.4836V7.5ZM2.61619 7.50657C2.87004 3.64977 6.07891 0.6 10 0.6V0.4C5.97285 0.4 2.67735 3.5322 2.41662 7.49343L2.61619 7.50657ZM2 7.6H2.5164V7.4H2V7.6ZM0.6 9C0.6 8.2268 1.2268 7.6 2 7.6V7.4C1.11634 7.4 0.4 8.11634 0.4 9H0.6ZM0.6 12V9H0.4V12H0.6ZM2 13.4C1.2268 13.4 0.6 12.7732 0.6 12H0.4C0.4 12.8837 1.11634 13.6 2 13.6V13.4ZM2.5 13.4H2V13.6H2.5V13.4ZM3.5 13.4H2.5V13.6H3.5V13.4ZM4.5 13.4H3.5V13.6H4.5V13.4ZM4.4 8V13.5H4.6V8H4.4ZM10 2.4C6.90721 2.4 4.4 4.90721 4.4 8H4.6C4.6 5.01766 7.01766 2.6 10 2.6V2.4ZM15.6 8C15.6 4.90721 13.0928 2.4 10 2.4V2.6C12.9823 2.6 15.4 5.01766 15.4 8H15.6ZM15.6 8.5V8H15.4V8.5H15.6ZM15.6 12V8.5H15.4V12H15.6ZM13.0101 16.7233C14.5677 15.7285 15.6 13.984 15.6 12H15.4C15.4 13.9129 14.405 15.5952 12.9025 16.5548L13.0101 16.7233ZM11.5 15.6C12.1569 15.6 12.7084 16.0526 12.8592 16.663L13.0534 16.6151C12.881 15.9174 12.2511 15.4 11.5 15.4V15.6ZM8.5 15.6H11.5V15.4H8.5V15.6ZM7.1 17C7.1 16.2268 7.7268 15.6 8.5 15.6V15.4C7.61634 15.4 6.9 16.1163 6.9 17H7.1ZM7.1 18V17H6.9V18H7.1ZM8.5 19.4C7.7268 19.4 7.1 18.7732 7.1 18H6.9C6.9 18.8837 7.61634 19.6 8.5 19.6V19.4ZM10 19.4H8.5V19.6H10V19.4ZM12.2767 19.0429C11.5583 19.275 10.7929 19.4 10 19.4V19.6C10.814 19.6 11.6002 19.4716 12.3381 19.2332L12.2767 19.0429ZM12.2769 19.0428L12.2769 19.0428L12.3379 19.2333L12.3379 19.2333L12.2769 19.0428ZM12.9693 18.8192L12.2767 19.0429L12.3382 19.2332L13.0307 19.0095L12.9693 18.8192ZM12.9 18.8756V18.9143H13.1V18.8756H12.9ZM17.252 13.4801C16.7679 15.8652 15.1365 17.833 12.96 18.784L13.04 18.9673C15.2752 17.9906 16.9507 15.97 17.448 13.5199L17.252 13.4801ZM18 13.4H17.35V13.6H18V13.4ZM19.4 12C19.4 12.7732 18.7732 13.4 18 13.4V13.6C18.8837 13.6 19.6 12.8837 19.6 12H19.4ZM19.4 9V12H19.6V9H19.4ZM18 7.6C18.7732 7.6 19.4 8.2268 19.4 9H19.6C19.6 8.11634 18.8837 7.4 18 7.4V7.6ZM17.4836 7.6H18V7.4H17.4836V7.6ZM10 0.6C13.9211 0.6 17.13 3.64977 17.3838 7.50657L17.5834 7.49343C17.3227 3.5322 14.0271 0.4 10 0.4V0.6Z" fill="white"/>
</g>
<defs>
<clipPath id="clip0_3750_5039">
<rect width="20" height="20" fill="white"/>
</clipPath>
</defs>
</svg>
