<svg width="100" height="110" viewBox="0 0 100 110" fill="none" xmlns="http://www.w3.org/2000/svg">
<g filter="url(#filter0_d_1746_2206)">
<rect x="10" width="80" height="80" rx="20" fill="url(#paint0_radial_1746_2206)"/>
</g>
<path d="M63.8642 19.3228L59.5456 54.9609C59.4678 55.5445 58.8453 56.0114 58.145 56.0114H55.9662C56.0051 56.2448 56.0051 56.4394 56.0051 56.6728V60.7969C55.9662 62.7033 54.8379 64.2984 53.4762 64.2984H46.5898C45.2281 64.2984 44.0998 62.7422 44.0998 60.7969V56.6728C44.0998 56.4394 44.0998 56.2059 44.1387 56.0114H41.7265C41.0262 56.0114 40.4037 55.5834 40.3259 54.9609L36.0073 19.3228C35.9684 18.9727 36.0851 18.6614 36.3575 18.3891C36.6298 18.1167 37.0189 18 37.4079 18H62.4635C62.8526 18 63.2417 18.1167 63.514 18.3891C63.8253 18.6614 63.942 19.0116 63.8642 19.3228Z" fill="url(#paint1_linear_1746_2206)"/>
<path opacity="0.6" d="M50 29C46.6809 29 44 31.7128 44 35C44 38.2872 46.7128 41 50 41C53.3191 41 56 38.2872 56 35C56 31.7128 53.2872 29 50 29Z" fill="#FF6058"/>
<defs>
<filter id="filter0_d_1746_2206" x="0" y="0" width="100" height="110" filterUnits="userSpaceOnUse" color-interpolation-filters="sRGB">
<feFlood flood-opacity="0" result="BackgroundImageFix"/>
<feColorMatrix in="SourceAlpha" type="matrix" values="0 0 0 0 0 0 0 0 0 0 0 0 0 0 0 0 0 0 127 0" result="hardAlpha"/>
<feMorphology radius="10" operator="erode" in="SourceAlpha" result="effect1_dropShadow_1746_2206"/>
<feOffset dy="20"/>
<feGaussianBlur stdDeviation="10"/>
<feColorMatrix type="matrix" values="0 0 0 0 1 0 0 0 0 0.37647 0 0 0 0 0.345098 0 0 0 0.1 0"/>
<feBlend mode="normal" in2="BackgroundImageFix" result="effect1_dropShadow_1746_2206"/>
<feBlend mode="normal" in="SourceGraphic" in2="effect1_dropShadow_1746_2206" result="shape"/>
</filter>
<radialGradient id="paint0_radial_1746_2206" cx="0" cy="0" r="1" gradientUnits="userSpaceOnUse" gradientTransform="translate(30 6.66666) rotate(62.5009) scale(78.3793)">
<stop stop-color="#FF5656"/>
<stop offset="1" stop-color="#FF9061"/>
</radialGradient>
<linearGradient id="paint1_linear_1746_2206" x1="45.4446" y1="35.2756" x2="71.439" y2="56.0585" gradientUnits="userSpaceOnUse">
<stop stop-color="white"/>
<stop offset="1" stop-color="white" stop-opacity="0.4"/>
</linearGradient>
</defs>
</svg>
