<svg width="100" height="110" viewBox="0 0 100 110" fill="none" xmlns="http://www.w3.org/2000/svg">
<g filter="url(#filter0_d_1481_1870)">
<rect x="10" width="80" height="80" rx="20" fill="#BB3DFF"/>
</g>
<path d="M69.1858 36.2645H68.6333V22.0251C68.6333 19.5063 68.0369 19.1299 67.2889 19.1299C66.3101 19.1299 65.2903 19.8349 64.0749 20.8068C63.4736 21.2898 62.6591 21.8305 61.9453 22.2861C59.8157 23.6355 59.7903 25.6311 59.7258 26.6822V36.2645H58.836C57.824 36.2645 56.8149 37.0907 56.8149 38.1056V59.8191C56.8149 60.8341 57.3126 61.9898 58.3237 61.9898H69.6981C70.7101 61.9898 71.5334 60.838 71.5334 59.8191V38.1056C71.5334 37.0907 70.1978 36.2645 69.1858 36.2645Z" fill="url(#paint0_linear_1481_1870)"/>
<path d="M42.6958 19.1309C33.8948 19.1309 29.4039 25.8658 29.2161 26.1523C28.8935 26.6441 28.9365 27.2914 29.3159 27.7412L38.637 38.7118C38.6888 38.7725 38.7612 38.8028 38.8228 38.8517L36.6199 58.6624C36.5074 59.1396 36.571 59.8749 37.0726 60.5036C37.6866 61.275 38.7583 61.9898 40.266 61.9898H46.2265C47.8125 61.9898 49.5197 60.838 49.5197 59.0242C49.5197 57.8186 47.8457 43.2712 47.3197 38.7539C47.3471 38.7265 47.3862 38.7148 47.4077 38.6835L56.2878 27.6375C56.6555 27.1789 56.6799 26.5317 56.3485 26.0486C56.1519 25.769 51.4733 19.1309 42.6958 19.1309Z" fill="url(#paint1_linear_1481_1870)"/>
<path opacity="0.4" d="M67.5598 54.7344C67.5598 55.4697 66.6847 56.0622 65.9533 56.0622C65.218 56.0622 64.6226 55.4667 64.6226 54.7344V42.7097C64.6226 41.9744 65.218 41.3818 65.9533 41.3818C66.6886 41.3818 67.5598 41.9773 67.5598 42.7097V54.7344Z" fill="#BB3DFF"/>
<path opacity="0.4" d="M40.1407 36.3828L38.9615 31.5213C38.7914 30.8046 39.2285 30.0869 39.9432 29.9148C40.6541 29.7447 41.3737 30.1788 41.5477 30.8936L42.8785 36.4073L40.1407 36.3828ZM46.6361 31.446L45.7277 36.4073H43.0242L44.0176 30.9659C44.1545 30.2463 44.8438 29.7633 45.5674 29.9002C46.29 30.0312 46.7671 30.7235 46.6361 31.446Z" fill="#BB3DFF"/>
<defs>
<filter id="filter0_d_1481_1870" x="0" y="0" width="100" height="110" filterUnits="userSpaceOnUse" color-interpolation-filters="sRGB">
<feFlood flood-opacity="0" result="BackgroundImageFix"/>
<feColorMatrix in="SourceAlpha" type="matrix" values="0 0 0 0 0 0 0 0 0 0 0 0 0 0 0 0 0 0 127 0" result="hardAlpha"/>
<feMorphology radius="10" operator="erode" in="SourceAlpha" result="effect1_dropShadow_1481_1870"/>
<feOffset dy="20"/>
<feGaussianBlur stdDeviation="10"/>
<feColorMatrix type="matrix" values="0 0 0 0 0.733333 0 0 0 0 0.239216 0 0 0 0 1 0 0 0 0.1 0"/>
<feBlend mode="normal" in2="BackgroundImageFix" result="effect1_dropShadow_1481_1870"/>
<feBlend mode="normal" in="SourceGraphic" in2="effect1_dropShadow_1481_1870" result="shape"/>
</filter>
<linearGradient id="paint0_linear_1481_1870" x1="64.5018" y1="31.6652" x2="89.0144" y2="47.4527" gradientUnits="userSpaceOnUse">
<stop stop-color="white"/>
<stop offset="1" stop-color="white" stop-opacity="0.4"/>
</linearGradient>
<linearGradient id="paint1_linear_1481_1870" x1="43.4046" y1="31.6659" x2="69.8583" y2="63.5939" gradientUnits="userSpaceOnUse">
<stop stop-color="white"/>
<stop offset="1" stop-color="white" stop-opacity="0.4"/>
</linearGradient>
</defs>
</svg>
