<svg width="100" height="110" viewBox="0 0 100 110" fill="none" xmlns="http://www.w3.org/2000/svg">
<g filter="url(#filter0_d_641_515)">
<rect x="10" width="80" height="80" rx="20" fill="url(#paint0_radial_641_515)"/>
</g>
<path d="M46.3658 17.2842C49.6652 17.9739 53.7427 16.7107 56.4459 18.6231C57.6333 19.4619 58.275 20.6341 57.9086 22.1878C58.6943 22.5061 59.4674 22.779 60.2076 23.1251C65.614 25.659 68.6936 30.0978 70.2372 35.6861C70.7298 37.4646 70.8789 39.3417 71.1467 41.1783C71.1997 41.5371 71.2477 41.7417 71.652 41.8554C74.8655 42.7573 76.639 45.8445 75.7876 49.0201C74.964 52.0896 71.7252 53.9187 68.5446 53.0926C68.1328 52.984 67.9003 53.0421 67.6351 53.4134C64.1058 58.3651 59.4346 61.619 53.3536 62.4628C46.8357 63.3723 40.8912 61.9222 35.9471 57.3773C34.6334 56.1722 33.5421 54.7246 32.3799 53.3604C32.102 53.0319 31.9126 52.8703 31.43 52.9941C27.7011 53.9339 24.23 51.3469 24.0177 47.5119C23.8838 45.0512 25.6877 42.4693 28.1028 41.8024C28.7395 41.628 28.881 41.3451 28.9315 40.7514C29.3837 35.4435 31.4477 30.8405 35.164 27.0258C38.2916 23.8123 42.1872 22.0893 46.5881 21.4526C46.7978 21.4223 47.0049 21.3895 47.2096 21.3491C47.682 21.2531 48.4349 21.2809 48.5586 21.0206C48.8719 20.3461 49.0134 18.7848 46.3658 17.2867V17.2842ZM50.4256 48.1889H41.3308C40.6082 48.1915 40.4238 48.4239 40.5729 49.0984C41.7123 54.3431 46.8963 57.7941 52.1562 56.8114C56.1705 56.061 59.3411 53.0648 60.1697 49.2323C60.3592 48.3633 60.2203 48.1915 59.3259 48.1889H50.4256ZM58.7373 37.4469C58.1247 37.4405 57.5336 37.6725 57.089 38.094C56.6444 38.5155 56.3811 39.0934 56.3549 39.7055C56.3414 40.3288 56.575 40.9321 57.0048 41.3837C57.4346 41.8353 58.0257 42.0984 58.6489 42.1156C59.912 42.1308 60.9756 41.095 61.0034 39.8267C61.0066 39.2136 60.772 38.6232 60.349 38.1794C59.9259 37.7356 59.3473 37.4731 58.7348 37.4469H58.7373ZM43.6626 39.7737C43.6555 39.1625 43.4113 38.5779 42.9814 38.1433C42.5516 37.7087 41.9697 37.4581 41.3586 37.4444C41.0517 37.4454 40.748 37.5068 40.4649 37.6252C40.1817 37.7435 39.9247 37.9165 39.7084 38.1342C39.4921 38.3519 39.3208 38.6101 39.2043 38.894C39.0877 39.1779 39.0283 39.482 39.0293 39.7889C39.0303 40.0957 39.0917 40.3994 39.2101 40.6826C39.3284 40.9657 39.5014 41.2228 39.7191 41.439C39.9368 41.6553 40.195 41.8266 40.4789 41.9432C40.7628 42.0597 41.0668 42.1191 41.3737 42.1181C41.9854 42.1024 42.5668 41.8486 42.9943 41.4107C43.4217 40.9729 43.6615 40.3856 43.6626 39.7737Z" fill="url(#paint1_linear_641_515)"/>
<defs>
<filter id="filter0_d_641_515" x="0" y="0" width="100" height="110" filterUnits="userSpaceOnUse" color-interpolation-filters="sRGB">
<feFlood flood-opacity="0" result="BackgroundImageFix"/>
<feColorMatrix in="SourceAlpha" type="matrix" values="0 0 0 0 0 0 0 0 0 0 0 0 0 0 0 0 0 0 127 0" result="hardAlpha"/>
<feMorphology radius="10" operator="erode" in="SourceAlpha" result="effect1_dropShadow_641_515"/>
<feOffset dy="20"/>
<feGaussianBlur stdDeviation="10"/>
<feColorMatrix type="matrix" values="0 0 0 0 1 0 0 0 0 0.384314 0 0 0 0 0.34902 0 0 0 0.1 0"/>
<feBlend mode="normal" in2="BackgroundImageFix" result="effect1_dropShadow_641_515"/>
<feBlend mode="normal" in="SourceGraphic" in2="effect1_dropShadow_641_515" result="shape"/>
</filter>
<radialGradient id="paint0_radial_641_515" cx="0" cy="0" r="1" gradientUnits="userSpaceOnUse" gradientTransform="translate(30 6.66666) rotate(62.5009) scale(78.3793)">
<stop stop-color="#FF5656"/>
<stop offset="1" stop-color="#FF9061"/>
</radialGradient>
<linearGradient id="paint1_linear_641_515" x1="34.8929" y1="21.1623" x2="60.8554" y2="70.021" gradientUnits="userSpaceOnUse">
<stop stop-color="white"/>
<stop offset="1" stop-color="white" stop-opacity="0.4"/>
</linearGradient>
</defs>
</svg>
