<svg width="100" height="110" viewBox="0 0 100 110" fill="none" xmlns="http://www.w3.org/2000/svg">
<g filter="url(#filter0_d_639_327)">
<rect x="10" width="80" height="80" rx="20" fill="url(#paint0_radial_639_327)"/>
</g>
<path opacity="0.8" d="M29.3741 40.4842C29.6248 39.048 30.8716 38 32.3294 38H50H67.7238C69.1579 38 70.3915 39.015 70.6676 40.4223L74.4314 59.6024C74.7469 61.2101 73.7142 62.7735 72.1118 63.1144L57.3689 66.2506C55.092 66.735 52.7174 66.4098 50.6546 65.3312L39.8069 59.6592C38.961 59.2169 37.9553 59.2036 37.098 59.6231L28.524 63.8195C27.0566 64.5377 25.3937 63.2887 25.6746 61.6792L29.3741 40.4842Z" fill="url(#paint1_linear_639_327)"/>
<path d="M51.77 49.0565C52.8243 47.9855 56.0572 44.6217 59.0398 40.6792C60.53 38.7095 61.9916 36.5513 63.0888 34.4298C64.1633 32.3521 65 30.1008 65 28C65 19.7157 58.2843 13 50 13C41.7157 13 35 19.7157 35 28C35 30.1008 35.8367 32.3521 36.9112 34.4298C38.0084 36.5513 39.47 38.7095 40.9602 40.6793C43.9428 44.6217 47.1757 47.9855 48.23 49.0565C49.2053 50.0473 50.7947 50.0473 51.77 49.0565Z" fill="url(#paint2_linear_639_327)" stroke="url(#paint3_linear_639_327)" stroke-width="4"/>
<circle cx="50" cy="28" r="5" fill="#FF911D" fill-opacity="0.8"/>
<defs>
<filter id="filter0_d_639_327" x="0" y="0" width="100" height="110" filterUnits="userSpaceOnUse" color-interpolation-filters="sRGB">
<feFlood flood-opacity="0" result="BackgroundImageFix"/>
<feColorMatrix in="SourceAlpha" type="matrix" values="0 0 0 0 0 0 0 0 0 0 0 0 0 0 0 0 0 0 127 0" result="hardAlpha"/>
<feMorphology radius="10" operator="erode" in="SourceAlpha" result="effect1_dropShadow_639_327"/>
<feOffset dy="20"/>
<feGaussianBlur stdDeviation="10"/>
<feColorMatrix type="matrix" values="0 0 0 0 0.988235 0 0 0 0 0.47451 0 0 0 0 0.0509804 0 0 0 0.1 0"/>
<feBlend mode="normal" in2="BackgroundImageFix" result="effect1_dropShadow_639_327"/>
<feBlend mode="normal" in="SourceGraphic" in2="effect1_dropShadow_639_327" result="shape"/>
</filter>
<radialGradient id="paint0_radial_639_327" cx="0" cy="0" r="1" gradientUnits="userSpaceOnUse" gradientTransform="translate(10.0099 40) scale(80.0918 371.337)">
<stop stop-color="#FC790D"/>
<stop offset="1" stop-color="#FF9A23"/>
</radialGradient>
<linearGradient id="paint1_linear_639_327" x1="35.4657" y1="33.8579" x2="57.2261" y2="78.5128" gradientUnits="userSpaceOnUse">
<stop stop-color="white"/>
<stop offset="1" stop-color="white" stop-opacity="0.4"/>
</linearGradient>
<linearGradient id="paint2_linear_639_327" x1="50" y1="15" x2="50" y2="48" gradientUnits="userSpaceOnUse">
<stop stop-color="white"/>
<stop offset="1" stop-color="#FFD8B4"/>
</linearGradient>
<linearGradient id="paint3_linear_639_327" x1="31.5" y1="30" x2="67.5" y2="30" gradientUnits="userSpaceOnUse">
<stop stop-color="#FD8012"/>
<stop offset="0.279649" stop-color="#FE8213"/>
<stop offset="0.571065" stop-color="#FE8717"/>
<stop offset="0.853559" stop-color="#FE8B19"/>
<stop offset="1" stop-color="#FF901C"/>
</linearGradient>
</defs>
</svg>
