<svg width="100" height="110" viewBox="0 0 100 110" fill="none" xmlns="http://www.w3.org/2000/svg">
<g filter="url(#filter0_d_1066_2044)">
<rect x="10" width="80" height="80" rx="20" fill="url(#paint0_linear_1066_2044)"/>
</g>
<path fill-rule="evenodd" clip-rule="evenodd" d="M51.104 16.6784C50.4223 16.2784 49.5777 16.2784 48.896 16.6784L27.6394 29.1488C25.721 30.2743 26.5192 33.2125 28.7434 33.2125H31.4545V56.3943H29.2727C27.4653 56.3943 26 57.8596 26 59.667C26 61.4745 27.4652 62.9398 29.2727 62.9398H70.7273C72.5347 62.9398 74 61.4745 74 59.667C74 57.8596 72.5348 56.3943 70.7273 56.3943H68.5455V33.2125H71.2566C73.4808 33.2125 74.279 30.2743 72.3606 29.1488L51.104 16.6784Z" fill="url(#paint1_linear_1066_2044)"/>
<rect opacity="0.6" x="41.2734" y="47.6675" width="17.4545" height="2.18182" rx="1.09091" fill="#09DD8B"/>
<rect opacity="0.6" x="41.2734" y="53.1221" width="17.4545" height="2.18182" rx="1.09091" fill="#09DD8B"/>
<path d="M49.1709 26.222C49.4321 25.4179 50.5696 25.4179 50.8309 26.222L52.2542 30.6024C52.371 30.962 52.7061 31.2055 53.0842 31.2055H57.6901C58.5355 31.2055 58.887 32.2873 58.203 32.7843L54.4768 35.4915C54.1709 35.7138 54.043 36.1077 54.1598 36.4673L55.5831 40.8477C55.8443 41.6517 54.9241 42.3204 54.2401 41.8234L50.5139 39.1162C50.208 38.8939 49.7938 38.8939 49.4879 39.1162L45.7617 41.8234C45.0777 42.3204 44.1574 41.6517 44.4187 40.8477L45.842 36.4673C45.9588 36.1077 45.8308 35.7138 45.525 35.4915L41.7987 32.7843C41.1148 32.2873 41.4663 31.2055 42.3117 31.2055H46.9176C47.2957 31.2055 47.6307 30.962 47.7476 30.6024L49.1709 26.222Z" fill="#08DB8A"/>
<defs>
<filter id="filter0_d_1066_2044" x="0" y="0" width="100" height="110" filterUnits="userSpaceOnUse" color-interpolation-filters="sRGB">
<feFlood flood-opacity="0" result="BackgroundImageFix"/>
<feColorMatrix in="SourceAlpha" type="matrix" values="0 0 0 0 0 0 0 0 0 0 0 0 0 0 0 0 0 0 127 0" result="hardAlpha"/>
<feMorphology radius="10" operator="erode" in="SourceAlpha" result="effect1_dropShadow_1066_2044"/>
<feOffset dy="20"/>
<feGaussianBlur stdDeviation="10"/>
<feComposite in2="hardAlpha" operator="out"/>
<feColorMatrix type="matrix" values="0 0 0 0 0.0509804 0 0 0 0 0.894118 0 0 0 0 0.572549 0 0 0 0.1 0"/>
<feBlend mode="normal" in2="BackgroundImageFix" result="effect1_dropShadow_1066_2044"/>
<feBlend mode="normal" in="SourceGraphic" in2="effect1_dropShadow_1066_2044" result="shape"/>
</filter>
<linearGradient id="paint0_linear_1066_2044" x1="12.2642" y1="2" x2="95.5677" y2="56.4879" gradientUnits="userSpaceOnUse">
<stop stop-color="#07D988"/>
<stop offset="1" stop-color="#15F59F"/>
</linearGradient>
<linearGradient id="paint1_linear_1066_2044" x1="36.0471" y1="9.728" x2="79.4955" y2="63.0394" gradientUnits="userSpaceOnUse">
<stop stop-color="white"/>
<stop offset="1" stop-color="white" stop-opacity="0.6"/>
</linearGradient>
</defs>
</svg>
