<svg width="20" height="20" viewBox="0 0 20 20" fill="none" xmlns="http://www.w3.org/2000/svg">
<path d="M1.5875 4.3363H18.4125C18.945 4.3363 19.375 3.9163 19.375 3.3988C19.375 2.8813 18.945 2.4613 18.4125 2.4613H1.5875C1.05625 2.4613 0.625 2.8813 0.625 3.3988C0.625 3.9163 1.05625 4.3363 1.5875 4.3363ZM18.4125 9.0238H1.5875C1.055 9.0238 0.625 9.4438 0.625 9.9613C0.625 10.4788 1.055 10.8988 1.5875 10.8988H18.4125C18.945 10.8988 19.375 10.4788 19.375 9.9613C19.375 9.4438 18.9425 9.0238 18.4125 9.0238ZM18.4125 15.6638H1.5875C1.05625 15.6638 0.625 16.0838 0.625 16.6013C0.625 17.1188 1.05625 17.5388 1.5875 17.5388H18.4125C18.945 17.5388 19.375 17.1188 19.375 16.6013C19.375 16.0838 18.945 15.6638 18.4125 15.6638Z" fill="white"/>
</svg>
