<svg width="20" height="20" viewBox="0 0 20 20" fill="none" xmlns="http://www.w3.org/2000/svg">
<path d="M1.5875 4.33618H18.4125C18.945 4.33618 19.375 3.91618 19.375 3.39868C19.375 2.88118 18.945 2.46118 18.4125 2.46118H1.5875C1.05625 2.46118 0.625 2.88118 0.625 3.39868C0.625 3.91618 1.05625 4.33618 1.5875 4.33618ZM18.4125 9.02368H1.5875C1.055 9.02368 0.625 9.44368 0.625 9.96118C0.625 10.4787 1.055 10.8987 1.5875 10.8987H18.4125C18.945 10.8987 19.375 10.4787 19.375 9.96118C19.375 9.44368 18.9425 9.02368 18.4125 9.02368ZM18.4125 15.6637H1.5875C1.05625 15.6637 0.625 16.0837 0.625 16.6012C0.625 17.1187 1.05625 17.5387 1.5875 17.5387H18.4125C18.945 17.5387 19.375 17.1187 19.375 16.6012C19.375 16.0837 18.945 15.6637 18.4125 15.6637Z" fill="#54657E"/>
</svg>
