<svg width="36" height="36" viewBox="0 0 36 36" fill="none" xmlns="http://www.w3.org/2000/svg">
    <path fill-rule="evenodd" clip-rule="evenodd" fill="#0555FF" d="M32.8618 3.16582H32.8639C32.8639 3.16582 34.4202 9.87327 32.6642 15.0007C32.6615 15.002 32.6597 15.0042 32.6576 15.0067C32.6576 15.0067 32.6553 15.0096 32.6538 15.011C31.911 17.612 30.5837 19.7222 28.5364 22.056C27.4837 23.255 26.6931 24.4333 26.3206 26.0362C25.5446 29.364 23.7283 32.1431 21.0132 34.2657C20.595 34.5929 19.7586 34.86 19.3945 34.6571C19.0429 34.4624 18.8057 33.5595 18.9368 33.0812C19.7919 29.9811 19.1157 27.815 16.0698 26.0921C14.4886 25.1976 13.1205 23.9335 11.7498 22.6668C11.0356 22.0069 10.3206 21.3463 9.57441 20.7369C9.16663 20.4035 8.48421 20.0949 8.02025 20.1964C7.2802 20.3573 6.5586 20.6021 5.83654 20.847C5.27567 21.0373 4.71451 21.2277 4.14421 21.3789C3.6969 21.4969 2.93334 21.4948 2.74193 21.236C2.47771 20.8798 2.41945 20.1301 2.61918 19.7139C4.20871 16.4233 6.67623 14.0046 9.9822 12.3583C10.9996 11.853 11.9754 11.0164 12.639 10.0949C16.9915 4.05628 22.8295 1.09084 30.3049 1.28964C31.6801 1.32692 32.6434 1.66032 32.8618 3.16582ZM18.708 13.8617C18.9701 16.2163 20.8301 17.7197 23.1416 17.4484C25.53 17.1688 27.1279 15.2119 26.8533 12.9071C26.5828 10.6664 24.3982 8.95589 22.2012 9.26445C19.9958 9.573 18.4562 11.6004 18.708 13.8617ZM12.9323 25.6181C14.2056 26.6411 14.7382 28.8672 13.8207 29.9979C12.8616 31.1783 10.0799 32.8929 7.93696 33.9905C6.79474 34.5765 5.41951 33.4769 5.74615 32.2406C6.35367 29.9461 7.4085 26.8916 8.41548 25.6512C9.333 24.5205 11.632 24.5723 12.9053 25.5953L12.9178 25.6077C12.9198 25.6098 12.9224 25.6113 12.925 25.6129C12.9276 25.6144 12.9302 25.616 12.9323 25.6181Z" />
</svg>
    