<svg width="64" height="64" viewBox="0 0 64 64" fill="none" xmlns="http://www.w3.org/2000/svg">
<rect x="2" y="2" width="36" height="36" rx="18" fill="url(#paint0_linear_1647_2503)"/>
<rect x="2.25" y="2.25" width="35.5" height="35.5" rx="17.75" stroke="white" stroke-opacity="0.5" stroke-width="0.5"/>
<g filter="url(#filter0_b_1647_2503)">
<rect x="10" y="10" width="52" height="52" rx="26" fill="url(#paint1_linear_1647_2503)" fill-opacity="0.3"/>
<rect x="10.25" y="10.25" width="51.5" height="51.5" rx="25.75" stroke="#C7FFE7" stroke-opacity="0.5" stroke-width="0.5"/>
</g>
<g filter="url(#filter1_d_1647_2503)">
<path d="M34.8142 21.3293C35.5842 21.0725 36.4167 21.0725 37.1867 21.3293L46.7903 24.5305C47.2884 24.6964 47.7215 25.0148 48.0284 25.4406C48.3354 25.8665 48.5005 26.3781 48.5003 26.903V34.1267C48.5003 39.6204 45.7541 44.7516 41.1829 47.7991L36.6942 50.7916C36.4887 50.9286 36.2473 51.0018 36.0004 51.0018C35.7535 51.0018 35.5121 50.9286 35.3067 50.7916L30.8179 47.7991C28.567 46.2986 26.7213 44.2656 25.4448 41.8805C24.1683 39.4953 23.5004 36.8319 23.5005 34.1267V26.9018C23.5006 26.3771 23.6658 25.8657 23.9727 25.4401C24.2796 25.0145 24.7127 24.6963 25.2105 24.5305L34.8142 21.3293ZM36.3954 23.7018C36.139 23.6164 35.8618 23.6164 35.6054 23.7018L26.0005 26.9018V34.1267C26.0005 38.7842 28.328 43.1341 32.2042 45.7191L36.0004 48.2479L39.7966 45.7191C41.6456 44.4865 43.173 42.8295 44.2511 40.8864C45.3292 38.9432 45.9268 36.7704 45.9941 34.5492L46.0003 34.1267V26.9018L36.3954 23.7018ZM39.7504 38.5017C40.0819 38.5017 40.3998 38.6334 40.6343 38.8678C40.8687 39.1022 41.0004 39.4202 41.0004 39.7517C41.0004 40.0832 40.8687 40.4011 40.6343 40.6355C40.3998 40.87 40.0819 41.0017 39.7504 41.0017H32.2504C31.9189 41.0017 31.601 40.87 31.3666 40.6355C31.1321 40.4011 31.0004 40.0832 31.0004 39.7517C31.0004 39.4202 31.1321 39.1022 31.3666 38.8678C31.601 38.6334 31.9189 38.5017 32.2504 38.5017H39.7504ZM42.2504 33.5017C42.5819 33.5017 42.8998 33.6334 43.1342 33.8678C43.3687 34.1022 43.5004 34.4202 43.5004 34.7517C43.5004 35.0832 43.3687 35.4012 43.1342 35.6356C42.8998 35.87 42.5819 36.0017 42.2504 36.0017H29.7504C29.4189 36.0017 29.101 35.87 28.8666 35.6356C28.6322 35.4012 28.5005 35.0832 28.5005 34.7517C28.5005 34.4202 28.6322 34.1022 28.8666 33.8678C29.101 33.6334 29.4189 33.5017 29.7504 33.5017H42.2504ZM39.7504 28.5017C40.0819 28.5017 40.3998 28.6334 40.6343 28.8679C40.8687 29.1023 41.0004 29.4202 41.0004 29.7517C41.0004 30.0833 40.8687 30.4012 40.6343 30.6356C40.3998 30.87 40.0819 31.0017 39.7504 31.0017H32.2504C32.0863 31.0017 31.9237 30.9694 31.7721 30.9066C31.6204 30.8438 31.4826 30.7517 31.3666 30.6356C31.2505 30.5195 31.1584 30.3817 31.0956 30.2301C31.0328 30.0784 31.0004 29.9159 31.0004 29.7517C31.0004 29.5876 31.0328 29.425 31.0956 29.2734C31.1584 29.1217 31.2505 28.9839 31.3666 28.8679C31.4826 28.7518 31.6204 28.6597 31.7721 28.5969C31.9237 28.5341 32.0863 28.5017 32.2504 28.5017H39.7504Z" fill="white"/>
</g>
<defs>
<filter id="filter0_b_1647_2503" x="-10" y="-10" width="92" height="92" filterUnits="userSpaceOnUse" color-interpolation-filters="sRGB">
<feFlood flood-opacity="0" result="BackgroundImageFix"/>
<feGaussianBlur in="BackgroundImage" stdDeviation="10"/>
<feComposite in2="SourceAlpha" operator="in" result="effect1_backgroundBlur_1647_2503"/>
<feBlend mode="normal" in="SourceGraphic" in2="effect1_backgroundBlur_1647_2503" result="shape"/>
</filter>
<filter id="filter1_d_1647_2503" x="13.5005" y="13.1367" width="44.9998" height="49.8633" filterUnits="userSpaceOnUse" color-interpolation-filters="sRGB">
<feFlood flood-opacity="0" result="BackgroundImageFix"/>
<feColorMatrix in="SourceAlpha" type="matrix" values="0 0 0 0 0 0 0 0 0 0 0 0 0 0 0 0 0 0 127 0" result="hardAlpha"/>
<feOffset dy="2"/>
<feGaussianBlur stdDeviation="5"/>
<feComposite in2="hardAlpha" operator="out"/>
<feColorMatrix type="matrix" values="0 0 0 0 0.0509804 0 0 0 0 0.886275 0 0 0 0 0.564706 0 0 0 0.1 0"/>
<feBlend mode="normal" in2="BackgroundImageFix" result="effect1_dropShadow_1647_2503"/>
<feBlend mode="normal" in="SourceGraphic" in2="effect1_dropShadow_1647_2503" result="shape"/>
</filter>
<linearGradient id="paint0_linear_1647_2503" x1="3.01887" y1="2.9" x2="40.5055" y2="27.4195" gradientUnits="userSpaceOnUse">
<stop stop-color="#07D988"/>
<stop offset="1" stop-color="#15F59F"/>
</linearGradient>
<linearGradient id="paint1_linear_1647_2503" x1="37.1549" y1="10" x2="37.1549" y2="59.926" gradientUnits="userSpaceOnUse">
<stop offset="0.22277" stop-color="#27E69D"/>
</linearGradient>
</defs>
</svg>
