<svg width="64" height="64" viewBox="0 0 64 64" fill="none" xmlns="http://www.w3.org/2000/svg">
<rect x="2" y="2" width="36" height="36" rx="18" fill="url(#paint0_radial_1647_2507)"/>
<rect x="2.25" y="2.25" width="35.5" height="35.5" rx="17.75" stroke="white" stroke-opacity="0.5" stroke-width="0.5"/>
<g filter="url(#filter0_b_1647_2507)">
<rect x="10" y="10" width="52" height="52" rx="26" fill="#9488FF" fill-opacity="0.3"/>
<rect x="10.25" y="10.25" width="51.5" height="51.5" rx="25.75" stroke="#F6F9FF" stroke-opacity="0.5" stroke-width="0.5"/>
</g>
<g filter="url(#filter1_d_1647_2507)">
<path fill-rule="evenodd" clip-rule="evenodd" d="M41.1112 36.6589C42.8381 36.6589 44.3269 37.9499 44.5723 39.6611L45.0608 43.1099C45.2042 44.1138 44.9047 45.1272 44.2417 45.8921C43.5755 46.6571 42.613 47.0968 41.5996 47.0968H29.6767C28.6632 47.0968 27.7008 46.657 27.0379 45.8921C26.3749 45.1272 26.0754 44.1136 26.2188 43.1098L26.7073 39.661C26.9494 37.9501 28.4381 36.6589 30.1684 36.6589H41.1112ZM30.1652 39.0192C29.604 39.0192 29.1225 39.4361 29.0433 39.9936L28.5549 43.442C28.4901 43.8886 28.6963 44.1987 28.8204 44.3441C28.946 44.4913 29.2271 44.7365 29.6767 44.7365H41.5996C42.0492 44.7365 42.3303 44.4913 42.4559 44.3441C42.58 44.1988 42.7861 43.8885 42.7214 43.442L42.233 39.9935C42.1539 39.4396 41.6726 39.0192 41.1112 39.0192H30.1652ZM44.0026 35.6525C43.4857 35.6525 43.0083 35.3076 42.8665 34.7854C42.6941 34.1566 43.0631 33.5067 43.6915 33.3345C44.8038 33.0274 45.5778 32.0076 45.5778 30.8515C45.5778 29.6339 44.7151 28.5732 43.5209 28.3309C42.8832 28.2009 42.4692 27.5783 42.5992 26.9375C42.7291 26.2999 43.3517 25.8859 43.9924 26.0158C46.2766 26.4816 47.9381 28.5157 47.9381 30.8515C47.9381 33.0653 46.4461 35.0225 44.316 35.6104C44.2115 35.6403 44.1062 35.6525 44.0026 35.6525ZM50.8698 41.6509C50.9936 42.5272 50.7333 43.4161 50.1524 44.0858C49.5682 44.7621 48.7269 45.1463 47.8414 45.1463H47.012C46.3591 45.1463 45.8302 44.6173 45.8302 43.9645C45.8302 43.3116 46.3591 42.7827 47.012 42.7827H47.8414C48.1172 42.7827 48.2901 42.6322 48.3693 42.5418C48.4451 42.4545 48.572 42.2623 48.5338 41.9868L48.137 39.1867C48.0874 38.8466 47.7934 38.5865 47.4447 38.5865H46.9464C46.2936 38.5865 45.7646 38.0576 45.7646 37.4047C45.7646 36.7518 46.2936 36.2229 46.9464 36.2229H47.4447C48.9586 36.2229 50.2605 37.3534 50.4732 38.8514L50.8698 41.6509ZM27.428 33.3353C28.0564 33.5075 28.4252 34.1571 28.2529 34.786C28.111 35.3083 27.6368 35.6532 27.1167 35.6532C27.0152 35.6532 26.9092 35.6383 26.8015 35.6107C24.6687 35.0225 23.1812 33.0658 23.1812 30.8523C23.1812 28.5164 24.8394 26.4824 27.1268 26.0165C27.7676 25.8866 28.3902 26.3007 28.5202 26.9384C28.6501 27.5762 28.2389 28.2017 27.5984 28.3317C26.4076 28.5739 25.5415 29.6345 25.5415 30.8523C25.5415 32.0085 26.3192 33.0282 27.428 33.3353ZM22.9854 39.1986L22.5888 41.9941C22.5505 42.2696 22.6775 42.4618 22.7533 42.5491C22.8289 42.636 23.0016 42.79 23.2812 42.79H24.1073C24.7602 42.79 25.2891 43.3189 25.2891 43.9718C25.2891 44.624 24.7608 45.147 24.1073 45.147H23.2779C22.3922 45.147 21.5478 44.7629 20.9669 44.0931C20.3859 43.4232 20.1226 42.5341 20.2495 41.6583L20.6461 38.8619C20.8588 37.3639 22.1607 36.2335 23.6746 36.2335H24.1761C24.829 36.2335 25.3579 36.7624 25.3579 37.4153C25.3579 38.0682 24.829 38.5971 24.1761 38.5971H23.6746C23.3303 38.5971 23.0316 38.8533 22.9854 39.1986ZM35.6398 35.564C32.4397 35.564 29.8324 32.9599 29.8324 29.7566C29.8324 26.5565 32.4365 23.9492 35.6398 23.9492C38.8431 23.9492 41.4471 26.5532 41.4472 29.7565C41.444 32.96 38.8398 35.564 35.6398 35.564ZM35.6398 26.3128C33.7389 26.3128 32.196 27.8591 32.196 29.7566C32.196 31.6575 33.7423 33.2004 35.6398 33.2004C37.5407 33.2004 39.0836 31.6541 39.0836 29.7566C39.0836 27.859 37.5374 26.3128 35.6398 26.3128Z" fill="white"/>
</g>
<defs>
<filter id="filter0_b_1647_2507" x="-10" y="-10" width="92" height="92" filterUnits="userSpaceOnUse" color-interpolation-filters="sRGB">
<feFlood flood-opacity="0" result="BackgroundImageFix"/>
<feGaussianBlur in="BackgroundImage" stdDeviation="10"/>
<feComposite in2="SourceAlpha" operator="in" result="effect1_backgroundBlur_1647_2507"/>
<feBlend mode="normal" in="SourceGraphic" in2="effect1_backgroundBlur_1647_2507" result="shape"/>
</filter>
<filter id="filter1_d_1647_2507" x="16.2182" y="21.9492" width="38.6818" height="31.1484" filterUnits="userSpaceOnUse" color-interpolation-filters="sRGB">
<feFlood flood-opacity="0" result="BackgroundImageFix"/>
<feColorMatrix in="SourceAlpha" type="matrix" values="0 0 0 0 0 0 0 0 0 0 0 0 0 0 0 0 0 0 127 0" result="hardAlpha"/>
<feOffset dy="2"/>
<feGaussianBlur stdDeviation="2"/>
<feComposite in2="hardAlpha" operator="out"/>
<feColorMatrix type="matrix" values="0 0 0 0 0.396078 0 0 0 0 0.27451 0 0 0 0 1 0 0 0 0.1 0"/>
<feBlend mode="normal" in2="BackgroundImageFix" result="effect1_dropShadow_1647_2507"/>
<feBlend mode="normal" in="SourceGraphic" in2="effect1_dropShadow_1647_2507" result="shape"/>
</filter>
<radialGradient id="paint0_radial_1647_2507" cx="0" cy="0" r="1" gradientUnits="userSpaceOnUse" gradientTransform="translate(5.09598 -10.0016) rotate(66.4378) scale(49.6466 44.416)">
<stop stop-color="#5432FF"/>
<stop offset="1" stop-color="#7256FF"/>
</radialGradient>
</defs>
</svg>
