<svg width="64" height="64" viewBox="0 0 64 64" fill="none" xmlns="http://www.w3.org/2000/svg">
<rect x="2" y="2" width="36" height="36" rx="18" fill="url(#paint0_radial_1647_2490)"/>
<rect x="2.21667" y="2.21667" width="35.5667" height="35.5667" rx="17.7833" stroke="white" stroke-opacity="0.5" stroke-width="0.433333"/>
<g filter="url(#filter0_b_1647_2490)">
<rect x="10" y="10" width="52" height="52" rx="26" fill="url(#paint1_radial_1647_2490)" fill-opacity="0.3"/>
<rect x="10.2667" y="10.2667" width="51.4667" height="51.4667" rx="25.7333" stroke="white" stroke-opacity="0.5" stroke-width="0.533333"/>
</g>
<g filter="url(#filter1_d_1647_2490)">
<path fill-rule="evenodd" clip-rule="evenodd" d="M40.5322 27.012C40.7625 27.6253 40.8667 28.2791 40.8384 28.9339V32.2289H31.1616V28.9339C31.1333 28.2791 31.2375 27.6253 31.4679 27.012C31.6982 26.3986 32.05 25.8384 32.5021 25.365C32.9542 24.8916 33.4972 24.5149 34.0983 24.2575C34.6995 24.0002 35.3464 23.8675 36 23.8675C36.6537 23.8675 37.3005 24.0002 37.9017 24.2575C38.5028 24.5149 39.0458 24.8916 39.4979 25.365C39.95 25.8384 40.3018 26.3986 40.5322 27.012ZM25.8363 48.2296V34.6569H46.1546V48.2296H25.8363ZM29.1005 25.9516C28.7755 26.9099 28.6529 27.9255 28.7402 28.9339V32.2289H25.3538C24.8427 32.2313 24.3532 32.436 23.9918 32.7983C23.6304 33.1607 23.4263 33.6515 23.4239 34.164V48.7225C23.4239 49.2365 23.6269 49.7297 23.9886 50.094C24.3503 50.4584 24.8411 50.6643 25.3538 50.6667H46.6371C47.1429 50.6645 47.628 50.4652 47.9898 50.1109C48.3517 49.7566 48.5619 49.275 48.5761 48.7681V34.164C48.5713 33.6507 48.3652 33.1599 48.0024 32.7978C47.6395 32.4356 47.1491 32.2313 46.6371 32.2289H43.2507V28.9339C43.3381 27.9255 43.2154 26.9099 42.8904 25.9516C42.5655 24.9933 42.0454 24.1132 41.3632 23.3672C40.6809 22.6211 39.8515 22.0254 38.9274 21.6179C38.0034 21.2104 37.0049 21 35.9955 21C34.986 21 33.9875 21.2104 33.0635 21.6179C32.1394 22.0254 31.31 22.6211 30.6277 23.3672C29.9455 24.1132 29.4254 24.9933 29.1005 25.9516ZM32.6414 42.2619C33.0847 42.9996 33.7805 43.5602 34.6058 43.8447V45.5035C34.6058 45.7607 34.7103 46.0074 34.8963 46.1893C35.0823 46.3712 35.3346 46.4734 35.5977 46.4734H36.0891C36.3506 46.471 36.6005 46.3677 36.7845 46.1861C36.9686 46.0045 37.0718 45.7592 37.0718 45.5035V43.8447C37.8971 43.5602 38.5929 42.9996 39.0361 42.2619C39.4794 41.5242 39.6416 40.657 39.494 39.8137C39.3464 38.9704 38.8985 38.2052 38.2296 37.6536C37.5607 37.102 36.7138 36.7995 35.8388 36.7995C34.9637 36.7995 34.1168 37.102 33.4479 37.6536C32.779 38.2052 32.3312 38.9704 32.1836 39.8137C32.036 40.657 32.1982 41.5242 32.6414 42.2619ZM36.5275 41.4451C36.324 41.5793 36.0842 41.651 35.8388 41.6511V41.6783C35.677 41.6807 35.5163 41.6515 35.3662 41.5923C35.2161 41.5332 35.0795 41.4453 34.9647 41.3338C34.8498 41.2223 34.7589 41.0896 34.6972 40.9432C34.6356 40.7969 34.6045 40.64 34.6058 40.4818C34.5984 40.242 34.6644 40.0054 34.7953 39.8024C34.9262 39.5995 35.1161 39.4393 35.3407 39.3425C35.5652 39.2457 35.8142 39.2166 36.0558 39.2589C36.2974 39.3012 36.5205 39.4131 36.6967 39.5802C36.8729 39.7472 36.994 39.9619 37.0447 40.1967C37.0953 40.4315 37.0732 40.6757 36.9811 40.8981C36.8889 41.1205 36.731 41.311 36.5275 41.4451Z" fill="white"/>
</g>
<defs>
<filter id="filter0_b_1647_2490" x="-10" y="-10" width="92" height="92" filterUnits="userSpaceOnUse" color-interpolation-filters="sRGB">
<feFlood flood-opacity="0" result="BackgroundImageFix"/>
<feGaussianBlur in="BackgroundImage" stdDeviation="10"/>
<feComposite in2="SourceAlpha" operator="in" result="effect1_backgroundBlur_1647_2490"/>
<feBlend mode="normal" in="SourceGraphic" in2="effect1_backgroundBlur_1647_2490" result="shape"/>
</filter>
<filter id="filter1_d_1647_2490" x="19.5544" y="19.0652" width="32.8913" height="37.4071" filterUnits="userSpaceOnUse" color-interpolation-filters="sRGB">
<feFlood flood-opacity="0" result="BackgroundImageFix"/>
<feColorMatrix in="SourceAlpha" type="matrix" values="0 0 0 0 0 0 0 0 0 0 0 0 0 0 0 0 0 0 127 0" result="hardAlpha"/>
<feOffset dy="1.93478"/>
<feGaussianBlur stdDeviation="1.93478"/>
<feComposite in2="hardAlpha" operator="out"/>
<feColorMatrix type="matrix" values="0 0 0 0 0.992157 0 0 0 0 0.498039 0 0 0 0 0.0666667 0 0 0 0.15 0"/>
<feBlend mode="normal" in2="BackgroundImageFix" result="effect1_dropShadow_1647_2490"/>
<feBlend mode="normal" in="SourceGraphic" in2="effect1_dropShadow_1647_2490" result="shape"/>
</filter>
<radialGradient id="paint0_radial_1647_2490" cx="0" cy="0" r="1" gradientUnits="userSpaceOnUse" gradientTransform="translate(8.31134 2) rotate(54.0884) scale(40.6075 199.147)">
<stop stop-color="#FC790D"/>
<stop offset="1" stop-color="#FF9A23"/>
</radialGradient>
<radialGradient id="paint1_radial_1647_2490" cx="0" cy="0" r="1" gradientUnits="userSpaceOnUse" gradientTransform="translate(18.9405 12.9156) rotate(40.3925) scale(50.567 247.729)">
<stop stop-color="#FFCCA2"/>
<stop offset="1" stop-color="#FFBF73"/>
</radialGradient>
</defs>
</svg>
