<svg width="20" height="20" viewBox="0 0 20 20" fill="none" xmlns="http://www.w3.org/2000/svg">
<g clip-path="url(#clip0_3750_5045)">
<circle cx="10" cy="10" r="9.15" stroke="white" stroke-width="1.7"/>
<path d="M6 7C6 7.79112 6.2346 8.56448 6.67412 9.22228C7.11365 9.88008 7.73836 10.3928 8.46927 10.6955C9.20017 10.9983 10.0044 11.0775 10.7804 10.9231C11.5563 10.7688 12.269 10.3878 12.8284 9.82843C13.3878 9.26902 13.7688 8.55628 13.9231 7.78036C14.0775 7.00444 13.9983 6.20017 13.6955 5.46927C13.3928 4.73836 12.8801 4.11365 12.2223 3.67412C11.5645 3.2346 10.7911 3 10 3C8.9395 3.00119 7.92277 3.423 7.17289 4.17289C6.423 4.92277 6.00119 5.9395 6 7ZM12.2002 7C12.2002 7.43516 12.0712 7.86055 11.8294 8.22238C11.5877 8.5842 11.244 8.86621 10.842 9.03274C10.44 9.19927 9.99756 9.24284 9.57076 9.15795C9.14396 9.07305 8.75191 8.8635 8.44421 8.55579C8.1365 8.24809 7.92695 7.85604 7.84205 7.42924C7.75716 7.00244 7.80073 6.56005 7.96726 6.15801C8.13379 5.75597 8.4158 5.41234 8.77762 5.17058C9.13945 4.92882 9.56484 4.79977 10 4.79977C10.5835 4.79977 11.1432 5.03158 11.5558 5.44421C11.9684 5.85683 12.2002 6.41646 12.2002 7Z" fill="white"/>
<path d="M17.7001 3.63487L16.4168 4.69737C17.8104 6.39061 18.4804 8.56494 18.2815 10.7489C18.0826 12.9329 17.0309 14.9504 15.3543 16.364C14.9876 13.8015 12.8168 11.939 9.98766 11.939C7.1585 11.939 4.98767 13.8015 4.62517 16.3682C3.02215 15.025 1.98277 13.1282 1.71335 11.0543C1.44393 8.98033 1.96417 6.88091 3.1708 5.17275C4.37743 3.46458 6.18223 2.27256 8.22693 1.8333C10.2716 1.39403 12.4068 1.73965 14.2085 2.80154L15.0418 1.36405C12.883 0.103668 10.3303 -0.30241 7.88691 0.225834C5.44351 0.754077 3.28657 2.17833 1.84114 4.21793C0.395703 6.25753 -0.233391 8.76454 0.0778234 11.2449C0.389038 13.7253 1.61799 15.9992 3.5225 17.6185C5.42701 19.2378 7.86896 20.085 10.3671 19.9933C12.8653 19.9015 15.2385 18.8774 17.019 17.1227C18.7996 15.368 19.8584 13.0101 19.9868 10.5136C20.1152 8.01702 19.3038 5.56292 17.7126 3.63487H17.7001ZM6.23766 17.4349V17.0849C6.23766 15.1015 7.85016 13.6057 9.98766 13.6057C12.1252 13.6057 13.7377 15.1015 13.7377 17.0849V17.4349C12.5764 18.0274 11.2913 18.3364 9.98766 18.3364C8.68399 18.3364 7.39887 18.0274 6.23766 17.4349Z" fill="white"/>
</g>
<defs>
<clipPath id="clip0_3750_5045">
<rect width="20" height="20" fill="white"/>
</clipPath>
</defs>
</svg>
