<svg width="20" height="20" viewBox="0 0 20 20" fill="none" xmlns="http://www.w3.org/2000/svg">
<path d="M13.0052 14.6165C12.9776 14.6439 12.9563 14.677 12.9428 14.7135C12.9293 14.75 12.924 14.789 12.9272 14.8277C12.9303 14.8665 12.942 14.9041 12.9612 14.9379C12.9804 14.9717 13.0068 15.0009 13.0385 15.0234C13.6173 15.5655 13.9899 16.2918 14.0926 17.0781C14.1459 17.2738 14.2516 17.4512 14.3983 17.5912C14.545 17.7312 14.7272 17.8285 14.9251 17.8726C15.1231 17.9167 15.3293 17.9059 15.5216 17.8415C15.7139 17.777 15.8849 17.6613 16.0163 17.5067C16.1476 17.3522 16.2343 17.1648 16.2669 16.9646C16.2996 16.7645 16.277 16.5592 16.2016 16.3709C16.1262 16.1827 16.0008 16.0186 15.839 15.8963C15.6771 15.7741 15.485 15.6983 15.2833 15.6772C14.5509 15.5403 13.8833 15.1678 13.3821 14.6165C13.3321 14.5666 13.2643 14.5386 13.1936 14.5386C13.123 14.5386 13.0552 14.5666 13.0052 14.6165V14.6165Z" fill="white"/>
<path d="M17.5282 12.8517C17.3477 13.0318 17.2346 13.2685 17.208 13.5221C17.0726 14.2553 16.7013 14.9241 16.1506 15.4267C16.1235 15.4526 16.1022 15.484 16.0881 15.5188C16.0739 15.5535 16.0672 15.5909 16.0685 15.6284C16.0698 15.6659 16.0789 15.7027 16.0954 15.7364C16.1119 15.7702 16.1352 15.8 16.164 15.8241C16.1928 15.8482 16.2264 15.8659 16.2625 15.8761C16.2986 15.8864 16.3365 15.8889 16.3736 15.8835C16.4107 15.8781 16.4463 15.8649 16.478 15.8448C16.5097 15.8247 16.5368 15.7982 16.5576 15.7669C17.0995 15.1879 17.8258 14.8153 18.6122 14.7129C18.7772 14.6682 18.9297 14.5862 19.0579 14.4733C19.186 14.3603 19.2865 14.2193 19.3515 14.0613C19.4165 13.9032 19.4443 13.7324 19.4327 13.5619C19.4211 13.3914 19.3704 13.2259 19.2846 13.0781C19.1988 12.9303 19.0802 12.8043 18.9379 12.7097C18.7956 12.6151 18.6334 12.5545 18.4639 12.5326C18.2945 12.5107 18.1222 12.5281 17.9605 12.5834C17.7989 12.6388 17.6521 12.7305 17.5315 12.8517H17.5282Z" fill="white"/>
<path d="M14.3893 9.70948C14.2409 9.85825 14.1376 10.046 14.0913 10.251C14.045 10.4559 14.0577 10.6698 14.1278 10.8679C14.1979 11.0661 14.3226 11.2403 14.4875 11.3705C14.6524 11.5008 14.8508 11.5818 15.0598 11.6041C15.7929 11.7394 16.4617 12.1107 16.9643 12.6614C16.9903 12.6885 17.0217 12.7098 17.0564 12.724C17.0912 12.7381 17.1285 12.7448 17.166 12.7435C17.2035 12.7423 17.2404 12.7331 17.2741 12.7167C17.3078 12.7002 17.3377 12.6768 17.3618 12.648C17.3858 12.6192 17.4036 12.5857 17.4138 12.5496C17.424 12.5135 17.4265 12.4756 17.4211 12.4385C17.4157 12.4013 17.4025 12.3657 17.3825 12.334C17.3624 12.3023 17.3358 12.2752 17.3046 12.2545C16.7258 11.7124 16.3532 10.9861 16.2505 10.1998C16.1985 10.0121 16.0982 9.8414 15.9597 9.70458C15.8211 9.56777 15.6491 9.46967 15.4608 9.42006C15.2725 9.37045 15.0744 9.37107 14.8864 9.42185C14.6984 9.47263 14.527 9.5718 14.3893 9.70948V9.70948Z" fill="white"/>
<path d="M13.8422 11.4508L13.8221 11.4708C13.2784 12.0698 12.5396 12.4563 11.7375 12.5615C11.5482 12.6113 11.3756 12.7104 11.2371 12.8486C11.0987 12.9869 10.9993 13.1593 10.9491 13.3485C10.899 13.5376 10.8998 13.7366 10.9516 13.9253C11.0033 14.114 11.1042 14.2856 11.2438 14.4227C11.3926 14.5711 11.5803 14.6744 11.7853 14.7207C11.9903 14.767 12.2042 14.7543 12.4023 14.6842C12.6004 14.6141 12.7746 14.4894 12.9049 14.3245C13.0351 14.1596 13.1161 13.9612 13.1384 13.7523C13.2749 13.0187 13.6473 12.3499 14.1991 11.8477C14.2517 11.8004 14.2834 11.7341 14.2871 11.6634C14.2909 11.5927 14.2664 11.5234 14.2191 11.4708C14.1718 11.4181 14.1055 11.3865 14.0348 11.3827C13.9641 11.3789 13.8948 11.4034 13.8422 11.4508V11.4508Z" fill="white"/>
<path d="M7.11133 1.83476C5.11335 2.05489 3.30218 2.90878 2.00133 4.24298C1.48433 4.77 1.06405 5.36371 0.753857 5.99746C0.270067 6.97127 0.0548887 8.05654 0.130526 9.14127C0.206163 10.226 0.569877 11.2709 1.18413 12.1681C1.5377 12.7018 2.11807 13.3689 2.64842 13.8426L2.40827 15.7305L2.38158 15.8105C2.3749 15.8339 2.3749 15.8606 2.37158 15.8839L2.3649 15.9439L2.37158 16.004C2.3804 16.1063 2.41503 16.2047 2.47223 16.29C2.52942 16.3752 2.60732 16.4446 2.69862 16.4916C2.78992 16.5386 2.89165 16.5616 2.99429 16.5586C3.09693 16.5556 3.19713 16.5266 3.2855 16.4743H3.2955L3.3322 16.4476L3.90591 16.1608L5.61702 15.3002C6.43013 15.5339 7.27262 15.6496 8.11864 15.6437C9.16483 15.6461 10.2034 15.4655 11.1873 15.1101C10.9476 15.0309 10.742 14.8725 10.6044 14.6609C10.4668 14.4493 10.4053 14.1972 10.4302 13.946C9.41251 14.2731 8.33691 14.38 7.27478 14.2595L7.10467 14.2362C6.72119 14.1861 6.34207 14.1069 5.9706 13.9994C5.8704 13.9682 5.76492 13.9578 5.66055 13.9686C5.55619 13.9795 5.45514 14.0115 5.36353 14.0627L5.31684 14.0861L3.90926 14.9133L3.84921 14.95C3.81586 14.97 3.79918 14.9766 3.7825 14.9766C3.75744 14.9749 3.73402 14.9635 3.71721 14.9448C3.7004 14.9262 3.69152 14.9017 3.69244 14.8766L3.74581 14.6598L3.8092 14.4229L3.90926 14.0327L4.02601 13.5991C4.06394 13.481 4.06374 13.354 4.02542 13.236C3.9871 13.1181 3.91261 13.0152 3.81252 12.942C3.25932 12.5313 2.77901 12.0307 2.39161 11.461C1.90601 10.7547 1.61782 9.93156 1.55683 9.07661C1.49585 8.22165 1.66427 7.36592 2.0447 6.59785C2.29821 6.09085 2.63176 5.62055 3.04535 5.19694C4.11272 4.09622 5.61369 3.39577 7.27478 3.21565C7.84897 3.15231 8.42838 3.15231 9.00257 3.21565C10.6536 3.40577 12.148 4.11624 13.2086 5.21028C13.6189 5.63389 13.9525 6.11086 14.1993 6.61787C14.5295 7.29165 14.6963 8.00544 14.6963 8.73591C14.6963 8.81262 14.6896 8.88933 14.6863 8.96272C14.899 8.83171 15.1497 8.77625 15.3978 8.8053C15.646 8.83435 15.8771 8.94621 16.0538 9.12282L16.1039 9.18287C16.1895 8.09344 15.9798 7.00108 15.4968 6.02082C15.1807 5.37447 14.7641 4.78231 14.2627 4.26634C12.8974 2.89386 11.0987 2.03693 9.17267 1.84142C8.48789 1.76349 7.7966 1.76125 7.11133 1.83474V1.83476Z" fill="white"/>
</svg>
