<svg width="24" height="24" viewBox="0 0 24 24" fill="none" xmlns="http://www.w3.org/2000/svg">
<path d="M6.85714 13.2857C7.02764 13.2857 7.19115 13.3534 7.31171 13.474C7.43227 13.5946 7.5 13.7581 7.5 13.9286V20.3571C7.5 20.5276 7.43227 20.6912 7.31171 20.8117C7.19115 20.9323 7.02764 21 6.85714 21H3.64286C3.47236 21 3.30885 20.9323 3.18829 20.8117C3.06773 20.6912 3 20.5276 3 20.3571V13.9286C3 13.7581 3.06773 13.5946 3.18829 13.474C3.30885 13.3534 3.47236 13.2857 3.64286 13.2857H6.85714ZM13.6071 3C13.7776 3 13.9412 3.06773 14.0617 3.18829C14.1823 3.30885 14.25 3.47236 14.25 3.64286V20.3571C14.25 20.5276 14.1823 20.6912 14.0617 20.8117C13.9412 20.9323 13.7776 21 13.6071 21H10.3929C10.2224 21 10.0588 20.9323 9.93829 20.8117C9.81773 20.6912 9.75 20.5276 9.75 20.3571V3.64286C9.75 3.47236 9.81773 3.30885 9.93829 3.18829C10.0588 3.06773 10.2224 3 10.3929 3H13.6071ZM20.3571 8.78571C20.5276 8.78571 20.6912 8.85344 20.8117 8.974C20.9323 9.09456 21 9.25808 21 9.42857V20.3571C21 20.5276 20.9323 20.6912 20.8117 20.8117C20.6912 20.9323 20.5276 21 20.3571 21H17.1429C16.9724 21 16.8088 20.9323 16.6883 20.8117C16.5677 20.6912 16.5 20.5276 16.5 20.3571V9.42857C16.5 9.25808 16.5677 9.09456 16.6883 8.974C16.8088 8.85344 16.9724 8.78571 17.1429 8.78571H20.3571Z" fill="#364256"/>
</svg>
