<svg width="21" height="20" viewBox="0 0 21 20" fill="none" xmlns="http://www.w3.org/2000/svg">
<path d="M7.67157 0H14.005C14.5158 0 14.9309 0.415128 14.9309 0.925935V6.19605C14.9309 6.70686 14.5158 7.12198 14.005 7.12198H7.67157C7.16077 7.12198 6.74564 6.70686 6.74564 6.19605V0.925935C6.74564 0.415128 7.16077 0 7.67157 0ZM2.13448 12.8782H7.85059C8.53269 12.8782 9.08517 13.4307 9.08517 14.1128V18.7656C9.08517 19.4477 8.53269 20.0002 7.85059 20.0002H2.13448C1.45238 20.0002 0.899902 19.4477 0.899902 18.7656V14.1128C0.899902 13.4307 1.45238 12.8782 2.13448 12.8782ZM13.934 12.8782H19.6501C20.3322 12.8782 20.8847 13.4307 20.8847 14.1128V18.7656C20.8847 19.4477 20.3322 20.0002 19.6501 20.0002H13.934C13.2519 20.0002 12.6994 19.4477 12.6994 18.7656V14.1128C12.6994 13.4307 13.2519 12.8782 13.934 12.8782Z" fill="#364256"/>
<path d="M7.67157 0H14.005C14.5158 0 14.9309 0.415128 14.9309 0.925935V6.19605C14.9309 6.70686 14.5158 7.12198 14.005 7.12198H7.67157C7.16077 7.12198 6.74564 6.70686 6.74564 6.19605V0.925935C6.74564 0.415128 7.16077 0 7.67157 0ZM2.13448 12.8782H7.85059C8.53269 12.8782 9.08517 13.4307 9.08517 14.1128V18.7656C9.08517 19.4477 8.53269 20.0002 7.85059 20.0002H2.13448C1.45238 20.0002 0.899902 19.4477 0.899902 18.7656V14.1128C0.899902 13.4307 1.45238 12.8782 2.13448 12.8782ZM13.934 12.8782H19.6501C20.3322 12.8782 20.8847 13.4307 20.8847 14.1128V18.7656C20.8847 19.4477 20.3322 20.0002 19.6501 20.0002H13.934C13.2519 20.0002 12.6994 19.4477 12.6994 18.7656V14.1128C12.6994 13.4307 13.2519 12.8782 13.934 12.8782Z" fill="#364256"/>
</svg>
