<svg width="24" height="24" viewBox="0 0 24 24" fill="none" xmlns="http://www.w3.org/2000/svg">
<path d="M12.0023 21.9989C9.68884 21.9991 7.44687 21.1972 5.65841 19.7296C3.86996 18.2621 2.6457 16.2199 2.19422 13.9509C1.74275 11.6819 2.092 9.32651 3.18248 7.28616C4.27295 5.2458 6.03717 3.64668 8.17451 2.76129C10.3119 1.87589 12.6901 1.759 14.904 2.43053C17.1178 3.10206 19.0304 4.52046 20.3157 6.44404C21.601 8.36762 22.1795 10.6774 21.9527 12.9797C21.726 15.282 20.7079 17.4345 19.0719 19.0703C18.1457 20.0017 17.044 20.74 15.8305 21.2427C14.617 21.7454 13.3158 22.0025 12.0023 21.9989ZM12.5023 6.07854C12.4611 6.07827 12.4203 6.08671 12.3826 6.1033C12.3449 6.11988 12.3112 6.14424 12.2836 6.17478L7.6388 11.3845C7.59226 11.4359 7.56643 11.5027 7.56631 11.572C7.56794 11.648 7.59939 11.7204 7.65387 11.7735C7.70834 11.8265 7.78149 11.8561 7.85754 11.8557H10.3637C10.4409 11.8564 10.5148 11.8874 10.5693 11.9422C10.6238 11.9969 10.6546 12.071 10.6549 12.1482C10.6612 12.8233 10.611 13.4977 10.5049 14.1644L10.4837 14.3293C10.4211 15.0275 10.1999 15.7022 9.8371 16.302C9.47428 16.9018 8.97935 17.4109 8.39001 17.7904L8.37501 17.8029L8.25002 17.9029C8.2084 17.9348 8.17651 17.9776 8.15796 18.0267C8.1394 18.0757 8.13492 18.1289 8.14503 18.1804C8.16156 18.2546 8.20622 18.3195 8.26963 18.3615C8.33303 18.4034 8.41024 18.4192 8.48501 18.4054C10.0471 18.1588 11.4865 17.4107 12.586 16.2741C13.6854 15.1374 14.3852 13.6739 14.5797 12.1045C14.5888 12.0351 14.6229 11.9714 14.6756 11.9254C14.7283 11.8794 14.796 11.8542 14.8659 11.8545H17.1495C17.2195 11.8542 17.2871 11.8294 17.3408 11.7845C17.3693 11.7601 17.3927 11.7302 17.4096 11.6966C17.4265 11.6631 17.4365 11.6265 17.4391 11.589C17.4416 11.5515 17.4367 11.5139 17.4245 11.4784C17.4124 11.4428 17.3932 11.4101 17.3683 11.382L12.726 6.16978C12.7181 6.16025 12.7093 6.15146 12.6998 6.14353C12.6425 6.098 12.5703 6.07529 12.4973 6.07978L12.5023 6.07854Z" fill="#364256"/>
</svg>
