<svg width="24" height="24" viewBox="0 0 24 24" fill="none" xmlns="http://www.w3.org/2000/svg">
<g clip-path="url(#clip0_1531_10341)">
<path d="M3.43354 11.8519C3.0548 11.4162 2.88279 10.8381 2.96176 10.2663L3.91794 3.34105C4.01627 2.98136 4.32135 2.71615 4.69123 2.66884L11.6821 2.68576C12.2594 2.68716 12.808 2.93795 13.1867 3.37364L21.069 12.4411C21.4034 12.8259 21.3626 13.4089 20.9779 13.7434L12.618 21.0105C12.2333 21.345 11.6503 21.3042 11.3158 20.9194L3.43354 11.8519Z" fill="#364256"/>
<path fill-rule="evenodd" clip-rule="evenodd" d="M8.92428 10.1318C7.90468 10.1318 7.07812 9.30521 7.07812 8.28561C7.07812 7.266 7.90468 6.43945 8.92428 6.43945C9.94388 6.43945 10.7704 7.266 10.7704 8.28561C10.7704 9.30521 9.94388 10.1318 8.92428 10.1318Z" fill="white"/>
</g>
<defs>
<clipPath id="clip0_1531_10341">
<rect width="24" height="24" fill="white"/>
</clipPath>
</defs>
</svg>
