<svg width="18" height="18" viewBox="0 0 18 18" fill="none" xmlns="http://www.w3.org/2000/svg">
<path d="M3.85714 10.2857C4.02764 10.2857 4.19115 10.3534 4.31171 10.474C4.43227 10.5946 4.5 10.7581 4.5 10.9286V17.3571C4.5 17.5276 4.43227 17.6912 4.31171 17.8117C4.19115 17.9323 4.02764 18 3.85714 18H0.642857C0.472361 18 0.308848 17.9323 0.188288 17.8117C0.0677294 17.6912 0 17.5276 0 17.3571V10.9286C0 10.7581 0.0677294 10.5946 0.188288 10.474C0.308848 10.3534 0.472361 10.2857 0.642857 10.2857H3.85714ZM10.6071 0C10.7776 0 10.9412 0.0677294 11.0617 0.188288C11.1823 0.308848 11.25 0.472361 11.25 0.642857V17.3571C11.25 17.5276 11.1823 17.6912 11.0617 17.8117C10.9412 17.9323 10.7776 18 10.6071 18H7.39286C7.22236 18 7.05885 17.9323 6.93829 17.8117C6.81773 17.6912 6.75 17.5276 6.75 17.3571V0.642857C6.75 0.472361 6.81773 0.308848 6.93829 0.188288C7.05885 0.0677294 7.22236 0 7.39286 0H10.6071ZM17.3571 5.78571C17.5276 5.78571 17.6912 5.85344 17.8117 5.974C17.9323 6.09456 18 6.25808 18 6.42857V17.3571C18 17.5276 17.9323 17.6912 17.8117 17.8117C17.6912 17.9323 17.5276 18 17.3571 18H14.1429C13.9724 18 13.8088 17.9323 13.6883 17.8117C13.5677 17.6912 13.5 17.5276 13.5 17.3571V6.42857C13.5 6.25808 13.5677 6.09456 13.6883 5.974C13.8088 5.85344 13.9724 5.78571 14.1429 5.78571H17.3571Z" fill="#364256"/>
</svg>
