<svg width="24" height="24" viewBox="0 0 24 24" fill="none" xmlns="http://www.w3.org/2000/svg">
<path d="M12 2C6.47768 2 2 6.47768 2 12C2 17.5223 6.47768 22 12 22C17.5223 22 22 17.5223 22 12C22 6.47768 17.5223 2 12 2Z" fill="#364256"/>
<path d="M15.0479 9.17273C13.6985 9.56359 13.4515 10.6712 13.5385 11.3748C12.576 10.2258 12.6155 8.90414 12.6155 7C9.52872 8.182 10.2459 11.59 10.154 12.6249C9.37752 11.9796 9.23085 10.4377 9.23085 10.4377C8.41114 10.8658 8 12.0097 8 12.9375C8 15.1812 9.79092 17 12 17C14.209 17 16 15.1812 16 12.9375C16 11.6041 15.036 10.9888 15.0477 9.17273H15.0479Z" fill="white"/>
</svg>
