<svg width="24" height="24" viewBox="0 0 24 24" fill="none" xmlns="http://www.w3.org/2000/svg">
<path fill-rule="evenodd" clip-rule="evenodd" d="M18.8129 16.374C18.8228 16.3538 18.8089 16.3301 18.7865 16.3289C18.7636 16.3276 18.7492 16.3035 18.759 16.2828C19.0374 15.6961 19.2439 15.0634 19.3653 14.3938C19.8709 11.6051 18.7702 8.89686 16.7223 7.22036C16.1849 6.7805 15.8502 6.12355 16.118 5.48289C16.1311 5.45154 16.1424 5.42522 16.1511 5.405C16.1562 5.39321 16.1582 5.38712 16.1597 5.38253C16.1621 5.37505 16.1632 5.37159 16.1746 5.35397C16.4461 4.93323 17.2355 4.65038 17.6453 4.93808C20.1744 6.71339 21.7789 9.61512 21.8617 12.7817C21.9634 14.601 21.5681 16.4462 20.5521 18.1512C20.4485 18.325 20.3404 18.4945 20.2281 18.6596C19.6864 19.456 18.4934 19.2306 17.666 18.7375C17.4744 18.6233 17.4246 18.3518 17.5757 18.1879C17.9231 17.8108 18.237 17.3923 18.5099 16.9343C18.6196 16.7501 18.7206 16.5632 18.8129 16.374ZM11.6314 22.9791C11.7855 22.9854 11.9398 22.9589 12.0939 22.9569C13.1119 22.9441 14.1039 22.7738 15.0414 22.4659C15.6357 22.2707 15.8133 21.5116 15.589 20.9277C15.3687 20.3545 14.7304 20.0778 14.1429 20.2564C13.0351 20.5933 11.8328 20.6788 10.6151 20.458C10.226 20.3874 9.84939 20.2882 9.487 20.1628C9.04381 20.0022 8.60937 19.7976 8.18943 19.5473C7.15575 18.9313 6.32324 18.1066 5.71364 17.1589C5.38819 16.6529 4.62681 16.5261 4.08045 16.7778C3.56369 17.016 3.21552 17.6123 3.50354 18.103C3.88856 18.759 4.35187 19.375 4.88957 19.9354C4.89648 19.9426 4.89445 19.9545 4.8855 19.9589C4.87645 19.9633 4.87434 19.9753 4.88139 19.9825C5.92444 21.0492 7.2154 21.8887 8.68504 22.4011C9.64724 22.749 10.6407 22.9388 11.6314 22.9791ZM10.1279 3.36218C10.1159 3.36457 10.1055 3.35343 10.1087 3.34156C10.112 3.32964 10.1017 3.31838 10.0895 3.32071C6.18914 4.07068 2.96292 7.14102 2.21181 11.2836C2.13679 11.6974 2.08864 12.1098 2.06613 12.519C2.02696 13.231 2.6808 13.5835 3.38242 13.7107C3.88532 13.8019 4.41226 13.1672 4.43965 12.6569C4.45652 12.3425 4.49328 12.0256 4.55092 11.7078C4.64171 11.207 4.78009 10.7269 4.96055 10.2712C4.98905 10.1992 5.0299 10.1329 5.0663 10.0646C5.15943 9.88979 5.26689 9.72069 5.37548 9.5498C5.44306 9.44345 5.51108 9.33641 5.57636 9.22687C6.7872 7.19498 8.80472 5.94041 10.9768 5.62826C12.0456 5.47466 12.9907 4.52484 13.5434 3.59728C13.6225 3.46464 13.5501 3.28678 13.3971 3.26575C12.3019 3.11515 11.1967 3.15119 10.1279 3.36218Z" fill="#364256"/>
<circle cx="12.2006" cy="4.59401" r="3.09468" transform="rotate(10.2048 12.2006 4.59401)" fill="#364256"/>
<circle cx="4.60236" cy="17.7188" r="3.10125" transform="rotate(10.2048 4.60236 17.7188)" fill="#364256"/>
<circle cx="19.4054" cy="17.787" r="3.09439" transform="rotate(10.2048 19.4054 17.787)" fill="#364256"/>
</svg>
