<svg width="20" height="20" viewBox="0 0 20 20" fill="none" xmlns="http://www.w3.org/2000/svg">
<path d="M10 0C4.47768 0 0 4.47768 0 10C0 15.5223 4.47768 20 10 20C15.5223 20 20 15.5223 20 10C20 4.47768 15.5223 0 10 0ZM14.1719 10.4799C14.1719 10.9397 13.7946 11.317 13.3348 11.317H9.43304C9.02455 11.317 8.68304 11.0223 8.61161 10.6339C8.58705 10.5536 8.57366 10.471 8.57366 10.3839V5.07813C8.57366 4.6183 8.95089 4.24107 9.41071 4.24107H9.53571C9.99554 4.24107 10.3728 4.6183 10.3728 5.07813V9.51786H13.3371C13.7969 9.51786 14.1741 9.89509 14.1741 10.3549V10.4799H14.1719Z" fill="#364256"/>
</svg>
