<svg width="120" height="120" viewBox="0 0 120 120" fill="none" xmlns="http://www.w3.org/2000/svg">
<g filter="url(#filter0_d_1531_5948)">
<rect x="20" y="10" width="80" height="80" rx="20" fill="url(#paint0_linear_1531_5948)"/>
<path fill-rule="evenodd" clip-rule="evenodd" d="M80.0884 41.317H82.5816C82.8006 41.317 82.9757 41.1391 82.9785 40.9256V38.9273C82.9785 38.774 82.8909 38.6372 82.7541 38.5715L61.2179 28.271C60.8445 28.0926 60.4358 28 60.022 28C59.6081 28 59.1994 28.0926 58.826 28.271L37.2898 38.5715C37.153 38.6372 37.0654 38.7768 37.0654 38.9273V40.9256C37.0654 41.1445 37.2406 41.3197 37.4595 41.3197H40.0924C40.1964 41.3197 40.2976 41.3608 40.3715 41.4347L41.7673 42.8362C41.8412 42.9101 41.9425 42.9512 42.0465 42.9512H78.2438C78.3532 42.9512 78.46 42.9046 78.5339 42.8225L79.7983 41.4456C79.8722 41.3635 79.9789 41.317 80.0884 41.317ZM76.4593 64.2474H78.0713C78.9608 64.2474 79.6833 65.0193 79.6833 65.9664V67.2174H40.4126V65.9664C40.4126 65.0166 41.1351 64.2474 42.0246 64.2474H43.6858V45.8609C43.6858 45.2834 44.1237 44.818 44.6629 44.818H48.374C48.9132 44.818 49.3511 45.2861 49.3511 45.8609V64.2474H52.7201V45.8609C52.7201 45.2834 53.158 44.818 53.6971 44.818H57.411C57.9502 44.818 58.3881 45.2861 58.3881 45.8609V64.2474H61.7598V45.8609C61.7598 45.2834 62.1977 44.818 62.7369 44.818H66.448C66.9872 44.818 67.4251 45.2861 67.4251 45.8609V64.2474H70.7941V45.8609C70.7941 45.2834 71.232 44.818 71.7712 44.818H75.4823C76.0215 44.818 76.4593 45.2861 76.4593 45.8609V64.2474ZM38.4318 72.0004H82.5686C83.3229 72.0004 83.935 71.3576 83.935 70.5656C83.935 69.7736 83.3229 69.1309 82.5686 69.1309H38.4318C37.6776 69.1309 37.0654 69.7736 37.0654 70.5656C37.0654 71.3576 37.6776 72.0004 38.4318 72.0004Z" fill="url(#paint1_linear_1531_5948)"/>
<path opacity="0.6" d="M67.2545 39.4789H53.7446C52.9854 39.4789 52.3691 38.8362 52.3691 38.0442C52.3691 37.2522 52.9854 36.6094 53.7446 36.6094H67.2545C68.0138 36.6094 68.63 37.2522 68.63 38.0442C68.63 38.8362 68.0138 39.4789 67.2545 39.4789Z" fill="#0857FF"/>
</g>
<defs>
<filter id="filter0_d_1531_5948" x="0" y="0" width="120" height="120" filterUnits="userSpaceOnUse" color-interpolation-filters="sRGB">
<feFlood flood-opacity="0" result="BackgroundImageFix"/>
<feColorMatrix in="SourceAlpha" type="matrix" values="0 0 0 0 0 0 0 0 0 0 0 0 0 0 0 0 0 0 127 0" result="hardAlpha"/>
<feOffset dy="10"/>
<feGaussianBlur stdDeviation="10"/>
<feComposite in2="hardAlpha" operator="out"/>
<feColorMatrix type="matrix" values="0 0 0 0 0.164706 0 0 0 0 0.435294 0 0 0 0 1 0 0 0 0.1 0"/>
<feBlend mode="normal" in2="BackgroundImageFix" result="effect1_dropShadow_1531_5948"/>
<feBlend mode="normal" in="SourceGraphic" in2="effect1_dropShadow_1531_5948" result="shape"/>
</filter>
<linearGradient id="paint0_linear_1531_5948" x1="41.0753" y1="10" x2="75.5885" y2="88.44" gradientUnits="userSpaceOnUse">
<stop stop-color="#0555FF"/>
<stop offset="1" stop-color="#4380FF"/>
</linearGradient>
<linearGradient id="paint1_linear_1531_5948" x1="64.406" y1="47.6835" x2="76.8864" y2="75.1286" gradientUnits="userSpaceOnUse">
<stop stop-color="white"/>
<stop offset="1" stop-color="white" stop-opacity="0.6"/>
</linearGradient>
</defs>
</svg>
