<svg width="120" height="120" viewBox="0 0 120 120" fill="none" xmlns="http://www.w3.org/2000/svg">
<g filter="url(#filter0_d_1531_5336)">
<rect x="20" y="10" width="80" height="80" rx="20" fill="url(#paint0_radial_1531_5336)"/>
<path d="M77.6908 32.4283L62.1114 27.3016C60.7327 26.8995 59.2679 26.8995 57.8892 27.3016L42.3098 32.4283C39.8976 33.232 38.2891 35.4439 38.2891 38.0565V49.3151C38.2891 56.6525 41.8072 63.587 47.5362 67.91C47.6369 68.0108 47.8384 68.1115 48.0399 68.2122C48.4417 68.4126 48.7428 68.7137 49.2454 69.0159C50.451 69.9204 51.6577 70.7241 52.8643 71.5278C52.9651 71.6285 52.9651 71.6285 53.1654 71.6285C58.1914 75.1467 58.8944 75.5486 60.0003 75.5486C61.207 75.5486 61.9099 75.046 66.8352 71.6285C67.0366 71.6285 67.0366 71.6285 67.1374 71.5278C68.3429 70.7241 69.5496 69.8197 70.7552 69.0159C71.1581 68.7137 71.56 68.4115 71.9619 68.2111C72.1633 68.0096 72.3637 67.9089 72.3637 67.9089C78.1934 63.5881 81.7115 56.6525 81.7115 49.3151V37.9569C81.7115 35.4439 80.103 33.1324 77.6908 32.4272V32.4283Z" fill="url(#paint1_linear_1531_5336)"/>
<path opacity="0.8" d="M52.1604 38.0563C51.256 37.9556 50.7534 38.3586 50.5519 39.0615C49.9485 42.2786 49.1448 44.8912 48.0389 47.0023C47.5363 47.8071 47.3359 48.5101 47.3359 49.0127C47.6382 50.2194 48.3411 50.5205 49.5467 49.9172V60.4717C49.6474 61.3761 50.0504 61.778 50.9537 61.778C51.8593 61.6772 52.2612 61.2754 52.3619 60.3709V44.0875C52.663 43.0823 52.9641 41.5745 53.366 39.4645C53.366 38.6597 52.9641 38.1571 52.1604 38.0563ZM71.2579 50.4197C71.2579 49.5153 70.8561 49.1134 69.9516 49.0127H63.2175V47.7064H67.4375C68.9464 47.8071 69.7501 47.1031 69.5498 45.5953V41.073C69.6505 39.5641 68.9453 38.7604 67.2372 38.8612H56.7845C55.0752 38.7604 54.1708 39.4634 54.2715 40.9712V45.5953C54.07 47.2038 54.9745 47.9068 56.8841 47.7064H60.3016V49.0127H54.6734C53.6682 49.1134 53.1656 49.5164 53.0649 50.4197C53.1656 51.3242 53.6682 51.7272 54.6734 51.8268H59.2964C57.7886 54.0387 55.7793 56.049 53.5675 57.8579C52.7637 58.562 52.663 59.1654 53.2652 59.8683C54.0712 60.4717 54.8738 60.4717 55.6786 59.8683C57.1864 58.9639 58.7938 57.3553 60.3016 55.2453V60.4717C60.4023 61.3761 60.906 61.778 61.8094 61.778C62.7149 61.6772 63.1168 61.1746 63.2164 60.2702V55.345C65.1272 57.4561 66.7346 58.9639 67.9401 59.7676C69.0472 60.672 70.0524 60.672 70.7553 59.7676C71.1583 59.265 71.0576 58.6628 70.4531 58.0594C67.6401 55.9483 65.5279 53.9379 63.8197 51.8268H69.6494C70.7553 51.726 71.1572 51.3242 71.2579 50.4197ZM57.8893 44.9919C57.3867 45.0927 57.0856 44.8912 57.1864 44.3886V42.1778C57.0856 41.7749 57.3879 41.5745 57.8893 41.5745H66.1323C66.5342 41.5745 66.7346 41.776 66.7346 42.1778V44.4893C66.8353 44.8923 66.6338 45.0927 66.1323 44.9931H57.8893V44.9919Z" fill="#FF912D"/>
</g>
<defs>
<filter id="filter0_d_1531_5336" x="0" y="0" width="120" height="120" filterUnits="userSpaceOnUse" color-interpolation-filters="sRGB">
<feFlood flood-opacity="0" result="BackgroundImageFix"/>
<feColorMatrix in="SourceAlpha" type="matrix" values="0 0 0 0 0 0 0 0 0 0 0 0 0 0 0 0 0 0 127 0" result="hardAlpha"/>
<feOffset dy="10"/>
<feGaussianBlur stdDeviation="10"/>
<feColorMatrix type="matrix" values="0 0 0 0 0.988235 0 0 0 0 0.47451 0 0 0 0 0.0509804 0 0 0 0.1 0"/>
<feBlend mode="normal" in2="BackgroundImageFix" result="effect1_dropShadow_1531_5336"/>
<feBlend mode="normal" in="SourceGraphic" in2="effect1_dropShadow_1531_5336" result="shape"/>
</filter>
<radialGradient id="paint0_radial_1531_5336" cx="0" cy="0" r="1" gradientUnits="userSpaceOnUse" gradientTransform="translate(20.0099 50) scale(80.0918 371.337)">
<stop stop-color="#FC790D"/>
<stop offset="1" stop-color="#FF9A23"/>
</radialGradient>
<linearGradient id="paint1_linear_1531_5336" x1="63.6188" y1="48.7181" x2="78.9218" y2="76.9744" gradientUnits="userSpaceOnUse">
<stop stop-color="white"/>
<stop offset="1" stop-color="white" stop-opacity="0.6"/>
</linearGradient>
</defs>
</svg>
