<svg width="120" height="120" viewBox="0 0 120 120" fill="none" xmlns="http://www.w3.org/2000/svg">
<g filter="url(#filter0_d_1531_8649)">
<rect x="20" y="10" width="80" height="80" rx="20" fill="url(#paint0_radial_1531_8649)"/>
<path d="M38.2314 57.4122C38.2314 63.9058 43.4956 69.17 49.9893 69.17H50.3531V71.6375C50.3531 71.9136 50.5769 72.1375 50.8531 72.1375H69.14C69.4161 72.1375 69.64 71.9136 69.64 71.6375V69.17H70.0039C76.4975 69.17 81.7617 63.9059 81.7617 57.4122V49.0566C81.7617 48.5044 81.314 48.0566 80.7617 48.0566H39.2314C38.6792 48.0566 38.2314 48.5044 38.2314 49.0566V57.4122Z" fill="url(#paint1_linear_1531_8649)"/>
<path fill-rule="evenodd" clip-rule="evenodd" d="M51.2566 45.4909C51.1846 45.0833 51.4567 44.6945 51.8643 44.6225C52.6268 44.4879 53.1595 44.1397 53.4476 43.5875C53.6523 43.1953 53.6651 42.8318 53.6651 42.8284V33.2817C53.6651 33.209 53.676 32.5508 54.0526 31.8291C54.4065 31.1511 55.1538 30.2853 56.7042 30.0115C57.112 29.9396 57.5006 30.2117 57.5726 30.6193C57.6446 31.0269 57.3725 31.4157 56.9648 31.4877C55.256 31.7894 55.1683 33.1233 55.1641 33.2873V42.8285C55.1641 42.9012 55.1532 43.5594 54.7765 44.2811C54.4227 44.9592 53.6754 45.8249 52.125 46.0987C52.0809 46.1065 52.037 46.1102 51.9938 46.1102C51.6369 46.1102 51.3208 45.8545 51.2566 45.4909ZM39.022 36.2158H44.5425V34.7168H39.022C38.608 34.7168 38.2725 35.0524 38.2725 35.4663C38.2725 35.8802 38.608 36.2158 39.022 36.2158ZM39.022 40.4384H44.5425V38.9395H39.022C38.608 38.9395 38.2725 39.275 38.2725 39.6889C38.2725 40.1029 38.608 40.4384 39.022 40.4384ZM80.9413 36.2158H56.7925V34.7168H80.9413C81.3552 34.7168 81.6908 35.0524 81.6908 35.4663C81.6908 35.8802 81.3552 36.2158 80.9413 36.2158ZM80.9413 38.9395H56.7925V40.4384H80.9413C81.3552 40.4384 81.6908 40.1029 81.6908 39.6889C81.6908 39.275 81.3552 38.9395 80.9413 38.9395ZM47.9247 44.6225C47.5171 44.6945 47.245 45.0833 47.317 45.4909C47.3812 45.8545 47.6973 46.1102 48.0542 46.1102C48.0974 46.1102 48.1413 46.1065 48.1854 46.0987C49.7358 45.8249 50.4831 44.9592 50.8369 44.2811C51.2136 43.5594 51.2245 42.9012 51.2245 42.8285V33.2817C51.2245 33.2783 51.2373 32.9149 51.4419 32.5227C51.7301 31.9706 52.2628 31.6223 53.0252 31.4877C53.4329 31.4157 53.705 31.0269 53.633 30.6193C53.561 30.2117 53.1723 29.9396 52.7646 30.0115C51.2142 30.2853 50.4669 31.1511 50.1131 31.8292C49.7364 32.5509 49.7255 33.209 49.7255 33.2817V42.823C49.7213 42.9869 49.6335 44.3208 47.9247 44.6225ZM44.1146 46.1102C43.7577 46.1102 43.4416 45.8545 43.3774 45.4909C43.3054 45.0833 43.5775 44.6945 43.9851 44.6225C44.7476 44.4879 45.2803 44.1397 45.5685 43.5875C45.7731 43.1953 45.7859 42.8319 45.7859 42.8285V33.2817C45.7859 33.209 45.7968 32.5509 46.1734 31.8292C46.5273 31.1511 47.2746 30.2853 48.825 30.0115C49.2326 29.9396 49.6214 30.2117 49.6934 30.6193C49.7654 31.0269 49.4932 31.4157 49.0856 31.4877C48.3231 31.6223 47.7905 31.9706 47.5023 32.5227C47.2976 32.9149 47.2848 33.2783 47.2848 33.2817V42.8285C47.2848 42.9012 47.274 43.5594 46.8973 44.2811C46.5434 44.9592 45.7962 45.8249 44.2458 46.0987C44.2017 46.1065 44.1578 46.1102 44.1146 46.1102Z" fill="url(#paint2_linear_1531_8649)"/>
<rect opacity="0.4" x="41" y="52" width="38" height="2" rx="1" fill="#FC790D"/>
</g>
<defs>
<filter id="filter0_d_1531_8649" x="0" y="0" width="120" height="120" filterUnits="userSpaceOnUse" color-interpolation-filters="sRGB">
<feFlood flood-opacity="0" result="BackgroundImageFix"/>
<feColorMatrix in="SourceAlpha" type="matrix" values="0 0 0 0 0 0 0 0 0 0 0 0 0 0 0 0 0 0 127 0" result="hardAlpha"/>
<feOffset dy="10"/>
<feGaussianBlur stdDeviation="10"/>
<feColorMatrix type="matrix" values="0 0 0 0 0.988235 0 0 0 0 0.47451 0 0 0 0 0.0509804 0 0 0 0.1 0"/>
<feBlend mode="normal" in2="BackgroundImageFix" result="effect1_dropShadow_1531_8649"/>
<feBlend mode="normal" in="SourceGraphic" in2="effect1_dropShadow_1531_8649" result="shape"/>
</filter>
<radialGradient id="paint0_radial_1531_8649" cx="0" cy="0" r="1" gradientUnits="userSpaceOnUse" gradientTransform="translate(20.0099 50) scale(80.0918 371.337)">
<stop stop-color="#FC790D"/>
<stop offset="1" stop-color="#FF9A23"/>
</radialGradient>
<linearGradient id="paint1_linear_1531_8649" x1="52.9736" y1="60.5141" x2="58.4492" y2="78.7955" gradientUnits="userSpaceOnUse">
<stop stop-color="white"/>
<stop offset="1" stop-color="white" stop-opacity="0.4"/>
</linearGradient>
<linearGradient id="paint2_linear_1531_8649" x1="52.9768" y1="35.7537" x2="57.4088" y2="52.318" gradientUnits="userSpaceOnUse">
<stop stop-color="white"/>
<stop offset="1" stop-color="white" stop-opacity="0.4"/>
</linearGradient>
</defs>
</svg>
