<svg width="120" height="120" viewBox="0 0 120 120" fill="none" xmlns="http://www.w3.org/2000/svg">
<g filter="url(#filter0_d_1531_10491)">
<rect x="20" y="10" width="80" height="80" rx="20" fill="#BB3DFF"/>
<path d="M54.2891 21.7109H54.6875V27.5547H54.2891V21.7109ZM65.1797 21.7109H65.6445V27.5547H65.1797V21.7109Z" fill="url(#paint0_linear_1531_10491)"/>
<path d="M60.0139 77.9038C65.11 79.0975 67.4478 77.2388 67.4478 77.2388C72.3859 78.3267 74.5709 75.7474 74.5709 75.7474L74.3283 74.7013C77.4961 74.9128 80.7571 72.481 80.7571 72.481C80.7571 72.481 74.2929 56.8063 65.1534 38.5992L65.0817 36.4818C65.5124 33.3715 66.5173 31.7446 66.5173 31.7446C67.7016 33.5031 68.2161 34.7353 68.2161 34.7353C68.2161 34.7353 68.2761 38.2403 67.9891 39.4605C68.2905 40.0278 69.9101 40.0483 71.2687 40.0482C71.3003 40.1762 71.3454 40.3658 71.3549 40.3792C72.6045 40.2916 73.8545 39.6374 74.7601 38.7953C74.3295 37.2521 72.6252 34.5439 72.6252 34.5439L68.2681 26.0107L60.0139 26.0265L51.7596 26.0078L47.3813 34.5439C47.3813 34.5439 45.6735 37.2521 45.2429 38.7953C46.1485 39.6374 47.3967 40.2917 48.6462 40.3792C48.6557 40.3658 48.7 40.1762 48.7316 40.0482C50.0902 40.0484 51.7094 40.0279 52.0108 39.4605C51.7238 38.2403 51.7835 34.7353 51.7835 34.7353C51.7835 34.7353 52.2979 33.5031 53.4822 31.7446C53.4822 31.7446 54.4871 33.3715 54.9177 36.4818L54.8459 38.5992C45.7064 56.8063 39.2422 72.481 39.2422 72.481C39.2422 72.481 42.5032 74.9128 45.671 74.7013L45.4285 75.7474C45.4285 75.7474 47.6276 78.3267 52.5657 77.2388C52.5658 77.2388 54.9178 79.0975 60.0139 77.9038Z" fill="url(#paint1_linear_1531_10491)"/>
<path d="M74.3282 74.7001L74.6399 74.7125C74.6399 74.7125 74.3646 73.3734 69.0293 59.0421L74.3282 74.7001ZM67.4335 77.2375L67.7851 77.2862C67.7851 77.2862 66.8998 72.4642 65.3447 66.3154L67.4335 77.2375ZM71.2677 40.0469L70.9761 40.0464L70.5813 36.8125C70.5814 36.8125 70.9896 38.6203 71.2677 40.0469ZM52.5657 77.2375L52.2142 77.2862C52.2142 77.2862 53.0994 72.4642 54.6545 66.3154L52.5657 77.2375ZM45.671 74.7001L45.3594 74.7125C45.3594 74.7125 45.6346 73.3734 50.97 59.0421L45.671 74.7001ZM48.7315 40.0469L49.0231 40.0464L49.4179 36.8125C49.4179 36.8125 49.0097 38.6203 48.7315 40.0469ZM59.8816 77.9329L60.0138 77.9026L60.1458 77.9329L59.9996 71.3038L59.8816 77.9329Z" fill="url(#paint2_linear_1531_10491)"/>
</g>
<defs>
<filter id="filter0_d_1531_10491" x="0" y="0" width="120" height="120" filterUnits="userSpaceOnUse" color-interpolation-filters="sRGB">
<feFlood flood-opacity="0" result="BackgroundImageFix"/>
<feColorMatrix in="SourceAlpha" type="matrix" values="0 0 0 0 0 0 0 0 0 0 0 0 0 0 0 0 0 0 127 0" result="hardAlpha"/>
<feOffset dy="10"/>
<feGaussianBlur stdDeviation="10"/>
<feColorMatrix type="matrix" values="0 0 0 0 0.733333 0 0 0 0 0.239216 0 0 0 0 1 0 0 0 0.1 0"/>
<feBlend mode="normal" in2="BackgroundImageFix" result="effect1_dropShadow_1531_10491"/>
<feBlend mode="normal" in="SourceGraphic" in2="effect1_dropShadow_1531_10491" result="shape"/>
</filter>
<linearGradient id="paint0_linear_1531_10491" x1="58.1348" y1="23.42" x2="60.7696" y2="29.6468" gradientUnits="userSpaceOnUse">
<stop stop-color="white"/>
<stop offset="1" stop-color="white" stop-opacity="0.4"/>
</linearGradient>
<linearGradient id="paint1_linear_1531_10491" x1="53.3019" y1="41.3026" x2="86.132" y2="72.9994" gradientUnits="userSpaceOnUse">
<stop stop-color="white"/>
<stop offset="1" stop-color="white" stop-opacity="0.4"/>
</linearGradient>
<linearGradient id="paint2_linear_1531_10491" x1="55.2757" y1="48.8388" x2="80.841" y2="70.9789" gradientUnits="userSpaceOnUse">
<stop stop-color="white"/>
<stop offset="1" stop-color="white" stop-opacity="0.4"/>
</linearGradient>
</defs>
</svg>
