<svg width="120" height="120" viewBox="0 0 120 120" fill="none" xmlns="http://www.w3.org/2000/svg">
<g filter="url(#filter0_d_1531_7463)">
<rect x="20" y="10" width="80" height="80" rx="20" fill="url(#paint0_radial_1531_7463)"/>
<path d="M63.303 27C71.813 27 78.7129 33.9013 78.7129 42.414C78.7129 50.9281 71.813 57.828 63.303 57.828C54.793 57.828 47.8944 50.9281 47.8944 42.414C47.8944 33.9013 54.793 27 63.303 27ZM82.9911 59.2599C82.9911 59.2599 72.716 66.9785 65.6651 71.5327C64.7213 72.4397 62.4735 73.9423 59.1051 72.1854L47.481 68.1167C47.2798 68.1276 44.2432 66.3897 41.4297 68.386C40.9632 68.7164 41.189 68.2541 40.422 68.9693C40.6083 68.7966 38.3523 72.2616 37.9634 67.8488C37.1801 65.1209 36.9136 57.0243 36.9136 57.0243C36.9136 57.0243 42.4101 53.1079 46.9956 54.4651C48.9456 55.0417 52.5465 57.6118 57.9356 60.696C61.2714 62.8133 65.3673 61.9606 65.3673 61.9606L76.7139 56.3023C76.7126 56.3023 83.9933 52.4878 82.9911 59.2599Z" fill="url(#paint1_linear_1531_7463)"/>
<path opacity="0.6" d="M61.9856 42.4914H57.1635C57.0371 42.4914 56.9283 42.5363 56.8412 42.6261C56.7515 42.7145 56.7052 42.8232 56.7052 42.9483V44.1749C56.7052 44.3 56.7501 44.4088 56.8412 44.4972C56.9283 44.5856 57.0384 44.6319 57.1635 44.6319H62.2059V46.8416H57.1866C56.9337 46.8416 56.7284 47.0456 56.7284 47.2985V48.555C56.7284 48.8093 56.9337 49.0133 57.1866 49.0133H62.2059V51.8228C62.2059 51.9493 62.2494 52.058 62.3391 52.1451C62.4289 52.2348 62.5363 52.2811 62.6628 52.2811H63.9479C64.0757 52.2811 64.1831 52.2362 64.2715 52.1451C64.3613 52.058 64.4061 51.9479 64.4061 51.8228V49.0133H69.4009C69.6538 49.0133 69.8578 48.8093 69.8578 48.555V47.2985C69.8578 47.1721 69.8129 47.0646 69.7232 46.9749C69.6348 46.8879 69.526 46.8416 69.4009 46.8416H64.4061V44.6319H69.4091C69.6633 44.6319 69.8673 44.4279 69.8673 44.1749V42.9483C69.8673 42.8219 69.8238 42.7145 69.7327 42.6261C69.6443 42.5377 69.5355 42.4914 69.4091 42.4914H64.4796L64.4347 42.4302L69.5019 35.497C69.7317 35.1826 69.5071 34.7402 69.1176 34.7402H67.8897C67.7378 34.7402 67.5951 34.8127 67.5054 34.9353L63.2312 40.7835L58.9583 34.9354C58.8687 34.8127 58.7259 34.7402 58.574 34.7402L57.3474 34.7402C56.9579 34.7402 56.7333 35.1825 56.9631 35.497L62.0291 42.4302L61.9856 42.4914Z" fill="#6547FF"/>
</g>
<defs>
<filter id="filter0_d_1531_7463" x="0" y="0" width="120" height="120" filterUnits="userSpaceOnUse" color-interpolation-filters="sRGB">
<feFlood flood-opacity="0" result="BackgroundImageFix"/>
<feColorMatrix in="SourceAlpha" type="matrix" values="0 0 0 0 0 0 0 0 0 0 0 0 0 0 0 0 0 0 127 0" result="hardAlpha"/>
<feOffset dy="10"/>
<feGaussianBlur stdDeviation="10"/>
<feColorMatrix type="matrix" values="0 0 0 0 0.364706 0 0 0 0 0.239216 0 0 0 0 1 0 0 0 0.1 0"/>
<feBlend mode="normal" in2="BackgroundImageFix" result="effect1_dropShadow_1531_7463"/>
<feBlend mode="normal" in="SourceGraphic" in2="effect1_dropShadow_1531_7463" result="shape"/>
</filter>
<radialGradient id="paint0_radial_1531_7463" cx="0" cy="0" r="1" gradientUnits="userSpaceOnUse" gradientTransform="translate(26.88 -16.6702) rotate(66.4378) scale(110.326 98.7023)">
<stop stop-color="#5432FF"/>
<stop offset="1" stop-color="#7256FF"/>
</radialGradient>
<linearGradient id="paint1_linear_1531_7463" x1="63.8473" y1="48.0175" x2="77.8716" y2="76.4703" gradientUnits="userSpaceOnUse">
<stop stop-color="white"/>
<stop offset="1" stop-color="white" stop-opacity="0.6"/>
</linearGradient>
</defs>
</svg>
