<svg width="120" height="120" viewBox="0 0 120 120" fill="none" xmlns="http://www.w3.org/2000/svg">
<g filter="url(#filter0_d_1531_8055)">
<rect x="20" y="10" width="80" height="80" rx="20" fill="url(#paint0_radial_1531_8055)"/>
<path d="M60.8902 72.7899C65.3102 70.8755 71.782 61.7246 74.3549 57.8775C76.9325 54.0303 82.9297 44.5696 82.9995 39.7791C83.0414 37.1758 80.9477 35.0349 78.3329 34.9979C77.1186 34.9794 76.0066 35.4233 75.1551 36.1585L38.1388 32.82C37.9511 32.8045 37.7627 32.8393 37.5933 32.9209C37.4238 33.0024 37.2795 33.1277 37.1754 33.2836C37.0713 33.4395 37.0112 33.6203 37.0014 33.8072C36.9916 33.9941 37.0325 34.1801 37.1198 34.3459L54.5021 66.996C54.1485 68.0595 54.1671 69.2479 54.651 70.353C55.6978 72.739 58.4941 73.8303 60.8902 72.7899Z" fill="url(#paint1_linear_1531_8055)"/>
<path opacity="0.6" d="M68.8518 42.5841C69.666 43.1205 69.88 44.1794 69.3357 44.9886C68.8332 45.7377 67.7305 46.0105 66.9163 45.4695C66.1021 44.9331 65.8881 43.8742 66.4324 43.065C66.9768 42.2604 68.0422 42.0477 68.8518 42.5841ZM55.0288 37.6041C55.5685 36.7949 56.634 36.5822 57.4482 37.1232C58.2624 37.6596 58.4764 38.7185 57.9321 39.5277C57.4296 40.2767 56.3269 40.5496 55.5127 40.0086C54.7031 39.4675 54.4891 38.4133 55.0288 37.6041ZM44.3789 38.0434C44.9186 37.2342 45.9841 37.0214 46.7983 37.5625C47.6125 38.0988 47.8265 39.1577 47.2822 39.9669C46.7797 40.716 45.677 40.9888 44.8628 40.4478C44.0486 39.9068 43.8346 38.8479 44.3789 38.0434ZM58.5834 47.4393C59.1231 46.6301 60.1886 46.4174 61.0028 46.9584C61.817 47.4948 62.031 48.5537 61.4867 49.3629C60.9842 50.112 59.8815 50.3848 59.0673 49.8438C58.2531 49.3028 58.0391 48.2485 58.5834 47.4393ZM49.0083 46.5931C49.548 45.7839 50.6135 45.5712 51.4277 46.1122C52.2419 46.6486 52.4559 47.7075 51.9116 48.5167C51.4091 49.2658 50.3064 49.5386 49.4922 48.9976C48.678 48.4566 48.4686 47.4023 49.0083 46.5931ZM56.4572 56.8677C56.9969 56.0585 58.0623 55.8458 58.8766 56.3868C59.6908 56.9231 59.9048 57.982 59.3604 58.7912C58.8579 59.5403 57.7553 59.8131 56.9411 59.2721C56.1268 58.7311 55.9175 57.6722 56.4572 56.8677Z" fill="#FE8415"/>
<path opacity="0.4" d="M58.9769 66.2182C58.5162 65.6032 58.6465 64.7339 59.2653 64.2761C59.3212 64.2345 65.016 60.0035 68.673 54.5426C72.3299 49.0863 73.9583 41.8543 73.977 41.7804C74.0142 41.6093 74.084 41.4474 74.177 41.3087C74.4887 40.8463 75.061 40.5966 75.6379 40.7215C76.3917 40.8879 76.8662 41.6278 76.6987 42.3769C76.629 42.6913 74.9354 50.1914 70.9946 56.0778C67.0631 61.9502 61.1776 66.3199 60.9263 66.5003C60.3075 66.9627 59.4328 66.8332 58.9769 66.2182Z" fill="#FE8515"/>
</g>
<defs>
<filter id="filter0_d_1531_8055" x="0" y="0" width="120" height="120" filterUnits="userSpaceOnUse" color-interpolation-filters="sRGB">
<feFlood flood-opacity="0" result="BackgroundImageFix"/>
<feColorMatrix in="SourceAlpha" type="matrix" values="0 0 0 0 0 0 0 0 0 0 0 0 0 0 0 0 0 0 127 0" result="hardAlpha"/>
<feOffset dy="10"/>
<feGaussianBlur stdDeviation="10"/>
<feColorMatrix type="matrix" values="0 0 0 0 0.988235 0 0 0 0 0.47451 0 0 0 0 0.0509804 0 0 0 0.1 0"/>
<feBlend mode="normal" in2="BackgroundImageFix" result="effect1_dropShadow_1531_8055"/>
<feBlend mode="normal" in="SourceGraphic" in2="effect1_dropShadow_1531_8055" result="shape"/>
</filter>
<radialGradient id="paint0_radial_1531_8055" cx="0" cy="0" r="1" gradientUnits="userSpaceOnUse" gradientTransform="translate(20.0099 50) scale(80.0918 371.337)">
<stop stop-color="#FC790D"/>
<stop offset="1" stop-color="#FF9A23"/>
</radialGradient>
<linearGradient id="paint1_linear_1531_8055" x1="52.5787" y1="44.6225" x2="76.6431" y2="77.9735" gradientUnits="userSpaceOnUse">
<stop stop-color="white"/>
<stop offset="1" stop-color="white" stop-opacity="0.4"/>
</linearGradient>
</defs>
</svg>
