<svg width="120" height="120" viewBox="0 0 120 120" fill="none" xmlns="http://www.w3.org/2000/svg">
<g filter="url(#filter0_d_1531_2931)">
<rect x="20" y="10" width="80" height="80" rx="20" fill="url(#paint0_radial_1531_2931)"/>
<path fill-rule="evenodd" clip-rule="evenodd" d="M39.9125 30C38.3277 30 37.043 31.2848 37.043 32.8696V63.4783C37.043 65.0631 38.3277 66.3478 39.9125 66.3478H80.0864C81.6713 66.3478 82.956 65.0631 82.956 63.4783V32.8696C82.956 31.2847 81.6713 30 80.0864 30H39.9125ZM46.6082 70.1739C45.5517 70.1739 44.6952 71.0304 44.6952 72.087C44.6952 73.1435 45.5517 74 46.6082 74H73.3908C74.4474 74 75.3039 73.1435 75.3039 72.087C75.3039 71.0304 74.4474 70.1739 73.3908 70.1739H46.6082Z" fill="url(#paint1_linear_1531_2931)"/>
<path opacity="0.6" d="M62.914 39.6523C63.1844 39.6143 63.46 39.6382 63.7198 39.7224C63.9796 39.8066 64.2168 39.9488 64.4135 40.1382C64.6102 40.3276 64.7613 40.5593 64.8552 40.8157C64.9491 41.0721 64.9835 41.3465 64.9557 41.6182C64.8382 42.1637 64.6762 42.6986 64.4713 43.2176L60.371 55.5744C59.8978 56.9154 59.5285 59.8333 57.3759 59.1761C56.9769 59.0621 56.6293 58.8142 56.3915 58.4741C56.1537 58.134 56.0402 57.7225 56.07 57.3086C56.2856 56.3348 56.5824 55.3808 56.9575 54.4567L60.4216 44.0362L61.1911 41.7024C61.3169 41.1831 61.526 40.6875 61.8103 40.2351C62.1217 39.9487 62.502 39.7479 62.914 39.6523ZM52.1706 41.3542C52.4941 41.3106 52.8234 41.3562 53.123 41.486C53.4225 41.6158 53.6809 41.8249 53.8704 42.0908C54.0598 42.3567 54.1731 42.6692 54.1979 42.9947C54.2228 43.3202 54.1583 43.6463 54.0115 43.9379L50.765 48.3063L49.8621 49.5069C49.727 49.6339 49.6186 49.7867 49.5434 49.9562L51.352 52.3574L53.2083 54.826C53.5367 55.187 53.8231 55.5841 54.062 56.0097C54.1828 56.2982 54.2268 56.6131 54.1897 56.9236C54.1525 57.2342 54.0355 57.5298 53.8501 57.7817C53.6647 58.0335 53.4172 58.2331 53.1317 58.3608C52.8462 58.4886 52.5325 58.5401 52.2212 58.5105C51.8763 58.4643 51.5486 58.3325 51.2677 58.1272C50.95 57.8204 50.6742 57.4729 50.4477 57.0937L48.8441 54.958L46.5679 51.939C46.0964 51.462 45.7363 50.8865 45.5134 50.2539C45.2662 49.1601 46.3292 48.2431 46.7519 47.6702L49.681 43.7849C50.1635 42.9751 50.7609 42.2396 51.4545 41.6013C51.6867 41.5012 51.9261 41.4186 52.1706 41.3542ZM69.2062 41.3542C69.7004 41.3562 70.183 41.5038 70.5938 41.7785C71.0046 42.0532 71.3254 42.4429 71.5161 42.8988L73.0214 44.8998L75.2807 47.9005C75.774 48.3891 76.1416 48.9899 76.3521 49.6515C76.3392 50.1106 76.2297 50.5617 76.0305 50.9754C75.8314 51.3892 75.5472 51.7563 75.1964 52.0527L71.686 56.7202C71.4922 57.1458 71.2098 57.5251 70.8577 57.8329C70.5057 58.1407 70.092 58.3698 69.6443 58.5049C69.3309 58.5356 69.015 58.4841 68.7276 58.3554C68.4402 58.2268 68.1914 58.0255 68.0055 57.7713C67.8197 57.5171 67.7033 57.2189 67.6679 56.9061C67.6324 56.5932 67.6791 56.2765 67.8034 55.9872C68.1868 55.3378 68.6351 54.729 69.1416 54.1702L72.3221 49.9183L69.1584 45.7058C68.6324 45.1307 68.1723 44.4986 67.7866 43.8214C67.6307 43.4161 67.6223 42.9689 67.763 42.5582C67.9037 42.1474 68.1844 41.7992 68.556 41.5747C68.7683 41.49 68.9849 41.4164 69.2048 41.3542H69.2062Z" fill="#FD8012"/>
</g>
<defs>
<filter id="filter0_d_1531_2931" x="0" y="0" width="120" height="120" filterUnits="userSpaceOnUse" color-interpolation-filters="sRGB">
<feFlood flood-opacity="0" result="BackgroundImageFix"/>
<feColorMatrix in="SourceAlpha" type="matrix" values="0 0 0 0 0 0 0 0 0 0 0 0 0 0 0 0 0 0 127 0" result="hardAlpha"/>
<feOffset dy="10"/>
<feGaussianBlur stdDeviation="10"/>
<feColorMatrix type="matrix" values="0 0 0 0 0.988235 0 0 0 0 0.47451 0 0 0 0 0.0509804 0 0 0 0.1 0"/>
<feBlend mode="normal" in2="BackgroundImageFix" result="effect1_dropShadow_1531_2931"/>
<feBlend mode="normal" in="SourceGraphic" in2="effect1_dropShadow_1531_2931" result="shape"/>
</filter>
<radialGradient id="paint0_radial_1531_2931" cx="0" cy="0" r="1" gradientUnits="userSpaceOnUse" gradientTransform="translate(20.0099 50) scale(80.0918 371.337)">
<stop stop-color="#FC790D"/>
<stop offset="1" stop-color="#FF9A23"/>
</radialGradient>
<linearGradient id="paint1_linear_1531_2931" x1="59.9995" y1="49.9048" x2="76.6392" y2="77.1209" gradientUnits="userSpaceOnUse">
<stop stop-color="white"/>
<stop offset="1" stop-color="white" stop-opacity="0.6"/>
</linearGradient>
</defs>
</svg>
