<svg width="120" height="120" viewBox="0 0 120 120" fill="none" xmlns="http://www.w3.org/2000/svg">
<g filter="url(#filter0_d_1531_11405)">
<rect x="20" y="10" width="80" height="80" rx="20" fill="url(#paint0_linear_1531_11405)"/>
<path fill-rule="evenodd" clip-rule="evenodd" d="M59.6914 34.5952C59.6914 38.231 56.7627 41.1903 53.1645 41.1903C49.5663 41.1903 46.6376 38.231 46.6376 34.5952C46.6376 30.9593 49.5663 28 53.1645 28C56.7627 28 59.6914 30.9593 59.6914 34.5952ZM73.525 34.5952C73.525 38.231 70.5963 41.1903 66.998 41.1903C63.3998 41.1903 60.4711 38.231 60.4711 34.5952C60.4711 30.9593 63.3998 28 66.998 28C70.5963 28 73.525 30.9593 73.525 34.5952ZM70.9462 45.4442C70.9462 41.8084 73.8749 38.849 77.4731 38.849C81.0713 38.849 84 41.8084 84 45.4442C84 49.0801 81.0713 52.0394 77.4731 52.0394C73.8749 52.0394 70.9462 49.0801 70.9462 45.4442ZM42.5269 38.849C46.1251 38.849 49.0538 41.8084 49.0538 45.4442C49.0538 49.0828 46.1279 52.0394 42.5269 52.0394C38.9287 52.0394 36 49.0801 36 45.4442C36 41.8084 38.9287 38.849 42.5269 38.849ZM72.2931 53.1789C76.5663 54.4929 79.6383 58.6187 79.3876 63.4155C79.1396 68.1593 75.5882 72.1515 70.9376 72.8781C68.0529 73.3291 65.2592 72.5051 63.135 70.7957C62.3085 70.1304 61.2808 69.7657 60.2228 69.7657C59.1649 69.7657 58.1399 70.1304 57.3107 70.7957C55.1837 72.5051 52.39 73.3291 49.5054 72.8781C44.9263 72.1599 41.397 68.2707 41.0719 63.5992C40.7523 59.0057 43.4826 54.994 47.4225 53.435C48.8799 52.8587 50.0812 51.7674 50.7231 50.3226C52.2936 46.7953 55.8036 44.3343 59.8729 44.3343C63.8954 44.3343 67.3724 46.7396 68.9676 50.2001C69.6234 51.6227 70.8081 52.7223 72.2931 53.1789Z" fill="url(#paint1_linear_1531_11405)"/>
<path opacity="0.4" d="M67.3639 66.0819C66.6647 66.9031 65.4381 66.972 64.517 66.4109C60.9781 64.2549 57.8626 65.3082 56.0786 66.3458C55.146 66.8881 53.8933 66.8622 53.1497 66.0806C52.4175 65.311 52.4384 64.0866 53.3156 63.4877C56.3767 61.3979 61.6569 59.7585 67.0867 63.4438C67.9672 64.0414 68.0538 65.2718 67.3639 66.0819Z" fill="#0ADD8C"/>
</g>
<defs>
<filter id="filter0_d_1531_11405" x="0" y="0" width="120" height="120" filterUnits="userSpaceOnUse" color-interpolation-filters="sRGB">
<feFlood flood-opacity="0" result="BackgroundImageFix"/>
<feColorMatrix in="SourceAlpha" type="matrix" values="0 0 0 0 0 0 0 0 0 0 0 0 0 0 0 0 0 0 127 0" result="hardAlpha"/>
<feOffset dy="10"/>
<feGaussianBlur stdDeviation="10"/>
<feColorMatrix type="matrix" values="0 0 0 0 0.0509804 0 0 0 0 0.894118 0 0 0 0 0.572549 0 0 0 0.1 0"/>
<feBlend mode="normal" in2="BackgroundImageFix" result="effect1_dropShadow_1531_11405"/>
<feBlend mode="normal" in="SourceGraphic" in2="effect1_dropShadow_1531_11405" result="shape"/>
</filter>
<linearGradient id="paint0_linear_1531_11405" x1="22.2642" y1="12" x2="105.568" y2="66.4879" gradientUnits="userSpaceOnUse">
<stop stop-color="#07D988"/>
<stop offset="1" stop-color="#15F59F"/>
</linearGradient>
<linearGradient id="paint1_linear_1531_11405" x1="52.256" y1="41.1609" x2="79.5921" y2="76.6238" gradientUnits="userSpaceOnUse">
<stop stop-color="white"/>
<stop offset="1" stop-color="white" stop-opacity="0.4"/>
</linearGradient>
</defs>
</svg>
