<svg width="120" height="120" viewBox="0 0 120 120" fill="none" xmlns="http://www.w3.org/2000/svg">
<g filter="url(#filter0_d_1531_2311)">
<rect x="20" y="10" width="80" height="80" rx="20" fill="url(#paint0_radial_1531_2311)"/>
<path fill-rule="evenodd" clip-rule="evenodd" d="M63.6817 45.2617C68.2825 45.2617 72.0099 41.5344 72.0099 36.9336C72.0099 32.3328 68.2825 28.6055 63.6817 28.6055C59.081 28.6055 55.3536 32.3328 55.3536 36.9336C55.3536 41.5344 59.081 45.2617 63.6817 45.2617ZM78.3728 50.7867L74.686 52.9145V50.1062C74.686 47.8109 72.8071 45.9371 70.5169 45.9371H41.531C39.2356 45.9371 37.3618 47.816 37.3618 50.1062V67.2246C37.3618 69.5199 39.2407 71.3937 41.531 71.3937H70.5118C72.8071 71.3937 74.681 69.5148 74.681 67.2246V65.8434L78.3677 67.9711C80.3431 69.1137 82.8161 67.6867 82.8161 65.4016V53.3512C82.8161 51.0711 80.3481 49.6441 78.3728 50.7867ZM53.2257 39.909C53.2257 42.8645 50.8288 45.2613 47.8733 45.2613C44.9179 45.2613 42.521 42.8645 42.521 39.909C42.521 36.9535 44.9179 34.5566 47.8733 34.5566C50.8288 34.5566 53.2257 36.9535 53.2257 39.909ZM62.3104 57.7493L55.1146 53.5954C54.165 53.0469 52.9768 53.7325 52.9717 54.8294V63.1372C52.9717 64.2391 54.165 64.9247 55.1146 64.3762L62.3104 60.2223C63.26 59.6739 63.26 58.2977 62.3104 57.7493Z" fill="url(#paint1_linear_1531_2311)"/>
</g>
<defs>
<filter id="filter0_d_1531_2311" x="0" y="0" width="120" height="120" filterUnits="userSpaceOnUse" color-interpolation-filters="sRGB">
<feFlood flood-opacity="0" result="BackgroundImageFix"/>
<feColorMatrix in="SourceAlpha" type="matrix" values="0 0 0 0 0 0 0 0 0 0 0 0 0 0 0 0 0 0 127 0" result="hardAlpha"/>
<feOffset dy="10"/>
<feGaussianBlur stdDeviation="10"/>
<feColorMatrix type="matrix" values="0 0 0 0 0.988235 0 0 0 0 0.47451 0 0 0 0 0.0509804 0 0 0 0.1 0"/>
<feBlend mode="normal" in2="BackgroundImageFix" result="effect1_dropShadow_1531_2311"/>
<feBlend mode="normal" in="SourceGraphic" in2="effect1_dropShadow_1531_2311" result="shape"/>
</filter>
<radialGradient id="paint0_radial_1531_2311" cx="0" cy="0" r="1" gradientUnits="userSpaceOnUse" gradientTransform="translate(20.0099 50) scale(80.0918 371.337)">
<stop stop-color="#FC790D"/>
<stop offset="1" stop-color="#FF9A23"/>
</radialGradient>
<linearGradient id="paint1_linear_1531_2311" x1="60.089" y1="47.9621" x2="76.1371" y2="74.6842" gradientUnits="userSpaceOnUse">
<stop stop-color="white"/>
<stop offset="1" stop-color="white" stop-opacity="0.6"/>
</linearGradient>
</defs>
</svg>
