<svg width="120" height="120" viewBox="0 0 120 120" fill="none" xmlns="http://www.w3.org/2000/svg">
<g filter="url(#filter0_d_1531_7162)">
<rect x="20" y="10" width="80" height="80" rx="20" fill="url(#paint0_linear_1531_7162)"/>
<path d="M76.7216 28.5C77.349 28.5 77.9703 28.6236 78.5499 28.8637C79.1296 29.1038 79.6562 29.4557 80.0999 29.8993C80.5435 30.343 80.8954 30.8697 81.1355 31.4493C81.3756 32.0289 81.4992 32.6502 81.4992 33.2776V66.7209C81.4992 67.988 80.9959 69.2032 80.0999 70.0991C79.2039 70.9951 77.9887 71.4985 76.7216 71.4985H43.2783C42.0112 71.4985 40.796 70.9951 39.9001 70.0991C39.0041 69.2032 38.5007 67.988 38.5007 66.7209V33.2776C38.5007 32.0105 39.0041 30.7953 39.9001 29.8993C40.796 29.0034 42.0112 28.5 43.2783 28.5H76.7216Z" fill="url(#paint1_linear_1531_7162)"/>
<path opacity="0.2" d="M77.916 37.9336H42.084V66.7211C42.0839 67.0006 42.1819 67.2714 42.3608 67.4861C42.5398 67.7009 42.7884 67.846 43.0634 67.8964L43.2784 67.9155H76.7216C77.0012 67.9156 77.2719 67.8176 77.4867 67.6386C77.7014 67.4597 77.8466 67.2111 77.8969 66.9361L77.916 66.7211V37.9336Z" fill="#09DC8B"/>
<path opacity="0.4" d="M76.7216 32.082H43.2784C42.9988 32.0819 42.7281 32.1799 42.5134 32.3589C42.2986 32.5378 42.1534 32.7865 42.1031 33.0614L42.084 33.2764V34.7073H77.916V33.2764C77.9161 32.9969 77.8182 32.7262 77.6392 32.5114C77.4603 32.2966 77.2116 32.1515 76.9366 32.1011L76.7216 32.082Z" fill="#09DC8B"/>
<path d="M72.7624 51.3631L67.9836 46.1269C67.8603 46.0059 67.7118 45.9113 67.548 45.8492C67.3841 45.7871 67.2085 45.7589 67.0326 45.7664C66.8566 45.7739 66.6843 45.817 66.5268 45.8928C66.3693 45.9686 66.2302 46.0755 66.1185 46.2065C65.8716 46.4909 65.7306 46.8464 65.7177 47.2166C65.7048 47.5868 65.8209 47.9506 66.0476 48.2502L69.8525 52.4342L66.0338 56.6183C65.8369 56.8128 65.6934 57.0514 65.6164 57.3125C65.5393 57.5736 65.5309 57.8491 65.5921 58.114C65.7124 58.6638 66.1047 59.0923 66.6055 59.225C66.8572 59.2872 67.1227 59.274 67.3665 59.1873C67.6102 59.1006 67.8207 58.9444 67.9698 58.7397L72.7486 53.5034C73.0164 53.2083 73.1635 52.8297 73.1626 52.438C73.1688 52.0455 73.0265 51.6643 72.7624 51.365V51.3631ZM54.938 46.0548C54.8208 45.9168 54.6731 45.8056 54.5057 45.7293C54.3383 45.6529 54.1553 45.6133 53.97 45.6133C53.7847 45.6133 53.6017 45.6529 53.4343 45.7293C53.2669 45.8056 53.1192 45.9168 53.002 46.0548L48.2113 51.3346C47.9533 51.6358 47.8123 52.0138 47.8123 52.4039C47.8123 52.794 47.9533 53.172 48.2113 53.4731L52.9882 58.751C53.1109 58.8731 53.2591 58.9687 53.4231 59.0315C53.5871 59.0943 53.763 59.1229 53.9394 59.1153C54.1157 59.1078 54.2884 59.0643 54.4459 58.9878C54.6034 58.9113 54.7423 58.8034 54.8532 58.6714C55.1001 58.3841 55.241 58.0262 55.2539 57.6536C55.2667 57.2811 55.1508 56.915 54.9242 56.6126L51.135 52.4115L54.94 48.1952C55.1979 47.8941 55.339 47.5161 55.339 47.126C55.339 46.7358 55.1979 46.3578 54.94 46.0567L54.938 46.0548ZM62.4091 45.8387C62.2412 45.7694 62.0593 45.7372 61.8768 45.7444C61.6942 45.7516 61.5157 45.7981 61.3543 45.8804C61.0096 46.0606 60.752 46.3634 60.6367 46.724L57.1077 57.1396C57.0069 57.3907 56.9708 57.6614 57.0024 57.9288C57.0339 58.1962 57.1323 58.4523 57.2891 58.6752C57.6046 59.1112 58.1171 59.3198 58.6159 59.2193C59.1167 59.1169 59.5248 58.7207 59.6766 58.1899L63.2055 47.7762C63.335 47.4015 63.3238 46.995 63.174 46.6274C63.1066 46.454 63.0044 46.2952 62.8731 46.1599C62.7419 46.0245 62.5842 45.9154 62.4091 45.8387Z" fill="#0DE492"/>
</g>
<defs>
<filter id="filter0_d_1531_7162" x="0" y="0" width="120" height="120" filterUnits="userSpaceOnUse" color-interpolation-filters="sRGB">
<feFlood flood-opacity="0" result="BackgroundImageFix"/>
<feColorMatrix in="SourceAlpha" type="matrix" values="0 0 0 0 0 0 0 0 0 0 0 0 0 0 0 0 0 0 127 0" result="hardAlpha"/>
<feOffset dy="10"/>
<feGaussianBlur stdDeviation="10"/>
<feColorMatrix type="matrix" values="0 0 0 0 0.0509804 0 0 0 0 0.894118 0 0 0 0 0.572549 0 0 0 0.1 0"/>
<feBlend mode="normal" in2="BackgroundImageFix" result="effect1_dropShadow_1531_7162"/>
<feBlend mode="normal" in="SourceGraphic" in2="effect1_dropShadow_1531_7162" result="shape"/>
</filter>
<linearGradient id="paint0_linear_1531_7162" x1="22.2642" y1="12" x2="105.568" y2="66.4879" gradientUnits="userSpaceOnUse">
<stop stop-color="#07D988"/>
<stop offset="1" stop-color="#15F59F"/>
</linearGradient>
<linearGradient id="paint1_linear_1531_7162" x1="63.5831" y1="48.1467" x2="76.7227" y2="74.7045" gradientUnits="userSpaceOnUse">
<stop stop-color="white"/>
<stop offset="1" stop-color="white" stop-opacity="0.6"/>
</linearGradient>
</defs>
</svg>
