<svg width="120" height="120" viewBox="0 0 120 120" fill="none" xmlns="http://www.w3.org/2000/svg">
<g filter="url(#filter0_d_1531_8356)">
<rect x="20" y="10" width="80" height="80" rx="20" fill="url(#paint0_radial_1531_8356)"/>
<path fill-rule="evenodd" clip-rule="evenodd" d="M74.4836 43.5661C75.2506 43.1663 76.1155 42.9364 77.0345 42.9364C80.1281 42.9364 82.6444 45.4927 82.6444 48.6331C82.6444 51.7736 80.1281 54.3299 77.0345 54.3299C76.1053 54.3299 75.2302 54.0958 74.4581 53.6877C74.1776 62.4472 67.1143 69.4667 58.42 69.4667C49.5483 69.4667 42.3555 62.1624 42.3555 53.1533V43.5724C42.3555 43.0229 42.5704 42.496 42.953 42.1076C43.3355 41.7191 43.8544 41.5008 44.3954 41.5008H72.4446C72.9844 41.5011 73.5021 41.7186 73.8843 42.1057C74.2664 42.4928 74.4819 43.018 74.4836 43.5661ZM74.4846 48.6331C74.4846 50.0615 75.629 51.2226 77.0345 51.2226C78.44 51.2226 79.5844 50.0615 79.5844 48.6331C79.5844 47.2048 78.44 46.0437 77.0345 46.0437C75.629 46.0437 74.4846 47.2048 74.4846 48.6331ZM49.2212 32.116C49.5082 31.8247 49.8973 31.661 50.3031 31.661C50.7089 31.661 51.098 31.8247 51.3849 32.116C51.6719 32.4074 51.833 32.8026 51.833 33.2146V37.8756C51.833 38.2877 51.6719 38.6828 51.3849 38.9742C51.098 39.2656 50.7089 39.4293 50.3031 39.4293C49.8973 39.4293 49.5082 39.2656 49.2212 38.9742C48.9343 38.6828 48.7731 38.2877 48.7731 37.8756V33.2146C48.7731 32.8026 48.9343 32.4074 49.2212 32.116ZM65.9651 34.4465C66.252 34.1552 66.6412 33.9915 67.0469 33.9915C67.4527 33.9915 67.8419 34.1552 68.1288 34.4465C68.4157 34.7379 68.5769 35.1331 68.5769 35.5451V37.8756C68.5769 38.2877 68.4157 38.6828 68.1288 38.9742C67.8419 39.2656 67.4527 39.4293 67.0469 39.4293C66.6412 39.4293 66.252 39.2656 65.9651 38.9742C65.6782 38.6828 65.517 38.2877 65.517 37.8756V35.5451C65.517 35.1331 65.6782 34.7379 65.9651 34.4465ZM58.1032 27.4551C58.3901 27.1637 58.7792 27 59.185 27C59.5908 27 59.9799 27.1637 60.2668 27.4551C60.5538 27.7464 60.715 28.1416 60.715 28.5537V37.8756C60.715 38.2877 60.5538 38.6828 60.2668 38.9742C59.9799 39.2656 59.5908 39.4293 59.185 39.4293C58.7792 39.4293 58.3901 39.2656 58.1032 38.9742C57.8162 38.6828 57.655 38.2877 57.655 37.8756V28.5537C57.655 28.1416 57.8162 27.7464 58.1032 27.4551ZM46.1666 72.7333C45.2645 72.7333 44.5332 73.4646 44.5332 74.3667C44.5332 75.2687 45.2645 76 46.1666 76H74.4777C75.3798 76 76.111 75.2687 76.111 74.3667C76.111 73.4646 75.3798 72.7333 74.4777 72.7333H46.1666Z" fill="url(#paint1_linear_1531_8356)"/>
</g>
<defs>
<filter id="filter0_d_1531_8356" x="0" y="0" width="120" height="120" filterUnits="userSpaceOnUse" color-interpolation-filters="sRGB">
<feFlood flood-opacity="0" result="BackgroundImageFix"/>
<feColorMatrix in="SourceAlpha" type="matrix" values="0 0 0 0 0 0 0 0 0 0 0 0 0 0 0 0 0 0 127 0" result="hardAlpha"/>
<feOffset dy="10"/>
<feGaussianBlur stdDeviation="10"/>
<feColorMatrix type="matrix" values="0 0 0 0 0.988235 0 0 0 0 0.47451 0 0 0 0 0.0509804 0 0 0 0.1 0"/>
<feBlend mode="normal" in2="BackgroundImageFix" result="effect1_dropShadow_1531_8356"/>
<feBlend mode="normal" in="SourceGraphic" in2="effect1_dropShadow_1531_8356" result="shape"/>
</filter>
<radialGradient id="paint0_radial_1531_8356" cx="0" cy="0" r="1" gradientUnits="userSpaceOnUse" gradientTransform="translate(20.0099 50) scale(80.0918 371.337)">
<stop stop-color="#FC790D"/>
<stop offset="1" stop-color="#FF9A23"/>
</radialGradient>
<linearGradient id="paint1_linear_1531_8356" x1="56" y1="44.5" x2="82.7632" y2="75.0165" gradientUnits="userSpaceOnUse">
<stop stop-color="white"/>
<stop offset="1" stop-color="white" stop-opacity="0.4"/>
</linearGradient>
</defs>
</svg>
