<svg width="120" height="120" viewBox="0 0 120 120" fill="none" xmlns="http://www.w3.org/2000/svg">
<g filter="url(#filter0_d_1531_6556)">
<rect x="20" y="10" width="80" height="80" rx="20" fill="url(#paint0_radial_1531_6556)"/>
<path d="M74.7297 44.8007C75.167 44.8006 75.5882 44.9657 75.9089 45.2631C76.2295 45.5604 76.4259 45.968 76.4587 46.4041L76.4631 46.5341V60.5576C76.4632 61.1683 76.3021 61.7682 75.9958 62.2966C75.6896 62.825 75.2493 63.2631 74.7193 63.5667L74.5547 63.6551L61.5564 70.1958C61.1039 70.4235 60.6069 70.5493 60.1005 70.5643C59.5941 70.5793 59.0906 70.4831 58.6254 70.2825L58.4399 70.1958L45.4416 63.6551C44.8961 63.3805 44.4327 62.9667 44.0985 62.4554C43.7643 61.9442 43.5711 61.3538 43.5384 60.7439L43.5332 60.5576V46.5341C43.5312 46.0843 43.7041 45.6513 44.0154 45.3267C44.3267 45.002 44.752 44.8111 45.2015 44.7942C45.651 44.7773 46.0894 44.9358 46.4242 45.2362C46.7589 45.5366 46.9638 45.9554 46.9956 46.4041C46.9982 46.4842 47.0444 46.5565 47.1161 46.5925L58.2449 52.1933C59.3478 52.7484 60.6485 52.7484 61.7514 52.1933L72.3884 46.8401C72.7612 46.6524 72.9686 46.2563 73.1284 45.8707C73.2155 45.6604 73.3431 45.4694 73.5041 45.3084C73.6651 45.1475 73.8561 45.0198 74.0664 44.9327C74.2767 44.8456 74.5021 44.8007 74.7297 44.8007Z" fill="#FF815F"/>
<path d="M74.7297 44.8007C75.167 44.8006 75.5882 44.9657 75.9089 45.2631C76.2295 45.5604 76.4259 45.968 76.4587 46.4041L76.4631 46.5341V60.5576C76.4632 61.1683 76.3021 61.7682 75.9958 62.2966C75.6896 62.825 75.2493 63.2631 74.7193 63.5667L74.5547 63.6551L61.5564 70.1958C61.1039 70.4235 60.6069 70.5493 60.1005 70.5643C59.5941 70.5793 59.0906 70.4831 58.6254 70.2825L58.4399 70.1958L45.4416 63.6551C44.8961 63.3805 44.4327 62.9667 44.0985 62.4554C43.7643 61.9442 43.5711 61.3538 43.5384 60.7439L43.5332 60.5576V46.5341C43.5312 46.0843 43.7041 45.6513 44.0154 45.3267C44.3267 45.002 44.752 44.8111 45.2015 44.7942C45.651 44.7773 46.0894 44.9358 46.4242 45.2362C46.7589 45.5366 46.9638 45.9554 46.9956 46.4041C46.9982 46.4842 47.0444 46.5565 47.1161 46.5925L58.2449 52.1933C59.3478 52.7484 60.6485 52.7484 61.7514 52.1933L72.3884 46.8401C72.7612 46.6524 72.9686 46.2563 73.1284 45.8707C73.2155 45.6604 73.3431 45.4694 73.5041 45.3084C73.6651 45.1475 73.8561 45.0198 74.0664 44.9327C74.2767 44.8456 74.5021 44.8007 74.7297 44.8007Z" fill="url(#paint1_linear_1531_6556)"/>
<path d="M82.1 46.9668V55.4289C82.1 56.6163 81.4292 57.7022 80.3666 58.2335C80.184 58.3248 79.9811 58.3679 79.7772 58.3587C79.5732 58.3495 79.375 58.2884 79.2014 58.181C79.0277 58.0737 78.8844 57.9238 78.7849 57.7455C78.6855 57.5672 78.6333 57.3664 78.6333 57.1623V48.7001L82.1 46.9668Z" fill="#FF815F"/>
<path d="M82.1 46.9668V55.4289C82.1 56.6163 81.4292 57.7022 80.3666 58.2335C80.184 58.3248 79.9811 58.3679 79.7772 58.3587C79.5732 58.3495 79.375 58.2884 79.2014 58.181C79.0277 58.0737 78.8844 57.9238 78.7849 57.7455C78.6855 57.5672 78.6333 57.3664 78.6333 57.1623V48.7001L82.1 46.9668Z" fill="url(#paint2_linear_1531_6556)"/>
<path d="M58.5501 29.6936L39.4184 38.5033C38.8093 38.7838 38.2946 39.235 37.9367 39.8021C37.5789 40.3693 37.3932 41.028 37.4022 41.6986C37.4112 42.3691 37.6144 43.0227 37.9874 43.58C38.3603 44.1374 38.8869 44.5746 39.5033 44.8386L58.635 53.0347C59.0664 53.2195 59.5307 53.3148 60 53.3148C60.4693 53.3148 60.9336 53.2195 61.365 53.0347L80.4975 44.836C81.1139 44.5719 81.6404 44.1346 82.0133 43.5772C82.3862 43.0198 82.5893 42.3662 82.5982 41.6957C82.6071 41.0252 82.4214 40.3664 82.0634 39.7993C81.7055 39.2322 81.1907 38.7812 80.5816 38.5007L61.4499 29.6928C60.9952 29.4834 60.5006 29.375 60 29.375C59.4994 29.375 59.0048 29.4843 58.5501 29.6936Z" fill="#FF815F"/>
<path d="M58.5501 29.6936L39.4184 38.5033C38.8093 38.7838 38.2946 39.235 37.9367 39.8021C37.5789 40.3693 37.3932 41.028 37.4022 41.6986C37.4112 42.3691 37.6144 43.0227 37.9874 43.58C38.3603 44.1374 38.8869 44.5746 39.5033 44.8386L58.635 53.0347C59.0664 53.2195 59.5307 53.3148 60 53.3148C60.4693 53.3148 60.9336 53.2195 61.365 53.0347L80.4975 44.836C81.1139 44.5719 81.6404 44.1346 82.0133 43.5772C82.3862 43.0198 82.5893 42.3662 82.5982 41.6957C82.6071 41.0252 82.4214 40.3664 82.0634 39.7993C81.7055 39.2322 81.1907 38.7812 80.5816 38.5007L61.4499 29.6928C60.9952 29.4834 60.5006 29.375 60 29.375C59.4994 29.375 59.0048 29.4843 58.5501 29.6936Z" fill="url(#paint3_linear_1531_6556)"/>
</g>
<defs>
<filter id="filter0_d_1531_6556" x="0" y="0" width="120" height="120" filterUnits="userSpaceOnUse" color-interpolation-filters="sRGB">
<feFlood flood-opacity="0" result="BackgroundImageFix"/>
<feColorMatrix in="SourceAlpha" type="matrix" values="0 0 0 0 0 0 0 0 0 0 0 0 0 0 0 0 0 0 127 0" result="hardAlpha"/>
<feOffset dy="10"/>
<feGaussianBlur stdDeviation="10"/>
<feColorMatrix type="matrix" values="0 0 0 0 1 0 0 0 0 0.37647 0 0 0 0 0.345098 0 0 0 0.1 0"/>
<feBlend mode="normal" in2="BackgroundImageFix" result="effect1_dropShadow_1531_6556"/>
<feBlend mode="normal" in="SourceGraphic" in2="effect1_dropShadow_1531_6556" result="shape"/>
</filter>
<radialGradient id="paint0_radial_1531_6556" cx="0" cy="0" r="1" gradientUnits="userSpaceOnUse" gradientTransform="translate(40 16.6667) rotate(62.5009) scale(78.3793)">
<stop stop-color="#FF5656"/>
<stop offset="1" stop-color="#FF9061"/>
</radialGradient>
<linearGradient id="paint1_linear_1531_6556" x1="54.6855" y1="52.3306" x2="69.4202" y2="75.2275" gradientUnits="userSpaceOnUse">
<stop stop-color="white"/>
<stop offset="1" stop-color="white" stop-opacity="0.4"/>
</linearGradient>
<linearGradient id="paint2_linear_1531_6556" x1="79.8073" y1="50.2989" x2="84.4662" y2="52.023" gradientUnits="userSpaceOnUse">
<stop stop-color="white"/>
<stop offset="1" stop-color="white" stop-opacity="0.4"/>
</linearGradient>
<linearGradient id="paint3_linear_1531_6556" x1="52.7085" y1="36.3765" x2="63.7188" y2="61.6575" gradientUnits="userSpaceOnUse">
<stop stop-color="white"/>
<stop offset="1" stop-color="white" stop-opacity="0.4"/>
</linearGradient>
</defs>
</svg>
