<svg width="120" height="120" viewBox="0 0 120 120" fill="none" xmlns="http://www.w3.org/2000/svg">
<g filter="url(#filter0_d_1531_4162)">
<rect x="20" y="10" width="80" height="80" rx="20" fill="url(#paint0_linear_1531_4162)"/>
<path d="M67.1557 50.1839C70.4436 49.9387 73.7452 49.9387 77.0331 50.1839C77.6272 50.2231 78.2058 50.3903 78.7292 50.6741C79.2526 50.9578 79.7085 51.3514 80.0655 51.8279C81.2818 53.4743 82.4264 55.9607 83.4922 57.7517C84.0059 57.6621 84.7718 57.5127 85.7898 57.306L86.1267 58.5211C86.1673 58.6705 86.19 58.8282 86.19 58.9907C86.1872 59.3571 86.0723 59.7138 85.8609 60.013C85.6495 60.3122 85.3516 60.5396 85.0072 60.6646V64.5405C85.0072 66.4391 84.816 69.113 84.4552 70.91C84.4288 71.0307 84.3617 71.1387 84.2651 71.2157C84.1685 71.2927 84.0483 71.3342 83.9247 71.333H79.4836C79.3422 71.3349 79.2058 71.2806 79.1043 71.182C79.0028 71.0835 78.9446 70.9487 78.9424 70.8072V67.9732C76.6926 68.2062 74.4093 67.9732 72.0962 67.9732C69.7819 67.9732 67.4974 68.2062 65.2488 67.9732V70.8084C65.2488 71.0976 65.0063 71.3342 64.7076 71.3342H60.2653C60.1414 71.3352 60.021 71.2935 59.9243 71.216C59.8276 71.1385 59.7607 71.03 59.7348 70.9088C59.374 69.113 59.184 66.4379 59.184 64.5405V60.6646C58.8396 60.5398 58.5416 60.3127 58.33 60.0137C58.1183 59.7148 58.0032 59.3582 58 58.9919C58 58.833 58.0215 58.6741 58.0633 58.5223L58.3991 57.306C59.1637 57.4649 59.9284 57.6131 60.6979 57.7517C61.7636 55.9595 62.9082 53.4743 64.1233 51.8279C64.4805 51.3513 64.9365 50.9576 65.4602 50.6738C65.9838 50.39 66.5626 50.2229 67.1569 50.1839H67.1557Z" fill="url(#paint1_linear_1531_4162)"/>
<path opacity="0.6" d="M82.8731 60.6668C81.5051 60.8615 80.1227 60.7313 78.7272 60.858V63.6586C80.0713 63.5379 81.4035 63.6741 82.7202 63.4889C82.7202 63.4889 82.8732 61.6104 82.8731 60.668V60.6668ZM61.3154 60.6668C61.3154 61.6083 61.3668 62.5498 61.4684 63.4865C62.7946 63.6741 64.1268 63.5367 65.4614 63.6574V60.858C64.067 60.7313 62.6835 60.8615 61.3154 60.6668ZM76.3018 52.633C73.2251 52.4036 70.1355 52.4036 67.0588 52.633C66.7958 52.6495 66.5398 52.7251 66.31 52.8542C66.0802 52.9833 65.8824 53.1625 65.7314 53.3785C64.7636 54.749 63.8436 56.9426 62.9738 58.411C65.858 58.8208 69.182 58.638 72.0949 58.638C75.0496 58.638 77.542 58.8161 80.3868 58.411C79.517 56.9414 78.597 54.7478 77.628 53.3773C77.477 53.1617 77.2793 52.9828 77.0497 52.8539C76.8202 52.7251 76.5645 52.6496 76.3018 52.633Z" fill="#0ADE8C"/>
<path d="M66.6436 31.2487C67.4082 32.3049 66.818 33.9454 65.7248 34.6838C63.6888 36.519 62.0735 37.8416 60.8787 38.6493C59.4019 39.647 57.2011 40.5968 54.2786 41.5013V71.6675C54.2786 72.9555 53.1961 73.9998 51.8627 73.9998C50.5282 73.9998 49.4469 72.9555 49.4469 71.6675V58.14H46.5471V71.6675C46.5471 72.9555 45.4658 73.9998 44.1312 73.9998C42.7966 73.9998 41.7153 72.9555 41.7153 71.6675V44.6185C40.1143 45.7177 39.1083 47.1109 38.6973 48.7943C38.2803 50.5029 38.1644 52.7384 38.3472 55.4995C37.9565 56.7302 36.9075 57.4948 35.6314 57.1185C34.3554 56.7421 34.2275 55.3108 34.2275 54.2163C34.2275 51.0262 34.5143 48.5661 35.0878 46.8385C36.3447 43.0545 38.3759 41.708 38.6973 41.2145C39.4643 40.0389 42.7142 38.1738 43.8038 38.2395C45.6163 38.1642 47.0668 38.1081 48.1577 38.0698C50.2462 37.9982 51.6775 37.4617 52.6178 37.261C55.1305 36.7233 56.25 36.3326 58.1306 35.0625C59.4234 34.1879 61.0471 32.9167 63.0006 31.2487C64.0939 30.5104 65.8777 30.1937 66.6436 31.2487ZM48.3226 26C48.973 25.9999 49.617 26.128 50.2179 26.3768C50.8188 26.6257 51.3649 26.9905 51.8248 27.4504C52.2847 27.9102 52.6495 28.4562 52.8985 29.0571C53.1474 29.658 53.2755 30.302 53.2755 30.9524C53.2755 31.6028 53.1474 32.2469 52.8985 32.8478C52.6495 33.4487 52.2847 33.9946 51.8248 34.4545C51.3649 34.9144 50.8188 35.2792 50.2179 35.528C49.617 35.7769 48.973 35.9049 48.3226 35.9049C47.0092 35.9047 45.7496 35.3829 44.821 34.4542C43.8923 33.5254 43.3706 32.2658 43.3706 30.9524C43.3706 29.6391 43.8923 28.3795 44.821 27.4507C45.7496 26.522 47.0092 26.0001 48.3226 26Z" fill="url(#paint2_linear_1531_4162)"/>
</g>
<defs>
<filter id="filter0_d_1531_4162" x="0" y="0" width="120" height="120" filterUnits="userSpaceOnUse" color-interpolation-filters="sRGB">
<feFlood flood-opacity="0" result="BackgroundImageFix"/>
<feColorMatrix in="SourceAlpha" type="matrix" values="0 0 0 0 0 0 0 0 0 0 0 0 0 0 0 0 0 0 127 0" result="hardAlpha"/>
<feOffset dy="10"/>
<feGaussianBlur stdDeviation="10"/>
<feColorMatrix type="matrix" values="0 0 0 0 0.0509804 0 0 0 0 0.894118 0 0 0 0 0.572549 0 0 0 0.1 0"/>
<feBlend mode="normal" in2="BackgroundImageFix" result="effect1_dropShadow_1531_4162"/>
<feBlend mode="normal" in="SourceGraphic" in2="effect1_dropShadow_1531_4162" result="shape"/>
</filter>
<linearGradient id="paint0_linear_1531_4162" x1="22.2642" y1="12" x2="105.568" y2="66.4879" gradientUnits="userSpaceOnUse">
<stop stop-color="#07D988"/>
<stop offset="1" stop-color="#15F59F"/>
</linearGradient>
<linearGradient id="paint1_linear_1531_4162" x1="78.9787" y1="59.6512" x2="84.2996" y2="76.0541" gradientUnits="userSpaceOnUse">
<stop stop-color="white"/>
<stop offset="1" stop-color="white" stop-opacity="0.6"/>
</linearGradient>
<linearGradient id="paint2_linear_1531_4162" x1="58.6086" y1="47.7142" x2="76.9788" y2="76.9661" gradientUnits="userSpaceOnUse">
<stop stop-color="white"/>
<stop offset="1" stop-color="white" stop-opacity="0.6"/>
</linearGradient>
</defs>
</svg>
