<svg width="120" height="120" viewBox="0 0 120 120" fill="none" xmlns="http://www.w3.org/2000/svg">
<g filter="url(#filter0_d_1531_3848)">
<rect x="20" y="10" width="80" height="80" rx="20" fill="url(#paint0_linear_1531_3848)"/>
<path fill-rule="evenodd" clip-rule="evenodd" d="M39.913 30C38.3282 30 37.0435 31.2848 37.0435 32.8696V63.4783C37.0435 65.0631 38.3282 66.3478 39.913 66.3478H80.0869C81.6718 66.3478 82.9565 65.0631 82.9565 63.4783V32.8696C82.9565 31.2847 81.6718 30 80.0869 30H39.913ZM46.6087 70.1739C45.5522 70.1739 44.6957 71.0304 44.6957 72.087C44.6957 73.1435 45.5522 74 46.6087 74H73.3913C74.4478 74 75.3043 73.1435 75.3043 72.087C75.3043 71.0304 74.4478 70.1739 73.3913 70.1739H46.6087Z" fill="url(#paint1_linear_1531_3848)"/>
<path opacity="0.6" fill-rule="evenodd" clip-rule="evenodd" d="M53.9534 50.3633L52.1043 45.9106L50.3168 50.3633H53.9534ZM49.0266 53.5772L47.6209 57.0789C47.5013 57.3768 47.2954 57.6322 47.0295 57.8121C46.7637 57.9921 46.4501 58.0883 46.1291 58.0886C45.9309 58.0886 45.7273 58.0511 45.5318 57.9734C45.3359 57.8951 45.1573 57.7789 45.0064 57.6314C44.8554 57.484 44.7351 57.3081 44.6522 57.1141C44.5694 56.92 44.5256 56.7115 44.5235 56.5005C44.5214 56.2894 44.561 56.0801 44.64 55.8844L50.5884 41.0629C50.7071 40.7668 50.9115 40.5128 51.1753 40.3334C51.4391 40.154 51.7504 40.0574 52.0695 40.0559H52.0802C52.7283 40.0559 53.3148 40.4469 53.5639 41.0468L59.7186 55.8683C59.8819 56.2618 59.8823 56.7041 59.7196 57.0979C59.5568 57.4917 59.2443 57.8047 58.8508 57.9681C58.4573 58.1315 58.015 58.1318 57.6212 57.9691C57.2274 57.8063 56.9144 57.4938 56.7511 57.1003L55.288 53.5772H49.0266ZM63.9235 58.3579C64.0172 58.3606 64.1109 58.3606 64.202 58.3606C68.2274 58.3606 71.2833 57.3562 73.2867 55.377C74.9633 53.7192 75.8123 51.4748 75.8123 48.7001C75.8123 46.0192 74.9284 43.8578 73.1795 42.2723C69.6362 39.061 63.8324 39.5887 63.586 39.6128C62.7638 39.6931 62.1371 40.3841 62.1371 41.2117V56.7483C62.1371 57.6348 62.8575 58.3552 63.744 58.3552L63.9235 58.3579ZM65.351 55.1145V42.7919C66.9231 42.8508 69.4219 43.1963 71.0289 44.6613C72.0868 45.6228 72.601 46.9458 72.601 48.7001C72.601 50.6097 72.0868 52.0452 71.0289 53.0898C69.821 54.2843 67.9141 54.9619 65.351 55.1145Z" fill="#0C5AFF"/>
</g>
<defs>
<filter id="filter0_d_1531_3848" x="0" y="0" width="120" height="120" filterUnits="userSpaceOnUse" color-interpolation-filters="sRGB">
<feFlood flood-opacity="0" result="BackgroundImageFix"/>
<feColorMatrix in="SourceAlpha" type="matrix" values="0 0 0 0 0 0 0 0 0 0 0 0 0 0 0 0 0 0 127 0" result="hardAlpha"/>
<feOffset dy="10"/>
<feGaussianBlur stdDeviation="10"/>
<feComposite in2="hardAlpha" operator="out"/>
<feColorMatrix type="matrix" values="0 0 0 0 0.164706 0 0 0 0 0.435294 0 0 0 0 1 0 0 0 0.1 0"/>
<feBlend mode="normal" in2="BackgroundImageFix" result="effect1_dropShadow_1531_3848"/>
<feBlend mode="normal" in="SourceGraphic" in2="effect1_dropShadow_1531_3848" result="shape"/>
</filter>
<linearGradient id="paint0_linear_1531_3848" x1="41.0753" y1="10" x2="75.5885" y2="88.44" gradientUnits="userSpaceOnUse">
<stop stop-color="#0555FF"/>
<stop offset="1" stop-color="#4380FF"/>
</linearGradient>
<linearGradient id="paint1_linear_1531_3848" x1="60" y1="49.9048" x2="76.6397" y2="77.1209" gradientUnits="userSpaceOnUse">
<stop stop-color="white"/>
<stop offset="1" stop-color="white" stop-opacity="0.6"/>
</linearGradient>
</defs>
</svg>
