<svg width="120" height="120" viewBox="0 0 120 120" fill="none" xmlns="http://www.w3.org/2000/svg">
<g filter="url(#filter0_d_1531_8972)">
<rect x="20" y="10" width="80" height="80" rx="20" fill="url(#paint0_linear_1531_8972)"/>
<path d="M43.1177 56.6983V49.9605C43.1177 48.1637 43.7166 46.4668 44.7647 45.0194L48.8573 39.5293L49.7557 38.4811C49.0071 37.982 48.5579 37.1336 48.5579 36.2352V30.7451C48.5579 29.2478 49.8056 28 51.3029 28H67.7733C69.2706 28 70.5184 29.2478 70.5184 30.7451V36.2352C70.5184 37.1336 70.0692 37.982 69.3205 38.4811C69.6699 38.7806 69.9694 39.13 70.2189 39.5293L74.3115 45.0194C75.4595 46.4668 76.0584 48.1637 76.0584 49.9605V64.4308C76.0584 68.9727 72.365 72.666 67.8232 72.666H51.3529C46.811 72.666 43.1177 68.9727 43.1177 64.4308V56.6983Z" fill="url(#paint1_linear_1531_8972)"/>
<path opacity="0.4" d="M45.8628 49.7484V64.431C45.8628 67.4755 48.3084 69.9211 51.3529 69.9211H67.8233C70.8678 69.9211 73.3134 67.4755 73.3134 64.431V52.9426C71.9658 53.6414 70.1691 53.9408 68.0229 53.9408C65.5274 53.9408 63.5809 53.2421 58.6398 50.9462C58.0908 50.6967 57.7913 50.5469 57.442 50.3972C54.098 48.8999 52.0017 48.2012 50.1551 48.2012C47.1105 48.2511 45.9127 48.85 45.8628 49.7484Z" fill="#266CFF"/>
<rect opacity="0.2" x="51" y="30.5" width="17" height="6" rx="2" fill="#266CFF"/>
</g>
<defs>
<filter id="filter0_d_1531_8972" x="0" y="0" width="120" height="120" filterUnits="userSpaceOnUse" color-interpolation-filters="sRGB">
<feFlood flood-opacity="0" result="BackgroundImageFix"/>
<feColorMatrix in="SourceAlpha" type="matrix" values="0 0 0 0 0 0 0 0 0 0 0 0 0 0 0 0 0 0 127 0" result="hardAlpha"/>
<feOffset dy="10"/>
<feGaussianBlur stdDeviation="10"/>
<feComposite in2="hardAlpha" operator="out"/>
<feColorMatrix type="matrix" values="0 0 0 0 0.164706 0 0 0 0 0.435294 0 0 0 0 1 0 0 0 0.1 0"/>
<feBlend mode="normal" in2="BackgroundImageFix" result="effect1_dropShadow_1531_8972"/>
<feBlend mode="normal" in="SourceGraphic" in2="effect1_dropShadow_1531_8972" result="shape"/>
</filter>
<linearGradient id="paint0_linear_1531_8972" x1="41.0753" y1="10" x2="75.5885" y2="88.44" gradientUnits="userSpaceOnUse">
<stop stop-color="#0555FF"/>
<stop offset="1" stop-color="#4380FF"/>
</linearGradient>
<linearGradient id="paint1_linear_1531_8972" x1="54.2736" y1="44.6664" x2="79.976" y2="69.8266" gradientUnits="userSpaceOnUse">
<stop stop-color="white"/>
<stop offset="1" stop-color="white" stop-opacity="0.4"/>
</linearGradient>
</defs>
</svg>
