<svg width="120" height="120" viewBox="0 0 120 120" fill="none" xmlns="http://www.w3.org/2000/svg">
<g filter="url(#filter0_d_1531_4675)">
<rect x="20" y="10" width="80" height="80" rx="20" fill="url(#paint0_radial_1531_4675)"/>
<path d="M40 33.5044C40 31.1078 42.0931 29.2492 44.4729 29.5325L78.4729 33.5801C80.4849 33.8196 82 35.5258 82 37.5521V62.4479C82 64.4742 80.4849 66.1804 78.4729 66.4199L44.4728 70.4675C42.0931 70.7508 40 68.8922 40 66.4956V33.5044Z" fill="url(#paint1_linear_1531_4675)"/>
<path d="M67.5 47.9019C69.5 49.0566 69.5 51.9434 67.5 53.0981L59.25 57.8612C57.25 59.0159 54.75 57.5725 54.75 55.2631L54.75 45.7369C54.75 43.4275 57.25 41.9841 59.25 43.1388L67.5 47.9019Z" fill="#FF901C"/>
</g>
<defs>
<filter id="filter0_d_1531_4675" x="0" y="0" width="120" height="120" filterUnits="userSpaceOnUse" color-interpolation-filters="sRGB">
<feFlood flood-opacity="0" result="BackgroundImageFix"/>
<feColorMatrix in="SourceAlpha" type="matrix" values="0 0 0 0 0 0 0 0 0 0 0 0 0 0 0 0 0 0 127 0" result="hardAlpha"/>
<feOffset dy="10"/>
<feGaussianBlur stdDeviation="10"/>
<feColorMatrix type="matrix" values="0 0 0 0 0.988235 0 0 0 0 0.47451 0 0 0 0 0.0509804 0 0 0 0.1 0"/>
<feBlend mode="normal" in2="BackgroundImageFix" result="effect1_dropShadow_1531_4675"/>
<feBlend mode="normal" in="SourceGraphic" in2="effect1_dropShadow_1531_4675" result="shape"/>
</filter>
<radialGradient id="paint0_radial_1531_4675" cx="0" cy="0" r="1" gradientUnits="userSpaceOnUse" gradientTransform="translate(20.0099 50) scale(80.0918 371.337)">
<stop stop-color="#FC790D"/>
<stop offset="1" stop-color="#FF9A23"/>
</radialGradient>
<linearGradient id="paint1_linear_1531_4675" x1="64.5" y1="48.1905" x2="77.3344" y2="74.1316" gradientUnits="userSpaceOnUse">
<stop stop-color="white"/>
<stop offset="1" stop-color="white" stop-opacity="0.6"/>
</linearGradient>
</defs>
</svg>
