<svg width="120" height="120" viewBox="0 0 120 120" fill="none" xmlns="http://www.w3.org/2000/svg">
<g filter="url(#filter0_d_1531_2623)">
<rect x="20" y="10" width="80" height="80" rx="20" fill="url(#paint0_radial_1531_2623)"/>
<path opacity="0.8" d="M39.3741 50.4842C39.6248 49.048 40.8716 48 42.3294 48H60H77.7238C79.1579 48 80.3915 49.015 80.6676 50.4223L84.4314 69.6024C84.7469 71.2101 83.7142 72.7735 82.1118 73.1144L67.3689 76.2506C65.092 76.735 62.7174 76.4098 60.6546 75.3312L49.8069 69.6592C48.961 69.2169 47.9553 69.2036 47.098 69.6231L38.524 73.8195C37.0566 74.5377 35.3937 73.2887 35.6746 71.6792L39.3741 50.4842Z" fill="url(#paint1_linear_1531_2623)"/>
<path d="M61.77 59.0565C62.8243 57.9855 66.0572 54.6217 69.0398 50.6792C70.53 48.7095 71.9916 46.5513 73.0888 44.4298C74.1633 42.3521 75 40.1008 75 38C75 29.7157 68.2843 23 60 23C51.7157 23 45 29.7157 45 38C45 40.1008 45.8367 42.3521 46.9112 44.4298C48.0084 46.5513 49.47 48.7095 50.9602 50.6792C53.9428 54.6217 57.1757 57.9855 58.23 59.0565C59.2053 60.0474 60.7947 60.0473 61.77 59.0565Z" fill="url(#paint2_linear_1531_2623)" stroke="url(#paint3_linear_1531_2623)" stroke-width="4"/>
<circle cx="60" cy="38" r="5" fill="#FF911D" fill-opacity="0.8"/>
</g>
<defs>
<filter id="filter0_d_1531_2623" x="0" y="0" width="120" height="120" filterUnits="userSpaceOnUse" color-interpolation-filters="sRGB">
<feFlood flood-opacity="0" result="BackgroundImageFix"/>
<feColorMatrix in="SourceAlpha" type="matrix" values="0 0 0 0 0 0 0 0 0 0 0 0 0 0 0 0 0 0 127 0" result="hardAlpha"/>
<feOffset dy="10"/>
<feGaussianBlur stdDeviation="10"/>
<feColorMatrix type="matrix" values="0 0 0 0 0.988235 0 0 0 0 0.47451 0 0 0 0 0.0509804 0 0 0 0.1 0"/>
<feBlend mode="normal" in2="BackgroundImageFix" result="effect1_dropShadow_1531_2623"/>
<feBlend mode="normal" in="SourceGraphic" in2="effect1_dropShadow_1531_2623" result="shape"/>
</filter>
<radialGradient id="paint0_radial_1531_2623" cx="0" cy="0" r="1" gradientUnits="userSpaceOnUse" gradientTransform="translate(20.0099 50) scale(80.0918 371.337)">
<stop stop-color="#FC790D"/>
<stop offset="1" stop-color="#FF9A23"/>
</radialGradient>
<linearGradient id="paint1_linear_1531_2623" x1="45.4657" y1="43.8579" x2="67.2261" y2="88.5128" gradientUnits="userSpaceOnUse">
<stop stop-color="white"/>
<stop offset="1" stop-color="white" stop-opacity="0.4"/>
</linearGradient>
<linearGradient id="paint2_linear_1531_2623" x1="60" y1="25" x2="60" y2="58" gradientUnits="userSpaceOnUse">
<stop stop-color="white"/>
<stop offset="1" stop-color="#FFD8B4"/>
</linearGradient>
<linearGradient id="paint3_linear_1531_2623" x1="41.5" y1="40" x2="77.5" y2="40" gradientUnits="userSpaceOnUse">
<stop stop-color="#FD8012"/>
<stop offset="0.279649" stop-color="#FE8213"/>
<stop offset="0.571065" stop-color="#FE8717"/>
<stop offset="0.853559" stop-color="#FE8B19"/>
<stop offset="1" stop-color="#FF901C"/>
</linearGradient>
</defs>
</svg>
