<svg width="120" height="120" viewBox="0 0 120 120" fill="none" xmlns="http://www.w3.org/2000/svg">
<g filter="url(#filter0_d_1531_12345)">
<rect x="20" y="10" width="80" height="80" rx="20" fill="url(#paint0_radial_1531_12345)"/>
<path fill-rule="evenodd" clip-rule="evenodd" d="M49.4051 30C48.5148 30 47.6704 30.3955 47.1005 31.0794L39.3668 40.3598C39.3082 40.4301 39.2614 40.5044 39.2254 40.5809C38.4823 41.1269 38 42.0071 38 43V69C38 70.6569 39.3431 72 41 72H79C80.6569 72 82 70.6569 82 69V43C82 42.0071 81.5177 41.1269 80.7746 40.5809C80.7387 40.5044 80.6918 40.4301 80.6332 40.3598L72.8995 31.0794C72.3296 30.3955 71.4852 30 70.5949 30H49.4051Z" fill="url(#paint1_linear_1531_12345)"/>
<path opacity="0.2" d="M48.9199 33.054C49.4898 32.3853 50.3244 32 51.2031 32H68.7969C69.6756 32 70.5102 32.3853 71.0802 33.054L75.5949 38.3513C76.1482 39.0006 75.6868 40 74.8338 40H45.1662C44.3132 40 43.8518 39.0006 44.4051 38.3513L48.9199 33.054Z" fill="#6B4DFF"/>
<rect opacity="0.4" x="42" y="44" width="36" height="24" rx="4" fill="#6B4EFF"/>
<path d="M61.5238 57.512C61.6618 57.2553 61.9504 56.9659 62.3893 56.6449C63.1921 56.0555 63.7564 55.5281 64.0825 55.066C64.4711 54.501 64.6663 53.8464 64.6663 53.1019C64.6663 51.8309 64.2529 50.8425 63.4252 50.1359C62.5467 49.3787 61.3547 49 59.8493 49C58.6449 49 57.6349 49.3341 56.8197 50.0014C56.1553 50.5434 55.7137 51.247 55.4946 52.1121C55.3044 52.8637 55.9645 53.5016 56.7397 53.4959C57.4499 53.4908 57.9847 52.9266 58.2803 52.2809C58.3778 52.068 58.4962 51.8954 58.6356 51.7632C58.9803 51.4362 59.4414 51.2724 60.0189 51.2724C60.5204 51.2724 60.928 51.4007 61.2418 51.6574C61.6433 51.9785 61.8436 52.4858 61.8436 53.1788C61.8436 53.8979 61.455 54.5332 60.6773 55.0852C59.8498 55.6889 59.3097 56.2667 59.0589 56.8187C58.9534 57.0547 58.8756 57.3671 58.8256 57.7558C58.738 58.4358 59.3137 58.9947 59.9993 58.9947C60.6853 58.9947 61.1823 58.4164 61.4105 57.7695C61.4434 57.6761 61.4812 57.5902 61.5238 57.512ZM60.0395 60.285C59.2897 60.285 58.6819 60.8927 58.6819 61.6425C58.6819 62.3922 59.2897 63 60.0395 63H60.0721C60.8218 63 61.4296 62.3922 61.4296 61.6425C61.4296 60.8927 60.8218 60.285 60.0721 60.285H60.0395Z" fill="white"/>
</g>
<defs>
<filter id="filter0_d_1531_12345" x="0" y="0" width="120" height="120" filterUnits="userSpaceOnUse" color-interpolation-filters="sRGB">
<feFlood flood-opacity="0" result="BackgroundImageFix"/>
<feColorMatrix in="SourceAlpha" type="matrix" values="0 0 0 0 0 0 0 0 0 0 0 0 0 0 0 0 0 0 127 0" result="hardAlpha"/>
<feOffset dy="10"/>
<feGaussianBlur stdDeviation="10"/>
<feColorMatrix type="matrix" values="0 0 0 0 0.364706 0 0 0 0 0.239216 0 0 0 0 1 0 0 0 0.1 0"/>
<feBlend mode="normal" in2="BackgroundImageFix" result="effect1_dropShadow_1531_12345"/>
<feBlend mode="normal" in="SourceGraphic" in2="effect1_dropShadow_1531_12345" result="shape"/>
</filter>
<radialGradient id="paint0_radial_1531_12345" cx="0" cy="0" r="1" gradientUnits="userSpaceOnUse" gradientTransform="translate(26.88 -16.6702) rotate(66.4378) scale(110.326 98.7023)">
<stop stop-color="#5432FF"/>
<stop offset="1" stop-color="#7256FF"/>
</radialGradient>
<linearGradient id="paint1_linear_1531_12345" x1="52.9014" y1="45.9776" x2="74.4701" y2="77.3599" gradientUnits="userSpaceOnUse">
<stop stop-color="white"/>
<stop offset="1" stop-color="white" stop-opacity="0.4"/>
</linearGradient>
</defs>
</svg>
