<svg width="120" height="120" viewBox="0 0 120 120" fill="none" xmlns="http://www.w3.org/2000/svg">
<g filter="url(#filter0_d_1531_5648)">
<rect x="20" y="10" width="80" height="80" rx="20" fill="url(#paint0_linear_1531_5648)"/>
<path fill-rule="evenodd" clip-rule="evenodd" d="M43 31C43 29.8954 43.8954 29 45 29H66C67.1046 29 68 29.8954 68 31V67H71V49C71 47.8954 71.8954 47 73 47H76C77.1046 47 78 47.8954 78 49V67H82C82.5523 67 83 67.4477 83 68V71C83 71.5523 82.5523 72 82 72H39C38.4477 72 38 71.5523 38 71V68C38 67.4477 38.4477 67 39 67H43V31Z" fill="url(#paint1_linear_1531_5648)"/>
<path opacity="0.6" fill-rule="evenodd" clip-rule="evenodd" d="M58.5 39C57.9477 39 57.5 38.5523 57.5 38V34.5C57.5 33.9477 57.0523 33.5 56.5 33.5H54.5C53.9477 33.5 53.5 33.9477 53.5 34.5V38C53.5 38.5523 53.0523 39 52.5 39H49C48.4477 39 48 39.4477 48 40V42C48 42.5523 48.4477 43 49 43H52.5C53.0523 43 53.5 43.4477 53.5 44V47.5C53.5 48.0523 53.9477 48.5 54.5 48.5H56.5C57.0523 48.5 57.5 48.0523 57.5 47.5V44C57.5 43.4477 57.9477 43 58.5 43H62C62.5523 43 63 42.5523 63 42V40C63 39.4477 62.5523 39 62 39H58.5Z" fill="#2169FF"/>
<rect opacity="0.2" x="48" y="54" width="6" height="3" rx="1" fill="#0555FF"/>
<rect opacity="0.2" x="48" y="59" width="6" height="3" rx="1" fill="#0555FF"/>
<rect opacity="0.2" x="57" y="54" width="6" height="3" rx="1" fill="#0555FF"/>
<rect opacity="0.2" x="57" y="59" width="6" height="3" rx="1" fill="#0555FF"/>
</g>
<defs>
<filter id="filter0_d_1531_5648" x="0" y="0" width="120" height="120" filterUnits="userSpaceOnUse" color-interpolation-filters="sRGB">
<feFlood flood-opacity="0" result="BackgroundImageFix"/>
<feColorMatrix in="SourceAlpha" type="matrix" values="0 0 0 0 0 0 0 0 0 0 0 0 0 0 0 0 0 0 127 0" result="hardAlpha"/>
<feOffset dy="10"/>
<feGaussianBlur stdDeviation="10"/>
<feComposite in2="hardAlpha" operator="out"/>
<feColorMatrix type="matrix" values="0 0 0 0 0.164706 0 0 0 0 0.435294 0 0 0 0 1 0 0 0 0.1 0"/>
<feBlend mode="normal" in2="BackgroundImageFix" result="effect1_dropShadow_1531_5648"/>
<feBlend mode="normal" in="SourceGraphic" in2="effect1_dropShadow_1531_5648" result="shape"/>
</filter>
<linearGradient id="paint0_linear_1531_5648" x1="41.0753" y1="10" x2="75.5885" y2="88.44" gradientUnits="userSpaceOnUse">
<stop stop-color="#0555FF"/>
<stop offset="1" stop-color="#4380FF"/>
</linearGradient>
<linearGradient id="paint1_linear_1531_5648" x1="64.25" y1="48.2359" x2="76.5883" y2="74.8924" gradientUnits="userSpaceOnUse">
<stop stop-color="white"/>
<stop offset="1" stop-color="white" stop-opacity="0.6"/>
</linearGradient>
</defs>
</svg>
