<svg width="120" height="120" viewBox="0 0 120 120" fill="none" xmlns="http://www.w3.org/2000/svg">
<g filter="url(#filter0_d_1531_5023)">
<rect x="20" y="10" width="80" height="80" rx="20" fill="url(#paint0_radial_1531_5023)"/>
<path d="M78.4979 69.9438C78.4866 70.0099 78.4753 70.0822 78.464 70.1542C78.4414 70.2925 78.4074 70.4309 78.3735 70.5634C78.34 70.6936 78.3004 70.8221 78.2548 70.9486C78.2661 70.9304 78.2774 70.9063 78.2888 70.8822C78.2716 70.9183 78.2548 70.9544 78.2435 70.9906L78.2267 71.0267C78.2209 71.0388 78.2153 71.0567 78.2095 71.0687C78.1034 71.3012 77.9786 71.5246 77.8363 71.7368C77.8476 71.7247 77.859 71.7127 77.8703 71.6945C77.8534 71.7127 77.8363 71.7307 77.825 71.7547L77.8195 71.7609C77.8027 71.7846 77.7742 71.8208 77.7574 71.839L77.7516 71.8449C77.6726 71.9471 77.5821 72.0435 77.4916 72.1337C77.4124 72.2122 77.3335 72.2903 77.2488 72.3684L77.1298 72.4586C77.0283 72.5309 76.9209 72.5971 76.8136 72.6634C76.7059 72.7234 76.2991 72.88 76.7344 72.7234C76.497 72.8139 76.2652 72.9041 76.0165 72.9581C75.9771 72.9643 75.9431 72.9761 75.9034 72.9822C75.7791 72.9881 75.6604 73.0001 75.536 73.0001H44.432C44.3076 73.0001 44.1889 72.9881 44.0643 72.9822C44.0249 72.976 43.9854 72.9643 43.9456 72.9581C43.8215 72.9282 43.697 72.8979 43.5783 72.856C43.5162 72.8377 43.4597 72.8139 43.3976 72.7899C43.3918 72.7837 43.3804 72.7837 43.3749 72.7837C43.1657 72.6753 42.9624 72.5551 42.7645 72.4167C42.759 72.4105 42.7476 72.4047 42.7418 72.3984C42.7304 72.3926 42.7191 72.3805 42.7079 72.3685C42.6797 72.3445 42.6458 72.3203 42.6177 72.2962C42.64 72.3144 42.6626 72.3265 42.6798 72.3386C42.5837 72.2543 42.4987 72.164 42.4085 72.0736C42.3293 71.9896 42.25 71.8994 42.1766 71.803C42.1824 71.8151 42.1937 71.8271 42.1993 71.8391C42.188 71.821 42.1824 71.8089 42.1711 71.7909L42.154 71.7728C42.1314 71.749 42.1146 71.7128 42.0974 71.6887C42.0974 71.6826 42.0919 71.6826 42.0919 71.6767C41.9335 71.4299 41.8206 71.1652 41.6907 70.9005C41.8998 71.3215 41.6962 70.9064 41.6567 70.78C41.6173 70.6478 41.5775 70.5095 41.5494 70.371C41.538 70.3109 41.5267 70.2447 41.5154 70.1845C41.5065 70.1366 41.4989 70.0884 41.4928 70.04L41.4759 69.9498C41.4815 69.9797 41.4873 70.0039 41.4928 70.028L41.4759 69.7391V57.814C42.0298 58.0245 42.6966 58.2469 43.3636 58.3915V58.4035C43.567 58.4397 43.7763 58.4758 43.9855 58.5C44.0308 58.5058 44.0702 58.512 44.1155 58.5179C44.1323 58.5179 44.1494 58.5241 44.1663 58.5241C44.2002 58.53 44.2283 58.53 44.2623 58.5358C44.6581 58.5782 45.0593 58.596 45.4719 58.596C48.1962 58.584 50.7907 57.489 52.7577 55.5698C54.7189 57.489 57.2908 58.572 60.0038 58.5902H60.0151C62.7112 58.572 65.2773 57.477 67.2216 55.5636C69.1999 57.5011 71.7942 58.584 74.53 58.584H74.5355C75.2592 58.5782 75.9599 58.5121 76.6156 58.3916V58.3795C77.2555 58.2636 77.8822 58.0842 78.4865 57.844C78.4807 59.6191 78.5092 61.3938 78.5092 63.163V67.7234C78.5092 68.4876 78.5542 69.2638 78.4921 70.028C78.4866 69.9979 78.4921 69.9676 78.4979 69.9438ZM82.5021 47.1261C82.4911 47.3088 82.4741 47.4856 82.4574 47.6684V47.6741C82.4403 47.7095 82.4291 47.9039 82.4236 47.9393C82.3616 48.3234 82.2829 48.7047 82.1876 49.0821C82.0977 49.4296 81.9965 49.7712 81.8784 50.1069C81.8505 50.1894 81.8167 50.2777 81.7887 50.3603C81.7775 50.3897 81.7662 50.4132 81.7549 50.4428C81.7042 50.5783 81.71 50.5547 81.7887 50.366C81.7942 50.4193 81.7042 50.5605 81.6817 50.6137C81.637 50.7195 81.5862 50.8315 81.5358 50.9376C81.3895 51.2439 81.2323 51.5441 81.058 51.833C80.9738 51.9742 80.8838 52.1157 80.7941 52.257C80.6983 52.3985 80.5353 52.5633 80.4736 52.7223L80.3219 52.9168C80.2209 53.0465 80.1139 53.1702 80.0071 53.2938C79.7737 53.5565 79.528 53.8081 79.271 54.0477C79.153 54.1599 79.0296 54.2657 78.9058 54.3719C78.8216 54.4426 78.7428 54.5249 78.6811 54.6132L78.6249 54.5367C78.5181 54.6132 77.4956 55.3263 75.7423 55.5618V55.5736C75.3266 55.6266 74.894 55.6559 74.4499 55.6619C71.9885 55.6559 69.6736 54.5368 68.1113 52.5868L67.1842 51.4322L66.2571 52.575C64.706 54.5074 62.4303 55.6266 60.0084 55.6501C57.5698 55.6326 55.277 54.5131 53.7205 52.5811L52.7934 51.4322L51.8717 52.5811C50.2984 54.5367 47.9945 55.6619 45.5501 55.6676C45.0669 55.6676 44.6059 55.6326 44.1565 55.5676C43.0889 55.3792 41.7908 54.8312 41.2852 54.5899C41.2431 54.54 41.198 54.4928 41.1502 54.4484C40.9142 54.2364 40.667 54.0302 40.4423 53.8064C40.2331 53.5987 40.0324 53.3825 39.8409 53.1583C39.7454 53.0464 39.65 52.9345 39.5599 52.8166C39.5207 52.7637 39.4814 52.7164 39.442 52.6636C39.4307 52.6517 39.4253 52.6339 39.414 52.6221C39.0713 52.1392 38.7733 51.6266 38.5094 51.0904C38.4419 50.9549 38.3801 50.8195 38.3181 50.684C38.2901 50.6193 38.2618 50.5546 38.2339 50.4838C38.1218 50.1912 38.0206 49.8946 37.9304 49.5945C37.7449 48.9758 37.6439 48.3573 37.5315 47.7211C37.6157 48.1922 37.526 47.6564 37.5202 47.5384C37.5089 47.3854 37.4976 47.2263 37.4864 47.073C37.4697 46.7077 37.464 46.3427 37.4809 45.9714C37.4864 45.783 37.4976 45.5946 37.5146 45.4119C37.5202 45.3176 37.5314 45.2233 37.5427 45.1292C37.5482 45.0996 37.5482 45.0641 37.5539 45.0348C37.5706 44.8818 37.5706 44.9111 37.5427 45.1174C37.526 45.0523 37.5764 44.9051 37.5819 44.8404C37.599 44.746 37.6157 44.6578 37.6327 44.5637C37.6716 44.3484 37.7165 44.1342 37.7674 43.9214C37.8742 43.4796 37.9921 43.0613 38.1497 42.6432C38.5824 41.5179 39.0093 40.3929 39.442 39.2677C40.3357 36.9407 41.2682 34.6199 42.1224 32.2753L42.1732 32.1162C42.2124 31.9985 42.4146 31.5625 42.2124 31.9868C42.2799 31.8453 42.3359 31.698 42.4091 31.5567C42.5271 31.3212 42.6618 31.0914 42.8081 30.8734C42.8418 30.8204 42.8865 30.7672 42.9203 30.7143C42.9052 30.7346 42.8921 30.7563 42.881 30.779C42.9585 30.6803 43.0391 30.5841 43.1227 30.4906C43.2857 30.3136 43.4542 30.1549 43.6339 29.9958C43.6734 29.9661 43.7184 29.9308 43.7576 29.9015C43.8756 29.8131 43.9994 29.7363 44.1286 29.6598C44.2353 29.5951 44.3475 29.5303 44.46 29.4772C44.5062 29.4525 44.5531 29.429 44.6005 29.4067C44.8462 29.3073 45.0976 29.2227 45.3534 29.1533C45.4826 29.1179 45.6119 29.0944 45.7411 29.065C45.7861 29.0589 45.8311 29.0472 45.8761 29.0414C46.1233 29.0179 46.3649 29 46.6122 29H73.4609C73.5509 29 73.6351 29 73.7251 29.0061C73.8656 29.0118 74.0003 29.0179 74.1353 29.0354C74.152 29.0354 74.169 29.0415 74.1858 29.0415C74.2138 29.0415 74.242 29.0472 74.2588 29.0472C74.2871 29.0533 74.3095 29.0533 74.3375 29.0533C74.315 29.0533 74.2983 29.0533 74.2813 29.0472C74.5568 29.0944 74.832 29.1652 75.1017 29.2478C75.2254 29.2888 75.3488 29.33 75.4726 29.3832C75.5344 29.4068 75.5906 29.4361 75.6523 29.4597C75.6243 29.4479 75.6019 29.4419 75.585 29.4301C75.8378 29.554 76.0795 29.6953 76.31 29.8486C76.4059 29.9141 76.4996 29.9827 76.5909 30.0546C76.6301 30.0899 76.6694 30.1253 76.7088 30.1549C76.918 30.3449 77.1133 30.5495 77.2933 30.7673C77.3325 30.8144 77.3663 30.8617 77.4055 30.9027C77.4672 30.9971 77.5347 31.0915 77.591 31.1858C77.7315 31.4153 77.8607 31.6509 77.9732 31.8986C77.9788 31.9161 77.9845 31.9279 77.9957 31.9454C78.0067 31.9691 78.0179 31.9987 78.0291 32.0222C78.0404 32.0458 78.0462 32.0694 78.0575 32.087C78.0517 32.0695 78.0404 32.0577 78.035 32.0399C78.0742 32.1399 78.1024 32.246 78.1417 32.3462L78.1584 32.399C78.479 33.3123 78.8216 34.2135 79.1475 35.1206C80.0634 37.6421 80.985 40.1633 81.9009 42.6904L81.9851 42.9202C82.0919 43.2384 82.1651 43.5858 82.2436 43.9158C82.2886 44.0924 82.3223 44.275 82.3615 44.4577C82.3785 44.546 82.3952 44.6404 82.4123 44.7286C82.4236 44.8112 82.4965 45.0174 82.4685 45.0939C82.4627 45.0349 82.4515 44.976 82.446 44.917C82.4515 44.976 82.4627 45.0407 82.4685 45.0997C82.4798 45.194 82.4853 45.2823 82.4965 45.3767C82.5132 45.5593 82.5245 45.742 82.5302 45.9304C82.5303 46.3429 82.5245 46.7375 82.5021 47.1261Z" fill="url(#paint1_linear_1531_5023)"/>
<path opacity="0.6" d="M64.8802 39.9462H61.6286V36.6156C61.6286 35.6927 60.9008 34.9473 59.9999 34.9473C59.0989 34.9473 58.3712 35.6927 58.3712 36.6156V39.9462H55.1199C54.2187 39.9462 53.4912 40.6913 53.4912 41.6141C53.4912 42.5372 54.2187 43.2824 55.1199 43.2824H58.3712V46.613C58.3712 47.5358 59.0989 48.2812 59.9999 48.2812C60.9008 48.2812 61.6286 47.5358 61.6286 46.613V43.2768H64.8802C65.7811 43.2768 66.5085 42.5314 66.5085 41.6085C66.5085 40.6913 65.7754 39.9462 64.8802 39.9462Z" fill="#FC790D"/>
</g>
<defs>
<filter id="filter0_d_1531_5023" x="0" y="0" width="120" height="120" filterUnits="userSpaceOnUse" color-interpolation-filters="sRGB">
<feFlood flood-opacity="0" result="BackgroundImageFix"/>
<feColorMatrix in="SourceAlpha" type="matrix" values="0 0 0 0 0 0 0 0 0 0 0 0 0 0 0 0 0 0 127 0" result="hardAlpha"/>
<feOffset dy="10"/>
<feGaussianBlur stdDeviation="10"/>
<feColorMatrix type="matrix" values="0 0 0 0 0.988235 0 0 0 0 0.47451 0 0 0 0 0.0509804 0 0 0 0.1 0"/>
<feBlend mode="normal" in2="BackgroundImageFix" result="effect1_dropShadow_1531_5023"/>
<feBlend mode="normal" in="SourceGraphic" in2="effect1_dropShadow_1531_5023" result="shape"/>
</filter>
<radialGradient id="paint0_radial_1531_5023" cx="0" cy="0" r="1" gradientUnits="userSpaceOnUse" gradientTransform="translate(20.0099 50) scale(80.0918 371.337)">
<stop stop-color="#FC790D"/>
<stop offset="1" stop-color="#FF9A23"/>
</radialGradient>
<linearGradient id="paint1_linear_1531_5023" x1="63.7554" y1="48.6833" x2="76.5572" y2="75.7483" gradientUnits="userSpaceOnUse">
<stop stop-color="white"/>
<stop offset="1" stop-color="white" stop-opacity="0.6"/>
</linearGradient>
</defs>
</svg>
