<svg width="120" height="120" viewBox="0 0 120 120" fill="none" xmlns="http://www.w3.org/2000/svg">
<g filter="url(#filter0_d_1531_10794)">
<rect x="20" y="10" width="80" height="80" rx="20" fill="url(#paint0_radial_1531_10794)"/>
<path fill-rule="evenodd" clip-rule="evenodd" d="M47 74.7614V43V40.7129C47 40.411 47.112 40.1195 47.315 39.8931L54.4238 31.9696L54.4285 25.2357C54.4293 24.9076 54.5623 24.5932 54.7984 24.3616C55.0345 24.1299 55.3544 23.9998 55.6878 24H64.3128C64.4782 24 64.642 24.0321 64.7948 24.0944C64.9476 24.1567 65.0864 24.2481 65.2033 24.3632C65.3202 24.4783 65.4129 24.615 65.476 24.7654C65.5392 24.9159 65.5717 25.077 65.5715 25.2398L65.5668 31.9725L71.9645 39.0897L72.6844 39.8908C72.8878 40.1172 73 40.4089 73 40.7111V43V74.7614V75C73 76.6569 71.6569 78 70 78H50C48.3431 78 47 76.6569 47 75V74.7614Z" fill="url(#paint1_linear_1531_10794)"/>
<path opacity="0.4" d="M67.0006 37.2188C67.5404 37.8707 67.0768 38.8566 66.2304 38.8566H53.7671C52.9211 38.8566 52.4573 37.8713 52.9965 37.2193L55.9498 33.6479C56.1398 33.4182 56.4223 33.2852 56.7204 33.2852H63.2729C63.5708 33.2852 63.8531 33.4179 64.0431 33.6474L67.0006 37.2188Z" fill="#FF6058"/>
<rect opacity="0.2" x="57" y="26" width="6" height="5" rx="1" fill="#FF5C58"/>
</g>
<defs>
<filter id="filter0_d_1531_10794" x="0" y="0" width="120" height="120" filterUnits="userSpaceOnUse" color-interpolation-filters="sRGB">
<feFlood flood-opacity="0" result="BackgroundImageFix"/>
<feColorMatrix in="SourceAlpha" type="matrix" values="0 0 0 0 0 0 0 0 0 0 0 0 0 0 0 0 0 0 127 0" result="hardAlpha"/>
<feOffset dy="10"/>
<feGaussianBlur stdDeviation="10"/>
<feColorMatrix type="matrix" values="0 0 0 0 1 0 0 0 0 0.37647 0 0 0 0 0.345098 0 0 0 0.1 0"/>
<feBlend mode="normal" in2="BackgroundImageFix" result="effect1_dropShadow_1531_10794"/>
<feBlend mode="normal" in="SourceGraphic" in2="effect1_dropShadow_1531_10794" result="shape"/>
</filter>
<radialGradient id="paint0_radial_1531_10794" cx="0" cy="0" r="1" gradientUnits="userSpaceOnUse" gradientTransform="translate(40 16.6667) rotate(62.5009) scale(78.3793)">
<stop stop-color="#FF5656"/>
<stop offset="1" stop-color="#FF9061"/>
</radialGradient>
<linearGradient id="paint1_linear_1531_10794" x1="60" y1="48.4286" x2="82.0641" y2="65.0804" gradientUnits="userSpaceOnUse">
<stop stop-color="white"/>
<stop offset="1" stop-color="white" stop-opacity="0.6"/>
</linearGradient>
</defs>
</svg>
