<svg width="120" height="120" viewBox="0 0 120 120" fill="none" xmlns="http://www.w3.org/2000/svg">
<g filter="url(#filter0_d_1531_12046)">
<rect x="20" y="10" width="80" height="80" rx="20" fill="url(#paint0_radial_1531_12046)"/>
<path d="M61.376 34.3C61.376 35.4046 60.4806 36.3 59.376 36.3H52.092C50.9874 36.3 50.092 35.4046 50.092 34.3V30.1C50.092 29.1493 50.34 28.395 50.836 27.837C51.332 27.279 52.014 27 52.882 27H54.246H56.044H57.78H58.958C59.8673 27 60.4977 27.3203 60.849 27.961C61.2003 28.6017 61.376 29.2733 61.376 29.976V34.3ZM63.376 34.082C64.6987 34.082 65.7217 34.5057 66.445 35.353C67.1683 36.2003 67.53 37.2647 67.53 38.546C67.53 52.9767 67.53 61.0673 67.53 75.498C67.53 76.5727 67.22 77.4717 66.6 78.195C65.98 78.9183 64.988 79.28 63.624 79.28H48.03C46.79 79.28 45.8083 78.9287 45.085 78.226C44.3617 77.5233 44 76.5107 44 75.188V72.832V68.492V62.788V56.464V50.202V44.684V40.592V38.546C44 37.3473 44.403 36.3037 45.209 35.415C46.015 34.5263 47.0587 34.082 48.34 34.082H63.376Z" fill="#FF815F"/>
<path d="M61.376 34.3C61.376 35.4046 60.4806 36.3 59.376 36.3H52.092C50.9874 36.3 50.092 35.4046 50.092 34.3V30.1C50.092 29.1493 50.34 28.395 50.836 27.837C51.332 27.279 52.014 27 52.882 27H54.246H56.044H57.78H58.958C59.8673 27 60.4977 27.3203 60.849 27.961C61.2003 28.6017 61.376 29.2733 61.376 29.976V34.3ZM63.376 34.082C64.6987 34.082 65.7217 34.5057 66.445 35.353C67.1683 36.2003 67.53 37.2647 67.53 38.546C67.53 52.9767 67.53 61.0673 67.53 75.498C67.53 76.5727 67.22 77.4717 66.6 78.195C65.98 78.9183 64.988 79.28 63.624 79.28H48.03C46.79 79.28 45.8083 78.9287 45.085 78.226C44.3617 77.5233 44 76.5107 44 75.188V72.832V68.492V62.788V56.464V50.202V44.684V40.592V38.546C44 37.3473 44.403 36.3037 45.209 35.415C46.015 34.5263 47.0587 34.082 48.34 34.082H63.376Z" fill="url(#paint1_linear_1531_12046)"/>
<rect opacity="0.4" width="16" height="7" rx="2" transform="matrix(1 0 0 -1 48 51)" fill="#FF765D"/>
<path d="M74.0222 54.7021C74.0222 55.2544 73.5745 55.7021 73.0222 55.7021H66.9333C66.381 55.7021 65.9333 55.2544 65.9333 54.7021V51.234C65.9333 50.5489 66.1111 50.0053 66.4667 49.6032C66.8222 49.2011 67.3111 49 67.9333 49H68.9111H70.2H71.4444H72.2889C72.9407 49 73.3926 49.2309 73.6444 49.6926C73.8963 50.1543 74.0222 50.6383 74.0222 51.1447V54.7021ZM74.0222 54.4277C74.9704 54.4277 75.7037 54.733 76.2222 55.3436C76.7407 55.9543 77 56.7213 77 57.6447V76.2745C77 77.0489 76.7778 77.6968 76.3333 78.2181C75.8889 78.7394 75.1778 79 74.2 79H65.8889C65 79 64.2963 78.7468 63.7778 78.2404C63.2593 77.734 63 77.0043 63 76.0511V74.3532V71.2255V67.1149V70.5574V66.0447V62.0681V59.1192V57.6447C63 56.7809 63.2889 56.0287 63.8667 55.3883C64.4444 54.7479 65.1926 54.4277 66.1111 54.4277H74.0222Z" fill="#FF815F"/>
<path d="M74.0222 54.7021C74.0222 55.2544 73.5745 55.7021 73.0222 55.7021H66.9333C66.381 55.7021 65.9333 55.2544 65.9333 54.7021V51.234C65.9333 50.5489 66.1111 50.0053 66.4667 49.6032C66.8222 49.2011 67.3111 49 67.9333 49H68.9111H70.2H71.4444H72.2889C72.9407 49 73.3926 49.2309 73.6444 49.6926C73.8963 50.1543 74.0222 50.6383 74.0222 51.1447V54.7021ZM74.0222 54.4277C74.9704 54.4277 75.7037 54.733 76.2222 55.3436C76.7407 55.9543 77 56.7213 77 57.6447V76.2745C77 77.0489 76.7778 77.6968 76.3333 78.2181C75.8889 78.7394 75.1778 79 74.2 79H65.8889C65 79 64.2963 78.7468 63.7778 78.2404C63.2593 77.734 63 77.0043 63 76.0511V74.3532V71.2255V67.1149V70.5574V66.0447V62.0681V59.1192V57.6447C63 56.7809 63.2889 56.0287 63.8667 55.3883C64.4444 54.7479 65.1926 54.4277 66.1111 54.4277H74.0222Z" fill="url(#paint2_linear_1531_12046)"/>
<rect opacity="0.4" x="68" y="51" width="4" height="2.95784" rx="1.47892" fill="#FF765D"/>
<rect opacity="0.2" width="8" height="5" rx="2" transform="matrix(1 0 0 -1 66 66)" fill="#FF765D"/>
<rect opacity="0.2" x="53" y="30" width="5.5" height="4" rx="1" fill="#FF765D"/>
</g>
<defs>
<filter id="filter0_d_1531_12046" x="0" y="0" width="120" height="120" filterUnits="userSpaceOnUse" color-interpolation-filters="sRGB">
<feFlood flood-opacity="0" result="BackgroundImageFix"/>
<feColorMatrix in="SourceAlpha" type="matrix" values="0 0 0 0 0 0 0 0 0 0 0 0 0 0 0 0 0 0 127 0" result="hardAlpha"/>
<feOffset dy="10"/>
<feGaussianBlur stdDeviation="10"/>
<feColorMatrix type="matrix" values="0 0 0 0 1 0 0 0 0 0.37647 0 0 0 0 0.345098 0 0 0 0.1 0"/>
<feBlend mode="normal" in2="BackgroundImageFix" result="effect1_dropShadow_1531_12046"/>
<feBlend mode="normal" in="SourceGraphic" in2="effect1_dropShadow_1531_12046" result="shape"/>
</filter>
<radialGradient id="paint0_radial_1531_12046" cx="0" cy="0" r="1" gradientUnits="userSpaceOnUse" gradientTransform="translate(40 16.6667) rotate(62.5009) scale(78.3793)">
<stop stop-color="#FF5656"/>
<stop offset="1" stop-color="#FF9061"/>
</radialGradient>
<linearGradient id="paint1_linear_1531_12046" x1="51.9688" y1="42.2901" x2="79.6326" y2="57.4328" gradientUnits="userSpaceOnUse">
<stop stop-color="white"/>
<stop offset="1" stop-color="white" stop-opacity="0.4"/>
</linearGradient>
<linearGradient id="paint2_linear_1531_12046" x1="67.7413" y1="57.4205" x2="84.0499" y2="66.525" gradientUnits="userSpaceOnUse">
<stop stop-color="white"/>
<stop offset="1" stop-color="white" stop-opacity="0.4"/>
</linearGradient>
</defs>
</svg>
