<svg width="120" height="120" viewBox="0 0 120 120" fill="none" xmlns="http://www.w3.org/2000/svg">
<g filter="url(#filter0_d_1531_9567)">
<rect x="20" y="10" width="80" height="80" rx="20" fill="url(#paint0_linear_1531_9567)"/>
<path d="M63.9637 21.125H60.5025H59.2988C58.7465 21.125 58.2988 21.5727 58.2988 22.125V23.3873H58.3047V31.3215V33.5838V39.2422H54.3404C53.0965 39.2422 52.0781 40.2541 52.0781 41.5045V76.6121C52.0781 77.8561 53.09 78.8744 54.3404 78.8744H65.6584C66.9088 78.8744 67.9271 77.856 67.9271 76.6057V41.5045C67.9271 40.2605 66.9152 39.2422 65.6648 39.2422H60.567V33.5838H61.7014C64.1957 33.5838 66.226 31.5471 66.226 29.0527V23.3873C66.226 22.1379 65.2131 21.125 63.9637 21.125Z" fill="url(#paint1_linear_1531_9567)"/>
<rect opacity="0.4" x="57" y="44" width="6" height="10" rx="3" fill="#0555FF"/>
<rect opacity="0.2" x="58.5" y="72" width="3" height="3" rx="1.5" fill="#0555FF"/>
<rect opacity="0.2" x="58.5" y="67" width="3" height="3" rx="1.5" fill="#0555FF"/>
<rect opacity="0.2" x="58.5" y="62" width="3" height="3" rx="1.5" fill="#0555FF"/>
<path opacity="0.6" d="M60.5 23.8182C60.5 23.6425 60.6425 23.5 60.8182 23.5H63C63.5523 23.5 64 23.9477 64 24.5V28.0493C64 29.9551 62.4551 31.5 60.5493 31.5C60.5221 31.5 60.5 31.4779 60.5 31.4507V23.8182Z" fill="#0555FF"/>
</g>
<defs>
<filter id="filter0_d_1531_9567" x="0" y="0" width="120" height="120" filterUnits="userSpaceOnUse" color-interpolation-filters="sRGB">
<feFlood flood-opacity="0" result="BackgroundImageFix"/>
<feColorMatrix in="SourceAlpha" type="matrix" values="0 0 0 0 0 0 0 0 0 0 0 0 0 0 0 0 0 0 127 0" result="hardAlpha"/>
<feOffset dy="10"/>
<feGaussianBlur stdDeviation="10"/>
<feComposite in2="hardAlpha" operator="out"/>
<feColorMatrix type="matrix" values="0 0 0 0 0.164706 0 0 0 0 0.435294 0 0 0 0 1 0 0 0 0.1 0"/>
<feBlend mode="normal" in2="BackgroundImageFix" result="effect1_dropShadow_1531_9567"/>
<feBlend mode="normal" in="SourceGraphic" in2="effect1_dropShadow_1531_9567" result="shape"/>
</filter>
<linearGradient id="paint0_linear_1531_9567" x1="41.0753" y1="10" x2="75.5885" y2="88.44" gradientUnits="userSpaceOnUse">
<stop stop-color="#0555FF"/>
<stop offset="1" stop-color="#4380FF"/>
</linearGradient>
<linearGradient id="paint1_linear_1531_9567" x1="57.4457" y1="38.0147" x2="79.2347" y2="45.2875" gradientUnits="userSpaceOnUse">
<stop stop-color="white"/>
<stop offset="1" stop-color="white" stop-opacity="0.4"/>
</linearGradient>
</defs>
</svg>
