<svg width="120" height="120" viewBox="0 0 120 120" fill="none" xmlns="http://www.w3.org/2000/svg">
<g filter="url(#filter0_d_1531_11097)">
<rect x="20" y="10" width="80" height="80" rx="20" fill="url(#paint0_linear_1531_11097)"/>
<path d="M69.3164 29.0025H50.7093L50.4773 29.0173C50.0708 29.0762 49.6984 29.288 49.4287 29.6134C49.1591 29.9388 49.0104 30.356 49.0103 30.7877V36.1336L44.2765 42.7962L44.2672 42.8134L44.2437 42.8529L44.2203 42.8973L44.2156 42.9071L44.1617 43.0132L44.1195 43.1192L44.1148 43.1315L44.0773 43.24L44.0469 43.3534C44.0375 43.3929 44.0328 43.4274 44.0281 43.4595C44.0281 43.4644 44.0281 43.4693 44.0234 43.4743L44.0094 43.5852L44 43.6962V69.2148L44.0141 69.4564C44.0701 69.8841 44.2713 70.276 44.5806 70.5598C44.8899 70.8435 45.2863 70.9999 45.6967 71H74.301L74.533 70.9852C74.9395 70.9263 75.312 70.7145 75.5816 70.3891C75.8513 70.0636 75.9999 69.6465 76 69.2148V43.7726L75.9766 43.4866C75.9348 43.2048 75.8296 42.9376 75.6696 42.7074L71.0154 36.0744V30.7852L70.999 30.5436C70.943 30.1159 70.7418 29.724 70.4325 29.4402C70.1232 29.1565 69.7268 29.0001 69.3164 29V29.0025Z" fill="url(#paint1_linear_1531_11097)"/>
<path opacity="0.4" d="M52 32H68V35.5H52V32Z" fill="#0DE492"/>
<path opacity="0.4" d="M51 38H67L64 42.5H48L51 38Z" fill="#0DE492"/>
<rect opacity="0.4" x="47" y="45" width="17" height="23" fill="#0DE492"/>
<path d="M49 52C49 50.8954 49.8954 50 51 50H60C61.1046 50 62 50.8954 62 52V55C62 56.1046 61.1046 57 60 57H51C49.8954 57 49 56.1046 49 55V52Z" fill="url(#paint2_linear_1531_11097)"/>
</g>
<defs>
<filter id="filter0_d_1531_11097" x="0" y="0" width="120" height="120" filterUnits="userSpaceOnUse" color-interpolation-filters="sRGB">
<feFlood flood-opacity="0" result="BackgroundImageFix"/>
<feColorMatrix in="SourceAlpha" type="matrix" values="0 0 0 0 0 0 0 0 0 0 0 0 0 0 0 0 0 0 127 0" result="hardAlpha"/>
<feOffset dy="10"/>
<feGaussianBlur stdDeviation="10"/>
<feColorMatrix type="matrix" values="0 0 0 0 0.0509804 0 0 0 0 0.894118 0 0 0 0 0.572549 0 0 0 0.1 0"/>
<feBlend mode="normal" in2="BackgroundImageFix" result="effect1_dropShadow_1531_11097"/>
<feBlend mode="normal" in="SourceGraphic" in2="effect1_dropShadow_1531_11097" result="shape"/>
</filter>
<linearGradient id="paint0_linear_1531_11097" x1="22.2642" y1="12" x2="105.568" y2="66.4879" gradientUnits="userSpaceOnUse">
<stop stop-color="#07D988"/>
<stop offset="1" stop-color="#15F59F"/>
</linearGradient>
<linearGradient id="paint1_linear_1531_11097" x1="60" y1="48" x2="77.5675" y2="68.9801" gradientUnits="userSpaceOnUse">
<stop stop-color="white"/>
<stop offset="1" stop-color="white" stop-opacity="0.6"/>
</linearGradient>
<linearGradient id="paint2_linear_1531_11097" x1="51.7211" y1="50.5975" x2="54.5754" y2="59.3156" gradientUnits="userSpaceOnUse">
<stop stop-color="white"/>
<stop offset="1" stop-color="white" stop-opacity="0.6"/>
</linearGradient>
</defs>
</svg>
