<svg width="120" height="120" viewBox="0 0 120 120" fill="none" xmlns="http://www.w3.org/2000/svg">
<g filter="url(#filter0_d_1531_3555)">
<rect x="20" y="10" width="80" height="80" rx="20" fill="url(#paint0_linear_1531_3555)"/>
<path fill-rule="evenodd" clip-rule="evenodd" d="M53.6109 42.4249C51.9163 40.7304 50.9644 38.4321 50.9644 36.0357C50.9644 33.6393 51.9163 31.341 53.6109 29.6465C55.3054 27.952 57.6036 27 60.0001 27C62.3965 27 64.6948 27.952 66.3893 29.6465C68.0838 31.341 69.0358 33.6393 69.0358 36.0357C69.0358 38.4321 68.0838 40.7304 66.3893 42.4249C64.6948 44.1195 62.3965 45.0714 60.0001 45.0714C57.6036 45.0714 55.3054 44.1195 53.6109 42.4249ZM69.3997 48.1346L57.3031 60.2312C53.1702 61.4042 50.1429 65.206 50.1429 69.7148C50.1429 70.8671 50.3412 71.9727 50.7045 73.0006H41.9286C41.9286 73.0006 37 71.3577 37 66.4291C37 61.5006 45.2143 50.0006 48.5 48.3577C51.7857 46.7148 55.0714 46.7148 60 46.7148C64.6945 46.7148 66.408 46.7149 69.3997 48.1346ZM59.9999 63.1426C56.3706 63.1426 53.4285 66.0847 53.4285 69.714C53.4285 70.911 53.7487 72.0331 54.3078 72.9997H65.6919C66.2511 72.0331 66.5713 70.911 66.5713 69.714C66.5713 66.0847 63.6292 63.1426 59.9999 63.1426ZM62.0986 60.0815L72.1215 50.0586C76.3162 53.8557 82.9999 62.3698 82.9999 66.4283C82.9999 71.3569 78.0714 72.9997 78.0714 72.9997H69.2954C69.6587 71.9719 69.8571 70.8662 69.8571 69.714C69.8571 64.9904 66.5342 61.0435 62.0986 60.0815Z" fill="url(#paint1_linear_1531_3555)"/>
</g>
<defs>
<filter id="filter0_d_1531_3555" x="0" y="0" width="120" height="120" filterUnits="userSpaceOnUse" color-interpolation-filters="sRGB">
<feFlood flood-opacity="0" result="BackgroundImageFix"/>
<feColorMatrix in="SourceAlpha" type="matrix" values="0 0 0 0 0 0 0 0 0 0 0 0 0 0 0 0 0 0 127 0" result="hardAlpha"/>
<feOffset dy="10"/>
<feGaussianBlur stdDeviation="10"/>
<feComposite in2="hardAlpha" operator="out"/>
<feColorMatrix type="matrix" values="0 0 0 0 0.164706 0 0 0 0 0.435294 0 0 0 0 1 0 0 0 0.1 0"/>
<feBlend mode="normal" in2="BackgroundImageFix" result="effect1_dropShadow_1531_3555"/>
<feBlend mode="normal" in="SourceGraphic" in2="effect1_dropShadow_1531_3555" result="shape"/>
</filter>
<linearGradient id="paint0_linear_1531_3555" x1="41.0753" y1="10" x2="75.5885" y2="88.44" gradientUnits="userSpaceOnUse">
<stop stop-color="#0555FF"/>
<stop offset="1" stop-color="#4380FF"/>
</linearGradient>
<linearGradient id="paint1_linear_1531_3555" x1="60" y1="47.8098" x2="77.7242" y2="75.5916" gradientUnits="userSpaceOnUse">
<stop stop-color="white"/>
<stop offset="1" stop-color="white" stop-opacity="0.6"/>
</linearGradient>
</defs>
</svg>
