<svg width="1440" height="544" viewBox="0 0 1440 544" fill="none" xmlns="http://www.w3.org/2000/svg">
<g clip-path="url(#clip0_1616_6060)">
<rect width="1440" height="544" fill="#FBFBFD"/>
<circle opacity="0.36" cx="720.5" cy="271.5" r="123.5" stroke="url(#paint0_linear_1616_6060)" stroke-linecap="round" stroke-linejoin="round" stroke-dasharray="2 4"/>
<circle opacity="0.24" cx="720.5" cy="271.5" r="303.5" stroke="url(#paint1_linear_1616_6060)" stroke-linecap="round" stroke-linejoin="round" stroke-dasharray="2 4"/>
<circle opacity="0.2" cx="444" cy="148" r="8" fill="#0555FF"/>
<path d="M379.82 149.94V154.5H379.025V153.825H372.26V154.5H371.465V149.94H379.82ZM372.26 153.075H379.025V150.675H372.26V153.075ZM374.54 143.355C374.32 143.705 374.06 144.075 373.76 144.465H379.415V145.14C378.735 146.05 377.78 146.85 376.55 147.54C378.24 148.27 380.17 148.725 382.34 148.905L382.145 149.655C379.715 149.445 377.575 148.88 375.725 147.96C373.925 148.81 371.675 149.48 368.975 149.97L368.66 149.22C371.22 148.79 373.305 148.225 374.915 147.525C374.075 147.045 373.27 146.475 372.5 145.815C371.88 146.375 371.225 146.87 370.535 147.3L370.025 146.685C371.585 145.755 372.825 144.58 373.745 143.16L374.54 143.355ZM375.725 147.15C376.865 146.58 377.775 145.925 378.455 145.185H373.13C373.07 145.245 373.025 145.295 372.995 145.335C373.835 146.055 374.745 146.66 375.725 147.15ZM381.5 142.005V144.69H380.675V142.74H370.325V144.69H369.5V142.005H375.11C374.95 141.605 374.745 141.21 374.495 140.82L375.38 140.67C375.55 140.99 375.74 141.435 375.95 142.005H381.5ZM385.61 145.755V148.485H388.28V145.755H385.61ZM388.28 145.02V142.26H385.61V145.02H388.28ZM385.595 149.25C385.525 151.36 385.185 153.105 384.575 154.485L383.945 153.93C384.555 152.51 384.865 150.73 384.875 148.59V141.495H389.045V153.165C389.045 154.005 388.655 154.425 387.875 154.425H386.675L386.48 153.705C387.04 153.725 387.425 153.735 387.635 153.735C388.065 153.735 388.28 153.455 388.28 152.895V149.25H385.595ZM391.235 147.765V154.47H390.47V141.495H396.38C396.38 143.265 396.29 144.445 396.11 145.035C395.95 145.635 395.39 145.935 394.43 145.935H393.275L393.05 145.23H394.055C394.445 145.23 394.735 145.2 394.925 145.14C395.115 145.08 395.26 144.93 395.36 144.69C395.49 144.28 395.56 143.465 395.57 142.245H391.235V147.03H396.38V147.72C396.06 149.35 395.53 150.715 394.79 151.815C395.51 152.535 396.37 153.175 397.37 153.735L396.98 154.41C395.92 153.8 395.04 153.14 394.34 152.43C393.67 153.25 392.86 153.915 391.91 154.425L391.49 153.78C392.42 153.25 393.19 152.61 393.8 151.86C392.78 150.66 392.09 149.295 391.73 147.765H391.235ZM392.435 147.765C392.765 149.055 393.37 150.215 394.25 151.245C394.89 150.255 395.355 149.095 395.645 147.765H392.435ZM404.3 146.835V146.085C406.28 144.925 408.04 143.72 409.58 142.47H404.465V141.705H410.75V142.44C409.18 143.78 407.5 145.005 405.71 146.115H411.725C411.645 149.525 411.495 151.725 411.275 152.715C411.035 153.725 410.375 154.24 409.295 154.26C408.945 154.26 408.47 154.25 407.87 154.23L407.645 153.435C408.325 153.475 408.835 153.495 409.175 153.495C409.815 153.465 410.245 153.16 410.465 152.58C410.665 152.05 410.81 150.135 410.9 146.835H409.595C409.235 148.695 408.7 150.16 407.99 151.23C407.22 152.35 406.05 153.36 404.48 154.26L403.97 153.63C405.45 152.8 406.545 151.895 407.255 150.915C407.955 149.915 408.475 148.555 408.815 146.835H407.42C406.86 148.735 405.895 150.215 404.525 151.275L404 150.645C405.26 149.665 406.14 148.395 406.64 146.835H404.3ZM398.795 145.02H400.715V141.09H401.525V145.02H403.52V145.815H401.525V151.38C402.305 151.15 402.99 150.92 403.58 150.69V151.515C402.1 152.075 400.515 152.535 398.825 152.895L398.615 152.055C399.305 151.935 400.005 151.785 400.715 151.605V145.815H398.795V145.02ZM415.895 148.02H425.21V150.915H421.07V153.315C421.07 154.045 420.725 154.41 420.035 154.41H418.28L418.1 153.66C418.88 153.7 419.435 153.72 419.765 153.72C420.095 153.72 420.26 153.52 420.26 153.12V150.915H415.895V148.02ZM424.4 150.255V148.695H416.69V150.255H424.4ZM415.67 141.27H425.345V145.35H420.62L421.055 146.37H427.055V147.075H413.945V146.37H420.2C420.01 145.94 419.84 145.6 419.69 145.35H415.67V141.27ZM424.535 144.675V143.595H416.48V144.675H424.535ZM416.48 142.98H424.535V141.93H416.48V142.98ZM423.11 151.605C424.55 152.045 425.93 152.68 427.25 153.51L426.95 154.245C425.63 153.405 424.235 152.74 422.765 152.25L423.11 151.605ZM418.07 152.085C417.07 152.965 415.78 153.69 414.2 154.26L413.75 153.585C415.42 153.025 416.685 152.345 417.545 151.545L418.07 152.085Z" fill="#869BB9"/>
<circle cx="444" cy="148" r="4" fill="#0555FF"/>
<circle opacity="0.2" cx="303" cy="367" r="8" fill="#0555FF"/>
<circle cx="303" cy="367" r="4" fill="#0555FF"/>
<path d="M227.78 363.87H229.505V359.85H230.3V363.87H231.905V364.65H230.3V369.975C230.97 369.705 231.59 369.42 232.16 369.12V369.93C230.81 370.61 229.395 371.155 227.915 371.565L227.705 370.785C228.265 370.645 228.865 370.47 229.505 370.26V364.65H227.78V363.87ZM234.86 359.805C235.12 360.425 235.35 361.075 235.55 361.755H237.875C238.165 361.075 238.37 360.385 238.49 359.685L239.285 359.79C239.135 360.5 238.925 361.155 238.655 361.755H240.74V366.615H232.67V361.755H234.785C234.545 361.065 234.3 360.465 234.05 359.955L234.86 359.805ZM240.02 365.94V362.475H237.005V365.94H240.02ZM236.345 365.94V362.475H233.39V365.94H236.345ZM234.8 363.18C235.08 363.77 235.33 364.425 235.55 365.145L234.995 365.295C234.765 364.575 234.515 363.93 234.245 363.36L234.8 363.18ZM239.105 363.255C238.885 364.055 238.63 364.75 238.34 365.34L237.785 365.145C238.075 364.555 238.32 363.875 238.52 363.105L239.105 363.255ZM240.2 367.77V373.47H239.42V372.78H234.05V373.47H233.27V367.77H240.2ZM234.05 372.09H239.42V370.605H234.05V372.09ZM234.05 369.945H239.42V368.445H234.05V369.945ZM242.96 365.685H246.08V359.85H246.905V365.685H256.085V366.495H251.06C251.69 369.065 253.425 371.05 256.265 372.45L255.8 373.215C252.77 371.595 250.925 369.355 250.265 366.495H246.905V372.285C248.015 372.005 249.2 371.64 250.46 371.19L250.655 371.955C249.235 372.455 247.695 372.91 246.035 373.32L245.78 372.555C245.98 372.465 246.08 372.325 246.08 372.135V366.495H242.96V365.685ZM254.51 360.57C253.32 361.92 251.51 363.14 249.08 364.23L248.585 363.57C251.005 362.51 252.8 361.32 253.97 360L254.51 360.57ZM263.3 365.835V365.085C265.28 363.925 267.04 362.72 268.58 361.47H263.465V360.705H269.75V361.44C268.18 362.78 266.5 364.005 264.71 365.115H270.725C270.645 368.525 270.495 370.725 270.275 371.715C270.035 372.725 269.375 373.24 268.295 373.26C267.945 373.26 267.47 373.25 266.87 373.23L266.645 372.435C267.325 372.475 267.835 372.495 268.175 372.495C268.815 372.465 269.245 372.16 269.465 371.58C269.665 371.05 269.81 369.135 269.9 365.835H268.595C268.235 367.695 267.7 369.16 266.99 370.23C266.22 371.35 265.05 372.36 263.48 373.26L262.97 372.63C264.45 371.8 265.545 370.895 266.255 369.915C266.955 368.915 267.475 367.555 267.815 365.835H266.42C265.86 367.735 264.895 369.215 263.525 370.275L263 369.645C264.26 368.665 265.14 367.395 265.64 365.835H263.3ZM257.795 364.02H259.715V360.09H260.525V364.02H262.52V364.815H260.525V370.38C261.305 370.15 261.99 369.92 262.58 369.69V370.515C261.1 371.075 259.515 371.535 257.825 371.895L257.615 371.055C258.305 370.935 259.005 370.785 259.715 370.605V364.815H257.795V364.02ZM274.895 367.02H284.21V369.915H280.07V372.315C280.07 373.045 279.725 373.41 279.035 373.41H277.28L277.1 372.66C277.88 372.7 278.435 372.72 278.765 372.72C279.095 372.72 279.26 372.52 279.26 372.12V369.915H274.895V367.02ZM283.4 369.255V367.695H275.69V369.255H283.4ZM274.67 360.27H284.345V364.35H279.62L280.055 365.37H286.055V366.075H272.945V365.37H279.2C279.01 364.94 278.84 364.6 278.69 364.35H274.67V360.27ZM283.535 363.675V362.595H275.48V363.675H283.535ZM275.48 361.98H283.535V360.93H275.48V361.98ZM282.11 370.605C283.55 371.045 284.93 371.68 286.25 372.51L285.95 373.245C284.63 372.405 283.235 371.74 281.765 371.25L282.11 370.605ZM277.07 371.085C276.07 371.965 274.78 372.69 273.2 373.26L272.75 372.585C274.42 372.025 275.685 371.345 276.545 370.545L277.07 371.085Z" fill="#869BB9"/>
<circle opacity="0.2" cx="1122" cy="407" r="8" fill="#0555FF"/>
<circle cx="1122" cy="407" r="4" fill="#0555FF"/>
<path d="M1139.1 402.085H1141.33V399.94H1142.14V402.085H1144.26V402.865H1142.14V405.34L1142.13 405.595H1144.47V406.375H1142.1C1142.07 406.805 1142.02 407.225 1141.96 407.635C1142.85 408.525 1143.74 409.505 1144.62 410.575L1144.15 411.25C1143.28 410.06 1142.51 409.11 1141.83 408.4C1141.41 410.59 1140.56 412.295 1139.28 413.515L1138.66 412.975C1140.2 411.525 1141.08 409.325 1141.29 406.375H1138.9V405.595H1141.32L1141.33 405.1V402.865H1139.1V402.085ZM1151.13 400.465V408.58H1150.33V401.23H1146.09V408.58H1145.29V400.465H1151.13ZM1149.61 413.275C1148.9 413.275 1148.55 412.89 1148.55 412.12V408.715H1149.31V411.97C1149.31 412.36 1149.49 412.555 1149.85 412.555H1150.68C1150.98 412.555 1151.19 412.475 1151.32 412.315C1151.49 412.115 1151.61 411.515 1151.67 410.515L1152.37 410.755C1152.28 411.945 1152.11 412.68 1151.86 412.96C1151.64 413.17 1151.29 413.275 1150.81 413.275H1149.61ZM1147.83 402.655H1148.59V405.235C1148.56 407.445 1148.17 409.225 1147.41 410.575C1146.66 411.825 1145.44 412.8 1143.75 413.5L1143.31 412.825C1144.97 412.125 1146.15 411.185 1146.85 410.005C1147.47 408.805 1147.8 407.215 1147.83 405.235V402.655ZM1159.3 403.465H1166.23V408.025H1163.11C1163.09 408.535 1163.04 408.985 1162.96 409.375H1167.27V410.125H1163.26C1164.12 411.255 1165.48 412.165 1167.33 412.855L1166.8 413.485C1164.89 412.685 1163.51 411.67 1162.65 410.44L1162.5 410.77C1161.95 411.87 1160.71 412.775 1158.78 413.485L1158.27 412.84C1159.98 412.25 1161.13 411.495 1161.73 410.575C1161.82 410.425 1161.9 410.275 1161.96 410.125H1158.19V409.375H1162.2C1162.31 408.955 1162.37 408.505 1162.38 408.025H1159.3V403.465ZM1165.47 407.365V406.075H1160.05V407.365H1165.47ZM1160.05 405.43H1165.47V404.125H1160.05V405.43ZM1158.33 401.125H1160.64V399.79H1161.42V401.125H1163.97V399.79H1164.75V401.125H1167.15V401.875H1164.75V403.015H1163.97V401.875H1161.42V403.015H1160.64V401.875H1158.33V401.125ZM1156.66 413.41H1155.88V405.4C1155.4 407 1154.74 408.44 1153.9 409.72L1153.56 408.85C1154.65 407.33 1155.42 405.575 1155.87 403.585H1153.9V402.82H1155.88V399.79H1156.66V402.82H1158.22V403.585H1156.66V404.68C1157.18 405.35 1157.79 406.23 1158.49 407.32L1158.06 407.98C1157.5 406.95 1157.03 406.145 1156.66 405.565V413.41ZM1174.06 400.09C1173.52 401.35 1172.86 402.51 1172.07 403.57V413.5H1171.26V404.575C1170.55 405.375 1169.76 406.135 1168.89 406.855L1168.63 406.015C1170.78 404.185 1172.34 402.095 1173.3 399.745L1174.06 400.09ZM1177.24 413.215C1176.28 413.215 1175.8 412.745 1175.8 411.805V406.945C1175.07 407.365 1174.36 407.74 1173.67 408.07L1173.28 407.29C1174.13 406.92 1174.97 406.49 1175.8 406V399.85H1176.61V405.49C1178.26 404.41 1179.71 403.16 1180.95 401.74L1181.5 402.37C1180.12 403.92 1178.49 405.28 1176.61 406.45V411.685C1176.61 412.185 1176.89 412.435 1177.44 412.435H1179.99C1180.41 412.435 1180.72 412.31 1180.92 412.06C1181.11 411.8 1181.23 410.88 1181.29 409.3L1182.04 409.54C1181.95 411.27 1181.78 412.32 1181.53 412.69C1181.26 413.04 1180.79 413.215 1180.12 413.215H1177.24ZM1189.12 400.45H1195.86V401.2H1189.12V400.45ZM1188.13 404.05H1196.92V404.815H1192.15C1191.21 407.175 1190.41 408.765 1189.74 409.585C1191.96 409.375 1193.77 409.12 1195.18 408.82C1194.77 407.89 1194.35 407.035 1193.91 406.255L1194.58 406.03C1195.38 407.38 1196.11 408.975 1196.76 410.815L1196.02 410.995C1195.84 410.485 1195.66 410.005 1195.48 409.555C1193.75 409.895 1191.52 410.175 1188.79 410.395L1188.55 409.66C1189.19 409.47 1190.12 407.855 1191.34 404.815H1188.13V404.05ZM1184.83 400.09C1185.83 400.86 1186.68 401.63 1187.38 402.4L1186.81 402.985C1186.2 402.265 1185.35 401.48 1184.26 400.63L1184.83 400.09ZM1193.7 413.185C1193.2 413.185 1192.31 413.175 1191.03 413.155C1190.04 413.125 1189.26 413.03 1188.7 412.87C1188.1 412.68 1187.57 412.31 1187.11 411.76C1186.92 411.5 1186.73 411.37 1186.54 411.37C1186.13 411.37 1185.48 412.065 1184.58 413.455L1183.96 412.915C1184.8 411.605 1185.54 410.845 1186.18 410.635V405.835H1183.96V405.055H1186.95V410.665C1187.13 410.775 1187.28 410.915 1187.41 411.085C1187.79 411.535 1188.2 411.865 1188.64 412.075C1189.12 412.255 1189.8 412.36 1190.68 412.39C1191.68 412.41 1192.65 412.42 1193.58 412.42H1195.65L1197.25 412.36L1197.06 413.185H1193.7ZM1201.92 405.295H1209.15V408.205H1201.92V405.295ZM1208.38 407.56V405.94H1202.68V407.56H1208.38ZM1210.54 409.375V413.47H1209.75V412.84H1201.32V413.47H1200.52V409.375H1210.54ZM1201.32 412.135H1209.75V410.095H1201.32V412.135ZM1199.1 400.885H1202.56V399.805H1203.37V400.885H1207.63V399.805H1208.44V400.885H1211.91V401.62H1208.44V402.595H1207.63V401.62H1203.37V402.595H1202.56V401.62H1199.1V400.885ZM1211.43 403.33V406.015H1210.63V404.05H1200.37V406.09H1199.58V403.33H1211.43Z" fill="#869BB9"/>
<circle opacity="0.24" cx="720.5" cy="271.5" r="426.5" stroke="url(#paint2_linear_1616_6060)" stroke-linecap="round" stroke-linejoin="round" stroke-dasharray="2 4"/>
<circle opacity="0.15" cx="720.5" cy="271.5" r="558.5" stroke="url(#paint3_linear_1616_6060)" stroke-linecap="round" stroke-linejoin="round" stroke-dasharray="2 4"/>
</g>
<defs>
<linearGradient id="paint0_linear_1616_6060" x1="720.5" y1="148" x2="720.5" y2="395" gradientUnits="userSpaceOnUse">
<stop stop-color="white" stop-opacity="0"/>
<stop offset="0.279598" stop-color="#1561FF"/>
<stop offset="0.730515" stop-color="#1561FF"/>
<stop offset="1" stop-color="white" stop-opacity="0"/>
</linearGradient>
<linearGradient id="paint1_linear_1616_6060" x1="720.5" y1="-32" x2="720.5" y2="575" gradientUnits="userSpaceOnUse">
<stop stop-color="white" stop-opacity="0"/>
<stop offset="0.279598" stop-color="#1561FF"/>
<stop offset="0.730515" stop-color="#1561FF"/>
<stop offset="1" stop-color="white" stop-opacity="0"/>
</linearGradient>
<linearGradient id="paint2_linear_1616_6060" x1="720.5" y1="-155" x2="720.5" y2="698" gradientUnits="userSpaceOnUse">
<stop stop-color="white" stop-opacity="0"/>
<stop offset="0.279598" stop-color="#1561FF"/>
<stop offset="0.730515" stop-color="#1561FF"/>
<stop offset="1" stop-color="white" stop-opacity="0"/>
</linearGradient>
<linearGradient id="paint3_linear_1616_6060" x1="720.5" y1="-287" x2="720.5" y2="830" gradientUnits="userSpaceOnUse">
<stop stop-color="white" stop-opacity="0"/>
<stop offset="0.279598" stop-color="#1561FF"/>
<stop offset="0.730515" stop-color="#1561FF"/>
<stop offset="1" stop-color="white" stop-opacity="0"/>
</linearGradient>
<clipPath id="clip0_1616_6060">
<rect width="1440" height="544" fill="white"/>
</clipPath>
</defs>
</svg>
