<svg width="1440" height="544" viewBox="0 0 1440 544" fill="none" xmlns="http://www.w3.org/2000/svg">
<g clip-path="url(#clip0_1616_6582)">
<rect width="1440" height="544" fill="#FBFBFD"/>
<circle opacity="0.36" cx="720.5" cy="271.5" r="123.5" stroke="url(#paint0_linear_1616_6582)" stroke-linecap="round" stroke-linejoin="round" stroke-dasharray="2 4"/>
<circle opacity="0.24" cx="720.5" cy="271.5" r="303.5" stroke="url(#paint1_linear_1616_6582)" stroke-linecap="round" stroke-linejoin="round" stroke-dasharray="2 4"/>
<circle opacity="0.2" cx="301" cy="348" r="8" fill="#0555FF"/>
<circle cx="301" cy="348" r="4" fill="#0555FF"/>
<path d="M230.76 352.415C229.35 352.985 227.755 353.45 225.975 353.81L225.87 353.015C227.72 352.685 229.35 352.225 230.76 351.635V352.415ZM229.215 341.09C228.435 343.12 227.645 344.735 226.845 345.935C227.625 345.845 228.405 345.71 229.185 345.53L229.59 344.735C229.78 344.365 229.925 344.09 230.025 343.91L230.745 344.18C229.365 346.82 228.205 348.69 227.265 349.79C228.385 349.57 229.525 349.26 230.685 348.86V349.595C229.145 350.115 227.685 350.47 226.305 350.66L226.08 349.94C226.2 349.89 226.325 349.81 226.455 349.7C227.085 349.05 227.855 347.915 228.765 346.295C227.855 346.475 226.955 346.625 226.065 346.745L225.87 346.025C226 345.965 226.115 345.86 226.215 345.71C227.055 344.33 227.795 342.695 228.435 340.805L229.215 341.09ZM231.33 341.66H234.705V340.79H235.515V341.66H238.845V342.35H235.515V343.505H238.485V344.165H235.515V345.335H239.205V346.055H230.97V345.335H234.705V344.165H231.705V343.505H234.705V342.35H231.33V341.66ZM238.215 347.3V351.875H237.435V348.035H232.8V351.92H232.005V347.3H238.215ZM235.56 348.95C235.56 350.12 235.35 351.11 234.93 351.92C234.33 353 233.03 353.875 231.03 354.545L230.52 353.93C232.32 353.36 233.515 352.635 234.105 351.755C234.545 351.015 234.775 350.08 234.795 348.95H235.56ZM235.815 351.95C237.115 352.45 238.31 353.08 239.4 353.84L238.965 354.5C237.785 353.67 236.595 353.025 235.395 352.565L235.815 351.95ZM243.6 344.45C242.97 345.83 242.225 347.025 241.365 348.035L240.705 347.57C241.565 346.59 242.29 345.435 242.88 344.105L243.6 344.45ZM246.84 346.775C246.12 345.875 245.42 345.125 244.74 344.525L245.265 344.03C245.865 344.51 246.57 345.245 247.38 346.235L246.84 346.775ZM242.64 347.825C243.33 348.395 243.955 348.95 244.515 349.49C244.895 348.78 245.215 347.985 245.475 347.105L246.195 347.42C245.915 348.38 245.56 349.27 245.13 350.09C245.88 350.84 246.5 351.505 246.99 352.085L246.435 352.7C245.935 352.1 245.36 351.47 244.71 350.81C243.78 352.31 242.57 353.48 241.08 354.32L240.585 353.6C242.025 352.8 243.2 351.67 244.11 350.21C243.44 349.56 242.77 348.965 242.1 348.425L242.64 347.825ZM244.125 340.655C244.385 341.155 244.63 341.755 244.86 342.455H247.71V343.25H240.84V342.455H244.065C243.815 341.825 243.56 341.275 243.3 340.805L244.125 340.655ZM249.615 344.105C249.485 344.555 249.365 344.94 249.255 345.26C249.645 346.92 250.155 348.355 250.785 349.565C251.605 347.995 252.035 346.175 252.075 344.105H249.615ZM250.335 350.345C249.715 349.165 249.205 347.84 248.805 346.37C248.475 347.06 248.155 347.635 247.845 348.095L247.335 347.465C248.385 345.785 249.105 343.525 249.495 340.685L250.29 340.835C250.18 341.615 250.025 342.435 249.825 343.295H254.205V344.105H252.855C252.775 346.545 252.235 348.635 251.235 350.375C252.115 351.835 253.18 352.95 254.43 353.72L253.935 354.425C252.705 353.635 251.65 352.53 250.77 351.11C249.83 352.46 248.585 353.585 247.035 354.485L246.57 353.75C248.17 352.88 249.425 351.745 250.335 350.345ZM260.73 352.01C259.33 352.72 257.77 353.285 256.05 353.705L255.945 352.895C257.745 352.485 259.34 351.935 260.73 351.245V352.01ZM259.275 341.09C258.465 343.16 257.665 344.76 256.875 345.89C257.705 345.76 258.485 345.605 259.215 345.425L260.055 343.835L260.775 344.105C259.365 346.785 258.2 348.655 257.28 349.715C258.45 349.445 259.6 349.055 260.73 348.545V349.31C259.18 349.96 257.69 350.41 256.26 350.66L256.05 349.88C256.19 349.82 256.315 349.745 256.425 349.655C257.075 348.955 257.855 347.81 258.765 346.22C257.965 346.39 257.065 346.56 256.065 346.73L255.87 345.965C256 345.905 256.115 345.8 256.215 345.65C257.085 344.27 257.85 342.65 258.51 340.79L259.275 341.09ZM261.09 346.475L261.27 346.4C261.8 346.01 262.505 344.955 263.385 343.235H260.64V342.47H264.6C264.42 341.92 264.175 341.355 263.865 340.775L264.675 340.625C264.915 341.095 265.165 341.71 265.425 342.47H268.86V343.235H264.24C263.47 344.755 262.815 345.81 262.275 346.4C263.815 346.28 265.365 346.085 266.925 345.815C266.585 345.315 266.18 344.77 265.71 344.18L266.325 343.775C267.405 345.145 268.215 346.31 268.755 347.27L268.125 347.735C267.915 347.355 267.665 346.94 267.375 346.49C265.505 346.79 263.47 347.03 261.27 347.21L261.09 346.475ZM263.385 347.945C263.305 349.825 263.065 351.2 262.665 352.07C262.235 352.99 261.515 353.775 260.505 354.425L259.98 353.78C260.88 353.22 261.53 352.535 261.93 351.725C262.3 350.945 262.515 349.685 262.575 347.945H263.385ZM266.685 354.185C265.915 354.185 265.53 353.79 265.53 353V347.825H266.295V352.865C266.295 353.225 266.43 353.42 266.7 353.45H267.765C268.165 353.43 268.4 353.26 268.47 352.94C268.56 352.53 268.605 351.83 268.605 350.84L269.31 351.095C269.31 352.465 269.215 353.33 269.025 353.69C268.835 353.99 268.43 354.155 267.81 354.185H266.685ZM275.415 345.38H279.57V340.76H280.41V345.38H284.37V346.19H280.41V354.5H279.57V346.19H275.415V345.38ZM272.31 340.94C273.33 341.72 274.205 342.515 274.935 343.325L274.38 343.895C273.69 343.115 272.805 342.315 271.725 341.495L272.31 340.94ZM270.705 345.455H273.795V352.355C274.395 351.875 275.045 351.3 275.745 350.63L275.955 351.47C275.035 352.37 274.06 353.16 273.03 353.84L272.715 353.12C272.905 352.93 273 352.75 273 352.58V346.25H270.705V345.455Z" fill="#869BB9"/>
<circle opacity="0.2" cx="987" cy="417" r="8" fill="#0555FF"/>
<circle cx="987" cy="417" r="4" fill="#0555FF"/>
<path d="M1007.91 413.24C1008.84 414.38 1009.7 415.48 1010.49 416.54C1011.17 415.35 1011.69 414.06 1012.06 412.67L1012.87 412.82C1012.41 414.47 1011.8 415.955 1011.03 417.275C1011.93 418.535 1012.73 419.76 1013.43 420.95L1012.71 421.46C1012.11 420.41 1011.39 419.275 1010.55 418.055C1009.6 419.475 1008.45 420.69 1007.11 421.7L1006.56 421.025C1007.93 419.975 1009.08 418.735 1010.02 417.305C1009.18 416.135 1008.25 414.92 1007.23 413.66L1007.91 413.24ZM1005.51 410.435H1015V416.36C1015 418.97 1015.1 420.625 1015.3 421.325C1015.48 422.035 1015.72 422.39 1016.01 422.39C1016.26 422.37 1016.46 421.615 1016.62 420.125L1017.34 420.47C1017.19 421.55 1017 422.325 1016.77 422.795C1016.56 423.145 1016.33 423.32 1016.08 423.32C1015.42 423.32 1014.94 422.85 1014.64 421.91C1014.33 421.01 1014.18 419.16 1014.18 416.36V411.23H1006.32V416.165C1006.29 419.055 1005.68 421.48 1004.49 423.44L1003.81 422.9C1004.88 421.13 1005.45 418.885 1005.51 416.165V410.435ZM1019.4 410.51H1023.61V411.14C1023.14 412.61 1022.61 414.065 1022.02 415.505C1022.96 416.805 1023.47 418.015 1023.54 419.135C1023.52 419.715 1023.36 420.13 1023.07 420.38C1022.67 420.7 1021.99 420.86 1021.02 420.86L1020.76 420.05C1020.94 420.08 1021.09 420.095 1021.2 420.095C1021.81 420.065 1022.22 419.975 1022.43 419.825C1022.63 419.685 1022.73 419.455 1022.73 419.135C1022.73 418.085 1022.22 416.915 1021.2 415.625C1021.86 414.085 1022.39 412.63 1022.8 411.26H1020.2V423.47H1019.4V410.51ZM1025.53 414.215H1030.14V414.965H1025.53V414.215ZM1023.37 422.105H1028.61C1029.36 420.495 1030.02 418.47 1030.6 416.03L1031.4 416.24C1030.86 418.43 1030.2 420.385 1029.42 422.105H1032.19V422.885H1023.37V422.105ZM1024.95 416.615C1025.49 417.845 1025.97 419.285 1026.4 420.935L1025.7 421.115C1025.32 419.615 1024.84 418.195 1024.26 416.855L1024.95 416.615ZM1027.33 416C1027.76 417.17 1028.16 418.57 1028.53 420.2L1027.83 420.38C1027.51 418.91 1027.11 417.53 1026.64 416.24L1027.33 416ZM1028.17 409.865C1029.01 411.815 1030.46 413.535 1032.51 415.025L1032.06 415.7C1030.15 414.35 1028.73 412.675 1027.8 410.675C1026.7 412.835 1025.3 414.505 1023.6 415.685L1023.18 415.04C1025.03 413.69 1026.44 411.965 1027.42 409.865H1028.17ZM1039.98 410.48H1047.27V411.26H1044.16C1044.09 411.9 1043.98 412.535 1043.82 413.165H1046.7V420.095H1045.93V413.915H1041.3V420.095H1040.53V413.165H1043.02C1043.18 412.505 1043.29 411.87 1043.35 411.26H1039.98V410.48ZM1044.55 420.17C1045.63 421.02 1046.59 421.925 1047.42 422.885L1046.85 423.44C1046.16 422.59 1045.21 421.67 1044.01 420.68L1044.55 420.17ZM1043.19 414.86H1043.97V417.575C1043.94 419.155 1043.59 420.42 1042.93 421.37C1042.27 422.25 1041.2 422.94 1039.72 423.44L1039.26 422.75C1040.69 422.29 1041.71 421.65 1042.33 420.83C1042.87 419.99 1043.16 418.905 1043.19 417.575V414.86ZM1035.18 412.325C1035.47 412.605 1035.86 412.995 1036.36 413.495C1036.98 412.835 1037.54 412.085 1038.03 411.245H1034.13V410.48H1038.93V411.125C1038.29 412.245 1037.6 413.215 1036.85 414.035C1037.05 414.245 1037.33 414.58 1037.7 415.04H1039.36V415.55C1039.11 416.7 1038.82 417.615 1038.48 418.295L1037.8 418.025C1038.08 417.455 1038.35 416.715 1038.6 415.805H1036.71V422.345C1036.71 423.045 1036.37 423.395 1035.69 423.395H1034.26L1034.08 422.645C1034.7 422.685 1035.14 422.705 1035.4 422.705C1035.75 422.705 1035.93 422.52 1035.93 422.15V415.805H1033.71V415.04H1036.8C1036.2 414.33 1035.45 413.55 1034.56 412.7L1035.18 412.325ZM1049.11 410.45H1051V409.715H1051.71V410.45H1053.54V409.715H1054.24V410.45H1056.1V411.08H1054.24V411.86H1053.54V411.08H1051.71V411.86H1051V411.08H1049.11V410.45ZM1050.43 413.525H1053.54V415.415H1053.96C1054.34 415.385 1054.58 415.22 1054.68 414.92C1054.77 414.62 1054.83 413.935 1054.86 412.865H1050.55C1050.23 413.535 1049.79 414.1 1049.22 414.56L1048.78 414.035C1049.51 413.445 1050.01 412.635 1050.28 411.605L1050.97 411.725L1050.79 412.28H1055.61C1055.61 413.97 1055.5 415.01 1055.28 415.4C1055.21 415.5 1055.13 415.59 1055.05 415.67L1055.57 415.595C1055.77 415.915 1055.93 416.255 1056.07 416.615H1061.95V417.23H1049.07V416.615H1055.29C1055.1 416.235 1054.96 415.965 1054.86 415.805C1054.64 415.905 1054.4 415.96 1054.14 415.97H1053.49L1053.36 415.505H1050.43V413.525ZM1052.91 415.025V414.02H1051.08V415.025H1052.91ZM1057.78 411.425L1057.59 411.815C1057.8 412.565 1058.24 413.215 1058.91 413.765C1059.54 413.135 1059.96 412.355 1060.17 411.425H1057.78ZM1057.17 412.52C1056.85 412.96 1056.51 413.345 1056.15 413.675L1055.7 413.105C1056.63 412.235 1057.26 411.08 1057.59 409.64L1058.34 409.76C1058.22 410.2 1058.12 410.525 1058.05 410.735H1061.76V411.425H1060.89C1060.65 412.555 1060.18 413.48 1059.49 414.2C1060.21 414.66 1061.08 415.045 1062.1 415.355L1061.73 416C1060.64 415.65 1059.72 415.21 1058.97 414.68C1058.22 415.25 1057.32 415.67 1056.26 415.94L1055.95 415.265C1056.93 415.035 1057.74 414.685 1058.38 414.215C1057.81 413.705 1057.41 413.14 1057.17 412.52ZM1050.9 418.085H1060.24V418.625H1050.9V418.085ZM1050.9 419.435H1060.24V419.975H1050.9V419.435ZM1060.68 420.815V423.575H1059.88V423.095H1051.3V423.575H1050.51V420.815H1060.68ZM1051.3 422.51H1059.88V421.4H1051.3V422.51Z" fill="#869BB9"/>
<circle opacity="0.2" cx="1126" cy="140" r="8" fill="#0555FF"/>
<circle cx="1126" cy="140" r="4" fill="#0555FF"/>
<path d="M1154.05 141.34H1144.58V140.59H1153.25V139.165H1145.23V138.46H1153.25V137.02H1144.91V136.555C1144.39 136.975 1143.89 137.34 1143.4 137.65L1142.87 137.005C1144.77 135.845 1146.3 134.365 1147.45 132.565L1148.26 132.76C1148.1 133.02 1147.85 133.39 1147.51 133.87H1152.58V134.455C1152.05 135.155 1151.51 135.76 1150.96 136.27H1154.05V141.34ZM1149.92 136.27C1150.54 135.73 1151.1 135.165 1151.59 134.575H1146.97C1146.44 135.175 1145.87 135.74 1145.27 136.27H1149.92ZM1145.33 142.585C1144.96 143.965 1144.47 145.135 1143.86 146.095L1143.16 145.645C1143.78 144.705 1144.24 143.63 1144.54 142.42L1145.33 142.585ZM1147.88 146.23C1147.01 146.23 1146.58 145.82 1146.58 145V142.195H1147.4V144.82C1147.4 145.27 1147.64 145.495 1148.12 145.495H1151.2C1151.61 145.495 1151.89 145.42 1152.05 145.27C1152.27 145.07 1152.42 144.5 1152.49 143.56L1153.25 143.815C1153.16 144.945 1152.95 145.645 1152.62 145.915C1152.37 146.125 1151.95 146.23 1151.36 146.23H1147.88ZM1149.41 141.82C1150.18 142.56 1150.78 143.215 1151.2 143.785L1150.52 144.265C1150.07 143.635 1149.48 142.96 1148.75 142.24L1149.41 141.82ZM1154.06 142.15C1155 143.34 1155.73 144.405 1156.24 145.345L1155.58 145.81C1155.04 144.83 1154.31 143.745 1153.4 142.555L1154.06 142.15ZM1162.36 134.095H1166.26V132.79H1167.02V134.095H1170.89V134.845H1167.02V136.3H1170.31V139.945H1167.02V144.76H1166.26V140.185C1165.48 141.635 1164.21 142.865 1162.45 143.875L1161.95 143.23C1163.71 142.31 1164.94 141.215 1165.64 139.945H1162.97V136.3H1166.26V134.845H1162.36V134.095ZM1169.54 139.225V137.02H1167.02V139.225H1169.54ZM1166.26 139.225V137.02H1163.74V139.225H1166.26ZM1168.15 140.56C1169.25 141.45 1170.17 142.33 1170.92 143.2L1170.37 143.74C1169.69 142.92 1168.77 142.03 1167.62 141.07L1168.15 140.56ZM1158.77 133.09C1159.85 133.89 1160.74 134.665 1161.43 135.415L1160.85 135.985C1160.25 135.275 1159.37 134.485 1158.22 133.615L1158.77 133.09ZM1167.65 146.185C1167.14 146.185 1166.25 146.175 1164.97 146.155C1163.98 146.125 1163.19 146.03 1162.61 145.87C1162.01 145.68 1161.48 145.31 1161.01 144.76C1160.81 144.5 1160.62 144.37 1160.44 144.37C1160.03 144.37 1159.4 145.065 1158.55 146.455L1157.93 145.915C1158.76 144.605 1159.47 143.845 1160.06 143.635V138.835H1157.84V138.055H1160.83V143.665C1161.01 143.765 1161.17 143.905 1161.31 144.085C1161.69 144.535 1162.1 144.865 1162.54 145.075C1163.04 145.255 1163.73 145.36 1164.62 145.39C1165.62 145.41 1166.59 145.42 1167.53 145.42H1169.63L1171.25 145.36L1171.06 146.185H1167.65ZM1175.39 144.97H1181.69C1182.65 142.81 1183.49 140.125 1184.21 136.915L1185.01 137.14C1184.36 140.12 1183.54 142.73 1182.56 144.97H1185.91V145.765H1175.39V144.97ZM1176.83 137.635C1177.46 139.325 1178.01 141.17 1178.47 143.17L1177.7 143.38C1177.28 141.49 1176.76 139.655 1176.13 137.875L1176.83 137.635ZM1179.74 136.585C1180.27 138.215 1180.74 140.12 1181.15 142.3L1180.39 142.495C1180.03 140.525 1179.58 138.635 1179.04 136.825L1179.74 136.585ZM1179.73 132.655C1180.03 133.135 1180.31 133.675 1180.58 134.275H1186.13V135.07H1174.91V138.58C1174.87 141.86 1174.35 144.49 1173.34 146.47L1172.66 145.855C1173.57 144.115 1174.05 141.69 1174.1 138.58V134.275H1179.73C1179.45 133.725 1179.15 133.235 1178.84 132.805L1179.73 132.655ZM1189.84 134.875C1189.43 135.625 1188.99 136.295 1188.52 136.885L1187.83 136.435C1188.79 135.295 1189.49 134.02 1189.94 132.61L1190.71 132.775C1190.59 133.165 1190.42 133.615 1190.2 134.125H1194.44V134.875H1192.15C1192.48 135.415 1192.75 135.925 1192.96 136.405L1192.21 136.675C1191.93 136.015 1191.62 135.415 1191.29 134.875H1189.84ZM1196.02 134.875C1195.74 135.385 1195.42 135.85 1195.07 136.27L1194.4 135.835C1195.19 134.875 1195.77 133.805 1196.14 132.625L1196.92 132.79C1196.79 133.21 1196.61 133.655 1196.39 134.125H1201.07V134.875H1198.45C1198.88 135.515 1199.21 136.09 1199.44 136.6L1198.7 136.885C1198.38 136.175 1198.01 135.505 1197.58 134.875H1196.02ZM1198.87 141.85V146.44H1198.07V145.69H1190.93V146.44H1190.14V141.85H1198.87ZM1190.93 144.94H1198.07V142.6H1190.93V144.94ZM1191.1 139.57C1190.2 140.06 1189.22 140.525 1188.17 140.965L1187.78 140.26C1190.37 139.25 1192.52 138 1194.22 136.51H1194.76C1196.66 138.09 1198.84 139.33 1201.31 140.23L1200.92 140.935C1199.8 140.495 1198.81 140.035 1197.94 139.555V140.26H1191.1V139.57ZM1197.86 139.51C1196.63 138.84 1195.51 138.055 1194.49 137.155C1193.57 137.995 1192.47 138.78 1191.2 139.51H1197.86Z" fill="#869BB9"/>
<circle opacity="0.24" cx="720.5" cy="271.5" r="426.5" stroke="url(#paint2_linear_1616_6582)" stroke-linecap="round" stroke-linejoin="round" stroke-dasharray="2 4"/>
<circle opacity="0.15" cx="720.5" cy="271.5" r="558.5" stroke="url(#paint3_linear_1616_6582)" stroke-linecap="round" stroke-linejoin="round" stroke-dasharray="2 4"/>
</g>
<defs>
<linearGradient id="paint0_linear_1616_6582" x1="720.5" y1="148" x2="720.5" y2="395" gradientUnits="userSpaceOnUse">
<stop stop-color="white" stop-opacity="0"/>
<stop offset="0.279598" stop-color="#1561FF"/>
<stop offset="0.730515" stop-color="#1561FF"/>
<stop offset="1" stop-color="white" stop-opacity="0"/>
</linearGradient>
<linearGradient id="paint1_linear_1616_6582" x1="720.5" y1="-32" x2="720.5" y2="575" gradientUnits="userSpaceOnUse">
<stop stop-color="white" stop-opacity="0"/>
<stop offset="0.279598" stop-color="#1561FF"/>
<stop offset="0.730515" stop-color="#1561FF"/>
<stop offset="1" stop-color="white" stop-opacity="0"/>
</linearGradient>
<linearGradient id="paint2_linear_1616_6582" x1="720.5" y1="-155" x2="720.5" y2="698" gradientUnits="userSpaceOnUse">
<stop stop-color="white" stop-opacity="0"/>
<stop offset="0.279598" stop-color="#1561FF"/>
<stop offset="0.730515" stop-color="#1561FF"/>
<stop offset="1" stop-color="white" stop-opacity="0"/>
</linearGradient>
<linearGradient id="paint3_linear_1616_6582" x1="720.5" y1="-287" x2="720.5" y2="830" gradientUnits="userSpaceOnUse">
<stop stop-color="white" stop-opacity="0"/>
<stop offset="0.279598" stop-color="#1561FF"/>
<stop offset="0.730515" stop-color="#1561FF"/>
<stop offset="1" stop-color="white" stop-opacity="0"/>
</linearGradient>
<clipPath id="clip0_1616_6582">
<rect width="1440" height="544" fill="white"/>
</clipPath>
</defs>
</svg>
