<svg width="1440" height="544" viewBox="0 0 1440 544" fill="none" xmlns="http://www.w3.org/2000/svg">
<g clip-path="url(#clip0_1616_7085)">
<rect width="1440" height="544" fill="#FBFBFD"/>
<circle opacity="0.36" cx="720.5" cy="271.5" r="123.5" stroke="url(#paint0_linear_1616_7085)" stroke-linecap="round" stroke-linejoin="round" stroke-dasharray="2 4"/>
<circle opacity="0.24" cx="720.5" cy="271.5" r="303.5" stroke="url(#paint1_linear_1616_7085)" stroke-linecap="round" stroke-linejoin="round" stroke-dasharray="2 4"/>
<circle opacity="0.2" cx="1146" cy="241" r="8" fill="#0555FF"/>
<path d="M1165.05 238.845V241.605L1165.03 241.725H1169.16V238.845H1165.05ZM1164.99 242.49C1164.84 244.43 1164.27 246.035 1163.29 247.305L1162.69 246.75C1163.68 245.39 1164.19 243.655 1164.22 241.545V234.435H1175.17V245.655C1175.17 246.635 1174.68 247.125 1173.7 247.125H1171.98L1171.77 246.33C1172.37 246.36 1172.92 246.375 1173.43 246.375C1174.05 246.375 1174.36 246.035 1174.36 245.355V242.49H1169.97V246.96H1169.16V242.49H1164.99ZM1174.36 241.725V238.845H1169.97V241.725H1174.36ZM1174.36 238.095V235.23H1169.97V238.095H1174.36ZM1169.16 235.23H1165.05V238.095H1169.16V235.23ZM1189.17 236.505H1180.29V239.745H1189.17V236.505ZM1180.29 240.54C1180.23 243.24 1179.51 245.57 1178.14 247.53L1177.53 246.975C1178.83 245.225 1179.48 242.99 1179.49 240.27V235.695H1184.44C1184.17 235.005 1183.87 234.39 1183.54 233.85L1184.4 233.7C1184.71 234.3 1184.99 234.965 1185.25 235.695H1189.99V240.54H1180.29ZM1193.74 234.09C1194.79 234.88 1195.66 235.65 1196.34 236.4L1195.75 236.985C1195.13 236.245 1194.28 235.46 1193.19 234.63L1193.74 234.09ZM1202.94 247.185C1202.41 247.185 1201.48 247.175 1200.16 247.155C1199.12 247.125 1198.31 247.03 1197.73 246.87C1197.13 246.7 1196.57 246.32 1196.05 245.73C1195.85 245.47 1195.65 245.34 1195.45 245.34C1195.03 245.34 1194.38 246.07 1193.49 247.53L1192.87 246.975C1193.73 245.605 1194.47 244.81 1195.09 244.59V239.85H1192.83V239.04H1195.85V244.62C1196.03 244.71 1196.2 244.855 1196.37 245.055C1196.77 245.515 1197.2 245.85 1197.66 246.06C1198.2 246.25 1198.91 246.36 1199.8 246.39C1200.86 246.41 1201.87 246.42 1202.83 246.42L1204.8 246.405L1206.33 246.345L1206.13 247.185H1202.94ZM1197.09 238.935H1201.15V235.56C1200.18 235.71 1199.04 235.85 1197.72 235.98L1197.55 235.215C1200.38 234.975 1202.82 234.56 1204.87 233.97L1205.16 234.72C1204.28 234.96 1203.21 235.195 1201.96 235.425V238.935H1206V239.715H1201.96V245.385H1201.15V239.715H1197.09V238.935ZM1207.89 234.885C1209.71 234.705 1211.32 234.39 1212.72 233.94L1213 234.705C1212.22 234.925 1211.56 235.095 1211.02 235.215V237.975H1213.09V238.77H1211.02V239.7C1211.67 240.23 1212.4 240.915 1213.21 241.755L1212.76 242.415C1212.06 241.545 1211.48 240.88 1211.02 240.42V247.41H1210.21V240.225C1209.64 241.785 1208.86 243.165 1207.86 244.365L1207.51 243.51C1208.76 242.11 1209.64 240.53 1210.15 238.77H1207.84V237.975H1210.21V235.365C1209.65 235.455 1208.93 235.55 1208.04 235.65L1207.89 234.885ZM1219.12 239.805C1218.84 240.245 1218.5 240.65 1218.1 241.02H1221.28V241.725C1220.35 244.395 1217.6 246.29 1213.03 247.41L1212.61 246.66C1214.42 246.25 1215.9 245.735 1217.05 245.115C1216.59 244.635 1216.11 244.155 1215.61 243.675L1216.2 243.255C1216.75 243.745 1217.25 244.24 1217.71 244.74C1219.02 243.92 1219.93 242.93 1220.43 241.77H1217.13C1216.13 242.43 1214.87 242.955 1213.36 243.345L1212.88 242.61C1215.52 241.98 1217.36 240.935 1218.39 239.475L1219.12 239.805ZM1217.47 233.895C1217.23 234.285 1216.98 234.66 1216.71 235.02H1220.26V235.68C1219.39 238.01 1217.16 239.68 1213.57 240.69L1213.14 240.09C1214.36 239.77 1215.43 239.355 1216.35 238.845C1215.92 238.255 1215.52 237.8 1215.15 237.48L1215.72 237.045C1216.2 237.485 1216.6 237.97 1216.93 238.5C1218.07 237.74 1218.91 236.815 1219.45 235.725H1216.09C1215.36 236.455 1214.55 237.065 1213.66 237.555L1213.12 236.91C1214.59 236.14 1215.78 235.075 1216.68 233.715L1217.47 233.895Z" fill="#869BB9"/>
<circle cx="1146" cy="241" r="4" fill="#0555FF"/>
<circle opacity="0.2" cx="303" cy="183" r="8" fill="#0555FF"/>
<path d="M228.095 178.085H230.33V175.94H231.14V178.085H233.255V178.865H231.14V181.34L231.125 181.595H233.465V182.375H231.095C231.065 182.805 231.02 183.225 230.96 183.635C231.85 184.525 232.735 185.505 233.615 186.575L233.15 187.25C232.28 186.06 231.505 185.11 230.825 184.4C230.405 186.59 229.555 188.295 228.275 189.515L227.66 188.975C229.2 187.525 230.075 185.325 230.285 182.375H227.9V181.595H230.315L230.33 181.1V178.865H228.095V178.085ZM240.125 176.465V184.58H239.33V177.23H235.085V184.58H234.29V176.465H240.125ZM238.61 189.275C237.9 189.275 237.545 188.89 237.545 188.12V184.715H238.31V187.97C238.31 188.36 238.49 188.555 238.85 188.555H239.675C239.975 188.555 240.19 188.475 240.32 188.315C240.49 188.115 240.605 187.515 240.665 186.515L241.37 186.755C241.28 187.945 241.11 188.68 240.86 188.96C240.64 189.17 240.29 189.275 239.81 189.275H238.61ZM236.825 178.655H237.59V181.235C237.56 183.445 237.165 185.225 236.405 186.575C235.655 187.825 234.435 188.8 232.745 189.5L232.31 188.825C233.97 188.125 235.15 187.185 235.85 186.005C236.47 184.805 236.795 183.215 236.825 181.235V178.655ZM248.3 179.465H255.23V184.025H252.11C252.09 184.535 252.04 184.985 251.96 185.375H256.265V186.125H252.26C253.12 187.255 254.475 188.165 256.325 188.855L255.8 189.485C253.89 188.685 252.505 187.67 251.645 186.44L251.495 186.77C250.945 187.87 249.705 188.775 247.775 189.485L247.265 188.84C248.975 188.25 250.13 187.495 250.73 186.575C250.82 186.425 250.895 186.275 250.955 186.125H247.19V185.375H251.195C251.305 184.955 251.365 184.505 251.375 184.025H248.3V179.465ZM254.465 183.365V182.075H249.05V183.365H254.465ZM249.05 181.43H254.465V180.125H249.05V181.43ZM247.325 177.125H249.635V175.79H250.415V177.125H252.965V175.79H253.745V177.125H256.145V177.875H253.745V179.015H252.965V177.875H250.415V179.015H249.635V177.875H247.325V177.125ZM245.66 189.41H244.88V181.4C244.4 183 243.74 184.44 242.9 185.72L242.555 184.85C243.645 183.33 244.415 181.575 244.865 179.585H242.9V178.82H244.88V175.79H245.66V178.82H247.22V179.585H245.66V180.68C246.18 181.35 246.79 182.23 247.49 183.32L247.055 183.98C246.495 182.95 246.03 182.145 245.66 181.565V189.41ZM257.93 177.005H261.56V175.7H262.37V177.005H266.63V175.7H267.44V177.005H271.07V177.77H267.44V178.94H266.63V177.77H262.37V178.94H261.56V177.77H257.93V177.005ZM262.985 179.795C262.395 180.555 261.83 181.17 261.29 181.64C262.03 182.89 262.4 184.42 262.4 186.23C262.4 187.52 262.22 188.42 261.86 188.93C261.58 189.24 261.18 189.395 260.66 189.395C260.17 189.395 259.685 189.385 259.205 189.365L258.98 188.615C259.6 188.655 260.095 188.675 260.465 188.675C260.855 188.675 261.14 188.545 261.32 188.285C261.51 187.905 261.605 187.2 261.605 186.17C261.605 185.62 261.565 185.09 261.485 184.58C260.625 185.5 259.605 186.255 258.425 186.845L257.96 186.185C259.39 185.495 260.51 184.67 261.32 183.71C261.17 183.12 260.96 182.595 260.69 182.135C259.99 182.655 259.155 183.15 258.185 183.62L257.765 182.945C258.715 182.545 259.55 182.06 260.27 181.49C259.79 180.86 259.2 180.345 258.5 179.945L259.115 179.435C259.775 179.855 260.355 180.375 260.855 180.995C261.385 180.515 261.865 179.975 262.295 179.375L262.985 179.795ZM263.3 182.075H266.48C266.51 180.965 266.525 180.105 266.525 179.495H267.335C267.335 179.895 267.315 180.755 267.275 182.075H270.845V182.855H267.395C267.965 185.425 269.235 187.4 271.205 188.78L270.665 189.38C268.825 188.01 267.62 186.225 267.05 184.025C266.52 186.165 265.345 187.975 263.525 189.455L263 188.855C265.05 187.165 266.195 185.165 266.435 182.855H263.3V182.075ZM268.805 179.165C269.625 179.915 270.24 180.565 270.65 181.115L270.05 181.55C269.59 180.93 268.975 180.26 268.205 179.54L268.805 179.165ZM283.82 184.94V189.5H283.025V188.825H276.26V189.5H275.465V184.94H283.82ZM276.26 188.075H283.025V185.675H276.26V188.075ZM278.54 178.355C278.32 178.705 278.06 179.075 277.76 179.465H283.415V180.14C282.735 181.05 281.78 181.85 280.55 182.54C282.24 183.27 284.17 183.725 286.34 183.905L286.145 184.655C283.715 184.445 281.575 183.88 279.725 182.96C277.925 183.81 275.675 184.48 272.975 184.97L272.66 184.22C275.22 183.79 277.305 183.225 278.915 182.525C278.075 182.045 277.27 181.475 276.5 180.815C275.88 181.375 275.225 181.87 274.535 182.3L274.025 181.685C275.585 180.755 276.825 179.58 277.745 178.16L278.54 178.355ZM279.725 182.15C280.865 181.58 281.775 180.925 282.455 180.185H277.13C277.07 180.245 277.025 180.295 276.995 180.335C277.835 181.055 278.745 181.66 279.725 182.15ZM285.5 177.005V179.69H284.675V177.74H274.325V179.69H273.5V177.005H279.11C278.95 176.605 278.745 176.21 278.495 175.82L279.38 175.67C279.55 175.99 279.74 176.435 279.95 177.005H285.5Z" fill="#869BB9"/>
<circle cx="303" cy="183" r="4" fill="#0555FF"/>
<circle opacity="0.2" cx="461" cy="429" r="8" fill="#0555FF"/>
<circle cx="461" cy="429" r="4" fill="#0555FF"/>
<path d="M397.72 427.085H391.795V428.405H398.725V429.14H390.985V422.345H398.56V423.08H391.795V424.37H397.72V427.085ZM391.795 425.06V426.425H396.94V425.06H391.795ZM386.08 430.79H392.125V429.65H392.935V430.79H398.965V431.54H394.015C395.125 432.75 396.885 433.7 399.295 434.39L398.92 435.17C396.23 434.26 394.35 433.05 393.28 431.54H392.935V435.485H392.125V431.54H391.75C390.82 433 388.97 434.255 386.2 435.305L385.735 434.54C388.365 433.67 390.135 432.67 391.045 431.54H386.08V430.79ZM387.265 421.835C388.285 422.295 389.21 422.85 390.04 423.5L389.605 424.145C388.705 423.425 387.78 422.865 386.83 422.465L387.265 421.835ZM386.44 424.055C387.3 424.415 388.08 424.865 388.78 425.405L388.345 426.05C387.595 425.48 386.815 425.03 386.005 424.7L386.44 424.055ZM390.01 426.5C388.92 427.8 387.805 428.865 386.665 429.695L386.095 429.065C387.295 428.215 388.4 427.21 389.41 426.05L390.01 426.5ZM405.025 423.53H407.695C407.455 423.02 407.17 422.54 406.84 422.09L407.59 421.805C407.95 422.285 408.26 422.86 408.52 423.53H410.41C410.81 422.92 411.135 422.325 411.385 421.745L412.165 422.03C411.895 422.59 411.605 423.09 411.295 423.53H414.07V424.295H409.78C409.67 424.825 409.53 425.3 409.36 425.72H412.99V432.8H406.045V425.72H408.49C408.69 425.25 408.835 424.775 408.925 424.295H405.025V423.53ZM412.225 432.05V430.58H406.81V432.05H412.225ZM406.81 429.905H412.225V428.555H406.81V429.905ZM406.81 427.88H412.225V426.47H406.81V427.88ZM401.77 422.09C402.85 422.89 403.735 423.665 404.425 424.415L403.855 424.985C403.245 424.275 402.365 423.485 401.215 422.615L401.77 422.09ZM410.65 435.185C410.16 435.185 409.275 435.175 407.995 435.155C407.015 435.125 406.235 435.03 405.655 434.87C405.075 434.69 404.55 434.32 404.08 433.76C403.88 433.5 403.685 433.37 403.495 433.37C403.095 433.37 402.445 434.065 401.545 435.455L400.93 434.9C401.78 433.6 402.515 432.845 403.135 432.635V427.835H400.84V427.055H403.9V432.68C404.07 432.76 404.225 432.895 404.365 433.085C404.745 433.535 405.155 433.865 405.595 434.075C406.075 434.255 406.755 434.36 407.635 434.39C408.635 434.41 409.6 434.42 410.53 434.42H412.63L414.25 434.36L414.055 435.185H410.65ZM421.315 422.495C420.605 423.795 419.895 424.845 419.185 425.645C418.355 426.565 417.345 427.43 416.155 428.24L415.69 427.52C416.77 426.9 417.73 426.1 418.57 425.12C419.36 424.22 420.045 423.205 420.625 422.075L421.315 422.495ZM417.835 428.6V427.835H426.79C426.75 429.665 426.66 431.15 426.52 432.29C426.37 433.41 426.13 434.195 425.8 434.645C425.47 435.085 424.935 435.32 424.195 435.35H421.39L421.18 434.57C422.42 434.59 423.295 434.6 423.805 434.6C424.635 434.6 425.185 434.235 425.455 433.505C425.715 432.755 425.89 431.12 425.98 428.6H421.705C421.345 430.32 420.845 431.67 420.205 432.65C419.475 433.68 418.375 434.615 416.905 435.455L416.395 434.81C417.735 434.07 418.755 433.24 419.455 432.32C420.115 431.39 420.595 430.15 420.895 428.6H417.835ZM424.6 421.91C425.48 424.23 427.045 426.065 429.295 427.415L428.74 428.045C426.43 426.575 424.82 424.66 423.91 422.3L424.6 421.91ZM435.655 422.75V432.845H432.235V434.09H431.425V422.75H435.655ZM432.235 432.05H434.86V428.12H432.235V432.05ZM432.235 427.325H434.86V423.53H432.235V427.325ZM438.28 426.8V429.44L438.265 429.635H442.57V426.8H438.28ZM442.57 426.035V423.125H438.28V426.035H442.57ZM438.22 430.415C438.04 432.475 437.475 434.17 436.525 435.5L435.88 434.915C436.9 433.445 437.425 431.575 437.455 429.305V422.33H443.395V434.09C443.395 434.91 442.985 435.32 442.165 435.32H440.17L439.945 434.54C440.885 434.56 441.535 434.57 441.895 434.57C442.345 434.57 442.57 434.315 442.57 433.805V430.415H438.22Z" fill="#869BB9"/>
<circle opacity="0.24" cx="720.5" cy="271.5" r="426.5" stroke="url(#paint2_linear_1616_7085)" stroke-linecap="round" stroke-linejoin="round" stroke-dasharray="2 4"/>
<circle opacity="0.15" cx="720.5" cy="271.5" r="558.5" stroke="url(#paint3_linear_1616_7085)" stroke-linecap="round" stroke-linejoin="round" stroke-dasharray="2 4"/>
</g>
<defs>
<linearGradient id="paint0_linear_1616_7085" x1="720.5" y1="148" x2="720.5" y2="395" gradientUnits="userSpaceOnUse">
<stop stop-color="white" stop-opacity="0"/>
<stop offset="0.279598" stop-color="#1561FF"/>
<stop offset="0.730515" stop-color="#1561FF"/>
<stop offset="1" stop-color="white" stop-opacity="0"/>
</linearGradient>
<linearGradient id="paint1_linear_1616_7085" x1="720.5" y1="-32" x2="720.5" y2="575" gradientUnits="userSpaceOnUse">
<stop stop-color="white" stop-opacity="0"/>
<stop offset="0.279598" stop-color="#1561FF"/>
<stop offset="0.730515" stop-color="#1561FF"/>
<stop offset="1" stop-color="white" stop-opacity="0"/>
</linearGradient>
<linearGradient id="paint2_linear_1616_7085" x1="720.5" y1="-155" x2="720.5" y2="698" gradientUnits="userSpaceOnUse">
<stop stop-color="white" stop-opacity="0"/>
<stop offset="0.279598" stop-color="#1561FF"/>
<stop offset="0.730515" stop-color="#1561FF"/>
<stop offset="1" stop-color="white" stop-opacity="0"/>
</linearGradient>
<linearGradient id="paint3_linear_1616_7085" x1="720.5" y1="-287" x2="720.5" y2="830" gradientUnits="userSpaceOnUse">
<stop stop-color="white" stop-opacity="0"/>
<stop offset="0.279598" stop-color="#1561FF"/>
<stop offset="0.730515" stop-color="#1561FF"/>
<stop offset="1" stop-color="white" stop-opacity="0"/>
</linearGradient>
<clipPath id="clip0_1616_7085">
<rect width="1440" height="544" fill="white"/>
</clipPath>
</defs>
</svg>
