<svg width="1440" height="544" viewBox="0 0 1440 544" fill="none" xmlns="http://www.w3.org/2000/svg">
<g clip-path="url(#clip0_1616_7645)">
<rect width="1440" height="544" fill="#FBFBFD"/>
<circle opacity="0.36" cx="720.5" cy="271.5" r="123.5" stroke="url(#paint0_linear_1616_7645)" stroke-linecap="round" stroke-linejoin="round" stroke-dasharray="2 4"/>
<circle opacity="0.24" cx="720.5" cy="271.5" r="303.5" stroke="url(#paint1_linear_1616_7645)" stroke-linecap="round" stroke-linejoin="round" stroke-dasharray="2 4"/>
<circle opacity="0.24" cx="720.5" cy="271.5" r="426.5" stroke="url(#paint2_linear_1616_7645)" stroke-linecap="round" stroke-linejoin="round" stroke-dasharray="2 4"/>
<circle opacity="0.2" cx="990" cy="132" r="8" fill="#0555FF"/>
<path d="M1013.7 124.655C1013.88 125.105 1014.04 125.555 1014.18 126.005H1020.12V126.995H1006.87V126.005H1013.02C1012.9 125.665 1012.73 125.285 1012.51 124.865L1013.7 124.655ZM1016.46 138.455L1016.2 137.48L1017.4 137.525C1018.02 137.525 1018.33 137.285 1018.33 136.805V132.725H1008.67V138.5H1007.64V131.78H1019.37V137.03C1019.37 137.98 1018.82 138.455 1017.72 138.455H1016.46ZM1009.32 127.97H1017.7V130.88H1009.32V127.97ZM1016.65 130.04V128.81H1010.37V130.04H1016.65ZM1010.56 133.685H1016.46V136.685H1010.56V133.685ZM1015.5 135.875V134.495H1011.54V135.875H1015.5ZM1024.72 124.745H1025.77V126.515H1027.81V127.535H1025.77V129.275H1027.99V130.325H1021.66V129.275H1022.53V125.96H1023.57V129.275H1024.72V124.745ZM1028.14 131.795C1027.48 135.145 1025.56 137.345 1022.38 138.395L1021.77 137.42C1024.79 136.49 1026.6 134.545 1027.2 131.585L1028.14 131.795ZM1023.85 132.02C1023.48 133.45 1023.02 134.53 1022.47 135.26L1021.68 134.57C1022.23 133.82 1022.64 132.845 1022.91 131.645L1023.85 132.02ZM1024.69 130.91H1025.73V134.825H1024.69V130.91ZM1028.23 125.345H1035.28V126.365H1032.28C1032.24 126.915 1032.18 127.465 1032.1 128.015H1034.74V135.14H1033.69V129.02H1029.81V135.14H1028.77V128.015H1030.98C1031.06 127.525 1031.12 126.975 1031.17 126.365H1028.23V125.345ZM1032.85 135.215C1033.9 136.095 1034.77 136.94 1035.45 137.75L1034.65 138.545C1034.02 137.705 1033.18 136.825 1032.13 135.905L1032.85 135.215ZM1031.19 129.92H1032.24V132.575C1032.21 134.155 1031.87 135.435 1031.23 136.415C1030.61 137.305 1029.6 137.995 1028.2 138.485L1027.6 137.555C1028.94 137.075 1029.87 136.46 1030.39 135.71C1030.89 134.89 1031.16 133.845 1031.19 132.575V129.92ZM1043.97 127.37H1046.37V124.805H1047.4V127.37H1049.83V133.4H1047.4V136.685C1048.08 136.545 1048.59 136.435 1048.92 136.355C1048.72 135.695 1048.51 135.085 1048.29 134.525L1049.17 134.24C1049.62 135.38 1050.03 136.685 1050.39 138.155L1049.46 138.38L1049.17 137.24C1047.46 137.66 1045.7 138 1043.89 138.26L1043.64 137.255C1044.67 137.135 1045.58 137.01 1046.37 136.88V133.4H1043.97V127.37ZM1048.83 132.41V128.36H1047.36V132.41H1048.83ZM1046.41 132.41V128.36H1044.97V132.41H1046.41ZM1038.33 132.035V133.805L1038.31 133.985H1039.75V132.035H1038.33ZM1038.27 134.9C1038.15 136.31 1037.82 137.51 1037.29 138.5L1036.49 137.795C1037.08 136.705 1037.37 135.34 1037.38 133.7V129.065C1037.28 129.165 1037.21 129.24 1037.17 129.29L1036.53 128.51C1037.51 127.52 1038.31 126.245 1038.93 124.685L1039.9 124.91C1039.77 125.28 1039.64 125.6 1039.5 125.87H1042.26V126.62C1041.9 127.34 1041.57 127.905 1041.28 128.315H1043.08V137.315C1043.08 138.045 1042.73 138.41 1042.03 138.41H1041.28L1041.04 137.54C1041.38 137.56 1041.62 137.57 1041.75 137.57C1042.03 137.57 1042.17 137.38 1042.17 137V134.9H1040.65V138.23H1039.75V134.9H1038.27ZM1042.17 133.985V132.035H1040.65V133.985H1042.17ZM1042.17 131.105V129.245H1040.65V131.105H1042.17ZM1040.17 128.315C1040.47 127.885 1040.79 127.365 1041.12 126.755H1039.05C1038.77 127.265 1038.43 127.785 1038.03 128.315H1040.17ZM1039.75 129.245H1038.33V131.105H1039.75V129.245ZM1052.82 124.985C1053.85 125.765 1054.72 126.535 1055.44 127.295L1054.66 128.09C1054.02 127.33 1053.16 126.53 1052.07 125.69L1052.82 124.985ZM1061.95 138.23C1061.43 138.23 1060.5 138.22 1059.16 138.2C1058.15 138.19 1057.33 138.1 1056.7 137.93C1056.1 137.76 1055.55 137.395 1055.05 136.835C1054.84 136.585 1054.64 136.46 1054.44 136.46C1054.06 136.46 1053.45 137.16 1052.62 138.56L1051.81 137.84C1052.62 136.54 1053.34 135.76 1053.96 135.5V130.97H1051.8V129.92H1054.99V135.56C1055.12 135.66 1055.25 135.775 1055.37 135.905C1055.76 136.325 1056.17 136.64 1056.6 136.85C1057.07 137.04 1057.78 137.15 1058.73 137.18C1059.83 137.2 1060.85 137.21 1061.8 137.21L1063.83 137.195C1064.59 137.175 1065.11 137.155 1065.4 137.135L1065.13 138.23H1061.95ZM1056.36 128.09H1059.69C1059.77 127.38 1059.82 126.575 1059.84 125.675V124.76H1060.92V125.45C1060.92 126.29 1060.87 127.17 1060.77 128.09H1064.49V129.14H1061.02C1061.47 131.1 1062.79 133.09 1064.98 135.11L1064.25 135.89C1062.27 133.96 1060.98 132.045 1060.38 130.145C1059.72 132.735 1058.46 134.65 1056.61 135.89L1055.95 135.005C1057.82 133.815 1059.01 131.86 1059.52 129.14H1056.36V128.09Z" fill="#869BB9"/>
<circle cx="990" cy="132" r="4" fill="#0555FF"/>
<circle opacity="0.2" cx="1129" cy="395" r="8" fill="#0555FF"/>
<path d="M1154.87 391.075C1154.77 391.435 1154.7 391.7 1154.66 391.87C1155.03 393.57 1155.52 395.065 1156.13 396.355C1156.71 394.835 1157.03 393.075 1157.09 391.075H1154.87ZM1155.64 397.465C1155.05 396.285 1154.55 394.96 1154.15 393.49C1153.89 394.15 1153.6 394.765 1153.26 395.335L1152.59 394.51C1153.48 392.82 1154.08 390.555 1154.38 387.715L1155.43 387.895C1155.36 388.515 1155.25 389.23 1155.1 390.04H1159.06V391.075H1158.08C1158.02 393.575 1157.58 395.715 1156.75 397.495C1157.54 398.815 1158.46 399.83 1159.52 400.54L1158.91 401.455C1157.88 400.735 1156.98 399.75 1156.22 398.5C1155.49 399.7 1154.56 400.705 1153.43 401.515L1152.86 400.6C1154.03 399.79 1154.96 398.745 1155.64 397.465ZM1149.56 394.825L1149.26 395.65H1152.38V396.565C1152.05 397.545 1151.51 398.395 1150.75 399.115C1151.46 399.415 1152.13 399.745 1152.77 400.105L1152.19 400.975C1151.5 400.565 1150.74 400.175 1149.91 399.805C1148.9 400.495 1147.65 401.05 1146.16 401.47L1145.63 400.54C1146.88 400.21 1147.93 399.8 1148.78 399.31L1146.7 398.47C1147.12 397.78 1147.46 397.165 1147.72 396.625H1145.96V395.65H1148.17C1148.42 394.95 1148.53 394.635 1148.51 394.705L1149.56 394.825ZM1149.71 398.68C1150.46 398.07 1151.01 397.385 1151.36 396.625H1148.83C1148.58 397.135 1148.31 397.61 1148.02 398.05C1148.62 398.26 1149.18 398.47 1149.71 398.68ZM1147.15 388.075C1147.54 388.685 1147.86 389.3 1148.11 389.92L1147.27 390.31C1146.96 389.6 1146.62 388.955 1146.25 388.375L1147.15 388.075ZM1152.53 388.39C1152.22 389.07 1151.84 389.72 1151.38 390.34L1150.57 389.905C1151.05 389.225 1151.42 388.58 1151.68 387.97L1152.53 388.39ZM1146.01 390.625H1148.93V387.76H1149.94V390.625H1152.67V391.57H1149.94V391.735C1150.76 392.145 1151.59 392.605 1152.43 393.115L1151.87 393.955C1151.12 393.355 1150.48 392.875 1149.94 392.515V394.465H1148.93V391.615C1148.44 392.785 1147.55 393.81 1146.25 394.69L1145.72 393.82C1146.88 393.14 1147.69 392.39 1148.14 391.57H1146.01V390.625ZM1161.19 401.365L1160.96 400.345C1161.39 400.395 1161.77 400.42 1162.1 400.42C1162.48 400.42 1162.67 400.2 1162.67 399.76V396.1C1161.97 396.36 1161.38 396.565 1160.9 396.715L1160.63 395.665C1161.31 395.505 1161.99 395.3 1162.67 395.05V391.66H1160.87V390.625H1162.67V387.79H1163.72V390.625H1165.16V391.66H1163.72V394.615C1164.2 394.405 1164.67 394.18 1165.12 393.94V395.005C1164.81 395.165 1164.34 395.385 1163.72 395.665V400.03C1163.72 400.92 1163.3 401.365 1162.46 401.365H1161.19ZM1166.95 394.735C1166.77 397.295 1166.18 399.55 1165.19 401.5L1164.35 400.75C1165.41 398.77 1165.95 396.2 1165.97 393.04V388.345H1173.88V391.99H1171.06V393.76H1174.27V394.735H1171.06V396.58H1173.58V401.5H1172.57V400.765H1168.51V401.5H1167.5V396.58H1170.01V394.735H1166.95ZM1170.01 391.99H1167.02L1167.01 393.76H1170.01V391.99ZM1168.51 399.805H1172.57V397.54H1168.51V399.805ZM1172.83 389.35H1167.02V391.015H1172.83V389.35ZM1181.39 394.765C1180.78 395.035 1180.07 395.325 1179.25 395.635V400.09C1179.25 400.94 1178.81 401.365 1177.93 401.365H1176.35L1176.11 400.315C1176.79 400.355 1177.27 400.375 1177.55 400.375C1177.94 400.375 1178.14 400.185 1178.14 399.805V396.025C1177.03 396.365 1176.25 396.595 1175.81 396.715L1175.54 395.695C1176.48 395.485 1177.35 395.255 1178.14 395.005V391.54H1175.78V390.505H1178.14V387.79H1179.25V390.505H1181.2V391.54H1179.25V394.615C1179.93 394.345 1180.64 394.035 1181.39 393.685V394.765ZM1181.66 388.915H1189.19V389.965H1186.76V399.94C1186.76 400.87 1186.31 401.335 1185.41 401.335H1182.95L1182.73 400.3C1183.81 400.34 1184.58 400.36 1185.04 400.36C1185.45 400.36 1185.65 400.13 1185.65 399.67V389.965H1181.66V388.915ZM1191.89 387.985C1192.93 388.765 1193.8 389.545 1194.5 390.325L1193.74 391.075C1193.1 390.315 1192.24 389.52 1191.16 388.69L1191.89 387.985ZM1200.67 401.23C1200.16 401.23 1199.26 401.22 1197.98 401.2C1197 401.18 1196.21 401.09 1195.61 400.93C1195.01 400.75 1194.48 400.385 1194.01 399.835C1193.8 399.585 1193.6 399.46 1193.42 399.46C1193.06 399.46 1192.47 400.15 1191.64 401.53L1190.83 400.795C1191.63 399.535 1192.33 398.77 1192.94 398.5V393.94H1190.81V392.95H1193.95V398.56C1194.08 398.66 1194.2 398.775 1194.32 398.905C1194.68 399.335 1195.07 399.65 1195.49 399.85C1195.97 400.06 1196.66 400.18 1197.55 400.21C1198.61 400.23 1199.6 400.24 1200.52 400.24C1200.97 400.24 1201.68 400.23 1202.66 400.21C1203.47 400.19 1204.03 400.17 1204.33 400.15L1204.07 401.23H1200.67ZM1197.98 389.425C1198.66 389.835 1199.24 390.21 1199.71 390.55C1200.51 390.13 1201.23 389.675 1201.87 389.185H1195.21V388.27H1203.32V389.05C1202.42 389.83 1201.45 390.505 1200.4 391.075L1200.64 391.27H1203.61V397.975C1203.61 398.745 1203.19 399.13 1202.35 399.13H1201.1L1200.86 398.215L1202.05 398.26C1202.41 398.26 1202.59 398.09 1202.59 397.75V396.625H1200.07V399.205H1199.06V396.625H1196.56V399.25H1195.54V391.27H1199.29C1198.71 390.86 1198.05 390.46 1197.32 390.07L1197.98 389.425ZM1196.56 394.42V395.74H1199.06V394.42H1196.56ZM1200.07 394.42V395.74H1202.59V394.42H1200.07ZM1202.59 393.52V392.17H1200.07V393.52H1202.59ZM1199.06 393.52V392.17H1196.56V393.52H1199.06Z" fill="#869BB9"/>
<circle cx="1129" cy="395" r="4" fill="#0555FF"/>
<circle opacity="0.2" cx="295" cy="246" r="8" fill="#0555FF"/>
<path d="M223.079 240.08C224.299 240.08 225.249 240.355 225.929 240.905C226.639 241.475 227.049 242.325 227.159 243.455H225.944C225.814 242.685 225.514 242.11 225.044 241.73C224.574 241.35 223.899 241.16 223.019 241.16C222.209 241.16 221.589 241.29 221.159 241.55C220.649 241.85 220.394 242.305 220.394 242.915C220.394 243.455 220.699 243.89 221.309 244.22C221.569 244.37 222.224 244.595 223.274 244.895C224.684 245.315 225.614 245.66 226.064 245.93C226.954 246.47 227.399 247.225 227.399 248.195C227.399 249.135 227.024 249.875 226.274 250.415C225.514 250.945 224.504 251.21 223.244 251.21C221.984 251.21 220.994 250.94 220.274 250.4C219.434 249.75 218.969 248.77 218.879 247.46H220.094C220.204 248.39 220.529 249.075 221.069 249.515C221.579 249.915 222.304 250.115 223.244 250.115C224.124 250.115 224.834 249.95 225.374 249.62C225.914 249.29 226.184 248.84 226.184 248.27C226.184 247.6 225.829 247.075 225.119 246.695C224.849 246.535 224.094 246.275 222.854 245.915C221.594 245.535 220.774 245.245 220.394 245.045C219.574 244.565 219.164 243.875 219.164 242.975C219.164 242.035 219.559 241.31 220.349 240.8C221.059 240.32 221.969 240.08 223.079 240.08ZM233.637 240.08C235.247 240.08 236.512 240.615 237.432 241.685C238.312 242.715 238.752 244.04 238.752 245.66C238.752 247.26 238.312 248.575 237.432 249.605C236.502 250.675 235.232 251.21 233.622 251.21C232.022 251.21 230.757 250.675 229.827 249.605C228.947 248.595 228.507 247.28 228.507 245.66C228.507 244.03 228.947 242.71 229.827 241.7C230.757 240.62 232.027 240.08 233.637 240.08ZM233.637 241.175C232.397 241.175 231.427 241.6 230.727 242.45C230.067 243.26 229.737 244.33 229.737 245.66C229.737 246.98 230.067 248.045 230.727 248.855C231.417 249.695 232.382 250.115 233.622 250.115C234.852 250.115 235.817 249.705 236.517 248.885C237.187 248.065 237.522 246.99 237.522 245.66C237.522 244.31 237.187 243.225 236.517 242.405C235.827 241.585 234.867 241.175 233.637 241.175ZM240.456 240.29H244.836C247.296 240.29 248.526 241.34 248.526 243.44C248.526 245.56 247.291 246.62 244.821 246.62H241.686V251H240.456V240.29ZM241.686 241.355V245.555H244.761C245.611 245.555 246.251 245.38 246.681 245.03C247.091 244.68 247.296 244.15 247.296 243.44C247.296 242.71 247.086 242.19 246.666 241.88C246.256 241.53 245.621 241.355 244.761 241.355H241.686ZM261.99 252.41C261.33 252.39 260.84 251.975 260.52 251.165C260.2 250.365 260.04 248.685 260.04 246.125V242.345H257.925V243.995C257.915 244.825 257.855 245.61 257.745 246.35C258.495 246.89 259.165 247.435 259.755 247.985L259.14 248.915C258.62 248.405 258.085 247.94 257.535 247.52C257.025 249.65 256.07 251.31 254.67 252.5L253.86 251.795C255.25 250.635 256.155 248.97 256.575 246.8C255.995 246.39 255.365 246.005 254.685 245.645L255.27 244.775C255.61 244.955 256.1 245.245 256.74 245.645C256.79 245.105 256.82 244.555 256.83 243.995V242.345H254.91V241.295H256.83V238.775H257.925V241.295H261.105V246.125C261.105 248.305 261.175 249.67 261.315 250.22C261.435 250.82 261.625 251.12 261.885 251.12C262.045 251.12 262.185 250.84 262.305 250.28C262.395 249.81 262.485 249.215 262.575 248.495L263.49 248.93C263.28 250.34 263.05 251.275 262.8 251.735C262.56 252.185 262.29 252.41 261.99 252.41ZM250.005 252.365L249.78 251.315C250.38 251.355 250.81 251.375 251.07 251.375C251.5 251.375 251.715 251.17 251.715 250.76V247.085C251.035 247.325 250.395 247.535 249.795 247.715L249.525 246.695C250.335 246.505 251.065 246.29 251.715 246.05V242.66H249.81V241.625H251.715V238.79H252.81V241.625H254.22V242.66H252.81V245.63C253.25 245.45 253.75 245.215 254.31 244.925V246.005C253.92 246.195 253.42 246.415 252.81 246.665V251.03C252.81 251.92 252.355 252.365 251.445 252.365H250.005ZM270.375 239.705H277.56V240.77H270.375V239.705ZM269.97 243.515H278.22V244.58H275.79V251.015C275.79 251.965 275.295 252.44 274.305 252.44H272.13L271.905 251.375C272.685 251.425 273.36 251.45 273.93 251.45C274.44 251.45 274.695 251.215 274.695 250.745V244.58H269.97V243.515ZM268.98 239.33C268.14 240.99 266.79 242.46 264.93 243.74L264.615 242.66C266.165 241.56 267.295 240.3 268.005 238.88L268.98 239.33ZM269.685 242.75C269.235 243.63 268.69 244.43 268.05 245.15V252.5H266.985V246.245C266.325 246.835 265.67 247.355 265.02 247.805L264.705 246.725C266.535 245.435 267.87 243.96 268.71 242.3L269.685 242.75Z" fill="#869BB9"/>
<circle cx="295" cy="246" r="4" fill="#0555FF"/>
<circle opacity="0.15" cx="720.5" cy="271.5" r="558.5" stroke="url(#paint3_linear_1616_7645)" stroke-linecap="round" stroke-linejoin="round" stroke-dasharray="2 4"/>
</g>
<defs>
<linearGradient id="paint0_linear_1616_7645" x1="720.5" y1="148" x2="720.5" y2="395" gradientUnits="userSpaceOnUse">
<stop stop-color="white" stop-opacity="0"/>
<stop offset="0.279598" stop-color="#1561FF"/>
<stop offset="0.730515" stop-color="#1561FF"/>
<stop offset="1" stop-color="white" stop-opacity="0"/>
</linearGradient>
<linearGradient id="paint1_linear_1616_7645" x1="720.5" y1="-32" x2="720.5" y2="575" gradientUnits="userSpaceOnUse">
<stop stop-color="white" stop-opacity="0"/>
<stop offset="0.279598" stop-color="#1561FF"/>
<stop offset="0.730515" stop-color="#1561FF"/>
<stop offset="1" stop-color="white" stop-opacity="0"/>
</linearGradient>
<linearGradient id="paint2_linear_1616_7645" x1="720.5" y1="-155" x2="720.5" y2="698" gradientUnits="userSpaceOnUse">
<stop stop-color="white" stop-opacity="0"/>
<stop offset="0.279598" stop-color="#1561FF"/>
<stop offset="0.730515" stop-color="#1561FF"/>
<stop offset="1" stop-color="white" stop-opacity="0"/>
</linearGradient>
<linearGradient id="paint3_linear_1616_7645" x1="720.5" y1="-287" x2="720.5" y2="830" gradientUnits="userSpaceOnUse">
<stop stop-color="white" stop-opacity="0"/>
<stop offset="0.279598" stop-color="#1561FF"/>
<stop offset="0.730515" stop-color="#1561FF"/>
<stop offset="1" stop-color="white" stop-opacity="0"/>
</linearGradient>
<clipPath id="clip0_1616_7645">
<rect width="1440" height="544" fill="white"/>
</clipPath>
</defs>
</svg>
