<svg width="1440" height="544" viewBox="0 0 1440 544" fill="none" xmlns="http://www.w3.org/2000/svg">
<g clip-path="url(#clip0_1616_8151)">
<rect width="1440" height="544" fill="#FBFBFD"/>
<circle opacity="0.36" cx="720.5" cy="271.5" r="123.5" stroke="url(#paint0_linear_1616_8151)" stroke-linecap="round" stroke-linejoin="round" stroke-dasharray="2 4"/>
<circle opacity="0.24" cx="720.5" cy="271.5" r="303.5" stroke="url(#paint1_linear_1616_8151)" stroke-linecap="round" stroke-linejoin="round" stroke-dasharray="2 4"/>
<circle opacity="0.24" cx="720.5" cy="271.5" r="426.5" stroke="url(#paint2_linear_1616_8151)" stroke-linecap="round" stroke-linejoin="round" stroke-dasharray="2 4"/>
<circle opacity="0.15" cx="720.5" cy="271.5" r="558.5" stroke="url(#paint3_linear_1616_8151)" stroke-linecap="round" stroke-linejoin="round" stroke-dasharray="2 4"/>
<circle opacity="0.2" cx="994" cy="140" r="8" fill="#0555FF"/>
<path d="M1017.76 132.82C1019.64 134.65 1021.8 136.105 1024.24 137.185L1023.83 137.89C1021.34 136.78 1019.22 135.335 1017.47 133.555C1015.85 135.285 1013.72 136.78 1011.07 138.04L1010.68 137.32C1013.27 136.13 1015.44 134.63 1017.19 132.82H1017.76ZM1014.62 140.08V141.535H1020.62V140.08H1014.62ZM1020.62 139.36V137.92H1014.62V139.36H1020.62ZM1023.16 142.495C1022.51 143.215 1021.81 143.87 1021.06 144.46C1022.04 144.94 1022.94 145.45 1023.76 145.99L1023.23 146.605C1021.62 145.475 1019.56 144.425 1017.05 143.455L1017.52 142.9C1018.51 143.28 1019.46 143.685 1020.37 144.115C1021.17 143.485 1021.87 142.825 1022.47 142.135L1023.16 142.495ZM1013.42 145.825C1013.68 145.745 1013.81 145.535 1013.81 145.195V137.185H1017.35C1017.13 136.565 1016.89 136.01 1016.63 135.52L1017.38 135.4C1017.64 135.93 1017.88 136.525 1018.1 137.185H1021.42V142.27H1014.62V145.54C1015.92 145.27 1017.1 144.965 1018.15 144.625L1018.31 145.33C1017.04 145.77 1015.49 146.155 1013.65 146.485L1013.42 145.825ZM1028.44 133.495H1036.54V138.16H1028.44V133.495ZM1035.71 137.38V134.275H1029.26V137.38H1035.71ZM1031.54 139.93V146.23H1030.75V145.435H1027.28V146.23H1026.49V139.93H1031.54ZM1027.28 144.67H1030.75V140.695H1027.28V144.67ZM1038.52 139.93V146.23H1037.71V145.435H1034.09V146.23H1033.3V139.93H1038.52ZM1034.09 144.67H1037.71V140.695H1034.09V144.67Z" fill="#869BB9"/>
<circle cx="994" cy="140" r="4" fill="#0555FF"/>
<circle opacity="0.2" cx="458" cy="116" r="8" fill="#0555FF"/>
<path d="M383.005 122.32L382.825 121.54C383.465 121.58 383.93 121.6 384.22 121.6C384.65 121.6 384.865 121.37 384.865 120.91V116.995C384.175 117.245 383.505 117.455 382.855 117.625L382.645 116.83C383.465 116.63 384.205 116.415 384.865 116.185V112.54H382.855V111.745H384.865V108.835H385.675V111.745H387.415V112.54H385.675V115.885C386.265 115.655 386.87 115.385 387.49 115.075V115.9C386.81 116.22 386.205 116.485 385.675 116.695V121.12C385.675 121.92 385.285 122.32 384.505 122.32H383.005ZM395.065 111.49H389.2V114.58H395.065V111.49ZM389.2 115.375C389.19 118.125 388.56 120.49 387.31 122.47L386.695 121.915C387.815 120.225 388.385 118.04 388.405 115.36V110.695H391.78C391.57 110.035 391.33 109.43 391.06 108.88L391.915 108.73C392.165 109.32 392.39 109.975 392.59 110.695H395.845V115.375H389.2ZM399.505 113.8V116.545H401.815V113.8H399.505ZM401.815 113.05V110.185H399.505V113.05H401.815ZM399.49 117.31C399.4 119.4 399.01 121.12 398.32 122.47L397.735 121.93C398.375 120.51 398.7 118.725 398.71 116.575V109.42H402.595V121.27C402.595 122.03 402.245 122.41 401.545 122.41H400.315L400.12 121.66C400.68 121.68 401.07 121.69 401.29 121.69C401.64 121.69 401.815 121.455 401.815 120.985V117.31H399.49ZM403.765 111.325H406.735V108.835H407.575V111.325H410.515V112.135H407.575V113.92C407.555 114.48 407.52 114.96 407.47 115.36H411.115V116.155H407.755C408.505 118.535 409.715 120.425 411.385 121.825L410.845 122.455C409.155 120.945 407.93 119.04 407.17 116.74C406.57 118.88 405.32 120.76 403.42 122.38L402.79 121.855C404.76 120.245 405.995 118.345 406.495 116.155H403.33V115.36H406.63C406.7 114.8 406.735 114.32 406.735 113.92V112.135H403.765V111.325ZM413.485 110.38H417.055C416.845 109.84 416.59 109.335 416.29 108.865L417.13 108.715C417.4 109.205 417.655 109.76 417.895 110.38H421.18C421.45 109.87 421.665 109.31 421.825 108.7L422.665 108.82C422.525 109.35 422.31 109.87 422.02 110.38H425.515V111.13H419.905V112.795H424.75V113.515H419.905V115.195H426.025V115.975H412.975V115.195H419.095V113.515H414.31V112.795H419.095V111.13H413.485V110.38ZM420.01 116.515C419.96 116.935 419.865 117.365 419.725 117.805H425.68V118.585H420.235C421.285 120.125 423.34 121.175 426.4 121.735L425.98 122.485C422.61 121.795 420.42 120.5 419.41 118.6C419.07 119.32 418.62 119.935 418.06 120.445C417.09 121.335 415.395 122.035 412.975 122.545L412.645 121.75C414.845 121.33 416.43 120.715 417.4 119.905C417.83 119.535 418.195 119.095 418.495 118.585H413.335V117.805H418.855C419.015 117.335 419.13 116.88 419.2 116.44L420.01 116.515ZM431.17 108.835H431.965V122.41H431.17V116.935C430.22 117.925 429.11 118.865 427.84 119.755L427.615 118.96C428.895 118.13 430.08 117.145 431.17 116.005V108.835ZM428.575 110.44C429.255 111.67 429.835 112.945 430.315 114.265L429.625 114.58C429.085 113.12 428.485 111.825 427.825 110.695L428.575 110.44ZM432.955 112.21H435.475C435.745 111.22 436.01 110.06 436.27 108.73L437.08 108.805C436.82 110.015 436.55 111.15 436.27 112.21H441.235V112.99H439.66C439.48 115.61 438.96 117.545 438.1 118.795L437.935 119.005C439.305 120.095 440.38 121.03 441.16 121.81L440.635 122.425C439.795 121.565 438.73 120.62 437.44 119.59C436.44 120.65 435.03 121.57 433.21 122.35L432.715 121.72C434.525 120.97 435.9 120.1 436.84 119.11C435.9 118.36 434.905 117.605 433.855 116.845C434.375 115.615 434.84 114.33 435.25 112.99H432.955V112.21ZM437.365 118.495C438.225 117.305 438.735 115.47 438.895 112.99H436.06C435.65 114.4 435.205 115.6 434.725 116.59C435.685 117.28 436.555 117.925 437.335 118.525L437.365 118.495Z" fill="#869BB9"/>
<circle cx="458" cy="116" r="4" fill="#0555FF"/>
<circle opacity="0.2" cx="303" cy="360" r="8" fill="#0555FF"/>
<circle cx="303" cy="360" r="4" fill="#0555FF"/>
<path d="M230.975 354.32H233.21V352.865H233.945V354.32H236.105V355.04H233.945V356.525H235.73V361.64H233.975V363.245H236V363.95H233.975V366.455H233.24V363.95H230.9V363.245H233.24V361.64H231.38V356.525H233.21V355.04H230.975V354.32ZM235.01 360.98V359.39H232.115V360.98H235.01ZM232.115 358.76H235.01V357.185H232.115V358.76ZM237.65 357.77V360.65H240.05V357.77H237.65ZM240.05 357.035V354.215H237.65V357.035H240.05ZM237.62 361.385C237.5 363.495 237.015 365.22 236.165 366.56L235.535 365.99C236.415 364.59 236.87 362.795 236.9 360.605V353.45H240.8V365.255C240.8 366.005 240.425 366.38 239.675 366.38H238.58L238.385 365.645C238.885 365.665 239.235 365.675 239.435 365.675C239.845 365.675 240.05 365.445 240.05 364.985V361.385H237.62ZM228.59 353.045C229.46 353.795 230.185 354.55 230.765 355.31L230.21 355.865C229.65 355.115 228.925 354.355 228.035 353.585L228.59 353.045ZM228.26 356.63C229.13 357.39 229.85 358.155 230.42 358.925L229.85 359.48C229.3 358.73 228.585 357.96 227.705 357.17L228.26 356.63ZM230.36 360.905C229.83 362.865 229.27 364.645 228.68 366.245L227.945 365.93C228.605 364.2 229.175 362.43 229.655 360.62L230.36 360.905ZM247.085 358.205C247.225 358.135 247.28 358.11 247.25 358.13C247.85 357.75 248.63 356.76 249.59 355.16H246.77V354.41H251.09C250.88 353.84 250.63 353.285 250.34 352.745L251.165 352.595C251.425 353.115 251.67 353.72 251.9 354.41H255.905V355.16H250.43C249.66 356.53 248.975 357.525 248.375 358.145C250.465 358.015 252.34 357.855 254 357.665C253.67 357.195 253.3 356.705 252.89 356.195L253.535 355.775C254.525 356.985 255.295 358.065 255.845 359.015L255.17 359.48C255.01 359.19 254.775 358.81 254.465 358.34C252.465 358.56 250.065 358.75 247.265 358.91L247.085 358.205ZM243.815 353.03C244.745 353.67 245.55 354.33 246.23 355.01L245.645 355.595C245.005 354.915 244.2 354.25 243.23 353.6L243.815 353.03ZM243.455 356.585C244.385 357.295 245.205 358.05 245.915 358.85L245.33 359.435C244.74 358.725 243.92 357.96 242.87 357.14L243.455 356.585ZM245.945 360.8C245.375 362.71 244.72 364.54 243.98 366.29L243.245 365.96C243.995 364.23 244.66 362.415 245.24 360.515L245.945 360.8ZM250.43 359.72H251.255V366.155H250.43V359.72ZM248.78 359.72C248.72 361.66 248.525 363.09 248.195 364.01C247.845 364.95 247.24 365.765 246.38 366.455L245.87 365.81C246.62 365.21 247.15 364.495 247.46 363.665C247.75 362.855 247.925 361.54 247.985 359.72H248.78ZM254.165 366.32C253.405 366.32 253.025 365.96 253.025 365.24V359.735H253.805V365.12C253.805 365.4 253.925 365.55 254.165 365.57H254.93C255.23 365.55 255.41 365.395 255.47 365.105C255.53 364.745 255.56 364.145 255.56 363.305L256.28 363.575C256.28 364.815 256.195 365.58 256.025 365.87C255.865 366.14 255.51 366.29 254.96 366.32H254.165ZM259.79 354.755H257.825V353.99H262.61V354.755H260.615V358.355H262.31V359.12H260.615V362.87C261.255 362.64 261.96 362.35 262.73 362V362.825C261.39 363.455 259.79 364.04 257.93 364.58L257.705 363.77L259.79 363.155V359.12H258.035V358.355H259.79V354.755ZM264.995 358.805H262.88V358.01H270.875V358.805H268.625V364.745C268.625 365.235 268.825 365.48 269.225 365.48H269.78C269.99 365.48 270.15 365.425 270.26 365.315C270.45 365.125 270.565 364.37 270.605 363.05L271.37 363.29C271.28 364.7 271.13 365.555 270.92 365.855C270.74 366.095 270.42 366.225 269.96 366.245H268.985C268.595 366.245 268.3 366.125 268.1 365.885C267.89 365.625 267.785 365.31 267.785 364.94V358.805H265.79V359.87C265.73 362.85 264.43 365.025 261.89 366.395L261.275 365.855C263.715 364.605 264.955 362.61 264.995 359.87V358.805ZM263.405 353.75H270.38V354.53H263.405V353.75ZM283.85 353.435V362.63H286.13V363.395H272.87V362.63H275.15V353.435H283.85ZM275.945 362.63H283.055V361.01H275.945V362.63ZM275.945 360.335H283.055V358.745H275.945V360.335ZM275.945 358.07H283.055V356.48H275.945V358.07ZM275.945 355.805H283.055V354.2H275.945V355.805ZM277.97 364.085C276.85 364.985 275.445 365.785 273.755 366.485L273.275 365.84C274.895 365.18 276.26 364.415 277.37 363.545L277.97 364.085ZM281.42 363.515C282.99 364.135 284.42 364.88 285.71 365.75L285.26 366.455C283.92 365.495 282.5 364.72 281 364.13L281.42 363.515Z" fill="#869BB9"/>
<circle opacity="0.2" cx="978" cy="430" r="8" fill="#0555FF"/>
<path d="M1007.49 424.2V426.885H1006.68V424.98H996.34V426.9H995.53V424.2H1001.14C1000.91 423.68 1000.68 423.235 1000.45 422.865L1001.31 422.715C1001.52 423.115 1001.73 423.61 1001.95 424.2H1007.49ZM995.215 428.34H999.49C999.53 427.69 999.555 427.215 999.565 426.915V426.015H1000.36V426.915C1000.34 427.555 1000.32 428.03 1000.3 428.34H1007.88V429.105H1002.94V433.155C1004.3 432.255 1005.41 431.185 1006.27 429.945L1006.89 430.41C1005.83 431.91 1004.51 433.14 1002.94 434.1V434.76C1002.94 435.2 1003.2 435.42 1003.72 435.42H1006.3C1006.64 435.42 1006.89 435.33 1007.04 435.15C1007.23 434.91 1007.35 434.25 1007.41 433.17L1008.18 433.41C1008.09 434.7 1007.9 435.505 1007.61 435.825C1007.37 436.065 1006.98 436.185 1006.45 436.185H1003.48C1002.59 436.185 1002.15 435.765 1002.15 434.925V434.55C1001.2 435.05 1000.2 435.47 999.145 435.81L998.815 435.09C1000.05 434.7 1001.16 434.22 1002.15 433.65V429.105H1000.23C1000.05 430.705 999.67 432.045 999.1 433.125C998.29 434.565 996.98 435.69 995.17 436.5L994.72 435.81C996.5 435 997.755 433.9 998.485 432.51C998.945 431.53 999.255 430.395 999.415 429.105H995.215V428.34ZM1002.97 425.91C1003.99 426.32 1004.95 426.835 1005.85 427.455L1005.43 428.1C1004.51 427.44 1003.56 426.915 1002.57 426.525L1002.97 425.91ZM1017.43 422.97C1017.23 423.91 1017.03 424.685 1016.82 425.295H1022.73C1022.73 430.125 1022.66 433.14 1022.52 434.34C1022.36 435.69 1021.56 436.365 1020.13 436.365C1019.93 436.365 1019.56 436.35 1019.02 436.32L1018.84 435.585C1019.31 435.615 1019.72 435.63 1020.06 435.63C1021.04 435.63 1021.6 435.12 1021.75 434.1C1021.85 433.22 1021.92 430.545 1021.95 426.075H1020.67C1020.34 428.645 1019.88 430.665 1019.28 432.135C1018.59 433.695 1017.57 435.09 1016.22 436.32L1015.71 435.69C1016.98 434.54 1017.93 433.26 1018.56 431.85C1019.18 430.43 1019.63 428.505 1019.92 426.075H1018.54C1017.94 429.375 1016.79 431.775 1015.08 433.275L1014.55 432.675C1016.15 431.295 1017.24 429.095 1017.81 426.075H1016.53C1016.13 427.045 1015.67 427.865 1015.14 428.535L1014.54 428.025C1015.53 426.795 1016.23 425.045 1016.65 422.775L1017.43 422.97ZM1011.03 426.795C1010.85 427.585 1010.61 428.345 1010.31 429.075L1009.6 428.88C1010.24 427.3 1010.61 425.62 1010.7 423.84L1011.43 423.885C1011.4 424.535 1011.32 425.245 1011.19 426.015H1012.45V422.805H1013.26V426.015H1014.64V426.795H1013.26V430.725C1013.68 430.535 1014.12 430.31 1014.58 430.05V430.815C1014.08 431.085 1013.64 431.31 1013.26 431.49V436.455H1012.45V431.865C1011.62 432.215 1010.79 432.525 1009.96 432.795L1009.77 432C1010.7 431.76 1011.59 431.46 1012.45 431.1V426.795H1011.03ZM1025.01 436.32L1024.83 435.54C1025.47 435.58 1025.93 435.6 1026.22 435.6C1026.65 435.6 1026.87 435.37 1026.87 434.91V430.995C1026.18 431.245 1025.51 431.455 1024.86 431.625L1024.65 430.83C1025.47 430.63 1026.21 430.415 1026.87 430.185V426.54H1024.86V425.745H1026.87V422.835H1027.68V425.745H1029.42V426.54H1027.68V429.885C1028.27 429.655 1028.87 429.385 1029.49 429.075V429.9C1028.81 430.22 1028.21 430.485 1027.68 430.695V435.12C1027.68 435.92 1027.29 436.32 1026.51 436.32H1025.01ZM1037.07 425.49H1031.2V428.58H1037.07V425.49ZM1031.2 429.375C1031.19 432.125 1030.56 434.49 1029.31 436.47L1028.7 435.915C1029.82 434.225 1030.39 432.04 1030.41 429.36V424.695H1033.78C1033.57 424.035 1033.33 423.43 1033.06 422.88L1033.92 422.73C1034.17 423.32 1034.39 423.975 1034.59 424.695H1037.85V429.375H1031.2ZM1045.45 423.435H1052.52V430.2H1049.4V432.255H1052.82V433.035H1049.4V435.195H1053.3V435.99H1044.69V435.195H1048.59V433.035H1045.14V432.255H1048.59V430.2H1045.45V423.435ZM1051.72 429.465V427.17H1049.4V429.465H1051.72ZM1048.59 429.465V427.17H1046.25V429.465H1048.59ZM1046.25 426.45H1048.59V424.17H1046.25V426.45ZM1049.4 424.17V426.45H1051.72V424.17H1049.4ZM1040.02 428.43H1041.73V424.62H1039.8V423.84H1044.46V424.62H1042.54V428.43H1044.28V429.21H1042.54V432.885C1043.19 432.655 1043.84 432.4 1044.49 432.12V432.9C1043.06 433.53 1041.49 434.055 1039.78 434.475L1039.59 433.71C1040.24 433.58 1040.95 433.395 1041.73 433.155V429.21H1040.02V428.43Z" fill="#869BB9"/>
<circle cx="978" cy="430" r="4" fill="#0555FF"/>
<circle opacity="0.2" cx="1146" cy="260" r="8" fill="#0555FF"/>
<circle cx="1146" cy="260" r="4" fill="#0555FF"/>
<path d="M1164.61 257.755V260.485H1167.28V257.755H1164.61ZM1167.28 257.02V254.26H1164.61V257.02H1167.28ZM1164.6 261.25C1164.53 263.36 1164.19 265.105 1163.58 266.485L1162.95 265.93C1163.56 264.51 1163.87 262.73 1163.88 260.59V253.495H1168.05V265.165C1168.05 266.005 1167.66 266.425 1166.88 266.425H1165.68L1165.48 265.705C1166.04 265.725 1166.43 265.735 1166.64 265.735C1167.07 265.735 1167.28 265.455 1167.28 264.895V261.25H1164.6ZM1170.24 259.765V266.47H1169.47V253.495H1175.38C1175.38 255.265 1175.29 256.445 1175.11 257.035C1174.95 257.635 1174.39 257.935 1173.43 257.935H1172.28L1172.05 257.23H1173.06C1173.45 257.23 1173.74 257.2 1173.93 257.14C1174.12 257.08 1174.26 256.93 1174.36 256.69C1174.49 256.28 1174.56 255.465 1174.57 254.245H1170.24V259.03H1175.38V259.72C1175.06 261.35 1174.53 262.715 1173.79 263.815C1174.51 264.535 1175.37 265.175 1176.37 265.735L1175.98 266.41C1174.92 265.8 1174.04 265.14 1173.34 264.43C1172.67 265.25 1171.86 265.915 1170.91 266.425L1170.49 265.78C1171.42 265.25 1172.19 264.61 1172.8 263.86C1171.78 262.66 1171.09 261.295 1170.73 259.765H1170.24ZM1171.44 259.765C1171.77 261.055 1172.37 262.215 1173.25 263.245C1173.89 262.255 1174.36 261.095 1174.65 259.765H1171.44ZM1181.7 252.79H1182.52V259.495H1181.7V257.155C1180.67 257.775 1179.5 258.325 1178.2 258.805L1177.87 258.055C1179.34 257.575 1180.62 257.005 1181.7 256.345V252.79ZM1183.57 254.575H1186.92V252.745H1187.71V254.575H1190.97V255.31H1187.71V257.785H1190.55V258.52H1184.05V257.785H1186.92V255.31H1183.57V254.575ZM1178.58 253.465C1179.44 253.885 1180.23 254.4 1180.95 255.01L1180.54 255.655C1179.76 254.995 1178.96 254.475 1178.14 254.095L1178.58 253.465ZM1177.89 260.47H1184.46C1184.21 260 1183.94 259.57 1183.65 259.18L1184.4 258.94C1184.73 259.39 1185.03 259.9 1185.3 260.47H1191.12V261.22H1185.37C1185.85 262.09 1186.45 262.85 1187.16 263.5C1188.04 262.97 1188.82 262.35 1189.5 261.64L1190.07 262.15C1189.43 262.82 1188.65 263.43 1187.73 263.98C1188.73 264.76 1189.9 265.355 1191.25 265.765L1190.79 266.455C1187.89 265.495 1185.82 263.75 1184.59 261.22H1184.53C1183.87 261.96 1183.02 262.625 1181.97 263.215V265.495C1183.28 265.215 1184.44 264.91 1185.46 264.58L1185.58 265.3C1184.32 265.69 1182.79 266.065 1180.99 266.425L1180.83 265.705C1181.09 265.615 1181.22 265.475 1181.22 265.285V263.605C1180.34 264.025 1179.35 264.415 1178.25 264.775L1177.83 264.07C1180.51 263.33 1182.46 262.38 1183.68 261.22H1177.89V260.47Z" fill="#869BB9"/>
</g>
<defs>
<linearGradient id="paint0_linear_1616_8151" x1="720.5" y1="148" x2="720.5" y2="395" gradientUnits="userSpaceOnUse">
<stop stop-color="white" stop-opacity="0"/>
<stop offset="0.279598" stop-color="#1561FF"/>
<stop offset="0.730515" stop-color="#1561FF"/>
<stop offset="1" stop-color="white" stop-opacity="0"/>
</linearGradient>
<linearGradient id="paint1_linear_1616_8151" x1="720.5" y1="-32" x2="720.5" y2="575" gradientUnits="userSpaceOnUse">
<stop stop-color="white" stop-opacity="0"/>
<stop offset="0.279598" stop-color="#1561FF"/>
<stop offset="0.730515" stop-color="#1561FF"/>
<stop offset="1" stop-color="white" stop-opacity="0"/>
</linearGradient>
<linearGradient id="paint2_linear_1616_8151" x1="720.5" y1="-155" x2="720.5" y2="698" gradientUnits="userSpaceOnUse">
<stop stop-color="white" stop-opacity="0"/>
<stop offset="0.279598" stop-color="#1561FF"/>
<stop offset="0.730515" stop-color="#1561FF"/>
<stop offset="1" stop-color="white" stop-opacity="0"/>
</linearGradient>
<linearGradient id="paint3_linear_1616_8151" x1="720.5" y1="-287" x2="720.5" y2="830" gradientUnits="userSpaceOnUse">
<stop stop-color="white" stop-opacity="0"/>
<stop offset="0.279598" stop-color="#1561FF"/>
<stop offset="0.730515" stop-color="#1561FF"/>
<stop offset="1" stop-color="white" stop-opacity="0"/>
</linearGradient>
<clipPath id="clip0_1616_8151">
<rect width="1440" height="544" fill="white"/>
</clipPath>
</defs>
</svg>
