<svg width="1440" height="544" viewBox="0 0 1440 544" fill="none" xmlns="http://www.w3.org/2000/svg">
<g clip-path="url(#clip0_1616_8605)">
<rect width="1440" height="544" fill="#FBFBFD"/>
<circle opacity="0.36" cx="720.5" cy="271.5" r="123.5" stroke="url(#paint0_linear_1616_8605)" stroke-linecap="round" stroke-linejoin="round" stroke-dasharray="2 4"/>
<circle opacity="0.24" cx="720.5" cy="271.5" r="303.5" stroke="url(#paint1_linear_1616_8605)" stroke-linecap="round" stroke-linejoin="round" stroke-dasharray="2 4"/>
<circle opacity="0.24" cx="720.5" cy="271.5" r="426.5" stroke="url(#paint2_linear_1616_8605)" stroke-linecap="round" stroke-linejoin="round" stroke-dasharray="2 4"/>
<circle opacity="0.15" cx="720.5" cy="271.5" r="558.5" stroke="url(#paint3_linear_1616_8605)" stroke-linecap="round" stroke-linejoin="round" stroke-dasharray="2 4"/>
<circle opacity="0.2" cx="1146" cy="241" r="8" fill="#0555FF"/>
<path d="M1167.42 240.855H1170.99V237.96H1171.81V240.855H1175.46V241.665H1171.81V246.15H1176.16V246.945H1166.76V246.15H1170.99V241.665H1167.42V240.855ZM1165.11 241.095C1164.46 241.795 1163.78 242.435 1163.08 243.015L1162.56 242.355C1164.54 240.725 1166.07 238.845 1167.16 236.715H1163.08V235.92H1167.54C1167.83 235.23 1168.1 234.49 1168.35 233.7L1169.17 233.79C1168.98 234.47 1168.73 235.18 1168.42 235.92H1176.12V236.715H1168.06C1167.44 237.975 1166.73 239.115 1165.92 240.135V247.5H1165.11V241.095ZM1182.97 245.43C1181.46 246.03 1179.78 246.505 1177.92 246.855L1177.81 246.06C1179.78 245.7 1181.5 245.235 1182.97 244.665V245.43ZM1181.25 234.015C1180.44 236.095 1179.62 237.725 1178.79 238.905C1179.51 238.835 1180.29 238.735 1181.14 238.605C1181.82 237.325 1182.13 236.735 1182.07 236.835L1182.81 237.12C1181.39 239.8 1180.22 241.665 1179.31 242.715C1180.55 242.495 1181.72 242.2 1182.81 241.83V242.565C1181.24 243.065 1179.75 243.405 1178.34 243.585L1178.13 242.835C1178.27 242.775 1178.39 242.7 1178.5 242.61C1179.09 241.99 1179.84 240.905 1180.74 239.355C1179.79 239.495 1178.88 239.615 1178.02 239.715L1177.81 238.965C1177.94 238.905 1178.06 238.8 1178.16 238.65C1179.04 237.27 1179.81 235.62 1180.48 233.7L1181.25 234.015ZM1190.23 236.505L1190.35 237.285L1186.41 237.84C1186.44 238.71 1186.49 239.465 1186.56 240.105L1190.64 239.46L1190.76 240.24L1186.65 240.9C1186.68 241.14 1186.73 241.48 1186.81 241.92C1186.95 242.68 1187.15 243.4 1187.41 244.08C1188.28 243.31 1189.07 242.395 1189.77 241.335L1190.43 241.755C1189.61 242.955 1188.71 243.98 1187.73 244.83C1187.85 245.07 1187.94 245.245 1188.01 245.355C1188.52 246.105 1188.99 246.48 1189.42 246.48C1189.85 246.48 1190.22 245.61 1190.52 243.87L1191.22 244.32C1190.83 246.34 1190.26 247.35 1189.51 247.35C1188.81 247.33 1188.15 246.87 1187.52 245.97C1187.4 245.8 1187.26 245.585 1187.11 245.325C1185.96 246.195 1184.74 246.825 1183.44 247.215L1182.96 246.57C1184.38 246.12 1185.65 245.465 1186.77 244.605C1186.49 243.975 1186.25 243.21 1186.06 242.31C1186 242.03 1185.93 241.6 1185.85 241.02L1183.05 241.47L1182.93 240.69L1185.75 240.24C1185.67 239.55 1185.62 238.79 1185.6 237.96L1183.3 238.29L1183.2 237.525L1185.58 237.18V233.775H1186.39V237.06L1190.23 236.505ZM1188.04 233.76C1188.84 234.47 1189.47 235.105 1189.92 235.665L1189.27 236.115C1188.84 235.545 1188.23 234.89 1187.43 234.15L1188.04 233.76ZM1205.95 247.425C1204.78 246.335 1203.83 245.165 1203.09 243.915C1202.21 245.315 1201.03 246.485 1199.55 247.425L1199.08 246.69C1200.61 245.78 1201.8 244.6 1202.65 243.15C1201.95 241.87 1201.42 240.455 1201.05 238.905C1200.73 239.565 1200.37 240.175 1199.97 240.735L1199.46 240.135C1200.54 238.565 1201.27 236.44 1201.66 233.76L1202.46 233.91C1202.34 234.74 1202.19 235.495 1202.01 236.175H1206.01V236.94H1204.96C1204.88 239.37 1204.4 241.45 1203.51 243.18C1204.31 244.56 1205.28 245.745 1206.43 246.735L1205.95 247.425ZM1201.8 236.94L1201.47 237.915C1201.85 239.585 1202.38 241.07 1203.06 242.37C1203.77 240.82 1204.15 239.01 1204.2 236.94H1201.8ZM1193.56 235.29H1195.65V233.85H1196.41V235.29H1198.09V236.04H1196.41V237.81H1197.46C1198.26 236.78 1198.96 235.675 1199.55 234.495L1200.21 234.825C1199.62 235.945 1199.01 236.94 1198.38 237.81H1199.7V238.575H1197.79C1197.33 239.125 1196.86 239.64 1196.38 240.12H1199.05V240.72C1198.58 241.3 1197.97 241.92 1197.22 242.58V243.495C1198.2 243.335 1199.13 243.145 1200 242.925V243.69C1199.17 243.89 1198.24 244.07 1197.22 244.23V246.18C1197.22 246.93 1196.85 247.305 1196.11 247.305H1194.57L1194.36 246.57C1195.03 246.62 1195.51 246.645 1195.81 246.645C1196.23 246.645 1196.44 246.415 1196.44 245.955V244.335C1195.53 244.455 1194.39 244.58 1193.01 244.71L1192.89 243.915C1194.18 243.835 1195.36 243.73 1196.44 243.6V242.4C1197.04 241.94 1197.59 241.43 1198.08 240.87H1195.56C1194.8 241.51 1193.97 242.085 1193.08 242.595L1192.57 242.01C1193.22 241.63 1193.81 241.25 1194.33 240.87H1193.61V240.12H1195.26C1195.85 239.61 1196.37 239.095 1196.83 238.575H1192.86V237.81H1195.65V236.04H1193.56V235.29ZM1207.84 235.2H1214.26C1214.06 234.74 1213.82 234.31 1213.53 233.91L1214.44 233.745C1214.7 234.195 1214.94 234.68 1215.16 235.2H1221.19V235.98H1213.09C1212.16 236.86 1211.26 237.565 1210.39 238.095C1213.63 237.985 1216.25 237.845 1218.25 237.675C1217.92 237.365 1217.47 236.98 1216.9 236.52L1217.55 236.115C1218.91 237.215 1219.98 238.2 1220.76 239.07L1220.08 239.55C1219.71 239.12 1219.32 238.705 1218.91 238.305C1216.31 238.525 1213.06 238.7 1209.16 238.83L1208.98 238.095C1209.15 238.075 1209.29 238.04 1209.4 237.99C1210.24 237.5 1211.14 236.83 1212.09 235.98H1207.84V235.2ZM1210.99 242.775V244.185H1218.1V242.775H1210.99ZM1218.1 242.055V240.57H1210.99V242.055H1218.1ZM1210.99 244.89V247.47H1210.17V239.85H1218.93V246.105C1218.93 246.975 1218.48 247.41 1217.59 247.41H1216.06L1215.85 246.615L1217.34 246.66C1217.85 246.66 1218.1 246.415 1218.1 245.925V244.89H1210.99Z" fill="#869BB9"/>
<circle cx="1146" cy="241" r="4" fill="#0555FF"/>
<circle opacity="0.2" cx="315" cy="136" r="8" fill="#0555FF"/>
<path d="M252.5 130.455V141.75H251.69V140.73H248.525V141.795H247.73V130.455H252.5ZM248.525 139.965H251.69V131.22H248.525V139.965ZM241.835 131.67C241.425 132.56 240.985 133.35 240.515 134.04L239.81 133.605C240.8 132.165 241.535 130.535 242.015 128.715L242.81 128.895C242.59 129.675 242.375 130.34 242.165 130.89H246.71V131.67H244.4C244.39 132.82 244.32 133.915 244.19 134.955H246.845V135.72H244.085C244.025 136.1 243.94 136.535 243.83 137.025C244.85 138.075 245.865 139.23 246.875 140.49L246.395 141.21C245.265 139.69 244.335 138.54 243.605 137.76C242.995 139.52 241.875 140.98 240.245 142.14L239.72 141.48C241.34 140.32 242.42 138.835 242.96 137.025C243.04 136.705 243.135 136.27 243.245 135.72H239.945V134.955H243.365C243.495 133.915 243.565 132.82 243.575 131.67H241.835ZM260.66 129.765H267.335V136.515H260.66V129.765ZM266.525 135.735V130.56H261.47V135.735H266.525ZM256.355 128.94C257.315 129.69 258.16 130.475 258.89 131.295L258.335 131.85C257.715 131.11 256.86 130.325 255.77 129.495L256.355 128.94ZM254.69 133.455H257.75V140.295C258.28 139.845 258.85 139.305 259.46 138.675L259.685 139.53C258.835 140.4 257.945 141.165 257.015 141.825L256.7 141.09C256.87 140.92 256.955 140.75 256.955 140.58V134.25H254.69V133.455ZM263.015 137.94C262.255 139.7 261.35 141.225 260.3 142.515L259.61 142.02C260.65 140.79 261.545 139.315 262.295 137.595L263.015 137.94ZM265.625 137.55C266.865 139.31 267.785 140.785 268.385 141.975L267.71 142.47C267.02 141.08 266.1 139.58 264.95 137.97L265.625 137.55ZM273.845 129C273.515 130.05 273.11 131.035 272.63 131.955V142.5H271.82V133.38C271.18 134.37 270.51 135.25 269.81 136.02L269.54 135.18C271.17 133.28 272.35 131.105 273.08 128.655L273.845 129ZM274.265 132.12H280.22V128.805H281.03V132.12H283.25V132.93H281.03V140.91C281.03 141.87 280.6 142.35 279.74 142.35H277.595L277.415 141.57C278.355 141.61 279.035 141.63 279.455 141.63C279.965 141.63 280.22 141.32 280.22 140.7V132.93H274.265V132.12ZM275.495 134.73C276.685 136.12 277.595 137.33 278.225 138.36L277.535 138.84C276.875 137.73 275.975 136.5 274.835 135.15L275.495 134.73ZM287 132.105L286.73 133.2H289.295C289.405 132.87 289.47 132.505 289.49 132.105H287ZM290.27 132.105C290.25 132.515 290.2 132.88 290.12 133.2H292.655V132.105H290.27ZM293.435 132.105V133.2H297.56C297.56 134.26 297.45 134.93 297.23 135.21C296.99 135.52 296.485 135.68 295.715 135.69C295.565 135.69 295.34 135.68 295.04 135.66L294.89 135.045C295.15 135.075 295.39 135.09 295.61 135.09C296.13 135.09 296.455 135 296.585 134.82C296.685 134.67 296.745 134.35 296.765 133.86H293.435V135.645H292.655V133.86H289.88C289.7 134.22 289.46 134.55 289.16 134.85C288.47 135.48 287.33 135.975 285.74 136.335L285.32 135.69C286.84 135.36 287.925 134.915 288.575 134.355C288.725 134.205 288.86 134.04 288.98 133.86H285.845L286.34 131.445H289.49V130.305H285.995V129.615H289.49V128.76H290.27V129.615H292.655V128.76H293.435V129.615H296.855V132.105H293.435ZM290.27 130.305V131.445H292.655V130.305H290.27ZM293.435 130.305V131.445H296.09V130.305H293.435ZM296.36 136.155V140.175H295.55V136.89H287.84V140.175H287.045V136.155H296.36ZM292.445 140.01C294.415 140.51 296.18 141.115 297.74 141.825L297.29 142.5C295.55 141.71 293.79 141.085 292.01 140.625L292.445 140.01ZM292.07 137.61C291.86 139.31 291.4 140.46 290.69 141.06C289.91 141.81 288.205 142.275 285.575 142.455L285.26 141.735C287.64 141.615 289.225 141.23 290.015 140.58C290.705 139.98 291.12 138.965 291.26 137.535L292.07 137.61Z" fill="#869BB9"/>
<circle cx="315" cy="136" r="4" fill="#0555FF"/>
<circle opacity="0.2" cx="494" cy="474" r="8" fill="#0555FF"/>
<circle cx="494" cy="474" r="4" fill="#0555FF"/>
<path d="M419.11 480.29L418.945 479.54C419.335 479.57 419.71 479.585 420.07 479.585C420.52 479.585 420.745 479.345 420.745 478.865V474.98C420.105 475.25 419.445 475.49 418.765 475.7L418.555 474.905C419.325 474.685 420.055 474.445 420.745 474.185V470.42H418.84V469.625H420.745V466.805H421.555V469.625H423.22V470.42H421.555V473.84C422.115 473.58 422.69 473.28 423.28 472.94V473.735C422.78 474.025 422.205 474.32 421.555 474.62V479.06C421.555 479.88 421.155 480.29 420.355 480.29H419.11ZM423.85 469.055H427.525V466.82H428.335V469.055H432.01V469.82H428.335V472.505H431.41V473.24C430.84 474.97 429.93 476.43 428.68 477.62C429.68 478.44 430.94 479.17 432.46 479.81L432.04 480.47C430.46 479.77 429.155 478.98 428.125 478.1C426.915 479.1 425.455 479.9 423.745 480.5L423.355 479.81C425.025 479.24 426.425 478.5 427.555 477.59C426.255 476.33 425.38 474.895 424.93 473.285H424.12V472.505H427.525V469.82H423.85V469.055ZM425.695 473.285C426.115 474.715 426.915 475.99 428.095 477.11C429.235 476.03 430.075 474.755 430.615 473.285H425.695ZM435.505 475.265V476.885H439.345V475.265H435.505ZM439.345 474.545V472.91H435.505V474.545H439.345ZM435.505 477.59V480.485H434.71V472.19H440.14V479.255C440.14 480.005 439.76 480.38 439 480.38H437.725L437.53 479.615L438.745 479.66C439.145 479.66 439.345 479.47 439.345 479.09V477.59H435.505ZM442.945 473.195C442.105 473.195 441.685 472.755 441.685 471.875V466.76H442.48V468.905C444.22 468.635 445.63 468.35 446.71 468.05L446.98 468.785C445.74 469.105 444.24 469.395 442.48 469.655V471.71C442.48 472.2 442.715 472.445 443.185 472.445H445.285C445.605 472.445 445.84 472.37 445.99 472.22C446.16 472.02 446.275 471.425 446.335 470.435L447.1 470.69C447.01 471.85 446.83 472.575 446.56 472.865C446.31 473.085 445.935 473.195 445.435 473.195H442.945ZM442.525 478.85C442.525 479.29 442.74 479.51 443.17 479.51H445.24C445.58 479.51 445.82 479.43 445.96 479.27C446.14 479.06 446.26 478.45 446.32 477.44L447.07 477.68C446.98 478.87 446.8 479.61 446.53 479.9C446.28 480.12 445.905 480.23 445.405 480.23H442.93C442.13 480.23 441.73 479.83 441.73 479.03V473.885H442.525V475.865C444.105 475.695 445.5 475.425 446.71 475.055L446.98 475.805C445.56 476.205 444.075 476.47 442.525 476.6V478.85ZM438.97 467.84C439.92 469.09 440.635 470.17 441.115 471.08L440.455 471.545C440.165 471.005 439.975 470.665 439.885 470.525C438.235 470.785 436.29 470.975 434.05 471.095L433.825 470.39C433.955 470.35 434.08 470.28 434.2 470.18C435.13 469.27 435.945 468.145 436.645 466.805L437.425 467.03C436.675 468.46 435.86 469.565 434.98 470.345C436.3 470.285 437.81 470.145 439.51 469.925C439.08 469.275 438.69 468.715 438.34 468.245L438.97 467.84ZM448.72 470.855H450.61V466.835H451.42V470.855H453.175V471.665H451.42V476.93C452.14 476.66 452.845 476.36 453.535 476.03V476.825C452.045 477.545 450.455 478.125 448.765 478.565L448.555 477.755C449.185 477.625 449.87 477.44 450.61 477.2V471.665H448.72V470.855ZM453.745 468.35H457.315C457.155 467.79 456.975 467.295 456.775 466.865L457.645 466.715C457.835 467.255 457.995 467.8 458.125 468.35H461.68V469.13H453.745V468.35ZM453.34 472.52H455.905C455.605 471.69 455.22 470.9 454.75 470.15L455.5 469.88C455.94 470.64 456.335 471.52 456.685 472.52H458.905C459.315 471.72 459.7 470.785 460.06 469.715L460.825 469.985C460.475 470.955 460.095 471.8 459.685 472.52H461.995V473.3H453.34V472.52ZM461.05 474.905V480.395H460.27V479.495H455.29V480.395H454.51V474.905H461.05ZM455.29 478.715H460.27V475.67H455.29V478.715ZM472.705 467.825H473.5V479.48H472.705V467.825ZM475.855 467.075H476.65V480.485H475.855V467.075ZM469.705 467.12H470.5V473.69C470.47 476.8 469.775 479.09 468.415 480.56L467.8 480.02C469.04 478.71 469.675 476.6 469.705 473.69V467.12ZM465.31 466.94C466.33 467.72 467.205 468.515 467.935 469.325L467.38 469.895C466.69 469.115 465.805 468.315 464.725 467.495L465.31 466.94ZM463.705 471.455H466.78V478.175C467.32 477.675 467.82 477.18 468.28 476.69L468.49 477.545C467.74 478.355 466.92 479.09 466.03 479.75L465.715 479.03C465.915 478.85 466.015 478.655 466.015 478.445V472.25H463.705V471.455Z" fill="#869BB9"/>
</g>
<defs>
<linearGradient id="paint0_linear_1616_8605" x1="720.5" y1="148" x2="720.5" y2="395" gradientUnits="userSpaceOnUse">
<stop stop-color="white" stop-opacity="0"/>
<stop offset="0.279598" stop-color="#1561FF"/>
<stop offset="0.730515" stop-color="#1561FF"/>
<stop offset="1" stop-color="white" stop-opacity="0"/>
</linearGradient>
<linearGradient id="paint1_linear_1616_8605" x1="720.5" y1="-32" x2="720.5" y2="575" gradientUnits="userSpaceOnUse">
<stop stop-color="white" stop-opacity="0"/>
<stop offset="0.279598" stop-color="#1561FF"/>
<stop offset="0.730515" stop-color="#1561FF"/>
<stop offset="1" stop-color="white" stop-opacity="0"/>
</linearGradient>
<linearGradient id="paint2_linear_1616_8605" x1="720.5" y1="-155" x2="720.5" y2="698" gradientUnits="userSpaceOnUse">
<stop stop-color="white" stop-opacity="0"/>
<stop offset="0.279598" stop-color="#1561FF"/>
<stop offset="0.730515" stop-color="#1561FF"/>
<stop offset="1" stop-color="white" stop-opacity="0"/>
</linearGradient>
<linearGradient id="paint3_linear_1616_8605" x1="720.5" y1="-287" x2="720.5" y2="830" gradientUnits="userSpaceOnUse">
<stop stop-color="white" stop-opacity="0"/>
<stop offset="0.279598" stop-color="#1561FF"/>
<stop offset="0.730515" stop-color="#1561FF"/>
<stop offset="1" stop-color="white" stop-opacity="0"/>
</linearGradient>
<clipPath id="clip0_1616_8605">
<rect width="1440" height="544" fill="white"/>
</clipPath>
</defs>
</svg>
