<svg width="1440" height="544" viewBox="0 0 1440 544" fill="none" xmlns="http://www.w3.org/2000/svg">
<g clip-path="url(#clip0_1616_9073)">
<rect width="1440" height="544" fill="#FBFBFD"/>
<circle opacity="0.36" cx="720.5" cy="271.5" r="123.5" stroke="url(#paint0_linear_1616_9073)" stroke-linecap="round" stroke-linejoin="round" stroke-dasharray="2 4"/>
<circle opacity="0.24" cx="720.5" cy="271.5" r="303.5" stroke="url(#paint1_linear_1616_9073)" stroke-linecap="round" stroke-linejoin="round" stroke-dasharray="2 4"/>
<circle opacity="0.24" cx="720.5" cy="271.5" r="426.5" stroke="url(#paint2_linear_1616_9073)" stroke-linecap="round" stroke-linejoin="round" stroke-dasharray="2 4"/>
<circle opacity="0.2" cx="990" cy="132" r="8" fill="#0555FF"/>
<path d="M1011.93 129.215C1011.52 129.845 1011.05 130.39 1010.53 130.85L1009.72 130.115C1010.72 129.225 1011.46 128.115 1011.94 126.785L1012.93 127.055C1012.76 127.525 1012.61 127.915 1012.47 128.225H1018.45V129.215H1015.2V130.055C1015.18 130.545 1015.14 130.965 1015.09 131.315H1019.34V132.335H1014.87C1014.67 133.015 1014.36 133.64 1013.95 134.21C1013.19 135.16 1011.96 135.905 1010.25 136.445L1009.66 135.53C1011.31 135.02 1012.48 134.34 1013.17 133.49C1013.44 133.09 1013.64 132.705 1013.77 132.335H1009.72V131.315H1014.03C1014.1 130.865 1014.14 130.445 1014.15 130.055V129.215H1011.93ZM1015.3 133.07C1016.74 133.72 1018.09 134.535 1019.35 135.515L1018.75 136.415C1017.49 135.365 1016.16 134.515 1014.76 133.865L1015.3 133.07ZM1007.68 125.27H1019.55V126.29H1008.72V136.94H1020.03V137.99H1007.68V125.27ZM1034.97 126.095V129.14H1033.93V127.115H1028.08V129.14H1027.03V126.095H1030.44C1030.27 125.625 1030.09 125.21 1029.9 124.85L1031.01 124.67C1031.2 125.12 1031.37 125.595 1031.53 126.095H1034.97ZM1028.14 128.945H1033.87V129.92H1028.14V128.945ZM1027.03 131.615H1035.13V132.635H1032.64V136.7C1032.64 137.1 1032.79 137.3 1033.08 137.3H1033.71C1033.89 137.3 1034.03 137.25 1034.13 137.15C1034.29 137.02 1034.39 136.365 1034.44 135.185L1035.43 135.515C1035.34 136.835 1035.19 137.635 1034.97 137.915C1034.76 138.135 1034.41 138.255 1033.93 138.275H1032.75C1032.37 138.275 1032.08 138.15 1031.88 137.9C1031.67 137.64 1031.56 137.325 1031.56 136.955V132.635H1030.17C1030.05 134.235 1029.79 135.405 1029.39 136.145C1028.88 137.045 1028.04 137.81 1026.87 138.44L1026.19 137.555C1027.22 137.005 1027.96 136.375 1028.41 135.665C1028.79 134.995 1029.03 133.985 1029.12 132.635H1027.03V131.615ZM1022.17 125.345H1026.51V126.185C1026.11 127.525 1025.63 128.94 1025.07 130.43C1025.92 131.77 1026.37 132.96 1026.43 134C1026.41 134.68 1026.26 135.17 1025.98 135.47C1025.58 135.82 1024.88 136.005 1023.87 136.025L1023.51 134.93C1023.83 134.97 1024.03 134.99 1024.11 134.99C1024.6 134.96 1024.94 134.875 1025.13 134.735C1025.3 134.585 1025.38 134.34 1025.38 134C1025.38 133 1024.92 131.865 1024 130.595C1024.61 129.055 1025.09 127.64 1025.44 126.35H1023.22V138.515H1022.17V125.345ZM1046.71 138.38L1046.44 137.375L1047.78 137.405C1048.22 137.405 1048.44 137.12 1048.44 136.55V126.515H1042.68V125.525H1049.49V136.85C1049.49 137.87 1048.99 138.38 1048 138.38H1046.71ZM1037.49 127.235H1038.54V138.515H1037.49V127.235ZM1039.66 124.61C1040.39 125.48 1041.01 126.385 1041.52 127.325L1040.55 127.835C1039.96 126.755 1039.33 125.825 1038.67 125.045L1039.66 124.61ZM1062.16 129.02C1061.05 130.5 1059.42 131.56 1057.26 132.2L1056.84 131.27C1058.84 130.69 1060.35 129.74 1061.37 128.42L1062.16 129.02ZM1063.78 131.03C1062.43 132.83 1060.44 134.12 1057.8 134.9L1057.36 133.94C1059.84 133.22 1061.72 132.045 1062.99 130.415L1063.78 131.03ZM1065.42 132.935C1063.55 135.545 1060.77 137.42 1057.09 138.56L1056.63 137.525C1060.15 136.465 1062.79 134.72 1064.56 132.29L1065.42 132.935ZM1053.46 124.925C1054.47 125.685 1055.32 126.445 1056 127.205L1055.26 127.955C1054.61 127.215 1053.76 126.45 1052.71 125.66L1053.46 124.925ZM1051.63 129.335H1054.87V135.965C1055.27 135.615 1055.79 135.125 1056.42 134.495L1056.72 135.635C1055.88 136.475 1054.95 137.25 1053.93 137.96L1053.51 136.985C1053.73 136.765 1053.84 136.535 1053.84 136.295V130.37H1051.63V129.335ZM1061.14 124.73C1062.43 126.68 1063.92 128.21 1065.6 129.32L1065.07 130.25C1063.38 129.11 1061.94 127.635 1060.75 125.825C1059.63 127.575 1058.17 129.08 1056.36 130.34L1055.83 129.41C1057.65 128.14 1059.16 126.58 1060.36 124.73H1061.14Z" fill="#869BB9"/>
<circle cx="990" cy="132" r="4" fill="#0555FF"/>
<circle opacity="0.2" cx="1129" cy="395" r="8" fill="#0555FF"/>
<path d="M1150.93 392.215C1150.52 392.845 1150.05 393.39 1149.53 393.85L1148.72 393.115C1149.72 392.225 1150.46 391.115 1150.94 389.785L1151.93 390.055C1151.76 390.525 1151.61 390.915 1151.47 391.225H1157.45V392.215H1154.2V393.055C1154.18 393.545 1154.14 393.965 1154.09 394.315H1158.34V395.335H1153.87C1153.67 396.015 1153.36 396.64 1152.95 397.21C1152.19 398.16 1150.96 398.905 1149.25 399.445L1148.66 398.53C1150.31 398.02 1151.48 397.34 1152.17 396.49C1152.44 396.09 1152.64 395.705 1152.77 395.335H1148.72V394.315H1153.03C1153.1 393.865 1153.14 393.445 1153.15 393.055V392.215H1150.93ZM1154.3 396.07C1155.74 396.72 1157.09 397.535 1158.35 398.515L1157.75 399.415C1156.49 398.365 1155.16 397.515 1153.76 396.865L1154.3 396.07ZM1146.68 388.27H1158.55V389.29H1147.72V399.94H1159.03V400.99H1146.68V388.27ZM1173.83 390.79V394.15H1172.77V391.825H1162.22V394.15H1161.17V390.79H1169.77C1170.42 389.84 1170.99 388.795 1171.48 387.655L1172.57 388.06C1172.05 389.13 1171.51 390.04 1170.94 390.79H1173.83ZM1163.47 393.1H1171.55V394.06C1170.53 394.71 1169.43 395.325 1168.24 395.905V396.67H1173.95V397.69H1168.24V400.225C1168.24 401.035 1167.81 401.44 1166.95 401.44H1165.06L1164.8 400.45C1165.52 400.47 1166.11 400.48 1166.57 400.48C1166.95 400.48 1167.14 400.27 1167.14 399.85V397.69H1161.07V396.67H1167.14V395.425C1168.4 394.875 1169.36 394.42 1170.01 394.06H1163.47V393.1ZM1163.3 387.88C1163.89 388.67 1164.41 389.455 1164.85 390.235L1163.92 390.7C1163.4 389.81 1162.87 389.03 1162.33 388.36L1163.3 387.88ZM1166.93 387.595C1167.45 388.375 1167.93 389.2 1168.36 390.07L1167.4 390.55C1166.95 389.62 1166.47 388.795 1165.96 388.075L1166.93 387.595ZM1175.69 391.735H1177.48V387.805H1178.56V391.735H1180.21V392.785H1178.56V397.735C1179.18 397.505 1179.84 397.225 1180.54 396.895V397.975C1179.06 398.665 1177.48 399.235 1175.8 399.685L1175.53 398.605C1176.29 398.435 1176.94 398.265 1177.48 398.095V392.785H1175.69V391.735ZM1180.75 389.23H1184.2C1184.06 388.75 1183.89 388.295 1183.7 387.865L1184.83 387.685C1184.99 388.165 1185.13 388.68 1185.26 389.23H1188.73V390.25H1180.75V389.23ZM1180.34 393.37H1182.76C1182.45 392.57 1182.1 391.85 1181.71 391.21L1182.68 390.85C1183.09 391.58 1183.46 392.42 1183.78 393.37H1185.85C1186.26 392.57 1186.62 391.685 1186.94 390.715L1187.93 391.06C1187.61 391.96 1187.27 392.73 1186.9 393.37H1189.04V394.42H1180.34V393.37ZM1188.16 395.785V401.44H1187.12V400.6H1182.47V401.44H1181.44V395.785H1188.16ZM1182.47 399.58H1187.12V396.805H1182.47V399.58ZM1199.57 388.78H1200.61V400.51H1199.57V388.78ZM1202.71 388.045H1203.77V401.53H1202.71V388.045ZM1196.59 388.09H1197.62V394.69C1197.59 397.83 1196.91 400.13 1195.57 401.59L1194.76 400.87C1195.95 399.59 1196.56 397.53 1196.59 394.69V388.09ZM1192.43 387.895C1193.46 388.665 1194.32 389.435 1195 390.205L1194.26 390.955C1193.64 390.225 1192.78 389.45 1191.68 388.63L1192.43 387.895ZM1190.68 392.335H1193.92V398.77C1194.34 398.38 1194.77 397.945 1195.22 397.465L1195.51 398.59C1194.7 399.44 1193.85 400.19 1192.97 400.84L1192.55 399.88C1192.77 399.68 1192.88 399.455 1192.88 399.205V393.37H1190.68V392.335Z" fill="#869BB9"/>
<circle cx="1129" cy="395" r="4" fill="#0555FF"/>
<circle opacity="0.2" cx="295" cy="246" r="8" fill="#0555FF"/>
<path d="M220.92 238.985C221.97 239.795 222.82 240.57 223.47 241.31L222.69 242.075C222.1 241.355 221.265 240.56 220.185 239.69L220.92 238.985ZM229.635 252.23C229.135 252.23 228.255 252.22 226.995 252.2C226.045 252.19 225.27 252.1 224.67 251.93C224.1 251.75 223.575 251.385 223.095 250.835C222.905 250.585 222.715 250.46 222.525 250.46C222.175 250.46 221.585 251.15 220.755 252.53L219.945 251.795C220.745 250.535 221.45 249.77 222.06 249.5V244.94H219.915V243.95H223.065V249.56C223.175 249.64 223.295 249.755 223.425 249.905C223.795 250.345 224.18 250.66 224.58 250.85C225.03 251.06 225.695 251.18 226.575 251.21C227.615 251.23 228.585 251.24 229.485 251.24C229.945 251.24 230.665 251.23 231.645 251.21C232.465 251.19 233.025 251.17 233.325 251.15L233.07 252.23H229.635ZM224.1 240.29H226.515C226.765 239.66 226.965 239.11 227.115 238.64L228.15 238.88C227.97 239.42 227.8 239.89 227.64 240.29H232.905V241.295H227.22C226.78 242.275 226.28 243.17 225.72 243.98H228.135V242.195H229.17V243.98H232.44V244.97H229.17V246.755H233.1V247.775H229.17V250.565H228.135V247.775H223.98V246.755H228.135V244.97H224.67L224.43 243.98C225.04 243.25 225.59 242.355 226.08 241.295H224.1V240.29ZM243.78 238.7H244.845V242.78H247.725V249.23H246.675V243.74H241.92V249.29H240.87V242.78H243.78V238.7ZM248.115 239.465C247.745 240.415 247.265 241.32 246.675 242.18L245.775 241.7C246.355 240.83 246.83 239.94 247.2 239.03L248.115 239.465ZM241.485 239.195C241.955 239.945 242.405 240.78 242.835 241.7L241.95 242.15C241.49 241.2 241.025 240.365 240.555 239.645L241.485 239.195ZM243.705 244.595H244.77V246.245C244.73 247.925 244.39 249.27 243.75 250.28C243.11 251.23 242.085 251.96 240.675 252.47L240.09 251.555C241.43 251.065 242.37 250.405 242.91 249.575C243.41 248.715 243.675 247.605 243.705 246.245V244.595ZM245.19 249.185C246.35 249.825 247.45 250.64 248.49 251.63L247.89 252.56C246.84 251.48 245.76 250.625 244.65 249.995L245.19 249.185ZM237.495 238.985C237.415 239.325 237.285 239.815 237.105 240.455H239.775V241.475H236.76C236.39 242.495 235.955 243.425 235.455 244.265L234.57 243.71C235.44 242.23 236.07 240.585 236.46 238.775L237.495 238.985ZM236.07 243.47H239.475V244.445H238.005V246.305H239.955V247.31H238.005V250.805C238.615 250.575 239.275 250.24 239.985 249.8L240.165 250.76C239.255 251.3 238.195 251.75 236.985 252.11L236.55 251.18C236.83 251.06 236.97 250.895 236.97 250.685V247.31H235.005V246.305H236.97V244.445H236.07V243.47ZM249.9 239.99H253.455V238.73H254.535V239.99H258.465V238.73H259.545V239.99H263.1V240.98H259.545V242.165H258.465V240.98H254.535V242.18H253.455V240.98H249.9V239.99ZM255.81 251.255C254.29 251.725 252.5 252.105 250.44 252.395L250.305 251.375C252.365 251.115 254.2 250.75 255.81 250.28V251.255ZM253.605 242.405C252.865 243.725 252.125 244.795 251.385 245.615C252.105 245.535 252.82 245.445 253.53 245.345C254.05 244.585 254.405 244.05 254.595 243.74L255.57 244.1C254.12 246.25 252.905 247.785 251.925 248.705C252.965 248.535 254.085 248.275 255.285 247.925V248.855C253.725 249.285 252.195 249.59 250.695 249.77L250.41 248.825C250.6 248.745 250.76 248.64 250.89 248.51C251.43 248.05 252.09 247.305 252.87 246.275L250.26 246.62L250.035 245.75C250.185 245.69 250.32 245.57 250.44 245.39C251.31 244.38 252.05 243.265 252.66 242.045L253.605 242.405ZM257.835 246.605C258.695 247.585 259.37 248.45 259.86 249.2L259.065 249.755C258.575 248.955 257.9 248.07 257.04 247.1L257.835 246.605ZM258.51 242.315C258.38 242.835 258.245 243.305 258.105 243.725H262.53C262.53 247.655 262.435 250.11 262.245 251.09C262.065 252.03 261.28 252.5 259.89 252.5C259.54 252.5 258.945 252.485 258.105 252.455L257.88 251.495C258.82 251.535 259.435 251.555 259.725 251.555C260.565 251.555 261.06 251.265 261.21 250.685C261.38 250.055 261.47 248.06 261.48 244.7H257.685C257.195 245.72 256.565 246.62 255.795 247.4L255.18 246.605C256.31 245.415 257.08 243.95 257.49 242.21L258.51 242.315ZM271.845 241.895H272.94V243.68H277.89V244.7H272.94V246.89H276.885V252.485H275.82V251.735H269.49V252.485H268.425V246.89H271.845V241.895ZM269.49 250.715H275.82V247.895H269.49V250.715ZM271.935 238.67C272.155 239.08 272.395 239.595 272.655 240.215H278.175V241.265H267.12V244.55C267.07 247.83 266.525 250.455 265.485 252.425L264.675 251.705C265.565 249.985 266.025 247.6 266.055 244.55V240.215H271.56C271.35 239.765 271.1 239.31 270.81 238.85L271.935 238.67Z" fill="#869BB9"/>
<circle cx="295" cy="246" r="4" fill="#0555FF"/>
<circle opacity="0.15" cx="720.5" cy="271.5" r="558.5" stroke="url(#paint3_linear_1616_9073)" stroke-linecap="round" stroke-linejoin="round" stroke-dasharray="2 4"/>
</g>
<defs>
<linearGradient id="paint0_linear_1616_9073" x1="720.5" y1="148" x2="720.5" y2="395" gradientUnits="userSpaceOnUse">
<stop stop-color="white" stop-opacity="0"/>
<stop offset="0.279598" stop-color="#1561FF"/>
<stop offset="0.730515" stop-color="#1561FF"/>
<stop offset="1" stop-color="white" stop-opacity="0"/>
</linearGradient>
<linearGradient id="paint1_linear_1616_9073" x1="720.5" y1="-32" x2="720.5" y2="575" gradientUnits="userSpaceOnUse">
<stop stop-color="white" stop-opacity="0"/>
<stop offset="0.279598" stop-color="#1561FF"/>
<stop offset="0.730515" stop-color="#1561FF"/>
<stop offset="1" stop-color="white" stop-opacity="0"/>
</linearGradient>
<linearGradient id="paint2_linear_1616_9073" x1="720.5" y1="-155" x2="720.5" y2="698" gradientUnits="userSpaceOnUse">
<stop stop-color="white" stop-opacity="0"/>
<stop offset="0.279598" stop-color="#1561FF"/>
<stop offset="0.730515" stop-color="#1561FF"/>
<stop offset="1" stop-color="white" stop-opacity="0"/>
</linearGradient>
<linearGradient id="paint3_linear_1616_9073" x1="720.5" y1="-287" x2="720.5" y2="830" gradientUnits="userSpaceOnUse">
<stop stop-color="white" stop-opacity="0"/>
<stop offset="0.279598" stop-color="#1561FF"/>
<stop offset="0.730515" stop-color="#1561FF"/>
<stop offset="1" stop-color="white" stop-opacity="0"/>
</linearGradient>
<clipPath id="clip0_1616_9073">
<rect width="1440" height="544" fill="white"/>
</clipPath>
</defs>
</svg>
