<svg width="1440" height="544" viewBox="0 0 1440 544" fill="none" xmlns="http://www.w3.org/2000/svg">
<g clip-path="url(#clip0_1616_9517)">
<rect width="1440" height="544" fill="#FBFBFD"/>
<circle opacity="0.36" cx="720.5" cy="271.5" r="123.5" stroke="url(#paint0_linear_1616_9517)" stroke-linecap="round" stroke-linejoin="round" stroke-dasharray="2 4"/>
<circle opacity="0.24" cx="720.5" cy="271.5" r="303.5" stroke="url(#paint1_linear_1616_9517)" stroke-linecap="round" stroke-linejoin="round" stroke-dasharray="2 4"/>
<circle opacity="0.24" cx="720.5" cy="271.5" r="426.5" stroke="url(#paint2_linear_1616_9517)" stroke-linecap="round" stroke-linejoin="round" stroke-dasharray="2 4"/>
<circle opacity="0.2" cx="1146" cy="241" r="8" fill="#0555FF"/>
<path d="M1163.11 235.215H1169.37V236.01H1166.95V239.505H1168.81V240.285H1166.95V244.455C1167.79 244.215 1168.59 243.96 1169.34 243.69V244.44C1167.55 245.08 1165.41 245.68 1162.92 246.24L1162.71 245.475L1163.73 245.25V238.155H1164.49V245.085L1166.17 244.665V236.01H1163.11V235.215ZM1170.39 239.28C1170.06 240.01 1169.65 240.75 1169.16 241.5L1168.68 240.885C1169.89 238.935 1170.7 236.555 1171.12 233.745L1171.93 233.835C1171.79 234.725 1171.62 235.545 1171.42 236.295H1176.18V237.09H1174.93C1174.87 239.72 1174.28 241.895 1173.15 243.615C1174.07 244.965 1175.18 246.02 1176.49 246.78L1176.01 247.47C1174.7 246.71 1173.59 245.645 1172.67 244.275C1171.61 245.615 1170.23 246.67 1168.53 247.44L1168.02 246.78C1169.84 245.99 1171.24 244.92 1172.22 243.57C1171.47 242.32 1170.86 240.89 1170.39 239.28ZM1172.68 242.88C1173.63 241.28 1174.12 239.35 1174.15 237.09H1171.2C1171.1 237.42 1170.97 237.81 1170.81 238.26C1171.3 240.07 1171.92 241.61 1172.68 242.88ZM1183.14 233.85C1182.97 234.25 1182.75 234.665 1182.49 235.095H1189.14V235.755C1188.14 236.915 1186.91 237.895 1185.45 238.695C1187.19 239.475 1189.15 239.985 1191.33 240.225L1190.97 240.99C1188.58 240.71 1186.44 240.095 1184.56 239.145C1182.71 239.995 1180.54 240.615 1178.05 241.005L1177.68 240.255C1179.98 239.935 1181.99 239.41 1183.71 238.68C1182.76 238.11 1181.89 237.475 1181.1 236.775C1180.49 237.345 1179.81 237.845 1179.07 238.275L1178.58 237.63C1180.42 236.58 1181.66 235.28 1182.31 233.73L1183.14 233.85ZM1184.57 238.275C1185.9 237.605 1187.03 236.8 1187.98 235.86H1181.94C1181.8 236.02 1181.7 236.14 1181.64 236.22C1182.51 237.01 1183.49 237.695 1184.57 238.275ZM1184.56 240.345C1184.56 240.965 1184.51 241.575 1184.4 242.175H1189.74C1189.71 244.655 1189.48 246.13 1189.05 246.6C1188.61 247.09 1187.85 247.335 1186.77 247.335C1186.32 247.335 1185.77 247.32 1185.12 247.29L1184.91 246.54C1185.81 246.58 1186.37 246.6 1186.59 246.6C1187.59 246.58 1188.21 246.38 1188.46 246C1188.71 245.6 1188.87 244.57 1188.93 242.91H1184.22C1184.06 243.39 1183.88 243.8 1183.69 244.14C1182.89 245.49 1181.13 246.6 1178.41 247.47L1177.87 246.825C1180.33 246.095 1181.98 245.155 1182.82 244.005C1183.01 243.695 1183.19 243.33 1183.35 242.91H1178.71V242.175H1183.57C1183.7 241.555 1183.77 240.945 1183.77 240.345H1184.56ZM1194.61 238.755V241.485H1197.28V238.755H1194.61ZM1197.28 238.02V235.26H1194.61V238.02H1197.28ZM1194.6 242.25C1194.53 244.36 1194.19 246.105 1193.58 247.485L1192.95 246.93C1193.56 245.51 1193.87 243.73 1193.88 241.59V234.495H1198.05V246.165C1198.05 247.005 1197.66 247.425 1196.88 247.425H1195.68L1195.48 246.705C1196.04 246.725 1196.43 246.735 1196.64 246.735C1197.07 246.735 1197.28 246.455 1197.28 245.895V242.25H1194.6ZM1200.24 240.765V247.47H1199.47V234.495H1205.38C1205.38 236.265 1205.29 237.445 1205.11 238.035C1204.95 238.635 1204.39 238.935 1203.43 238.935H1202.28L1202.05 238.23H1203.06C1203.45 238.23 1203.74 238.2 1203.93 238.14C1204.12 238.08 1204.26 237.93 1204.36 237.69C1204.49 237.28 1204.56 236.465 1204.57 235.245H1200.24V240.03H1205.38V240.72C1205.06 242.35 1204.53 243.715 1203.79 244.815C1204.51 245.535 1205.37 246.175 1206.37 246.735L1205.98 247.41C1204.92 246.8 1204.04 246.14 1203.34 245.43C1202.67 246.25 1201.86 246.915 1200.91 247.425L1200.49 246.78C1201.42 246.25 1202.19 245.61 1202.8 244.86C1201.78 243.66 1201.09 242.295 1200.73 240.765H1200.24ZM1201.44 240.765C1201.77 242.055 1202.37 243.215 1203.25 244.245C1203.89 243.255 1204.36 242.095 1204.65 240.765H1201.44ZM1213.14 233.85C1212.97 234.25 1212.75 234.665 1212.49 235.095H1219.14V235.755C1218.14 236.915 1216.91 237.895 1215.45 238.695C1217.19 239.475 1219.15 239.985 1221.33 240.225L1220.97 240.99C1218.58 240.71 1216.44 240.095 1214.56 239.145C1212.71 239.995 1210.54 240.615 1208.05 241.005L1207.68 240.255C1209.98 239.935 1211.99 239.41 1213.71 238.68C1212.76 238.11 1211.89 237.475 1211.1 236.775C1210.49 237.345 1209.81 237.845 1209.07 238.275L1208.58 237.63C1210.42 236.58 1211.66 235.28 1212.31 233.73L1213.14 233.85ZM1214.57 238.275C1215.9 237.605 1217.03 236.8 1217.98 235.86H1211.94C1211.8 236.02 1211.7 236.14 1211.64 236.22C1212.51 237.01 1213.49 237.695 1214.57 238.275ZM1214.56 240.345C1214.56 240.965 1214.51 241.575 1214.4 242.175H1219.74C1219.71 244.655 1219.48 246.13 1219.05 246.6C1218.61 247.09 1217.85 247.335 1216.77 247.335C1216.32 247.335 1215.77 247.32 1215.12 247.29L1214.91 246.54C1215.81 246.58 1216.37 246.6 1216.59 246.6C1217.59 246.58 1218.21 246.38 1218.46 246C1218.71 245.6 1218.87 244.57 1218.93 242.91H1214.22C1214.06 243.39 1213.88 243.8 1213.69 244.14C1212.89 245.49 1211.13 246.6 1208.41 247.47L1207.87 246.825C1210.33 246.095 1211.98 245.155 1212.82 244.005C1213.01 243.695 1213.19 243.33 1213.35 242.91H1208.71V242.175H1213.57C1213.7 241.555 1213.77 240.945 1213.77 240.345H1214.56Z" fill="#869BB9"/>
<circle cx="1146" cy="241" r="4" fill="#0555FF"/>
<circle opacity="0.2" cx="456" cy="122" r="8" fill="#0555FF"/>
<path d="M383.465 114.97C383.345 115.44 383.195 115.975 383.015 116.575H386.06V117.34H382.745C382.305 118.49 381.83 119.475 381.32 120.295L380.645 119.86C381.565 118.37 382.245 116.685 382.685 114.805L383.465 114.97ZM382.16 119.47H385.715V120.22H384.05V122.425H386.21V123.19H384.05V127.075C384.64 126.885 385.245 126.615 385.865 126.265L386.015 126.985C385.235 127.405 384.295 127.77 383.195 128.08L382.88 127.39C383.14 127.31 383.27 127.195 383.27 127.045V123.19H381.005V122.425H383.27V120.22H382.16V119.47ZM387.785 118.885V120.85H392.42V118.885H387.785ZM392.42 118.165V116.185H387.785V118.165H392.42ZM394.13 123.085C393.41 123.925 392.595 124.555 391.685 124.975C392.345 126.025 393.225 126.915 394.325 127.645L393.905 128.335C391.565 126.715 390.155 124.465 389.675 121.585H387.785V127.255C388.705 127.025 389.65 126.7 390.62 126.28L390.8 127.015C389.71 127.455 388.41 127.865 386.9 128.245L386.72 127.555C386.92 127.495 387.02 127.4 387.02 127.27V115.435H393.17V121.585H390.41C390.59 122.595 390.895 123.515 391.325 124.345C392.145 123.955 392.9 123.36 393.59 122.56L394.13 123.085ZM401.42 115.84H408.5V116.635H401.42V115.84ZM400.985 119.695H409.19V120.49H406.7V127.015C406.7 127.935 406.235 128.395 405.305 128.395H403.13L402.95 127.615C403.91 127.655 404.6 127.675 405.02 127.675C405.59 127.675 405.875 127.39 405.875 126.82V120.49H400.985V119.695ZM399.935 115.27C399.075 116.96 397.735 118.425 395.915 119.665L395.66 118.855C397.31 117.695 398.49 116.385 399.2 114.925L399.935 115.27ZM400.64 118.69C400.17 119.6 399.595 120.44 398.915 121.21V128.47H398.12V122.035C397.42 122.665 396.71 123.23 395.99 123.73L395.735 122.92C397.675 121.56 399.07 120.035 399.92 118.345L400.64 118.69ZM420.08 116.38H415.775V115.585H424.115V116.38H420.905V120.865H423.92V121.63H420.905V127.15H424.43V127.945H415.325V127.15H416.915V119.035H417.71V127.15H420.08V116.38ZM412.355 114.955C413.335 115.715 414.18 116.505 414.89 117.325L414.335 117.895C413.665 117.095 412.815 116.295 411.785 115.495L412.355 114.955ZM410.69 119.455H413.735V126.205C414.335 125.705 414.92 125.17 415.49 124.6L415.7 125.455C414.84 126.315 413.945 127.065 413.015 127.705L412.7 126.955C412.88 126.785 412.97 126.615 412.97 126.445V120.25H410.69V119.455ZM428.66 123.655V122.89H436.415C436.365 124.28 436.285 125.37 436.175 126.16C436.055 126.96 435.85 127.53 435.56 127.87C435.26 128.18 434.805 128.35 434.195 128.38H432.08L431.87 127.6C432.55 127.63 433.195 127.645 433.805 127.645C434.505 127.645 434.96 127.4 435.17 126.91C435.41 126.4 435.56 125.315 435.62 123.655H431.705C431.405 124.815 430.985 125.74 430.445 126.43C429.785 127.19 428.82 127.87 427.55 128.47L427.04 127.825C428.23 127.295 429.125 126.715 429.725 126.085C430.275 125.455 430.685 124.645 430.955 123.655H428.66ZM428.915 114.775C429.325 115.385 429.7 116.065 430.04 116.815L429.365 117.115C428.995 116.305 428.605 115.605 428.195 115.015L428.915 114.775ZM436.94 114.925C436.59 115.785 436.155 116.525 435.635 117.145L435.035 116.8C435.515 116.2 435.915 115.49 436.235 114.67L436.94 114.925ZM426.905 117.28H431.69C431.97 116.47 432.185 115.585 432.335 114.625L433.145 114.715C432.995 115.625 432.785 116.48 432.515 117.28H438.095V118.015H432.245C431.965 118.705 431.65 119.33 431.3 119.89H438.905V120.64H435.395C436.175 121.78 437.495 122.8 439.355 123.7L438.83 124.345C436.79 123.225 435.37 121.99 434.57 120.64H430.79C429.61 122.23 428.045 123.48 426.095 124.39L425.645 123.7C427.365 122.95 428.755 121.93 429.815 120.64H426.095V119.89H430.37C430.79 119.27 431.135 118.645 431.405 118.015H426.905V117.28Z" fill="#869BB9"/>
<circle cx="456" cy="122" r="4" fill="#0555FF"/>
<circle opacity="0.2" cx="308" cy="383" r="8" fill="#0555FF"/>
<circle cx="308" cy="383" r="4" fill="#0555FF"/>
<path d="M236.785 376.075C236.415 377.195 235.955 378.26 235.405 379.27V389.5H234.58V380.635C234.08 381.395 233.47 382.155 232.75 382.915L232.495 382.06C234.135 380.17 235.31 378.055 236.02 375.715L236.785 376.075ZM237.835 376.495H244.795V381.04H241.72V382.9H246.115V383.71H242.605C243.535 385.35 244.79 386.75 246.37 387.91L245.86 388.6C244.29 387.33 242.99 385.7 241.96 383.71H241.72V389.47H240.91V383.71H240.655C239.615 385.81 238.29 387.45 236.68 388.63L236.23 387.91C237.78 386.85 239.035 385.45 239.995 383.71H236.635V382.9H240.91V381.04H237.835V376.495ZM243.985 380.245V377.275H238.645V380.245H243.985ZM248.395 376.51H252.61V377.14C252.14 378.61 251.61 380.065 251.02 381.505C251.96 382.805 252.465 384.015 252.535 385.135C252.515 385.715 252.36 386.13 252.07 386.38C251.67 386.7 250.985 386.86 250.015 386.86L249.76 386.05C249.94 386.08 250.085 386.095 250.195 386.095C250.805 386.065 251.215 385.975 251.425 385.825C251.625 385.685 251.725 385.455 251.725 385.135C251.725 384.085 251.215 382.915 250.195 381.625C250.855 380.085 251.39 378.63 251.8 377.26H249.205V389.47H248.395V376.51ZM254.53 380.215H259.135V380.965H254.53V380.215ZM252.37 388.105H257.605C258.355 386.495 259.02 384.47 259.6 382.03L260.395 382.24C259.855 384.43 259.195 386.385 258.415 388.105H261.19V388.885H252.37V388.105ZM253.945 382.615C254.485 383.845 254.97 385.285 255.4 386.935L254.695 387.115C254.315 385.615 253.835 384.195 253.255 382.855L253.945 382.615ZM256.33 382C256.76 383.17 257.16 384.57 257.53 386.2L256.825 386.38C256.505 384.91 256.11 383.53 255.64 382.24L256.33 382ZM257.17 375.865C258.01 377.815 259.455 379.535 261.505 381.025L261.055 381.7C259.145 380.35 257.725 378.675 256.795 376.675C255.695 378.835 254.295 380.505 252.595 381.685L252.175 381.04C254.025 379.69 255.44 377.965 256.42 375.865H257.17ZM263.23 376.975H265.975V375.76H266.785V376.975H272.2V375.76H273.01V376.975H275.755V377.68H273.01V382.87H275.995V383.59H272.665C273.425 384.62 274.605 385.42 276.205 385.99L275.875 386.695C273.975 385.895 272.645 384.86 271.885 383.59H267.085C266.325 384.86 265.045 385.915 263.245 386.755L262.84 386.08C264.44 385.42 265.595 384.59 266.305 383.59H262.99V382.87H265.975V377.68H263.23V376.975ZM266.785 382.87H272.2V381.565H266.785V382.87ZM266.785 380.89H272.2V379.645H266.785V380.89ZM266.785 378.985H272.2V377.68H266.785V378.985ZM269.095 384.235H269.905V385.54H273.025V386.275H269.905V388.18H275.125V388.945H263.77V388.18H269.095V386.275H265.945V385.54H269.095V384.235ZM280.615 380.05H288.415V380.785H284.92V383.215H290.365V383.98H284.92V388.255H286.795C287.345 387.275 287.83 386.175 288.25 384.955L288.985 385.24C288.575 386.4 288.12 387.405 287.62 388.255H290.89V389.035H278.125V388.255H281.38C281.02 387.205 280.58 386.235 280.06 385.345L280.795 385.075C281.315 385.955 281.775 387.015 282.175 388.255H284.11V383.98H278.65V383.215H284.11V380.785H280.615V380.05ZM284.845 375.94C286.305 377.76 288.44 379.27 291.25 380.47L290.8 381.145C288.2 380.035 286.105 378.56 284.515 376.72C282.755 378.58 280.65 380.065 278.2 381.175L277.75 380.515C280.35 379.335 282.495 377.81 284.185 375.94H284.845Z" fill="#869BB9"/>
<circle opacity="0.15" cx="720.5" cy="271.5" r="558.5" stroke="url(#paint3_linear_1616_9517)" stroke-linecap="round" stroke-linejoin="round" stroke-dasharray="2 4"/>
</g>
<defs>
<linearGradient id="paint0_linear_1616_9517" x1="720.5" y1="148" x2="720.5" y2="395" gradientUnits="userSpaceOnUse">
<stop stop-color="white" stop-opacity="0"/>
<stop offset="0.279598" stop-color="#1561FF"/>
<stop offset="0.730515" stop-color="#1561FF"/>
<stop offset="1" stop-color="white" stop-opacity="0"/>
</linearGradient>
<linearGradient id="paint1_linear_1616_9517" x1="720.5" y1="-32" x2="720.5" y2="575" gradientUnits="userSpaceOnUse">
<stop stop-color="white" stop-opacity="0"/>
<stop offset="0.279598" stop-color="#1561FF"/>
<stop offset="0.730515" stop-color="#1561FF"/>
<stop offset="1" stop-color="white" stop-opacity="0"/>
</linearGradient>
<linearGradient id="paint2_linear_1616_9517" x1="720.5" y1="-155" x2="720.5" y2="698" gradientUnits="userSpaceOnUse">
<stop stop-color="white" stop-opacity="0"/>
<stop offset="0.279598" stop-color="#1561FF"/>
<stop offset="0.730515" stop-color="#1561FF"/>
<stop offset="1" stop-color="white" stop-opacity="0"/>
</linearGradient>
<linearGradient id="paint3_linear_1616_9517" x1="720.5" y1="-287" x2="720.5" y2="830" gradientUnits="userSpaceOnUse">
<stop stop-color="white" stop-opacity="0"/>
<stop offset="0.279598" stop-color="#1561FF"/>
<stop offset="0.730515" stop-color="#1561FF"/>
<stop offset="1" stop-color="white" stop-opacity="0"/>
</linearGradient>
<clipPath id="clip0_1616_9517">
<rect width="1440" height="544" fill="white"/>
</clipPath>
</defs>
</svg>
