<svg width="64" height="64" viewBox="0 0 64 64" fill="none" xmlns="http://www.w3.org/2000/svg">
<rect x="4" y="4" width="36" height="36" rx="4" fill="url(#paint0_linear_1616_6563)"/>
<rect x="4.25" y="4.25" width="35.5" height="35.5" rx="3.75" stroke="white" stroke-opacity="0.5" stroke-width="0.5"/>
<g filter="url(#filter0_b_1616_6563)">
<rect x="12" y="12" width="48" height="48" rx="4" fill="url(#paint1_linear_1616_6563)" fill-opacity="0.3"/>
<rect x="12.25" y="12.25" width="47.5" height="47.5" rx="3.75" stroke="#C7FFE7" stroke-opacity="0.5" stroke-width="0.5"/>
</g>
<g filter="url(#filter1_d_1616_6563)">
<path d="M46.002 42.4365C46.3585 42.7348 46.5723 43.1077 46.7149 43.5553C46.7861 43.9282 46.8574 44.2265 46.9287 44.5994C47 45.047 47 44.674 47 45.1215C47 45.4945 47 45.942 46.9287 46.3149C46.9287 46.6133 46.7861 46.9116 46.7149 47.2099C46.501 47.3591 46.2872 47.5083 46.002 47.5829C42.7943 48.5525 39.444 49 36.0224 49C32.6008 49 29.1792 48.6271 25.7576 47.9558C25.3299 47.8812 24.9022 47.732 24.4745 47.5083C24.1894 47.1354 24.0468 46.6878 24.0468 46.2403C23.9755 45.5691 23.9755 44.8232 24.1181 44.1519C24.1894 43.5553 24.4745 43.0332 24.8309 42.6602C25.2586 42.2873 25.6863 42.0635 26.1853 41.8398C26.6843 41.616 29.1792 40.721 29.7495 40.5718C30.2485 40.4227 30.7474 40.1989 31.2464 39.9006C31.5316 39.7514 31.8167 39.5276 32.0305 39.2293C32.1731 39.0055 32.3157 38.8564 32.4582 38.558C32.5295 38.3343 32.6008 38.1105 32.6008 37.8867V37.1409C32.6008 36.768 32.4582 36.395 32.2444 36.1713L31.5316 35.4254C31.389 35.2762 31.2464 35.1271 31.1751 34.9033C31.1039 34.6796 30.9613 34.4558 30.89 34.232L30.6762 33.2624C30.5336 33.1878 30.4623 33.1878 30.3197 33.1133C30.1772 32.9641 30.1059 32.8895 30.0346 32.7403C29.892 32.5166 29.8208 32.2928 29.7495 32.0691C29.6782 31.7707 29.6069 31.547 29.6782 31.2486C29.7495 31.0249 29.7495 30.8757 29.892 30.6519C29.9633 30.4282 30.0346 30.279 30.1772 30.0552C30.1059 28.7873 30.2485 27.4448 30.5336 26.1768C30.6762 25.5801 30.9613 24.9834 31.2464 24.4613C31.7454 23.5663 32.6008 22.895 33.5275 22.5221C33.8839 22.3729 34.2403 22.2238 34.668 22.1492C35.0244 22.0746 35.3808 22.0746 35.8085 22C36.2362 22 36.7352 22.0746 37.1629 22.1492C37.5906 22.2983 38.0183 22.4475 38.3747 22.5967C38.7312 22.7459 39.0876 22.9696 39.3727 23.268C39.6578 23.4917 39.8717 23.7155 40.0855 24.0138C40.5132 24.6105 40.7984 25.2072 41.0122 25.8785C41.2261 26.4751 41.3686 27.1464 41.4399 27.8177C41.5112 28.489 41.5825 29.2348 41.5825 29.9807C41.725 30.0552 41.7963 30.279 41.7963 30.279C41.7963 30.279 41.9389 30.5773 41.9389 30.7265C42.0102 30.9503 42.0102 31.174 41.9389 31.4724C41.9389 31.7707 41.8676 32.0691 41.725 32.3674C41.6538 32.5912 41.5112 32.7403 41.3686 32.8895C41.2261 33.0387 41.1548 33.1133 40.9409 33.1878C40.8696 33.4862 40.7984 33.7845 40.7271 34.0083C40.6558 34.232 40.5132 34.4558 40.4419 34.6796C40.3707 34.9033 40.2281 35.0525 40.0855 35.2017C39.943 35.3508 39.8004 35.4254 39.6578 35.5746C39.5153 35.6492 39.444 35.7983 39.3014 35.8729C39.2301 36.0221 39.0876 36.0967 39.0876 36.2459C38.945 36.6934 38.8737 37.1409 38.8737 37.5884C38.8737 37.8867 38.945 38.1851 39.0876 38.4088C39.2301 38.7072 39.444 39.0055 39.6578 39.2293C39.943 39.5276 40.2994 39.7514 40.7271 39.9006C41.1548 40.0497 41.5825 40.2735 42.0815 40.3481C42.5804 40.4227 44.5051 41.3923 44.9328 41.5414C45.2892 41.9144 45.6456 42.1381 46.002 42.4365Z" fill="white"/>
</g>
<defs>
<filter id="filter0_b_1616_6563" x="-8" y="-8" width="88" height="88" filterUnits="userSpaceOnUse" color-interpolation-filters="sRGB">
<feFlood flood-opacity="0" result="BackgroundImageFix"/>
<feGaussianBlur in="BackgroundImage" stdDeviation="10"/>
<feComposite in2="SourceAlpha" operator="in" result="effect1_backgroundBlur_1616_6563"/>
<feBlend mode="normal" in="SourceGraphic" in2="effect1_backgroundBlur_1616_6563" result="shape"/>
</filter>
<filter id="filter1_d_1616_6563" x="14" y="14" width="43" height="47" filterUnits="userSpaceOnUse" color-interpolation-filters="sRGB">
<feFlood flood-opacity="0" result="BackgroundImageFix"/>
<feColorMatrix in="SourceAlpha" type="matrix" values="0 0 0 0 0 0 0 0 0 0 0 0 0 0 0 0 0 0 127 0" result="hardAlpha"/>
<feOffset dy="2"/>
<feGaussianBlur stdDeviation="5"/>
<feComposite in2="hardAlpha" operator="out"/>
<feColorMatrix type="matrix" values="0 0 0 0 0.0509804 0 0 0 0 0.886275 0 0 0 0 0.564706 0 0 0 0.1 0"/>
<feBlend mode="normal" in2="BackgroundImageFix" result="effect1_dropShadow_1616_6563"/>
<feBlend mode="normal" in="SourceGraphic" in2="effect1_dropShadow_1616_6563" result="shape"/>
</filter>
<linearGradient id="paint0_linear_1616_6563" x1="5.01887" y1="4.9" x2="42.5055" y2="29.4195" gradientUnits="userSpaceOnUse">
<stop stop-color="#07D988"/>
<stop offset="1" stop-color="#15F59F"/>
</linearGradient>
<linearGradient id="paint1_linear_1616_6563" x1="37.0661" y1="12" x2="37.0661" y2="58.0855" gradientUnits="userSpaceOnUse">
<stop offset="0.22277" stop-color="#27E69D"/>
</linearGradient>
</defs>
</svg>
