<svg width="64" height="64" viewBox="0 0 64 64" fill="none" xmlns="http://www.w3.org/2000/svg">
<rect x="4" y="4" width="36" height="36" rx="4" fill="url(#paint0_linear_1616_6555)"/>
<rect x="4.25" y="4.25" width="35.5" height="35.5" rx="3.75" stroke="white" stroke-opacity="0.5" stroke-width="0.5"/>
<g filter="url(#filter0_b_1616_6555)">
<rect x="12" y="12" width="48" height="48" rx="4" fill="#8CB1FF" fill-opacity="0.3"/>
<rect x="12.25" y="12.25" width="47.5" height="47.5" rx="3.75" stroke="#F6F9FF" stroke-opacity="0.5" stroke-width="0.5"/>
</g>
<g filter="url(#filter1_d_1616_6555)">
<path d="M31.9498 27.0187C32.6608 26.6587 34.4608 25.8064 37.3498 24.4618L39.5422 23.4601C39.9944 23.2533 40.4987 23.1891 40.9882 23.2759C41.4778 23.3627 41.9293 23.5965 42.2827 23.9461L45.3958 27.0187H31.9498ZM49.4755 31.2712V35.4643H42.7309C42.3773 35.4568 42.0258 35.5207 41.6974 35.6519C41.369 35.7832 41.0704 35.9793 40.8193 36.2284C40.5646 36.4684 40.3631 36.7592 40.2278 37.082C40.0924 37.4047 40.0263 37.7523 40.0336 38.1022C40.0424 38.5707 40.154 39.0315 40.3603 39.4522C40.544 39.8151 40.8138 40.1274 41.146 40.3621C41.6166 40.6654 42.1723 40.8093 42.7309 40.7725H49.4566V46.3156C49.4566 46.6372 49.3933 46.9556 49.2702 47.2527C49.1471 47.5498 48.9668 47.8198 48.7394 48.0472C48.512 48.2746 48.242 48.455 47.9449 48.5781C47.6478 48.7011 47.3293 48.7645 47.0077 48.7645H24.9811C24.3316 48.7645 23.7087 48.5065 23.2495 48.0472C22.7902 47.588 22.5322 46.9651 22.5322 46.3156V31.2658C22.5322 30.6163 22.7902 29.9934 23.2495 29.5341C23.7087 29.0749 24.3316 28.8169 24.9811 28.8169H47.0185C47.668 28.8169 48.2909 29.0749 48.7502 29.5341C49.2094 29.9934 49.4674 30.6163 49.4674 31.2658L49.4755 31.2712ZM44.0755 38.1049C44.0789 38.2813 44.0466 38.4567 43.9808 38.6204C43.9149 38.7842 43.8167 38.933 43.6921 39.058C43.4398 39.3053 43.1005 39.4439 42.7471 39.4439C42.3938 39.4439 42.0545 39.3053 41.8021 39.058C41.6777 38.9329 41.5796 38.7841 41.5137 38.6203C41.4478 38.4566 41.4156 38.2813 41.4187 38.1049C41.4149 37.9308 41.447 37.7577 41.513 37.5965C41.5789 37.4354 41.6774 37.2895 41.8021 37.168C42.0574 36.9262 42.3956 36.7915 42.7471 36.7915C43.0987 36.7915 43.4369 36.9262 43.6921 37.168C43.8153 37.2901 43.912 37.4364 43.9762 37.5976C44.0403 37.7588 44.0704 37.9315 44.0647 38.1049H44.0755Z" fill="white"/>
</g>
<defs>
<filter id="filter0_b_1616_6555" x="-8" y="-8" width="88" height="88" filterUnits="userSpaceOnUse" color-interpolation-filters="sRGB">
<feFlood flood-opacity="0" result="BackgroundImageFix"/>
<feGaussianBlur in="BackgroundImage" stdDeviation="10"/>
<feComposite in2="SourceAlpha" operator="in" result="effect1_backgroundBlur_1616_6555"/>
<feBlend mode="normal" in="SourceGraphic" in2="effect1_backgroundBlur_1616_6555" result="shape"/>
</filter>
<filter id="filter1_d_1616_6555" x="18.5322" y="21.2383" width="34.9433" height="33.5273" filterUnits="userSpaceOnUse" color-interpolation-filters="sRGB">
<feFlood flood-opacity="0" result="BackgroundImageFix"/>
<feColorMatrix in="SourceAlpha" type="matrix" values="0 0 0 0 0 0 0 0 0 0 0 0 0 0 0 0 0 0 127 0" result="hardAlpha"/>
<feOffset dy="2"/>
<feGaussianBlur stdDeviation="2"/>
<feComposite in2="hardAlpha" operator="out"/>
<feColorMatrix type="matrix" values="0 0 0 0 0 0 0 0 0 0.32 0 0 0 0 1 0 0 0 0.1 0"/>
<feBlend mode="normal" in2="BackgroundImageFix" result="effect1_dropShadow_1616_6555"/>
<feBlend mode="normal" in="SourceGraphic" in2="effect1_dropShadow_1616_6555" result="shape"/>
</filter>
<linearGradient id="paint0_linear_1616_6555" x1="4" y1="4" x2="41.5505" y2="38.3027" gradientUnits="userSpaceOnUse">
<stop stop-color="#0555FF"/>
<stop offset="1" stop-color="#4380FF"/>
</linearGradient>
</defs>
</svg>
