<svg width="64" height="64" viewBox="0 0 64 64" fill="none" xmlns="http://www.w3.org/2000/svg">
<rect x="4" y="4" width="36" height="36" rx="4" fill="url(#paint0_linear_1616_6577)"/>
<rect x="4.25" y="4.25" width="35.5" height="35.5" rx="3.75" stroke="white" stroke-opacity="0.5" stroke-width="0.5"/>
<g filter="url(#filter0_b_1616_6577)">
<rect x="12" y="12" width="48" height="48" rx="4" fill="#8CB1FF" fill-opacity="0.3"/>
<rect x="12.25" y="12.25" width="47.5" height="47.5" rx="3.75" stroke="#F6F9FF" stroke-opacity="0.5" stroke-width="0.5"/>
</g>
<g filter="url(#filter1_d_1616_6577)">
<path fill-rule="evenodd" clip-rule="evenodd" d="M36.1072 25.9413C35.9204 25.4902 35.8242 25.0068 35.8242 24.5186C35.8242 24.0303 35.9204 23.5469 36.1072 23.0958C36.2941 22.6448 36.5679 22.2349 36.9131 21.8897C37.2584 21.5445 37.6682 21.2706 38.1193 21.0838C38.5703 20.8969 39.0538 20.8008 39.542 20.8008C40.0302 20.8008 40.5137 20.8969 40.9647 21.0838C41.4158 21.2706 41.8256 21.5445 42.1709 21.8897C42.5161 22.2349 42.7899 22.6448 42.9768 23.0958C43.1636 23.5469 43.2598 24.0303 43.2598 24.5186C43.2598 25.0068 43.1636 25.4902 42.9768 25.9413C42.7899 26.3923 42.5161 26.8022 42.1709 27.1474C41.8256 27.4926 41.4158 27.7665 40.9647 27.9533C40.5137 28.1402 40.0302 28.2363 39.542 28.2363C39.4208 28.2363 39.2998 28.2304 39.1796 28.2186L38.1221 31.2122C38.6312 31.4894 39.1026 31.8401 39.5199 32.2573C40.1635 32.901 40.6486 33.6735 40.9501 34.5142L44.1534 33.8167C44.1517 33.7688 44.1509 33.7208 44.1509 33.6727C44.1509 32.5929 44.5798 31.5574 45.3433 30.794C46.1068 30.0305 47.1423 29.6016 48.222 29.6016C49.3017 29.6016 50.3372 30.0305 51.1007 30.794C51.8642 31.5574 52.2931 32.5929 52.2931 33.6727C52.2931 34.7524 51.8642 35.7879 51.1007 36.5514C50.3372 37.3148 49.3017 37.7437 48.222 37.7437C47.1423 37.7437 46.1068 37.3148 45.3433 36.5514C45.0037 36.2118 44.7304 35.8185 44.5315 35.3913L41.2897 36.0967C41.3022 36.2554 41.3085 36.4151 41.3085 36.5754C41.3085 37.9875 40.8194 39.3493 39.9349 40.4341L41.9669 42.7056C42.3458 42.5256 42.7634 42.4297 43.1908 42.4297C43.9475 42.4297 44.6731 42.7303 45.2081 43.2653C45.7432 43.8003 46.0438 44.526 46.0438 45.2826C46.0438 46.0393 45.7432 46.7649 45.2081 47.2999C44.6731 47.835 43.9475 48.1355 43.1908 48.1355C42.4342 48.1355 41.7085 47.835 41.1735 47.2999C40.6385 46.7649 40.3379 46.0393 40.3379 45.2826C40.3379 44.7491 40.4873 44.231 40.763 43.7843L38.7555 41.5416C37.7257 42.2784 36.4846 42.682 35.2019 42.682C34.3061 42.682 33.4306 42.4852 32.6333 42.1156L30.6045 45.3412C30.6058 45.3425 30.6071 45.3438 30.6083 45.3451C31.267 46.0037 31.637 46.897 31.637 47.8285C31.637 48.76 31.267 49.6533 30.6083 50.3119C29.9497 50.9706 29.0564 51.3406 28.1249 51.3406C27.1934 51.3406 26.3001 50.9706 25.6415 50.3119C24.9828 49.6533 24.6128 48.76 24.6128 47.8285C24.6128 46.897 24.9828 46.0037 25.6415 45.3451C26.3001 44.6864 27.1934 44.3164 28.1249 44.3164C28.5027 44.3164 28.8742 44.3773 29.2263 44.4936L31.2685 41.2466C31.1358 41.1348 31.0074 41.0171 30.8838 40.8934C29.7386 39.7482 29.0952 38.195 29.0952 36.5754C29.0952 35.4943 29.3819 34.4427 29.9132 33.5223L27.834 31.9869C27.1808 32.5491 26.3453 32.8613 25.4775 32.8613C24.5195 32.8613 23.6007 32.4807 22.9233 31.8033C22.2458 31.1259 21.8652 30.2071 21.8652 29.249C21.8652 28.291 22.2458 27.3722 22.9233 26.6947C23.6007 26.0173 24.5195 25.6367 25.4775 25.6367C26.4356 25.6367 27.3544 26.0173 28.0318 26.6947C28.7093 27.3722 29.0898 28.291 29.0898 29.249C29.0898 29.7474 28.9869 30.2352 28.7927 30.6839L30.9007 32.2405C32.0443 31.1058 33.5902 30.4688 35.2019 30.4688C35.6802 30.4688 36.1528 30.5249 36.6108 30.6335L37.6421 27.7142C37.3771 27.5566 37.1321 27.3664 36.9131 27.1474C36.5679 26.8022 36.2941 26.3923 36.1072 25.9413Z" fill="white"/>
</g>
<defs>
<filter id="filter0_b_1616_6577" x="-8" y="-8" width="88" height="88" filterUnits="userSpaceOnUse" color-interpolation-filters="sRGB">
<feFlood flood-opacity="0" result="BackgroundImageFix"/>
<feGaussianBlur in="BackgroundImage" stdDeviation="10"/>
<feComposite in2="SourceAlpha" operator="in" result="effect1_backgroundBlur_1616_6577"/>
<feBlend mode="normal" in="SourceGraphic" in2="effect1_backgroundBlur_1616_6577" result="shape"/>
</filter>
<filter id="filter1_d_1616_6577" x="11.8652" y="12.8008" width="50.4279" height="50.5391" filterUnits="userSpaceOnUse" color-interpolation-filters="sRGB">
<feFlood flood-opacity="0" result="BackgroundImageFix"/>
<feColorMatrix in="SourceAlpha" type="matrix" values="0 0 0 0 0 0 0 0 0 0 0 0 0 0 0 0 0 0 127 0" result="hardAlpha"/>
<feOffset dy="2"/>
<feGaussianBlur stdDeviation="5"/>
<feComposite in2="hardAlpha" operator="out"/>
<feColorMatrix type="matrix" values="0 0 0 0 0 0 0 0 0 0.32 0 0 0 0 1 0 0 0 0.1 0"/>
<feBlend mode="normal" in2="BackgroundImageFix" result="effect1_dropShadow_1616_6577"/>
<feBlend mode="normal" in="SourceGraphic" in2="effect1_dropShadow_1616_6577" result="shape"/>
</filter>
<linearGradient id="paint0_linear_1616_6577" x1="4" y1="4" x2="41.5505" y2="38.3027" gradientUnits="userSpaceOnUse">
<stop stop-color="#0555FF"/>
<stop offset="1" stop-color="#4380FF"/>
</linearGradient>
</defs>
</svg>
