<svg width="64" height="64" viewBox="0 0 64 64" fill="none" xmlns="http://www.w3.org/2000/svg">
<rect x="4" y="4" width="36" height="36" rx="4" fill="url(#paint0_radial_1616_8139)"/>
<rect x="4.21667" y="4.21667" width="35.5667" height="35.5667" rx="3.78333" stroke="white" stroke-opacity="0.5" stroke-width="0.433333"/>
<g filter="url(#filter0_b_1616_8139)">
<rect x="12" y="12" width="48" height="48" rx="4" fill="url(#paint1_radial_1616_8139)" fill-opacity="0.3"/>
<rect x="12.2667" y="12.2667" width="47.4667" height="47.4667" rx="3.73333" stroke="white" stroke-opacity="0.5" stroke-width="0.533333"/>
</g>
<g filter="url(#filter1_d_1616_8139)">
<path fill-rule="evenodd" clip-rule="evenodd" d="M48.1263 40.5967C48.4383 40.8682 48.6256 41.2076 48.7504 41.6148C48.7816 41.7845 48.8128 41.9372 48.844 42.0899C48.8752 42.2426 48.9064 42.3953 48.9376 42.565C48.966 42.7501 48.9814 42.781 48.9899 42.7978C48.9909 42.7998 48.9918 42.8016 48.9926 42.8035C49 42.8202 49 42.8403 49 43.0401C49 43.3795 49 43.7867 48.9376 44.1261C48.9376 44.307 48.8821 44.488 48.8267 44.669C48.7989 44.7595 48.7712 44.85 48.7504 44.9405L48.7504 44.9405C48.5631 45.0763 48.3759 45.212 48.1263 45.2799C46.704 45.7267 45.2497 46.0517 43.7715 46.2637L43.7708 46.2324L43.7707 46.2314V46.2314C43.7698 46.2014 43.7669 46.1071 43.7497 45.9949C43.7396 45.9285 43.7233 45.8471 43.6959 45.7561L43.6897 45.7358L43.6868 45.7168L43.6822 45.692C43.6481 45.5061 43.6141 45.3398 43.5835 45.19L43.5835 45.1899L43.5834 45.1898L43.5823 45.1842C43.5508 45.0301 43.5228 44.8928 43.495 44.7418L43.4774 44.6458L43.4488 44.5525C43.2585 43.9318 42.9313 43.2915 42.3262 42.765C42.1952 42.651 42.0357 42.5237 41.9215 42.4325L41.9212 42.4323L41.9211 42.4322C41.9028 42.4176 41.8857 42.404 41.8701 42.3914C41.8502 42.3755 41.8327 42.3615 41.8182 42.3496C41.6905 42.2454 41.6019 42.1658 41.5216 42.0785L41.2501 41.7832L40.8791 41.6488L40.88 41.6491C40.88 41.6491 40.8548 41.6388 40.7916 41.6104C40.723 41.5795 40.6358 41.5389 40.5298 41.4888C40.4523 41.4521 40.3561 41.4062 40.2523 41.3566L40.2513 41.3561L40.2511 41.3561L40.2507 41.3559C40.1013 41.2846 39.9364 41.2059 39.7889 41.1364C39.5228 41.0111 39.2337 40.8781 38.975 40.7697C38.7781 40.6872 38.412 40.536 38.0769 40.484C38.0274 40.4763 37.9504 40.4562 37.8016 40.3979C37.7393 40.3735 37.6799 40.3488 37.6039 40.3172L37.6038 40.3171L37.5441 40.2923C37.447 40.2521 37.3244 40.2017 37.1937 40.1543C37.0433 40.0998 36.9594 40.0353 36.9035 39.9745C36.8238 39.8878 36.7375 39.7599 36.6914 39.6598L36.6584 39.588C36.6604 39.4389 36.6769 39.2859 36.7102 39.1279L36.7186 39.1233L36.8848 38.9425C36.8917 38.9367 36.9028 38.9275 36.9193 38.9141L36.9295 38.9058C36.9921 38.8549 37.1335 38.7399 37.278 38.5828L37.2989 38.5603C37.4248 38.4253 37.7744 38.0505 37.953 37.4793L37.9561 37.4722C37.9617 37.4595 37.9749 37.4293 38.002 37.3704L38.01 37.3529C38.0517 37.2626 38.1412 37.069 38.2067 36.8554C38.2303 36.7781 38.2535 36.6958 38.2757 36.6117C38.3279 36.5594 38.3675 36.5158 38.3903 36.4908L38.4013 36.4788L38.4222 36.4563C38.5398 36.3301 38.8527 35.9947 39.0389 35.4855C39.2059 35.0985 39.3114 34.684 39.3361 34.2495C39.4023 33.8823 39.4151 33.49 39.3195 33.0728C39.2795 32.7941 39.1934 32.5568 39.1316 32.4114C39.0985 32.3046 39.0587 32.2085 39.0178 32.1245C38.995 31.5571 38.9433 31.0171 38.8961 30.5549C38.8238 29.8474 38.6785 29.1169 38.4478 28.4394C38.2163 27.6924 37.8981 26.9995 37.4225 26.3099C37.1696 25.9432 36.901 25.643 36.5687 25.3603C36.157 24.94 35.6803 24.6423 35.2284 24.4457C35.1943 24.4309 35.1597 24.4161 35.1248 24.4014C35.1525 24.3467 35.1804 24.2928 35.2082 24.2398C35.6451 23.4253 36.3939 22.8145 37.2052 22.4751C37.5173 22.3394 37.8293 22.2036 38.2037 22.1357C38.3675 22.1001 38.5313 22.0832 38.7041 22.0653C38.8605 22.0492 39.0243 22.0322 39.2022 22C39.5767 22 40.0135 22.0679 40.3879 22.1357C40.7624 22.2715 41.1368 22.4072 41.4489 22.543C41.7609 22.6787 42.0729 22.8823 42.3225 23.1538C42.5722 23.3574 42.7594 23.561 42.9466 23.8325C43.321 24.3755 43.5707 24.9185 43.7579 25.5293C43.9451 26.0723 44.0699 26.6831 44.1323 27.294C44.1947 27.9048 44.2571 28.5835 44.2571 29.2622C44.3819 29.3301 44.4443 29.4658 44.4443 29.5337C44.5068 29.6695 44.5692 29.8052 44.5692 29.9409C44.6316 30.1446 44.6316 30.3482 44.5692 30.6197C44.5692 30.8911 44.5068 31.1626 44.3819 31.4341C44.3195 31.6377 44.1947 31.7735 44.0699 31.9092C43.9451 32.045 43.8827 32.1128 43.6955 32.1807C43.6331 32.4522 43.5707 32.7237 43.5083 32.9273C43.4771 33.0291 43.4302 33.1309 43.3834 33.2327C43.3366 33.3345 43.2898 33.4363 43.2586 33.5381C43.1962 33.7417 43.0714 33.8775 42.9466 34.0132C42.8842 34.0811 42.8218 34.132 42.7594 34.1829C42.697 34.2338 42.6346 34.2847 42.5722 34.3526C42.5098 34.3865 42.4629 34.4374 42.4161 34.4883C42.3693 34.5392 42.3225 34.5901 42.2601 34.6241C42.2355 34.6776 42.2012 34.7206 42.1686 34.7613C42.1187 34.8239 42.0729 34.8812 42.0729 34.9634C41.9481 35.3706 41.8857 35.7779 41.8857 36.1851C41.8857 36.4566 41.9481 36.7281 42.0729 36.9317C42.1977 37.2032 42.3849 37.4747 42.5722 37.6783C42.8218 37.9498 43.1338 38.1534 43.5083 38.2891C43.6189 38.3292 43.7296 38.3753 43.842 38.422C44.1095 38.5334 44.3863 38.6485 44.694 38.6963C44.9753 38.74 45.774 39.1214 46.4072 39.4237C46.7573 39.5909 47.0569 39.7339 47.1902 39.7823C47.3982 40.0085 47.6063 40.1744 47.8143 40.3403L47.8144 40.3404C47.9184 40.4233 48.0223 40.5063 48.1263 40.5967ZM41.8862 45.0454C41.7614 44.6382 41.5741 44.2988 41.2621 44.0273C41.1581 43.9368 41.0541 43.8539 40.9501 43.7709C40.7421 43.605 40.534 43.4391 40.326 43.2129C40.1927 43.1645 39.8931 43.0215 39.543 42.8543C38.9098 42.552 38.111 42.1706 37.8298 42.1269C37.5221 42.0791 37.2453 41.964 36.9777 41.8526C36.8654 41.8059 36.7547 41.7598 36.644 41.7197C36.2696 41.584 35.9576 41.3803 35.708 41.1089C35.5207 40.9052 35.3335 40.6338 35.2087 40.3623C35.0839 40.1587 35.0215 39.8872 35.0215 39.6157C35.0215 39.2085 35.0839 38.8012 35.2087 38.394C35.2087 38.3118 35.2545 38.2545 35.3044 38.1919C35.337 38.1512 35.3713 38.1082 35.3959 38.0546C35.4583 38.0207 35.5051 37.9698 35.5519 37.9189C35.5987 37.868 35.6455 37.8171 35.708 37.7832C35.7704 37.7153 35.8328 37.6644 35.8952 37.6135C35.9576 37.5626 36.02 37.5117 36.0824 37.4438C36.2072 37.3081 36.332 37.1723 36.3944 36.9687C36.4256 36.8669 36.4724 36.7651 36.5192 36.6633C36.566 36.5615 36.6128 36.4597 36.644 36.3579C36.7064 36.1543 36.7688 35.8828 36.8313 35.6113L36.8313 35.6113C37.0185 35.5434 37.0809 35.4755 37.2057 35.3398C37.3305 35.2041 37.4553 35.0683 37.5177 34.8647C37.6425 34.5932 37.7049 34.3217 37.7049 34.0502C37.7674 33.7788 37.7674 33.5751 37.7049 33.3715C37.7049 33.2358 37.6425 33.1 37.5801 32.9643C37.5801 32.8964 37.5177 32.7607 37.3929 32.6928C37.3929 32.0141 37.3305 31.3354 37.2681 30.7245C37.2057 30.1137 37.0809 29.5029 36.8937 28.9599C36.7065 28.3491 36.4568 27.8061 36.0824 27.2631C35.8952 26.9916 35.708 26.788 35.4583 26.5844C35.2087 26.3129 34.8967 26.1093 34.5846 25.9736C34.2726 25.8378 33.8982 25.7021 33.5237 25.5663C33.1493 25.4985 32.7125 25.4306 32.338 25.4306C32.1601 25.4628 31.9963 25.4798 31.8399 25.4959C31.6671 25.5138 31.5033 25.5307 31.3395 25.5663C30.9651 25.6342 30.6531 25.7699 30.341 25.9057L30.341 25.9057C29.5297 26.245 28.7809 26.8559 28.344 27.6703C28.0944 28.1454 27.8448 28.6884 27.72 29.2314C27.4703 30.3852 27.3455 31.6069 27.4079 32.7607C27.2831 32.9643 27.2207 33.1 27.1583 33.3037C27.0707 33.4465 27.0446 33.5559 27.0153 33.6789C27.0028 33.7311 26.9897 33.7859 26.9711 33.8466C26.915 34.0904 26.9596 34.2794 27.0145 34.512C27.0207 34.5385 27.0271 34.5655 27.0335 34.5932L27.0335 34.5932C27.0959 34.7968 27.1583 35.0004 27.2831 35.2041C27.3455 35.3398 27.4079 35.4077 27.5327 35.5434L27.5327 35.5434C27.5951 35.5773 27.6419 35.5943 27.6888 35.6113C27.7356 35.6282 27.7824 35.6452 27.8448 35.6792L28.032 36.5615C28.0632 36.6633 28.11 36.7651 28.1568 36.8669C28.2036 36.9687 28.2504 37.0705 28.2816 37.1723C28.344 37.3759 28.4688 37.5117 28.5936 37.6474L29.2177 38.3261C29.4049 38.5297 29.5297 38.8691 29.5297 39.2085V39.8872C29.5297 40.0908 29.4673 40.2944 29.4049 40.498C29.3217 40.679 29.2385 40.7997 29.1553 40.9203C29.1137 40.9807 29.0721 41.041 29.0305 41.1089C28.8433 41.3803 28.5936 41.584 28.344 41.7197C27.9072 41.9912 27.4703 42.1948 27.0335 42.3305C26.5342 42.4663 24.35 43.2807 23.9132 43.4844C23.4763 43.688 23.1019 43.8916 22.7275 44.2309C22.4154 44.5703 22.1658 45.0454 22.1034 45.5884C21.9786 46.1992 21.9786 46.8779 22.041 47.4888C22.041 47.896 22.1658 48.3032 22.4154 48.6426C22.7899 48.8462 23.1643 48.9819 23.5387 49.0498C26.5342 49.6606 29.5297 50 32.5252 50C35.5207 50 38.4538 49.5928 41.2621 48.7104C41.5117 48.6426 41.6989 48.5068 41.8861 48.3711L41.8862 48.3711C41.907 48.2806 41.9347 48.1901 41.9624 48.0996C42.0179 47.9186 42.0734 47.7376 42.0734 47.5566C42.1358 47.2173 42.1358 46.81 42.1358 46.4707C42.1358 46.2709 42.1358 46.2508 42.1284 46.2341C42.1208 46.2167 42.1052 46.203 42.0734 45.9956C42.0422 45.8259 42.011 45.6732 41.9798 45.5205C41.9486 45.3678 41.9174 45.2151 41.8862 45.0454Z" fill="white"/>
</g>
<defs>
<filter id="filter0_b_1616_8139" x="-8" y="-8" width="88" height="88" filterUnits="userSpaceOnUse" color-interpolation-filters="sRGB">
<feFlood flood-opacity="0" result="BackgroundImageFix"/>
<feGaussianBlur in="BackgroundImage" stdDeviation="10"/>
<feComposite in2="SourceAlpha" operator="in" result="effect1_backgroundBlur_1616_8139"/>
<feBlend mode="normal" in="SourceGraphic" in2="effect1_backgroundBlur_1616_8139" result="shape"/>
</filter>
<filter id="filter1_d_1616_8139" x="18" y="20" width="35" height="36" filterUnits="userSpaceOnUse" color-interpolation-filters="sRGB">
<feFlood flood-opacity="0" result="BackgroundImageFix"/>
<feColorMatrix in="SourceAlpha" type="matrix" values="0 0 0 0 0 0 0 0 0 0 0 0 0 0 0 0 0 0 127 0" result="hardAlpha"/>
<feOffset dy="2"/>
<feGaussianBlur stdDeviation="2"/>
<feComposite in2="hardAlpha" operator="out"/>
<feColorMatrix type="matrix" values="0 0 0 0 0.992157 0 0 0 0 0.498039 0 0 0 0 0.0666667 0 0 0 0.15 0"/>
<feBlend mode="normal" in2="BackgroundImageFix" result="effect1_dropShadow_1616_8139"/>
<feBlend mode="normal" in="SourceGraphic" in2="effect1_dropShadow_1616_8139" result="shape"/>
</filter>
<radialGradient id="paint0_radial_1616_8139" cx="0" cy="0" r="1" gradientUnits="userSpaceOnUse" gradientTransform="translate(10.3113 4) rotate(54.0884) scale(40.6075 199.147)">
<stop stop-color="#FC790D"/>
<stop offset="1" stop-color="#FF9A23"/>
</radialGradient>
<radialGradient id="paint1_radial_1616_8139" cx="0" cy="0" r="1" gradientUnits="userSpaceOnUse" gradientTransform="translate(20.2528 14.6913) rotate(40.3925) scale(46.6772 228.673)">
<stop stop-color="#FFCCA2"/>
<stop offset="1" stop-color="#FFBF73"/>
</radialGradient>
</defs>
</svg>
