<svg width="64" height="64" viewBox="0 0 64 64" fill="none" xmlns="http://www.w3.org/2000/svg">
<rect x="4" y="4" width="36" height="36" rx="4" fill="url(#paint0_linear_1616_7540)"/>
<rect x="4.25" y="4.25" width="35.5" height="35.5" rx="3.75" stroke="white" stroke-opacity="0.5" stroke-width="0.5"/>
<g filter="url(#filter0_b_1616_7540)">
<rect x="12" y="12" width="48" height="48" rx="4" fill="url(#paint1_linear_1616_7540)" fill-opacity="0.3"/>
<rect x="12.25" y="12.25" width="47.5" height="47.5" rx="3.75" stroke="#C7FFE7" stroke-opacity="0.5" stroke-width="0.5"/>
</g>
<g filter="url(#filter1_d_1616_7540)">
<path fill-rule="evenodd" clip-rule="evenodd" d="M24.1275 22H47.8681C48.4035 22 48.6949 22.6204 48.3523 23.0222L39.7892 32.991V49.3701C39.7892 49.8383 39.2931 50.1427 38.8718 49.932L32.5646 46.8068C32.3481 46.7014 32.2142 46.4829 32.2142 46.2449V32.991L23.6511 23.0222C23.3046 22.6204 23.592 22 24.1275 22ZM42.7065 33.0495H47.7578C48.1043 33.0495 48.3877 33.3304 48.3838 33.6738V35.1759C48.3838 35.5192 48.1003 35.8002 47.7539 35.8002H42.7065C42.3601 35.8002 42.0766 35.5192 42.0766 35.1759V33.6738C42.0766 33.3304 42.3601 33.0495 42.7065 33.0495ZM42.7065 38.5508H47.7578C48.1043 38.5508 48.3877 38.8318 48.3838 39.1751V40.6772C48.3838 41.0206 48.1003 41.3015 47.7539 41.3015H42.7065C42.3601 41.3015 42.0766 41.0206 42.0766 40.6772V39.1751C42.0766 38.8318 42.3601 38.5508 42.7065 38.5508ZM42.7065 44.0561H47.7578C48.1043 44.0561 48.3877 44.3331 48.3838 44.6803V46.1825C48.3838 46.5258 48.1003 46.8067 47.7539 46.8067H42.7065C42.3601 46.8067 42.0766 46.5258 42.0766 46.1825V44.6803C42.0766 44.337 42.3601 44.0561 42.7065 44.0561Z" fill="white"/>
</g>
<defs>
<filter id="filter0_b_1616_7540" x="-8" y="-8" width="88" height="88" filterUnits="userSpaceOnUse" color-interpolation-filters="sRGB">
<feFlood flood-opacity="0" result="BackgroundImageFix"/>
<feGaussianBlur in="BackgroundImage" stdDeviation="10"/>
<feComposite in2="SourceAlpha" operator="in" result="effect1_backgroundBlur_1616_7540"/>
<feBlend mode="normal" in="SourceGraphic" in2="effect1_backgroundBlur_1616_7540" result="shape"/>
</filter>
<filter id="filter1_d_1616_7540" x="13.5" y="14" width="45" height="48" filterUnits="userSpaceOnUse" color-interpolation-filters="sRGB">
<feFlood flood-opacity="0" result="BackgroundImageFix"/>
<feColorMatrix in="SourceAlpha" type="matrix" values="0 0 0 0 0 0 0 0 0 0 0 0 0 0 0 0 0 0 127 0" result="hardAlpha"/>
<feOffset dy="2"/>
<feGaussianBlur stdDeviation="5"/>
<feComposite in2="hardAlpha" operator="out"/>
<feColorMatrix type="matrix" values="0 0 0 0 0.0509804 0 0 0 0 0.886275 0 0 0 0 0.564706 0 0 0 0.1 0"/>
<feBlend mode="normal" in2="BackgroundImageFix" result="effect1_dropShadow_1616_7540"/>
<feBlend mode="normal" in="SourceGraphic" in2="effect1_dropShadow_1616_7540" result="shape"/>
</filter>
<linearGradient id="paint0_linear_1616_7540" x1="5.01887" y1="4.9" x2="42.5055" y2="29.4195" gradientUnits="userSpaceOnUse">
<stop stop-color="#07D988"/>
<stop offset="1" stop-color="#15F59F"/>
</linearGradient>
<linearGradient id="paint1_linear_1616_7540" x1="37.0661" y1="12" x2="37.0661" y2="58.0855" gradientUnits="userSpaceOnUse">
<stop offset="0.22277" stop-color="#27E69D"/>
</linearGradient>
</defs>
</svg>
