<svg width="64" height="64" viewBox="0 0 64 64" fill="none" xmlns="http://www.w3.org/2000/svg">
<rect x="4" y="4" width="36" height="36" rx="4" fill="url(#paint0_radial_1616_9495)"/>
<rect x="4.21667" y="4.21667" width="35.5667" height="35.5667" rx="3.78333" stroke="white" stroke-opacity="0.5" stroke-width="0.433333"/>
<g filter="url(#filter0_b_1616_9495)">
<rect x="12" y="12" width="48" height="48" rx="4" fill="url(#paint1_radial_1616_9495)" fill-opacity="0.3"/>
<rect x="12.2667" y="12.2667" width="47.4667" height="47.4667" rx="3.73333" stroke="white" stroke-opacity="0.5" stroke-width="0.533333"/>
</g>
<g filter="url(#filter1_d_1616_9495)">
<path d="M46.502 42.9365C46.8585 43.2348 47.0723 43.6077 47.2149 44.0553C47.2861 44.4282 47.3574 44.7265 47.4287 45.0994C47.5 45.547 47.5 45.174 47.5 45.6215C47.5 45.9945 47.5 46.442 47.4287 46.8149C47.4287 47.1133 47.2861 47.4116 47.2149 47.7099C47.001 47.8591 46.7872 48.0083 46.502 48.0829C43.2943 49.0525 39.944 49.5 36.5224 49.5C33.1008 49.5 29.6792 49.1271 26.2576 48.4558C25.8299 48.3812 25.4022 48.232 24.9745 48.0083C24.6894 47.6354 24.5468 47.1878 24.5468 46.7403C24.4755 46.0691 24.4755 45.3232 24.6181 44.6519C24.6894 44.0553 24.9745 43.5332 25.3309 43.1602C25.7586 42.7873 26.1863 42.5635 26.6853 42.3398C27.1843 42.116 29.6792 41.221 30.2495 41.0718C30.7485 40.9227 31.2474 40.6989 31.7464 40.4006C32.0316 40.2514 32.3167 40.0276 32.5305 39.7293C32.6731 39.5055 32.8157 39.3564 32.9582 39.058C33.0295 38.8343 33.1008 38.6105 33.1008 38.3867V37.6409C33.1008 37.268 32.9582 36.895 32.7444 36.6713L32.0316 35.9254C31.889 35.7762 31.7464 35.6271 31.6751 35.4033C31.6039 35.1796 31.4613 34.9558 31.39 34.732L31.1762 33.7624C31.0336 33.6878 30.9623 33.6878 30.8197 33.6133C30.6772 33.4641 30.6059 33.3895 30.5346 33.2403C30.392 33.0166 30.3208 32.7928 30.2495 32.5691C30.1782 32.2707 30.1069 32.047 30.1782 31.7486C30.2495 31.5249 30.2495 31.3757 30.392 31.1519C30.4633 30.9282 30.5346 30.779 30.6772 30.5552C30.6059 29.2873 30.7485 27.9448 31.0336 26.6768C31.1762 26.0801 31.4613 25.4834 31.7464 24.9613C32.2454 24.0663 33.1008 23.395 34.0275 23.0221C34.3839 22.8729 34.7403 22.7238 35.168 22.6492C35.5244 22.5746 35.8808 22.5746 36.3085 22.5C36.7362 22.5 37.2352 22.5746 37.6629 22.6492C38.0906 22.7983 38.5183 22.9475 38.8747 23.0967C39.2312 23.2459 39.5876 23.4696 39.8727 23.768C40.1578 23.9917 40.3717 24.2155 40.5855 24.5138C41.0132 25.1105 41.2984 25.7072 41.5122 26.3785C41.7261 26.9751 41.8686 27.6464 41.9399 28.3177C42.0112 28.989 42.0825 29.7348 42.0825 30.4807C42.225 30.5552 42.2963 30.779 42.2963 30.779C42.2963 30.779 42.4389 31.0773 42.4389 31.2265C42.5102 31.4503 42.5102 31.674 42.4389 31.9724C42.4389 32.2707 42.3676 32.5691 42.225 32.8674C42.1538 33.0912 42.0112 33.2403 41.8686 33.3895C41.7261 33.5387 41.6548 33.6133 41.4409 33.6878C41.3696 33.9862 41.2984 34.2845 41.2271 34.5083C41.1558 34.732 41.0132 34.9558 40.9419 35.1796C40.8707 35.4033 40.7281 35.5525 40.5855 35.7017C40.443 35.8508 40.3004 35.9254 40.1578 36.0746C40.0153 36.1492 39.944 36.2983 39.8014 36.3729C39.7301 36.5221 39.5876 36.5967 39.5876 36.7459C39.445 37.1934 39.3737 37.6409 39.3737 38.0884C39.3737 38.3867 39.445 38.6851 39.5876 38.9088C39.7301 39.2072 39.944 39.5055 40.1578 39.7293C40.443 40.0276 40.7994 40.2514 41.2271 40.4006C41.6548 40.5497 42.0825 40.7735 42.5815 40.8481C43.0804 40.9227 45.0051 41.8923 45.4328 42.0414C45.7892 42.4144 46.1456 42.6381 46.502 42.9365Z" fill="white"/>
</g>
<defs>
<filter id="filter0_b_1616_9495" x="-8" y="-8" width="88" height="88" filterUnits="userSpaceOnUse" color-interpolation-filters="sRGB">
<feFlood flood-opacity="0" result="BackgroundImageFix"/>
<feGaussianBlur in="BackgroundImage" stdDeviation="10"/>
<feComposite in2="SourceAlpha" operator="in" result="effect1_backgroundBlur_1616_9495"/>
<feBlend mode="normal" in="SourceGraphic" in2="effect1_backgroundBlur_1616_9495" result="shape"/>
</filter>
<filter id="filter1_d_1616_9495" x="20.5" y="20.5" width="31" height="35" filterUnits="userSpaceOnUse" color-interpolation-filters="sRGB">
<feFlood flood-opacity="0" result="BackgroundImageFix"/>
<feColorMatrix in="SourceAlpha" type="matrix" values="0 0 0 0 0 0 0 0 0 0 0 0 0 0 0 0 0 0 127 0" result="hardAlpha"/>
<feOffset dy="2"/>
<feGaussianBlur stdDeviation="2"/>
<feComposite in2="hardAlpha" operator="out"/>
<feColorMatrix type="matrix" values="0 0 0 0 0.992157 0 0 0 0 0.498039 0 0 0 0 0.0666667 0 0 0 0.15 0"/>
<feBlend mode="normal" in2="BackgroundImageFix" result="effect1_dropShadow_1616_9495"/>
<feBlend mode="normal" in="SourceGraphic" in2="effect1_dropShadow_1616_9495" result="shape"/>
</filter>
<radialGradient id="paint0_radial_1616_9495" cx="0" cy="0" r="1" gradientUnits="userSpaceOnUse" gradientTransform="translate(10.3113 4) rotate(54.0884) scale(40.6075 199.147)">
<stop stop-color="#FC790D"/>
<stop offset="1" stop-color="#FF9A23"/>
</radialGradient>
<radialGradient id="paint1_radial_1616_9495" cx="0" cy="0" r="1" gradientUnits="userSpaceOnUse" gradientTransform="translate(20.2528 14.6913) rotate(40.3925) scale(46.6772 228.673)">
<stop stop-color="#FFCCA2"/>
<stop offset="1" stop-color="#FFBF73"/>
</radialGradient>
</defs>
</svg>
