<svg width="64" height="64" viewBox="0 0 64 64" fill="none" xmlns="http://www.w3.org/2000/svg">
<rect x="4" y="4" width="36" height="36" rx="4" fill="url(#paint0_radial_1616_9910)"/>
<rect x="4.21667" y="4.21667" width="35.5667" height="35.5667" rx="3.78333" stroke="white" stroke-opacity="0.5" stroke-width="0.433333"/>
<g filter="url(#filter0_b_1616_9910)">
<rect x="12" y="12" width="48" height="48" rx="4" fill="url(#paint1_radial_1616_9910)" fill-opacity="0.3"/>
<rect x="12.2667" y="12.2667" width="47.4667" height="47.4667" rx="3.73333" stroke="white" stroke-opacity="0.5" stroke-width="0.533333"/>
</g>
<g filter="url(#filter1_d_1616_9910)">
<path d="M48.3322 25.8197C49.2483 25.8197 50 26.5337 50 27.409C50 28.2843 49.2483 28.9984 48.3322 28.9984H36.3289C35.4128 28.9984 34.6611 28.2843 34.6611 27.409C34.6611 26.5337 35.4128 25.8197 36.3289 25.8197H48.3322ZM29.7282 24C30.4094 24 31.0201 24.3916 31.2785 24.9674C31.5369 25.5663 31.396 26.2343 30.9262 26.695L28.2483 29.2057L27.0738 30.3113C26.4161 30.9332 25.3591 30.9332 24.7248 30.3113L23.5503 29.2057L22.5168 28.2383C22.094 27.8467 21.9295 27.2478 22.094 26.718C22.2584 26.1652 22.7047 25.7506 23.2685 25.5893C23.8557 25.4511 24.4664 25.5893 24.8893 26.004L25.9228 26.9714L28.5772 24.4607C28.8591 24.1382 29.2819 24 29.7282 24ZM48.3322 34.4193C49.2483 34.4193 50 35.1333 50 36.0086C50 36.8839 49.2483 37.598 48.3322 37.598H36.3289C35.4128 37.598 34.6611 36.8839 34.6611 36.0086C34.6611 35.1333 35.4128 34.4193 36.3289 34.4193H48.3322ZM28.5302 33.0833C29.1879 32.4614 30.245 32.4614 30.8792 33.0833C31.5369 33.7052 31.5369 34.6957 30.8792 35.3176L28.2248 37.8283L27.0503 38.934C26.3926 39.5559 25.3356 39.5559 24.7013 38.934L23.5268 37.8283L22.4933 36.8609C21.8356 36.239 21.8356 35.2485 22.4933 34.6266C23.151 34.0047 24.2081 34.0047 24.8423 34.6266L25.8758 35.594L28.5302 33.0833ZM48.3322 43.0419C49.2483 43.0419 50 43.756 50 44.6313C50 45.5066 49.2483 46.2206 48.3322 46.2206H36.3289C35.4128 46.2206 34.6611 45.5066 34.6611 44.6313C34.6611 43.756 35.4128 43.0419 36.3289 43.0419H48.3322ZM28.5302 41.6829C29.1879 41.061 30.245 41.061 30.8792 41.6829C31.5369 42.3048 31.5369 43.2953 30.8792 43.9172L28.2248 46.4279L27.0503 47.5336C26.3926 48.1555 25.3356 48.1555 24.7013 47.5336L23.5268 46.4279L22.4933 45.4605C21.8356 44.8386 21.8356 43.8481 22.4933 43.2262C23.151 42.6043 24.2081 42.6043 24.8423 43.2262L25.8758 44.1936L28.5302 41.6829Z" fill="white"/>
</g>
<defs>
<filter id="filter0_b_1616_9910" x="-8" y="-8" width="88" height="88" filterUnits="userSpaceOnUse" color-interpolation-filters="sRGB">
<feFlood flood-opacity="0" result="BackgroundImageFix"/>
<feGaussianBlur in="BackgroundImage" stdDeviation="10"/>
<feComposite in2="SourceAlpha" operator="in" result="effect1_backgroundBlur_1616_9910"/>
<feBlend mode="normal" in="SourceGraphic" in2="effect1_backgroundBlur_1616_9910" result="shape"/>
</filter>
<filter id="filter1_d_1616_9910" x="18" y="22" width="36" height="32" filterUnits="userSpaceOnUse" color-interpolation-filters="sRGB">
<feFlood flood-opacity="0" result="BackgroundImageFix"/>
<feColorMatrix in="SourceAlpha" type="matrix" values="0 0 0 0 0 0 0 0 0 0 0 0 0 0 0 0 0 0 127 0" result="hardAlpha"/>
<feOffset dy="2"/>
<feGaussianBlur stdDeviation="2"/>
<feComposite in2="hardAlpha" operator="out"/>
<feColorMatrix type="matrix" values="0 0 0 0 0.992157 0 0 0 0 0.498039 0 0 0 0 0.0666667 0 0 0 0.15 0"/>
<feBlend mode="normal" in2="BackgroundImageFix" result="effect1_dropShadow_1616_9910"/>
<feBlend mode="normal" in="SourceGraphic" in2="effect1_dropShadow_1616_9910" result="shape"/>
</filter>
<radialGradient id="paint0_radial_1616_9910" cx="0" cy="0" r="1" gradientUnits="userSpaceOnUse" gradientTransform="translate(10.3113 4) rotate(54.0884) scale(40.6075 199.147)">
<stop stop-color="#FC790D"/>
<stop offset="1" stop-color="#FF9A23"/>
</radialGradient>
<radialGradient id="paint1_radial_1616_9910" cx="0" cy="0" r="1" gradientUnits="userSpaceOnUse" gradientTransform="translate(20.2528 14.6913) rotate(40.3925) scale(46.6772 228.673)">
<stop stop-color="#FFCCA2"/>
<stop offset="1" stop-color="#FFBF73"/>
</radialGradient>
</defs>
</svg>
