<svg width="64" height="64" viewBox="0 0 64 64" fill="none" xmlns="http://www.w3.org/2000/svg">
<rect x="4" y="4" width="36" height="36" rx="4" fill="url(#paint0_linear_1616_7058)"/>
<rect x="4.25" y="4.25" width="35.5" height="35.5" rx="3.75" stroke="white" stroke-opacity="0.5" stroke-width="0.5"/>
<g filter="url(#filter0_b_1616_7058)">
<rect x="12" y="12" width="48" height="48" rx="4" fill="#8CB1FF" fill-opacity="0.3"/>
<rect x="12.25" y="12.25" width="47.5" height="47.5" rx="3.75" stroke="#F6F9FF" stroke-opacity="0.5" stroke-width="0.5"/>
</g>
<g filter="url(#filter1_d_1616_7058)">
<path d="M49.9439 42.5043C49.1972 42.0845 48.3331 41.9029 47.4741 41.9854C46.615 42.0679 45.8045 42.4102 45.1573 42.9638L43.1944 41.861V36.4162C43.1963 36.1371 43.1219 35.8624 42.9786 35.6203C42.8354 35.3781 42.6284 35.1771 42.3788 35.0378L37.341 32.2395V29.8319C38.1624 29.5619 38.8759 29.0493 39.3811 28.366C39.8863 27.6828 40.1578 26.8633 40.1574 26.0228C40.1581 25.4941 40.051 24.9706 39.8425 24.4821C39.6339 23.9936 39.328 23.5498 38.9421 23.1761C38.5563 22.8024 38.0981 22.5061 37.5939 22.3043C37.0897 22.1025 36.5494 21.9991 36.0039 22C35.459 21.9997 34.9193 22.1035 34.4158 22.3054C33.9124 22.5074 33.4549 22.8035 33.0696 23.1769C32.6842 23.5503 32.3787 23.9936 32.1703 24.4815C31.9619 24.9695 31.8548 25.4924 31.8551 26.0205C31.8548 26.861 32.1263 27.6805 32.6315 28.3637C33.1366 29.047 33.8501 29.5596 34.6715 29.8296V32.2372L29.6361 35.0493C29.3865 35.1886 29.1795 35.3896 29.0363 35.6318C28.893 35.8739 28.8186 36.1486 28.8205 36.4277V41.8588L26.8576 42.9615C26.2104 42.4079 25.3999 42.0656 24.5408 41.9831C23.6818 41.9006 22.8177 42.0822 22.071 42.502C21.1204 43.0363 20.4268 43.9137 20.142 44.9423C19.8572 45.9708 20.0044 47.0669 20.5514 47.9905C20.8208 48.4469 21.1806 48.8473 21.6101 49.1685C22.0396 49.4898 22.5304 49.7256 23.0543 49.8625C23.5782 49.9993 24.1248 50.0345 24.6628 49.966C25.2008 49.8974 25.7194 49.7266 26.189 49.4632C26.9405 49.0423 27.5368 48.4036 27.8941 47.637C28.2513 46.8704 28.3515 46.0146 28.1804 45.19L29.9846 44.1745L35.2002 47.083C35.4442 47.2217 35.7211 47.2969 36.0039 47.3013C36.2901 47.301 36.5713 47.2281 36.8194 47.0899L42.0351 44.186L43.8273 45.19C43.6589 46.0125 43.7595 46.8654 44.1152 47.6298C44.4709 48.3941 45.064 49.0319 45.8117 49.454C46.2812 49.7177 46.7999 49.8888 47.3379 49.9575C47.8759 50.0262 48.4226 49.9911 48.9466 49.8542C49.4706 49.7173 49.9614 49.4814 50.391 49.16C50.8205 48.8386 51.1801 48.438 51.4493 47.9813C51.9944 47.0605 52.142 45.9683 51.8601 44.9425C51.5781 43.9167 50.8894 43.0404 49.9439 42.5043ZM25.0131 47.4736C24.8119 47.5865 24.5896 47.6598 24.359 47.6892C24.1284 47.7185 23.8941 47.7034 23.6696 47.6447C23.4451 47.586 23.2348 47.4848 23.0507 47.347C22.8667 47.2092 22.7126 47.0375 22.5974 46.8418C22.3656 46.4474 22.3038 45.9802 22.4254 45.5419C22.5471 45.1035 22.8423 44.7294 23.2469 44.5008C23.4482 44.3878 23.6705 44.3146 23.9011 44.2852C24.1316 44.2558 24.3659 44.2709 24.5904 44.3297C24.815 44.3884 25.0253 44.4895 25.2093 44.6273C25.3933 44.7651 25.5474 44.9368 25.6627 45.1325C25.8945 45.527 25.9563 45.9942 25.8346 46.4325C25.713 46.8708 25.4178 47.245 25.0131 47.4736ZM34.2258 26.0205C34.2258 25.5635 34.4132 25.1252 34.7466 24.8021C35.0801 24.4789 35.5323 24.2974 36.0039 24.2974C36.4755 24.2974 36.9277 24.4789 37.2612 24.8021C37.5946 25.1252 37.7819 25.5635 37.7819 26.0205C37.7819 26.4774 37.5946 26.9157 37.2612 27.2388C36.9277 27.562 36.4755 27.7435 36.0039 27.7435C35.5323 27.7435 35.0801 27.562 34.7466 27.2388C34.4132 26.9157 34.2258 26.4774 34.2258 26.0205ZM40.5225 42.0379L36.0039 44.5628L31.4853 42.0357V36.9974L36.0039 34.4749L40.5225 37.002V42.0425V42.0379ZM49.4104 46.8441C49.2959 47.0406 49.1424 47.2131 48.9588 47.3519C48.7752 47.4907 48.5651 47.5929 48.3406 47.6527C48.1161 47.7125 47.8816 47.7286 47.6506 47.7003C47.4196 47.6719 47.1967 47.5996 46.9946 47.4874C46.5883 47.2579 46.2922 46.8819 46.1709 46.4416C46.0497 46.0013 46.1131 45.5323 46.3474 45.1371C46.4626 44.9416 46.6164 44.7699 46.8001 44.632C46.9837 44.4942 47.1937 44.3928 47.4179 44.3337C47.6421 44.2745 47.8761 44.2589 48.1065 44.2875C48.337 44.3162 48.5593 44.3887 48.7609 44.5008C49.1661 44.7294 49.4618 45.104 49.5835 45.5428C49.7051 45.9817 49.6429 46.4494 49.4104 46.8441Z" fill="white"/>
</g>
<defs>
<filter id="filter0_b_1616_7058" x="-8" y="-8" width="88" height="88" filterUnits="userSpaceOnUse" color-interpolation-filters="sRGB">
<feFlood flood-opacity="0" result="BackgroundImageFix"/>
<feGaussianBlur in="BackgroundImage" stdDeviation="10"/>
<feComposite in2="SourceAlpha" operator="in" result="effect1_backgroundBlur_1616_7058"/>
<feBlend mode="normal" in="SourceGraphic" in2="effect1_backgroundBlur_1616_7058" result="shape"/>
</filter>
<filter id="filter1_d_1616_7058" x="10" y="14" width="52" height="48" filterUnits="userSpaceOnUse" color-interpolation-filters="sRGB">
<feFlood flood-opacity="0" result="BackgroundImageFix"/>
<feColorMatrix in="SourceAlpha" type="matrix" values="0 0 0 0 0 0 0 0 0 0 0 0 0 0 0 0 0 0 127 0" result="hardAlpha"/>
<feOffset dy="2"/>
<feGaussianBlur stdDeviation="5"/>
<feComposite in2="hardAlpha" operator="out"/>
<feColorMatrix type="matrix" values="0 0 0 0 0 0 0 0 0 0.32 0 0 0 0 1 0 0 0 0.1 0"/>
<feBlend mode="normal" in2="BackgroundImageFix" result="effect1_dropShadow_1616_7058"/>
<feBlend mode="normal" in="SourceGraphic" in2="effect1_dropShadow_1616_7058" result="shape"/>
</filter>
<linearGradient id="paint0_linear_1616_7058" x1="4" y1="4" x2="41.5505" y2="38.3027" gradientUnits="userSpaceOnUse">
<stop stop-color="#0555FF"/>
<stop offset="1" stop-color="#4380FF"/>
</linearGradient>
</defs>
</svg>
