<svg width="87" height="75" viewBox="0 0 87 75" fill="none" xmlns="http://www.w3.org/2000/svg">
<path d="M22.704 74.056C16.6027 74.056 11.968 72.1787 8.8 68.424C5.632 64.6693 4.048 59.6533 4.048 53.376V21.784C4.048 15.272 5.57333 10.168 8.624 6.472C11.7333 2.77599 16.4267 0.927994 22.704 0.927994C28.864 0.927994 33.4693 2.80533 36.52 6.56C39.6293 10.256 41.184 15.3307 41.184 21.784V53.376C41.184 59.6533 39.6 64.6693 36.432 68.424C33.264 72.1787 28.688 74.056 22.704 74.056ZM22.704 63.584C26.8107 63.584 28.864 60.1227 28.864 53.2V21.96C28.864 18.8507 28.4533 16.328 27.632 14.392C26.8107 12.3973 25.168 11.4 22.704 11.4C20.1813 11.4 18.5093 12.368 17.688 14.304C16.8667 16.24 16.456 18.792 16.456 21.96V53.2C16.456 60.1227 18.5387 63.584 22.704 63.584ZM49.5151 64.376L67.1151 37.184L68.7871 34.632C70.7818 31.464 72.2485 28.824 73.1871 26.712C74.1845 24.5413 74.6831 22.1067 74.6831 19.408C74.6831 13.8933 72.7471 11.136 68.8751 11.136C66.1765 11.136 64.2991 12.1627 63.2431 14.216C62.1871 16.2693 61.6591 19.0267 61.6591 22.488V25.48H49.7791V22.312C49.7791 15.624 51.2751 10.4027 54.2671 6.648C57.2591 2.83466 62.0111 0.927994 68.5231 0.927994C74.5071 0.927994 79.0245 2.54133 82.0751 5.76799C85.1845 8.99466 86.7391 13.5707 86.7391 19.496C86.7391 22.2533 86.3578 24.8053 85.5951 27.152C84.8325 29.4987 83.9231 31.5813 82.8671 33.4C81.8111 35.2187 80.1685 37.8 77.9391 41.144L63.3311 63.232H84.9791V73H49.5151V64.376Z" fill="url(#paint0_linear_0_1)" fill-opacity="0.15"/>
<path d="M10.3043 62.036L10.2522 61.9858L19.3632 53.8402L7.23815 59.0738L2.34371 54.3436C2.20453 54.209 2.10185 54.0367 2.04647 53.8449C1.9911 53.6531 1.98509 53.4489 2.02908 53.2537C2.07307 53.0586 2.16542 52.8797 2.29641 52.736C2.42741 52.5923 2.59219 52.4891 2.7734 52.4372L28.69 45.0372C28.868 44.9867 29.0553 44.9876 29.2329 45.0398C29.4105 45.0919 29.5721 45.1934 29.7011 45.334C29.8302 45.4746 29.9221 45.6493 29.9676 45.8402C30.0132 46.0312 30.0106 46.2317 29.9603 46.4212L23.0561 72.1907C23.0074 72.3729 22.9162 72.5389 22.7909 72.673C22.6657 72.8071 22.5106 72.9048 22.3403 72.9569C22.17 73.0091 21.9901 73.014 21.8176 72.9711C21.645 72.9282 21.4855 72.839 21.3541 72.7119L14.6502 66.2338L10.3043 70.8837V62.036Z" fill="#364256"/>
<defs>
<linearGradient id="paint0_linear_0_1" x1="48.2019" y1="-32" x2="48.2019" y2="98" gradientUnits="userSpaceOnUse">
<stop stop-color="#364256"/>
<stop offset="1" stop-color="#364256" stop-opacity="0"/>
</linearGradient>
</defs>
</svg>
