<svg width="664" height="123" viewBox="0 0 664 123" fill="none" xmlns="http://www.w3.org/2000/svg">
<path d="M22.704 74.056C16.6027 74.056 11.968 72.1787 8.8 68.424C5.632 64.6693 4.048 59.6533 4.048 53.376V21.784C4.048 15.272 5.57333 10.168 8.624 6.472C11.7333 2.77599 16.4267 0.927994 22.704 0.927994C28.864 0.927994 33.4693 2.80533 36.52 6.56C39.6293 10.256 41.184 15.3307 41.184 21.784V53.376C41.184 59.6533 39.6 64.6693 36.432 68.424C33.264 72.1787 28.688 74.056 22.704 74.056ZM22.704 63.584C26.8107 63.584 28.864 60.1227 28.864 53.2V21.96C28.864 18.8507 28.4533 16.328 27.632 14.392C26.8107 12.3973 25.168 11.4 22.704 11.4C20.1813 11.4 18.5093 12.368 17.688 14.304C16.8667 16.24 16.456 18.792 16.456 21.96V53.2C16.456 60.1227 18.5387 63.584 22.704 63.584ZM64.0351 15.184C63.4485 15.5947 61.3071 16.2693 57.6111 17.208C54.6191 18.088 53.0938 18.5573 53.0351 18.616V9.552C55.3818 8.73067 57.9338 7.616 60.6911 6.20799C63.5071 4.74133 65.5605 3.24533 66.8511 1.71999H76.2671V73H64.0351V15.184Z" fill="url(#paint0_linear_0_1)" fill-opacity="0.15"/>
<path d="M14.208 101.752V107.752H11.448V101.752H14.208ZM16.536 107.752V101.752H19.368V107.752H16.536ZM8.088 107.632C7.512 107.968 6.912 108.28 6.312 108.568V104.848H8.184V102.424H6.312V98.368H3.816V102.424H1.296V104.848H3.816V109.624C2.856 109.96 1.896 110.248 0.936 110.488L1.536 112.888C2.304 112.648 3.048 112.384 3.816 112.096V117.4C3.816 117.88 3.576 118.12 3.12 118.12C2.568 118.12 1.968 118.048 1.344 117.952L1.896 120.4H3.984C5.52 120.4 6.312 119.608 6.312 118.024V111.016C6.888 110.728 7.488 110.44 8.088 110.128V107.632ZM21.744 99.352H8.976V117.76C8.976 119.176 9.768 119.896 11.4 119.896H19.824C21.24 119.848 22.152 119.248 22.536 118.072C22.776 117.352 22.992 116.2 23.184 114.568L20.832 113.824C20.64 115.504 20.472 116.536 20.328 116.872C20.088 117.304 19.656 117.52 19.008 117.568H12.456C11.784 117.568 11.448 117.304 11.448 116.776V110.08H21.744V99.352ZM33.6722 100.864V118H36.4802V100.864H33.6722ZM39.8363 100.864V118H42.6443V106.192H42.7403L47.7803 118H50.2043L55.2443 106.192H55.3403V118H58.1483V100.864H54.8603L49.0523 114.304H48.9563L43.1243 100.864H39.8363ZM73.8521 105.088V108.256H71.9321C72.4601 106.936 72.9641 105.448 73.4441 103.792H79.4681V101.344H74.0681C74.2601 100.48 74.4521 99.592 74.6441 98.656L72.2201 98.296C72.0281 99.352 71.8121 100.384 71.5961 101.344H69.0281V103.792H70.9721C70.4441 105.616 69.8681 107.104 69.2921 108.304L69.8441 110.512H73.8521V113.416C72.3161 113.656 70.7081 113.872 68.9801 114.064L69.3161 116.512C70.9001 116.32 72.4121 116.104 73.8521 115.864V120.52H76.3241V115.408C77.3801 115.168 78.4121 114.928 79.4201 114.664V112.312C78.4361 112.552 77.4041 112.768 76.3241 112.984V110.512H78.9641V108.256H76.3241V105.088H73.8521ZM81.3881 97.984C80.9561 101.92 80.0201 104.968 78.5561 107.152L80.6201 108.616C81.4601 107.488 82.1561 106 82.7321 104.128H87.9641C87.5321 105.904 87.0281 107.44 86.4281 108.784L88.9241 109.48C89.6201 107.44 90.1961 105.4 90.6281 103.36V101.752H83.3321C83.5481 100.72 83.7401 99.592 83.8841 98.368L81.3881 97.984ZM83.3321 105.52C83.3081 108.544 83.0201 110.992 82.4441 112.888C81.7481 115.12 80.2601 117.016 77.9801 118.6L79.6361 120.64C82.2281 118.864 83.9321 116.656 84.7241 114.016C85.8521 116.56 87.3881 118.72 89.3561 120.544L91.1561 118.456C88.4681 116.392 86.5721 113.608 85.4921 110.128C85.6601 108.736 85.7561 107.2 85.7561 105.52H83.3321ZM97.7321 98.056C96.6041 101.752 94.8521 104.968 92.5001 107.68L93.3401 110.368C94.0121 109.648 94.6601 108.904 95.2841 108.136V120.496H97.7561V104.488C98.7161 102.808 99.4841 101.056 100.084 99.184L97.7321 98.056ZM101.788 99.88C101.308 102.904 100.372 105.472 99.0041 107.56L100.612 109.648C101.452 108.424 102.172 107.056 102.772 105.568H106.204V110.488H99.5081V112.912H106.204V120.424H108.724V112.912H114.844V110.488H108.724V105.568H113.932V103.12H108.724V98.392H106.204V103.12H103.588C103.852 102.184 104.068 101.2 104.236 100.192L101.788 99.88ZM134.548 103.288L132.868 104.872C134.692 106.168 136.084 107.392 137.068 108.52L138.82 106.792C137.668 105.616 136.228 104.44 134.548 103.288ZM128.524 98.056L125.812 98.488C126.076 98.992 126.316 99.544 126.556 100.144H117.388V102.544H123.772V108.664H126.268V102.544H129.412V108.664H131.908V102.544H138.268V100.144H129.124C128.932 99.376 128.716 98.68 128.524 98.056ZM121.084 103.384C119.932 104.536 118.492 105.568 116.812 106.432L118.348 108.448C120.172 107.44 121.684 106.288 122.932 104.968L121.084 103.384ZM119.02 109.6V111.808H120.892C122.116 113.392 123.628 114.76 125.452 115.96C122.98 116.944 120.172 117.64 117.004 118.072L118.18 120.448C121.924 119.824 125.212 118.816 128.068 117.448C130.804 118.792 134.068 119.776 137.884 120.424L139.036 118.12C135.796 117.712 132.964 117.04 130.516 116.104C132.556 114.832 134.308 113.296 135.772 111.496V109.6H119.02ZM123.724 111.808H132.244C130.948 112.984 129.484 114.016 127.828 114.88C126.22 114.016 124.852 112.984 123.724 111.808ZM158.044 98.08L156.46 99.592C157.396 100.312 158.164 101.032 158.764 101.704H155.38C155.332 100.6 155.308 99.448 155.308 98.224H152.764C152.764 99.424 152.764 100.6 152.812 101.704H142.924V109.696C142.852 113.584 142.084 116.632 140.596 118.816L142.492 120.52C144.34 117.808 145.324 114.232 145.444 109.768H148.828C148.78 112.216 148.708 113.728 148.564 114.28C148.444 114.76 148.18 115 147.796 115.024C147.124 115.024 146.332 114.976 145.372 114.904L146.14 117.184C146.86 117.256 147.508 117.304 148.084 117.304C149.38 117.28 150.22 116.776 150.604 115.768C151.012 114.664 151.252 111.88 151.324 107.416H145.444V104.08H152.932C153.124 106.96 153.46 109.384 153.988 111.304C154.252 112.288 154.54 113.2 154.876 114.04C153.292 115.96 151.372 117.424 149.116 118.432L150.556 120.544C152.62 119.632 154.444 118.312 156.028 116.584C156.316 117.112 156.652 117.592 156.988 118.024C158.164 119.44 159.268 120.16 160.324 120.16C161.524 120.16 162.412 118.456 163.036 115.072L160.78 113.848C160.468 116.152 160.18 117.304 159.94 117.304C159.58 117.304 159.052 116.776 158.38 115.744C158.14 115.384 157.9 114.952 157.684 114.472C159.148 112.336 160.348 109.744 161.284 106.696L159.004 105.712C158.38 107.872 157.588 109.816 156.628 111.496C156.532 111.16 156.436 110.848 156.364 110.512C155.98 109.024 155.692 106.864 155.5 104.08H162.556V101.704H159.7L160.804 100.576C160.036 99.736 159.124 98.896 158.044 98.08ZM184.156 100.912H175.348C175.756 100.192 176.092 99.424 176.332 98.584L173.788 98.224C173.548 99.136 173.164 100.048 172.684 100.912H167.5V120.496H170.044V119.2H181.612V120.496H184.156V100.912ZM170.044 116.824V113.68H181.612V116.824H170.044ZM170.044 111.376V108.424H181.612V111.376H170.044ZM170.044 106.12V103.312H181.612V106.12H170.044ZM189.82 99.712V102.088H198.844V99.712H189.82ZM188.932 106.168V108.616H191.908C190.876 112.504 190.036 114.904 189.412 115.816C189.316 115.888 189.148 115.96 188.908 116.032L189.484 118.384C192.364 117.856 195.076 117.184 197.596 116.32C197.788 116.776 197.98 117.256 198.172 117.784L200.14 116.776C199.612 117.568 199.036 118.288 198.388 118.936L200.404 120.688C203.62 117.472 205.252 112.432 205.3 105.52V104.992H208.012C207.964 111.568 207.892 115.432 207.748 116.536C207.58 117.568 207.004 118.096 206.02 118.096C205.396 118.096 204.676 118.048 203.812 118L204.388 120.184C205.348 120.256 205.996 120.304 206.38 120.304C208.612 120.304 209.86 119.416 210.148 117.64C210.364 115.768 210.484 110.752 210.484 102.616H205.3V98.344H202.78V102.616H200.092V104.992H202.78V105.52C202.732 110.08 201.916 113.728 200.284 116.512C199.3 114.16 198.268 112 197.212 110.032L195.124 111.04C195.652 112.048 196.18 113.104 196.708 114.256C195.244 114.784 193.756 115.24 192.244 115.576C192.844 114.04 193.54 111.736 194.332 108.616H199.708V106.168H188.932ZM232.612 120.352C233.14 120.352 233.596 119.968 234.028 119.224C234.46 118.504 234.82 117.016 235.156 114.76L233.068 113.752C232.972 114.616 232.876 115.384 232.78 116.056C232.636 116.872 232.492 117.304 232.348 117.304C232.084 117.304 231.892 116.872 231.796 116.008C231.652 115.144 231.58 113.128 231.58 110.008V102.088H226.492V98.32H223.972V102.088H221.188V104.536H223.972V106.792C223.972 107.464 223.924 108.136 223.876 108.808C223.3 108.472 222.724 108.136 222.124 107.824L220.732 109.84C221.644 110.32 222.58 110.848 223.492 111.472C222.82 114.664 221.452 117.136 219.34 118.888L221.236 120.544C223.372 118.744 224.86 116.272 225.7 113.128C226.372 113.656 227.044 114.232 227.764 114.904L229.156 112.816C229.252 115.432 229.54 117.256 229.972 118.288C230.548 119.632 231.412 120.328 232.612 120.352ZM226.492 104.536H229.108V110.008C229.108 110.968 229.108 111.856 229.156 112.696C228.244 111.88 227.26 111.088 226.252 110.368C226.396 109.264 226.468 108.064 226.492 106.792V104.536ZM215.86 120.28C217.492 120.28 218.308 119.464 218.308 117.832V111.304C219.004 111.016 219.7 110.704 220.42 110.368V107.872C219.748 108.208 219.028 108.544 218.308 108.88V105.04H220.3V102.616H218.308V98.368H215.788V102.616H213.004V105.04H215.788V109.84C214.732 110.176 213.652 110.488 212.548 110.728L213.172 113.128C214.036 112.864 214.924 112.576 215.788 112.288V117.184C215.788 117.712 215.5 118 214.972 118C214.3 118 213.628 117.952 212.908 117.856L213.46 120.28H215.86ZM245.86 99.544V102.016H257.668V99.544H245.86ZM245.284 105.496V107.968H252.46V117.4C252.46 117.88 252.124 118.12 251.476 118.12C250.468 118.12 249.412 118.048 248.308 117.952L248.86 120.4H252.34C254.116 120.4 255.004 119.608 255.004 118.024V107.968H258.7V105.496H245.284ZM241.684 98.416C240.58 100.6 238.9 102.496 236.644 104.104L237.412 106.624C240.508 104.488 242.692 102.112 243.964 99.496L241.684 98.416ZM242.812 103.936C241.516 106.48 239.524 108.712 236.836 110.584L237.604 113.056C238.516 112.408 239.404 111.736 240.22 111.064V120.496H242.692V108.592C243.652 107.44 244.444 106.24 245.068 104.992L242.812 103.936ZM280.684 98.944C277.324 99.904 273.22 100.384 268.372 100.384L269.164 102.712C270.748 102.712 272.236 102.664 273.628 102.568V108.184H266.956V110.632H273.628V117.256H268.156V119.704H281.644V117.256H276.124V110.632H282.844V108.184H276.124V102.328C278.308 102.04 280.252 101.632 281.932 101.056L280.684 98.944ZM265.924 98.248C264.748 101.872 262.948 105.016 260.5 107.68L261.34 110.368C262.06 109.624 262.756 108.856 263.404 108.088V120.544H265.9V104.56C266.86 102.928 267.652 101.2 268.276 99.376L265.924 98.248ZM291.652 98.176C290.692 100.48 288.82 102.424 286.036 104.008L287.548 106C288.46 105.424 289.324 104.824 290.116 104.176C291.028 104.92 292.012 105.616 293.068 106.264C290.62 107.128 287.836 107.776 284.716 108.16L285.868 110.512C289.66 109.936 292.972 109 295.828 107.728C298.804 109.12 302.14 110.008 305.86 110.44L306.988 108.112C303.916 107.824 301.108 107.224 298.588 106.312C300.556 105.16 302.236 103.768 303.652 102.136V100.12H293.452C293.716 99.64 293.956 99.112 294.196 98.56L291.652 98.176ZM295.804 105.112C294.364 104.392 293.02 103.528 291.772 102.52L291.82 102.472H299.932C298.708 103.48 297.34 104.344 295.804 105.112ZM293.98 109.096C293.956 109.912 293.884 110.68 293.74 111.424H286.396V113.68H292.972C292.828 113.92 292.684 114.184 292.516 114.448C291.34 116.056 288.796 117.424 284.908 118.552L286.564 120.592C291.028 119.152 293.836 117.376 294.988 115.24C295.276 114.76 295.516 114.232 295.708 113.68H301.996C301.948 115.672 301.756 116.896 301.444 117.376C301.156 117.832 300.46 118.072 299.332 118.096C298.516 118.072 297.484 118.024 296.212 117.952L296.836 120.208C298.036 120.304 299.044 120.352 299.884 120.352C301.564 120.352 302.74 119.92 303.412 119.08C304.084 118.24 304.444 115.696 304.492 111.424H296.284C296.38 110.704 296.452 109.912 296.452 109.096H293.98ZM317.836 102.184H314.188C314.62 101.08 314.98 99.856 315.244 98.56L312.724 98.224C312.532 99.592 312.22 100.912 311.788 102.184H309.484V119.704H311.884V117.808H315.436V119.008H317.836V102.184ZM311.884 115.504V110.968H315.436V115.504H311.884ZM311.884 108.736V104.536H315.436V108.736H311.884ZM322.204 108.016L320.164 109.288C321.652 111.208 322.852 112.96 323.74 114.544L325.756 113.152C324.916 111.664 323.74 109.96 322.204 108.016ZM330.196 102.184H322.9C323.26 101.032 323.572 99.808 323.812 98.512L321.34 98.2C320.764 101.488 319.708 104.272 318.124 106.528L319.636 108.52C320.524 107.368 321.292 106.072 321.94 104.632H327.748C327.7 111.424 327.628 115.384 327.484 116.536C327.34 117.472 326.836 117.952 325.972 117.952C325.18 117.952 324.244 117.904 323.188 117.832L323.788 120.112C325.036 120.208 325.9 120.256 326.38 120.256C328.444 120.256 329.596 119.416 329.836 117.736C330.076 115.768 330.196 110.584 330.196 102.184ZM333.124 102.712V105.136H336.292C335.5 107.824 334.276 110.2 332.596 112.264L333.7 115C334.78 113.32 335.692 111.52 336.412 109.552V120.4H338.908V108.592C339.412 109.432 339.988 110.464 340.66 111.664L342.124 109.456C341.044 108.208 339.964 107.056 338.908 106.024V105.136H341.596V102.712H338.908V98.296H336.412V102.712H333.124ZM340.108 118.864L342.172 120.688C343.3 118.912 344.068 117.04 344.476 115.12C344.908 113.2 345.124 110.896 345.124 108.184V101.392H348.532V117.52C348.532 119.128 349.444 119.944 351.292 119.944H352.372C353.212 119.944 353.836 119.776 354.22 119.464C354.604 119.08 354.844 118.456 354.94 117.544C355.036 116.632 355.108 115.24 355.108 113.416L352.804 112.696C352.804 115.24 352.756 116.704 352.66 117.04C352.612 117.208 352.564 117.352 352.468 117.448C352.372 117.544 352.228 117.592 352.036 117.592H351.316C351.148 117.592 351.076 117.472 351.076 117.256V99.04H342.628V108.184C342.628 110.896 342.46 112.936 342.148 114.304C341.764 115.888 341.068 117.424 340.108 118.864ZM358.972 99.04V105.424H366.82V99.04H358.972ZM364.564 103.36H361.228V101.152H364.564V103.36ZM368.884 99.04V105.424H373.588L371.98 105.952C372.268 106.336 372.532 106.744 372.82 107.2H367.804C368.044 106.768 368.26 106.312 368.452 105.856L366.076 105.592C365.836 106.12 365.524 106.672 365.14 107.2H357.148V109.408H362.812C361.276 110.464 359.26 111.352 356.716 112.072L357.868 114.136C358.348 113.992 358.804 113.824 359.284 113.656V120.52H361.468V119.608H364.708V120.52H366.916V112.552H361.876C363.604 111.688 365.044 110.632 366.196 109.408H370.036C371.044 110.56 372.412 111.616 374.188 112.552H368.716V120.52H370.924V119.608H374.572V120.52H376.78V113.728C377.116 113.872 377.524 114.016 377.956 114.16L378.964 112.024C376.348 111.352 374.308 110.488 372.844 109.408H378.508V107.2H375.268C374.956 106.576 374.596 106 374.212 105.424H376.972V99.04H368.884ZM374.716 103.36H371.14V101.152H374.716V103.36ZM361.468 117.496V114.616H364.708V117.496H361.468ZM370.924 117.496V114.616H374.572V117.496H370.924ZM393.004 98.32H390.46C390.46 99.232 390.436 100.48 390.436 102.088C390.244 108.976 386.956 114.352 380.524 118.192L382.06 120.448C387.052 117.232 390.34 113.176 391.924 108.28C393.772 113.344 396.94 117.376 401.428 120.4L403.108 118.192C397.66 114.856 394.228 110.032 392.836 103.72C392.932 102.232 393.004 100.432 393.004 98.32ZM408.316 114.4C407.788 114.4 407.356 114.568 406.996 114.904C406.636 115.24 406.468 115.672 406.468 116.224C406.468 116.728 406.636 117.16 406.996 117.496C407.356 117.832 407.788 118 408.316 118C408.484 118 408.628 117.976 408.772 117.952C408.628 119.296 407.86 120.4 406.42 121.288L407.26 122.656C409.444 121.48 410.548 119.704 410.548 117.352C410.548 115.384 409.804 114.4 408.316 114.4ZM438.412 105.112V107.224H442.876V105.112H438.412ZM438.412 108.472V116.08H443.164V108.472H438.412ZM441.388 114.256H440.188V110.296H441.388V114.256ZM448.108 105.16C447.724 107.296 447.196 109.216 446.524 110.92C446.428 110.344 446.332 109.696 446.26 109.024C446.068 107.2 445.924 105.424 445.828 103.696H450.484V101.392H449.428C449.068 100.504 448.684 99.688 448.276 98.968L446.284 99.304C446.716 99.952 447.124 100.648 447.508 101.392H445.732C445.684 100.336 445.684 99.304 445.684 98.296H443.38C443.38 99.352 443.38 100.384 443.428 101.392H435.268V110.224C435.196 113.896 434.404 116.752 432.916 118.816L434.788 120.472C436.516 117.904 437.404 114.496 437.5 110.224V103.696H443.524C443.668 106.312 443.956 108.712 444.364 110.92C444.556 112.024 444.772 113.032 445.012 113.944C443.812 115.84 442.372 117.304 440.644 118.312L442.132 120.256C443.524 119.392 444.748 118.24 445.828 116.8C446.044 117.376 446.26 117.88 446.5 118.264C447.22 119.584 448.036 120.256 448.948 120.256C450.388 120.232 451.108 118.432 451.108 114.832L449.068 113.896C449.02 116.464 448.948 117.76 448.804 117.784C448.396 117.712 447.964 117.016 447.508 115.696C447.412 115.384 447.316 115.024 447.22 114.64C448.468 112.336 449.476 109.48 450.22 106.072L448.108 105.16ZM430.948 99.064L428.86 100.36C430.204 102.424 431.26 104.272 432.028 105.952L434.044 104.56C433.324 103 432.292 101.176 430.948 99.064ZM432.148 108.952C431.188 112.312 430.084 115.624 428.788 118.84L431.116 119.872C432.292 116.728 433.372 113.368 434.332 109.816L432.148 108.952ZM457.516 101.008C456.556 104.32 455.044 106.984 452.98 109L455.116 110.848C457.132 108.808 458.74 105.856 459.964 101.968L457.516 101.008ZM469.108 108.688C466.54 113.536 461.308 116.68 453.388 118.12L454.828 120.568C463.06 118.96 468.556 115.456 471.316 110.032L469.108 108.688ZM462.532 98.344V111.976H465.124V98.344H462.532ZM469.492 100.648L467.236 101.68C469.3 104.272 471.172 107.248 472.852 110.608L475.252 109.384C473.596 106.216 471.676 103.288 469.492 100.648ZM490.828 100.528C489.1 100.528 487.66 101.08 486.508 102.208C485.356 103.312 484.78 104.728 484.78 106.456C484.78 108.136 485.26 109.504 486.268 110.56C487.276 111.664 488.644 112.216 490.324 112.216C491.188 112.216 491.956 112.048 492.628 111.736C493.324 111.4 493.924 110.872 494.428 110.176H494.548V110.392C494.548 111.976 494.212 113.296 493.564 114.352C492.868 115.456 491.956 116.032 490.828 116.032C489.172 116.032 488.188 115.24 487.852 113.656H485.116C485.524 116.776 487.42 118.336 490.804 118.336C492.772 118.336 494.356 117.472 495.532 115.744C496.684 114.016 497.284 111.736 497.284 108.952C497.284 106.312 496.732 104.272 495.628 102.784C494.524 101.272 492.916 100.528 490.828 100.528ZM490.924 102.856C491.884 102.856 492.7 103.168 493.324 103.792C493.948 104.416 494.26 105.256 494.26 106.36C494.26 107.464 493.948 108.328 493.372 108.976C492.772 109.6 491.956 109.936 490.924 109.936C489.868 109.936 489.052 109.6 488.476 108.976C487.852 108.352 487.564 107.512 487.564 106.456C487.564 105.4 487.852 104.536 488.476 103.864C489.1 103.192 489.916 102.856 490.924 102.856ZM505.411 100.528C503.395 100.528 501.835 101.344 500.731 103.024C499.675 104.608 499.147 106.744 499.147 109.432C499.147 112.12 499.675 114.256 500.731 115.84C501.835 117.496 503.395 118.336 505.411 118.336C507.403 118.336 508.963 117.496 510.091 115.84C511.147 114.256 511.675 112.12 511.675 109.432C511.675 106.744 511.147 104.608 510.091 103.024C508.963 101.344 507.403 100.528 505.411 100.528ZM505.411 102.904C506.755 102.904 507.715 103.648 508.291 105.184C508.675 106.216 508.867 107.632 508.867 109.432C508.867 111.208 508.675 112.624 508.291 113.68C507.715 115.192 506.755 115.96 505.411 115.96C504.043 115.96 503.083 115.192 502.531 113.68C502.147 112.624 501.955 111.208 501.955 109.432C501.955 107.632 502.147 106.216 502.531 105.184C503.083 103.648 504.043 102.904 505.411 102.904ZM530.77 108.616C529.426 108.616 528.37 109.072 527.65 110.032C526.978 110.848 526.666 111.952 526.666 113.32C526.666 114.664 526.978 115.744 527.65 116.608C528.37 117.52 529.426 118 530.77 118C532.114 118 533.146 117.52 533.866 116.608C534.49 115.768 534.826 114.664 534.826 113.32C534.826 111.952 534.49 110.848 533.866 110.032C533.146 109.072 532.114 108.616 530.77 108.616ZM528.322 100.528L518.698 118.336H520.786L530.41 100.528H528.322ZM518.386 100.864C517.042 100.864 515.986 101.32 515.266 102.28C514.594 103.096 514.282 104.2 514.282 105.568C514.282 106.912 514.594 107.992 515.266 108.856C515.986 109.768 517.042 110.248 518.386 110.248C519.73 110.248 520.762 109.768 521.482 108.856C522.106 108.016 522.442 106.912 522.442 105.568C522.442 104.2 522.106 103.096 521.482 102.28C520.762 101.32 519.73 100.864 518.386 100.864ZM530.77 110.368C531.346 110.368 531.754 110.68 531.994 111.328C532.186 111.808 532.282 112.456 532.282 113.32C532.282 114.136 532.186 114.784 532.018 115.264C531.754 115.912 531.346 116.248 530.77 116.248C530.17 116.248 529.738 115.936 529.498 115.312C529.306 114.832 529.21 114.16 529.21 113.32C529.21 112.456 529.306 111.784 529.498 111.304C529.738 110.68 530.17 110.368 530.77 110.368ZM518.386 102.616C518.962 102.616 519.37 102.928 519.61 103.576C519.802 104.056 519.898 104.704 519.898 105.568C519.898 106.384 519.802 107.032 519.634 107.512C519.37 108.16 518.962 108.496 518.386 108.496C517.786 108.496 517.354 108.184 517.114 107.56C516.922 107.08 516.826 106.408 516.826 105.568C516.826 104.704 516.922 104.032 517.114 103.552C517.354 102.928 517.786 102.616 518.386 102.616ZM554.508 102.184H550.86C551.292 101.08 551.652 99.856 551.916 98.56L549.396 98.224C549.204 99.592 548.892 100.912 548.46 102.184H546.156V119.704H548.556V117.808H552.108V119.008H554.508V102.184ZM548.556 115.504V110.968H552.108V115.504H548.556ZM548.556 108.736V104.536H552.108V108.736H548.556ZM558.876 108.016L556.836 109.288C558.324 111.208 559.524 112.96 560.412 114.544L562.428 113.152C561.588 111.664 560.412 109.96 558.876 108.016ZM566.868 102.184H559.572C559.932 101.032 560.244 99.808 560.484 98.512L558.012 98.2C557.436 101.488 556.38 104.272 554.796 106.528L556.308 108.52C557.196 107.368 557.964 106.072 558.612 104.632H564.42C564.372 111.424 564.3 115.384 564.156 116.536C564.012 117.472 563.508 117.952 562.644 117.952C561.852 117.952 560.916 117.904 559.86 117.832L560.46 120.112C561.708 120.208 562.572 120.256 563.052 120.256C565.116 120.256 566.268 119.416 566.508 117.736C566.748 115.768 566.868 110.584 566.868 102.184ZM581.676 98.32H579.132C579.132 99.232 579.108 100.48 579.108 102.088C578.916 108.976 575.628 114.352 569.196 118.192L570.732 120.448C575.724 117.232 579.012 113.176 580.596 108.28C582.444 113.344 585.612 117.376 590.1 120.4L591.78 118.192C586.332 114.856 582.9 110.032 581.508 103.72C581.604 102.232 581.676 100.432 581.676 98.32ZM602.1 98.344V100.936L602.028 102.616H595.188V105.04H601.836C601.548 107.68 601.02 109.936 600.276 111.856C599.172 114.448 597.036 116.608 593.892 118.336L595.236 120.544C598.476 118.936 600.804 116.656 602.244 113.728C603.324 111.4 604.044 108.496 604.428 105.04H611.124C611.004 110.44 610.74 113.968 610.356 115.6C609.972 117.184 609.204 118 608.004 118C607.092 118 606.132 117.952 605.124 117.904L605.796 120.328H609.204C610.476 120.232 611.388 119.68 611.964 118.672C612.564 117.616 612.972 115.744 613.212 113.104C613.452 110.44 613.62 106.936 613.716 102.616H604.62L604.692 100.936V98.344H602.1ZM620.436 120.232C622.068 120.232 622.884 119.392 622.884 117.76V111.064C623.652 110.68 624.444 110.248 625.212 109.816V107.248C624.444 107.704 623.676 108.136 622.884 108.544V104.848H625.356V102.424H622.884V98.32H620.388V102.424H617.748V104.848H620.388V109.648C619.332 110.056 618.276 110.392 617.172 110.656L617.82 113.2C618.684 112.888 619.524 112.552 620.388 112.216V117.112C620.388 117.664 620.1 117.952 619.572 117.952C618.996 117.952 618.42 117.904 617.796 117.808L618.348 120.232H620.436ZM625.908 108.28V110.728H627.204C627.78 112.6 628.908 114.328 630.564 115.888C628.932 116.944 626.964 117.832 624.612 118.504L625.98 120.64C628.596 119.872 630.804 118.84 632.628 117.544C634.236 118.648 636.18 119.656 638.484 120.568L639.828 118.408C637.716 117.712 635.94 116.92 634.452 116.008C635.988 114.496 637.092 112.696 637.764 110.608V108.28H625.908ZM629.508 110.728H635.244C634.572 112.144 633.612 113.416 632.364 114.52C631.02 113.392 630.06 112.12 629.508 110.728ZM627.492 99.04V102.64C627.492 104.032 626.628 105.112 624.924 105.88L626.604 107.824C628.836 106.528 629.964 104.704 629.964 102.376V101.392H633.852V104.584C633.852 106.24 634.764 107.08 636.636 107.08H639.06V104.752H637.308C636.636 104.752 636.324 104.488 636.324 103.984V99.04H627.492ZM651.084 104.104C649.5 110.152 646.212 114.784 641.244 118.048L642.78 120.208C647.58 117.088 650.772 112.672 652.404 106.984L652.476 107.2C655.044 113.632 658.188 117.976 661.908 120.184L663.468 118.192C659.868 115.888 656.94 111.952 654.66 106.384C653.076 102.376 651.3 99.664 649.332 98.272L647.244 99.616C648.732 100.672 650.004 102.16 651.084 104.104Z" fill="#364256"/>
<path fill-rule="evenodd" clip-rule="evenodd" d="M5.67328 49.0824C5.86771 48.84 6.08851 48.6142 6.33237 48.4117L6.33896 48.4051L6.38839 48.3619H6.39169L6.61908 48.1727C6.64253 48.1538 6.66766 48.1365 6.69208 48.1198L6.70588 48.1103L6.72124 48.0996H6.71794L7.81863 47.1733L7.84169 47.1534L14.8347 41.5757C15.5168 41.0047 16.5121 41.0113 17.1876 41.5956L24.062 47.2729L24.1246 47.3294L25.5153 48.5279H25.5186L25.7229 48.7039C25.8679 48.83 26.003 48.9628 26.1315 49.1023C26.9356 49.9821 27.3904 51.1408 27.3904 52.3526V59.9522C27.3904 61.8447 26.2897 63.5578 24.5761 64.3347L17.8632 67.3759L17.6721 67.4622C17.6506 67.4722 17.6292 67.4813 17.6078 67.4904C17.5864 67.4996 17.565 67.5087 17.5435 67.5186C17.5435 67.5186 17.5402 67.5186 17.5369 67.522C17.4904 67.541 17.4436 67.5591 17.3966 67.5763L15.8092 68.2783L9.42262 70.775C8.61194 71.0937 7.82762 70.2604 8.18023 69.4602L9.74888 65.9376L9.92183 65.4675L7.41987 64.3347C5.70623 63.5578 4.60884 61.8447 4.60884 59.9522V52.1103C4.60884 50.998 4.99112 49.9323 5.67328 49.0824ZM7.64397 57.0206C7.9801 60.2212 10.3627 62.2431 15.998 62.3294C21.6332 62.2431 24.0191 60.2245 24.352 57.0239C24.5497 55.1249 24.3915 53.2623 24.2267 52.0638C24.1147 51.2404 23.5676 50.5365 22.7932 50.2444C19.6559 49.0691 17.5139 49.016 16.0013 49.016C13.9482 49.016 12.1719 49.1322 9.19942 50.2444C8.42499 50.5365 7.87794 51.2371 7.7659 52.0638C7.60442 53.259 7.44624 55.1215 7.64397 57.0206ZM3.20372 44.0352H3.60351C3.68918 44.0352 3.76343 44.0776 3.76343 44.1266V51.2227H4.01144C4.06417 51.2227 4.10372 51.2658 4.10372 51.3156V57.6237C4.10372 57.6769 4.06087 57.7167 4.01144 57.7167H3.0261C2.64053 57.7167 2.32746 57.4013 2.32417 57.0128V51.9298C2.32417 51.5381 2.64053 51.2227 3.0261 51.2227H3.0438V44.1266C3.0438 44.0776 3.11234 44.0352 3.20372 44.0352ZM27.9826 57.7399H28.968C29.3536 57.7399 29.6666 57.4245 29.6699 57.0361V51.9531C29.6699 51.5613 29.3536 51.2459 28.968 51.2459H27.9826C27.9299 51.2459 27.8904 51.2891 27.8904 51.3389V57.647C27.8904 57.7001 27.9332 57.7399 27.9826 57.7399ZM13.0843 56.4938H12.1155C11.9013 56.4938 11.7266 56.3179 11.7266 56.1021V53.0675C11.7266 52.8517 11.9013 52.6758 12.1155 52.6758H13.0843C13.2985 52.6758 13.4732 52.8517 13.4732 53.0675V56.1021C13.4732 56.3179 13.2985 56.4938 13.0843 56.4938ZM19.8829 56.4938H18.914C18.6998 56.4938 18.5251 56.3179 18.5251 56.1021V53.0675C18.5251 52.8517 18.6998 52.6758 18.914 52.6758H19.8829C20.0971 52.6758 20.2717 52.8517 20.2717 53.0675V56.1021C20.2717 56.3179 20.0971 56.4938 19.8829 56.4938ZM16.0072 59.7207C16.6531 59.7207 17.2595 59.5182 17.678 59.1696C17.7834 59.0799 17.7999 58.9206 17.7109 58.8143C17.622 58.7081 17.4638 58.6915 17.3583 58.7811C17.0288 59.0567 16.5378 59.2161 16.0105 59.2161C15.4733 59.2161 14.9757 59.0534 14.6495 58.7678C14.544 58.6782 14.3858 58.6882 14.2968 58.7944C14.2079 58.9006 14.2178 59.06 14.3232 59.1497C14.7351 59.5149 15.3514 59.7207 16.0072 59.7207Z" fill="#364256"/>
<defs>
<linearGradient id="paint0_linear_0_1" x1="48.2019" y1="-32" x2="48.2019" y2="98" gradientUnits="userSpaceOnUse">
<stop stop-color="#364256"/>
<stop offset="1" stop-color="#364256" stop-opacity="0"/>
</linearGradient>
</defs>
</svg>
