<svg width="77" height="75" viewBox="0 0 77 75" fill="none" xmlns="http://www.w3.org/2000/svg">
<path d="M22.704 74.056C16.6027 74.056 11.968 72.1787 8.8 68.424C5.632 64.6693 4.048 59.6533 4.048 53.376V21.784C4.048 15.272 5.57333 10.168 8.624 6.472C11.7333 2.77599 16.4267 0.927994 22.704 0.927994C28.864 0.927994 33.4693 2.80533 36.52 6.56C39.6293 10.256 41.184 15.3307 41.184 21.784V53.376C41.184 59.6533 39.6 64.6693 36.432 68.424C33.264 72.1787 28.688 74.056 22.704 74.056ZM22.704 63.584C26.8107 63.584 28.864 60.1227 28.864 53.2V21.96C28.864 18.8507 28.4533 16.328 27.632 14.392C26.8107 12.3973 25.168 11.4 22.704 11.4C20.1813 11.4 18.5093 12.368 17.688 14.304C16.8667 16.24 16.456 18.792 16.456 21.96V53.2C16.456 60.1227 18.5387 63.584 22.704 63.584ZM64.0351 15.184C63.4485 15.5947 61.3071 16.2693 57.6111 17.208C54.6191 18.088 53.0938 18.5573 53.0351 18.616V9.552C55.3818 8.73067 57.9338 7.616 60.6911 6.20799C63.5071 4.74133 65.5605 3.24533 66.8511 1.71999H76.2671V73H64.0351V15.184Z" fill="url(#paint0_linear_0_1)" fill-opacity="0.15"/>
<path d="M10.3043 59.036L10.2522 58.9858L19.3632 50.8402L7.23815 56.0738L2.34371 51.3436C2.20453 51.209 2.10185 51.0367 2.04647 50.8449C1.9911 50.6531 1.98509 50.4489 2.02908 50.2537C2.07307 50.0586 2.16542 49.8797 2.29641 49.736C2.42741 49.5923 2.59219 49.4891 2.7734 49.4372L28.69 42.0372C28.868 41.9867 29.0553 41.9876 29.2329 42.0398C29.4105 42.0919 29.5721 42.1934 29.7011 42.334C29.8302 42.4746 29.9221 42.6493 29.9676 42.8402C30.0132 43.0312 30.0106 43.2317 29.9603 43.4212L23.0561 69.1907C23.0074 69.3729 22.9162 69.5389 22.7909 69.673C22.6657 69.8071 22.5106 69.9048 22.3403 69.9569C22.17 70.0091 21.9901 70.014 21.8176 69.9711C21.645 69.9282 21.4855 69.839 21.3541 69.7119L14.6502 63.2338L10.3043 67.8837V59.036Z" fill="#364256"/>
<defs>
<linearGradient id="paint0_linear_0_1" x1="48.2019" y1="-32" x2="48.2019" y2="98" gradientUnits="userSpaceOnUse">
<stop stop-color="#364256"/>
<stop offset="1" stop-color="#364256" stop-opacity="0"/>
</linearGradient>
</defs>
</svg>
