<svg width="89" height="75" viewBox="0 0 89 75" fill="none" xmlns="http://www.w3.org/2000/svg">
<path d="M22.704 74.056C16.6027 74.056 11.968 72.1787 8.8 68.424C5.632 64.6693 4.048 59.6533 4.048 53.376V21.784C4.048 15.272 5.57333 10.168 8.624 6.472C11.7333 2.77599 16.4267 0.927994 22.704 0.927994C28.864 0.927994 33.4693 2.80533 36.52 6.56C39.6293 10.256 41.184 15.3307 41.184 21.784V53.376C41.184 59.6533 39.6 64.6693 36.432 68.424C33.264 72.1787 28.688 74.056 22.704 74.056ZM22.704 63.584C26.8107 63.584 28.864 60.1227 28.864 53.2V21.96C28.864 18.8507 28.4533 16.328 27.632 14.392C26.8107 12.3973 25.168 11.4 22.704 11.4C20.1813 11.4 18.5093 12.368 17.688 14.304C16.8667 16.24 16.456 18.792 16.456 21.96V53.2C16.456 60.1227 18.5387 63.584 22.704 63.584ZM69.5791 55.488H48.4591V44.84L66.8511 1.71999H80.9311V45.72H88.3231V55.488H80.9311V73H69.5791V55.488ZM69.5791 45.72V14.92L58.6671 45.72H69.5791Z" fill="url(#paint0_linear_0_1)" fill-opacity="0.15"/>
<path fill-rule="evenodd" clip-rule="evenodd" d="M19.8499 45C19.27 45 18.7999 45.4822 18.7999 46.077C18.7999 46.6717 19.27 47.1539 19.8499 47.1539H28.95C29.5299 47.1539 30 46.6717 30 46.077C30 45.4822 29.5299 45 28.95 45H19.8499ZM21.9499 50.7439C21.37 50.7439 20.8999 51.2261 20.8999 51.8208C20.8999 52.4156 21.37 52.8978 21.9499 52.8978H28.95C29.5299 52.8978 30 52.4156 30 51.8208C30 51.2261 29.5299 50.7439 28.95 50.7439H21.9499ZM20.8999 58.2835C20.8999 57.6887 21.37 57.2066 21.9499 57.2066H28.95C29.5299 57.2066 30 57.6887 30 58.2835C30 58.8783 29.5299 59.3605 28.95 59.3605H21.9499C21.37 59.3605 20.8999 58.8783 20.8999 58.2835ZM23.5694 67.7878C23.4341 67.3594 23.231 67.0024 22.8925 66.7168C22.7797 66.6216 22.6669 66.5343 22.5541 66.4471C22.0878 66.0864 21.5924 65.7442 21.0574 65.4965C21.0476 65.4919 21.0378 65.4874 21.0279 65.4828C20.3411 65.1648 19.4748 64.7636 19.1697 64.7176C18.8359 64.6673 18.5358 64.5462 18.2455 64.429C18.1237 64.3799 18.0037 64.3314 17.8836 64.2892C17.4775 64.1464 17.139 63.9322 16.8683 63.6466C16.6652 63.4324 16.4621 63.1468 16.3268 62.8612C16.1914 62.647 16.1237 62.3614 16.1237 62.0758C16.1237 61.7249 16.1691 61.3741 16.2599 61.0232C16.3001 60.8679 16.3286 60.7019 16.4306 60.578C16.5031 60.49 16.587 60.4062 16.6667 60.3246C16.6776 60.3134 16.6883 60.3021 16.699 60.2908C16.8004 60.1839 16.9186 60.0915 17.0336 59.9994C17.0462 59.9894 17.0588 59.9794 17.0713 59.9695C17.139 59.9159 17.2067 59.8624 17.2744 59.791C17.4098 59.6482 17.5451 59.5054 17.6128 59.2912C17.6467 59.1841 17.6974 59.077 17.7482 58.9699C17.799 58.8628 17.8497 58.7557 17.8836 58.6486C17.9115 58.5602 17.9394 58.4597 17.9674 58.3521C18.0461 58.0485 18.277 57.8052 18.4928 57.5776C18.6282 57.4348 18.7635 57.292 18.8312 57.0778C18.9176 56.8956 18.9764 56.7135 19.0077 56.5313C19.0427 56.3271 19.0702 56.1201 19.0827 55.9132C19.0848 55.8796 19.0855 55.8469 19.0848 55.8148C19.0809 55.6074 19.0303 55.3988 18.9537 55.206C18.9385 55.1677 18.9242 55.1345 18.914 55.1116C18.9041 55.0894 18.9047 55.0952 18.8968 55.0723C18.8323 54.8854 18.6967 54.6692 18.6915 54.4716C18.6755 53.8662 18.618 53.2685 18.5605 52.7224C18.4928 52.0798 18.3574 51.4372 18.1543 50.866C17.9513 50.2234 17.6805 49.6522 17.2744 49.081C16.8934 48.5452 16.3917 48.0806 15.8006 47.7928C15.7505 47.7684 15.7002 47.7456 15.6499 47.7244C15.4782 47.6519 15.289 47.5795 15.0913 47.507C14.6985 47.3631 14.2931 47.2521 13.8779 47.2005C13.8374 47.1955 13.7969 47.1907 13.7565 47.1863C13.3962 47.1471 13.0335 47.1858 12.6728 47.2219C12.4854 47.2407 12.3077 47.2585 12.1301 47.296C11.7239 47.3674 11.3855 47.5102 11.047 47.653C10.1671 48.01 9.35483 48.6526 8.88101 49.5094C8.61025 50.0092 8.3395 50.5804 8.20412 51.1516C7.96669 52.216 7.83337 53.3353 7.84979 54.4132C7.85426 54.7068 7.76328 54.9918 7.65505 55.2648C7.61034 55.3776 7.55673 55.4852 7.51043 55.5974C7.47745 55.6772 7.45927 55.7511 7.43977 55.8303C7.42623 55.8853 7.41206 55.9429 7.39186 56.0068C7.33108 56.2632 7.37945 56.4621 7.43896 56.7068C7.44573 56.7346 7.45264 56.763 7.45955 56.7922L7.45955 56.7922C7.52724 57.0064 7.59493 57.2206 7.7303 57.4348C7.79799 57.5776 7.86568 57.649 8.00105 57.7918C8.00105 57.7918 8.00106 57.7918 8.00107 57.7918C8.06875 57.8275 8.11951 57.8453 8.17028 57.8632C8.28027 57.9019 8.35388 58.0003 8.3788 58.1142L8.54257 58.8628C8.57641 58.9699 8.62718 59.077 8.67794 59.1841C8.72871 59.2912 8.77947 59.3983 8.81332 59.5054C8.88101 59.7196 9.01638 59.8624 9.15176 60.0052L9.82865 60.7192C10.0317 60.9334 10.1671 61.2904 10.1671 61.6474V62.3614C10.1671 62.5756 10.0994 62.7898 10.0317 63.004C9.94146 63.1944 9.85121 63.3213 9.76096 63.4483C9.71584 63.5117 9.67071 63.5752 9.62558 63.6466C9.42252 63.9322 9.15176 64.1464 8.88101 64.2892C8.40719 64.5748 7.93337 64.789 7.45955 64.9318C6.91804 65.0746 4.54894 65.9314 4.07512 66.1456C3.6013 66.3598 3.19517 66.574 2.78904 66.931C2.45059 67.288 2.17984 67.7878 2.11215 68.359C1.97677 69.0016 1.97677 69.7156 2.04446 70.3582C2.04446 71.2123 2.82776 71.8525 3.66899 72.0004C6.91804 72.643 10.1671 73 13.4161 73C16.6652 73 19.8466 72.5716 22.8925 71.6434C23.1633 71.572 23.3663 71.4292 23.5694 71.2864C23.5694 71.2864 23.5694 71.2864 23.5694 71.2864C23.592 71.1912 23.6221 71.096 23.6522 71.0008C23.7696 70.629 23.8161 70.2366 23.8322 69.847C23.8402 69.6545 23.8402 69.4623 23.8402 69.2872V69.2872C23.8402 69.0773 23.8402 69.0559 23.8322 69.0384C23.8239 69.0201 23.807 69.0059 23.7725 68.7874C23.7387 68.6089 23.7048 68.4482 23.671 68.2876C23.6371 68.1269 23.6033 67.9663 23.5694 67.7878Z" fill="white"/>
<path fill-rule="evenodd" clip-rule="evenodd" d="M19.8499 45C19.27 45 18.7999 45.4822 18.7999 46.077C18.7999 46.6717 19.27 47.1539 19.8499 47.1539H28.95C29.5299 47.1539 30 46.6717 30 46.077C30 45.4822 29.5299 45 28.95 45H19.8499ZM21.9499 50.7439C21.37 50.7439 20.8999 51.2261 20.8999 51.8208C20.8999 52.4156 21.37 52.8978 21.9499 52.8978H28.95C29.5299 52.8978 30 52.4156 30 51.8208C30 51.2261 29.5299 50.7439 28.95 50.7439H21.9499ZM20.8999 58.2835C20.8999 57.6887 21.37 57.2066 21.9499 57.2066H28.95C29.5299 57.2066 30 57.6887 30 58.2835C30 58.8783 29.5299 59.3605 28.95 59.3605H21.9499C21.37 59.3605 20.8999 58.8783 20.8999 58.2835ZM23.5694 67.7878C23.4341 67.3594 23.231 67.0024 22.8925 66.7168C22.7797 66.6216 22.6669 66.5343 22.5541 66.4471C22.0878 66.0864 21.5924 65.7442 21.0574 65.4965C21.0476 65.4919 21.0378 65.4874 21.0279 65.4828C20.3411 65.1648 19.4748 64.7636 19.1697 64.7176C18.8359 64.6673 18.5358 64.5462 18.2455 64.429C18.1237 64.3799 18.0037 64.3314 17.8836 64.2892C17.4775 64.1464 17.139 63.9322 16.8683 63.6466C16.6652 63.4324 16.4621 63.1468 16.3268 62.8612C16.1914 62.647 16.1237 62.3614 16.1237 62.0758C16.1237 61.7249 16.1691 61.3741 16.2599 61.0232C16.3001 60.8679 16.3286 60.7019 16.4306 60.578C16.5031 60.49 16.587 60.4062 16.6667 60.3246C16.6776 60.3134 16.6883 60.3021 16.699 60.2908C16.8004 60.1839 16.9186 60.0915 17.0336 59.9994C17.0462 59.9894 17.0588 59.9794 17.0713 59.9695C17.139 59.9159 17.2067 59.8624 17.2744 59.791C17.4098 59.6482 17.5451 59.5054 17.6128 59.2912C17.6467 59.1841 17.6974 59.077 17.7482 58.9699C17.799 58.8628 17.8497 58.7557 17.8836 58.6486C17.9115 58.5602 17.9394 58.4597 17.9674 58.3521C18.0461 58.0485 18.277 57.8052 18.4928 57.5776C18.6282 57.4348 18.7635 57.292 18.8312 57.0778C18.9176 56.8956 18.9764 56.7135 19.0077 56.5313C19.0427 56.3271 19.0702 56.1201 19.0827 55.9132C19.0848 55.8796 19.0855 55.8469 19.0848 55.8148C19.0809 55.6074 19.0303 55.3988 18.9537 55.206C18.9385 55.1677 18.9242 55.1345 18.914 55.1116C18.9041 55.0894 18.9047 55.0952 18.8968 55.0723C18.8323 54.8854 18.6967 54.6692 18.6915 54.4716C18.6755 53.8662 18.618 53.2685 18.5605 52.7224C18.4928 52.0798 18.3574 51.4372 18.1543 50.866C17.9513 50.2234 17.6805 49.6522 17.2744 49.081C16.8934 48.5452 16.3917 48.0806 15.8006 47.7928C15.7505 47.7684 15.7002 47.7456 15.6499 47.7244C15.4782 47.6519 15.289 47.5795 15.0913 47.507C14.6985 47.3631 14.2931 47.2521 13.8779 47.2005C13.8374 47.1955 13.7969 47.1907 13.7565 47.1863C13.3962 47.1471 13.0335 47.1858 12.6728 47.2219C12.4854 47.2407 12.3077 47.2585 12.1301 47.296C11.7239 47.3674 11.3855 47.5102 11.047 47.653C10.1671 48.01 9.35483 48.6526 8.88101 49.5094C8.61025 50.0092 8.3395 50.5804 8.20412 51.1516C7.96669 52.216 7.83337 53.3353 7.84979 54.4132C7.85426 54.7068 7.76328 54.9918 7.65505 55.2648C7.61034 55.3776 7.55673 55.4852 7.51043 55.5974C7.47745 55.6772 7.45927 55.7511 7.43977 55.8303C7.42623 55.8853 7.41206 55.9429 7.39186 56.0068C7.33108 56.2632 7.37945 56.4621 7.43896 56.7068C7.44573 56.7346 7.45264 56.763 7.45955 56.7922L7.45955 56.7922C7.52724 57.0064 7.59493 57.2206 7.7303 57.4348C7.79799 57.5776 7.86568 57.649 8.00105 57.7918C8.00105 57.7918 8.00106 57.7918 8.00107 57.7918C8.06875 57.8275 8.11951 57.8453 8.17028 57.8632C8.28027 57.9019 8.35388 58.0003 8.3788 58.1142L8.54257 58.8628C8.57641 58.9699 8.62718 59.077 8.67794 59.1841C8.72871 59.2912 8.77947 59.3983 8.81332 59.5054C8.88101 59.7196 9.01638 59.8624 9.15176 60.0052L9.82865 60.7192C10.0317 60.9334 10.1671 61.2904 10.1671 61.6474V62.3614C10.1671 62.5756 10.0994 62.7898 10.0317 63.004C9.94146 63.1944 9.85121 63.3213 9.76096 63.4483C9.71584 63.5117 9.67071 63.5752 9.62558 63.6466C9.42252 63.9322 9.15176 64.1464 8.88101 64.2892C8.40719 64.5748 7.93337 64.789 7.45955 64.9318C6.91804 65.0746 4.54894 65.9314 4.07512 66.1456C3.6013 66.3598 3.19517 66.574 2.78904 66.931C2.45059 67.288 2.17984 67.7878 2.11215 68.359C1.97677 69.0016 1.97677 69.7156 2.04446 70.3582C2.04446 71.2123 2.82776 71.8525 3.66899 72.0004C6.91804 72.643 10.1671 73 13.4161 73C16.6652 73 19.8466 72.5716 22.8925 71.6434C23.1633 71.572 23.3663 71.4292 23.5694 71.2864C23.5694 71.2864 23.5694 71.2864 23.5694 71.2864C23.592 71.1912 23.6221 71.096 23.6522 71.0008C23.7696 70.629 23.8161 70.2366 23.8322 69.847C23.8402 69.6545 23.8402 69.4623 23.8402 69.2872V69.2872C23.8402 69.0773 23.8402 69.0559 23.8322 69.0384C23.8239 69.0201 23.807 69.0059 23.7725 68.7874C23.7387 68.6089 23.7048 68.4482 23.671 68.2876C23.6371 68.1269 23.6033 67.9663 23.5694 67.7878Z" fill="#364256"/>
<defs>
<linearGradient id="paint0_linear_0_1" x1="48.2019" y1="-32" x2="48.2019" y2="98" gradientUnits="userSpaceOnUse">
<stop stop-color="#364256"/>
<stop offset="1" stop-color="#364256" stop-opacity="0"/>
</linearGradient>
</defs>
</svg>
