<svg width="85" height="75" viewBox="0 0 85 75" fill="none" xmlns="http://www.w3.org/2000/svg">
<path d="M20.704 74.056C14.6027 74.056 9.968 72.1787 6.8 68.424C3.632 64.6693 2.048 59.6533 2.048 53.376V21.784C2.048 15.272 3.57333 10.168 6.624 6.472C9.73333 2.77599 14.4267 0.927994 20.704 0.927994C26.864 0.927994 31.4693 2.80533 34.52 6.56C37.6293 10.256 39.184 15.3307 39.184 21.784V53.376C39.184 59.6533 37.6 64.6693 34.432 68.424C31.264 72.1787 26.688 74.056 20.704 74.056ZM20.704 63.584C24.8107 63.584 26.864 60.1227 26.864 53.2V21.96C26.864 18.8507 26.4533 16.328 25.632 14.392C24.8107 12.3973 23.168 11.4 20.704 11.4C18.1813 11.4 16.5093 12.368 15.688 14.304C14.8667 16.24 14.456 18.792 14.456 21.96V53.2C14.456 60.1227 16.5387 63.584 20.704 63.584ZM65.7311 74.056C53.2938 74.056 47.0751 67.2507 47.0751 53.64V51.176H59.2191V53.288C59.2778 56.9253 59.7765 59.5947 60.7151 61.296C61.6538 62.9973 63.3551 63.848 65.8191 63.848C68.2831 63.848 69.9551 62.9387 70.8351 61.12C71.7738 59.3013 72.2431 56.4853 72.2431 52.672C72.2431 48.8 71.5978 45.8667 70.3071 43.872C69.0751 41.8773 66.9338 40.792 63.8831 40.616H61.8591V30.848H63.6191C66.7871 30.7893 69.0165 29.9387 70.3071 28.296C71.5978 26.6533 72.2431 23.9547 72.2431 20.2C72.2431 16.9733 71.7445 14.568 70.7471 12.984C69.8085 11.4 68.1071 10.608 65.6431 10.608C63.2378 10.608 61.5658 11.4587 60.6271 13.16C59.7471 14.8613 59.2778 17.384 59.2191 20.728V23.28H47.0751V19.936C47.0751 13.8347 48.6591 9.14133 51.8271 5.856C55.0538 2.512 59.6591 0.839995 65.6431 0.839995C71.6858 0.839995 76.2911 2.48266 79.4591 5.76799C82.6858 8.99466 84.2991 13.6293 84.2991 19.672C84.2991 23.8373 83.4191 27.2987 81.6591 30.056C79.9578 32.7547 77.6991 34.5147 74.8831 35.336C77.8165 36.3333 80.1045 38.24 81.7471 41.056C83.4485 43.8133 84.2991 47.5973 84.2991 52.408C84.2991 59.2133 82.8031 64.5227 79.8111 68.336C76.8191 72.1493 72.1258 74.056 65.7311 74.056Z" fill="url(#paint0_linear_0_1)" fill-opacity="0.15"/>
<path d="M8.30434 62.036L8.25219 61.9858L17.3632 53.8402L5.23815 59.0738L0.343713 54.3436C0.204532 54.209 0.101847 54.0367 0.0464741 53.8449C-0.00889843 53.6531 -0.0149079 53.4489 0.0290788 53.2537C0.0730655 53.0586 0.16542 52.8797 0.296413 52.736C0.427405 52.5923 0.592187 52.4891 0.773397 52.4372L26.69 45.0372C26.868 44.9867 27.0553 44.9876 27.2329 45.0398C27.4105 45.0919 27.5721 45.1934 27.7011 45.334C27.8302 45.4746 27.9221 45.6493 27.9676 45.8402C28.0132 46.0312 28.0106 46.2317 27.9603 46.4212L21.0561 72.1907C21.0074 72.3729 20.9162 72.5389 20.7909 72.673C20.6657 72.8071 20.5106 72.9048 20.3403 72.9569C20.17 73.0091 19.9901 73.014 19.8176 72.9711C19.645 72.9282 19.4855 72.839 19.3541 72.7119L12.6502 66.2338L8.30434 70.8837V62.036Z" fill="#364256"/>
<defs>
<linearGradient id="paint0_linear_0_1" x1="46.2019" y1="-32" x2="46.2019" y2="98" gradientUnits="userSpaceOnUse">
<stop stop-color="#364256"/>
<stop offset="1" stop-color="#364256" stop-opacity="0"/>
</linearGradient>
</defs>
</svg>
