<svg width="87" height="75" viewBox="0 0 87 75" fill="none" xmlns="http://www.w3.org/2000/svg">
<path d="M22.704 74.056C16.6027 74.056 11.968 72.1787 8.8 68.424C5.632 64.6693 4.048 59.6533 4.048 53.376V21.784C4.048 15.272 5.57333 10.168 8.624 6.472C11.7333 2.77599 16.4267 0.927994 22.704 0.927994C28.864 0.927994 33.4693 2.80533 36.52 6.56C39.6293 10.256 41.184 15.3307 41.184 21.784V53.376C41.184 59.6533 39.6 64.6693 36.432 68.424C33.264 72.1787 28.688 74.056 22.704 74.056ZM22.704 63.584C26.8107 63.584 28.864 60.1227 28.864 53.2V21.96C28.864 18.8507 28.4533 16.328 27.632 14.392C26.8107 12.3973 25.168 11.4 22.704 11.4C20.1813 11.4 18.5093 12.368 17.688 14.304C16.8667 16.24 16.456 18.792 16.456 21.96V53.2C16.456 60.1227 18.5387 63.584 22.704 63.584ZM67.7311 74.056C55.2938 74.056 49.0751 67.2507 49.0751 53.64V51.176H61.2191V53.288C61.2778 56.9253 61.7765 59.5947 62.7151 61.296C63.6538 62.9973 65.3551 63.848 67.8191 63.848C70.2831 63.848 71.9551 62.9387 72.8351 61.12C73.7738 59.3013 74.2431 56.4853 74.2431 52.672C74.2431 48.8 73.5978 45.8667 72.3071 43.872C71.0751 41.8773 68.9338 40.792 65.8831 40.616H63.8591V30.848H65.6191C68.7871 30.7893 71.0165 29.9387 72.3071 28.296C73.5978 26.6533 74.2431 23.9547 74.2431 20.2C74.2431 16.9733 73.7445 14.568 72.7471 12.984C71.8085 11.4 70.1071 10.608 67.6431 10.608C65.2378 10.608 63.5658 11.4587 62.6271 13.16C61.7471 14.8613 61.2778 17.384 61.2191 20.728V23.28H49.0751V19.936C49.0751 13.8347 50.6591 9.14133 53.8271 5.856C57.0538 2.512 61.6591 0.839995 67.6431 0.839995C73.6858 0.839995 78.2911 2.48266 81.4591 5.76799C84.6858 8.99466 86.2991 13.6293 86.2991 19.672C86.2991 23.8373 85.4191 27.2987 83.6591 30.056C81.9578 32.7547 79.6991 34.5147 76.8831 35.336C79.8165 36.3333 82.1045 38.24 83.7471 41.056C85.4485 43.8133 86.2991 47.5973 86.2991 52.408C86.2991 59.2133 84.8031 64.5227 81.8111 68.336C78.8191 72.1493 74.1258 74.056 67.7311 74.056Z" fill="url(#paint0_linear_0_1)" fill-opacity="0.15"/>
<path fill-rule="evenodd" clip-rule="evenodd" d="M15.6003 52.9556C17.7795 53.3479 19.864 51.8993 20.2563 49.7202C20.6486 47.541 19.2 45.4564 17.0209 45.0641C15.0865 44.7159 13.2267 45.8182 12.5588 47.5944C7.9697 48.8736 4.277 52.669 3.37002 57.6713C3.27284 58.2073 3.21046 58.7416 3.18129 59.2717C3.13055 60.1941 3.9776 60.6507 4.88656 60.8155C5.53807 60.9337 6.22072 60.1115 6.2562 59.4503C6.27805 59.043 6.32568 58.6326 6.40035 58.2207C6.51672 57.5789 6.69342 56.9633 6.92356 56.3785C6.9517 56.307 6.9891 56.2398 7.02651 56.1726L7.02652 56.1726L7.02654 56.1726C7.04047 56.1475 7.0544 56.1225 7.06785 56.0973C7.1885 55.8708 7.32771 55.6517 7.46839 55.4303C7.55594 55.2925 7.64406 55.1539 7.72864 55.0119C8.92128 53.0106 10.718 51.5914 12.7475 50.8483C13.2998 51.9168 14.3249 52.726 15.6003 52.9556ZM28.4903 63.278C29.3793 64.1747 29.8318 65.4762 29.5911 66.8134C29.1988 68.9924 27.1145 70.4408 24.9355 70.0485C22.7565 69.6563 21.3081 67.5719 21.7003 65.3929C22.0415 63.4979 23.6625 62.1555 25.5125 62.0958C25.5417 61.9652 25.5683 61.8334 25.5924 61.7006C26.2475 58.0877 24.8215 54.5792 22.1683 52.4073C21.4723 51.8375 21.0385 50.9864 21.3855 50.1564C21.4025 50.1158 21.4171 50.0817 21.4285 50.0555C21.4351 50.0402 21.4376 50.0323 21.4395 50.0264C21.4427 50.0167 21.4441 50.0122 21.4588 49.9894C21.8106 49.4443 22.8333 49.0779 23.3642 49.4506C26.6446 51.7534 28.7243 55.519 28.8269 59.6272C28.894 60.8452 28.7892 62.072 28.4903 63.278ZM15.9384 72.8113L15.9384 72.8113C15.8165 72.8221 15.6947 72.833 15.573 72.828C14.1511 72.7702 12.7248 72.4746 11.3541 71.9263C10.0315 71.4148 8.82783 70.6962 7.77477 69.816C7.14699 70.0324 6.45675 70.096 5.75677 69.97C3.57296 69.5768 2.12132 67.4878 2.51444 65.304C2.90756 63.1202 4.99657 61.6686 7.18037 62.0617C9.36417 62.4548 10.8158 64.5438 10.4227 66.7276C10.3607 67.0721 10.2565 67.3983 10.1164 67.7019C10.4307 67.9459 10.7634 68.1733 11.1139 68.3822C11.5562 68.6457 12.0109 68.8703 12.474 69.0567C13.0409 69.2756 13.6365 69.4443 14.2565 69.5567C15.834 69.8427 17.3916 69.732 18.8268 69.2955C19.5879 69.0641 20.4149 69.4227 20.7002 70.1652C20.9907 70.9216 20.7607 71.9051 19.9908 72.1579C18.7888 72.5528 17.5176 72.7729 16.2131 72.7935C16.1216 72.795 16.03 72.8031 15.9384 72.8113L15.9384 72.8113Z" fill="#364256"/>
<defs>
<linearGradient id="paint0_linear_0_1" x1="48.2019" y1="-32" x2="48.2019" y2="98" gradientUnits="userSpaceOnUse">
<stop stop-color="#364256"/>
<stop offset="1" stop-color="#364256" stop-opacity="0"/>
</linearGradient>
</defs>
</svg>
