<svg width="87" height="75" viewBox="0 0 87 75" fill="none" xmlns="http://www.w3.org/2000/svg">
<path d="M22.704 74.056C16.6027 74.056 11.968 72.1787 8.8 68.424C5.632 64.6693 4.048 59.6533 4.048 53.376V21.784C4.048 15.272 5.57333 10.168 8.624 6.472C11.7333 2.77599 16.4267 0.927994 22.704 0.927994C28.864 0.927994 33.4693 2.80533 36.52 6.56C39.6293 10.256 41.184 15.3307 41.184 21.784V53.376C41.184 59.6533 39.6 64.6693 36.432 68.424C33.264 72.1787 28.688 74.056 22.704 74.056ZM22.704 63.584C26.8107 63.584 28.864 60.1227 28.864 53.2V21.96C28.864 18.8507 28.4533 16.328 27.632 14.392C26.8107 12.3973 25.168 11.4 22.704 11.4C20.1813 11.4 18.5093 12.368 17.688 14.304C16.8667 16.24 16.456 18.792 16.456 21.96V53.2C16.456 60.1227 18.5387 63.584 22.704 63.584ZM49.5151 64.376L67.1151 37.184L68.7871 34.632C70.7818 31.464 72.2485 28.824 73.1871 26.712C74.1845 24.5413 74.6831 22.1067 74.6831 19.408C74.6831 13.8933 72.7471 11.136 68.8751 11.136C66.1765 11.136 64.2991 12.1627 63.2431 14.216C62.1871 16.2693 61.6591 19.0267 61.6591 22.488V25.48H49.7791V22.312C49.7791 15.624 51.2751 10.4027 54.2671 6.648C57.2591 2.83466 62.0111 0.927994 68.5231 0.927994C74.5071 0.927994 79.0245 2.54133 82.0751 5.76799C85.1845 8.99466 86.7391 13.5707 86.7391 19.496C86.7391 22.2533 86.3578 24.8053 85.5951 27.152C84.8325 29.4987 83.9231 31.5813 82.8671 33.4C81.8111 35.2187 80.1685 37.8 77.9391 41.144L63.3311 63.232H84.9791V73H49.5151V64.376Z" fill="url(#paint0_linear_0_1)" fill-opacity="0.15"/>
<path d="M25.8412 48.9167H24.1098C23.6424 48.9167 23.2596 49.3033 23.2596 49.7856C23.2596 50.2632 23.638 50.6545 24.1098 50.6545H24.1276V50.6727H25.8412C26.7582 50.6727 27.6261 51.0321 28.2804 51.7008C28.9347 52.3695 29.2864 53.2521 29.2864 54.1938C29.2864 55.1309 28.9347 56.018 28.2804 56.6867C27.6261 57.3509 26.7626 57.7103 25.8412 57.7103V55.9589L23.2596 58.5974L25.8412 61.2359V59.4845C28.6855 59.4845 31 57.1189 31 54.212C30.9822 51.2641 28.6855 48.9167 25.8412 48.9167ZM8.74036 68.2053L6.15875 65.5668V67.3182C5.24184 67.3182 4.37389 66.9589 3.71958 66.2901C3.06528 65.6214 2.71365 64.7388 2.71365 63.7971C2.71365 62.86 3.06528 61.9729 3.71958 61.3042C4.37389 60.6354 5.23739 60.2761 6.15875 60.2761H7.8724C8.01929 60.2761 8.16617 60.2351 8.29525 60.1578C8.55786 60.0031 8.7181 59.7165 8.7181 59.4072C8.7181 59.0978 8.55786 58.8112 8.29525 58.6565C8.16617 58.5792 8.01929 58.5383 7.8724 58.5383V58.5201H6.15875C3.31454 58.5383 1 60.9038 1 63.8108C1 66.7177 3.31454 69.0833 6.15875 69.0833V70.8348L8.74036 68.2053ZM18.7062 45.25H13.5297C11.411 45.25 9.67953 47.0196 9.67953 49.1851C9.67953 51.3505 11.411 53.1201 13.5297 53.1201H18.7062C20.8427 53.1201 22.5564 51.3505 22.5564 49.1851C22.5564 47.0196 20.8249 45.25 18.7062 45.25ZM18.7062 54.9489H13.5297C11.411 54.9489 9.67953 56.7186 9.67953 58.884C9.67953 61.0494 11.411 62.8191 13.5297 62.8191H18.7062C20.8427 62.8191 22.5564 61.0494 22.5564 58.884C22.5564 56.7186 20.8249 54.9489 18.7062 54.9489ZM18.7062 64.8799H13.5297C11.411 64.8799 9.67953 66.6495 9.67953 68.8149C9.67953 70.9804 11.411 72.75 13.5297 72.75H18.7062C20.8427 72.75 22.5564 70.9804 22.5564 68.8149C22.5564 66.6495 20.8249 64.8799 18.7062 64.8799Z" fill="#364256"/>
<defs>
<linearGradient id="paint0_linear_0_1" x1="48.2019" y1="-32" x2="48.2019" y2="98" gradientUnits="userSpaceOnUse">
<stop stop-color="#364256"/>
<stop offset="1" stop-color="#364256" stop-opacity="0"/>
</linearGradient>
</defs>
</svg>
