<svg width="77" height="75" viewBox="0 0 77 75" fill="none" xmlns="http://www.w3.org/2000/svg">
<path d="M22.704 74.056C16.6027 74.056 11.968 72.1787 8.8 68.424C5.632 64.6693 4.048 59.6533 4.048 53.376V21.784C4.048 15.272 5.57333 10.168 8.624 6.472C11.7333 2.77599 16.4267 0.927994 22.704 0.927994C28.864 0.927994 33.4693 2.80533 36.52 6.56C39.6293 10.256 41.184 15.3307 41.184 21.784V53.376C41.184 59.6533 39.6 64.6693 36.432 68.424C33.264 72.1787 28.688 74.056 22.704 74.056ZM22.704 63.584C26.8107 63.584 28.864 60.1227 28.864 53.2V21.96C28.864 18.8507 28.4533 16.328 27.632 14.392C26.8107 12.3973 25.168 11.4 22.704 11.4C20.1813 11.4 18.5093 12.368 17.688 14.304C16.8667 16.24 16.456 18.792 16.456 21.96V53.2C16.456 60.1227 18.5387 63.584 22.704 63.584ZM64.0351 15.184C63.4485 15.5947 61.3071 16.2693 57.6111 17.208C54.6191 18.088 53.0938 18.5573 53.0351 18.616V9.552C55.3818 8.73067 57.9338 7.616 60.6911 6.20799C63.5071 4.74133 65.5605 3.24533 66.8511 1.71999H76.2671V73H64.0351V15.184Z" fill="url(#paint0_linear_0_1)" fill-opacity="0.15"/>
<path fill-rule="evenodd" clip-rule="evenodd" d="M5.67328 49.0824C5.86771 48.84 6.08851 48.6142 6.33237 48.4117L6.33896 48.4051L6.38839 48.3619H6.39169L6.61908 48.1727C6.64253 48.1538 6.66766 48.1365 6.69208 48.1198L6.70588 48.1103L6.72124 48.0996H6.71794L7.81863 47.1733L7.84169 47.1534L14.8347 41.5757C15.5168 41.0047 16.5121 41.0113 17.1876 41.5956L24.062 47.2729L24.1246 47.3294L25.5153 48.5279H25.5186L25.7229 48.7039C25.8679 48.83 26.003 48.9628 26.1315 49.1023C26.9356 49.9821 27.3904 51.1408 27.3904 52.3526V59.9522C27.3904 61.8447 26.2897 63.5578 24.5761 64.3347L17.8632 67.3759L17.6721 67.4622C17.6506 67.4722 17.6292 67.4813 17.6078 67.4904C17.5864 67.4996 17.565 67.5087 17.5435 67.5186C17.5435 67.5186 17.5402 67.5186 17.5369 67.522C17.4904 67.541 17.4436 67.5591 17.3966 67.5763L15.8092 68.2783L9.42262 70.775C8.61194 71.0937 7.82762 70.2604 8.18023 69.4602L9.74888 65.9376L9.92183 65.4675L7.41987 64.3347C5.70623 63.5578 4.60884 61.8447 4.60884 59.9522V52.1103C4.60884 50.998 4.99112 49.9323 5.67328 49.0824ZM7.64397 57.0206C7.9801 60.2212 10.3627 62.2431 15.998 62.3294C21.6332 62.2431 24.0191 60.2245 24.352 57.0239C24.5497 55.1249 24.3915 53.2623 24.2267 52.0638C24.1147 51.2404 23.5676 50.5365 22.7932 50.2444C19.6559 49.0691 17.5139 49.016 16.0013 49.016C13.9482 49.016 12.1719 49.1322 9.19942 50.2444C8.42499 50.5365 7.87794 51.2371 7.7659 52.0638C7.60442 53.259 7.44624 55.1215 7.64397 57.0206ZM3.20372 44.0352H3.60351C3.68918 44.0352 3.76343 44.0776 3.76343 44.1266V51.2227H4.01144C4.06417 51.2227 4.10372 51.2658 4.10372 51.3156V57.6237C4.10372 57.6769 4.06087 57.7167 4.01144 57.7167H3.0261C2.64053 57.7167 2.32746 57.4013 2.32417 57.0128V51.9298C2.32417 51.5381 2.64053 51.2227 3.0261 51.2227H3.0438V44.1266C3.0438 44.0776 3.11234 44.0352 3.20372 44.0352ZM27.9826 57.7399H28.968C29.3536 57.7399 29.6666 57.4245 29.6699 57.0361V51.9531C29.6699 51.5613 29.3536 51.2459 28.968 51.2459H27.9826C27.9299 51.2459 27.8904 51.2891 27.8904 51.3389V57.647C27.8904 57.7001 27.9332 57.7399 27.9826 57.7399ZM13.0843 56.4938H12.1155C11.9013 56.4938 11.7266 56.3179 11.7266 56.1021V53.0675C11.7266 52.8517 11.9013 52.6758 12.1155 52.6758H13.0843C13.2985 52.6758 13.4732 52.8517 13.4732 53.0675V56.1021C13.4732 56.3179 13.2985 56.4938 13.0843 56.4938ZM19.8829 56.4938H18.914C18.6998 56.4938 18.5251 56.3179 18.5251 56.1021V53.0675C18.5251 52.8517 18.6998 52.6758 18.914 52.6758H19.8829C20.0971 52.6758 20.2717 52.8517 20.2717 53.0675V56.1021C20.2717 56.3179 20.0971 56.4938 19.8829 56.4938ZM16.0072 59.7207C16.6531 59.7207 17.2595 59.5182 17.678 59.1696C17.7834 59.0799 17.7999 58.9206 17.7109 58.8143C17.622 58.7081 17.4638 58.6915 17.3583 58.7811C17.0288 59.0567 16.5378 59.2161 16.0105 59.2161C15.4733 59.2161 14.9757 59.0534 14.6495 58.7678C14.544 58.6782 14.3858 58.6882 14.2968 58.7944C14.2079 58.9006 14.2178 59.06 14.3232 59.1497C14.7351 59.5149 15.3514 59.7207 16.0072 59.7207Z" fill="#364256"/>
<defs>
<linearGradient id="paint0_linear_0_1" x1="48.2019" y1="-32" x2="48.2019" y2="98" gradientUnits="userSpaceOnUse">
<stop stop-color="#364256"/>
<stop offset="1" stop-color="#364256" stop-opacity="0"/>
</linearGradient>
</defs>
</svg>
