<svg width="77" height="75" viewBox="0 0 77 75" fill="none" xmlns="http://www.w3.org/2000/svg">
<path d="M22.704 74.056C16.6027 74.056 11.968 72.1787 8.8 68.424C5.632 64.6693 4.048 59.6533 4.048 53.376V21.784C4.048 15.272 5.57333 10.168 8.624 6.472C11.7333 2.77599 16.4267 0.927994 22.704 0.927994C28.864 0.927994 33.4693 2.80533 36.52 6.56C39.6293 10.256 41.184 15.3307 41.184 21.784V53.376C41.184 59.6533 39.6 64.6693 36.432 68.424C33.264 72.1787 28.688 74.056 22.704 74.056ZM22.704 63.584C26.8107 63.584 28.864 60.1227 28.864 53.2V21.96C28.864 18.8507 28.4533 16.328 27.632 14.392C26.8107 12.3973 25.168 11.4 22.704 11.4C20.1813 11.4 18.5093 12.368 17.688 14.304C16.8667 16.24 16.456 18.792 16.456 21.96V53.2C16.456 60.1227 18.5387 63.584 22.704 63.584ZM64.0351 15.184C63.4485 15.5947 61.3071 16.2693 57.6111 17.208C54.6191 18.088 53.0938 18.5573 53.0351 18.616V9.552C55.3818 8.73067 57.9338 7.616 60.6911 6.20799C63.5071 4.74133 65.5605 3.24533 66.8511 1.71999H76.2671V73H64.0351V15.184Z" fill="url(#paint0_linear_0_1)" fill-opacity="0.15"/>
<path d="M28.2479 54.124V67.4612C28.2479 69.413 26.6648 70.9961 24.713 70.9961H15.8469C15.4493 70.9961 15.124 70.6708 15.124 70.2732V68.6503C15.124 68.2527 15.4493 67.9274 15.8469 67.9274H23.7805C24.6986 67.9274 25.4395 67.1829 25.4395 66.2684V63.4962H21.4709C21.0733 63.4962 20.748 63.1709 20.748 62.7733V54.8469C20.748 54.4493 21.0733 54.124 21.4709 54.124H26.8166H25.3853V54.0698C25.3853 48.4023 20.7697 43.812 15.0734 43.812C9.38065 43.812 4.76142 48.406 4.76142 54.0698V54.124H2V59.9649C2 61.9167 3.58312 63.4998 5.5349 63.4998H8.77704C9.17463 63.4998 9.49993 63.1745 9.49993 62.7769V54.8469C9.49993 54.4493 9.17463 54.124 8.77704 54.124H2V54.0589C2 46.8481 7.87705 41 15.124 41C22.3709 41 28.2479 46.8445 28.2479 54.0589V54.124Z" fill="#364256"/>
<defs>
<linearGradient id="paint0_linear_0_1" x1="48.2019" y1="-32" x2="48.2019" y2="98" gradientUnits="userSpaceOnUse">
<stop stop-color="#364256"/>
<stop offset="1" stop-color="#364256" stop-opacity="0"/>
</linearGradient>
</defs>
</svg>
