<svg width="77" height="75" viewBox="0 0 77 75" fill="none" xmlns="http://www.w3.org/2000/svg">
<path d="M22.704 74.056C16.6027 74.056 11.968 72.1787 8.8 68.424C5.632 64.6693 4.048 59.6533 4.048 53.376V21.784C4.048 15.272 5.57333 10.168 8.624 6.472C11.7333 2.77599 16.4267 0.927994 22.704 0.927994C28.864 0.927994 33.4693 2.80533 36.52 6.56C39.6293 10.256 41.184 15.3307 41.184 21.784V53.376C41.184 59.6533 39.6 64.6693 36.432 68.424C33.264 72.1787 28.688 74.056 22.704 74.056ZM22.704 63.584C26.8107 63.584 28.864 60.1227 28.864 53.2V21.96C28.864 18.8507 28.4533 16.328 27.632 14.392C26.8107 12.3973 25.168 11.4 22.704 11.4C20.1813 11.4 18.5093 12.368 17.688 14.304C16.8667 16.24 16.456 18.792 16.456 21.96V53.2C16.456 60.1227 18.5387 63.584 22.704 63.584ZM64.0351 15.184C63.4485 15.5947 61.3071 16.2693 57.6111 17.208C54.6191 18.088 53.0938 18.5573 53.0351 18.616V9.552C55.3818 8.73067 57.9338 7.616 60.6911 6.20799C63.5071 4.74133 65.5605 3.24533 66.8511 1.71999H76.2671V73H64.0351V15.184Z" fill="url(#paint0_linear_0_1)" fill-opacity="0.15"/>
<path d="M29.0975 54.124V67.4612C29.0975 69.413 27.5144 70.9961 25.5626 70.9961H16.6965C16.2989 70.9961 15.9736 70.6708 15.9736 70.2732V68.6503C15.9736 68.2527 16.2989 67.9274 16.6965 67.9274H24.6301C25.5482 67.9274 26.2891 67.1829 26.2891 66.2684V63.4962H22.3205C21.9229 63.4962 21.5976 63.1709 21.5976 62.7733V54.8469C21.5976 54.4493 21.9229 54.124 22.3205 54.124H27.6662H26.2349V54.0698C26.2349 48.4023 21.6193 43.812 15.923 43.812C10.2303 43.812 5.61103 48.406 5.61103 54.0698V54.124H2.84961V59.9649C2.84961 61.9167 4.43273 63.4998 6.38451 63.4998H9.62665C10.0242 63.4998 10.3495 63.1745 10.3495 62.7769V54.8469C10.3495 54.4493 10.0242 54.124 9.62665 54.124H2.84961V54.0589C2.84961 46.8481 8.72666 41 15.9736 41C23.2205 41 29.0975 46.8445 29.0975 54.0589V54.124Z" fill="#364256"/>
<defs>
<linearGradient id="paint0_linear_0_1" x1="48.2019" y1="-32" x2="48.2019" y2="98" gradientUnits="userSpaceOnUse">
<stop stop-color="#364256"/>
<stop offset="1" stop-color="#364256" stop-opacity="0"/>
</linearGradient>
</defs>
</svg>
