<svg width="87" height="75" viewBox="0 0 87 75" fill="none" xmlns="http://www.w3.org/2000/svg">
<path d="M22.704 74.056C16.6027 74.056 11.968 72.1787 8.8 68.424C5.632 64.6693 4.048 59.6533 4.048 53.376V21.784C4.048 15.272 5.57333 10.168 8.624 6.472C11.7333 2.77599 16.4267 0.927994 22.704 0.927994C28.864 0.927994 33.4693 2.80533 36.52 6.56C39.6293 10.256 41.184 15.3307 41.184 21.784V53.376C41.184 59.6533 39.6 64.6693 36.432 68.424C33.264 72.1787 28.688 74.056 22.704 74.056ZM22.704 63.584C26.8107 63.584 28.864 60.1227 28.864 53.2V21.96C28.864 18.8507 28.4533 16.328 27.632 14.392C26.8107 12.3973 25.168 11.4 22.704 11.4C20.1813 11.4 18.5093 12.368 17.688 14.304C16.8667 16.24 16.456 18.792 16.456 21.96V53.2C16.456 60.1227 18.5387 63.584 22.704 63.584ZM49.5151 64.376L67.1151 37.184L68.7871 34.632C70.7818 31.464 72.2485 28.824 73.1871 26.712C74.1845 24.5413 74.6831 22.1067 74.6831 19.408C74.6831 13.8933 72.7471 11.136 68.8751 11.136C66.1765 11.136 64.2991 12.1627 63.2431 14.216C62.1871 16.2693 61.6591 19.0267 61.6591 22.488V25.48H49.7791V22.312C49.7791 15.624 51.2751 10.4027 54.2671 6.648C57.2591 2.83466 62.0111 0.927994 68.5231 0.927994C74.5071 0.927994 79.0245 2.54133 82.0751 5.76799C85.1845 8.99466 86.7391 13.5707 86.7391 19.496C86.7391 22.2533 86.3578 24.8053 85.5951 27.152C84.8325 29.4987 83.9231 31.5813 82.8671 33.4C81.8111 35.2187 80.1685 37.8 77.9391 41.144L63.3311 63.232H84.9791V73H49.5151V64.376Z" fill="url(#paint0_linear_0_1)" fill-opacity="0.15"/>
<path d="M29.098 57.124V70.4612C29.098 72.413 27.5149 73.9961 25.5631 73.9961H16.6969C16.2994 73.9961 15.9741 73.6708 15.9741 73.2732V71.6503C15.9741 71.2527 16.2994 70.9274 16.6969 70.9274H24.6306C25.5487 70.9274 26.2896 70.1829 26.2896 69.2684V66.4962H22.321C21.9234 66.4962 21.5981 66.1709 21.5981 65.7733V57.8469C21.5981 57.4493 21.9234 57.124 22.321 57.124H27.6667H26.2354V57.0698C26.2354 51.4023 21.6198 46.812 15.9235 46.812C10.2307 46.812 5.61152 51.406 5.61152 57.0698V57.124H2.8501V62.9649C2.8501 64.9167 4.43321 66.4998 6.385 66.4998H9.62714C10.0247 66.4998 10.35 66.1745 10.35 65.7769V57.8469C10.35 57.4493 10.0247 57.124 9.62714 57.124H2.8501V57.0589C2.8501 49.8481 8.72715 44 15.9741 44C23.221 44 29.098 49.8445 29.098 57.0589V57.124Z" fill="#364256"/>
<defs>
<linearGradient id="paint0_linear_0_1" x1="48.2019" y1="-32" x2="48.2019" y2="98" gradientUnits="userSpaceOnUse">
<stop stop-color="#364256"/>
<stop offset="1" stop-color="#364256" stop-opacity="0"/>
</linearGradient>
</defs>
</svg>
