<svg width="87" height="75" viewBox="0 0 87 75" fill="none" xmlns="http://www.w3.org/2000/svg">
<path d="M22.704 74.056C16.6027 74.056 11.968 72.1787 8.8 68.424C5.632 64.6693 4.048 59.6533 4.048 53.376V21.784C4.048 15.272 5.57333 10.168 8.624 6.472C11.7333 2.77599 16.4267 0.927994 22.704 0.927994C28.864 0.927994 33.4693 2.80533 36.52 6.56C39.6293 10.256 41.184 15.3307 41.184 21.784V53.376C41.184 59.6533 39.6 64.6693 36.432 68.424C33.264 72.1787 28.688 74.056 22.704 74.056ZM22.704 63.584C26.8107 63.584 28.864 60.1227 28.864 53.2V21.96C28.864 18.8507 28.4533 16.328 27.632 14.392C26.8107 12.3973 25.168 11.4 22.704 11.4C20.1813 11.4 18.5093 12.368 17.688 14.304C16.8667 16.24 16.456 18.792 16.456 21.96V53.2C16.456 60.1227 18.5387 63.584 22.704 63.584ZM67.7311 74.056C55.2938 74.056 49.0751 67.2507 49.0751 53.64V51.176H61.2191V53.288C61.2778 56.9253 61.7765 59.5947 62.7151 61.296C63.6538 62.9973 65.3551 63.848 67.8191 63.848C70.2831 63.848 71.9551 62.9387 72.8351 61.12C73.7738 59.3013 74.2431 56.4853 74.2431 52.672C74.2431 48.8 73.5978 45.8667 72.3071 43.872C71.0751 41.8773 68.9338 40.792 65.8831 40.616H63.8591V30.848H65.6191C68.7871 30.7893 71.0165 29.9387 72.3071 28.296C73.5978 26.6533 74.2431 23.9547 74.2431 20.2C74.2431 16.9733 73.7445 14.568 72.7471 12.984C71.8085 11.4 70.1071 10.608 67.6431 10.608C65.2378 10.608 63.5658 11.4587 62.6271 13.16C61.7471 14.8613 61.2778 17.384 61.2191 20.728V23.28H49.0751V19.936C49.0751 13.8347 50.6591 9.14133 53.8271 5.856C57.0538 2.512 61.6591 0.839995 67.6431 0.839995C73.6858 0.839995 78.2911 2.48266 81.4591 5.76799C84.6858 8.99466 86.2991 13.6293 86.2991 19.672C86.2991 23.8373 85.4191 27.2987 83.6591 30.056C81.9578 32.7547 79.6991 34.5147 76.8831 35.336C79.8165 36.3333 82.1045 38.24 83.7471 41.056C85.4485 43.8133 86.2991 47.5973 86.2991 52.408C86.2991 59.2133 84.8031 64.5227 81.8111 68.336C78.8191 72.1493 74.1258 74.056 67.7311 74.056Z" fill="url(#paint0_linear_0_1)" fill-opacity="0.15"/>
<path d="M25.8412 48.9167H24.1098C23.6424 48.9167 23.2596 49.3033 23.2596 49.7856C23.2596 50.2632 23.638 50.6545 24.1098 50.6545H24.1276V50.6727H25.8412C26.7582 50.6727 27.6261 51.0321 28.2804 51.7008C28.9347 52.3695 29.2864 53.2521 29.2864 54.1938C29.2864 55.1309 28.9347 56.018 28.2804 56.6867C27.6261 57.3509 26.7626 57.7103 25.8412 57.7103V55.9589L23.2596 58.5974L25.8412 61.2359V59.4845C28.6855 59.4845 31 57.1189 31 54.212C30.9822 51.2641 28.6855 48.9167 25.8412 48.9167ZM8.74036 68.2053L6.15875 65.5668V67.3182C5.24184 67.3182 4.37389 66.9589 3.71958 66.2901C3.06528 65.6214 2.71365 64.7388 2.71365 63.7971C2.71365 62.86 3.06528 61.9729 3.71958 61.3042C4.37389 60.6354 5.23739 60.2761 6.15875 60.2761H7.8724C8.01929 60.2761 8.16617 60.2351 8.29525 60.1578C8.55786 60.0031 8.7181 59.7165 8.7181 59.4072C8.7181 59.0978 8.55786 58.8112 8.29525 58.6565C8.16617 58.5792 8.01929 58.5383 7.8724 58.5383V58.5201H6.15875C3.31454 58.5383 1 60.9038 1 63.8108C1 66.7177 3.31454 69.0833 6.15875 69.0833V70.8348L8.74036 68.2053ZM18.7062 45.25H13.5297C11.411 45.25 9.67953 47.0196 9.67953 49.1851C9.67953 51.3505 11.411 53.1201 13.5297 53.1201H18.7062C20.8427 53.1201 22.5564 51.3505 22.5564 49.1851C22.5564 47.0196 20.8249 45.25 18.7062 45.25ZM18.7062 54.9489H13.5297C11.411 54.9489 9.67953 56.7186 9.67953 58.884C9.67953 61.0494 11.411 62.8191 13.5297 62.8191H18.7062C20.8427 62.8191 22.5564 61.0494 22.5564 58.884C22.5564 56.7186 20.8249 54.9489 18.7062 54.9489ZM18.7062 64.8799H13.5297C11.411 64.8799 9.67953 66.6495 9.67953 68.8149C9.67953 70.9804 11.411 72.75 13.5297 72.75H18.7062C20.8427 72.75 22.5564 70.9804 22.5564 68.8149C22.5564 66.6495 20.8249 64.8799 18.7062 64.8799Z" fill="#364256"/>
<defs>
<linearGradient id="paint0_linear_0_1" x1="48.2019" y1="-32" x2="48.2019" y2="98" gradientUnits="userSpaceOnUse">
<stop stop-color="#364256"/>
<stop offset="1" stop-color="#364256" stop-opacity="0"/>
</linearGradient>
</defs>
</svg>
