<svg width="77" height="75" viewBox="0 0 77 75" fill="none" xmlns="http://www.w3.org/2000/svg">
<path d="M22.704 74.056C16.6027 74.056 11.968 72.1787 8.8 68.424C5.632 64.6693 4.048 59.6533 4.048 53.376V21.784C4.048 15.272 5.57333 10.168 8.624 6.472C11.7333 2.77599 16.4267 0.927994 22.704 0.927994C28.864 0.927994 33.4693 2.80533 36.52 6.56C39.6293 10.256 41.184 15.3307 41.184 21.784V53.376C41.184 59.6533 39.6 64.6693 36.432 68.424C33.264 72.1787 28.688 74.056 22.704 74.056ZM22.704 63.584C26.8107 63.584 28.864 60.1227 28.864 53.2V21.96C28.864 18.8507 28.4533 16.328 27.632 14.392C26.8107 12.3973 25.168 11.4 22.704 11.4C20.1813 11.4 18.5093 12.368 17.688 14.304C16.8667 16.24 16.456 18.792 16.456 21.96V53.2C16.456 60.1227 18.5387 63.584 22.704 63.584ZM64.0351 15.184C63.4485 15.5947 61.3071 16.2693 57.6111 17.208C54.6191 18.088 53.0938 18.5573 53.0351 18.616V9.552C55.3818 8.73067 57.9338 7.616 60.6911 6.20799C63.5071 4.74133 65.5605 3.24533 66.8511 1.71999H76.2671V73H64.0351V15.184Z" fill="url(#paint0_linear_0_1)" fill-opacity="0.15"/>
<path d="M29.0443 44.4967C28.6534 44.148 28.1385 43.9572 27.6062 43.9572C27.5576 43.9572 27.5091 43.9572 27.4606 43.9605C27.4312 43.9638 27.0922 43.9836 26.5624 43.9836C25.6843 43.9836 23.97 43.9244 22.3461 43.5461C20.2493 43.056 17.8294 40.7861 17.1254 40.3388C16.7705 40.1119 16.362 40 15.9527 40C15.5451 40 15.1366 40.1119 14.7825 40.3355C14.6971 40.3914 12.1633 42.9671 9.68483 43.5461C8.06179 43.9244 6.31483 43.9836 5.43758 43.9836C4.9077 43.9836 4.56959 43.9638 4.53614 43.9605C4.49009 43.9572 4.44404 43.9572 4.39717 43.9572C3.86394 43.9572 3.34748 44.148 2.9549 44.4967C2.52886 44.875 2.28613 45.4046 2.28613 45.9605V50.9704C2.28613 69.4902 15.0396 71.875 15.5802 71.9703C15.7041 71.9902 15.8288 72 15.9536 72C16.0775 72 16.2038 71.9902 16.326 71.9703C16.8676 71.875 29.7147 69.4901 29.7147 50.9704V45.9605C29.7147 45.4046 29.4712 44.875 29.0443 44.4967ZM24.3299 51.6611L15.4882 60.0658C15.4329 60.1546 15.3651 60.2435 15.2831 60.3191C15.0236 60.5658 14.6804 60.6842 14.3405 60.6777C14.0007 60.6842 13.6583 60.5658 13.3989 60.3191C13.3169 60.2435 13.2482 60.1546 13.193 60.0658L8.46782 55.5724C7.9647 55.0954 7.9647 54.3224 8.46782 53.8421C8.97087 53.3652 9.78695 53.3652 10.2901 53.8421L14.3405 57.6941L22.5086 49.931C23.0117 49.454 23.8269 49.454 24.33 49.931C24.833 50.4078 24.833 51.1842 24.3299 51.6611Z" fill="#364256"/>
<defs>
<linearGradient id="paint0_linear_0_1" x1="48.2019" y1="-32" x2="48.2019" y2="98" gradientUnits="userSpaceOnUse">
<stop stop-color="#364256"/>
<stop offset="1" stop-color="#364256" stop-opacity="0"/>
</linearGradient>
</defs>
</svg>
