<svg width="87" height="75" viewBox="0 0 87 75" fill="none" xmlns="http://www.w3.org/2000/svg">
<path d="M22.704 74.056C16.6027 74.056 11.968 72.1787 8.8 68.424C5.632 64.6693 4.048 59.6533 4.048 53.376V21.784C4.048 15.272 5.57333 10.168 8.624 6.472C11.7333 2.77599 16.4267 0.927994 22.704 0.927994C28.864 0.927994 33.4693 2.80533 36.52 6.56C39.6293 10.256 41.184 15.3307 41.184 21.784V53.376C41.184 59.6533 39.6 64.6693 36.432 68.424C33.264 72.1787 28.688 74.056 22.704 74.056ZM22.704 63.584C26.8107 63.584 28.864 60.1227 28.864 53.2V21.96C28.864 18.8507 28.4533 16.328 27.632 14.392C26.8107 12.3973 25.168 11.4 22.704 11.4C20.1813 11.4 18.5093 12.368 17.688 14.304C16.8667 16.24 16.456 18.792 16.456 21.96V53.2C16.456 60.1227 18.5387 63.584 22.704 63.584ZM49.5151 64.376L67.1151 37.184L68.7871 34.632C70.7818 31.464 72.2485 28.824 73.1871 26.712C74.1845 24.5413 74.6831 22.1067 74.6831 19.408C74.6831 13.8933 72.7471 11.136 68.8751 11.136C66.1765 11.136 64.2991 12.1627 63.2431 14.216C62.1871 16.2693 61.6591 19.0267 61.6591 22.488V25.48H49.7791V22.312C49.7791 15.624 51.2751 10.4027 54.2671 6.648C57.2591 2.83466 62.0111 0.927994 68.5231 0.927994C74.5071 0.927994 79.0245 2.54133 82.0751 5.76799C85.1845 8.99466 86.7391 13.5707 86.7391 19.496C86.7391 22.2533 86.3578 24.8053 85.5951 27.152C84.8325 29.4987 83.9231 31.5813 82.8671 33.4C81.8111 35.2187 80.1685 37.8 77.9391 41.144L63.3311 63.232H84.9791V73H49.5151V64.376Z" fill="url(#paint0_linear_0_1)" fill-opacity="0.15"/>
<path d="M29.9439 65.5043C29.1972 65.0845 28.3331 64.9029 27.4741 64.9854C26.615 65.0679 25.8045 65.4102 25.1573 65.9638L23.1944 64.861V59.4162C23.1963 59.1371 23.1219 58.8624 22.9786 58.6203C22.8354 58.3781 22.6284 58.1771 22.3788 58.0378L17.341 55.2395V52.8318C18.1624 52.5619 18.8759 52.0493 19.3811 51.366C19.8863 50.6828 20.1578 49.8633 20.1574 49.0228C20.1581 48.4941 20.051 47.9706 19.8425 47.4821C19.6339 46.9936 19.328 46.5498 18.9421 46.1761C18.5563 45.8024 18.0981 45.5061 17.5939 45.3043C17.0897 45.1025 16.5494 44.9991 16.0039 45C15.459 44.9997 14.9193 45.1035 14.4158 45.3054C13.9124 45.5074 13.4549 45.8035 13.0696 46.1769C12.6842 46.5503 12.3787 46.9936 12.1703 47.4815C11.9619 47.9695 11.8548 48.4924 11.8551 49.0205C11.8548 49.861 12.1263 50.6805 12.6315 51.3637C13.1366 52.047 13.8501 52.5596 14.6715 52.8296V55.2372L9.63608 58.0493C9.38651 58.1886 9.17953 58.3896 9.03626 58.6318C8.89299 58.8739 8.81856 59.1486 8.82055 59.4277V64.8588L6.85757 65.9615C6.21041 65.4079 5.3999 65.0656 4.54084 64.9831C3.68178 64.9006 2.81772 65.0822 2.07105 65.502C1.12038 66.0363 0.426776 66.9137 0.141985 67.9423C-0.142807 68.9708 0.00440098 70.0669 0.551401 70.9905C0.820764 71.4469 1.18055 71.8473 1.61009 72.1685C2.03962 72.4898 2.53044 72.7256 3.05432 72.8625C3.57821 72.9993 4.12484 73.0345 4.6628 72.966C5.20075 72.8974 5.71943 72.7266 6.18902 72.4632C6.94051 72.0423 7.53685 71.4036 7.89409 70.637C8.25133 69.8704 8.35149 69.0146 8.18045 68.19L9.98458 67.1745L15.2002 70.083C15.4442 70.2217 15.7211 70.2969 16.0039 70.3013C16.2901 70.301 16.5713 70.2281 16.8194 70.0899L22.0351 67.186L23.8273 68.19C23.6589 69.0125 23.7595 69.8654 24.1152 70.6298C24.4709 71.3941 25.064 72.0319 25.8117 72.454C26.2812 72.7177 26.7999 72.8888 27.3379 72.9575C27.8759 73.0262 28.4226 72.9911 28.9466 72.8542C29.4706 72.7173 29.9614 72.4814 30.391 72.16C30.8205 71.8386 31.1801 71.438 31.4493 70.9813C31.9944 70.0605 32.142 68.9683 31.8601 67.9425C31.5781 66.9167 30.8894 66.0404 29.9439 65.5043ZM5.01314 70.4736C4.81189 70.5865 4.58959 70.6598 4.35901 70.6892C4.12844 70.7185 3.89415 70.7034 3.66962 70.6447C3.4451 70.586 3.23477 70.4848 3.05075 70.347C2.86673 70.2092 2.71264 70.0375 2.59735 69.8418C2.36559 69.4474 2.30382 68.9802 2.42545 68.5419C2.54708 68.1035 2.84229 67.7294 3.24693 67.5008C3.44818 67.3878 3.67049 67.3146 3.90106 67.2852C4.13163 67.2558 4.36592 67.2709 4.59045 67.3297C4.81497 67.3884 5.0253 67.4895 5.20932 67.6273C5.39334 67.7651 5.54743 67.9368 5.66272 68.1325C5.89448 68.527 5.95625 68.9942 5.83462 69.4325C5.71299 69.8708 5.41778 70.245 5.01314 70.4736ZM14.2258 49.0205C14.2258 48.5635 14.4132 48.1252 14.7466 47.8021C15.0801 47.4789 15.5323 47.2974 16.0039 47.2974C16.4755 47.2974 16.9277 47.4789 17.2612 47.8021C17.5946 48.1252 17.782 48.5635 17.782 49.0205C17.782 49.4774 17.5946 49.9157 17.2612 50.2388C16.9277 50.562 16.4755 50.7435 16.0039 50.7435C15.5323 50.7435 15.0801 50.562 14.7466 50.2388C14.4132 49.9157 14.2258 49.4774 14.2258 49.0205ZM20.5225 65.0379L16.0039 67.5628L11.4853 65.0357V59.9974L16.0039 57.4749L20.5225 60.002V65.0425V65.0379ZM29.4104 69.8441C29.2959 70.0406 29.1424 70.2131 28.9588 70.3519C28.7752 70.4907 28.5651 70.5929 28.3406 70.6527C28.1161 70.7125 27.8816 70.7286 27.6506 70.7003C27.4196 70.6719 27.1967 70.5996 26.9947 70.4874C26.5883 70.2579 26.2922 69.8819 26.1709 69.4416C26.0497 69.0013 26.1131 68.5323 26.3474 68.1371C26.4626 67.9416 26.6164 67.7699 26.8001 67.632C26.9837 67.4942 27.1937 67.3928 27.4179 67.3337C27.6421 67.2745 27.8761 67.2589 28.1065 67.2875C28.337 67.3162 28.5593 67.3887 28.7609 67.5008C29.1661 67.7294 29.4618 68.104 29.5835 68.5428C29.7051 68.9817 29.6429 69.4494 29.4104 69.8441Z" fill="#364256"/>
<defs>
<linearGradient id="paint0_linear_0_1" x1="48.2019" y1="-32" x2="48.2019" y2="98" gradientUnits="userSpaceOnUse">
<stop stop-color="#364256"/>
<stop offset="1" stop-color="#364256" stop-opacity="0"/>
</linearGradient>
</defs>
</svg>
