<svg width="87" height="75" viewBox="0 0 87 75" fill="none" xmlns="http://www.w3.org/2000/svg">
<path d="M22.704 74.056C16.6027 74.056 11.968 72.1787 8.8 68.424C5.632 64.6693 4.048 59.6533 4.048 53.376V21.784C4.048 15.272 5.57333 10.168 8.624 6.472C11.7333 2.77599 16.4267 0.927994 22.704 0.927994C28.864 0.927994 33.4693 2.80533 36.52 6.56C39.6293 10.256 41.184 15.3307 41.184 21.784V53.376C41.184 59.6533 39.6 64.6693 36.432 68.424C33.264 72.1787 28.688 74.056 22.704 74.056ZM22.704 63.584C26.8107 63.584 28.864 60.1227 28.864 53.2V21.96C28.864 18.8507 28.4533 16.328 27.632 14.392C26.8107 12.3973 25.168 11.4 22.704 11.4C20.1813 11.4 18.5093 12.368 17.688 14.304C16.8667 16.24 16.456 18.792 16.456 21.96V53.2C16.456 60.1227 18.5387 63.584 22.704 63.584ZM67.7311 74.056C55.2938 74.056 49.0751 67.2507 49.0751 53.64V51.176H61.2191V53.288C61.2778 56.9253 61.7765 59.5947 62.7151 61.296C63.6538 62.9973 65.3551 63.848 67.8191 63.848C70.2831 63.848 71.9551 62.9387 72.8351 61.12C73.7738 59.3013 74.2431 56.4853 74.2431 52.672C74.2431 48.8 73.5978 45.8667 72.3071 43.872C71.0751 41.8773 68.9338 40.792 65.8831 40.616H63.8591V30.848H65.6191C68.7871 30.7893 71.0165 29.9387 72.3071 28.296C73.5978 26.6533 74.2431 23.9547 74.2431 20.2C74.2431 16.9733 73.7445 14.568 72.7471 12.984C71.8085 11.4 70.1071 10.608 67.6431 10.608C65.2378 10.608 63.5658 11.4587 62.6271 13.16C61.7471 14.8613 61.2778 17.384 61.2191 20.728V23.28H49.0751V19.936C49.0751 13.8347 50.6591 9.14133 53.8271 5.856C57.0538 2.512 61.6591 0.839995 67.6431 0.839995C73.6858 0.839995 78.2911 2.48266 81.4591 5.76799C84.6858 8.99466 86.2991 13.6293 86.2991 19.672C86.2991 23.8373 85.4191 27.2987 83.6591 30.056C81.9578 32.7547 79.6991 34.5147 76.8831 35.336C79.8165 36.3333 82.1045 38.24 83.7471 41.056C85.4485 43.8133 86.2991 47.5973 86.2991 52.408C86.2991 59.2133 84.8031 64.5227 81.8111 68.336C78.8191 72.1493 74.1258 74.056 67.7311 74.056Z" fill="url(#paint0_linear_0_1)" fill-opacity="0.15"/>
<path d="M17.5556 68.3333H8.22222C7.80966 68.3333 7.414 68.1694 7.12228 67.8777C6.83056 67.586 6.66667 67.1903 6.66667 66.7778V62.1111C6.66667 61.6986 6.83056 61.3029 7.12228 61.0112C7.414 60.7194 7.80966 60.5556 8.22222 60.5556C8.63478 60.5556 9.03044 60.7194 9.32217 61.0112C9.61389 61.3029 9.77778 61.6986 9.77778 62.1111V65.2222H17.5556V62.1111C17.5556 61.6986 17.7194 61.3029 18.0112 61.0112C18.3029 60.7194 18.6986 60.5556 19.1111 60.5556H28.4444C28.857 60.5556 29.2527 60.7194 29.5444 61.0112C29.8361 61.3029 30 61.6986 30 62.1111V71.4444C30 71.857 29.8361 72.2527 29.5444 72.5444C29.2527 72.8361 28.857 73 28.4444 73H19.1111C18.6986 73 18.3029 72.8361 18.0112 72.5444C17.7194 72.2527 17.5556 71.857 17.5556 71.4444V68.3333ZM14.4444 52.7778V55.8889C14.4444 56.3014 14.2806 56.6971 13.9888 56.9888C13.6971 57.2806 13.3014 57.4444 12.8889 57.4444H3.55556C3.143 57.4444 2.74734 57.2806 2.45561 56.9888C2.16389 56.6971 2 56.3014 2 55.8889V46.5556C2 46.143 2.16389 45.7473 2.45561 45.4556C2.74734 45.1639 3.143 45 3.55556 45H12.8889C13.3014 45 13.6971 45.1639 13.9888 45.4556C14.2806 45.7473 14.4444 46.143 14.4444 46.5556V49.6667H23.7778C24.1903 49.6667 24.586 49.8306 24.8777 50.1223C25.1694 50.414 25.3333 50.8097 25.3333 51.2222V55.8889C25.3333 56.3014 25.1694 56.6971 24.8777 56.9888C24.586 57.2806 24.1903 57.4444 23.7778 57.4444C23.3652 57.4444 22.9696 57.2806 22.6778 56.9888C22.3861 56.6971 22.2222 56.3014 22.2222 55.8889V52.7778H14.4444Z" fill="#364256"/>
<defs>
<linearGradient id="paint0_linear_0_1" x1="48.2019" y1="-32" x2="48.2019" y2="98" gradientUnits="userSpaceOnUse">
<stop stop-color="#364256"/>
<stop offset="1" stop-color="#364256" stop-opacity="0"/>
</linearGradient>
</defs>
</svg>
