<svg width="87" height="75" viewBox="0 0 87 75" fill="none" xmlns="http://www.w3.org/2000/svg">
<path d="M22.704 74.056C16.6027 74.056 11.968 72.1787 8.8 68.424C5.632 64.6693 4.048 59.6533 4.048 53.376V21.784C4.048 15.272 5.57333 10.168 8.624 6.472C11.7333 2.77599 16.4267 0.927994 22.704 0.927994C28.864 0.927994 33.4693 2.80533 36.52 6.56C39.6293 10.256 41.184 15.3307 41.184 21.784V53.376C41.184 59.6533 39.6 64.6693 36.432 68.424C33.264 72.1787 28.688 74.056 22.704 74.056ZM22.704 63.584C26.8107 63.584 28.864 60.1227 28.864 53.2V21.96C28.864 18.8507 28.4533 16.328 27.632 14.392C26.8107 12.3973 25.168 11.4 22.704 11.4C20.1813 11.4 18.5093 12.368 17.688 14.304C16.8667 16.24 16.456 18.792 16.456 21.96V53.2C16.456 60.1227 18.5387 63.584 22.704 63.584ZM49.5151 64.376L67.1151 37.184L68.7871 34.632C70.7818 31.464 72.2485 28.824 73.1871 26.712C74.1845 24.5413 74.6831 22.1067 74.6831 19.408C74.6831 13.8933 72.7471 11.136 68.8751 11.136C66.1765 11.136 64.2991 12.1627 63.2431 14.216C62.1871 16.2693 61.6591 19.0267 61.6591 22.488V25.48H49.7791V22.312C49.7791 15.624 51.2751 10.4027 54.2671 6.648C57.2591 2.83466 62.0111 0.927994 68.5231 0.927994C74.5071 0.927994 79.0245 2.54133 82.0751 5.76799C85.1845 8.99466 86.7391 13.5707 86.7391 19.496C86.7391 22.2533 86.3578 24.8053 85.5951 27.152C84.8325 29.4987 83.9231 31.5813 82.8671 33.4C81.8111 35.2187 80.1685 37.8 77.9391 41.144L63.3311 63.232H84.9791V73H49.5151V64.376Z" fill="url(#paint0_linear_0_1)" fill-opacity="0.15"/>
<path fill-rule="evenodd" clip-rule="evenodd" d="M17.1774 44.2413C16.4966 43.6539 15.5049 43.6539 14.8241 44.2413L14.8221 44.243C13.7927 45.1349 10.1812 47.8677 4.5821 48.0261C3.61157 48.0512 2.80078 48.8527 2.80078 49.881V61.5431C2.80078 64.7163 5.03534 67.8838 7.55785 70.1502C8.85399 71.3148 10.303 72.3138 11.7376 73.0272C13.1551 73.7322 14.6441 74.2008 16.0008 74.2008C17.3322 74.2008 18.8083 73.7293 20.216 73.0263C21.643 72.3137 23.0941 71.3159 24.3965 70.1528C25.6977 68.9907 26.8816 67.6357 27.7481 66.1924C28.6096 64.7574 29.2007 63.1615 29.2007 61.5431V49.8861C29.2073 48.8482 28.3875 48.0511 27.423 48.0261C21.8207 47.8677 18.2118 45.1349 17.1774 44.2413Z" fill="#364256"/>
<path d="M20.4311 58.0676L17.0279 66.2001C16.7974 66.7483 16.2532 66.495 16.2532 65.8447V60.4457H12.4242C12.088 60.4457 11.8863 59.871 12.0688 59.4324L15.4752 51.2999C15.7057 50.7517 16.25 51.005 16.25 51.6553V57.0543H20.079C20.4119 57.0543 20.6136 57.6328 20.4311 58.0676Z" fill="white"/>
<defs>
<linearGradient id="paint0_linear_0_1" x1="48.2019" y1="-32" x2="48.2019" y2="98" gradientUnits="userSpaceOnUse">
<stop stop-color="#364256"/>
<stop offset="1" stop-color="#364256" stop-opacity="0"/>
</linearGradient>
</defs>
</svg>
