<svg width="87" height="75" viewBox="0 0 87 75" fill="none" xmlns="http://www.w3.org/2000/svg">
<path d="M22.704 74.056C16.6027 74.056 11.968 72.1787 8.8 68.424C5.632 64.6693 4.048 59.6533 4.048 53.376V21.784C4.048 15.272 5.57333 10.168 8.624 6.472C11.7333 2.77599 16.4267 0.927994 22.704 0.927994C28.864 0.927994 33.4693 2.80533 36.52 6.56C39.6293 10.256 41.184 15.3307 41.184 21.784V53.376C41.184 59.6533 39.6 64.6693 36.432 68.424C33.264 72.1787 28.688 74.056 22.704 74.056ZM22.704 63.584C26.8107 63.584 28.864 60.1227 28.864 53.2V21.96C28.864 18.8507 28.4533 16.328 27.632 14.392C26.8107 12.3973 25.168 11.4 22.704 11.4C20.1813 11.4 18.5093 12.368 17.688 14.304C16.8667 16.24 16.456 18.792 16.456 21.96V53.2C16.456 60.1227 18.5387 63.584 22.704 63.584ZM67.7311 74.056C55.2938 74.056 49.0751 67.2507 49.0751 53.64V51.176H61.2191V53.288C61.2778 56.9253 61.7765 59.5947 62.7151 61.296C63.6538 62.9973 65.3551 63.848 67.8191 63.848C70.2831 63.848 71.9551 62.9387 72.8351 61.12C73.7738 59.3013 74.2431 56.4853 74.2431 52.672C74.2431 48.8 73.5978 45.8667 72.3071 43.872C71.0751 41.8773 68.9338 40.792 65.8831 40.616H63.8591V30.848H65.6191C68.7871 30.7893 71.0165 29.9387 72.3071 28.296C73.5978 26.6533 74.2431 23.9547 74.2431 20.2C74.2431 16.9733 73.7445 14.568 72.7471 12.984C71.8085 11.4 70.1071 10.608 67.6431 10.608C65.2378 10.608 63.5658 11.4587 62.6271 13.16C61.7471 14.8613 61.2778 17.384 61.2191 20.728V23.28H49.0751V19.936C49.0751 13.8347 50.6591 9.14133 53.8271 5.856C57.0538 2.512 61.6591 0.839995 67.6431 0.839995C73.6858 0.839995 78.2911 2.48266 81.4591 5.76799C84.6858 8.99466 86.2991 13.6293 86.2991 19.672C86.2991 23.8373 85.4191 27.2987 83.6591 30.056C81.9578 32.7547 79.6991 34.5147 76.8831 35.336C79.8165 36.3333 82.1045 38.24 83.7471 41.056C85.4485 43.8133 86.2991 47.5973 86.2991 52.408C86.2991 59.2133 84.8031 64.5227 81.8111 68.336C78.8191 72.1493 74.1258 74.056 67.7311 74.056Z" fill="url(#paint0_linear_0_1)" fill-opacity="0.15"/>
<path fill-rule="evenodd" clip-rule="evenodd" d="M15.0233 44.4405C15.7041 43.8532 16.6959 43.8532 17.3766 44.4405C18.411 45.3341 22.0199 48.0669 27.6222 48.2253C28.5867 48.2503 29.4065 49.0474 29.4 50.0853V61.7423C29.4 63.3607 28.8089 64.9566 27.9473 66.3916C27.0808 67.8349 25.8969 69.1899 24.5957 70.352C23.2933 71.5152 21.8422 72.5129 20.4152 73.2255C19.0075 73.9286 17.5314 74.4 16.2 74.4C14.8433 74.4 13.3543 73.9314 11.9368 73.2265C10.5022 72.513 9.05321 71.514 7.75707 70.3494C5.23456 68.083 3 64.9155 3 61.7423V50.0802C3 49.0519 3.81079 48.2504 4.78132 48.2253C10.3805 48.0669 13.992 45.3341 15.0213 44.4423L15.0233 44.4405ZM16.2005 46.5269C14.6918 47.7477 10.9158 50.2853 5.33134 50.578V61.7415C5.33134 63.8741 6.93298 66.4422 9.29956 68.5686C10.4533 69.6051 11.7297 70.4807 12.9599 71.0926C14.2045 71.7115 15.3306 72.0253 16.2002 72.0253C17.0366 72.0253 18.1465 71.7139 19.389 71.0933C20.6154 70.4808 21.8969 69.6042 23.0589 68.5664C24.222 67.5277 25.2391 66.3511 25.9587 65.1525C26.6825 63.9468 27.069 62.7808 27.069 61.7415V50.5778C21.482 50.2843 17.7095 47.7461 16.2005 46.5269ZM17.2281 66.3993L20.6313 58.2668C20.8138 57.832 20.6121 57.2535 20.2792 57.2535H16.4502V51.8546C16.4502 51.2043 15.9059 50.951 15.6754 51.4992L12.269 59.6317C12.0865 60.0702 12.2882 60.6449 12.6244 60.6449H16.4534V66.0439C16.4534 66.6942 16.9976 66.9475 17.2281 66.3993Z" fill="#364256"/>
<defs>
<linearGradient id="paint0_linear_0_1" x1="48.2019" y1="-32" x2="48.2019" y2="98" gradientUnits="userSpaceOnUse">
<stop stop-color="#364256"/>
<stop offset="1" stop-color="#364256" stop-opacity="0"/>
</linearGradient>
</defs>
</svg>
