<svg width="89" height="75" viewBox="0 0 89 75" fill="none" xmlns="http://www.w3.org/2000/svg">
<path d="M22.704 74.056C16.6027 74.056 11.968 72.1787 8.8 68.424C5.632 64.6693 4.048 59.6533 4.048 53.376V21.784C4.048 15.272 5.57333 10.168 8.624 6.472C11.7333 2.77599 16.4267 0.927994 22.704 0.927994C28.864 0.927994 33.4693 2.80533 36.52 6.56C39.6293 10.256 41.184 15.3307 41.184 21.784V53.376C41.184 59.6533 39.6 64.6693 36.432 68.424C33.264 72.1787 28.688 74.056 22.704 74.056ZM22.704 63.584C26.8107 63.584 28.864 60.1227 28.864 53.2V21.96C28.864 18.8507 28.4533 16.328 27.632 14.392C26.8107 12.3973 25.168 11.4 22.704 11.4C20.1813 11.4 18.5093 12.368 17.688 14.304C16.8667 16.24 16.456 18.792 16.456 21.96V53.2C16.456 60.1227 18.5387 63.584 22.704 63.584ZM69.5791 55.488H48.4591V44.84L66.8511 1.71999H80.9311V45.72H88.3231V55.488H80.9311V73H69.5791V55.488ZM69.5791 45.72V14.92L58.6671 45.72H69.5791Z" fill="url(#paint0_linear_0_1)" fill-opacity="0.15"/>
<path d="M29.4903 47.4584C29.781 47.752 29.9444 48.1502 29.9444 48.5654C29.9444 48.9805 29.781 49.3787 29.4903 49.6723L17.0877 62.1928C16.9256 62.3568 16.7294 62.4823 16.5133 62.5603C16.2972 62.6383 16.0666 62.6669 15.8382 62.6439C15.6098 62.621 15.3894 62.547 15.1928 62.4275C14.9962 62.308 14.8283 62.1458 14.7014 61.9528L11.6174 57.2828L4.68517 64.2788C4.54312 64.4326 4.37185 64.5559 4.18155 64.6414C3.99126 64.7269 3.78586 64.7729 3.57759 64.7765C3.36933 64.7801 3.16248 64.7414 2.96938 64.6625C2.77628 64.5837 2.6009 64.4664 2.45368 64.3176C2.30647 64.1689 2.19046 63.9917 2.11255 63.7967C2.03465 63.6017 1.99646 63.3928 2.00026 63.1826C2.00406 62.9723 2.04977 62.765 2.13467 62.573C2.21957 62.381 2.34191 62.2082 2.4944 62.0649L10.762 53.7209C10.9242 53.5572 11.1203 53.4319 11.3363 53.3539C11.5522 53.2759 11.7826 53.2473 12.0109 53.27C12.2391 53.2928 12.4595 53.3663 12.6562 53.4854C12.8529 53.6045 13.021 53.7661 13.1483 53.9587L16.2323 58.6286L27.2973 47.4584C27.5881 47.1649 27.9825 47 28.3938 47C28.805 47 29.1994 47.1649 29.4903 47.4584ZM2.03891 69.4333C2.03891 68.5697 2.73214 67.8699 3.58978 67.8699H28.3904C28.5989 67.8619 28.8068 67.8965 29.0017 67.9715C29.1966 68.0465 29.3745 68.1605 29.5248 68.3066C29.6751 68.4526 29.7946 68.6278 29.8763 68.8216C29.9579 69.0154 30 69.2238 30 69.4344C30 69.645 29.9579 69.8534 29.8763 70.0472C29.7946 70.241 29.6751 70.4161 29.5248 70.5622C29.3745 70.7083 29.1966 70.8222 29.0017 70.8972C28.8068 70.9723 28.5989 71.0068 28.3904 70.9989H3.59423C3.39056 70.9989 3.18889 70.9584 3.00073 70.8797C2.81257 70.801 2.64161 70.6857 2.49759 70.5403C2.35358 70.3949 2.23935 70.2223 2.16141 70.0324C2.08347 69.8424 2.04335 69.6389 2.04335 69.4333H2.03891Z" fill="#364256"/>
<defs>
<linearGradient id="paint0_linear_0_1" x1="48.2019" y1="-32" x2="48.2019" y2="98" gradientUnits="userSpaceOnUse">
<stop stop-color="#364256"/>
<stop offset="1" stop-color="#364256" stop-opacity="0"/>
</linearGradient>
</defs>
</svg>
