<svg width="77" height="75" viewBox="0 0 77 75" fill="none" xmlns="http://www.w3.org/2000/svg">
<path d="M22.704 74.056C16.6027 74.056 11.968 72.1787 8.8 68.424C5.632 64.6693 4.048 59.6533 4.048 53.376V21.784C4.048 15.272 5.57333 10.168 8.624 6.472C11.7333 2.77599 16.4267 0.927994 22.704 0.927994C28.864 0.927994 33.4693 2.80533 36.52 6.56C39.6293 10.256 41.184 15.3307 41.184 21.784V53.376C41.184 59.6533 39.6 64.6693 36.432 68.424C33.264 72.1787 28.688 74.056 22.704 74.056ZM22.704 63.584C26.8107 63.584 28.864 60.1227 28.864 53.2V21.96C28.864 18.8507 28.4533 16.328 27.632 14.392C26.8107 12.3973 25.168 11.4 22.704 11.4C20.1813 11.4 18.5093 12.368 17.688 14.304C16.8667 16.24 16.456 18.792 16.456 21.96V53.2C16.456 60.1227 18.5387 63.584 22.704 63.584ZM64.0351 15.184C63.4485 15.5947 61.3071 16.2693 57.6111 17.208C54.6191 18.088 53.0938 18.5573 53.0351 18.616V9.552C55.3818 8.73067 57.9338 7.616 60.6911 6.20799C63.5071 4.74133 65.5605 3.24533 66.8511 1.71999H76.2671V73H64.0351V15.184Z" fill="url(#paint0_linear_0_1)" fill-opacity="0.15"/>
<path fill-rule="evenodd" clip-rule="evenodd" d="M3.95 41.45C4.225 41.15 4.625 41 5 41H20L28.5 49.5V69.5C28.5 69.875 28.35 70.25 28.05 70.55C27.775 70.85 27.375 71 27 71H5C4.625 71 4.25 70.85 3.95 70.55C3.65 70.275 3.5 69.875 3.5 69.5V42.5C3.5 42.125 3.675 41.75 3.95 41.45ZM11.6761 61.8813L13.4011 66.1133H11.6071L10.7906 63.5028L9.97408 66.1133H8.18008L9.85908 61.8813L8.30658 57.9253H10.1006L10.7906 60.3748L11.4806 57.9253H13.2746L11.6761 61.8813ZM17.8725 64.6413V66.1133H14.1005V57.9253H15.7335V64.6413H17.8725ZM21.8081 61.4098C22.8431 61.8238 23.1421 62.2953 23.1421 63.7788C23.1421 64.6068 23.0386 65.1818 22.6131 65.5958C22.2451 65.9523 21.6241 66.2053 20.8306 66.2053C20.0256 66.2053 19.4276 65.9753 19.0596 65.6073C18.6571 65.2048 18.5191 64.6298 18.5191 63.7903H20.1521C20.1521 64.1238 20.1751 64.3653 20.3246 64.5378C20.4166 64.6413 20.5776 64.7333 20.8306 64.7333C21.0836 64.7333 21.2446 64.6643 21.3481 64.5263C21.4631 64.3883 21.5091 64.1698 21.5091 63.8363C21.5091 63.0543 21.3826 62.9163 20.7961 62.6748L19.7611 62.2493C18.9331 61.9043 18.5881 61.4673 18.5881 60.1908C18.5881 59.4318 18.8296 58.7993 19.3241 58.3738C19.7151 58.0403 20.2096 57.8563 20.8306 57.8563C21.5551 57.8563 22.0841 58.0403 22.4406 58.3738C22.8891 58.7878 23.0731 59.4433 23.0731 60.2713H21.4401C21.4401 59.9838 21.4401 59.7193 21.3021 59.5353C21.2101 59.4088 21.0721 59.3283 20.8306 59.3283C20.6006 59.3283 20.4511 59.4203 20.3591 59.5468C20.2556 59.6848 20.2211 59.8573 20.2211 60.1333C20.2211 60.6508 20.3131 60.8003 20.7846 60.9958L21.8081 61.4098Z" fill="#364256"/>
<defs>
<linearGradient id="paint0_linear_0_1" x1="48.2019" y1="-32" x2="48.2019" y2="98" gradientUnits="userSpaceOnUse">
<stop stop-color="#364256"/>
<stop offset="1" stop-color="#364256" stop-opacity="0"/>
</linearGradient>
</defs>
</svg>
