<svg width="87" height="75" viewBox="0 0 87 75" fill="none" xmlns="http://www.w3.org/2000/svg">
<path d="M22.704 74.056C16.6027 74.056 11.968 72.1787 8.8 68.424C5.632 64.6693 4.048 59.6533 4.048 53.376V21.784C4.048 15.272 5.57333 10.168 8.624 6.472C11.7333 2.77599 16.4267 0.927994 22.704 0.927994C28.864 0.927994 33.4693 2.80533 36.52 6.56C39.6293 10.256 41.184 15.3307 41.184 21.784V53.376C41.184 59.6533 39.6 64.6693 36.432 68.424C33.264 72.1787 28.688 74.056 22.704 74.056ZM22.704 63.584C26.8107 63.584 28.864 60.1227 28.864 53.2V21.96C28.864 18.8507 28.4533 16.328 27.632 14.392C26.8107 12.3973 25.168 11.4 22.704 11.4C20.1813 11.4 18.5093 12.368 17.688 14.304C16.8667 16.24 16.456 18.792 16.456 21.96V53.2C16.456 60.1227 18.5387 63.584 22.704 63.584ZM49.5151 64.376L67.1151 37.184L68.7871 34.632C70.7818 31.464 72.2485 28.824 73.1871 26.712C74.1845 24.5413 74.6831 22.1067 74.6831 19.408C74.6831 13.8933 72.7471 11.136 68.8751 11.136C66.1765 11.136 64.2991 12.1627 63.2431 14.216C62.1871 16.2693 61.6591 19.0267 61.6591 22.488V25.48H49.7791V22.312C49.7791 15.624 51.2751 10.4027 54.2671 6.648C57.2591 2.83466 62.0111 0.927994 68.5231 0.927994C74.5071 0.927994 79.0245 2.54133 82.0751 5.76799C85.1845 8.99466 86.7391 13.5707 86.7391 19.496C86.7391 22.2533 86.3578 24.8053 85.5951 27.152C84.8325 29.4987 83.9231 31.5813 82.8671 33.4C81.8111 35.2187 80.1685 37.8 77.9391 41.144L63.3311 63.232H84.9791V73H49.5151V64.376Z" fill="url(#paint0_linear_0_1)" fill-opacity="0.15"/>
<path fill-rule="evenodd" clip-rule="evenodd" d="M25.076 64.9132C25.0889 64.8866 25.0707 64.8553 25.0411 64.8537C25.0109 64.852 24.9919 64.8202 25.0048 64.7929C25.3652 64.0331 25.6326 63.2138 25.7898 62.3467C26.4448 58.7339 25.0188 55.2254 22.3657 53.0535C21.6696 52.4837 21.2359 51.6326 21.5829 50.8026C21.5999 50.762 21.6145 50.7279 21.6258 50.7017C21.6324 50.6864 21.635 50.6785 21.6369 50.6726C21.64 50.6629 21.6415 50.6584 21.6562 50.6356C22.0079 50.0905 23.0306 49.7241 23.5615 50.0968C26.842 52.3996 28.9217 56.1652 29.0242 60.2734C29.154 62.6272 28.6415 65.0139 27.327 67.2197C27.1929 67.4448 27.0529 67.6644 26.9074 67.8783C26.2055 68.91 24.6601 68.618 23.5881 67.9791C23.34 67.8313 23.2754 67.4796 23.4711 67.2671C23.9212 66.7786 24.3279 66.2364 24.6814 65.6431C24.8244 65.4032 24.9558 65.1597 25.076 64.9132ZM15.7703 73.4742C15.9836 73.4829 16.1971 73.4431 16.4105 73.4397C17.715 73.4191 18.9861 73.199 20.1882 72.8041C20.958 72.5513 21.1881 71.5678 20.8975 70.8114C20.6122 70.0689 19.7852 69.7103 19.0241 69.9417C17.589 70.3782 16.0313 70.4889 14.4538 70.2029C13.8338 70.0905 13.2382 69.9217 12.6713 69.7029C12.2082 69.5164 11.7535 69.2919 11.3112 69.0283C9.97208 68.2303 8.89356 67.1618 8.10383 65.9341C7.6822 65.2786 6.69584 65.1143 5.98802 65.4405C5.31856 65.749 4.86751 66.5215 5.24063 67.1572C5.73896 68.0063 6.33851 68.8035 7.03426 69.5291C7.04254 69.5377 7.0401 69.5519 7.02936 69.5572C7.01851 69.5625 7.01598 69.5769 7.02443 69.5855C8.28001 70.8699 9.81299 71.9002 11.5514 72.5725C12.9221 73.1208 14.3484 73.4163 15.7703 73.4742ZM13.824 48.0601C13.8071 48.0635 13.7925 48.0479 13.7971 48.0312C13.8017 48.0145 13.7872 47.9988 13.7702 48.002C8.71846 48.9745 4.54026 52.9517 3.56736 58.3175C3.47018 58.8535 3.40781 59.3877 3.37864 59.9179C3.32789 60.8403 4.17494 61.2969 5.0839 61.4617C5.73541 61.5799 6.41806 60.7577 6.45354 60.0965C6.47539 59.6892 6.52302 59.2788 6.59769 58.8669C6.71406 58.2251 6.89076 57.6095 7.1209 57.0247C7.15953 56.9266 7.2156 56.8365 7.26519 56.7434C7.38585 56.5169 7.52505 56.2979 7.66573 56.0765C7.75328 55.9387 7.84141 55.8 7.92598 55.6581C9.49463 53.0258 12.1083 51.4005 14.9222 50.9961C16.3069 50.7971 17.5312 49.5666 18.2473 48.365C18.3497 48.1931 18.256 47.9627 18.0578 47.9355C16.6394 47.7405 15.2082 47.787 13.824 48.0601Z" fill="#364256"/>
<circle cx="16.5079" cy="49.656" r="4.00917" transform="rotate(10.2048 16.5079 49.656)" fill="#364256"/>
<circle cx="6.66591" cy="66.662" r="4.01768" transform="rotate(10.2048 6.66591 66.662)" fill="#364256"/>
<circle cx="25.8431" cy="66.7494" r="4.00879" transform="rotate(10.2048 25.8431 66.7494)" fill="#364256"/>
<defs>
<linearGradient id="paint0_linear_0_1" x1="48.2019" y1="-32" x2="48.2019" y2="98" gradientUnits="userSpaceOnUse">
<stop stop-color="#364256"/>
<stop offset="1" stop-color="#364256" stop-opacity="0"/>
</linearGradient>
</defs>
</svg>
