<svg width="87" height="75" viewBox="0 0 87 75" fill="none" xmlns="http://www.w3.org/2000/svg">
<path d="M22.704 74.056C16.6027 74.056 11.968 72.1787 8.8 68.424C5.632 64.6693 4.048 59.6533 4.048 53.376V21.784C4.048 15.272 5.57333 10.168 8.624 6.472C11.7333 2.77599 16.4267 0.927994 22.704 0.927994C28.864 0.927994 33.4693 2.80533 36.52 6.56C39.6293 10.256 41.184 15.3307 41.184 21.784V53.376C41.184 59.6533 39.6 64.6693 36.432 68.424C33.264 72.1787 28.688 74.056 22.704 74.056ZM22.704 63.584C26.8107 63.584 28.864 60.1227 28.864 53.2V21.96C28.864 18.8507 28.4533 16.328 27.632 14.392C26.8107 12.3973 25.168 11.4 22.704 11.4C20.1813 11.4 18.5093 12.368 17.688 14.304C16.8667 16.24 16.456 18.792 16.456 21.96V53.2C16.456 60.1227 18.5387 63.584 22.704 63.584ZM67.7311 74.056C55.2938 74.056 49.0751 67.2507 49.0751 53.64V51.176H61.2191V53.288C61.2778 56.9253 61.7765 59.5947 62.7151 61.296C63.6538 62.9973 65.3551 63.848 67.8191 63.848C70.2831 63.848 71.9551 62.9387 72.8351 61.12C73.7738 59.3013 74.2431 56.4853 74.2431 52.672C74.2431 48.8 73.5978 45.8667 72.3071 43.872C71.0751 41.8773 68.9338 40.792 65.8831 40.616H63.8591V30.848H65.6191C68.7871 30.7893 71.0165 29.9387 72.3071 28.296C73.5978 26.6533 74.2431 23.9547 74.2431 20.2C74.2431 16.9733 73.7445 14.568 72.7471 12.984C71.8085 11.4 70.1071 10.608 67.6431 10.608C65.2378 10.608 63.5658 11.4587 62.6271 13.16C61.7471 14.8613 61.2778 17.384 61.2191 20.728V23.28H49.0751V19.936C49.0751 13.8347 50.6591 9.14133 53.8271 5.856C57.0538 2.512 61.6591 0.839995 67.6431 0.839995C73.6858 0.839995 78.2911 2.48266 81.4591 5.76799C84.6858 8.99466 86.2991 13.6293 86.2991 19.672C86.2991 23.8373 85.4191 27.2987 83.6591 30.056C81.9578 32.7547 79.6991 34.5147 76.8831 35.336C79.8165 36.3333 82.1045 38.24 83.7471 41.056C85.4485 43.8133 86.2991 47.5973 86.2991 52.408C86.2991 59.2133 84.8031 64.5227 81.8111 68.336C78.8191 72.1493 74.1258 74.056 67.7311 74.056Z" fill="url(#paint0_linear_0_1)" fill-opacity="0.15"/>
<path d="M30.8802 57.4893L25.4488 50.5814C25.3144 50.4021 25.1401 50.2565 24.9396 50.1563C24.7392 50.0561 24.5182 50.0039 24.2941 50.0039C24.07 50.0039 23.849 50.0561 23.6486 50.1563C23.4482 50.2565 23.2738 50.4021 23.1394 50.5814L17.7722 57.4893C17.6794 57.6081 17.6215 57.7505 17.6052 57.9003C17.5889 58.0502 17.6148 58.2017 17.6799 58.3377C17.744 58.4726 17.8451 58.5866 17.9713 58.6664C18.0976 58.7462 18.2439 58.7886 18.3933 58.7886H20.5316C20.5316 62.8165 20.5316 67.9488 13.4966 72.02C13.4481 72.0375 13.4085 72.0735 13.3865 72.1201C13.3644 72.1667 13.3617 72.2201 13.3788 72.2688C13.387 72.2928 13.3999 72.315 13.4168 72.3341C13.4336 72.3531 13.4541 72.3687 13.477 72.3797C13.4999 72.3908 13.5248 72.3972 13.5502 72.3986C13.5755 72.4 13.601 72.3964 13.6249 72.3879C26.9678 70.2224 28.0368 61.2357 28.0795 58.8105H30.2178C30.3695 58.8042 30.5164 58.7556 30.6418 58.6701C30.7672 58.5846 30.8662 58.4656 30.9275 58.3267C30.99 58.1871 31.0128 58.0328 30.9932 57.881C30.9737 57.7292 30.9126 57.5858 30.8166 57.4665L30.8802 57.4893Z" fill="#364256"/>
<path d="M13.7738 59.2235H11.6355C11.828 55.1741 11.828 50.0633 18.7132 45.9706C18.7538 45.9499 18.786 45.9157 18.8041 45.8739C18.8222 45.832 18.8252 45.7851 18.8124 45.7413C18.8 45.6976 18.7726 45.6597 18.7349 45.6344C18.6972 45.609 18.6518 45.5978 18.6066 45.6027C5.26346 47.7682 4.17295 56.7764 4.15144 59.1801H2.01311C1.8637 59.1806 1.71747 59.2233 1.59135 59.3034C1.46523 59.3835 1.36437 59.4977 1.30044 59.6327C1.23573 59.7685 1.21012 59.9197 1.22649 60.0692C1.24285 60.2188 1.30054 60.3608 1.39308 60.4794L6.80294 67.3874C6.93732 67.5667 7.11164 67.7123 7.31207 67.8126C7.51249 67.9129 7.73352 67.9651 7.95763 67.9651C8.18174 67.9651 8.40277 67.9129 8.6032 67.8126C8.80363 67.7123 8.97794 67.5667 9.11233 67.3874L14.4365 60.4794C14.523 60.3608 14.5755 60.2209 14.5886 60.0748C14.6016 59.9286 14.5747 59.7816 14.5106 59.6496C14.4474 59.5181 14.349 59.4067 14.2264 59.3277C14.1038 59.2487 13.9617 59.2051 13.8158 59.202L13.7738 59.2235Z" fill="#364256"/>
<defs>
<linearGradient id="paint0_linear_0_1" x1="48.2019" y1="-32" x2="48.2019" y2="98" gradientUnits="userSpaceOnUse">
<stop stop-color="#364256"/>
<stop offset="1" stop-color="#364256" stop-opacity="0"/>
</linearGradient>
</defs>
</svg>
