<svg width="89" height="75" viewBox="0 0 89 75" fill="none" xmlns="http://www.w3.org/2000/svg">
<path d="M22.704 74.056C16.6027 74.056 11.968 72.1787 8.8 68.424C5.632 64.6693 4.048 59.6533 4.048 53.376V21.784C4.048 15.272 5.57333 10.168 8.624 6.472C11.7333 2.77599 16.4267 0.927994 22.704 0.927994C28.864 0.927994 33.4693 2.80533 36.52 6.56C39.6293 10.256 41.184 15.3307 41.184 21.784V53.376C41.184 59.6533 39.6 64.6693 36.432 68.424C33.264 72.1787 28.688 74.056 22.704 74.056ZM22.704 63.584C26.8107 63.584 28.864 60.1227 28.864 53.2V21.96C28.864 18.8507 28.4533 16.328 27.632 14.392C26.8107 12.3973 25.168 11.4 22.704 11.4C20.1813 11.4 18.5093 12.368 17.688 14.304C16.8667 16.24 16.456 18.792 16.456 21.96V53.2C16.456 60.1227 18.5387 63.584 22.704 63.584ZM69.5791 55.488H48.4591V44.84L66.8511 1.71999H80.9311V45.72H88.3231V55.488H80.9311V73H69.5791V55.488ZM69.5791 45.72V14.92L58.6671 45.72H69.5791Z" fill="url(#paint0_linear_0_1)" fill-opacity="0.15"/>
<path d="M5 44C4.625 44 4.225 44.15 3.95 44.45C3.675 44.75 3.5 45.125 3.5 45.5V72.5C3.5 72.875 3.65 73.275 3.95 73.55C4.25 73.85 4.625 74 5 74H27C27.375 74 27.775 73.85 28.05 73.55C28.35 73.25 28.5 72.875 28.5 72.5V52.5L20 44H5Z" fill="#364256"/>
<path fill-rule="evenodd" clip-rule="evenodd" d="M23.6038 63.0855L18.0088 66.5355L18.0088 66.5365C17.8825 66.6143 17.7377 66.6569 17.5895 66.6601C17.4412 66.6633 17.2947 66.6268 17.1653 66.5544C17.0358 66.482 16.928 66.3764 16.8531 66.2484C16.7781 66.1204 16.7386 65.9748 16.7388 65.8265L16.7388 63.3203L9.57177 63.3203C9.46238 63.3203 9.35406 63.2988 9.25299 63.2569C9.15193 63.215 9.0601 63.1537 8.98275 63.0763C8.9054 62.999 8.84404 62.9072 8.80218 62.8061C8.76032 62.705 8.73877 62.5967 8.73877 62.4873L8.73877 62.1533C8.73877 62.0439 8.76032 61.9356 8.80218 61.8345C8.84404 61.7335 8.9054 61.6416 8.98275 61.5643C9.0601 61.4869 9.15193 61.4256 9.25299 61.3837C9.35406 61.3419 9.46238 61.3203 9.57177 61.3203L16.7388 61.3203L16.7388 58.8335C16.7387 58.6843 16.7787 58.5378 16.8545 58.4094C16.9304 58.2809 17.0394 58.1752 17.1701 58.1032C17.3008 58.0313 17.4484 57.9958 17.5975 58.0004C17.7466 58.005 17.8918 58.0496 18.0178 58.1295L23.6128 61.6725C23.7322 61.7481 23.8303 61.8528 23.8981 61.9769C23.9658 62.1009 24.0009 62.2401 24 62.3815C23.9991 62.5228 23.9622 62.6615 23.8929 62.7847C23.8236 62.9079 23.7241 63.0114 23.6038 63.0855Z" fill="white"/>
<defs>
<linearGradient id="paint0_linear_0_1" x1="48.2019" y1="-32" x2="48.2019" y2="98" gradientUnits="userSpaceOnUse">
<stop stop-color="#364256"/>
<stop offset="1" stop-color="#364256" stop-opacity="0"/>
</linearGradient>
</defs>
</svg>
