<svg width="87" height="75" viewBox="0 0 87 75" fill="none" xmlns="http://www.w3.org/2000/svg">
<path d="M22.704 74.056C16.6027 74.056 11.968 72.1787 8.8 68.424C5.632 64.6693 4.048 59.6533 4.048 53.376V21.784C4.048 15.272 5.57333 10.168 8.624 6.472C11.7333 2.77599 16.4267 0.927994 22.704 0.927994C28.864 0.927994 33.4693 2.80533 36.52 6.56C39.6293 10.256 41.184 15.3307 41.184 21.784V53.376C41.184 59.6533 39.6 64.6693 36.432 68.424C33.264 72.1787 28.688 74.056 22.704 74.056ZM22.704 63.584C26.8107 63.584 28.864 60.1227 28.864 53.2V21.96C28.864 18.8507 28.4533 16.328 27.632 14.392C26.8107 12.3973 25.168 11.4 22.704 11.4C20.1813 11.4 18.5093 12.368 17.688 14.304C16.8667 16.24 16.456 18.792 16.456 21.96V53.2C16.456 60.1227 18.5387 63.584 22.704 63.584ZM67.8191 74.056C61.0725 74.056 56.3791 72.2667 53.7391 68.688C51.1578 65.0507 49.8671 59.6827 49.8671 52.584H61.7471C61.7471 56.632 62.1871 59.6827 63.0671 61.736C63.9471 63.7893 65.6778 64.816 68.2591 64.816C70.1951 64.816 71.6325 64.2 72.5711 62.968C73.5098 61.6773 74.0965 59.976 74.3311 57.864C74.6245 55.6933 74.7711 52.7013 74.7711 48.888C74.7711 44.1947 74.3311 40.7333 73.4511 38.504C72.5711 36.2747 70.7525 35.16 67.9951 35.16C66.3525 35.16 64.9445 35.7173 63.7711 36.832C62.6565 37.9467 61.8351 39.472 61.3071 41.408H50.8351L51.5391 1.71999H83.5711V12.632H61.7471L61.0431 29.792C62.0405 28.6773 63.4778 27.7973 65.3551 27.152C67.2325 26.448 69.2858 26.096 71.5151 26.096C76.5605 26.096 80.2858 28.032 82.6911 31.904C85.1551 35.7173 86.3871 41.1147 86.3871 48.096C86.3871 53.552 85.8591 58.1573 84.8031 61.912C83.8058 65.6667 81.9578 68.6293 79.2591 70.8C76.5605 72.9707 72.7471 74.056 67.8191 74.056Z" fill="url(#paint0_linear_0_1)" fill-opacity="0.15"/>
<path fill-rule="evenodd" clip-rule="evenodd" d="M2.08959 41H13.7482C14.35 41 14.8378 41.4914 14.8378 42.0976V53.878C14.8378 54.4842 14.35 54.9756 13.7482 54.9756H2.08959C1.48781 54.9756 1 54.4842 1 53.878V42.0976C1 41.4914 1.48781 41 2.08959 41ZM4.65709 43.5931C4.05531 43.5931 3.56751 44.0845 3.56751 44.6906V51.285C3.56751 51.8911 4.05531 52.3825 4.65709 52.3825H11.1807C11.7825 52.3825 12.2703 51.8911 12.2703 51.285V44.6906C12.2703 44.0845 11.7825 43.5931 11.1807 43.5931H4.65709ZM6.72441 45.681H9.11337C9.71511 45.681 10.203 46.1724 10.203 46.7785V49.1971C10.203 49.8032 9.71511 50.2946 9.11337 50.2946H6.72441C6.12266 50.2946 5.63482 49.8032 5.63482 49.1971V46.7785C5.63482 46.1724 6.12266 45.681 6.72441 45.681ZM2.08959 57.0244H13.7482C14.35 57.0244 14.8378 57.5158 14.8378 58.122V69.9024C14.8378 70.5086 14.35 71 13.7482 71H2.08959C1.48781 71 1 70.5086 1 69.9024V58.122C1 57.5158 1.48781 57.0244 2.08959 57.0244ZM4.65709 59.6175C4.05531 59.6175 3.56751 60.1089 3.56751 60.715V67.3094C3.56751 67.9155 4.05531 68.4069 4.65709 68.4069H11.1807C11.7825 68.4069 12.2703 67.9155 12.2703 67.3094V60.715C12.2703 60.1089 11.7825 59.6175 11.1807 59.6175H4.65709ZM6.72441 61.7054H9.11337C9.71511 61.7054 10.203 62.1968 10.203 62.8029V65.2215C10.203 65.8276 9.71511 66.319 9.11337 66.319H6.72441C6.12266 66.319 5.63482 65.8276 5.63482 65.2215V62.8029C5.63482 62.1968 6.12266 61.7054 6.72441 61.7054ZM18.2518 41H29.9104C30.5122 41 31 41.4914 31 42.0976V53.878C31 54.4842 30.5122 54.9756 29.9104 54.9756H18.2518C17.65 54.9756 17.1622 54.4842 17.1622 53.878V42.0976C17.1622 41.4914 17.65 41 18.2518 41ZM20.8193 43.5931C20.2175 43.5931 19.7297 44.0845 19.7297 44.6906V51.285C19.7297 51.8911 20.2175 52.3825 20.8193 52.3825H27.3429C27.9447 52.3825 28.4325 51.8911 28.4325 51.285V44.6906C28.4325 44.0845 27.9447 43.5931 27.3429 43.5931H20.8193ZM22.8866 45.681H25.2756C25.8773 45.681 26.3652 46.1724 26.3652 46.7785V49.1971C26.3652 49.8032 25.8773 50.2946 25.2756 50.2946H22.8866C22.2849 50.2946 21.797 49.8032 21.797 49.1971V46.7785C21.797 46.1724 22.2849 45.681 22.8866 45.681ZM18.2518 57.061H19.3777C20.1041 57.061 20.4673 57.4268 20.4673 58.1585V59.2927C20.4673 60.0244 20.1041 60.3902 19.3777 60.3902H18.2518C17.5254 60.3902 17.1622 60.0244 17.1622 59.2927V58.1585C17.1622 57.4268 17.5254 57.061 18.2518 57.061ZM29.9104 57.061H28.7845C28.0581 57.061 27.6949 57.4268 27.6949 58.1585V59.2927C27.6949 60.0244 28.0581 60.3902 28.7845 60.3902H29.9104C30.6368 60.3902 31 60.0244 31 59.2927V58.1585C31 57.4268 30.6368 57.061 29.9104 57.061ZM18.2518 67.6707H19.3777C20.1041 67.6707 20.4673 68.0366 20.4673 68.7683V69.9024C20.4673 70.6341 20.1041 71 19.3777 71H18.2518C17.5254 71 17.1622 70.6341 17.1622 69.9024V68.7683C17.1622 68.0366 17.5254 67.6707 18.2518 67.6707ZM22.6828 60.3902H21.5569C20.8305 60.3902 20.4673 60.7561 20.4673 61.4878V66.5732C20.4673 67.3049 20.8305 67.6707 21.5569 67.6707H22.6828C23.4092 67.6707 23.7724 67.3049 23.7724 66.5732V61.4878C23.7724 60.7561 23.4092 60.3902 22.6828 60.3902ZM28.7845 63.7195H29.9104C30.6368 63.7195 31 64.0854 31 64.8171V68.7683V69.9024C31 70.6341 30.6368 71 29.9104 71H28.7845H24.862C24.2602 71 23.7724 70.5086 23.7724 69.9024V68.7683C23.7724 68.1621 24.2602 67.6707 24.862 67.6707C26.4266 67.6707 27.6949 66.3817 27.6949 64.8171C27.6949 64.0854 28.0581 63.7195 28.7845 63.7195Z" fill="white"/>
<path fill-rule="evenodd" clip-rule="evenodd" d="M2.08959 41H13.7482C14.35 41 14.8378 41.4914 14.8378 42.0976V53.878C14.8378 54.4842 14.35 54.9756 13.7482 54.9756H2.08959C1.48781 54.9756 1 54.4842 1 53.878V42.0976C1 41.4914 1.48781 41 2.08959 41ZM4.65709 43.5931C4.05531 43.5931 3.56751 44.0845 3.56751 44.6906V51.285C3.56751 51.8911 4.05531 52.3825 4.65709 52.3825H11.1807C11.7825 52.3825 12.2703 51.8911 12.2703 51.285V44.6906C12.2703 44.0845 11.7825 43.5931 11.1807 43.5931H4.65709ZM6.72441 45.681H9.11337C9.71511 45.681 10.203 46.1724 10.203 46.7785V49.1971C10.203 49.8032 9.71511 50.2946 9.11337 50.2946H6.72441C6.12266 50.2946 5.63482 49.8032 5.63482 49.1971V46.7785C5.63482 46.1724 6.12266 45.681 6.72441 45.681ZM2.08959 57.0244H13.7482C14.35 57.0244 14.8378 57.5158 14.8378 58.122V69.9024C14.8378 70.5086 14.35 71 13.7482 71H2.08959C1.48781 71 1 70.5086 1 69.9024V58.122C1 57.5158 1.48781 57.0244 2.08959 57.0244ZM4.65709 59.6175C4.05531 59.6175 3.56751 60.1089 3.56751 60.715V67.3094C3.56751 67.9155 4.05531 68.4069 4.65709 68.4069H11.1807C11.7825 68.4069 12.2703 67.9155 12.2703 67.3094V60.715C12.2703 60.1089 11.7825 59.6175 11.1807 59.6175H4.65709ZM6.72441 61.7054H9.11337C9.71511 61.7054 10.203 62.1968 10.203 62.8029V65.2215C10.203 65.8276 9.71511 66.319 9.11337 66.319H6.72441C6.12266 66.319 5.63482 65.8276 5.63482 65.2215V62.8029C5.63482 62.1968 6.12266 61.7054 6.72441 61.7054ZM18.2518 41H29.9104C30.5122 41 31 41.4914 31 42.0976V53.878C31 54.4842 30.5122 54.9756 29.9104 54.9756H18.2518C17.65 54.9756 17.1622 54.4842 17.1622 53.878V42.0976C17.1622 41.4914 17.65 41 18.2518 41ZM20.8193 43.5931C20.2175 43.5931 19.7297 44.0845 19.7297 44.6906V51.285C19.7297 51.8911 20.2175 52.3825 20.8193 52.3825H27.3429C27.9447 52.3825 28.4325 51.8911 28.4325 51.285V44.6906C28.4325 44.0845 27.9447 43.5931 27.3429 43.5931H20.8193ZM22.8866 45.681H25.2756C25.8773 45.681 26.3652 46.1724 26.3652 46.7785V49.1971C26.3652 49.8032 25.8773 50.2946 25.2756 50.2946H22.8866C22.2849 50.2946 21.797 49.8032 21.797 49.1971V46.7785C21.797 46.1724 22.2849 45.681 22.8866 45.681ZM18.2518 57.061H19.3777C20.1041 57.061 20.4673 57.4268 20.4673 58.1585V59.2927C20.4673 60.0244 20.1041 60.3902 19.3777 60.3902H18.2518C17.5254 60.3902 17.1622 60.0244 17.1622 59.2927V58.1585C17.1622 57.4268 17.5254 57.061 18.2518 57.061ZM29.9104 57.061H28.7845C28.0581 57.061 27.6949 57.4268 27.6949 58.1585V59.2927C27.6949 60.0244 28.0581 60.3902 28.7845 60.3902H29.9104C30.6368 60.3902 31 60.0244 31 59.2927V58.1585C31 57.4268 30.6368 57.061 29.9104 57.061ZM18.2518 67.6707H19.3777C20.1041 67.6707 20.4673 68.0366 20.4673 68.7683V69.9024C20.4673 70.6341 20.1041 71 19.3777 71H18.2518C17.5254 71 17.1622 70.6341 17.1622 69.9024V68.7683C17.1622 68.0366 17.5254 67.6707 18.2518 67.6707ZM22.6828 60.3902H21.5569C20.8305 60.3902 20.4673 60.7561 20.4673 61.4878V66.5732C20.4673 67.3049 20.8305 67.6707 21.5569 67.6707H22.6828C23.4092 67.6707 23.7724 67.3049 23.7724 66.5732V61.4878C23.7724 60.7561 23.4092 60.3902 22.6828 60.3902ZM28.7845 63.7195H29.9104C30.6368 63.7195 31 64.0854 31 64.8171V68.7683V69.9024C31 70.6341 30.6368 71 29.9104 71H28.7845H24.862C24.2602 71 23.7724 70.5086 23.7724 69.9024V68.7683C23.7724 68.1621 24.2602 67.6707 24.862 67.6707C26.4266 67.6707 27.6949 66.3817 27.6949 64.8171C27.6949 64.0854 28.0581 63.7195 28.7845 63.7195Z" fill="#364256"/>
<defs>
<linearGradient id="paint0_linear_0_1" x1="48.2019" y1="-32" x2="48.2019" y2="98" gradientUnits="userSpaceOnUse">
<stop stop-color="#364256"/>
<stop offset="1" stop-color="#364256" stop-opacity="0"/>
</linearGradient>
</defs>
</svg>
