<svg width="496" height="440" viewBox="0 0 496 440" fill="none" xmlns="http://www.w3.org/2000/svg">
<rect width="496" height="440" fill="white"/>
<g filter="url(#filter0_d_1616_6291)">
<rect width="246.791" height="336.822" rx="16" transform="matrix(-1 0 0 1 464.208 32)" fill="white"/>
<rect x="-0.5" y="0.5" width="245.791" height="335.822" rx="15.5" transform="matrix(-1 0 0 1 463.208 32)" stroke="#F2F6FF"/>
</g>
<path d="M290.016 240.403C290.016 239 289.06 238.213 287.806 238.213C286.552 238.213 285.597 239.03 285.597 240.423C285.597 241.737 286.512 242.523 287.468 242.523C287.637 242.523 287.826 242.503 287.995 242.433L286.522 245.359H287.926L289.428 242.294C289.747 241.647 290.016 241.05 290.016 240.403ZM288.722 240.413C288.722 241.07 288.334 241.448 287.806 241.448C287.259 241.448 286.891 241.04 286.891 240.413C286.891 239.756 287.279 239.378 287.806 239.378C288.334 239.378 288.722 239.756 288.722 240.413ZM295.39 243.21C295.39 241.896 294.484 241.11 293.529 241.11C293.359 241.11 293.17 241.13 293.001 241.199L294.474 238.273H293.061L291.568 241.339C291.25 241.985 290.971 242.583 290.971 243.23C290.971 244.633 291.926 245.419 293.18 245.419C294.434 245.419 295.39 244.603 295.39 243.21ZM294.096 243.22C294.096 243.876 293.708 244.255 293.18 244.255C292.653 244.255 292.265 243.876 292.265 243.22C292.265 242.563 292.653 242.184 293.18 242.184C293.728 242.184 294.096 242.593 294.096 243.22ZM303.819 244.056V243.07C303.819 242.175 303.153 241.707 302.376 241.707C301.59 241.707 300.933 242.175 300.933 243.07V244.056C300.933 244.951 301.59 245.419 302.376 245.419C303.153 245.419 303.819 244.951 303.819 244.056ZM299.301 240.562V239.577C299.301 238.681 298.634 238.213 297.858 238.213C297.071 238.213 296.415 238.681 296.415 239.577V240.562C296.415 241.458 297.071 241.926 297.858 241.926C298.634 241.926 299.301 241.458 299.301 240.562ZM302.307 238.273H301.291L297.937 245.359H298.953L302.307 238.273ZM302.884 244.016C302.884 244.394 302.695 244.583 302.376 244.583C302.048 244.583 301.869 244.394 301.869 244.016V243.11C301.869 242.732 302.048 242.543 302.376 242.543C302.695 242.543 302.884 242.732 302.884 243.11V244.016ZM298.365 240.522C298.365 240.901 298.176 241.09 297.858 241.09C297.539 241.09 297.35 240.901 297.35 240.522V239.617C297.35 239.239 297.529 239.049 297.858 239.049C298.176 239.049 298.365 239.239 298.365 239.617V240.522Z" fill="#C4D7FF"/>
<path d="M316.785 234.395C318.246 233.977 319.784 234.821 320.044 236.318C320.989 241.765 320.156 247.399 317.627 252.369C314.68 258.161 309.65 262.622 303.548 264.855C297.446 267.089 290.725 266.929 284.736 264.408C278.747 261.887 273.935 257.192 271.267 251.267C268.599 245.342 268.274 238.626 270.356 232.471C272.439 226.316 276.775 221.177 282.492 218.089C288.209 215.001 294.884 214.192 301.173 215.825C306.571 217.227 311.341 220.338 314.793 224.656C315.742 225.842 315.354 227.554 314.073 228.371C312.792 229.187 311.105 228.795 310.122 227.637C307.443 224.479 303.841 222.202 299.79 221.15C294.847 219.866 289.6 220.502 285.106 222.93C280.613 225.357 277.204 229.396 275.567 234.234C273.93 239.072 274.186 244.351 276.283 249.008C278.38 253.665 282.163 257.356 286.87 259.338C291.578 261.319 296.861 261.445 301.657 259.689C306.454 257.934 310.408 254.427 312.724 249.875C314.621 246.144 315.304 241.939 314.716 237.839C314.5 236.336 315.325 234.813 316.785 234.395Z" fill="white"/>
<path d="M316.785 234.395C318.246 233.977 319.784 234.821 320.044 236.318C320.989 241.765 320.156 247.399 317.627 252.369C314.68 258.161 309.65 262.622 303.548 264.855C297.446 267.089 290.725 266.929 284.736 264.408C278.747 261.887 273.935 257.192 271.267 251.267C268.599 245.342 268.274 238.626 270.356 232.471C272.439 226.316 276.775 221.177 282.492 218.089C288.209 215.001 294.884 214.192 301.173 215.825C306.571 217.227 311.341 220.338 314.793 224.656C315.742 225.842 315.354 227.554 314.073 228.371C312.792 229.187 311.105 228.795 310.122 227.637C307.443 224.479 303.841 222.202 299.79 221.15C294.847 219.866 289.6 220.502 285.106 222.93C280.613 225.357 277.204 229.396 275.567 234.234C273.93 239.072 274.186 244.351 276.283 249.008C278.38 253.665 282.163 257.356 286.87 259.338C291.578 261.319 296.861 261.445 301.657 259.689C306.454 257.934 310.408 254.427 312.724 249.875C314.621 246.144 315.304 241.939 314.716 237.839C314.5 236.336 315.325 234.813 316.785 234.395Z" fill="#F0F5FF"/>
<rect x="360.221" y="280.949" width="51.4219" height="6.63509" rx="3.31754" fill="#F0F5FF"/>
<rect x="360.221" y="292.012" width="33.7284" height="6.63509" rx="3.31754" fill="#F0F5FF"/>
<path d="M380.015 240.403C380.015 239 379.059 238.213 377.805 238.213C376.551 238.213 375.596 239.03 375.596 240.423C375.596 241.737 376.511 242.523 377.467 242.523C377.636 242.523 377.825 242.503 377.994 242.433L376.521 245.359H377.925L379.428 242.294C379.746 241.647 380.015 241.05 380.015 240.403ZM378.721 240.413C378.721 241.07 378.333 241.448 377.805 241.448C377.258 241.448 376.89 241.04 376.89 240.413C376.89 239.756 377.278 239.378 377.805 239.378C378.333 239.378 378.721 239.756 378.721 240.413ZM385.409 242.971C385.409 242.304 385.329 241.637 384.772 241.08C384.483 240.791 384.035 240.602 383.448 240.602C382.97 240.602 382.572 240.781 382.383 240.96V239.438H385.25V238.273H381.209V242.274H382.393C382.483 241.995 382.722 241.697 383.249 241.697C383.876 241.697 384.115 242.155 384.115 242.971C384.115 243.419 384.065 243.797 383.836 244.026C383.677 244.185 383.468 244.255 383.219 244.255C382.682 244.255 382.423 243.936 382.353 243.379H381.059C381.099 243.896 381.199 244.414 381.637 244.852C381.945 245.16 382.483 245.419 383.219 245.419C383.956 245.419 384.463 245.16 384.782 244.842C385.299 244.324 385.409 243.767 385.409 242.971ZM393.818 244.056V243.07C393.818 242.175 393.152 241.707 392.375 241.707C391.589 241.707 390.932 242.175 390.932 243.07V244.056C390.932 244.951 391.589 245.419 392.375 245.419C393.152 245.419 393.818 244.951 393.818 244.056ZM389.3 240.562V239.577C389.3 238.681 388.633 238.213 387.857 238.213C387.071 238.213 386.414 238.681 386.414 239.577V240.562C386.414 241.458 387.071 241.926 387.857 241.926C388.633 241.926 389.3 241.458 389.3 240.562ZM392.306 238.273H391.29L387.936 245.359H388.952L392.306 238.273ZM392.883 244.016C392.883 244.394 392.694 244.583 392.375 244.583C392.047 244.583 391.868 244.394 391.868 244.016V243.11C391.868 242.732 392.047 242.543 392.375 242.543C392.694 242.543 392.883 242.732 392.883 243.11V244.016ZM388.364 240.522C388.364 240.901 388.175 241.09 387.857 241.09C387.538 241.09 387.349 240.901 387.349 240.522V239.617C387.349 239.239 387.528 239.049 387.857 239.049C388.175 239.049 388.364 239.239 388.364 239.617V240.522Z" fill="#C4D7FF"/>
<path d="M384.711 217.759C384.711 216.239 385.946 214.993 387.457 215.155C392.742 215.722 397.747 217.919 401.76 221.473C406.462 225.639 409.477 231.382 410.234 237.618C410.992 243.854 409.44 250.151 405.872 255.322C402.304 260.492 396.967 264.177 390.868 265.682C384.769 267.186 378.33 266.405 372.767 263.487C367.204 260.569 362.902 255.715 360.673 249.842C358.444 243.969 358.442 237.483 360.668 231.608C362.568 226.595 365.978 222.324 370.393 219.364C371.655 218.518 373.328 219.047 374.034 220.392C374.741 221.737 374.209 223.385 372.973 224.268C369.737 226.577 367.236 229.802 365.813 233.558C364.063 238.175 364.064 243.273 365.816 247.89C367.568 252.506 370.95 256.322 375.323 258.615C379.695 260.909 384.756 261.523 389.551 260.34C394.345 259.158 398.54 256.261 401.344 252.197C404.149 248.133 405.369 243.183 404.773 238.281C404.177 233.38 401.808 228.865 398.112 225.591C395.106 222.928 391.392 221.236 387.453 220.696C385.948 220.49 384.711 219.278 384.711 217.759Z" fill="white"/>
<path d="M384.711 217.759C384.711 216.239 385.946 214.993 387.457 215.155C392.742 215.722 397.747 217.919 401.76 221.473C406.462 225.639 409.477 231.382 410.234 237.618C410.992 243.854 409.44 250.151 405.872 255.322C402.304 260.492 396.967 264.177 390.868 265.682C384.769 267.186 378.33 266.405 372.767 263.487C367.204 260.569 362.902 255.715 360.673 249.842C358.444 243.969 358.442 237.483 360.668 231.608C362.568 226.595 365.978 222.324 370.393 219.364C371.655 218.518 373.328 219.047 374.034 220.392C374.741 221.737 374.209 223.385 372.973 224.268C369.737 226.577 367.236 229.802 365.813 233.558C364.063 238.175 364.064 243.273 365.816 247.89C367.568 252.506 370.95 256.322 375.323 258.615C379.695 260.909 384.756 261.523 389.551 260.34C394.345 259.158 398.54 256.261 401.344 252.197C404.149 248.133 405.369 243.183 404.773 238.281C404.177 233.38 401.808 228.865 398.112 225.591C395.106 222.928 391.392 221.236 387.453 220.696C385.948 220.49 384.711 219.278 384.711 217.759Z" fill="#F0F5FF"/>
<rect x="270.222" y="283.039" width="43.681" height="6.63509" rx="3.31754" fill="#F0F5FF"/>
<rect x="270.222" y="294.102" width="22.6699" height="6.63509" rx="3.31754" fill="#F0F5FF"/>
<path d="M435.663 188.706C438.997 188.706 441.718 186.002 441.519 182.674C440.848 171.475 438.316 160.451 434.012 150.06C428.937 137.808 421.498 126.675 412.12 117.297C402.743 107.92 391.61 100.481 379.358 95.406C367.105 90.3309 353.973 87.7187 340.711 87.7188C327.449 87.7188 314.317 90.3309 302.065 95.406C289.812 100.481 278.68 107.92 269.302 117.297C259.925 126.675 252.486 137.808 247.411 150.06C243.107 160.451 240.574 171.475 239.904 182.674C239.705 186.002 242.426 188.706 245.759 188.706C249.093 188.706 251.774 186.001 252 182.675C252.654 173.062 254.866 163.606 258.564 154.68C263.032 143.892 269.582 134.09 277.838 125.834C286.095 117.577 295.897 111.027 306.685 106.559C317.472 102.091 329.035 99.7907 340.711 99.7907C352.388 99.7907 363.95 102.091 374.738 106.559C385.526 111.027 395.328 117.577 403.584 125.834C411.841 134.09 418.39 143.892 422.859 154.68C426.556 163.606 428.769 173.062 429.422 182.675C429.648 186.001 432.329 188.706 435.663 188.706Z" fill="white"/>
<path d="M435.663 188.706C438.997 188.706 441.718 186.002 441.519 182.674C440.848 171.475 438.316 160.451 434.012 150.06C428.937 137.808 421.498 126.675 412.12 117.297C402.743 107.92 391.61 100.481 379.358 95.406C367.105 90.3309 353.973 87.7187 340.711 87.7188C327.449 87.7188 314.317 90.3309 302.065 95.406C289.812 100.481 278.68 107.92 269.302 117.297C259.925 126.675 252.486 137.808 247.411 150.06C243.107 160.451 240.574 171.475 239.904 182.674C239.705 186.002 242.426 188.706 245.759 188.706C249.093 188.706 251.774 186.001 252 182.675C252.654 173.062 254.866 163.606 258.564 154.68C263.032 143.892 269.582 134.09 277.838 125.834C286.095 117.577 295.897 111.027 306.685 106.559C317.472 102.091 329.035 99.7907 340.711 99.7907C352.388 99.7907 363.95 102.091 374.738 106.559C385.526 111.027 395.328 117.577 403.584 125.834C411.841 134.09 418.39 143.892 422.859 154.68C426.556 163.606 428.769 173.062 429.422 182.675C429.648 186.001 432.329 188.706 435.663 188.706Z" fill="#F0F5FF"/>
<path d="M449.618 188.715C450.065 188.715 450.427 188.353 450.424 187.906C450.32 173.773 447.486 159.791 442.076 146.729C436.562 133.418 428.48 121.323 418.292 111.135C408.104 100.947 396.009 92.8653 382.698 87.3516C369.387 81.8379 355.12 79 340.712 79C326.304 79 312.037 81.8379 298.726 87.3516C285.415 92.8653 273.32 100.947 263.132 111.135C252.944 121.323 244.862 133.418 239.349 146.729C233.938 159.791 231.104 173.773 231 187.906C230.997 188.353 231.359 188.715 231.806 188.715C232.253 188.715 232.615 188.353 232.618 187.906C232.722 173.986 235.514 160.214 240.844 147.348C246.276 134.233 254.238 122.317 264.276 112.279C274.314 102.241 286.23 94.2789 299.345 88.8466C312.46 83.4142 326.517 80.6182 340.712 80.6182C354.908 80.6182 368.964 83.4142 382.079 88.8465C395.194 94.2789 407.11 102.241 417.148 112.279C427.186 122.317 435.148 134.233 440.581 147.348C445.91 160.214 448.702 173.986 448.806 187.906C448.809 188.353 449.171 188.715 449.618 188.715Z" fill="white"/>
<path d="M449.618 188.715C450.065 188.715 450.427 188.353 450.424 187.906C450.32 173.773 447.486 159.791 442.076 146.729C436.562 133.418 428.48 121.323 418.292 111.135C408.104 100.947 396.009 92.8653 382.698 87.3516C369.387 81.8379 355.12 79 340.712 79C326.304 79 312.037 81.8379 298.726 87.3516C285.415 92.8653 273.32 100.947 263.132 111.135C252.944 121.323 244.862 133.418 239.349 146.729C233.938 159.791 231.104 173.773 231 187.906C230.997 188.353 231.359 188.715 231.806 188.715C232.253 188.715 232.615 188.353 232.618 187.906C232.722 173.986 235.514 160.214 240.844 147.348C246.276 134.233 254.238 122.317 264.276 112.279C274.314 102.241 286.23 94.2789 299.345 88.8466C312.46 83.4142 326.517 80.6182 340.712 80.6182C354.908 80.6182 368.964 83.4142 382.079 88.8465C395.194 94.2789 407.11 102.241 417.148 112.279C427.186 122.317 435.148 134.233 440.581 147.348C445.91 160.214 448.702 173.986 448.806 187.906C448.809 188.353 449.171 188.715 449.618 188.715Z" fill="#F0F5FF"/>
<path d="M318.968 172.324V154.57H315.727L312.111 157.712V161.203L315.727 158.061V172.324H318.968ZM335.25 167.188V159.707C335.25 156.316 332.757 154.421 329.864 154.421C326.972 154.421 324.453 156.316 324.453 159.707V167.188C324.453 170.579 326.972 172.474 329.864 172.474C332.757 172.474 335.25 170.579 335.25 167.188ZM332.009 167.163C332.009 168.659 331.136 169.556 329.864 169.556C328.593 169.556 327.695 168.659 327.695 167.163V159.757C327.695 158.261 328.593 157.338 329.864 157.338C331.136 157.338 332.009 158.261 332.009 159.757V167.163ZM348.789 167.188V159.707C348.789 156.316 346.296 154.421 343.403 154.421C340.511 154.421 337.993 156.316 337.993 159.707V167.188C337.993 170.579 340.511 172.474 343.403 172.474C346.296 172.474 348.789 170.579 348.789 167.188ZM345.548 167.163C345.548 168.659 344.675 169.556 343.403 169.556C342.132 169.556 341.234 168.659 341.234 167.163V159.757C341.234 158.261 342.132 157.338 343.403 157.338C344.675 157.338 345.548 158.261 345.548 159.757V167.163ZM370.009 169.058V166.589C370.009 164.345 368.338 163.173 366.393 163.173C364.423 163.173 362.777 164.345 362.777 166.589V169.058C362.777 171.302 364.423 172.474 366.393 172.474C368.338 172.474 370.009 171.302 370.009 169.058ZM358.688 160.305V157.837C358.688 155.593 357.017 154.421 355.072 154.421C353.102 154.421 351.457 155.593 351.457 157.837V160.305C351.457 162.55 353.102 163.722 355.072 163.722C357.017 163.722 358.688 162.55 358.688 160.305ZM366.218 154.57H363.675L355.272 172.324H357.815L366.218 154.57ZM367.665 168.958C367.665 169.906 367.191 170.379 366.393 170.379C365.57 170.379 365.121 169.906 365.121 168.958V166.689C365.121 165.741 365.57 165.268 366.393 165.268C367.191 165.268 367.665 165.741 367.665 166.689V168.958ZM356.344 160.206C356.344 161.153 355.87 161.627 355.072 161.627C354.274 161.627 353.801 161.153 353.801 160.206V157.937C353.801 156.989 354.25 156.515 355.072 156.515C355.87 156.515 356.344 156.989 356.344 157.937V160.206Z" fill="white"/>
<path d="M318.968 172.324V154.57H315.727L312.111 157.712V161.203L315.727 158.061V172.324H318.968ZM335.25 167.188V159.707C335.25 156.316 332.757 154.421 329.864 154.421C326.972 154.421 324.453 156.316 324.453 159.707V167.188C324.453 170.579 326.972 172.474 329.864 172.474C332.757 172.474 335.25 170.579 335.25 167.188ZM332.009 167.163C332.009 168.659 331.136 169.556 329.864 169.556C328.593 169.556 327.695 168.659 327.695 167.163V159.757C327.695 158.261 328.593 157.338 329.864 157.338C331.136 157.338 332.009 158.261 332.009 159.757V167.163ZM348.789 167.188V159.707C348.789 156.316 346.296 154.421 343.403 154.421C340.511 154.421 337.993 156.316 337.993 159.707V167.188C337.993 170.579 340.511 172.474 343.403 172.474C346.296 172.474 348.789 170.579 348.789 167.188ZM345.548 167.163C345.548 168.659 344.675 169.556 343.403 169.556C342.132 169.556 341.234 168.659 341.234 167.163V159.757C341.234 158.261 342.132 157.338 343.403 157.338C344.675 157.338 345.548 158.261 345.548 159.757V167.163ZM370.009 169.058V166.589C370.009 164.345 368.338 163.173 366.393 163.173C364.423 163.173 362.777 164.345 362.777 166.589V169.058C362.777 171.302 364.423 172.474 366.393 172.474C368.338 172.474 370.009 171.302 370.009 169.058ZM358.688 160.305V157.837C358.688 155.593 357.017 154.421 355.072 154.421C353.102 154.421 351.457 155.593 351.457 157.837V160.305C351.457 162.55 353.102 163.722 355.072 163.722C357.017 163.722 358.688 162.55 358.688 160.305ZM366.218 154.57H363.675L355.272 172.324H357.815L366.218 154.57ZM367.665 168.958C367.665 169.906 367.191 170.379 366.393 170.379C365.57 170.379 365.121 169.906 365.121 168.958V166.689C365.121 165.741 365.57 165.268 366.393 165.268C367.191 165.268 367.665 165.741 367.665 166.689V168.958ZM356.344 160.206C356.344 161.153 355.87 161.627 355.072 161.627C354.274 161.627 353.801 161.153 353.801 160.206V157.937C353.801 156.989 354.25 156.515 355.072 156.515C355.87 156.515 356.344 156.989 356.344 157.937V160.206Z" fill="#C2D5FF"/>
<path d="M384.126 163.849L379.364 158.166L374.603 163.849C374.19 164.339 374.353 164.735 374.958 164.735L377.156 164.735L377.156 171.305C377.156 171.972 377.646 172.504 378.26 172.504L380.469 172.504C381.073 172.504 381.563 171.972 381.573 171.315L381.573 164.735L383.771 164.735C384.366 164.735 384.53 164.339 384.126 163.849Z" fill="white"/>
<path d="M384.126 163.849L379.364 158.166L374.603 163.849C374.19 164.339 374.353 164.735 374.958 164.735L377.156 164.735L377.156 171.305C377.156 171.972 377.646 172.504 378.26 172.504L380.469 172.504C381.073 172.504 381.563 171.972 381.573 171.315L381.573 164.735L383.771 164.735C384.366 164.735 384.53 164.339 384.126 163.849Z" fill="#C2D5FF"/>
<g filter="url(#filter1_d_1616_6291)">
<rect x="32" y="109.422" width="247.548" height="282.578" rx="16" fill="white"/>
<rect x="32.5" y="109.922" width="246.548" height="281.578" rx="15.5" stroke="#F2F6FF"/>
</g>
<circle cx="57.7495" cy="131" r="5" fill="#1561FF"/>
<circle cx="71.7495" cy="131" r="5" fill="#FD8113"/>
<circle cx="85.7495" cy="131" r="5" fill="#0CE18F"/>
<rect x="62.8693" y="161.51" width="185.807" height="52.6922" rx="12.0546" fill="white"/>
<rect x="62.8693" y="161.51" width="185.807" height="52.6922" rx="12.0546" fill="url(#paint0_linear_1616_6291)" fill-opacity="0.06"/>
<rect x="62.8693" y="161.51" width="185.807" height="52.6922" rx="12.0546" stroke="#F2F6FF" stroke-width="1.02091"/>
<g opacity="0.4">
<path d="M115.662 180.364C114.03 177.57 111.501 175.346 108.482 174.102V187.545L115.662 180.364ZM106.625 173.49C105.422 173.163 104.157 173 102.851 173C100.811 173 98.8936 173.408 97.1188 174.142L106.625 183.649V173.49ZM95.3644 175.04C92.5696 176.672 90.346 179.202 89.1016 182.221H102.545L95.3644 175.04ZM90.04 195.338C91.672 198.133 94.2016 200.356 97.2208 201.601V188.157L90.04 195.338ZM88.4896 184.077C88.1632 185.281 88 186.546 88 187.851C88 189.891 88.408 191.809 89.1424 193.584C91.2028 191.523 98.6692 184.077 98.6692 184.077H88.4896ZM99.0772 202.213C100.281 202.539 101.546 202.702 102.851 202.702C104.891 202.702 106.809 202.294 108.584 201.56L99.0772 192.054V202.213ZM116.58 193.482H103.137L110.318 200.662C113.133 199.03 115.336 196.501 116.58 193.482ZM117.213 191.625C117.539 190.422 117.702 189.157 117.702 187.851C117.702 185.811 117.294 183.873 116.56 182.119L107.054 191.625H117.213Z" fill="white"/>
<path d="M115.662 180.364C114.03 177.57 111.501 175.346 108.482 174.102V187.545L115.662 180.364ZM106.625 173.49C105.422 173.163 104.157 173 102.851 173C100.811 173 98.8936 173.408 97.1188 174.142L106.625 183.649V173.49ZM95.3644 175.04C92.5696 176.672 90.346 179.202 89.1016 182.221H102.545L95.3644 175.04ZM90.04 195.338C91.672 198.133 94.2016 200.356 97.2208 201.601V188.157L90.04 195.338ZM88.4896 184.077C88.1632 185.281 88 186.546 88 187.851C88 189.891 88.408 191.809 89.1424 193.584C91.2028 191.523 98.6692 184.077 98.6692 184.077H88.4896ZM99.0772 202.213C100.281 202.539 101.546 202.702 102.851 202.702C104.891 202.702 106.809 202.294 108.584 201.56L99.0772 192.054V202.213ZM116.58 193.482H103.137L110.318 200.662C113.133 199.03 115.336 196.501 116.58 193.482ZM117.213 191.625C117.539 190.422 117.702 189.157 117.702 187.851C117.702 185.811 117.294 183.873 116.56 182.119L107.054 191.625H117.213Z" fill="url(#paint1_linear_1616_6291)"/>
</g>
<rect x="62.8693" y="232.51" width="185.807" height="52.6922" rx="12.0546" fill="white"/>
<rect x="62.8693" y="232.51" width="185.807" height="52.6922" rx="12.0546" fill="url(#paint2_linear_1616_6291)" fill-opacity="0.06"/>
<rect x="62.8693" y="232.51" width="185.807" height="52.6922" rx="12.0546" stroke="#F2F6FF" stroke-width="1.02091"/>
<rect x="62.8693" y="303.51" width="185.807" height="52.6922" rx="12.0546" fill="white"/>
<rect x="62.8693" y="303.51" width="185.807" height="52.6922" rx="12.0546" fill="url(#paint3_linear_1616_6291)" fill-opacity="0.06"/>
<rect x="62.8693" y="303.51" width="185.807" height="52.6922" rx="12.0546" stroke="#F2F6FF" stroke-width="1.02091"/>
<g opacity="0.4" filter="url(#filter2_d_1616_6291)">
<path d="M119.999 323.289C120.01 322.823 119.928 322.36 119.758 321.927C119.587 321.494 119.331 321.099 119.006 320.766C118.742 320.494 118.42 320.285 118.064 320.154C117.708 320.024 117.327 319.975 116.949 320.012C116.572 320.049 116.208 320.171 115.884 320.368C115.56 320.565 115.285 320.832 115.078 321.151L112.842 324.246C112.549 324.676 112.157 325.03 111.699 325.277C111.242 325.525 110.731 325.659 110.211 325.669H95.7799C95.2612 325.658 94.7527 325.523 94.2968 325.275C93.8408 325.028 93.4505 324.675 93.1585 324.246L90.9218 321.151C90.7155 320.832 90.4401 320.565 90.1162 320.368C89.7922 320.171 89.428 320.049 89.0506 320.012C88.6732 319.975 88.2923 320.024 87.9363 320.154C87.5802 320.285 87.2582 320.494 86.9941 320.766C86.6686 321.099 86.413 321.494 86.2425 321.927C86.0719 322.36 85.9898 322.823 86.001 323.289V335.51C86.001 337.819 87.6025 339.688 89.5797 339.688H116.42C118.398 339.688 119.999 337.819 119.999 335.51V323.289ZM103.447 337C103.447 337.002 103.445 337.004 103.443 337.004C103.398 337.004 103.353 336.995 103.311 336.977C103.268 336.958 103.229 336.931 103.197 336.897L102.195 335.77C102.152 335.722 102.124 335.662 102.115 335.599C102.105 335.535 102.114 335.47 102.141 335.412C102.168 335.354 102.211 335.304 102.265 335.27C102.319 335.235 102.381 335.216 102.445 335.215H104.458C104.522 335.216 104.585 335.235 104.639 335.27C104.693 335.304 104.736 335.354 104.763 335.412C104.789 335.47 104.798 335.535 104.789 335.599C104.779 335.662 104.752 335.722 104.709 335.77L103.698 336.888C103.666 336.923 103.627 336.95 103.584 336.969C103.542 336.987 103.497 336.996 103.452 336.996C103.449 336.996 103.447 336.998 103.447 337ZM113.289 337.894C113.289 337.892 113.287 337.89 113.285 337.89C111.925 337.826 110.645 337.228 109.724 336.225C108.802 335.221 108.315 333.893 108.368 332.531C108.312 331.168 108.799 329.837 109.721 328.831C110.643 327.826 111.926 327.226 113.289 327.163C114.652 327.226 115.935 327.826 116.857 328.831C117.779 329.837 118.265 331.168 118.21 332.531C118.265 333.894 117.779 335.225 116.857 336.231C115.936 337.235 114.655 337.835 113.294 337.899C113.291 337.899 113.289 337.897 113.289 337.894ZM92.7111 337C92.7111 336.997 92.7091 336.995 92.7066 336.996C91.9839 336.996 91.3691 334.951 91.3691 332.531C91.3691 330.106 91.9864 328.058 92.7111 328.058C93.4358 328.058 94.0532 330.106 94.0532 332.531C94.0532 334.951 93.4384 336.996 92.7156 337.004C92.7131 337.004 92.7111 337.002 92.7111 337ZM92.7111 337.895C92.7111 337.892 92.7091 337.89 92.7066 337.89C90.0247 337.887 87.8798 335.482 87.8798 332.522C87.8798 329.561 90.045 327.163 92.7111 327.163C95.3773 327.163 97.5424 329.57 97.5424 332.531C97.5424 335.491 95.3797 337.896 92.7156 337.899C92.7132 337.899 92.7111 337.897 92.7111 337.895ZM113.289 337C113.289 336.997 113.287 336.995 113.284 336.995C112.562 336.987 111.947 334.942 111.947 332.522C111.947 330.097 112.564 328.049 113.289 328.049C114.014 328.049 114.631 330.106 114.631 332.531C114.631 334.951 114.016 336.996 113.293 337.004C113.291 337.004 113.289 337.002 113.289 337Z" fill="url(#paint4_radial_1616_6291)"/>
</g>
<path opacity="0.4" d="M110.25 259.701L110.394 259.778C111.848 260.529 113.514 260.763 115.118 260.443L115.374 260.387L115.577 260.335C115.618 260.324 115.658 260.312 115.699 260.301L115.698 272.601C115.698 273.038 115.256 273.399 114.69 273.442L114.575 273.446L106.528 273.446V264.838H99.7903V273.446L92.1173 273.446C91.5356 273.446 91.058 273.113 91.0004 272.687L90.9944 272.6V260.301L91.1553 260.346L91.3178 260.387L91.5476 260.437L91.7841 260.479C93.2328 260.722 94.7209 260.521 96.0534 259.903L96.2959 259.784L96.4441 259.705L96.6949 259.835C97.606 260.286 98.6022 260.54 99.6181 260.579L99.8981 260.585L100.137 260.58L100.404 260.565C101.266 260.503 102.11 260.288 102.897 259.931L103.153 259.808L103.348 259.705L103.55 259.811C104.468 260.275 105.474 260.539 106.51 260.579L106.794 260.585L107.032 260.58L107.324 260.563C108.179 260.498 109.015 260.284 109.795 259.93L110.049 259.808L110.25 259.701ZM113.69 245C113.893 245 114.092 245.055 114.266 245.159C114.44 245.263 114.583 245.413 114.679 245.591L118.558 252.805C118.646 252.968 118.692 253.149 118.692 253.334C118.694 254.299 118.417 255.243 117.894 256.054C117.37 256.864 116.623 257.506 115.743 257.9C114.863 258.295 113.887 258.426 112.934 258.278C111.98 258.13 111.09 257.708 110.372 257.065L110.244 256.946L110.066 257.111C109.211 257.859 108.124 258.291 106.989 258.335L106.794 258.339C105.492 258.339 104.267 257.83 103.357 256.959L103.346 256.949L103.17 257.111C102.315 257.859 101.229 258.291 100.093 258.335L99.8989 258.339C98.5963 258.339 97.3709 257.83 96.4606 256.959L96.4479 256.946L96.3206 257.066C95.7446 257.581 95.0568 257.956 94.3114 258.16C93.566 258.364 92.7834 258.392 92.0252 258.243L91.8373 258.201C90.7428 257.941 89.7682 257.319 89.0717 256.435C88.3752 255.552 87.9975 254.459 88 253.334C88 253.149 88.0464 252.967 88.134 252.805L92.0125 245.591C92.1084 245.413 92.251 245.263 92.4249 245.159C92.5989 245.055 92.7978 245 93.0006 245H113.69Z" fill="url(#paint5_linear_1616_6291)"/>
<rect x="128" y="181" width="94" height="13" rx="6.5" fill="#E3EBF9"/>
<rect x="128" y="252" width="80" height="13" rx="6.5" fill="#E3EBF9"/>
<rect x="128" y="324" width="94" height="13" rx="6.5" fill="#E3EBF9"/>
<g filter="url(#filter3_d_1616_6291)">
<rect x="294" y="336" width="72" height="72" rx="16" fill="url(#paint6_linear_1616_6291)"/>
</g>
<path d="M329.985 360.713C329.739 360.713 329.5 360.736 329.259 360.75V365.143C329.502 365.121 329.736 365.07 329.985 365.07C334.396 365.07 337.972 368.646 337.972 373.058C337.972 373.818 337.832 374.539 337.633 375.236H342.125C342.251 374.527 342.329 373.802 342.329 373.058C342.329 366.24 336.802 360.713 329.985 360.713ZM329.985 352C329.739 352 329.502 352.028 329.259 352.037V356.394C329.501 356.383 329.739 356.357 329.985 356.357C339.208 356.357 346.685 363.834 346.685 373.058C346.685 373.798 346.621 374.521 346.527 375.236H350.929C351.004 374.512 351.042 373.785 351.042 373.058C351.042 361.428 341.615 352 329.985 352V352ZM337.641 381.648C335.223 380.723 332.932 379.533 330.277 382.011C328.639 383.541 327.454 383.374 326.382 382.804C325.312 382.235 318.715 375.5 317.814 373.297C316.914 371.093 317.4 370.796 317.814 370.128C318.228 369.459 321.1 367.899 319.372 362.997C317.643 358.095 316.286 354.403 309.246 362.997C308.515 363.888 309.246 367.751 309.246 367.751C309.246 367.751 314.21 383.979 331.056 390.727C333.671 391.774 339.577 390.116 341.961 385.973C343.13 383.943 341.435 383.098 337.641 381.648Z" fill="white"/>
<path d="M329.985 360.713C329.739 360.713 329.5 360.736 329.259 360.75V365.143C329.502 365.121 329.736 365.07 329.985 365.07C334.396 365.07 337.972 368.646 337.972 373.058C337.972 373.818 337.832 374.539 337.633 375.236H342.125C342.251 374.527 342.329 373.802 342.329 373.058C342.329 366.24 336.802 360.713 329.985 360.713ZM329.985 352C329.739 352 329.502 352.028 329.259 352.037V356.394C329.501 356.383 329.739 356.357 329.985 356.357C339.208 356.357 346.685 363.834 346.685 373.058C346.685 373.798 346.621 374.521 346.527 375.236H350.929C351.004 374.512 351.042 373.785 351.042 373.058C351.042 361.428 341.615 352 329.985 352V352ZM337.641 381.648C335.223 380.723 332.932 379.533 330.277 382.011C328.639 383.541 327.454 383.374 326.382 382.804C325.312 382.235 318.715 375.5 317.814 373.297C316.914 371.093 317.4 370.796 317.814 370.128C318.228 369.459 321.1 367.899 319.372 362.997C317.643 358.095 316.286 354.403 309.246 362.997C308.515 363.888 309.246 367.751 309.246 367.751C309.246 367.751 314.21 383.979 331.056 390.727C333.671 391.774 339.577 390.116 341.961 385.973C343.13 383.943 341.435 383.098 337.641 381.648Z" fill="url(#paint7_linear_1616_6291)" fill-opacity="0.3"/>
<g filter="url(#filter4_d_1616_6291)">
<rect x="208" y="336" width="72" height="72" rx="16" fill="url(#paint8_linear_1616_6291)"/>
</g>
<path d="M228.17 350.305C227.627 350.305 227.049 350.522 226.651 350.956C226.253 351.39 226 351.932 226 352.474V391.528C226 392.07 226.217 392.649 226.651 393.047C227.085 393.481 227.627 393.698 228.17 393.698H259.991C260.533 393.698 261.112 393.481 261.51 393.047C261.944 392.613 262.161 392.07 262.161 391.528V362.599L249.866 350.305H228.17Z" fill="url(#paint9_linear_1616_6291)"/>
<path d="M240.322 386.715L237.826 380.594L240.139 374.871H237.544L236.546 378.415L235.548 374.871H232.953L235.198 380.594L232.77 386.715H235.365L236.546 382.939L237.727 386.715H240.322ZM246.789 386.715V384.586H243.695V374.871H241.333V386.715H246.789ZM254.411 383.338C254.411 381.192 253.979 380.51 252.482 379.912L251.001 379.313C250.319 379.03 250.186 378.814 250.186 378.065C250.186 377.666 250.236 377.416 250.386 377.217C250.519 377.034 250.735 376.901 251.068 376.901C251.417 376.901 251.617 377.017 251.75 377.2C251.949 377.466 251.949 377.849 251.949 378.265H254.311C254.311 377.067 254.045 376.119 253.397 375.52C252.881 375.038 252.116 374.772 251.068 374.772C250.17 374.772 249.454 375.038 248.889 375.52C248.174 376.136 247.824 377.051 247.824 378.148C247.824 379.995 248.323 380.627 249.521 381.126L251.018 381.741C251.866 382.091 252.049 382.29 252.049 383.421C252.049 383.904 251.983 384.22 251.816 384.419C251.667 384.619 251.434 384.719 251.068 384.719C250.702 384.719 250.469 384.586 250.336 384.436C250.12 384.186 250.086 383.837 250.086 383.355H247.724C247.724 384.569 247.924 385.401 248.506 385.983C249.038 386.515 249.903 386.848 251.068 386.848C252.216 386.848 253.114 386.482 253.646 385.966C254.262 385.367 254.411 384.536 254.411 383.338Z" fill="#0CE18F"/>
<path d="M262.161 362.599H252.036C251.493 362.599 250.915 362.382 250.517 361.948C250.083 361.551 249.866 360.972 249.866 360.43V350.305L262.161 362.599Z" fill="#11EC98" fill-opacity="0.4"/>
<g filter="url(#filter5_d_1616_6291)">
<rect x="380" y="336" width="72" height="72" rx="16" fill="url(#paint10_linear_1616_6291)"/>
</g>
<path d="M416.816 350.398C411.691 350.398 406.946 351.966 403.15 354.599C399.318 357.251 396.471 361.007 395.143 365.325C394.61 367.061 394.32 368.904 394.32 370.797C394.32 377.896 398.306 384.117 404.361 387.785C404.904 388.11 405.184 388.82 404.949 389.451C404.497 390.654 403.919 391.808 403.232 392.892C403.015 393.227 403.286 393.691 403.657 393.582C405.735 392.981 407.678 392.113 409.441 391.019C410.083 390.615 410.815 390.487 411.538 390.644C413.228 391.009 414.999 391.206 416.825 391.206C429.252 391.206 439.32 382.067 439.32 370.807C439.32 359.538 429.243 350.398 416.816 350.398Z" fill="white"/>
<rect x="143" y="51" width="15" height="15" rx="7.5" fill="url(#paint11_linear_1616_6291)" fill-opacity="0.2"/>
<rect opacity="0.6" x="6" y="283" width="12" height="12" rx="6" fill="url(#paint12_linear_1616_6291)" fill-opacity="0.2"/>
<defs>
<filter id="filter0_d_1616_6291" x="187.417" y="12" width="306.791" height="396.82" filterUnits="userSpaceOnUse" color-interpolation-filters="sRGB">
<feFlood flood-opacity="0" result="BackgroundImageFix"/>
<feColorMatrix in="SourceAlpha" type="matrix" values="0 0 0 0 0 0 0 0 0 0 0 0 0 0 0 0 0 0 127 0" result="hardAlpha"/>
<feOffset dy="10"/>
<feGaussianBlur stdDeviation="15"/>
<feColorMatrix type="matrix" values="0 0 0 0 0.0196078 0 0 0 0 0.333333 0 0 0 0 1 0 0 0 0.1 0"/>
<feBlend mode="normal" in2="BackgroundImageFix" result="effect1_dropShadow_1616_6291"/>
<feBlend mode="normal" in="SourceGraphic" in2="effect1_dropShadow_1616_6291" result="shape"/>
</filter>
<filter id="filter1_d_1616_6291" x="2" y="89.4219" width="307.547" height="342.578" filterUnits="userSpaceOnUse" color-interpolation-filters="sRGB">
<feFlood flood-opacity="0" result="BackgroundImageFix"/>
<feColorMatrix in="SourceAlpha" type="matrix" values="0 0 0 0 0 0 0 0 0 0 0 0 0 0 0 0 0 0 127 0" result="hardAlpha"/>
<feOffset dy="10"/>
<feGaussianBlur stdDeviation="15"/>
<feColorMatrix type="matrix" values="0 0 0 0 0.0196078 0 0 0 0 0.333333 0 0 0 0 1 0 0 0 0.1 0"/>
<feBlend mode="normal" in2="BackgroundImageFix" result="effect1_dropShadow_1616_6291"/>
<feBlend mode="normal" in="SourceGraphic" in2="effect1_dropShadow_1616_6291" result="shape"/>
</filter>
<filter id="filter2_d_1616_6291" x="72.703" y="320" width="60.594" height="46.2815" filterUnits="userSpaceOnUse" color-interpolation-filters="sRGB">
<feFlood flood-opacity="0" result="BackgroundImageFix"/>
<feColorMatrix in="SourceAlpha" type="matrix" values="0 0 0 0 0 0 0 0 0 0 0 0 0 0 0 0 0 0 127 0" result="hardAlpha"/>
<feOffset dy="13.297"/>
<feGaussianBlur stdDeviation="6.64849"/>
<feColorMatrix type="matrix" values="0 0 0 0 0.396078 0 0 0 0 0.278431 0 0 0 0 1 0 0 0 0.1 0"/>
<feBlend mode="normal" in2="BackgroundImageFix" result="effect1_dropShadow_1616_6291"/>
<feBlend mode="normal" in="SourceGraphic" in2="effect1_dropShadow_1616_6291" result="shape"/>
</filter>
<filter id="filter3_d_1616_6291" x="283.911" y="336" width="92.1786" height="102.268" filterUnits="userSpaceOnUse" color-interpolation-filters="sRGB">
<feFlood flood-opacity="0" result="BackgroundImageFix"/>
<feColorMatrix in="SourceAlpha" type="matrix" values="0 0 0 0 0 0 0 0 0 0 0 0 0 0 0 0 0 0 127 0" result="hardAlpha"/>
<feMorphology radius="10.0893" operator="erode" in="SourceAlpha" result="effect1_dropShadow_1616_6291"/>
<feOffset dy="20.1786"/>
<feGaussianBlur stdDeviation="10.0893"/>
<feComposite in2="hardAlpha" operator="out"/>
<feColorMatrix type="matrix" values="0 0 0 0 0.164706 0 0 0 0 0.435294 0 0 0 0 1 0 0 0 0.1 0"/>
<feBlend mode="normal" in2="BackgroundImageFix" result="effect1_dropShadow_1616_6291"/>
<feBlend mode="normal" in="SourceGraphic" in2="effect1_dropShadow_1616_6291" result="shape"/>
</filter>
<filter id="filter4_d_1616_6291" x="195.143" y="336" width="97.7143" height="97.7143" filterUnits="userSpaceOnUse" color-interpolation-filters="sRGB">
<feFlood flood-opacity="0" result="BackgroundImageFix"/>
<feColorMatrix in="SourceAlpha" type="matrix" values="0 0 0 0 0 0 0 0 0 0 0 0 0 0 0 0 0 0 127 0" result="hardAlpha"/>
<feOffset dy="12.8571"/>
<feGaussianBlur stdDeviation="6.42857"/>
<feColorMatrix type="matrix" values="0 0 0 0 0.0509804 0 0 0 0 0.894118 0 0 0 0 0.572549 0 0 0 0.1 0"/>
<feBlend mode="normal" in2="BackgroundImageFix" result="effect1_dropShadow_1616_6291"/>
<feBlend mode="normal" in="SourceGraphic" in2="effect1_dropShadow_1616_6291" result="shape"/>
</filter>
<filter id="filter5_d_1616_6291" x="368.75" y="336" width="94.5" height="94.5" filterUnits="userSpaceOnUse" color-interpolation-filters="sRGB">
<feFlood flood-opacity="0" result="BackgroundImageFix"/>
<feColorMatrix in="SourceAlpha" type="matrix" values="0 0 0 0 0 0 0 0 0 0 0 0 0 0 0 0 0 0 127 0" result="hardAlpha"/>
<feOffset dy="11.25"/>
<feGaussianBlur stdDeviation="5.625"/>
<feColorMatrix type="matrix" values="0 0 0 0 0.2 0 0 0 0 0.858824 0 0 0 0 0.321569 0 0 0 0.1 0"/>
<feBlend mode="normal" in2="BackgroundImageFix" result="effect1_dropShadow_1616_6291"/>
<feBlend mode="normal" in="SourceGraphic" in2="effect1_dropShadow_1616_6291" result="shape"/>
</filter>
<linearGradient id="paint0_linear_1616_6291" x1="155.773" y1="161" x2="155.773" y2="214.713" gradientUnits="userSpaceOnUse">
<stop stop-color="#0555FF"/>
<stop offset="1" stop-color="#0555FF" stop-opacity="0.6"/>
</linearGradient>
<linearGradient id="paint1_linear_1616_6291" x1="86.6499" y1="171.774" x2="118.761" y2="204.183" gradientUnits="userSpaceOnUse">
<stop stop-color="#0555FF"/>
<stop offset="1" stop-color="#0555FF" stop-opacity="0.21"/>
</linearGradient>
<linearGradient id="paint2_linear_1616_6291" x1="155.773" y1="232" x2="155.773" y2="285.713" gradientUnits="userSpaceOnUse">
<stop stop-color="#0555FF"/>
<stop offset="1" stop-color="#0555FF" stop-opacity="0.6"/>
</linearGradient>
<linearGradient id="paint3_linear_1616_6291" x1="155.773" y1="303" x2="155.773" y2="356.713" gradientUnits="userSpaceOnUse">
<stop stop-color="#0555FF"/>
<stop offset="1" stop-color="#0555FF" stop-opacity="0.6"/>
</linearGradient>
<radialGradient id="paint4_radial_1616_6291" cx="0" cy="0" r="1" gradientUnits="userSpaceOnUse" gradientTransform="translate(87.0303 320.895) rotate(32.1696) scale(35.2979 35.2588)">
<stop stop-color="#5432FF"/>
<stop offset="1" stop-color="#7256FF" stop-opacity="0.2"/>
</radialGradient>
<linearGradient id="paint5_linear_1616_6291" x1="88.8686" y1="245.711" x2="119.33" y2="267.209" gradientUnits="userSpaceOnUse">
<stop stop-color="#07D988"/>
<stop offset="1" stop-color="#15F59F" stop-opacity="0.2"/>
</linearGradient>
<linearGradient id="paint6_linear_1616_6291" x1="312.968" y1="336" x2="344.03" y2="406.596" gradientUnits="userSpaceOnUse">
<stop stop-color="#0555FF"/>
<stop offset="1" stop-color="#4380FF"/>
</linearGradient>
<linearGradient id="paint7_linear_1616_6291" x1="308.921" y1="352" x2="347.841" y2="393.999" gradientUnits="userSpaceOnUse">
<stop stop-color="#0555FF"/>
<stop offset="1" stop-color="#0555FF" stop-opacity="0.21"/>
</linearGradient>
<linearGradient id="paint8_linear_1616_6291" x1="210.038" y1="337.8" x2="285.011" y2="386.839" gradientUnits="userSpaceOnUse">
<stop stop-color="#07D988"/>
<stop offset="1" stop-color="#15F59F"/>
</linearGradient>
<linearGradient id="paint9_linear_1616_6291" x1="227.023" y1="351.39" x2="268.472" y2="373.982" gradientUnits="userSpaceOnUse">
<stop stop-color="white"/>
<stop offset="1" stop-color="white" stop-opacity="0.7"/>
</linearGradient>
<linearGradient id="paint10_linear_1616_6291" x1="382.038" y1="337.8" x2="457.011" y2="386.839" gradientUnits="userSpaceOnUse">
<stop stop-color="#2DD64C"/>
<stop offset="1" stop-color="#58F473"/>
</linearGradient>
<linearGradient id="paint11_linear_1616_6291" x1="150.5" y1="51" x2="150.5" y2="66" gradientUnits="userSpaceOnUse">
<stop stop-color="#0555FF"/>
<stop offset="1" stop-color="#0555FF" stop-opacity="0.21"/>
</linearGradient>
<linearGradient id="paint12_linear_1616_6291" x1="12" y1="283" x2="12" y2="295" gradientUnits="userSpaceOnUse">
<stop stop-color="#0555FF"/>
<stop offset="1" stop-color="#0555FF" stop-opacity="0.21"/>
</linearGradient>
</defs>
</svg>
