<svg width="508" height="440" viewBox="0 0 508 440" fill="none" xmlns="http://www.w3.org/2000/svg">
<rect width="496" height="440" transform="translate(6)" fill="white"/>
<rect x="382" y="31" width="14" height="14" rx="7" fill="white"/>
<rect x="382" y="31" width="14" height="14" rx="7" fill="url(#paint0_linear_1616_7353)" fill-opacity="0.2"/>
<g filter="url(#filter0_d_1616_7353)">
<rect x="30" y="40" width="448" height="338.113" rx="16" fill="white"/>
<rect x="30.5" y="40.5" width="447" height="337.113" rx="15.5" stroke="#F2F6FF"/>
</g>
<rect x="46.4089" y="57.4089" width="129.182" height="303.182" rx="9.65563" fill="white"/>
<rect x="46.4089" y="57.4089" width="129.182" height="303.182" rx="9.65563" fill="url(#paint1_linear_1616_7353)" fill-opacity="0.06"/>
<rect x="46.4089" y="57.4089" width="129.182" height="303.182" rx="9.65563" stroke="#F2F6FF" stroke-width="0.817741"/>
<circle cx="67.812" cy="78.8125" r="5" fill="#1561FF"/>
<circle cx="81.812" cy="78.8125" r="5" fill="#FD8113"/>
<circle cx="95.812" cy="78.8125" r="5" fill="#0CE18F"/>
<line opacity="0.3" x1="198.435" y1="113.565" x2="445.565" y2="113.565" stroke="#869BB9" stroke-width="0.870144" stroke-linecap="round" stroke-dasharray="1.74 2.61"/>
<rect x="230" y="79" width="48" height="9" rx="4.5" fill="#F0F5FF"/>
<rect opacity="0.6" x="79" y="196" width="48" height="11" rx="5.5" fill="url(#paint2_linear_1616_7353)"/>
<rect opacity="0.6" x="79" y="262.09" width="48" height="11" rx="5.5" fill="url(#paint3_linear_1616_7353)"/>
<rect opacity="0.6" x="106" y="229" width="34" height="11" rx="5.5" fill="url(#paint4_linear_1616_7353)"/>
<path opacity="0.6" fill-rule="evenodd" clip-rule="evenodd" d="M68.5519 209.569L69.9478 211C72.4271 208.77 74 205.508 74 201.862C74 198.364 72.551 195.219 70.2441 193L68.8447 194.434C70.7944 196.286 72.0224 198.925 72.0224 201.865C72.0224 204.951 70.6731 207.709 68.5519 209.569ZM64.7429 205.666L66.1809 207.139C67.8298 205.993 68.9133 204.058 68.9133 201.862C68.9133 199.816 67.9678 197.999 66.5043 196.833L65.0922 198.28C66.2046 199.063 66.935 200.375 66.935 201.862C66.935 203.501 66.0497 204.925 64.7429 205.666ZM61 202.152C61 202.952 61.6327 203.6 62.413 203.6C63.1939 203.6 63.8261 202.952 63.8261 202.152C63.8261 201.352 63.1939 200.704 62.413 200.704C61.6326 200.704 61 201.352 61 202.152Z" fill="url(#paint5_linear_1616_7353)"/>
<path opacity="0.6" fill-rule="evenodd" clip-rule="evenodd" d="M68.5519 275.569L69.9478 277C72.4271 274.77 74 271.508 74 267.862C74 264.364 72.551 261.219 70.2441 259L68.8447 260.434C70.7944 262.286 72.0224 264.925 72.0224 267.865C72.0224 270.951 70.6731 273.709 68.5519 275.569ZM64.7429 271.666L66.1809 273.139C67.8298 271.993 68.9133 270.058 68.9133 267.862C68.9133 265.816 67.9678 263.999 66.5043 262.833L65.0922 264.28C66.2046 265.063 66.935 266.375 66.935 267.862C66.935 269.501 66.0497 270.925 64.7429 271.666ZM61 268.152C61 268.952 61.6327 269.6 62.413 269.6C63.1939 269.6 63.8261 268.952 63.8261 268.152C63.8261 267.352 63.1939 266.704 62.413 266.704C61.6326 266.704 61 267.352 61 268.152Z" fill="url(#paint6_linear_1616_7353)"/>
<path opacity="0.6" fill-rule="evenodd" clip-rule="evenodd" d="M153.448 227.431L152.052 226C149.573 228.23 148 231.492 148 235.138C148 238.636 149.449 241.781 151.756 244L153.155 242.566C151.206 240.714 149.978 238.075 149.978 235.135C149.978 232.049 151.327 229.291 153.448 227.431ZM157.257 231.334L155.819 229.861C154.17 231.007 153.087 232.942 153.087 235.138C153.087 237.184 154.032 239.001 155.496 240.167L156.908 238.72C155.795 237.937 155.065 236.625 155.065 235.138C155.065 233.499 155.95 232.075 157.257 231.334ZM161 234.848C161 234.048 160.367 233.4 159.587 233.4C158.806 233.4 158.174 234.048 158.174 234.848C158.174 235.648 158.806 236.296 159.587 236.296C160.367 236.296 161 235.648 161 234.848Z" fill="url(#paint7_linear_1616_7353)"/>
<circle cx="209" cy="83" r="13" fill="white"/>
<circle cx="209" cy="83" r="13" fill="url(#paint8_linear_1616_7353)" fill-opacity="0.3"/>
<rect x="245" y="223" width="158" height="9" rx="4.5" fill="#F0F5FF"/>
<rect x="323" y="134" width="80" height="56" rx="6" fill="#F0F5FF"/>
<circle cx="424.264" cy="151.264" r="13.2642" fill="white"/>
<circle cx="424.264" cy="151.264" r="13.2642" fill="url(#paint9_linear_1616_7353)" fill-opacity="0.4"/>
<circle cx="424.264" cy="227.264" r="13.2642" fill="white"/>
<circle cx="424.264" cy="227.264" r="13.2642" fill="url(#paint10_linear_1616_7353)" fill-opacity="0.4"/>
<path fill-rule="evenodd" clip-rule="evenodd" d="M418.701 147.642C418.807 147.51 418.928 147.386 419.061 147.276L419.065 147.272L419.092 147.248H419.093L419.218 147.145C419.23 147.135 419.244 147.125 419.257 147.116L419.273 147.105H419.272L419.873 146.599L419.886 146.588L423.707 143.54C424.08 143.228 424.624 143.232 424.993 143.551L428.75 146.653L428.784 146.684L429.544 147.339H429.546L429.657 147.435C429.736 147.504 429.81 147.577 429.88 147.653C430.32 148.134 430.568 148.767 430.568 149.429V153.582C430.568 154.616 429.967 155.552 429.03 155.977L425.362 157.639L425.258 157.686C425.246 157.691 425.234 157.696 425.223 157.701C425.211 157.706 425.199 157.711 425.187 157.717C425.187 157.717 425.186 157.717 425.184 157.719C425.156 157.73 425.129 157.741 425.101 157.751L424.24 158.131L420.75 159.496C420.307 159.67 419.878 159.215 420.071 158.777L420.928 156.852L421.022 156.596L419.655 155.977C418.719 155.552 418.119 154.616 418.119 153.582V149.297C418.119 148.689 418.328 148.107 418.701 147.642ZM419.778 151.98C419.961 153.729 421.263 154.834 424.343 154.881C427.422 154.834 428.726 153.731 428.908 151.982C429.016 150.944 428.93 149.926 428.84 149.271C428.778 148.821 428.479 148.437 428.056 148.277C426.342 147.635 425.171 147.606 424.345 147.606C423.223 147.606 422.252 147.669 420.628 148.277C420.204 148.437 419.906 148.82 419.844 149.271C419.756 149.924 419.67 150.942 419.778 151.98ZM417.351 144.883H417.57C417.616 144.883 417.657 144.906 417.657 144.933V148.812H417.792C417.821 148.812 417.843 148.836 417.843 148.863V152.31C417.843 152.339 417.82 152.361 417.792 152.361H417.254C417.043 152.361 416.872 152.189 416.87 151.977V149.199C416.87 148.985 417.043 148.812 417.254 148.812H417.264V144.933C417.264 144.906 417.301 144.883 417.351 144.883ZM430.892 152.374H431.43C431.641 152.374 431.812 152.202 431.814 151.989V149.212C431.814 148.998 431.641 148.825 431.43 148.825H430.892C430.863 148.825 430.842 148.849 430.842 148.876V152.323C430.842 152.352 430.865 152.374 430.892 152.374ZM422.751 151.692H422.221C422.104 151.692 422.009 151.596 422.009 151.478V149.82C422.009 149.702 422.104 149.605 422.221 149.605H422.751C422.868 149.605 422.963 149.702 422.963 149.82V151.478C422.963 151.596 422.868 151.692 422.751 151.692ZM426.466 151.692H425.936C425.819 151.692 425.724 151.596 425.724 151.478V149.82C425.724 149.702 425.819 149.605 425.936 149.605H426.466C426.583 149.605 426.678 149.702 426.678 149.82V151.478C426.678 151.596 426.583 151.692 426.466 151.692ZM424.348 153.456C424.701 153.456 425.032 153.346 425.261 153.155C425.318 153.106 425.327 153.019 425.279 152.961C425.23 152.903 425.144 152.894 425.086 152.943C424.906 153.093 424.638 153.181 424.35 153.181C424.056 153.181 423.784 153.092 423.606 152.936C423.548 152.887 423.462 152.892 423.413 152.95C423.365 153.008 423.37 153.095 423.428 153.144C423.653 153.344 423.989 153.456 424.348 153.456Z" fill="white"/>
<path fill-rule="evenodd" clip-rule="evenodd" d="M418.701 223.642C418.807 223.51 418.928 223.386 419.061 223.276L419.065 223.272L419.092 223.248H419.093L419.218 223.145C419.23 223.135 419.244 223.125 419.257 223.116L419.273 223.105H419.272L419.873 222.599L419.886 222.588L423.707 219.54C424.08 219.228 424.624 219.232 424.993 219.551L428.75 222.653L428.784 222.684L429.544 223.339H429.546L429.657 223.435C429.736 223.504 429.81 223.577 429.88 223.653C430.32 224.134 430.568 224.767 430.568 225.429V229.582C430.568 230.616 429.967 231.552 429.03 231.977L425.362 233.639L425.258 233.686C425.246 233.691 425.234 233.696 425.223 233.701C425.211 233.706 425.199 233.711 425.187 233.717C425.187 233.717 425.186 233.717 425.184 233.719C425.156 233.73 425.129 233.741 425.101 233.751L424.24 234.131L420.75 235.496C420.307 235.67 419.878 235.215 420.071 234.777L420.928 232.852L421.022 232.596L419.655 231.977C418.719 231.552 418.119 230.616 418.119 229.582V225.297C418.119 224.689 418.328 224.107 418.701 223.642ZM419.778 227.98C419.961 229.729 421.263 230.834 424.343 230.881C427.422 230.834 428.726 229.731 428.908 227.982C429.016 226.944 428.93 225.926 428.84 225.271C428.778 224.821 428.479 224.437 428.056 224.277C426.342 223.635 425.171 223.606 424.345 223.606C423.223 223.606 422.252 223.669 420.628 224.277C420.204 224.437 419.906 224.82 419.844 225.271C419.756 225.924 419.67 226.942 419.778 227.98ZM417.351 220.883H417.57C417.616 220.883 417.657 220.906 417.657 220.933V224.812H417.792C417.821 224.812 417.843 224.836 417.843 224.863V228.31C417.843 228.339 417.82 228.361 417.792 228.361H417.254C417.043 228.361 416.872 228.189 416.87 227.977V225.199C416.87 224.985 417.043 224.812 417.254 224.812H417.264V220.933C417.264 220.906 417.301 220.883 417.351 220.883ZM430.892 228.374H431.43C431.641 228.374 431.812 228.202 431.814 227.989V225.212C431.814 224.998 431.641 224.825 431.43 224.825H430.892C430.863 224.825 430.842 224.849 430.842 224.876V228.323C430.842 228.352 430.865 228.374 430.892 228.374ZM422.751 227.692H422.221C422.104 227.692 422.009 227.596 422.009 227.478V225.82C422.009 225.702 422.104 225.605 422.221 225.605H422.751C422.868 225.605 422.963 225.702 422.963 225.82V227.478C422.963 227.596 422.868 227.692 422.751 227.692ZM426.466 227.692H425.936C425.819 227.692 425.724 227.596 425.724 227.478V225.82C425.724 225.702 425.819 225.605 425.936 225.605H426.466C426.583 225.605 426.678 225.702 426.678 225.82V227.478C426.678 227.596 426.583 227.692 426.466 227.692ZM424.348 229.456C424.701 229.456 425.032 229.346 425.261 229.155C425.318 229.106 425.327 229.019 425.279 228.961C425.23 228.903 425.144 228.894 425.086 228.943C424.906 229.093 424.638 229.181 424.35 229.181C424.056 229.181 423.784 229.092 423.606 228.936C423.548 228.887 423.462 228.892 423.413 228.95C423.365 229.008 423.37 229.095 423.428 229.144C423.653 229.344 423.989 229.456 424.348 229.456Z" fill="white"/>
<rect x="245" y="240" width="64" height="9" rx="4.5" fill="#F0F5FF"/>
<path fill-rule="evenodd" clip-rule="evenodd" d="M349.552 160.987L353.95 166.163C354.174 166.421 354.488 166.584 354.828 166.619C355.168 166.654 355.509 166.558 355.781 166.351C355.912 166.251 356.021 166.125 356.102 165.981C356.183 165.838 356.233 165.679 356.25 165.515C356.267 165.351 356.251 165.186 356.202 165.028C356.152 164.871 356.072 164.725 355.964 164.601L350.83 158.555C350.819 158.54 350.812 158.53 350.806 158.522C350.795 158.507 350.79 158.499 350.773 158.483L350.687 158.384L350.655 158.347L350.42 158.07C350.204 157.818 350.002 157.554 349.814 157.279C349.394 156.659 349.135 156.083 349.08 155.626C349.05 155.42 349.072 155.21 349.146 155.015C349.219 154.82 349.341 154.648 349.5 154.514C349.674 154.349 349.862 154.187 350.001 154.069C350.137 153.952 350.224 153.877 350.202 153.881C350.232 153.876 350.235 153.871 350.212 153.841L350.22 153.849C350.491 154.182 350.768 154.51 351.053 154.832L357.378 162.277C357.602 162.535 357.915 162.699 358.255 162.734C358.594 162.769 358.935 162.674 359.207 162.468C359.339 162.368 359.449 162.242 359.53 162.098C359.612 161.954 359.663 161.795 359.68 161.63C359.697 161.466 359.681 161.299 359.631 161.142C359.582 160.984 359.501 160.838 359.392 160.713L353.515 153.792L353.5 153.774L352.331 152.4C351.97 151.948 351.75 151.636 351.688 151.498C351.577 151.243 351.836 150.596 352.269 150.237C352.944 149.679 353.426 149.632 354.066 150.064L361.74 159.104C361.965 159.362 362.279 159.525 362.619 159.56C362.959 159.595 363.3 159.499 363.572 159.291C363.703 159.191 363.813 159.066 363.894 158.922C363.975 158.778 364.025 158.619 364.043 158.455C364.06 158.29 364.043 158.125 363.994 157.967C363.944 157.81 363.863 157.664 363.755 157.539L356.27 148.722C356.313 148.379 356.488 148.089 356.827 147.81C357.024 147.653 357.26 147.55 357.509 147.511C357.759 147.472 358.014 147.498 358.25 147.588C358.663 147.746 359.098 148.146 360.186 149.427C362.443 152.08 364.704 154.729 366.97 157.374C366.892 157.616 366.852 157.87 366.852 158.128C366.852 158.784 367.112 159.412 367.576 159.876C368.04 160.339 368.668 160.6 369.324 160.6C369.979 160.6 370.608 160.339 371.072 159.876C371.535 159.412 371.795 158.784 371.795 158.128C371.795 157.472 371.535 156.844 371.072 156.38C370.608 155.917 369.979 155.656 369.324 155.656C369.208 155.656 369.094 155.664 368.98 155.68C368.737 155.322 368.594 155.052 368.555 154.887C368.5 154.657 368.501 154.418 368.558 154.188C368.614 153.959 368.725 153.747 368.88 153.569C369.035 153.391 369.231 153.252 369.45 153.165C369.67 153.078 369.907 153.045 370.142 153.068C370.649 153.117 371.526 153.814 372.547 155.018C376.039 159.131 377.095 161.479 376.719 166.422C376.395 170.656 375.258 173.069 372.534 175.328C370.216 177.251 367.057 177.671 363.688 176.841C361.379 176.233 359.244 175.093 357.454 173.511C357.096 173.185 356.74 172.854 356.387 172.515C354.799 170.985 353.294 169.37 351.881 167.678C351.271 166.952 350.153 165.56 349.697 164.992C349.578 164.844 349.504 164.752 349.495 164.742C348.658 163.755 348.363 162.45 348.86 161.741C349.124 161.364 349.318 161.159 349.552 160.987ZM374.561 153.456C373.11 151.745 371.832 150.732 370.387 150.588H370.384C368.624 150.415 367.077 151.347 366.35 152.731C364.625 150.714 363.241 149.091 362.198 147.862C360.826 146.246 360.176 145.645 359.197 145.274C358.225 144.902 357.149 144.909 356.182 145.295C355.216 145.68 354.43 146.416 353.982 147.355C352.815 147.121 351.631 147.454 350.553 148.349C349.582 149.155 348.949 150.435 349.073 151.634C348.645 151.844 348.232 152.193 347.664 152.734C347.228 153.124 346.894 153.614 346.69 154.162C346.486 154.711 346.419 155.3 346.495 155.88C346.599 156.792 347.011 157.702 347.632 158.622C347.725 158.76 347.822 158.896 347.921 159.029C347.479 159.361 347.103 159.759 346.693 160.342C345.442 162.124 345.993 164.556 347.484 166.306C347.491 166.316 349.06 168.283 349.856 169.233C351.33 170.995 352.898 172.677 354.553 174.27C354.923 174.626 355.299 174.974 355.677 175.316C357.793 177.192 360.322 178.541 363.058 179.253C367.183 180.269 371.21 179.735 374.247 177.219C377.517 174.507 378.944 171.479 379.314 166.622C379.747 160.938 378.437 158.018 374.561 153.456Z" fill="white"/>
<path fill-rule="evenodd" clip-rule="evenodd" d="M349.552 160.987L353.95 166.163C354.174 166.421 354.488 166.584 354.828 166.619C355.168 166.654 355.509 166.558 355.781 166.351C355.912 166.251 356.021 166.125 356.102 165.981C356.183 165.838 356.233 165.679 356.25 165.515C356.267 165.351 356.251 165.186 356.202 165.028C356.152 164.871 356.072 164.725 355.964 164.601L350.83 158.555C350.819 158.54 350.812 158.53 350.806 158.522C350.795 158.507 350.79 158.499 350.773 158.483L350.687 158.384L350.655 158.347L350.42 158.07C350.204 157.818 350.002 157.554 349.814 157.279C349.394 156.659 349.135 156.083 349.08 155.626C349.05 155.42 349.072 155.21 349.146 155.015C349.219 154.82 349.341 154.648 349.5 154.514C349.674 154.349 349.862 154.187 350.001 154.069C350.137 153.952 350.224 153.877 350.202 153.881C350.232 153.876 350.235 153.871 350.212 153.841L350.22 153.849C350.491 154.182 350.768 154.51 351.053 154.832L357.378 162.277C357.602 162.535 357.915 162.699 358.255 162.734C358.594 162.769 358.935 162.674 359.207 162.468C359.339 162.368 359.449 162.242 359.53 162.098C359.612 161.954 359.663 161.795 359.68 161.63C359.697 161.466 359.681 161.299 359.631 161.142C359.582 160.984 359.501 160.838 359.392 160.713L353.515 153.792L353.5 153.774L352.331 152.4C351.97 151.948 351.75 151.636 351.688 151.498C351.577 151.243 351.836 150.596 352.269 150.237C352.944 149.679 353.426 149.632 354.066 150.064L361.74 159.104C361.965 159.362 362.279 159.525 362.619 159.56C362.959 159.595 363.3 159.499 363.572 159.291C363.703 159.191 363.813 159.066 363.894 158.922C363.975 158.778 364.025 158.619 364.043 158.455C364.06 158.29 364.043 158.125 363.994 157.967C363.944 157.81 363.863 157.664 363.755 157.539L356.27 148.722C356.313 148.379 356.488 148.089 356.827 147.81C357.024 147.653 357.26 147.55 357.509 147.511C357.759 147.472 358.014 147.498 358.25 147.588C358.663 147.746 359.098 148.146 360.186 149.427C362.443 152.08 364.704 154.729 366.97 157.374C366.892 157.616 366.852 157.87 366.852 158.128C366.852 158.784 367.112 159.412 367.576 159.876C368.04 160.339 368.668 160.6 369.324 160.6C369.979 160.6 370.608 160.339 371.072 159.876C371.535 159.412 371.795 158.784 371.795 158.128C371.795 157.472 371.535 156.844 371.072 156.38C370.608 155.917 369.979 155.656 369.324 155.656C369.208 155.656 369.094 155.664 368.98 155.68C368.737 155.322 368.594 155.052 368.555 154.887C368.5 154.657 368.501 154.418 368.558 154.188C368.614 153.959 368.725 153.747 368.88 153.569C369.035 153.391 369.231 153.252 369.45 153.165C369.67 153.078 369.907 153.045 370.142 153.068C370.649 153.117 371.526 153.814 372.547 155.018C376.039 159.131 377.095 161.479 376.719 166.422C376.395 170.656 375.258 173.069 372.534 175.328C370.216 177.251 367.057 177.671 363.688 176.841C361.379 176.233 359.244 175.093 357.454 173.511C357.096 173.185 356.74 172.854 356.387 172.515C354.799 170.985 353.294 169.37 351.881 167.678C351.271 166.952 350.153 165.56 349.697 164.992C349.578 164.844 349.504 164.752 349.495 164.742C348.658 163.755 348.363 162.45 348.86 161.741C349.124 161.364 349.318 161.159 349.552 160.987ZM374.561 153.456C373.11 151.745 371.832 150.732 370.387 150.588H370.384C368.624 150.415 367.077 151.347 366.35 152.731C364.625 150.714 363.241 149.091 362.198 147.862C360.826 146.246 360.176 145.645 359.197 145.274C358.225 144.902 357.149 144.909 356.182 145.295C355.216 145.68 354.43 146.416 353.982 147.355C352.815 147.121 351.631 147.454 350.553 148.349C349.582 149.155 348.949 150.435 349.073 151.634C348.645 151.844 348.232 152.193 347.664 152.734C347.228 153.124 346.894 153.614 346.69 154.162C346.486 154.711 346.419 155.3 346.495 155.88C346.599 156.792 347.011 157.702 347.632 158.622C347.725 158.76 347.822 158.896 347.921 159.029C347.479 159.361 347.103 159.759 346.693 160.342C345.442 162.124 345.993 164.556 347.484 166.306C347.491 166.316 349.06 168.283 349.856 169.233C351.33 170.995 352.898 172.677 354.553 174.27C354.923 174.626 355.299 174.974 355.677 175.316C357.793 177.192 360.322 178.541 363.058 179.253C367.183 180.269 371.21 179.735 374.247 177.219C377.517 174.507 378.944 171.479 379.314 166.622C379.747 160.938 378.437 158.018 374.561 153.456Z" fill="url(#paint11_linear_1616_7353)" fill-opacity="0.4"/>
<path d="M111.003 127.483C110.77 127.483 110.543 127.505 110.313 127.519V131.795C110.544 131.774 110.767 131.724 111.003 131.724C115.192 131.724 118.588 135.206 118.588 139.5C118.588 140.24 118.455 140.943 118.266 141.621H122.532C122.652 140.931 122.725 140.225 122.725 139.5C122.725 132.863 117.477 127.483 111.003 127.483V127.483ZM111.003 119C110.77 119 110.544 119.028 110.313 119.036V123.277C110.544 123.267 110.77 123.242 111.003 123.242C119.762 123.242 126.863 130.52 126.863 139.5C126.863 140.221 126.801 140.925 126.712 141.621H130.893C130.964 140.917 131 140.209 131 139.5C131 128.178 122.047 119 111.003 119V119ZM118.274 147.863C115.977 146.963 113.802 145.805 111.281 148.217C109.725 149.706 108.6 149.544 107.582 148.989C106.565 148.435 100.301 141.878 99.4455 139.733C98.5903 137.588 99.0523 137.298 99.4455 136.648C99.8381 135.997 102.566 134.478 100.925 129.706C99.2832 124.934 97.9943 121.34 91.3083 129.706C90.6147 130.574 91.3083 134.334 91.3083 134.334C91.3083 134.334 96.0227 150.132 112.02 156.702C114.504 157.722 120.113 156.107 122.377 152.074C123.486 150.098 121.877 149.276 118.274 147.863V147.863Z" fill="white"/>
<path d="M111.003 127.483C110.77 127.483 110.543 127.505 110.313 127.519V131.795C110.544 131.774 110.767 131.724 111.003 131.724C115.192 131.724 118.588 135.206 118.588 139.5C118.588 140.24 118.455 140.943 118.266 141.621H122.532C122.652 140.931 122.725 140.225 122.725 139.5C122.725 132.863 117.477 127.483 111.003 127.483V127.483ZM111.003 119C110.77 119 110.544 119.028 110.313 119.036V123.277C110.544 123.267 110.77 123.242 111.003 123.242C119.762 123.242 126.863 130.52 126.863 139.5C126.863 140.221 126.801 140.925 126.712 141.621H130.893C130.964 140.917 131 140.209 131 139.5C131 128.178 122.047 119 111.003 119V119ZM118.274 147.863C115.977 146.963 113.802 145.805 111.281 148.217C109.725 149.706 108.6 149.544 107.582 148.989C106.565 148.435 100.301 141.878 99.4455 139.733C98.5903 137.588 99.0523 137.298 99.4455 136.648C99.8381 135.997 102.566 134.478 100.925 129.706C99.2832 124.934 97.9943 121.34 91.3083 129.706C90.6147 130.574 91.3083 134.334 91.3083 134.334C91.3083 134.334 96.0227 150.132 112.02 156.702C114.504 157.722 120.113 156.107 122.377 152.074C123.486 150.098 121.877 149.276 118.274 147.863V147.863Z" fill="url(#paint12_linear_1616_7353)" fill-opacity="0.3"/>
<circle cx="198" cy="402" r="5" fill="white"/>
<circle cx="198" cy="402" r="5" fill="url(#paint13_linear_1616_7353)" fill-opacity="0.2"/>
<defs>
<filter id="filter0_d_1616_7353" x="0" y="20" width="508" height="398.113" filterUnits="userSpaceOnUse" color-interpolation-filters="sRGB">
<feFlood flood-opacity="0" result="BackgroundImageFix"/>
<feColorMatrix in="SourceAlpha" type="matrix" values="0 0 0 0 0 0 0 0 0 0 0 0 0 0 0 0 0 0 127 0" result="hardAlpha"/>
<feOffset dy="10"/>
<feGaussianBlur stdDeviation="15"/>
<feColorMatrix type="matrix" values="0 0 0 0 0.0196078 0 0 0 0 0.333333 0 0 0 0 1 0 0 0 0.1 0"/>
<feBlend mode="normal" in2="BackgroundImageFix" result="effect1_dropShadow_1616_7353"/>
<feBlend mode="normal" in="SourceGraphic" in2="effect1_dropShadow_1616_7353" result="shape"/>
</filter>
<linearGradient id="paint0_linear_1616_7353" x1="389" y1="31" x2="389" y2="45" gradientUnits="userSpaceOnUse">
<stop stop-color="#0555FF"/>
<stop offset="1" stop-color="#0555FF" stop-opacity="0.21"/>
</linearGradient>
<linearGradient id="paint1_linear_1616_7353" x1="111" y1="57" x2="111" y2="361" gradientUnits="userSpaceOnUse">
<stop stop-color="#0555FF"/>
<stop offset="1" stop-color="#0555FF" stop-opacity="0.6"/>
</linearGradient>
<linearGradient id="paint2_linear_1616_7353" x1="80.3585" y1="196.275" x2="88.1611" y2="218.545" gradientUnits="userSpaceOnUse">
<stop stop-color="#07D988"/>
<stop offset="1" stop-color="#15F59F" stop-opacity="0.2"/>
</linearGradient>
<linearGradient id="paint3_linear_1616_7353" x1="80.3585" y1="262.365" x2="88.1611" y2="284.635" gradientUnits="userSpaceOnUse">
<stop stop-color="#07D988"/>
<stop offset="1" stop-color="#15F59F" stop-opacity="0.2"/>
</linearGradient>
<linearGradient id="paint4_linear_1616_7353" x1="106.962" y1="229.275" x2="116.899" y2="249.364" gradientUnits="userSpaceOnUse">
<stop stop-color="#07D988"/>
<stop offset="1" stop-color="#15F59F" stop-opacity="0.2"/>
</linearGradient>
<linearGradient id="paint5_linear_1616_7353" x1="61.3679" y1="193.45" x2="77.1699" y2="200.915" gradientUnits="userSpaceOnUse">
<stop stop-color="#07D988"/>
<stop offset="1" stop-color="#15F59F" stop-opacity="0.2"/>
</linearGradient>
<linearGradient id="paint6_linear_1616_7353" x1="61.3679" y1="259.45" x2="77.1699" y2="266.915" gradientUnits="userSpaceOnUse">
<stop stop-color="#07D988"/>
<stop offset="1" stop-color="#15F59F" stop-opacity="0.2"/>
</linearGradient>
<linearGradient id="paint7_linear_1616_7353" x1="160.632" y1="243.55" x2="144.83" y2="236.085" gradientUnits="userSpaceOnUse">
<stop stop-color="#07D988"/>
<stop offset="1" stop-color="#15F59F" stop-opacity="0.2"/>
</linearGradient>
<linearGradient id="paint8_linear_1616_7353" x1="196" y1="70" x2="222" y2="96" gradientUnits="userSpaceOnUse">
<stop stop-color="#0555FF"/>
<stop offset="1" stop-color="#0555FF" stop-opacity="0.21"/>
</linearGradient>
<linearGradient id="paint9_linear_1616_7353" x1="411" y1="138" x2="437.528" y2="164.528" gradientUnits="userSpaceOnUse">
<stop stop-color="#0555FF"/>
<stop offset="1" stop-color="#0555FF" stop-opacity="0.21"/>
</linearGradient>
<linearGradient id="paint10_linear_1616_7353" x1="411" y1="214" x2="437.528" y2="240.528" gradientUnits="userSpaceOnUse">
<stop stop-color="#0555FF"/>
<stop offset="1" stop-color="#0555FF" stop-opacity="0.21"/>
</linearGradient>
<linearGradient id="paint11_linear_1616_7353" x1="346" y1="145" x2="380.711" y2="178.367" gradientUnits="userSpaceOnUse">
<stop stop-color="#0555FF"/>
<stop offset="1" stop-color="#0555FF" stop-opacity="0.21"/>
</linearGradient>
<linearGradient id="paint12_linear_1616_7353" x1="91" y1="119" x2="128.95" y2="158.947" gradientUnits="userSpaceOnUse">
<stop stop-color="#0555FF"/>
<stop offset="1" stop-color="#0555FF" stop-opacity="0.21"/>
</linearGradient>
<linearGradient id="paint13_linear_1616_7353" x1="198" y1="397" x2="198" y2="407" gradientUnits="userSpaceOnUse">
<stop stop-color="#0555FF"/>
<stop offset="1" stop-color="#0555FF" stop-opacity="0.21"/>
</linearGradient>
</defs>
</svg>
