<svg width="525" height="440" viewBox="0 0 525 440" fill="none" xmlns="http://www.w3.org/2000/svg">
<rect width="496" height="440" transform="translate(20)" fill="white"/>
<rect x="27" y="215" width="10" height="10" rx="5" fill="white"/>
<rect x="27" y="215" width="10" height="10" rx="5" fill="url(#paint0_linear_1616_7402)" fill-opacity="0.2"/>
<g filter="url(#filter0_d_1616_7402)">
<rect x="44" y="40" width="204" height="339" rx="15.3725" fill="white"/>
<rect x="44.5779" y="40.5779" width="202.844" height="337.844" rx="14.7947" stroke="#F2F6FF" stroke-width="1.15574"/>
</g>
<rect x="63.387" y="336.387" width="165.226" height="23.2261" rx="11.613" fill="white"/>
<rect x="63.387" y="336.387" width="165.226" height="23.2261" rx="11.613" fill="url(#paint1_linear_1616_7402)" fill-opacity="0.06"/>
<rect x="63.387" y="336.387" width="165.226" height="23.2261" rx="11.613" stroke="#F2F6FF" stroke-width="0.773933"/>
<path d="M68 130.387H224C225.995 130.387 227.613 132.005 227.613 134V211C227.613 212.995 225.995 214.613 224 214.613H94.8028C94.529 214.613 94.2613 214.694 94.0334 214.846L79.3401 224.642C78.9327 224.913 78.387 224.621 78.387 224.131V216C78.387 215.234 77.766 214.613 77 214.613H68C66.0046 214.613 64.387 212.995 64.387 211V134C64.387 132.005 66.0046 130.387 68 130.387Z" fill="white"/>
<path d="M68 130.387H224C225.995 130.387 227.613 132.005 227.613 134V211C227.613 212.995 225.995 214.613 224 214.613H94.8028C94.529 214.613 94.2613 214.694 94.0334 214.846L79.3401 224.642C78.9327 224.913 78.387 224.621 78.387 224.131V216C78.387 215.234 77.766 214.613 77 214.613H68C66.0046 214.613 64.387 212.995 64.387 211V134C64.387 132.005 66.0046 130.387 68 130.387Z" fill="url(#paint2_linear_1616_7402)" fill-opacity="0.06"/>
<path d="M68 130.387H224C225.995 130.387 227.613 132.005 227.613 134V211C227.613 212.995 225.995 214.613 224 214.613H94.8028C94.529 214.613 94.2613 214.694 94.0334 214.846L79.3401 224.642C78.9327 224.913 78.387 224.621 78.387 224.131V216C78.387 215.234 77.766 214.613 77 214.613H68C66.0046 214.613 64.387 212.995 64.387 211V134C64.387 132.005 66.0046 130.387 68 130.387Z" stroke="#F2F6FF" stroke-width="0.773933"/>
<rect x="82" y="148" width="128" height="10" rx="5" fill="white"/>
<rect x="82" y="166" width="128" height="10" rx="5" fill="white"/>
<path d="M88.024 196V191.956C88.024 190.636 87.304 189.676 85.936 189.676C85.384 189.676 84.856 189.892 84.436 190.324V187.456H82.876V196H84.436V192.184C84.436 191.368 84.952 191.08 85.444 191.08C85.936 191.08 86.464 191.356 86.464 192.184V196H88.024ZM92.516 196V194.68H91.952C91.58 194.68 91.412 194.476 91.412 194.116V191.116H92.516V189.928H91.412V188.08H89.852V189.928H89.192V191.116H89.852V194.212C89.852 195.1 90.392 196 91.664 196H92.516ZM96.7348 196V194.68H96.1708C95.7988 194.68 95.6308 194.476 95.6308 194.116V191.116H96.7348V189.928H95.6308V188.08H94.0708V189.928H93.4108V191.116H94.0708V194.212C94.0708 195.1 94.6108 196 95.8828 196H96.7348ZM103.378 192.868C103.378 191.932 103.366 190.864 102.742 190.24C102.394 189.892 101.83 189.676 101.218 189.676C100.558 189.676 100.09 189.856 99.6575 190.336V189.748H98.1455V198.292H99.7055V195.448C100.114 195.904 100.582 196.072 101.218 196.072C101.83 196.072 102.394 195.856 102.742 195.508C103.366 194.884 103.378 193.804 103.378 192.868ZM101.818 192.868C101.818 193.888 101.698 194.668 100.762 194.668C99.8255 194.668 99.7055 193.888 99.7055 192.868C99.7055 191.848 99.8255 191.08 100.762 191.08C101.698 191.08 101.818 191.848 101.818 192.868ZM109.564 194.032C109.564 192.976 108.94 192.316 107.704 192.196L106.72 192.1C106.168 192.052 106.072 191.788 106.072 191.56C106.072 191.248 106.336 190.96 106.96 190.96C107.5 190.96 108.052 191.056 108.412 191.38L109.372 190.408C108.772 189.844 107.956 189.676 106.984 189.676C105.712 189.676 104.572 190.372 104.572 191.668C104.572 192.82 105.268 193.312 106.396 193.42L107.38 193.516C107.872 193.564 108.04 193.78 108.04 194.092C108.04 194.56 107.476 194.74 106.936 194.74C106.456 194.74 105.784 194.668 105.268 194.152L104.248 195.172C105.04 195.964 105.928 196.072 106.912 196.072C108.388 196.072 109.564 195.412 109.564 194.032ZM112.888 192.748V190.972H111.112V192.748H112.888ZM112.888 196V194.224H111.112V196H112.888ZM118.583 186.568H117.119L113.699 196.888H115.163L118.583 186.568ZM123.423 186.568H121.959L118.539 196.888H120.003L123.423 186.568ZM125.899 196V194.308H124.195V196H125.899ZM129.295 196V194.308H127.603V196H129.295ZM132.715 196V194.308H131.023V196H132.715ZM136.047 196V194.308H134.343V196H136.047ZM139.443 196V194.308H137.751V196H139.443ZM142.863 196V194.308H141.171V196H142.863Z" fill="white"/>
<path d="M88.024 196V191.956C88.024 190.636 87.304 189.676 85.936 189.676C85.384 189.676 84.856 189.892 84.436 190.324V187.456H82.876V196H84.436V192.184C84.436 191.368 84.952 191.08 85.444 191.08C85.936 191.08 86.464 191.356 86.464 192.184V196H88.024ZM92.516 196V194.68H91.952C91.58 194.68 91.412 194.476 91.412 194.116V191.116H92.516V189.928H91.412V188.08H89.852V189.928H89.192V191.116H89.852V194.212C89.852 195.1 90.392 196 91.664 196H92.516ZM96.7348 196V194.68H96.1708C95.7988 194.68 95.6308 194.476 95.6308 194.116V191.116H96.7348V189.928H95.6308V188.08H94.0708V189.928H93.4108V191.116H94.0708V194.212C94.0708 195.1 94.6108 196 95.8828 196H96.7348ZM103.378 192.868C103.378 191.932 103.366 190.864 102.742 190.24C102.394 189.892 101.83 189.676 101.218 189.676C100.558 189.676 100.09 189.856 99.6575 190.336V189.748H98.1455V198.292H99.7055V195.448C100.114 195.904 100.582 196.072 101.218 196.072C101.83 196.072 102.394 195.856 102.742 195.508C103.366 194.884 103.378 193.804 103.378 192.868ZM101.818 192.868C101.818 193.888 101.698 194.668 100.762 194.668C99.8255 194.668 99.7055 193.888 99.7055 192.868C99.7055 191.848 99.8255 191.08 100.762 191.08C101.698 191.08 101.818 191.848 101.818 192.868ZM109.564 194.032C109.564 192.976 108.94 192.316 107.704 192.196L106.72 192.1C106.168 192.052 106.072 191.788 106.072 191.56C106.072 191.248 106.336 190.96 106.96 190.96C107.5 190.96 108.052 191.056 108.412 191.38L109.372 190.408C108.772 189.844 107.956 189.676 106.984 189.676C105.712 189.676 104.572 190.372 104.572 191.668C104.572 192.82 105.268 193.312 106.396 193.42L107.38 193.516C107.872 193.564 108.04 193.78 108.04 194.092C108.04 194.56 107.476 194.74 106.936 194.74C106.456 194.74 105.784 194.668 105.268 194.152L104.248 195.172C105.04 195.964 105.928 196.072 106.912 196.072C108.388 196.072 109.564 195.412 109.564 194.032ZM112.888 192.748V190.972H111.112V192.748H112.888ZM112.888 196V194.224H111.112V196H112.888ZM118.583 186.568H117.119L113.699 196.888H115.163L118.583 186.568ZM123.423 186.568H121.959L118.539 196.888H120.003L123.423 186.568ZM125.899 196V194.308H124.195V196H125.899ZM129.295 196V194.308H127.603V196H129.295ZM132.715 196V194.308H131.023V196H132.715ZM136.047 196V194.308H134.343V196H136.047ZM139.443 196V194.308H137.751V196H139.443ZM142.863 196V194.308H141.171V196H142.863Z" fill="#1561FF"/>
<path d="M82 197.62H143.679V198.232H82V197.62Z" fill="white"/>
<path d="M82 197.62H143.679V198.232H82V197.62Z" fill="#1561FF"/>
<path d="M54.4592 40.4249H237.541C243.083 40.4249 247.575 44.9174 247.575 50.4592V105.575H44.4249V50.4592C44.4249 44.9174 48.9174 40.4249 54.4592 40.4249Z" fill="white"/>
<path d="M54.4592 40.4249H237.541C243.083 40.4249 247.575 44.9174 247.575 50.4592V105.575H44.4249V50.4592C44.4249 44.9174 48.9174 40.4249 54.4592 40.4249Z" fill="url(#paint3_linear_1616_7402)" fill-opacity="0.06"/>
<path d="M54.4592 40.4249H237.541C243.083 40.4249 247.575 44.9174 247.575 50.4592V105.575H44.4249V50.4592C44.4249 44.9174 48.9174 40.4249 54.4592 40.4249Z" stroke="#F2F6FF" stroke-width="0.849809"/>
<path d="M81.9972 59C78.8086 59 75.8562 60.0161 73.4943 61.7223C71.1099 63.4413 69.3384 65.876 68.5117 68.6749C68.18 69.7996 68 70.9946 68 72.2216C68 76.8226 70.48 80.8549 74.2478 83.2321C74.5853 83.443 74.7596 83.9031 74.6134 84.312C74.3322 85.0917 73.9723 85.8393 73.5449 86.5423C73.4099 86.7595 73.5786 87.0599 73.8092 86.9896C75.1026 86.5998 76.3117 86.0374 77.4083 85.3281C77.8076 85.0661 78.2631 84.983 78.713 85.0853C79.7646 85.3217 80.8668 85.4495 82.0028 85.4495C89.7353 85.4495 96 79.5257 96 72.228C96 64.9238 89.7297 59 81.9972 59V59Z" fill="white"/>
<path d="M81.9972 59C78.8086 59 75.8562 60.0161 73.4943 61.7223C71.1099 63.4413 69.3384 65.876 68.5117 68.6749C68.18 69.7996 68 70.9946 68 72.2216C68 76.8226 70.48 80.8549 74.2478 83.2321C74.5853 83.443 74.7596 83.9031 74.6134 84.312C74.3322 85.0917 73.9723 85.8393 73.5449 86.5423C73.4099 86.7595 73.5786 87.0599 73.8092 86.9896C75.1026 86.5998 76.3117 86.0374 77.4083 85.3281C77.8076 85.0661 78.2631 84.983 78.713 85.0853C79.7646 85.3217 80.8668 85.4495 82.0028 85.4495C89.7353 85.4495 96 79.5257 96 72.228C96 64.9238 89.7297 59 81.9972 59V59Z" fill="url(#paint4_linear_1616_7402)" fill-opacity="0.3"/>
<g filter="url(#filter1_d_1616_7402)">
<rect x="288" y="40" width="204" height="339" rx="17.5686" fill="white"/>
<rect x="288.549" y="40.549" width="202.902" height="337.902" rx="17.0196" stroke="#F2F6FF" stroke-width="1.09804"/>
</g>
<path fill-rule="evenodd" clip-rule="evenodd" d="M338.984 145H381.617C383.818 145 385.602 146.784 385.602 148.984V191.75C385.602 193.951 383.818 195.734 381.617 195.734H338.984C336.784 195.734 335 193.951 335 191.75V148.984C335 146.784 336.784 145 338.984 145ZM348.373 154.413C346.173 154.413 344.389 156.197 344.389 158.398V182.337C344.389 184.537 346.173 186.321 348.373 186.321H372.228C374.429 186.321 376.213 184.537 376.213 182.337V158.398C376.213 156.197 374.429 154.413 372.228 154.413H348.373ZM355.933 161.993H364.669C366.869 161.993 368.653 163.777 368.653 165.977V174.757C368.653 176.958 366.869 178.741 364.669 178.741H355.933C353.732 178.741 351.948 176.958 351.948 174.757V165.977C351.948 163.777 353.732 161.993 355.933 161.993ZM338.984 203.172H381.617C383.818 203.172 385.602 204.956 385.602 207.156V249.922C385.602 252.122 383.818 253.906 381.617 253.906H338.984C336.784 253.906 335 252.122 335 249.922V207.156C335 204.956 336.784 203.172 338.984 203.172ZM348.373 212.585C346.173 212.585 344.389 214.369 344.389 216.57V240.509C344.389 242.709 346.173 244.493 348.373 244.493H372.228C374.429 244.493 376.213 242.709 376.213 240.509V216.57C376.213 214.369 374.429 212.585 372.228 212.585H348.373ZM355.933 220.165H364.669C366.869 220.165 368.653 221.949 368.653 224.149V232.929C368.653 235.129 366.869 236.913 364.669 236.913H355.933C353.732 236.913 351.948 235.129 351.948 232.929V224.149C351.948 221.949 353.732 220.165 355.933 220.165ZM398.086 145H440.719C442.919 145 444.703 146.784 444.703 148.984V191.75C444.703 193.951 442.919 195.734 440.719 195.734H398.086C395.885 195.734 394.102 193.951 394.102 191.75V148.984C394.102 146.784 395.885 145 398.086 145ZM407.475 154.413C405.274 154.413 403.49 156.197 403.49 158.398V182.337C403.49 184.537 405.274 186.321 407.475 186.321H431.33C433.531 186.321 435.314 184.537 435.314 182.337V158.398C435.314 156.197 433.531 154.413 431.33 154.413H407.475ZM415.034 161.993H423.77C425.971 161.993 427.755 163.777 427.755 165.977V174.757C427.755 176.958 425.971 178.741 423.77 178.741H415.034C412.834 178.741 411.05 176.958 411.05 174.757V165.977C411.05 163.777 412.834 161.993 415.034 161.993ZM398.086 203.305H402.203C404.859 203.305 406.188 204.633 406.188 207.289V211.406C406.188 214.062 404.859 215.391 402.203 215.391H398.086C395.43 215.391 394.102 214.062 394.102 211.406V207.289C394.102 204.633 395.43 203.305 398.086 203.305ZM440.719 203.305H436.602C433.945 203.305 432.617 204.633 432.617 207.289V211.406C432.617 214.062 433.945 215.391 436.602 215.391H440.719C443.375 215.391 444.703 214.062 444.703 211.406V207.289C444.703 204.633 443.375 203.305 440.719 203.305ZM398.086 241.82H402.203C404.859 241.82 406.188 243.148 406.188 245.805V249.922C406.188 252.578 404.859 253.906 402.203 253.906H398.086C395.43 253.906 394.102 252.578 394.102 249.922V245.805C394.102 243.148 395.43 241.82 398.086 241.82ZM414.289 215.391H410.172C407.516 215.391 406.188 216.719 406.188 219.375V237.836C406.188 240.492 407.516 241.82 410.172 241.82H414.289C416.945 241.82 418.273 240.492 418.273 237.836V219.375C418.273 216.719 416.945 215.391 414.289 215.391ZM436.602 227.477H440.719C443.375 227.477 444.703 228.805 444.703 231.461V245.805V249.922C444.703 252.578 443.375 253.906 440.719 253.906H436.602H422.258C420.057 253.906 418.273 252.122 418.273 249.922V245.805C418.273 243.604 420.057 241.82 422.258 241.82H432.617V231.461C432.617 228.805 433.945 227.477 436.602 227.477Z" fill="#F0F5FF"/>
<path d="M298.459 40.4249H481.541C487.083 40.4249 491.575 44.9174 491.575 50.4592V105.575H288.425V50.4592C288.425 44.9174 292.917 40.4249 298.459 40.4249Z" fill="white"/>
<path d="M298.459 40.4249H481.541C487.083 40.4249 491.575 44.9174 491.575 50.4592V105.575H288.425V50.4592C288.425 44.9174 292.917 40.4249 298.459 40.4249Z" fill="url(#paint5_linear_1616_7402)" fill-opacity="0.06"/>
<path d="M298.459 40.4249H481.541C487.083 40.4249 491.575 44.9174 491.575 50.4592V105.575H288.425V50.4592C288.425 44.9174 292.917 40.4249 298.459 40.4249Z" stroke="#F2F6FF" stroke-width="0.849809"/>
<rect x="412.118" y="59.2745" width="68.6275" height="26.902" rx="13.451" stroke="#BED3FF" stroke-width="0.54902"/>
<circle cx="467.294" cy="72.2943" r="8.78431" stroke="#BED3FF" stroke-width="1.09804"/>
<circle cx="467.294" cy="72.2966" r="4.94118" fill="#BED3FF"/>
<circle cx="429.961" cy="72.2959" r="2.7451" fill="#BED3FF"/>
<circle cx="422.275" cy="72.2916" r="1.64706" fill="#BED3FF"/>
<circle cx="437.647" cy="72.2916" r="1.64706" fill="#BED3FF"/>
<line x1="448.353" y1="62.9609" x2="448.353" y2="81.6276" stroke="#BED3FF" stroke-width="0.54902"/>
<path opacity="0.5" d="M390 285C381.179 285 374 292.178 374 301C374 309.821 381.178 317 390 317C398.821 317 406 309.822 406 301C405.999 292.178 398.821 285 390 285ZM398.953 297.932L388.546 308.6C388.422 308.726 388.275 308.826 388.113 308.894C387.95 308.963 387.776 308.998 387.599 308.999H387.592C387.239 308.999 386.9 308.859 386.649 308.61L381.057 303.013C380.933 302.89 380.834 302.743 380.767 302.581C380.7 302.419 380.666 302.246 380.666 302.071C380.666 301.895 380.7 301.722 380.767 301.56C380.834 301.399 380.933 301.252 381.057 301.128C381.18 301.004 381.327 300.906 381.489 300.838C381.651 300.771 381.824 300.737 381.999 300.737C382.175 300.737 382.348 300.771 382.51 300.838C382.672 300.906 382.819 301.004 382.942 301.128L387.585 305.767L397.046 296.064C397.294 295.811 397.631 295.667 397.984 295.663C398.338 295.659 398.678 295.795 398.932 296.042C399.184 296.29 399.328 296.628 399.332 296.983C399.336 297.337 399.2 297.678 398.953 297.932V297.932Z" fill="url(#paint6_linear_1616_7402)"/>
<path d="M290.87 272.995L299.393 281.102L298.662 252.007L269.572 252.739L278.305 261.045C268.178 271.693 235.513 276.46 223 274.696C235.669 282.694 274.56 285.881 290.87 272.995Z" fill="white"/>
<path d="M290.87 272.995L299.393 281.102L298.662 252.007L269.572 252.739L278.305 261.045C268.178 271.693 235.513 276.46 223 274.696C235.669 282.694 274.56 285.881 290.87 272.995Z" fill="url(#paint7_linear_1616_7402)" fill-opacity="0.39"/>
<defs>
<filter id="filter0_d_1616_7402" x="0.0784302" y="7.05882" width="291.843" height="426.843" filterUnits="userSpaceOnUse" color-interpolation-filters="sRGB">
<feFlood flood-opacity="0" result="BackgroundImageFix"/>
<feColorMatrix in="SourceAlpha" type="matrix" values="0 0 0 0 0 0 0 0 0 0 0 0 0 0 0 0 0 0 127 0" result="hardAlpha"/>
<feOffset dy="10.9804"/>
<feGaussianBlur stdDeviation="21.9608"/>
<feColorMatrix type="matrix" values="0 0 0 0 0.0196078 0 0 0 0 0.333333 0 0 0 0 1 0 0 0 0.1 0"/>
<feBlend mode="normal" in2="BackgroundImageFix" result="effect1_dropShadow_1616_7402"/>
<feBlend mode="normal" in="SourceGraphic" in2="effect1_dropShadow_1616_7402" result="shape"/>
</filter>
<filter id="filter1_d_1616_7402" x="255.059" y="18.0392" width="269.882" height="404.882" filterUnits="userSpaceOnUse" color-interpolation-filters="sRGB">
<feFlood flood-opacity="0" result="BackgroundImageFix"/>
<feColorMatrix in="SourceAlpha" type="matrix" values="0 0 0 0 0 0 0 0 0 0 0 0 0 0 0 0 0 0 127 0" result="hardAlpha"/>
<feOffset dy="10.9804"/>
<feGaussianBlur stdDeviation="16.4706"/>
<feColorMatrix type="matrix" values="0 0 0 0 0.0196078 0 0 0 0 0.333333 0 0 0 0 1 0 0 0 0.1 0"/>
<feBlend mode="normal" in2="BackgroundImageFix" result="effect1_dropShadow_1616_7402"/>
<feBlend mode="normal" in="SourceGraphic" in2="effect1_dropShadow_1616_7402" result="shape"/>
</filter>
<linearGradient id="paint0_linear_1616_7402" x1="32" y1="215" x2="32" y2="225" gradientUnits="userSpaceOnUse">
<stop stop-color="#0555FF"/>
<stop offset="1" stop-color="#0555FF" stop-opacity="0.21"/>
</linearGradient>
<linearGradient id="paint1_linear_1616_7402" x1="146" y1="336" x2="146" y2="360" gradientUnits="userSpaceOnUse">
<stop stop-color="#0555FF"/>
<stop offset="1" stop-color="#0555FF" stop-opacity="0.6"/>
</linearGradient>
<linearGradient id="paint2_linear_1616_7402" x1="146" y1="130" x2="146" y2="215" gradientUnits="userSpaceOnUse">
<stop stop-color="#0555FF"/>
<stop offset="1" stop-color="#0555FF" stop-opacity="0.6"/>
</linearGradient>
<linearGradient id="paint3_linear_1616_7402" x1="146" y1="40" x2="146" y2="106" gradientUnits="userSpaceOnUse">
<stop stop-color="#0555FF"/>
<stop offset="1" stop-color="#0555FF" stop-opacity="0.6"/>
</linearGradient>
<linearGradient id="paint4_linear_1616_7402" x1="68" y1="59" x2="96" y2="87" gradientUnits="userSpaceOnUse">
<stop stop-color="#0555FF"/>
<stop offset="1" stop-color="#0555FF" stop-opacity="0.21"/>
</linearGradient>
<linearGradient id="paint5_linear_1616_7402" x1="390" y1="40" x2="390" y2="106" gradientUnits="userSpaceOnUse">
<stop stop-color="#0555FF"/>
<stop offset="1" stop-color="#0555FF" stop-opacity="0.6"/>
</linearGradient>
<linearGradient id="paint6_linear_1616_7402" x1="374.906" y1="285.8" x2="408.227" y2="307.595" gradientUnits="userSpaceOnUse">
<stop stop-color="#07D988"/>
<stop offset="1" stop-color="#15F59F" stop-opacity="0.2"/>
</linearGradient>
<linearGradient id="paint7_linear_1616_7402" x1="236.081" y1="286.855" x2="301.138" y2="251.429" gradientUnits="userSpaceOnUse">
<stop stop-color="#2C70FF" stop-opacity="0.15"/>
<stop offset="1" stop-color="#1560FF"/>
</linearGradient>
</defs>
</svg>
