<svg width="508" height="440" viewBox="0 0 508 440" fill="none" xmlns="http://www.w3.org/2000/svg">
<rect width="496" height="440" transform="translate(6)" fill="white"/>
<rect x="13" y="215" width="10" height="10" rx="5" fill="white"/>
<rect x="13" y="215" width="10" height="10" rx="5" fill="url(#paint0_linear_1616_7436)" fill-opacity="0.2"/>
<rect x="382" y="31" width="14" height="14" rx="7" fill="white"/>
<rect x="382" y="31" width="14" height="14" rx="7" fill="url(#paint1_linear_1616_7436)" fill-opacity="0.2"/>
<g filter="url(#filter0_d_1616_7436)">
<rect x="30" y="40" width="448" height="338.113" rx="16" fill="white"/>
<rect x="30.5" y="40.5" width="447" height="337.113" rx="15.5" stroke="#F2F6FF"/>
</g>
<rect x="46.4089" y="57.4089" width="129.182" height="303.182" rx="9.65563" fill="white"/>
<rect x="46.4089" y="57.4089" width="129.182" height="303.182" rx="9.65563" fill="url(#paint2_linear_1616_7436)" fill-opacity="0.06"/>
<rect x="46.4089" y="57.4089" width="129.182" height="303.182" rx="9.65563" stroke="#F2F6FF" stroke-width="0.817741"/>
<circle cx="67.812" cy="78.8125" r="5" fill="#1561FF"/>
<circle cx="81.812" cy="78.8125" r="5" fill="#FD8113"/>
<circle cx="95.812" cy="78.8125" r="5" fill="#0CE18F"/>
<line opacity="0.3" x1="204.435" y1="117.565" x2="451.565" y2="117.565" stroke="#869BB9" stroke-width="0.870144" stroke-linecap="round" stroke-dasharray="1.74 2.61"/>
<path d="M118.078 115.59C118.538 115.59 118.992 115.626 119.441 115.679C118.217 109.553 112.118 105 105.158 105C97.3753 105 91 110.698 91 117.934C91 122.11 93.1215 125.539 96.6653 128.199L95.2495 132.775L100.198 130.109C101.97 130.485 103.39 130.872 105.158 130.872C105.602 130.872 106.041 130.849 106.479 130.811C106.202 129.795 106.041 128.73 106.041 127.625C106.042 120.982 111.353 115.59 118.078 115.59ZM110.467 111.466C111.533 111.466 112.239 112.22 112.239 113.364C112.239 114.504 111.533 115.268 110.467 115.268C109.405 115.268 108.341 114.504 108.341 113.364C108.341 112.22 109.405 111.466 110.467 111.466ZM100.559 115.268C99.4968 115.268 98.4263 114.504 98.4263 113.364C98.4263 112.22 99.4968 111.466 100.559 111.466C101.619 111.466 102.326 112.22 102.326 113.364C102.326 114.504 101.619 115.268 100.559 115.268ZM131 127.443C131 121.362 125.336 116.406 118.975 116.406C112.239 116.406 106.934 121.362 106.934 127.443C106.934 133.532 112.239 138.477 118.975 138.477C120.384 138.477 121.806 138.098 123.222 137.716L127.106 140L126.04 136.2C128.883 133.909 131 130.872 131 127.443ZM115.07 125.539C114.366 125.539 113.655 124.786 113.655 124.018C113.655 123.26 114.366 122.497 115.07 122.497C116.141 122.497 116.842 123.26 116.842 124.018C116.842 124.786 116.141 125.539 115.07 125.539ZM122.857 125.539C122.158 125.539 121.451 124.786 121.451 124.018C121.451 123.26 122.158 122.497 122.857 122.497C123.919 122.497 124.629 123.26 124.629 124.018C124.629 124.786 123.919 125.539 122.857 125.539Z" fill="white"/>
<path d="M118.078 115.59C118.538 115.59 118.992 115.626 119.441 115.679C118.217 109.553 112.118 105 105.158 105C97.3753 105 91 110.698 91 117.934C91 122.11 93.1215 125.539 96.6653 128.199L95.2495 132.775L100.198 130.109C101.97 130.485 103.39 130.872 105.158 130.872C105.602 130.872 106.041 130.849 106.479 130.811C106.202 129.795 106.041 128.73 106.041 127.625C106.042 120.982 111.353 115.59 118.078 115.59ZM110.467 111.466C111.533 111.466 112.239 112.22 112.239 113.364C112.239 114.504 111.533 115.268 110.467 115.268C109.405 115.268 108.341 114.504 108.341 113.364C108.341 112.22 109.405 111.466 110.467 111.466ZM100.559 115.268C99.4968 115.268 98.4263 114.504 98.4263 113.364C98.4263 112.22 99.4968 111.466 100.559 111.466C101.619 111.466 102.326 112.22 102.326 113.364C102.326 114.504 101.619 115.268 100.559 115.268ZM131 127.443C131 121.362 125.336 116.406 118.975 116.406C112.239 116.406 106.934 121.362 106.934 127.443C106.934 133.532 112.239 138.477 118.975 138.477C120.384 138.477 121.806 138.098 123.222 137.716L127.106 140L126.04 136.2C128.883 133.909 131 130.872 131 127.443ZM115.07 125.539C114.366 125.539 113.655 124.786 113.655 124.018C113.655 123.26 114.366 122.497 115.07 122.497C116.141 122.497 116.842 123.26 116.842 124.018C116.842 124.786 116.141 125.539 115.07 125.539ZM122.857 125.539C122.158 125.539 121.451 124.786 121.451 124.018C121.451 123.26 122.158 122.497 122.857 122.497C123.919 122.497 124.629 123.26 124.629 124.018C124.629 124.786 123.919 125.539 122.857 125.539Z" fill="url(#paint3_linear_1616_7436)" fill-opacity="0.3"/>
<rect x="236" y="89" width="48" height="9" rx="4.5" fill="#F0F5FF"/>
<circle cx="215" cy="93" r="13" fill="white"/>
<circle cx="215" cy="93" r="13" fill="url(#paint4_linear_1616_7436)" fill-opacity="0.3"/>
<rect x="258" y="151" width="158" height="9" rx="4.5" fill="#F0F5FF"/>
<circle cx="437.264" cy="155.264" r="13.2642" fill="white"/>
<circle cx="437.264" cy="155.264" r="13.2642" fill="url(#paint5_linear_1616_7436)" fill-opacity="0.4"/>
<path fill-rule="evenodd" clip-rule="evenodd" d="M431.701 151.642C431.807 151.51 431.928 151.386 432.061 151.276L432.065 151.272L432.092 151.248H432.093L432.218 151.145C432.23 151.135 432.244 151.125 432.257 151.116L432.273 151.105H432.272L432.873 150.599L432.886 150.588L436.707 147.54C437.08 147.228 437.624 147.232 437.993 147.551L441.75 150.653L441.784 150.684L442.544 151.339H442.546L442.657 151.435C442.736 151.504 442.81 151.577 442.88 151.653C443.32 152.134 443.568 152.767 443.568 153.429V157.582C443.568 158.616 442.967 159.552 442.03 159.977L438.362 161.639L438.258 161.686C438.246 161.691 438.234 161.696 438.223 161.701C438.211 161.706 438.199 161.711 438.187 161.717C438.187 161.717 438.186 161.717 438.184 161.719C438.156 161.73 438.129 161.741 438.101 161.751L437.24 162.131L433.75 163.496C433.307 163.67 432.878 163.215 433.071 162.777L433.928 160.852L434.022 160.596L432.655 159.977C431.719 159.552 431.119 158.616 431.119 157.582V153.297C431.119 152.689 431.328 152.107 431.701 151.642ZM432.778 155.98C432.961 157.729 434.263 158.834 437.343 158.881C440.422 158.834 441.726 157.731 441.908 155.982C442.016 154.944 441.93 153.926 441.84 153.271C441.778 152.821 441.479 152.437 441.056 152.277C439.342 151.635 438.171 151.606 437.345 151.606C436.223 151.606 435.252 151.669 433.628 152.277C433.204 152.437 432.906 152.82 432.844 153.271C432.756 153.924 432.67 154.942 432.778 155.98ZM430.351 148.883H430.57C430.616 148.883 430.657 148.906 430.657 148.933V152.812H430.792C430.821 152.812 430.843 152.836 430.843 152.863V156.31C430.843 156.339 430.82 156.361 430.792 156.361H430.254C430.043 156.361 429.872 156.189 429.87 155.977V153.199C429.87 152.985 430.043 152.812 430.254 152.812H430.264V148.933C430.264 148.906 430.301 148.883 430.351 148.883ZM443.892 156.374H444.43C444.641 156.374 444.812 156.202 444.814 155.989V153.212C444.814 152.998 444.641 152.825 444.43 152.825H443.892C443.863 152.825 443.842 152.849 443.842 152.876V156.323C443.842 156.352 443.865 156.374 443.892 156.374ZM435.751 155.692H435.221C435.104 155.692 435.009 155.596 435.009 155.478V153.82C435.009 153.702 435.104 153.605 435.221 153.605H435.751C435.868 153.605 435.963 153.702 435.963 153.82V155.478C435.963 155.596 435.868 155.692 435.751 155.692ZM439.466 155.692H438.936C438.819 155.692 438.724 155.596 438.724 155.478V153.82C438.724 153.702 438.819 153.605 438.936 153.605H439.466C439.583 153.605 439.678 153.702 439.678 153.82V155.478C439.678 155.596 439.583 155.692 439.466 155.692ZM437.348 157.456C437.701 157.456 438.032 157.346 438.261 157.155C438.318 157.106 438.327 157.019 438.279 156.961C438.23 156.903 438.144 156.894 438.086 156.943C437.906 157.093 437.638 157.181 437.35 157.181C437.056 157.181 436.784 157.092 436.606 156.936C436.548 156.887 436.462 156.892 436.413 156.95C436.365 157.008 436.37 157.095 436.428 157.144C436.653 157.344 436.989 157.456 437.348 157.456Z" fill="white"/>
<rect x="258" y="168" width="64" height="9" rx="4.5" fill="#F0F5FF"/>
<rect x="56.4089" y="160.409" width="109.182" height="39.1823" rx="3.59113" fill="white"/>
<rect x="56.4089" y="160.409" width="109.182" height="39.1823" rx="3.59113" fill="white"/>
<rect x="56.4089" y="160.409" width="109.182" height="39.1823" rx="3.59113" stroke="#F2F6FF" stroke-width="0.817741"/>
<rect x="102" y="176" width="47" height="9" rx="4.5" fill="#E3EBF9"/>
<path d="M89.219 185.138C89.4979 185.359 89.6653 185.635 89.7769 185.967C89.8326 186.243 89.8884 186.464 89.9442 186.74C90 187.072 90 186.796 90 187.127C90 187.403 90 187.735 89.9442 188.011C89.9442 188.232 89.8326 188.453 89.7769 188.674C89.6095 188.785 89.4421 188.895 89.219 188.95C86.7086 189.669 84.0866 190 81.4088 190C78.7311 190 76.0533 189.724 73.3755 189.227C73.0408 189.171 72.7061 189.061 72.3714 188.895C72.1482 188.619 72.0366 188.287 72.0366 187.956C71.9809 187.459 71.9809 186.906 72.0924 186.409C72.1482 185.967 72.3714 185.58 72.6503 185.304C72.985 185.028 73.3197 184.862 73.7102 184.696C74.1008 184.53 76.0533 183.867 76.4996 183.757C76.8901 183.646 77.2806 183.481 77.6711 183.26C77.8943 183.149 78.1174 182.983 78.2848 182.762C78.3963 182.597 78.5079 182.486 78.6195 182.265C78.6753 182.099 78.7311 181.934 78.7311 181.768V181.215C78.7311 180.939 78.6195 180.663 78.4521 180.497L77.8943 179.945C77.7827 179.834 77.6711 179.724 77.6153 179.558C77.5595 179.392 77.448 179.227 77.3922 179.061L77.2248 178.343C77.1132 178.287 77.0575 178.287 76.9459 178.232C76.8343 178.122 76.7785 178.066 76.7227 177.956C76.6112 177.79 76.5554 177.624 76.4996 177.459C76.4438 177.238 76.388 177.072 76.4438 176.851C76.4996 176.685 76.4996 176.575 76.6112 176.409C76.6669 176.243 76.7227 176.133 76.8343 175.967C76.7785 175.028 76.8901 174.033 77.1132 173.094C77.2248 172.652 77.448 172.21 77.6711 171.823C78.0616 171.16 78.7311 170.663 79.4563 170.387C79.7352 170.276 80.0142 170.166 80.3489 170.11C80.6278 170.055 80.9067 170.055 81.2415 170C81.5762 170 81.9667 170.055 82.3014 170.11C82.6361 170.221 82.9709 170.331 83.2498 170.442C83.5287 170.552 83.8077 170.718 84.0308 170.939C84.254 171.105 84.4213 171.271 84.5887 171.492C84.9234 171.934 85.1465 172.376 85.3139 172.873C85.4813 173.315 85.5928 173.812 85.6486 174.309C85.7044 174.807 85.7602 175.359 85.7602 175.912C85.8718 175.967 85.9276 176.077 85.9276 176.133C85.9833 176.243 86.0391 176.354 86.0391 176.464C86.0949 176.63 86.0949 176.796 86.0391 177.017C86.0391 177.238 85.9833 177.459 85.8718 177.68C85.816 177.845 85.7044 177.956 85.5928 178.066C85.4813 178.177 85.4255 178.232 85.2581 178.287C85.2023 178.508 85.1465 178.729 85.0908 178.895C85.035 179.061 84.9234 179.227 84.8676 179.392C84.8118 179.558 84.7003 179.669 84.5887 179.779C84.4771 179.89 84.3655 179.945 84.254 180.055C84.1424 180.11 84.0866 180.221 83.975 180.276C83.9192 180.387 83.8077 180.442 83.8077 180.552C83.6961 180.884 83.6403 181.215 83.6403 181.547C83.6403 181.768 83.6961 181.989 83.8077 182.155C83.9192 182.376 84.0866 182.597 84.254 182.762C84.4771 182.983 84.756 183.149 85.0908 183.26C85.4255 183.37 85.7602 183.536 86.1507 183.591C86.5412 183.646 88.0475 184.365 88.3822 184.475C88.6611 184.751 88.9401 184.917 89.219 185.138Z" fill="white"/>
<path d="M89.219 185.138C89.4979 185.359 89.6653 185.635 89.7769 185.967C89.8326 186.243 89.8884 186.464 89.9442 186.74C90 187.072 90 186.796 90 187.127C90 187.403 90 187.735 89.9442 188.011C89.9442 188.232 89.8326 188.453 89.7769 188.674C89.6095 188.785 89.4421 188.895 89.219 188.95C86.7086 189.669 84.0866 190 81.4088 190C78.7311 190 76.0533 189.724 73.3755 189.227C73.0408 189.171 72.7061 189.061 72.3714 188.895C72.1482 188.619 72.0366 188.287 72.0366 187.956C71.9809 187.459 71.9809 186.906 72.0924 186.409C72.1482 185.967 72.3714 185.58 72.6503 185.304C72.985 185.028 73.3197 184.862 73.7102 184.696C74.1008 184.53 76.0533 183.867 76.4996 183.757C76.8901 183.646 77.2806 183.481 77.6711 183.26C77.8943 183.149 78.1174 182.983 78.2848 182.762C78.3963 182.597 78.5079 182.486 78.6195 182.265C78.6753 182.099 78.7311 181.934 78.7311 181.768V181.215C78.7311 180.939 78.6195 180.663 78.4521 180.497L77.8943 179.945C77.7827 179.834 77.6711 179.724 77.6153 179.558C77.5595 179.392 77.448 179.227 77.3922 179.061L77.2248 178.343C77.1132 178.287 77.0575 178.287 76.9459 178.232C76.8343 178.122 76.7785 178.066 76.7227 177.956C76.6112 177.79 76.5554 177.624 76.4996 177.459C76.4438 177.238 76.388 177.072 76.4438 176.851C76.4996 176.685 76.4996 176.575 76.6112 176.409C76.6669 176.243 76.7227 176.133 76.8343 175.967C76.7785 175.028 76.8901 174.033 77.1132 173.094C77.2248 172.652 77.448 172.21 77.6711 171.823C78.0616 171.16 78.7311 170.663 79.4563 170.387C79.7352 170.276 80.0142 170.166 80.3489 170.11C80.6278 170.055 80.9067 170.055 81.2415 170C81.5762 170 81.9667 170.055 82.3014 170.11C82.6361 170.221 82.9709 170.331 83.2498 170.442C83.5287 170.552 83.8077 170.718 84.0308 170.939C84.254 171.105 84.4213 171.271 84.5887 171.492C84.9234 171.934 85.1465 172.376 85.3139 172.873C85.4813 173.315 85.5928 173.812 85.6486 174.309C85.7044 174.807 85.7602 175.359 85.7602 175.912C85.8718 175.967 85.9276 176.077 85.9276 176.133C85.9833 176.243 86.0391 176.354 86.0391 176.464C86.0949 176.63 86.0949 176.796 86.0391 177.017C86.0391 177.238 85.9833 177.459 85.8718 177.68C85.816 177.845 85.7044 177.956 85.5928 178.066C85.4813 178.177 85.4255 178.232 85.2581 178.287C85.2023 178.508 85.1465 178.729 85.0908 178.895C85.035 179.061 84.9234 179.227 84.8676 179.392C84.8118 179.558 84.7003 179.669 84.5887 179.779C84.4771 179.89 84.3655 179.945 84.254 180.055C84.1424 180.11 84.0866 180.221 83.975 180.276C83.9192 180.387 83.8077 180.442 83.8077 180.552C83.6961 180.884 83.6403 181.215 83.6403 181.547C83.6403 181.768 83.6961 181.989 83.8077 182.155C83.9192 182.376 84.0866 182.597 84.254 182.762C84.4771 182.983 84.756 183.149 85.0908 183.26C85.4255 183.37 85.7602 183.536 86.1507 183.591C86.5412 183.646 88.0475 184.365 88.3822 184.475C88.6611 184.751 88.9401 184.917 89.219 185.138Z" fill="url(#paint6_linear_1616_7436)" fill-opacity="0.3"/>
<rect x="56.4089" y="208.409" width="109.182" height="39.1823" rx="3.59113" fill="white"/>
<rect x="56.4089" y="208.409" width="109.182" height="39.1823" rx="3.59113" fill="white"/>
<rect x="56.4089" y="208.409" width="109.182" height="39.1823" rx="3.59113" stroke="#F2F6FF" stroke-width="0.817741"/>
<rect x="102" y="224" width="35" height="9" rx="4.5" fill="#E3EBF9"/>
<path d="M89.219 232.138C89.4979 232.359 89.6653 232.635 89.7769 232.967C89.8326 233.243 89.8884 233.464 89.9442 233.74C90 234.072 90 233.796 90 234.127C90 234.403 90 234.735 89.9442 235.011C89.9442 235.232 89.8326 235.453 89.7769 235.674C89.6095 235.785 89.4421 235.895 89.219 235.95C86.7086 236.669 84.0866 237 81.4088 237C78.7311 237 76.0533 236.724 73.3755 236.227C73.0408 236.171 72.7061 236.061 72.3714 235.895C72.1482 235.619 72.0366 235.287 72.0366 234.956C71.9809 234.459 71.9809 233.906 72.0924 233.409C72.1482 232.967 72.3714 232.58 72.6503 232.304C72.985 232.028 73.3197 231.862 73.7102 231.696C74.1008 231.53 76.0533 230.867 76.4996 230.757C76.8901 230.646 77.2806 230.481 77.6711 230.26C77.8943 230.149 78.1174 229.983 78.2848 229.762C78.3963 229.597 78.5079 229.486 78.6195 229.265C78.6753 229.099 78.7311 228.934 78.7311 228.768V228.215C78.7311 227.939 78.6195 227.663 78.4521 227.497L77.8943 226.945C77.7827 226.834 77.6711 226.724 77.6153 226.558C77.5595 226.392 77.448 226.227 77.3922 226.061L77.2248 225.343C77.1132 225.287 77.0575 225.287 76.9459 225.232C76.8343 225.122 76.7785 225.066 76.7227 224.956C76.6112 224.79 76.5554 224.624 76.4996 224.459C76.4438 224.238 76.388 224.072 76.4438 223.851C76.4996 223.685 76.4996 223.575 76.6112 223.409C76.6669 223.243 76.7227 223.133 76.8343 222.967C76.7785 222.028 76.8901 221.033 77.1132 220.094C77.2248 219.652 77.448 219.21 77.6711 218.823C78.0616 218.16 78.7311 217.663 79.4563 217.387C79.7352 217.276 80.0142 217.166 80.3489 217.11C80.6278 217.055 80.9067 217.055 81.2415 217C81.5762 217 81.9667 217.055 82.3014 217.11C82.6361 217.221 82.9709 217.331 83.2498 217.442C83.5287 217.552 83.8077 217.718 84.0308 217.939C84.254 218.105 84.4213 218.271 84.5887 218.492C84.9234 218.934 85.1465 219.376 85.3139 219.873C85.4813 220.315 85.5928 220.812 85.6486 221.309C85.7044 221.807 85.7602 222.359 85.7602 222.912C85.8718 222.967 85.9276 223.077 85.9276 223.133C85.9833 223.243 86.0391 223.354 86.0391 223.464C86.0949 223.63 86.0949 223.796 86.0391 224.017C86.0391 224.238 85.9833 224.459 85.8718 224.68C85.816 224.845 85.7044 224.956 85.5928 225.066C85.4813 225.177 85.4255 225.232 85.2581 225.287C85.2023 225.508 85.1465 225.729 85.0908 225.895C85.035 226.061 84.9234 226.227 84.8676 226.392C84.8118 226.558 84.7003 226.669 84.5887 226.779C84.4771 226.89 84.3655 226.945 84.254 227.055C84.1424 227.11 84.0866 227.221 83.975 227.276C83.9192 227.387 83.8077 227.442 83.8077 227.552C83.6961 227.884 83.6403 228.215 83.6403 228.547C83.6403 228.768 83.6961 228.989 83.8077 229.155C83.9192 229.376 84.0866 229.597 84.254 229.762C84.4771 229.983 84.756 230.149 85.0908 230.26C85.4255 230.37 85.7602 230.536 86.1507 230.591C86.5412 230.646 88.0475 231.365 88.3822 231.475C88.6611 231.751 88.9401 231.917 89.219 232.138Z" fill="white"/>
<path d="M89.219 232.138C89.4979 232.359 89.6653 232.635 89.7769 232.967C89.8326 233.243 89.8884 233.464 89.9442 233.74C90 234.072 90 233.796 90 234.127C90 234.403 90 234.735 89.9442 235.011C89.9442 235.232 89.8326 235.453 89.7769 235.674C89.6095 235.785 89.4421 235.895 89.219 235.95C86.7086 236.669 84.0866 237 81.4088 237C78.7311 237 76.0533 236.724 73.3755 236.227C73.0408 236.171 72.7061 236.061 72.3714 235.895C72.1482 235.619 72.0366 235.287 72.0366 234.956C71.9809 234.459 71.9809 233.906 72.0924 233.409C72.1482 232.967 72.3714 232.58 72.6503 232.304C72.985 232.028 73.3197 231.862 73.7102 231.696C74.1008 231.53 76.0533 230.867 76.4996 230.757C76.8901 230.646 77.2806 230.481 77.6711 230.26C77.8943 230.149 78.1174 229.983 78.2848 229.762C78.3963 229.597 78.5079 229.486 78.6195 229.265C78.6753 229.099 78.7311 228.934 78.7311 228.768V228.215C78.7311 227.939 78.6195 227.663 78.4521 227.497L77.8943 226.945C77.7827 226.834 77.6711 226.724 77.6153 226.558C77.5595 226.392 77.448 226.227 77.3922 226.061L77.2248 225.343C77.1132 225.287 77.0575 225.287 76.9459 225.232C76.8343 225.122 76.7785 225.066 76.7227 224.956C76.6112 224.79 76.5554 224.624 76.4996 224.459C76.4438 224.238 76.388 224.072 76.4438 223.851C76.4996 223.685 76.4996 223.575 76.6112 223.409C76.6669 223.243 76.7227 223.133 76.8343 222.967C76.7785 222.028 76.8901 221.033 77.1132 220.094C77.2248 219.652 77.448 219.21 77.6711 218.823C78.0616 218.16 78.7311 217.663 79.4563 217.387C79.7352 217.276 80.0142 217.166 80.3489 217.11C80.6278 217.055 80.9067 217.055 81.2415 217C81.5762 217 81.9667 217.055 82.3014 217.11C82.6361 217.221 82.9709 217.331 83.2498 217.442C83.5287 217.552 83.8077 217.718 84.0308 217.939C84.254 218.105 84.4213 218.271 84.5887 218.492C84.9234 218.934 85.1465 219.376 85.3139 219.873C85.4813 220.315 85.5928 220.812 85.6486 221.309C85.7044 221.807 85.7602 222.359 85.7602 222.912C85.8718 222.967 85.9276 223.077 85.9276 223.133C85.9833 223.243 86.0391 223.354 86.0391 223.464C86.0949 223.63 86.0949 223.796 86.0391 224.017C86.0391 224.238 85.9833 224.459 85.8718 224.68C85.816 224.845 85.7044 224.956 85.5928 225.066C85.4813 225.177 85.4255 225.232 85.2581 225.287C85.2023 225.508 85.1465 225.729 85.0908 225.895C85.035 226.061 84.9234 226.227 84.8676 226.392C84.8118 226.558 84.7003 226.669 84.5887 226.779C84.4771 226.89 84.3655 226.945 84.254 227.055C84.1424 227.11 84.0866 227.221 83.975 227.276C83.9192 227.387 83.8077 227.442 83.8077 227.552C83.6961 227.884 83.6403 228.215 83.6403 228.547C83.6403 228.768 83.6961 228.989 83.8077 229.155C83.9192 229.376 84.0866 229.597 84.254 229.762C84.4771 229.983 84.756 230.149 85.0908 230.26C85.4255 230.37 85.7602 230.536 86.1507 230.591C86.5412 230.646 88.0475 231.365 88.3822 231.475C88.6611 231.751 88.9401 231.917 89.219 232.138Z" fill="url(#paint7_linear_1616_7436)" fill-opacity="0.3"/>
<rect x="56.4089" y="256.409" width="109.182" height="39.1823" rx="3.59113" fill="white"/>
<rect x="56.4089" y="256.409" width="109.182" height="39.1823" rx="3.59113" fill="white"/>
<rect x="56.4089" y="256.409" width="109.182" height="39.1823" rx="3.59113" stroke="#F2F6FF" stroke-width="0.817741"/>
<path d="M89.219 280.138C89.4979 280.359 89.6653 280.635 89.7769 280.967C89.8326 281.243 89.8884 281.464 89.9442 281.74C90 282.072 90 281.796 90 282.127C90 282.403 90 282.735 89.9442 283.011C89.9442 283.232 89.8326 283.453 89.7769 283.674C89.6095 283.785 89.4421 283.895 89.219 283.95C86.7086 284.669 84.0866 285 81.4088 285C78.7311 285 76.0533 284.724 73.3755 284.227C73.0408 284.171 72.7061 284.061 72.3714 283.895C72.1482 283.619 72.0366 283.287 72.0366 282.956C71.9809 282.459 71.9809 281.906 72.0924 281.409C72.1482 280.967 72.3714 280.58 72.6503 280.304C72.985 280.028 73.3197 279.862 73.7102 279.696C74.1008 279.53 76.0533 278.867 76.4996 278.757C76.8901 278.646 77.2806 278.481 77.6711 278.26C77.8943 278.149 78.1174 277.983 78.2848 277.762C78.3963 277.597 78.5079 277.486 78.6195 277.265C78.6753 277.099 78.7311 276.934 78.7311 276.768V276.215C78.7311 275.939 78.6195 275.663 78.4521 275.497L77.8943 274.945C77.7827 274.834 77.6711 274.724 77.6153 274.558C77.5595 274.392 77.448 274.227 77.3922 274.061L77.2248 273.343C77.1132 273.287 77.0575 273.287 76.9459 273.232C76.8343 273.122 76.7785 273.066 76.7227 272.956C76.6112 272.79 76.5554 272.624 76.4996 272.459C76.4438 272.238 76.388 272.072 76.4438 271.851C76.4996 271.685 76.4996 271.575 76.6112 271.409C76.6669 271.243 76.7227 271.133 76.8343 270.967C76.7785 270.028 76.8901 269.033 77.1132 268.094C77.2248 267.652 77.448 267.21 77.6711 266.823C78.0616 266.16 78.7311 265.663 79.4563 265.387C79.7352 265.276 80.0142 265.166 80.3489 265.11C80.6278 265.055 80.9067 265.055 81.2415 265C81.5762 265 81.9667 265.055 82.3014 265.11C82.6361 265.221 82.9709 265.331 83.2498 265.442C83.5287 265.552 83.8077 265.718 84.0308 265.939C84.254 266.105 84.4213 266.271 84.5887 266.492C84.9234 266.934 85.1465 267.376 85.3139 267.873C85.4813 268.315 85.5928 268.812 85.6486 269.309C85.7044 269.807 85.7602 270.359 85.7602 270.912C85.8718 270.967 85.9276 271.077 85.9276 271.133C85.9833 271.243 86.0391 271.354 86.0391 271.464C86.0949 271.63 86.0949 271.796 86.0391 272.017C86.0391 272.238 85.9833 272.459 85.8718 272.68C85.816 272.845 85.7044 272.956 85.5928 273.066C85.4813 273.177 85.4255 273.232 85.2581 273.287C85.2023 273.508 85.1465 273.729 85.0908 273.895C85.035 274.061 84.9234 274.227 84.8676 274.392C84.8118 274.558 84.7003 274.669 84.5887 274.779C84.4771 274.89 84.3655 274.945 84.254 275.055C84.1424 275.11 84.0866 275.221 83.975 275.276C83.9192 275.387 83.8077 275.442 83.8077 275.552C83.6961 275.884 83.6403 276.215 83.6403 276.547C83.6403 276.768 83.6961 276.989 83.8077 277.155C83.9192 277.376 84.0866 277.597 84.254 277.762C84.4771 277.983 84.756 278.149 85.0908 278.26C85.4255 278.37 85.7602 278.536 86.1507 278.591C86.5412 278.646 88.0475 279.365 88.3822 279.475C88.6611 279.751 88.9401 279.917 89.219 280.138Z" fill="white"/>
<path d="M89.219 280.138C89.4979 280.359 89.6653 280.635 89.7769 280.967C89.8326 281.243 89.8884 281.464 89.9442 281.74C90 282.072 90 281.796 90 282.127C90 282.403 90 282.735 89.9442 283.011C89.9442 283.232 89.8326 283.453 89.7769 283.674C89.6095 283.785 89.4421 283.895 89.219 283.95C86.7086 284.669 84.0866 285 81.4088 285C78.7311 285 76.0533 284.724 73.3755 284.227C73.0408 284.171 72.7061 284.061 72.3714 283.895C72.1482 283.619 72.0366 283.287 72.0366 282.956C71.9809 282.459 71.9809 281.906 72.0924 281.409C72.1482 280.967 72.3714 280.58 72.6503 280.304C72.985 280.028 73.3197 279.862 73.7102 279.696C74.1008 279.53 76.0533 278.867 76.4996 278.757C76.8901 278.646 77.2806 278.481 77.6711 278.26C77.8943 278.149 78.1174 277.983 78.2848 277.762C78.3963 277.597 78.5079 277.486 78.6195 277.265C78.6753 277.099 78.7311 276.934 78.7311 276.768V276.215C78.7311 275.939 78.6195 275.663 78.4521 275.497L77.8943 274.945C77.7827 274.834 77.6711 274.724 77.6153 274.558C77.5595 274.392 77.448 274.227 77.3922 274.061L77.2248 273.343C77.1132 273.287 77.0575 273.287 76.9459 273.232C76.8343 273.122 76.7785 273.066 76.7227 272.956C76.6112 272.79 76.5554 272.624 76.4996 272.459C76.4438 272.238 76.388 272.072 76.4438 271.851C76.4996 271.685 76.4996 271.575 76.6112 271.409C76.6669 271.243 76.7227 271.133 76.8343 270.967C76.7785 270.028 76.8901 269.033 77.1132 268.094C77.2248 267.652 77.448 267.21 77.6711 266.823C78.0616 266.16 78.7311 265.663 79.4563 265.387C79.7352 265.276 80.0142 265.166 80.3489 265.11C80.6278 265.055 80.9067 265.055 81.2415 265C81.5762 265 81.9667 265.055 82.3014 265.11C82.6361 265.221 82.9709 265.331 83.2498 265.442C83.5287 265.552 83.8077 265.718 84.0308 265.939C84.254 266.105 84.4213 266.271 84.5887 266.492C84.9234 266.934 85.1465 267.376 85.3139 267.873C85.4813 268.315 85.5928 268.812 85.6486 269.309C85.7044 269.807 85.7602 270.359 85.7602 270.912C85.8718 270.967 85.9276 271.077 85.9276 271.133C85.9833 271.243 86.0391 271.354 86.0391 271.464C86.0949 271.63 86.0949 271.796 86.0391 272.017C86.0391 272.238 85.9833 272.459 85.8718 272.68C85.816 272.845 85.7044 272.956 85.5928 273.066C85.4813 273.177 85.4255 273.232 85.2581 273.287C85.2023 273.508 85.1465 273.729 85.0908 273.895C85.035 274.061 84.9234 274.227 84.8676 274.392C84.8118 274.558 84.7003 274.669 84.5887 274.779C84.4771 274.89 84.3655 274.945 84.254 275.055C84.1424 275.11 84.0866 275.221 83.975 275.276C83.9192 275.387 83.8077 275.442 83.8077 275.552C83.6961 275.884 83.6403 276.215 83.6403 276.547C83.6403 276.768 83.6961 276.989 83.8077 277.155C83.9192 277.376 84.0866 277.597 84.254 277.762C84.4771 277.983 84.756 278.149 85.0908 278.26C85.4255 278.37 85.7602 278.536 86.1507 278.591C86.5412 278.646 88.0475 279.365 88.3822 279.475C88.6611 279.751 88.9401 279.917 89.219 280.138Z" fill="url(#paint8_linear_1616_7436)" fill-opacity="0.3"/>
<rect x="102" y="272" width="47" height="9" rx="4.5" fill="#E3EBF9"/>
<rect x="56.4089" y="304.409" width="109.182" height="39.1823" rx="3.59113" fill="white"/>
<rect x="56.4089" y="304.409" width="109.182" height="39.1823" rx="3.59113" fill="white"/>
<rect x="56.4089" y="304.409" width="109.182" height="39.1823" rx="3.59113" stroke="#F2F6FF" stroke-width="0.817741"/>
<rect x="102" y="320" width="31" height="9" rx="4.5" fill="#E3EBF9"/>
<path d="M89.219 329.138C89.4979 329.359 89.6653 329.635 89.7769 329.967C89.8326 330.243 89.8884 330.464 89.9442 330.74C90 331.072 90 330.796 90 331.127C90 331.403 90 331.735 89.9442 332.011C89.9442 332.232 89.8326 332.453 89.7769 332.674C89.6095 332.785 89.4421 332.895 89.219 332.95C86.7086 333.669 84.0866 334 81.4088 334C78.7311 334 76.0533 333.724 73.3755 333.227C73.0408 333.171 72.7061 333.061 72.3714 332.895C72.1482 332.619 72.0366 332.287 72.0366 331.956C71.9809 331.459 71.9809 330.906 72.0924 330.409C72.1482 329.967 72.3714 329.58 72.6503 329.304C72.985 329.028 73.3197 328.862 73.7102 328.696C74.1008 328.53 76.0533 327.867 76.4996 327.757C76.8901 327.646 77.2806 327.481 77.6711 327.26C77.8943 327.149 78.1174 326.983 78.2848 326.762C78.3963 326.597 78.5079 326.486 78.6195 326.265C78.6753 326.099 78.7311 325.934 78.7311 325.768V325.215C78.7311 324.939 78.6195 324.663 78.4521 324.497L77.8943 323.945C77.7827 323.834 77.6711 323.724 77.6153 323.558C77.5595 323.392 77.448 323.227 77.3922 323.061L77.2248 322.343C77.1132 322.287 77.0575 322.287 76.9459 322.232C76.8343 322.122 76.7785 322.066 76.7227 321.956C76.6112 321.79 76.5554 321.624 76.4996 321.459C76.4438 321.238 76.388 321.072 76.4438 320.851C76.4996 320.685 76.4996 320.575 76.6112 320.409C76.6669 320.243 76.7227 320.133 76.8343 319.967C76.7785 319.028 76.8901 318.033 77.1132 317.094C77.2248 316.652 77.448 316.21 77.6711 315.823C78.0616 315.16 78.7311 314.663 79.4563 314.387C79.7352 314.276 80.0142 314.166 80.3489 314.11C80.6278 314.055 80.9067 314.055 81.2415 314C81.5762 314 81.9667 314.055 82.3014 314.11C82.6361 314.221 82.9709 314.331 83.2498 314.442C83.5287 314.552 83.8077 314.718 84.0308 314.939C84.254 315.105 84.4213 315.271 84.5887 315.492C84.9234 315.934 85.1465 316.376 85.3139 316.873C85.4813 317.315 85.5928 317.812 85.6486 318.309C85.7044 318.807 85.7602 319.359 85.7602 319.912C85.8718 319.967 85.9276 320.077 85.9276 320.133C85.9833 320.243 86.0391 320.354 86.0391 320.464C86.0949 320.63 86.0949 320.796 86.0391 321.017C86.0391 321.238 85.9833 321.459 85.8718 321.68C85.816 321.845 85.7044 321.956 85.5928 322.066C85.4813 322.177 85.4255 322.232 85.2581 322.287C85.2023 322.508 85.1465 322.729 85.0908 322.895C85.035 323.061 84.9234 323.227 84.8676 323.392C84.8118 323.558 84.7003 323.669 84.5887 323.779C84.4771 323.89 84.3655 323.945 84.254 324.055C84.1424 324.11 84.0866 324.221 83.975 324.276C83.9192 324.387 83.8077 324.442 83.8077 324.552C83.6961 324.884 83.6403 325.215 83.6403 325.547C83.6403 325.768 83.6961 325.989 83.8077 326.155C83.9192 326.376 84.0866 326.597 84.254 326.762C84.4771 326.983 84.756 327.149 85.0908 327.26C85.4255 327.37 85.7602 327.536 86.1507 327.591C86.5412 327.646 88.0475 328.365 88.3822 328.475C88.6611 328.751 88.9401 328.917 89.219 329.138Z" fill="white"/>
<path d="M89.219 329.138C89.4979 329.359 89.6653 329.635 89.7769 329.967C89.8326 330.243 89.8884 330.464 89.9442 330.74C90 331.072 90 330.796 90 331.127C90 331.403 90 331.735 89.9442 332.011C89.9442 332.232 89.8326 332.453 89.7769 332.674C89.6095 332.785 89.4421 332.895 89.219 332.95C86.7086 333.669 84.0866 334 81.4088 334C78.7311 334 76.0533 333.724 73.3755 333.227C73.0408 333.171 72.7061 333.061 72.3714 332.895C72.1482 332.619 72.0366 332.287 72.0366 331.956C71.9809 331.459 71.9809 330.906 72.0924 330.409C72.1482 329.967 72.3714 329.58 72.6503 329.304C72.985 329.028 73.3197 328.862 73.7102 328.696C74.1008 328.53 76.0533 327.867 76.4996 327.757C76.8901 327.646 77.2806 327.481 77.6711 327.26C77.8943 327.149 78.1174 326.983 78.2848 326.762C78.3963 326.597 78.5079 326.486 78.6195 326.265C78.6753 326.099 78.7311 325.934 78.7311 325.768V325.215C78.7311 324.939 78.6195 324.663 78.4521 324.497L77.8943 323.945C77.7827 323.834 77.6711 323.724 77.6153 323.558C77.5595 323.392 77.448 323.227 77.3922 323.061L77.2248 322.343C77.1132 322.287 77.0575 322.287 76.9459 322.232C76.8343 322.122 76.7785 322.066 76.7227 321.956C76.6112 321.79 76.5554 321.624 76.4996 321.459C76.4438 321.238 76.388 321.072 76.4438 320.851C76.4996 320.685 76.4996 320.575 76.6112 320.409C76.6669 320.243 76.7227 320.133 76.8343 319.967C76.7785 319.028 76.8901 318.033 77.1132 317.094C77.2248 316.652 77.448 316.21 77.6711 315.823C78.0616 315.16 78.7311 314.663 79.4563 314.387C79.7352 314.276 80.0142 314.166 80.3489 314.11C80.6278 314.055 80.9067 314.055 81.2415 314C81.5762 314 81.9667 314.055 82.3014 314.11C82.6361 314.221 82.9709 314.331 83.2498 314.442C83.5287 314.552 83.8077 314.718 84.0308 314.939C84.254 315.105 84.4213 315.271 84.5887 315.492C84.9234 315.934 85.1465 316.376 85.3139 316.873C85.4813 317.315 85.5928 317.812 85.6486 318.309C85.7044 318.807 85.7602 319.359 85.7602 319.912C85.8718 319.967 85.9276 320.077 85.9276 320.133C85.9833 320.243 86.0391 320.354 86.0391 320.464C86.0949 320.63 86.0949 320.796 86.0391 321.017C86.0391 321.238 85.9833 321.459 85.8718 321.68C85.816 321.845 85.7044 321.956 85.5928 322.066C85.4813 322.177 85.4255 322.232 85.2581 322.287C85.2023 322.508 85.1465 322.729 85.0908 322.895C85.035 323.061 84.9234 323.227 84.8676 323.392C84.8118 323.558 84.7003 323.669 84.5887 323.779C84.4771 323.89 84.3655 323.945 84.254 324.055C84.1424 324.11 84.0866 324.221 83.975 324.276C83.9192 324.387 83.8077 324.442 83.8077 324.552C83.6961 324.884 83.6403 325.215 83.6403 325.547C83.6403 325.768 83.6961 325.989 83.8077 326.155C83.9192 326.376 84.0866 326.597 84.254 326.762C84.4771 326.983 84.756 327.149 85.0908 327.26C85.4255 327.37 85.7602 327.536 86.1507 327.591C86.5412 327.646 88.0475 328.365 88.3822 328.475C88.6611 328.751 88.9401 328.917 89.219 329.138Z" fill="url(#paint9_linear_1616_7436)" fill-opacity="0.3"/>
<path opacity="0.5" d="M273.981 211.044C273.981 209.64 273.025 208.854 271.771 208.854C270.517 208.854 269.562 209.67 269.562 211.063C269.562 212.377 270.477 213.163 271.433 213.163C271.602 213.163 271.791 213.144 271.96 213.074L270.487 216H271.89L273.393 212.935C273.712 212.288 273.981 211.691 273.981 211.044ZM272.687 211.054C272.687 211.71 272.299 212.089 271.771 212.089C271.224 212.089 270.855 211.681 270.855 211.054C270.855 210.397 271.244 210.018 271.771 210.018C272.299 210.018 272.687 210.397 272.687 211.054ZM279.355 213.85C279.355 212.536 278.449 211.75 277.494 211.75C277.324 211.75 277.135 211.77 276.966 211.84L278.439 208.914H277.026L275.533 211.979C275.214 212.626 274.936 213.223 274.936 213.87C274.936 215.273 275.891 216.06 277.145 216.06C278.399 216.06 279.355 215.244 279.355 213.85ZM278.061 213.86C278.061 214.517 277.673 214.895 277.145 214.895C276.618 214.895 276.23 214.517 276.23 213.86C276.23 213.203 276.618 212.825 277.145 212.825C277.693 212.825 278.061 213.233 278.061 213.86ZM287.784 214.696V213.711C287.784 212.815 287.117 212.347 286.341 212.347C285.555 212.347 284.898 212.815 284.898 213.711V214.696C284.898 215.592 285.555 216.06 286.341 216.06C287.117 216.06 287.784 215.592 287.784 214.696ZM283.266 211.203V210.218C283.266 209.322 282.599 208.854 281.823 208.854C281.036 208.854 280.379 209.322 280.379 210.218V211.203C280.379 212.099 281.036 212.566 281.823 212.566C282.599 212.566 283.266 212.099 283.266 211.203ZM286.271 208.914H285.256L281.902 216H282.917L286.271 208.914ZM286.849 214.656C286.849 215.035 286.66 215.224 286.341 215.224C286.013 215.224 285.834 215.035 285.834 214.656V213.751C285.834 213.373 286.013 213.183 286.341 213.183C286.66 213.183 286.849 213.373 286.849 213.751V214.656ZM282.33 211.163C282.33 211.541 282.141 211.73 281.823 211.73C281.504 211.73 281.315 211.541 281.315 211.163V210.257C281.315 209.879 281.494 209.69 281.823 209.69C282.141 209.69 282.33 209.879 282.33 210.257V211.163Z" fill="#0CE18F"/>
<path opacity="0.5" d="M294.242 207.71C295.35 207.393 296.516 208.033 296.713 209.168C297.43 213.299 296.798 217.572 294.88 221.342C292.646 225.735 288.831 229.118 284.203 230.812C279.575 232.506 274.477 232.385 269.935 230.473C265.392 228.561 261.742 225 259.719 220.506C257.696 216.012 257.449 210.919 259.029 206.25C260.608 201.582 263.897 197.685 268.233 195.343C272.569 193.001 277.631 192.387 282.401 193.626C286.495 194.689 290.113 197.049 292.731 200.323C293.45 201.223 293.156 202.521 292.185 203.141C291.213 203.76 289.934 203.463 289.188 202.584C287.156 200.189 284.425 198.462 281.352 197.665C277.603 196.691 273.624 197.173 270.216 199.014C266.807 200.855 264.222 203.918 262.981 207.588C261.739 211.257 261.933 215.261 263.524 218.793C265.114 222.325 267.983 225.124 271.553 226.627C275.124 228.13 279.131 228.225 282.768 226.894C286.406 225.562 289.405 222.903 291.161 219.45C292.601 216.621 293.118 213.431 292.672 210.322C292.508 209.182 293.134 208.027 294.242 207.71Z" fill="url(#paint10_linear_1616_7436)"/>
<rect opacity="0.45" x="305" y="203" width="39" height="6" rx="3" fill="url(#paint11_linear_1616_7436)"/>
<rect opacity="0.45" x="305" y="213" width="26" height="6" rx="3" fill="url(#paint12_linear_1616_7436)"/>
<circle cx="198" cy="402" r="5" fill="white"/>
<circle cx="198" cy="402" r="5" fill="url(#paint13_linear_1616_7436)" fill-opacity="0.2"/>
<defs>
<filter id="filter0_d_1616_7436" x="0" y="20" width="508" height="398.113" filterUnits="userSpaceOnUse" color-interpolation-filters="sRGB">
<feFlood flood-opacity="0" result="BackgroundImageFix"/>
<feColorMatrix in="SourceAlpha" type="matrix" values="0 0 0 0 0 0 0 0 0 0 0 0 0 0 0 0 0 0 127 0" result="hardAlpha"/>
<feOffset dy="10"/>
<feGaussianBlur stdDeviation="15"/>
<feColorMatrix type="matrix" values="0 0 0 0 0.0196078 0 0 0 0 0.333333 0 0 0 0 1 0 0 0 0.1 0"/>
<feBlend mode="normal" in2="BackgroundImageFix" result="effect1_dropShadow_1616_7436"/>
<feBlend mode="normal" in="SourceGraphic" in2="effect1_dropShadow_1616_7436" result="shape"/>
</filter>
<linearGradient id="paint0_linear_1616_7436" x1="18" y1="215" x2="18" y2="225" gradientUnits="userSpaceOnUse">
<stop stop-color="#0555FF"/>
<stop offset="1" stop-color="#0555FF" stop-opacity="0.21"/>
</linearGradient>
<linearGradient id="paint1_linear_1616_7436" x1="389" y1="31" x2="389" y2="45" gradientUnits="userSpaceOnUse">
<stop stop-color="#0555FF"/>
<stop offset="1" stop-color="#0555FF" stop-opacity="0.21"/>
</linearGradient>
<linearGradient id="paint2_linear_1616_7436" x1="111" y1="57" x2="111" y2="361" gradientUnits="userSpaceOnUse">
<stop stop-color="#0555FF"/>
<stop offset="1" stop-color="#0555FF" stop-opacity="0.6"/>
</linearGradient>
<linearGradient id="paint3_linear_1616_7436" x1="91" y1="105" x2="125.69" y2="144.646" gradientUnits="userSpaceOnUse">
<stop stop-color="#0555FF"/>
<stop offset="1" stop-color="#0555FF" stop-opacity="0.21"/>
</linearGradient>
<linearGradient id="paint4_linear_1616_7436" x1="202" y1="80" x2="228" y2="106" gradientUnits="userSpaceOnUse">
<stop stop-color="#0555FF"/>
<stop offset="1" stop-color="#0555FF" stop-opacity="0.21"/>
</linearGradient>
<linearGradient id="paint5_linear_1616_7436" x1="424" y1="142" x2="450.528" y2="168.528" gradientUnits="userSpaceOnUse">
<stop stop-color="#0555FF"/>
<stop offset="1" stop-color="#0555FF" stop-opacity="0.21"/>
</linearGradient>
<linearGradient id="paint6_linear_1616_7436" x1="72" y1="170" x2="91.8895" y2="187.901" gradientUnits="userSpaceOnUse">
<stop stop-color="#0555FF"/>
<stop offset="1" stop-color="#0555FF" stop-opacity="0.21"/>
</linearGradient>
<linearGradient id="paint7_linear_1616_7436" x1="72" y1="217" x2="91.8895" y2="234.901" gradientUnits="userSpaceOnUse">
<stop stop-color="#0555FF"/>
<stop offset="1" stop-color="#0555FF" stop-opacity="0.21"/>
</linearGradient>
<linearGradient id="paint8_linear_1616_7436" x1="72" y1="265" x2="91.8895" y2="282.901" gradientUnits="userSpaceOnUse">
<stop stop-color="#0555FF"/>
<stop offset="1" stop-color="#0555FF" stop-opacity="0.21"/>
</linearGradient>
<linearGradient id="paint9_linear_1616_7436" x1="72" y1="314" x2="91.8895" y2="331.901" gradientUnits="userSpaceOnUse">
<stop stop-color="#0555FF"/>
<stop offset="1" stop-color="#0555FF" stop-opacity="0.21"/>
</linearGradient>
<linearGradient id="paint10_linear_1616_7436" x1="259.104" y1="193.975" x2="299.714" y2="220.538" gradientUnits="userSpaceOnUse">
<stop stop-color="#07D988"/>
<stop offset="1" stop-color="#15F59F" stop-opacity="0.2"/>
</linearGradient>
<linearGradient id="paint11_linear_1616_7436" x1="306.104" y1="203.15" x2="309.143" y2="216.074" gradientUnits="userSpaceOnUse">
<stop stop-color="#07D988"/>
<stop offset="1" stop-color="#15F59F" stop-opacity="0.2"/>
</linearGradient>
<linearGradient id="paint12_linear_1616_7436" x1="305.736" y1="213.15" x2="310.015" y2="225.279" gradientUnits="userSpaceOnUse">
<stop stop-color="#07D988"/>
<stop offset="1" stop-color="#15F59F" stop-opacity="0.2"/>
</linearGradient>
<linearGradient id="paint13_linear_1616_7436" x1="198" y1="397" x2="198" y2="407" gradientUnits="userSpaceOnUse">
<stop stop-color="#0555FF"/>
<stop offset="1" stop-color="#0555FF" stop-opacity="0.21"/>
</linearGradient>
</defs>
</svg>
