<svg width="508" height="440" viewBox="0 0 508 440" fill="none" xmlns="http://www.w3.org/2000/svg">
<rect x="382" y="31" width="14" height="14" rx="7" fill="white"/>
<rect x="382" y="31" width="14" height="14" rx="7" fill="url(#paint0_linear_1616_7554)" fill-opacity="0.2"/>
<g filter="url(#filter0_d_1616_7554)">
<rect x="30" y="40" width="448" height="338.113" rx="16" fill="white"/>
<rect x="30.5" y="40.5" width="447" height="337.113" rx="15.5" stroke="#F2F6FF"/>
</g>
<rect x="46.4089" y="57.4089" width="129.182" height="303.182" rx="9.65563" fill="white"/>
<rect x="46.4089" y="57.4089" width="129.182" height="303.182" rx="9.65563" fill="url(#paint1_linear_1616_7554)" fill-opacity="0.06"/>
<rect x="46.4089" y="57.4089" width="129.182" height="303.182" rx="9.65563" stroke="#F2F6FF" stroke-width="0.817741"/>
<circle cx="67.812" cy="78.8125" r="5" fill="#1561FF"/>
<circle cx="81.812" cy="78.8125" r="5" fill="#FD8113"/>
<circle cx="95.812" cy="78.8125" r="5" fill="#0CE18F"/>
<line opacity="0.3" x1="202.439" y1="117.568" x2="451.569" y2="119.546" stroke="#869BB9" stroke-width="0.870144" stroke-linecap="round" stroke-dasharray="1.74 2.61"/>
<rect x="202" y="87" width="60" height="10" rx="5" fill="#F0F5FF"/>
<rect x="99" y="116" width="50" height="10" rx="5" fill="white"/>
<rect x="99" y="171" width="35" height="10" rx="5" fill="white"/>
<rect x="99" y="226" width="61" height="10" rx="5" fill="white"/>
<circle cx="78" cy="176" r="16" fill="white"/>
<circle cx="78" cy="176" r="16" fill="url(#paint2_linear_1616_7554)" fill-opacity="0.3"/>
<g filter="url(#filter1_d_1616_7554)">
<path d="M87.8455 171.9C87.852 171.609 87.8045 171.319 87.7057 171.048C87.6069 170.777 87.4589 170.531 87.2703 170.323C87.1174 170.152 86.9309 170.022 86.7246 169.94C86.5184 169.859 86.2978 169.828 86.0792 169.851C85.8607 169.874 85.6497 169.95 85.4621 170.074C85.2744 170.197 85.115 170.364 84.9955 170.563L83.7 172.498C83.5304 172.767 83.3035 172.988 83.0385 173.143C82.7734 173.297 82.4778 173.381 82.1766 173.387H73.8182C73.5178 173.38 73.2233 173.296 72.9592 173.141C72.6951 172.987 72.469 172.766 72.2999 172.498L71.0044 170.563C70.885 170.364 70.7255 170.197 70.5379 170.074C70.3502 169.95 70.1393 169.874 69.9207 169.851C69.7021 169.828 69.4815 169.859 69.2753 169.94C69.0691 170.022 68.8825 170.152 68.7296 170.323C68.541 170.531 68.393 170.777 68.2942 171.048C68.1955 171.319 68.1479 171.609 68.1544 171.9V179.54C68.1544 180.983 69.0819 182.151 70.2271 182.151H85.7728C86.918 182.151 87.8455 180.983 87.8455 179.54V171.9ZM78.2591 180.471C78.2591 180.472 78.2578 180.474 78.2563 180.474C78.2301 180.473 78.2041 180.468 78.18 180.456C78.155 180.445 78.1326 180.428 78.114 180.406L77.5336 179.702C77.5089 179.672 77.4927 179.635 77.4872 179.595C77.4817 179.555 77.487 179.515 77.5025 179.478C77.5181 179.442 77.543 179.411 77.5741 179.389C77.6053 179.367 77.6416 179.356 77.6787 179.355H78.8446C78.8817 179.356 78.918 179.367 78.9492 179.389C78.9803 179.411 79.0052 179.442 79.0208 179.478C79.0363 179.515 79.0416 179.555 79.0361 179.595C79.0306 179.635 79.0144 179.672 78.9897 179.702L78.4041 180.401C78.3858 180.423 78.3633 180.44 78.3383 180.451C78.3142 180.462 78.2881 180.468 78.2619 180.468C78.2603 180.468 78.2591 180.469 78.2591 180.471ZM83.9591 181.03C83.9591 181.028 83.958 181.027 83.9565 181.027C83.1689 180.987 82.4277 180.613 81.8944 179.986C81.3604 179.359 81.0782 178.529 81.1091 177.677C81.0767 176.825 81.3584 175.993 81.8925 175.364C82.4266 174.736 83.1696 174.361 83.9591 174.321C84.7487 174.361 85.4917 174.736 86.0258 175.364C86.5598 175.993 86.8415 176.825 86.8092 177.677C86.8415 178.529 86.5598 179.361 86.0258 179.99C85.4924 180.618 84.7505 180.993 83.9621 181.033C83.9605 181.033 83.9591 181.032 83.9591 181.03ZM72.0408 180.471C72.0408 180.469 72.0395 180.468 72.038 180.468C71.6195 180.468 71.2635 179.189 71.2635 177.677C71.2635 176.161 71.6211 174.881 72.0408 174.881C72.4605 174.881 72.8181 176.161 72.8181 177.677C72.8181 179.189 72.4621 180.468 72.0436 180.474C72.042 180.474 72.0408 180.472 72.0408 180.471ZM72.0408 181.03C72.0408 181.029 72.0395 181.027 72.038 181.027C70.4847 181.025 69.2426 179.522 69.2426 177.672C69.2426 175.82 70.4966 174.321 72.0408 174.321C73.585 174.321 74.839 175.826 74.839 177.677C74.839 179.527 73.5865 181.031 72.0436 181.033C72.0421 181.033 72.0408 181.032 72.0408 181.03ZM83.9591 180.471C83.9591 180.469 83.9579 180.468 83.9563 180.468C83.5378 180.462 83.1818 179.184 83.1818 177.672C83.1818 176.156 83.5394 174.875 83.9591 174.875C84.3789 174.875 84.7364 176.161 84.7364 177.677C84.7364 179.189 84.3804 180.468 83.9619 180.474C83.9604 180.474 83.9591 180.472 83.9591 180.471Z" fill="white"/>
</g>
<g opacity="0.4">
<path fill-rule="evenodd" clip-rule="evenodd" d="M208.162 158H220.598C221.24 158 221.76 158.524 221.76 159.171V171.737C221.76 172.383 221.24 172.907 220.598 172.907H208.162C207.52 172.907 207 172.383 207 171.737V159.171C207 158.524 207.52 158 208.162 158ZM210.901 160.766C210.259 160.766 209.739 161.29 209.739 161.937V168.971C209.739 169.617 210.259 170.141 210.901 170.141H217.859C218.501 170.141 219.022 169.617 219.022 168.971V161.937C219.022 161.29 218.501 160.766 217.859 160.766H210.901ZM213.106 162.993H215.654C216.296 162.993 216.816 163.517 216.816 164.164V166.744C216.816 167.39 216.296 167.914 215.654 167.914H213.106C212.464 167.914 211.944 167.39 211.944 166.744V164.164C211.944 163.517 212.464 162.993 213.106 162.993ZM208.162 175.093H220.598C221.24 175.093 221.76 175.617 221.76 176.263V188.829C221.76 189.476 221.24 190 220.598 190H208.162C207.52 190 207 189.476 207 188.829V176.263C207 175.617 207.52 175.093 208.162 175.093ZM210.901 177.859C210.259 177.859 209.739 178.383 209.739 179.029V186.063C209.739 186.71 210.259 187.234 210.901 187.234H217.859C218.501 187.234 219.022 186.71 219.022 186.063V179.029C219.022 178.383 218.501 177.859 217.859 177.859H210.901ZM213.106 180.086H215.654C216.296 180.086 216.816 180.61 216.816 181.256V183.836C216.816 184.483 216.296 185.007 215.654 185.007H213.106C212.464 185.007 211.944 184.483 211.944 183.836V181.256C211.944 180.61 212.464 180.086 213.106 180.086ZM225.402 158H237.838C238.48 158 239 158.524 239 159.171V171.737C239 172.383 238.48 172.907 237.838 172.907H225.402C224.76 172.907 224.24 172.383 224.24 171.737V159.171C224.24 158.524 224.76 158 225.402 158ZM228.141 160.766C227.499 160.766 226.978 161.29 226.978 161.937V168.971C226.978 169.617 227.499 170.141 228.141 170.141H235.099C235.741 170.141 236.261 169.617 236.261 168.971V161.937C236.261 161.29 235.741 160.766 235.099 160.766H228.141ZM230.346 162.993H232.894C233.536 162.993 234.056 163.517 234.056 164.164V166.744C234.056 167.39 233.536 167.914 232.894 167.914H230.346C229.704 167.914 229.184 167.39 229.184 166.744V164.164C229.184 163.517 229.704 162.993 230.346 162.993ZM225.402 175.132H226.603C227.378 175.132 227.765 175.522 227.765 176.302V177.512C227.765 178.293 227.378 178.683 226.603 178.683H225.402C224.627 178.683 224.24 178.293 224.24 177.512V176.302C224.24 175.522 224.627 175.132 225.402 175.132ZM237.838 175.132H236.637C235.862 175.132 235.475 175.522 235.475 176.302V177.512C235.475 178.293 235.862 178.683 236.637 178.683H237.838C238.613 178.683 239 178.293 239 177.512V176.302C239 175.522 238.613 175.132 237.838 175.132ZM225.402 186.449H226.603C227.378 186.449 227.765 186.839 227.765 187.62V188.829C227.765 189.61 227.378 190 226.603 190H225.402C224.627 190 224.24 189.61 224.24 188.829V187.62C224.24 186.839 224.627 186.449 225.402 186.449ZM230.128 178.683H228.927C228.153 178.683 227.765 179.073 227.765 179.854V185.278C227.765 186.059 228.153 186.449 228.927 186.449H230.128C230.903 186.449 231.291 186.059 231.291 185.278V179.854C231.291 179.073 230.903 178.683 230.128 178.683ZM236.637 182.234H237.838C238.613 182.234 239 182.624 239 183.405V187.62V188.829C239 189.61 238.613 190 237.838 190H236.637H232.453C231.811 190 231.291 189.476 231.291 188.829V187.62C231.291 186.973 231.811 186.449 232.453 186.449C234.122 186.449 235.475 185.074 235.475 183.405C235.475 182.624 235.862 182.234 236.637 182.234Z" fill="url(#paint3_linear_1616_7554)"/>
<rect x="263" y="160" width="107" height="10" rx="5" fill="url(#paint4_linear_1616_7554)"/>
<rect x="263" y="178" width="55" height="10" rx="5" fill="url(#paint5_linear_1616_7554)"/>
<rect x="402" y="169" width="37" height="10" rx="5" fill="url(#paint6_linear_1616_7554)"/>
</g>
<path fill-rule="evenodd" clip-rule="evenodd" d="M208.162 225H220.598C221.24 225 221.76 225.524 221.76 226.171V238.737C221.76 239.383 221.24 239.907 220.598 239.907H208.162C207.52 239.907 207 239.383 207 238.737V226.171C207 225.524 207.52 225 208.162 225ZM210.901 227.766C210.259 227.766 209.739 228.29 209.739 228.937V235.971C209.739 236.617 210.259 237.141 210.901 237.141H217.859C218.501 237.141 219.022 236.617 219.022 235.971V228.937C219.022 228.29 218.501 227.766 217.859 227.766H210.901ZM213.106 229.993H215.654C216.296 229.993 216.816 230.517 216.816 231.164V233.744C216.816 234.39 216.296 234.914 215.654 234.914H213.106C212.464 234.914 211.944 234.39 211.944 233.744V231.164C211.944 230.517 212.464 229.993 213.106 229.993ZM208.162 242.093H220.598C221.24 242.093 221.76 242.617 221.76 243.263V255.829C221.76 256.476 221.24 257 220.598 257H208.162C207.52 257 207 256.476 207 255.829V243.263C207 242.617 207.52 242.093 208.162 242.093ZM210.901 244.859C210.259 244.859 209.739 245.383 209.739 246.029V253.063C209.739 253.71 210.259 254.234 210.901 254.234H217.859C218.501 254.234 219.022 253.71 219.022 253.063V246.029C219.022 245.383 218.501 244.859 217.859 244.859H210.901ZM213.106 247.086H215.654C216.296 247.086 216.816 247.61 216.816 248.256V250.836C216.816 251.483 216.296 252.007 215.654 252.007H213.106C212.464 252.007 211.944 251.483 211.944 250.836V248.256C211.944 247.61 212.464 247.086 213.106 247.086ZM225.402 225H237.838C238.48 225 239 225.524 239 226.171V238.737C239 239.383 238.48 239.907 237.838 239.907H225.402C224.76 239.907 224.24 239.383 224.24 238.737V226.171C224.24 225.524 224.76 225 225.402 225ZM228.141 227.766C227.499 227.766 226.978 228.29 226.978 228.937V235.971C226.978 236.617 227.499 237.141 228.141 237.141H235.099C235.741 237.141 236.261 236.617 236.261 235.971V228.937C236.261 228.29 235.741 227.766 235.099 227.766H228.141ZM230.346 229.993H232.894C233.536 229.993 234.056 230.517 234.056 231.164V233.744C234.056 234.39 233.536 234.914 232.894 234.914H230.346C229.704 234.914 229.184 234.39 229.184 233.744V231.164C229.184 230.517 229.704 229.993 230.346 229.993ZM225.402 242.132H226.603C227.378 242.132 227.765 242.522 227.765 243.302V244.512C227.765 245.293 227.378 245.683 226.603 245.683H225.402C224.627 245.683 224.24 245.293 224.24 244.512V243.302C224.24 242.522 224.627 242.132 225.402 242.132ZM237.838 242.132H236.637C235.862 242.132 235.475 242.522 235.475 243.302V244.512C235.475 245.293 235.862 245.683 236.637 245.683H237.838C238.613 245.683 239 245.293 239 244.512V243.302C239 242.522 238.613 242.132 237.838 242.132ZM225.402 253.449H226.603C227.378 253.449 227.765 253.839 227.765 254.62V255.829C227.765 256.61 227.378 257 226.603 257H225.402C224.627 257 224.24 256.61 224.24 255.829V254.62C224.24 253.839 224.627 253.449 225.402 253.449ZM230.128 245.683H228.927C228.153 245.683 227.765 246.073 227.765 246.854V252.278C227.765 253.059 228.153 253.449 228.927 253.449H230.128C230.903 253.449 231.291 253.059 231.291 252.278V246.854C231.291 246.073 230.903 245.683 230.128 245.683ZM236.637 249.234H237.838C238.613 249.234 239 249.624 239 250.405V254.62V255.829C239 256.61 238.613 257 237.838 257H236.637H232.453C231.811 257 231.291 256.476 231.291 255.829V254.62C231.291 253.973 231.811 253.449 232.453 253.449C234.122 253.449 235.475 252.074 235.475 250.405C235.475 249.624 235.862 249.234 236.637 249.234Z" fill="white"/>
<path fill-rule="evenodd" clip-rule="evenodd" d="M208.162 225H220.598C221.24 225 221.76 225.524 221.76 226.171V238.737C221.76 239.383 221.24 239.907 220.598 239.907H208.162C207.52 239.907 207 239.383 207 238.737V226.171C207 225.524 207.52 225 208.162 225ZM210.901 227.766C210.259 227.766 209.739 228.29 209.739 228.937V235.971C209.739 236.617 210.259 237.141 210.901 237.141H217.859C218.501 237.141 219.022 236.617 219.022 235.971V228.937C219.022 228.29 218.501 227.766 217.859 227.766H210.901ZM213.106 229.993H215.654C216.296 229.993 216.816 230.517 216.816 231.164V233.744C216.816 234.39 216.296 234.914 215.654 234.914H213.106C212.464 234.914 211.944 234.39 211.944 233.744V231.164C211.944 230.517 212.464 229.993 213.106 229.993ZM208.162 242.093H220.598C221.24 242.093 221.76 242.617 221.76 243.263V255.829C221.76 256.476 221.24 257 220.598 257H208.162C207.52 257 207 256.476 207 255.829V243.263C207 242.617 207.52 242.093 208.162 242.093ZM210.901 244.859C210.259 244.859 209.739 245.383 209.739 246.029V253.063C209.739 253.71 210.259 254.234 210.901 254.234H217.859C218.501 254.234 219.022 253.71 219.022 253.063V246.029C219.022 245.383 218.501 244.859 217.859 244.859H210.901ZM213.106 247.086H215.654C216.296 247.086 216.816 247.61 216.816 248.256V250.836C216.816 251.483 216.296 252.007 215.654 252.007H213.106C212.464 252.007 211.944 251.483 211.944 250.836V248.256C211.944 247.61 212.464 247.086 213.106 247.086ZM225.402 225H237.838C238.48 225 239 225.524 239 226.171V238.737C239 239.383 238.48 239.907 237.838 239.907H225.402C224.76 239.907 224.24 239.383 224.24 238.737V226.171C224.24 225.524 224.76 225 225.402 225ZM228.141 227.766C227.499 227.766 226.978 228.29 226.978 228.937V235.971C226.978 236.617 227.499 237.141 228.141 237.141H235.099C235.741 237.141 236.261 236.617 236.261 235.971V228.937C236.261 228.29 235.741 227.766 235.099 227.766H228.141ZM230.346 229.993H232.894C233.536 229.993 234.056 230.517 234.056 231.164V233.744C234.056 234.39 233.536 234.914 232.894 234.914H230.346C229.704 234.914 229.184 234.39 229.184 233.744V231.164C229.184 230.517 229.704 229.993 230.346 229.993ZM225.402 242.132H226.603C227.378 242.132 227.765 242.522 227.765 243.302V244.512C227.765 245.293 227.378 245.683 226.603 245.683H225.402C224.627 245.683 224.24 245.293 224.24 244.512V243.302C224.24 242.522 224.627 242.132 225.402 242.132ZM237.838 242.132H236.637C235.862 242.132 235.475 242.522 235.475 243.302V244.512C235.475 245.293 235.862 245.683 236.637 245.683H237.838C238.613 245.683 239 245.293 239 244.512V243.302C239 242.522 238.613 242.132 237.838 242.132ZM225.402 253.449H226.603C227.378 253.449 227.765 253.839 227.765 254.62V255.829C227.765 256.61 227.378 257 226.603 257H225.402C224.627 257 224.24 256.61 224.24 255.829V254.62C224.24 253.839 224.627 253.449 225.402 253.449ZM230.128 245.683H228.927C228.153 245.683 227.765 246.073 227.765 246.854V252.278C227.765 253.059 228.153 253.449 228.927 253.449H230.128C230.903 253.449 231.291 253.059 231.291 252.278V246.854C231.291 246.073 230.903 245.683 230.128 245.683ZM236.637 249.234H237.838C238.613 249.234 239 249.624 239 250.405V254.62V255.829C239 256.61 238.613 257 237.838 257H236.637H232.453C231.811 257 231.291 256.476 231.291 255.829V254.62C231.291 253.973 231.811 253.449 232.453 253.449C234.122 253.449 235.475 252.074 235.475 250.405C235.475 249.624 235.862 249.234 236.637 249.234Z" fill="url(#paint7_linear_1616_7554)" fill-opacity="0.3"/>
<rect x="263" y="227" width="107" height="10" rx="5" fill="#F0F5FF"/>
<rect x="263" y="245" width="30" height="10" rx="5" fill="#F0F5FF"/>
<rect x="402" y="236" width="26" height="10" rx="5" fill="#F0F5FF"/>
<path fill-rule="evenodd" clip-rule="evenodd" d="M208.162 292H220.598C221.24 292 221.76 292.524 221.76 293.171V305.737C221.76 306.383 221.24 306.907 220.598 306.907H208.162C207.52 306.907 207 306.383 207 305.737V293.171C207 292.524 207.52 292 208.162 292ZM210.901 294.766C210.259 294.766 209.739 295.29 209.739 295.937V302.971C209.739 303.617 210.259 304.141 210.901 304.141H217.859C218.501 304.141 219.022 303.617 219.022 302.971V295.937C219.022 295.29 218.501 294.766 217.859 294.766H210.901ZM213.106 296.993H215.654C216.296 296.993 216.816 297.517 216.816 298.164V300.744C216.816 301.39 216.296 301.914 215.654 301.914H213.106C212.464 301.914 211.944 301.39 211.944 300.744V298.164C211.944 297.517 212.464 296.993 213.106 296.993ZM208.162 309.093H220.598C221.24 309.093 221.76 309.617 221.76 310.263V322.829C221.76 323.476 221.24 324 220.598 324H208.162C207.52 324 207 323.476 207 322.829V310.263C207 309.617 207.52 309.093 208.162 309.093ZM210.901 311.859C210.259 311.859 209.739 312.383 209.739 313.029V320.063C209.739 320.71 210.259 321.234 210.901 321.234H217.859C218.501 321.234 219.022 320.71 219.022 320.063V313.029C219.022 312.383 218.501 311.859 217.859 311.859H210.901ZM213.106 314.086H215.654C216.296 314.086 216.816 314.61 216.816 315.256V317.836C216.816 318.483 216.296 319.007 215.654 319.007H213.106C212.464 319.007 211.944 318.483 211.944 317.836V315.256C211.944 314.61 212.464 314.086 213.106 314.086ZM225.402 292H237.838C238.48 292 239 292.524 239 293.171V305.737C239 306.383 238.48 306.907 237.838 306.907H225.402C224.76 306.907 224.24 306.383 224.24 305.737V293.171C224.24 292.524 224.76 292 225.402 292ZM228.141 294.766C227.499 294.766 226.978 295.29 226.978 295.937V302.971C226.978 303.617 227.499 304.141 228.141 304.141H235.099C235.741 304.141 236.261 303.617 236.261 302.971V295.937C236.261 295.29 235.741 294.766 235.099 294.766H228.141ZM230.346 296.993H232.894C233.536 296.993 234.056 297.517 234.056 298.164V300.744C234.056 301.39 233.536 301.914 232.894 301.914H230.346C229.704 301.914 229.184 301.39 229.184 300.744V298.164C229.184 297.517 229.704 296.993 230.346 296.993ZM225.402 309.132H226.603C227.378 309.132 227.765 309.522 227.765 310.302V311.512C227.765 312.293 227.378 312.683 226.603 312.683H225.402C224.627 312.683 224.24 312.293 224.24 311.512V310.302C224.24 309.522 224.627 309.132 225.402 309.132ZM237.838 309.132H236.637C235.862 309.132 235.475 309.522 235.475 310.302V311.512C235.475 312.293 235.862 312.683 236.637 312.683H237.838C238.613 312.683 239 312.293 239 311.512V310.302C239 309.522 238.613 309.132 237.838 309.132ZM225.402 320.449H226.603C227.378 320.449 227.765 320.839 227.765 321.62V322.829C227.765 323.61 227.378 324 226.603 324H225.402C224.627 324 224.24 323.61 224.24 322.829V321.62C224.24 320.839 224.627 320.449 225.402 320.449ZM230.128 312.683H228.927C228.153 312.683 227.765 313.073 227.765 313.854V319.278C227.765 320.059 228.153 320.449 228.927 320.449H230.128C230.903 320.449 231.291 320.059 231.291 319.278V313.854C231.291 313.073 230.903 312.683 230.128 312.683ZM236.637 316.234H237.838C238.613 316.234 239 316.624 239 317.405V321.62V322.829C239 323.61 238.613 324 237.838 324H236.637H232.453C231.811 324 231.291 323.476 231.291 322.829V321.62C231.291 320.973 231.811 320.449 232.453 320.449C234.122 320.449 235.475 319.074 235.475 317.405C235.475 316.624 235.862 316.234 236.637 316.234Z" fill="white"/>
<path fill-rule="evenodd" clip-rule="evenodd" d="M208.162 292H220.598C221.24 292 221.76 292.524 221.76 293.171V305.737C221.76 306.383 221.24 306.907 220.598 306.907H208.162C207.52 306.907 207 306.383 207 305.737V293.171C207 292.524 207.52 292 208.162 292ZM210.901 294.766C210.259 294.766 209.739 295.29 209.739 295.937V302.971C209.739 303.617 210.259 304.141 210.901 304.141H217.859C218.501 304.141 219.022 303.617 219.022 302.971V295.937C219.022 295.29 218.501 294.766 217.859 294.766H210.901ZM213.106 296.993H215.654C216.296 296.993 216.816 297.517 216.816 298.164V300.744C216.816 301.39 216.296 301.914 215.654 301.914H213.106C212.464 301.914 211.944 301.39 211.944 300.744V298.164C211.944 297.517 212.464 296.993 213.106 296.993ZM208.162 309.093H220.598C221.24 309.093 221.76 309.617 221.76 310.263V322.829C221.76 323.476 221.24 324 220.598 324H208.162C207.52 324 207 323.476 207 322.829V310.263C207 309.617 207.52 309.093 208.162 309.093ZM210.901 311.859C210.259 311.859 209.739 312.383 209.739 313.029V320.063C209.739 320.71 210.259 321.234 210.901 321.234H217.859C218.501 321.234 219.022 320.71 219.022 320.063V313.029C219.022 312.383 218.501 311.859 217.859 311.859H210.901ZM213.106 314.086H215.654C216.296 314.086 216.816 314.61 216.816 315.256V317.836C216.816 318.483 216.296 319.007 215.654 319.007H213.106C212.464 319.007 211.944 318.483 211.944 317.836V315.256C211.944 314.61 212.464 314.086 213.106 314.086ZM225.402 292H237.838C238.48 292 239 292.524 239 293.171V305.737C239 306.383 238.48 306.907 237.838 306.907H225.402C224.76 306.907 224.24 306.383 224.24 305.737V293.171C224.24 292.524 224.76 292 225.402 292ZM228.141 294.766C227.499 294.766 226.978 295.29 226.978 295.937V302.971C226.978 303.617 227.499 304.141 228.141 304.141H235.099C235.741 304.141 236.261 303.617 236.261 302.971V295.937C236.261 295.29 235.741 294.766 235.099 294.766H228.141ZM230.346 296.993H232.894C233.536 296.993 234.056 297.517 234.056 298.164V300.744C234.056 301.39 233.536 301.914 232.894 301.914H230.346C229.704 301.914 229.184 301.39 229.184 300.744V298.164C229.184 297.517 229.704 296.993 230.346 296.993ZM225.402 309.132H226.603C227.378 309.132 227.765 309.522 227.765 310.302V311.512C227.765 312.293 227.378 312.683 226.603 312.683H225.402C224.627 312.683 224.24 312.293 224.24 311.512V310.302C224.24 309.522 224.627 309.132 225.402 309.132ZM237.838 309.132H236.637C235.862 309.132 235.475 309.522 235.475 310.302V311.512C235.475 312.293 235.862 312.683 236.637 312.683H237.838C238.613 312.683 239 312.293 239 311.512V310.302C239 309.522 238.613 309.132 237.838 309.132ZM225.402 320.449H226.603C227.378 320.449 227.765 320.839 227.765 321.62V322.829C227.765 323.61 227.378 324 226.603 324H225.402C224.627 324 224.24 323.61 224.24 322.829V321.62C224.24 320.839 224.627 320.449 225.402 320.449ZM230.128 312.683H228.927C228.153 312.683 227.765 313.073 227.765 313.854V319.278C227.765 320.059 228.153 320.449 228.927 320.449H230.128C230.903 320.449 231.291 320.059 231.291 319.278V313.854C231.291 313.073 230.903 312.683 230.128 312.683ZM236.637 316.234H237.838C238.613 316.234 239 316.624 239 317.405V321.62V322.829C239 323.61 238.613 324 237.838 324H236.637H232.453C231.811 324 231.291 323.476 231.291 322.829V321.62C231.291 320.973 231.811 320.449 232.453 320.449C234.122 320.449 235.475 319.074 235.475 317.405C235.475 316.624 235.862 316.234 236.637 316.234Z" fill="url(#paint8_linear_1616_7554)" fill-opacity="0.3"/>
<rect x="263" y="303" width="107" height="10" rx="5" fill="#F0F5FF"/>
<rect x="402" y="303" width="32" height="10" rx="5" fill="#F0F5FF"/>
<circle cx="78" cy="121" r="16" fill="white"/>
<circle cx="78" cy="121" r="16" fill="url(#paint9_linear_1616_7554)" fill-opacity="0.3"/>
<path d="M86.4936 116.039C85.4116 114.186 83.7345 112.712 81.7328 111.887V120.8L86.4936 116.039ZM80.5021 111.481C79.7041 111.264 78.8656 111.156 78 111.156C76.6475 111.156 75.3761 111.427 74.1995 111.914L80.5021 118.216V111.481ZM73.0363 112.509C71.1834 113.591 69.7092 115.268 68.8842 117.27H77.7971L73.0363 112.509ZM69.5063 125.966C70.5883 127.819 72.2654 129.293 74.2671 130.118V121.205L69.5063 125.966ZM68.4784 118.5C68.262 119.298 68.1538 120.137 68.1538 121.002C68.1538 122.355 68.4243 123.626 68.9112 124.803C70.2772 123.437 75.2273 118.5 75.2273 118.5H68.4784ZM75.4978 130.524C76.2958 130.74 77.1344 130.849 78 130.849C79.3525 130.849 80.6238 130.578 81.8005 130.091L75.4978 123.789V130.524ZM87.1022 124.735H78.1893L82.9501 129.496C84.8165 128.414 86.2772 126.737 87.1022 124.735ZM87.5215 123.505C87.7379 122.707 87.8461 121.868 87.8461 121.002C87.8461 119.65 87.5756 118.365 87.0887 117.202L80.7861 123.505H87.5215Z" fill="white"/>
<path d="M86.4936 116.039C85.4116 114.186 83.7345 112.712 81.7328 111.887V120.8L86.4936 116.039ZM80.5021 111.481C79.7041 111.264 78.8656 111.156 78 111.156C76.6475 111.156 75.3761 111.427 74.1995 111.914L80.5021 118.216V111.481ZM73.0363 112.509C71.1834 113.591 69.7092 115.268 68.8842 117.27H77.7971L73.0363 112.509ZM69.5063 125.966C70.5883 127.819 72.2654 129.293 74.2671 130.118V121.205L69.5063 125.966ZM68.4784 118.5C68.262 119.298 68.1538 120.137 68.1538 121.002C68.1538 122.355 68.4243 123.626 68.9112 124.803C70.2772 123.437 75.2273 118.5 75.2273 118.5H68.4784ZM75.4978 130.524C76.2958 130.74 77.1344 130.849 78 130.849C79.3525 130.849 80.6238 130.578 81.8005 130.091L75.4978 123.789V130.524ZM87.1022 124.735H78.1893L82.9501 129.496C84.8165 128.414 86.2772 126.737 87.1022 124.735ZM87.5215 123.505C87.7379 122.707 87.8461 121.868 87.8461 121.002C87.8461 119.65 87.5756 118.365 87.0887 117.202L80.7861 123.505H87.5215Z" fill="white"/>
<circle cx="78" cy="231" r="16" fill="white"/>
<circle cx="78" cy="231" r="16" fill="url(#paint10_linear_1616_7554)" fill-opacity="0.3"/>
<path d="M81.8762 231.291L81.9569 231.338C82.7731 231.793 83.7084 231.935 84.6092 231.741L84.7529 231.707L84.8664 231.675C84.8895 231.669 84.9122 231.662 84.9349 231.655L84.9345 239.105C84.9345 239.37 84.6865 239.588 84.3684 239.615L84.3041 239.617L79.7863 239.617V234.403H76.0039V239.617L71.6962 239.617C71.3697 239.617 71.1015 239.416 71.0692 239.157L71.0658 239.105V231.655L71.1562 231.682L71.2474 231.707L71.3764 231.737L71.5092 231.763C72.3225 231.91 73.1579 231.788 73.906 231.414L74.0421 231.342L74.1253 231.294L74.2661 231.373C74.7776 231.646 75.3369 231.799 75.9072 231.823L76.0644 231.827L76.1985 231.824L76.3485 231.815C76.8324 231.777 77.3062 231.647 77.748 231.431L77.8917 231.356L78.0014 231.294L78.1145 231.358C78.6297 231.639 79.1945 231.799 79.7766 231.823L79.9359 231.827L80.0695 231.824L80.2334 231.814C80.7131 231.775 81.1827 231.645 81.6207 231.43L81.7632 231.356L81.8762 231.291ZM83.8073 222.387C83.9212 222.387 84.033 222.42 84.1307 222.483C84.2285 222.546 84.3086 222.637 84.3625 222.745L86.5403 227.114C86.5894 227.213 86.6153 227.323 86.6155 227.435C86.6168 228.019 86.4611 228.591 86.1672 229.082C85.8734 229.573 85.454 229.962 84.9598 230.201C84.4656 230.44 83.9178 230.519 83.3826 230.43C82.8475 230.34 82.3479 230.085 81.9443 229.695L81.8724 229.623L81.7728 229.722C81.2925 230.176 80.6827 230.437 80.0451 230.464L79.9359 230.467C79.2046 230.467 78.5171 230.158 78.006 229.631L78.0001 229.625L77.9014 229.722C77.4211 230.175 76.8115 230.437 76.1741 230.464L76.0648 230.467C75.3336 230.467 74.6456 230.158 74.1346 229.631L74.1274 229.623L74.056 229.695C73.7326 230.007 73.3465 230.234 72.928 230.358C72.5095 230.482 72.0702 230.499 71.6445 230.408L71.539 230.383C70.9246 230.226 70.3774 229.849 69.9864 229.313C69.5954 228.778 69.3834 228.116 69.3848 227.435C69.3848 227.323 69.4108 227.213 69.46 227.114L71.6374 222.745C71.6913 222.637 71.7713 222.546 71.8689 222.483C71.9666 222.42 72.0783 222.387 72.1921 222.387H83.8073Z" fill="white"/>
<circle cx="198" cy="402" r="5" fill="white"/>
<circle cx="198" cy="402" r="5" fill="url(#paint11_linear_1616_7554)" fill-opacity="0.2"/>
<defs>
<filter id="filter0_d_1616_7554" x="0" y="20" width="508" height="398.113" filterUnits="userSpaceOnUse" color-interpolation-filters="sRGB">
<feFlood flood-opacity="0" result="BackgroundImageFix"/>
<feColorMatrix in="SourceAlpha" type="matrix" values="0 0 0 0 0 0 0 0 0 0 0 0 0 0 0 0 0 0 127 0" result="hardAlpha"/>
<feOffset dy="10"/>
<feGaussianBlur stdDeviation="15"/>
<feColorMatrix type="matrix" values="0 0 0 0 0.0196078 0 0 0 0 0.333333 0 0 0 0 1 0 0 0 0.1 0"/>
<feBlend mode="normal" in2="BackgroundImageFix" result="effect1_dropShadow_1616_7554"/>
<feBlend mode="normal" in="SourceGraphic" in2="effect1_dropShadow_1616_7554" result="shape"/>
</filter>
<filter id="filter1_d_1616_7554" x="51.7883" y="169.844" width="52.4234" height="45.0396" filterUnits="userSpaceOnUse" color-interpolation-filters="sRGB">
<feFlood flood-opacity="0" result="BackgroundImageFix"/>
<feColorMatrix in="SourceAlpha" type="matrix" values="0 0 0 0 0 0 0 0 0 0 0 0 0 0 0 0 0 0 127 0" result="hardAlpha"/>
<feOffset dy="16.3655"/>
<feGaussianBlur stdDeviation="8.18275"/>
<feColorMatrix type="matrix" values="0 0 0 0 0.396078 0 0 0 0 0.278431 0 0 0 0 1 0 0 0 0.1 0"/>
<feBlend mode="normal" in2="BackgroundImageFix" result="effect1_dropShadow_1616_7554"/>
<feBlend mode="normal" in="SourceGraphic" in2="effect1_dropShadow_1616_7554" result="shape"/>
</filter>
<linearGradient id="paint0_linear_1616_7554" x1="389" y1="31" x2="389" y2="45" gradientUnits="userSpaceOnUse">
<stop stop-color="#0555FF"/>
<stop offset="1" stop-color="#0555FF" stop-opacity="0.21"/>
</linearGradient>
<linearGradient id="paint1_linear_1616_7554" x1="111" y1="57" x2="111" y2="361" gradientUnits="userSpaceOnUse">
<stop stop-color="#0555FF"/>
<stop offset="1" stop-color="#0555FF" stop-opacity="0.6"/>
</linearGradient>
<linearGradient id="paint2_linear_1616_7554" x1="62" y1="160" x2="94" y2="192" gradientUnits="userSpaceOnUse">
<stop stop-color="#0555FF"/>
<stop offset="1" stop-color="#0555FF" stop-opacity="0.21"/>
</linearGradient>
<linearGradient id="paint3_linear_1616_7554" x1="207.906" y1="158.8" x2="241.227" y2="180.595" gradientUnits="userSpaceOnUse">
<stop stop-color="#07D988"/>
<stop offset="1" stop-color="#15F59F" stop-opacity="0.2"/>
</linearGradient>
<linearGradient id="paint4_linear_1616_7554" x1="266.028" y1="160.25" x2="269.211" y2="182.526" gradientUnits="userSpaceOnUse">
<stop stop-color="#07D988"/>
<stop offset="1" stop-color="#15F59F" stop-opacity="0.2"/>
</linearGradient>
<linearGradient id="paint5_linear_1616_7554" x1="264.557" y1="178.25" x2="270.422" y2="199.35" gradientUnits="userSpaceOnUse">
<stop stop-color="#07D988"/>
<stop offset="1" stop-color="#15F59F" stop-opacity="0.2"/>
</linearGradient>
<linearGradient id="paint6_linear_1616_7554" x1="403.047" y1="169.25" x2="411.07" y2="188.666" gradientUnits="userSpaceOnUse">
<stop stop-color="#07D988"/>
<stop offset="1" stop-color="#15F59F" stop-opacity="0.2"/>
</linearGradient>
<linearGradient id="paint7_linear_1616_7554" x1="207" y1="225" x2="239" y2="257" gradientUnits="userSpaceOnUse">
<stop stop-color="#0555FF"/>
<stop offset="1" stop-color="#0555FF" stop-opacity="0.21"/>
</linearGradient>
<linearGradient id="paint8_linear_1616_7554" x1="207" y1="292" x2="239" y2="324" gradientUnits="userSpaceOnUse">
<stop stop-color="#0555FF"/>
<stop offset="1" stop-color="#0555FF" stop-opacity="0.21"/>
</linearGradient>
<linearGradient id="paint9_linear_1616_7554" x1="62" y1="105" x2="94" y2="137" gradientUnits="userSpaceOnUse">
<stop stop-color="#0555FF"/>
<stop offset="1" stop-color="#0555FF" stop-opacity="0.21"/>
</linearGradient>
<linearGradient id="paint10_linear_1616_7554" x1="62" y1="215" x2="94" y2="247" gradientUnits="userSpaceOnUse">
<stop stop-color="#0555FF"/>
<stop offset="1" stop-color="#0555FF" stop-opacity="0.21"/>
</linearGradient>
<linearGradient id="paint11_linear_1616_7554" x1="198" y1="397" x2="198" y2="407" gradientUnits="userSpaceOnUse">
<stop stop-color="#0555FF"/>
<stop offset="1" stop-color="#0555FF" stop-opacity="0.21"/>
</linearGradient>
</defs>
</svg>
