<svg width="508" height="440" viewBox="0 0 508 440" fill="none" xmlns="http://www.w3.org/2000/svg">
<g filter="url(#filter0_d_1616_7593)">
<rect x="30" y="40" width="448" height="338.113" rx="16" fill="white"/>
<rect x="30.5" y="40.5" width="447" height="337.113" rx="15.5" stroke="#F2F6FF"/>
</g>
<rect x="53.1323" y="162" width="50.717" height="9.50943" rx="4.75472" fill="#F0F5FF"/>
<rect x="53" y="265.387" width="134" height="9" rx="4.5" fill="#F0F5FF"/>
<path d="M138.238 205.387C141.14 205.387 143 207.735 143 210.894C143 213.346 140.801 216.047 136.468 219.081C136.184 219.28 135.846 219.387 135.5 219.387C135.154 219.387 134.816 219.28 134.532 219.081C130.199 216.047 128 213.346 128 210.894C128 207.735 129.86 205.387 132.762 205.387C133.809 205.387 134.52 205.756 135.5 206.595C136.48 205.756 137.191 205.387 138.238 205.387Z" fill="url(#paint0_radial_1616_7593)" fill-opacity="0.8"/>
<rect x="149.806" y="207.438" width="110.943" height="9.50943" rx="4.75472" fill="#F0F5FF"/>
<circle cx="282.264" cy="212.264" r="13.2642" fill="white"/>
<circle cx="282.264" cy="212.264" r="13.2642" fill="url(#paint1_linear_1616_7593)" fill-opacity="0.4"/>
<path fill-rule="evenodd" clip-rule="evenodd" d="M276.701 208.642C276.807 208.51 276.928 208.386 277.061 208.276L277.065 208.272L277.092 208.248H277.093L277.218 208.145C277.23 208.135 277.244 208.125 277.257 208.116L277.273 208.105H277.272L277.873 207.599L277.886 207.588L281.707 204.54C282.08 204.228 282.624 204.232 282.993 204.551L286.75 207.653L286.784 207.684L287.544 208.339H287.546L287.657 208.435C287.736 208.504 287.81 208.577 287.88 208.653C288.32 209.134 288.568 209.767 288.568 210.429V214.582C288.568 215.616 287.967 216.552 287.03 216.977L283.362 218.639L283.258 218.686C283.246 218.691 283.234 218.696 283.223 218.701C283.211 218.706 283.199 218.711 283.187 218.717C283.187 218.717 283.186 218.717 283.184 218.719C283.156 218.73 283.129 218.741 283.101 218.751L282.24 219.131L278.75 220.496C278.307 220.67 277.878 220.215 278.071 219.777L278.928 217.852L279.022 217.596L277.655 216.977C276.719 216.552 276.119 215.616 276.119 214.582V210.297C276.119 209.689 276.328 209.107 276.701 208.642ZM277.778 212.98C277.961 214.729 279.263 215.834 282.343 215.881C285.422 215.834 286.726 214.731 286.908 212.982C287.016 211.944 286.93 210.926 286.84 210.271C286.778 209.821 286.479 209.437 286.056 209.277C284.342 208.635 283.171 208.606 282.345 208.606C281.223 208.606 280.252 208.669 278.628 209.277C278.204 209.437 277.906 209.82 277.844 210.271C277.756 210.924 277.67 211.942 277.778 212.98ZM275.351 205.883H275.57C275.616 205.883 275.657 205.906 275.657 205.933V209.812H275.792C275.821 209.812 275.843 209.836 275.843 209.863V213.31C275.843 213.339 275.82 213.361 275.792 213.361H275.254C275.043 213.361 274.872 213.189 274.87 212.977V210.199C274.87 209.985 275.043 209.812 275.254 209.812H275.264V205.933C275.264 205.906 275.301 205.883 275.351 205.883ZM288.892 213.374H289.43C289.641 213.374 289.812 213.202 289.814 212.989V210.212C289.814 209.998 289.641 209.825 289.43 209.825H288.892C288.863 209.825 288.842 209.849 288.842 209.876V213.323C288.842 213.352 288.865 213.374 288.892 213.374ZM280.751 212.692H280.221C280.104 212.692 280.009 212.596 280.009 212.478V210.82C280.009 210.702 280.104 210.605 280.221 210.605H280.751C280.868 210.605 280.963 210.702 280.963 210.82V212.478C280.963 212.596 280.868 212.692 280.751 212.692ZM284.466 212.692H283.936C283.819 212.692 283.724 212.596 283.724 212.478V210.82C283.724 210.702 283.819 210.605 283.936 210.605H284.466C284.583 210.605 284.678 210.702 284.678 210.82V212.478C284.678 212.596 284.583 212.692 284.466 212.692ZM282.348 214.456C282.701 214.456 283.032 214.346 283.261 214.155C283.318 214.106 283.327 214.019 283.279 213.961C283.23 213.903 283.144 213.894 283.086 213.943C282.906 214.093 282.638 214.181 282.35 214.181C282.056 214.181 281.784 214.092 281.606 213.936C281.548 213.887 281.462 213.892 281.413 213.95C281.365 214.008 281.37 214.095 281.428 214.144C281.653 214.344 281.989 214.456 282.348 214.456Z" fill="white"/>
<rect x="149.806" y="225.398" width="83.4717" height="9.50943" rx="4.75472" fill="#F0F5FF"/>
<rect x="332.409" y="57.4089" width="129.182" height="303.182" rx="10.1572" fill="white"/>
<rect x="332.409" y="57.4089" width="129.182" height="303.182" rx="10.1572" fill="url(#paint2_linear_1616_7593)" fill-opacity="0.06"/>
<rect x="332.409" y="57.4089" width="129.182" height="303.182" rx="10.1572" stroke="#F2F6FF" stroke-width="0.817741"/>
<path d="M349.376 95.792V91.92C349.376 91.8133 349.376 91.68 349.376 91.52C349.376 91.3493 349.381 91.168 349.392 90.976C349.403 90.784 349.413 90.608 349.424 90.448C349.349 90.5227 349.28 90.592 349.216 90.656C349.163 90.72 349.104 90.7787 349.04 90.832C348.976 90.8853 348.891 90.9547 348.784 91.04C348.688 91.1147 348.576 91.2 348.448 91.296C348.331 91.392 348.192 91.4987 348.032 91.616L347.216 90.56L349.504 88.768H351.008V95.792H349.376ZM350 99.216C349.04 99.216 348.139 99.0347 347.296 98.672C346.464 98.32 345.728 97.8293 345.088 97.2C344.459 96.56 343.963 95.824 343.6 94.992C343.248 94.1493 343.072 93.248 343.072 92.288C343.072 91.328 343.248 90.432 343.6 89.6C343.963 88.7573 344.459 88.0213 345.088 87.392C345.728 86.752 346.464 86.256 347.296 85.904C348.139 85.5413 349.04 85.36 350 85.36C350.96 85.36 351.856 85.5413 352.688 85.904C353.531 86.256 354.267 86.752 354.896 87.392C355.536 88.0213 356.032 88.7573 356.384 89.6C356.747 90.432 356.928 91.328 356.928 92.288C356.928 93.248 356.747 94.1493 356.384 94.992C356.032 95.824 355.536 96.56 354.896 97.2C354.267 97.8293 353.531 98.32 352.688 98.672C351.856 99.0347 350.96 99.216 350 99.216ZM350 97.792C350.768 97.792 351.483 97.6533 352.144 97.376C352.805 97.088 353.387 96.6933 353.888 96.192C354.4 95.68 354.795 95.0933 355.072 94.432C355.36 93.76 355.504 93.0453 355.504 92.288C355.504 91.52 355.36 90.8053 355.072 90.144C354.795 89.4827 354.4 88.9013 353.888 88.4C353.387 87.888 352.8 87.4933 352.128 87.216C351.467 86.928 350.757 86.784 350 86.784C349.232 86.784 348.517 86.928 347.856 87.216C347.195 87.4933 346.608 87.888 346.096 88.4C345.595 88.9013 345.2 89.488 344.912 90.16C344.635 90.8213 344.496 91.5307 344.496 92.288C344.496 93.056 344.635 93.7707 344.912 94.432C345.2 95.0933 345.595 95.68 346.096 96.192C346.608 96.6933 347.195 97.088 347.856 97.376C348.528 97.6533 349.243 97.792 350 97.792Z" fill="white"/>
<path d="M349.376 95.792V91.92C349.376 91.8133 349.376 91.68 349.376 91.52C349.376 91.3493 349.381 91.168 349.392 90.976C349.403 90.784 349.413 90.608 349.424 90.448C349.349 90.5227 349.28 90.592 349.216 90.656C349.163 90.72 349.104 90.7787 349.04 90.832C348.976 90.8853 348.891 90.9547 348.784 91.04C348.688 91.1147 348.576 91.2 348.448 91.296C348.331 91.392 348.192 91.4987 348.032 91.616L347.216 90.56L349.504 88.768H351.008V95.792H349.376ZM350 99.216C349.04 99.216 348.139 99.0347 347.296 98.672C346.464 98.32 345.728 97.8293 345.088 97.2C344.459 96.56 343.963 95.824 343.6 94.992C343.248 94.1493 343.072 93.248 343.072 92.288C343.072 91.328 343.248 90.432 343.6 89.6C343.963 88.7573 344.459 88.0213 345.088 87.392C345.728 86.752 346.464 86.256 347.296 85.904C348.139 85.5413 349.04 85.36 350 85.36C350.96 85.36 351.856 85.5413 352.688 85.904C353.531 86.256 354.267 86.752 354.896 87.392C355.536 88.0213 356.032 88.7573 356.384 89.6C356.747 90.432 356.928 91.328 356.928 92.288C356.928 93.248 356.747 94.1493 356.384 94.992C356.032 95.824 355.536 96.56 354.896 97.2C354.267 97.8293 353.531 98.32 352.688 98.672C351.856 99.0347 350.96 99.216 350 99.216ZM350 97.792C350.768 97.792 351.483 97.6533 352.144 97.376C352.805 97.088 353.387 96.6933 353.888 96.192C354.4 95.68 354.795 95.0933 355.072 94.432C355.36 93.76 355.504 93.0453 355.504 92.288C355.504 91.52 355.36 90.8053 355.072 90.144C354.795 89.4827 354.4 88.9013 353.888 88.4C353.387 87.888 352.8 87.4933 352.128 87.216C351.467 86.928 350.757 86.784 350 86.784C349.232 86.784 348.517 86.928 347.856 87.216C347.195 87.4933 346.608 87.888 346.096 88.4C345.595 88.9013 345.2 89.488 344.912 90.16C344.635 90.8213 344.496 91.5307 344.496 92.288C344.496 93.056 344.635 93.7707 344.912 94.432C345.2 95.0933 345.595 95.68 346.096 96.192C346.608 96.6933 347.195 97.088 347.856 97.376C348.528 97.6533 349.243 97.792 350 97.792Z" fill="#C7D8FF"/>
<circle cx="55.7869" cy="65.5391" r="5" fill="#1561FF"/>
<circle cx="69.7869" cy="65.5391" r="5" fill="#FD8113"/>
<circle cx="83.7869" cy="65.5391" r="5" fill="#0CE18F"/>
<line opacity="0.3" x1="53.4351" y1="137.565" x2="295.565" y2="137.565" stroke="#869BB9" stroke-width="0.870144" stroke-linecap="round" stroke-dasharray="1.74 2.61"/>
<rect x="87" y="104" width="37" height="10" rx="5" fill="#F0F5FF"/>
<circle cx="66" cy="109" r="13" fill="white"/>
<circle cx="66" cy="109" r="13" fill="url(#paint3_linear_1616_7593)" fill-opacity="0.3"/>
<path d="M347.664 179.776V178.672L349.44 176.896C349.824 176.512 350.117 176.203 350.32 175.968C350.523 175.733 350.667 175.525 350.752 175.344C350.837 175.152 350.88 174.955 350.88 174.752C350.88 174.485 350.8 174.293 350.64 174.176C350.48 174.048 350.277 173.984 350.032 173.984C349.797 173.984 349.557 174.048 349.312 174.176C349.067 174.293 348.8 174.475 348.512 174.72L347.648 173.68C347.872 173.477 348.101 173.301 348.336 173.152C348.581 172.992 348.853 172.869 349.152 172.784C349.451 172.688 349.792 172.64 350.176 172.64C350.88 172.64 351.44 172.816 351.856 173.168C352.272 173.52 352.48 173.989 352.48 174.576C352.48 174.96 352.4 175.312 352.24 175.632C352.091 175.941 351.867 176.256 351.568 176.576C351.28 176.885 350.928 177.237 350.512 177.632L349.6 178.496L349.552 178.432H352.544V179.776H347.664ZM350 183.216C349.04 183.216 348.139 183.035 347.296 182.672C346.464 182.32 345.728 181.829 345.088 181.2C344.459 180.56 343.963 179.824 343.6 178.992C343.248 178.149 343.072 177.248 343.072 176.288C343.072 175.328 343.248 174.432 343.6 173.6C343.963 172.757 344.459 172.021 345.088 171.392C345.728 170.752 346.464 170.256 347.296 169.904C348.139 169.541 349.04 169.36 350 169.36C350.96 169.36 351.856 169.541 352.688 169.904C353.531 170.256 354.267 170.752 354.896 171.392C355.536 172.021 356.032 172.757 356.384 173.6C356.747 174.432 356.928 175.328 356.928 176.288C356.928 177.248 356.747 178.149 356.384 178.992C356.032 179.824 355.536 180.56 354.896 181.2C354.267 181.829 353.531 182.32 352.688 182.672C351.856 183.035 350.96 183.216 350 183.216ZM350 181.792C350.768 181.792 351.483 181.653 352.144 181.376C352.805 181.088 353.387 180.693 353.888 180.192C354.4 179.68 354.795 179.093 355.072 178.432C355.36 177.76 355.504 177.045 355.504 176.288C355.504 175.52 355.36 174.805 355.072 174.144C354.795 173.483 354.4 172.901 353.888 172.4C353.387 171.888 352.8 171.493 352.128 171.216C351.467 170.928 350.757 170.784 350 170.784C349.232 170.784 348.517 170.928 347.856 171.216C347.195 171.493 346.608 171.888 346.096 172.4C345.595 172.901 345.2 173.488 344.912 174.16C344.635 174.821 344.496 175.531 344.496 176.288C344.496 177.056 344.635 177.771 344.912 178.432C345.2 179.093 345.595 179.68 346.096 180.192C346.608 180.693 347.195 181.088 347.856 181.376C348.528 181.653 349.243 181.792 350 181.792Z" fill="white"/>
<path d="M347.664 179.776V178.672L349.44 176.896C349.824 176.512 350.117 176.203 350.32 175.968C350.523 175.733 350.667 175.525 350.752 175.344C350.837 175.152 350.88 174.955 350.88 174.752C350.88 174.485 350.8 174.293 350.64 174.176C350.48 174.048 350.277 173.984 350.032 173.984C349.797 173.984 349.557 174.048 349.312 174.176C349.067 174.293 348.8 174.475 348.512 174.72L347.648 173.68C347.872 173.477 348.101 173.301 348.336 173.152C348.581 172.992 348.853 172.869 349.152 172.784C349.451 172.688 349.792 172.64 350.176 172.64C350.88 172.64 351.44 172.816 351.856 173.168C352.272 173.52 352.48 173.989 352.48 174.576C352.48 174.96 352.4 175.312 352.24 175.632C352.091 175.941 351.867 176.256 351.568 176.576C351.28 176.885 350.928 177.237 350.512 177.632L349.6 178.496L349.552 178.432H352.544V179.776H347.664ZM350 183.216C349.04 183.216 348.139 183.035 347.296 182.672C346.464 182.32 345.728 181.829 345.088 181.2C344.459 180.56 343.963 179.824 343.6 178.992C343.248 178.149 343.072 177.248 343.072 176.288C343.072 175.328 343.248 174.432 343.6 173.6C343.963 172.757 344.459 172.021 345.088 171.392C345.728 170.752 346.464 170.256 347.296 169.904C348.139 169.541 349.04 169.36 350 169.36C350.96 169.36 351.856 169.541 352.688 169.904C353.531 170.256 354.267 170.752 354.896 171.392C355.536 172.021 356.032 172.757 356.384 173.6C356.747 174.432 356.928 175.328 356.928 176.288C356.928 177.248 356.747 178.149 356.384 178.992C356.032 179.824 355.536 180.56 354.896 181.2C354.267 181.829 353.531 182.32 352.688 182.672C351.856 183.035 350.96 183.216 350 183.216ZM350 181.792C350.768 181.792 351.483 181.653 352.144 181.376C352.805 181.088 353.387 180.693 353.888 180.192C354.4 179.68 354.795 179.093 355.072 178.432C355.36 177.76 355.504 177.045 355.504 176.288C355.504 175.52 355.36 174.805 355.072 174.144C354.795 173.483 354.4 172.901 353.888 172.4C353.387 171.888 352.8 171.493 352.128 171.216C351.467 170.928 350.757 170.784 350 170.784C349.232 170.784 348.517 170.928 347.856 171.216C347.195 171.493 346.608 171.888 346.096 172.4C345.595 172.901 345.2 173.488 344.912 174.16C344.635 174.821 344.496 175.531 344.496 176.288C344.496 177.056 344.635 177.771 344.912 178.432C345.2 179.093 345.595 179.68 346.096 180.192C346.608 180.693 347.195 181.088 347.856 181.376C348.528 181.653 349.243 181.792 350 181.792Z" fill="#C7D8FF"/>
<path d="M349.84 248.904C349.403 248.904 349.019 248.872 348.688 248.808C348.357 248.733 348.043 248.632 347.744 248.504V247.128C348.075 247.299 348.405 247.427 348.736 247.512C349.077 247.587 349.392 247.624 349.68 247.624C350.171 247.624 350.517 247.544 350.72 247.384C350.933 247.224 351.04 246.995 351.04 246.696C351.04 246.408 350.923 246.189 350.688 246.04C350.453 245.88 350.037 245.8 349.44 245.8H348.816V244.568H349.456C349.979 244.568 350.352 244.488 350.576 244.328C350.811 244.168 350.928 243.949 350.928 243.672C350.928 243.427 350.843 243.251 350.672 243.144C350.501 243.027 350.283 242.968 350.016 242.968C349.717 242.968 349.429 243.027 349.152 243.144C348.885 243.251 348.661 243.363 348.48 243.48L347.76 242.392C348.08 242.179 348.427 242.003 348.8 241.864C349.184 241.725 349.648 241.656 350.192 241.656C350.928 241.656 351.499 241.811 351.904 242.12C352.309 242.419 352.512 242.829 352.512 243.352C352.512 243.832 352.368 244.221 352.08 244.52C351.803 244.808 351.445 245.011 351.008 245.128L350.992 245.096C351.557 245.171 351.984 245.347 352.272 245.624C352.571 245.901 352.72 246.285 352.72 246.776C352.72 247.384 352.491 247.891 352.032 248.296C351.573 248.701 350.843 248.904 349.84 248.904ZM350 252.216C349.04 252.216 348.139 252.035 347.296 251.672C346.464 251.32 345.728 250.829 345.088 250.2C344.459 249.56 343.963 248.824 343.6 247.992C343.248 247.149 343.072 246.248 343.072 245.288C343.072 244.328 343.248 243.432 343.6 242.6C343.963 241.757 344.459 241.021 345.088 240.392C345.728 239.752 346.464 239.256 347.296 238.904C348.139 238.541 349.04 238.36 350 238.36C350.96 238.36 351.856 238.541 352.688 238.904C353.531 239.256 354.267 239.752 354.896 240.392C355.536 241.021 356.032 241.757 356.384 242.6C356.747 243.432 356.928 244.328 356.928 245.288C356.928 246.248 356.747 247.149 356.384 247.992C356.032 248.824 355.536 249.56 354.896 250.2C354.267 250.829 353.531 251.32 352.688 251.672C351.856 252.035 350.96 252.216 350 252.216ZM350 250.792C350.768 250.792 351.483 250.653 352.144 250.376C352.805 250.088 353.387 249.693 353.888 249.192C354.4 248.68 354.795 248.093 355.072 247.432C355.36 246.771 355.504 246.056 355.504 245.288C355.504 244.52 355.36 243.805 355.072 243.144C354.795 242.483 354.4 241.901 353.888 241.4C353.387 240.888 352.805 240.493 352.144 240.216C351.483 239.928 350.768 239.784 350 239.784C349.232 239.784 348.517 239.928 347.856 240.216C347.195 240.493 346.608 240.888 346.096 241.4C345.595 241.901 345.2 242.483 344.912 243.144C344.635 243.805 344.496 244.52 344.496 245.288C344.496 246.056 344.635 246.771 344.912 247.432C345.2 248.093 345.595 248.68 346.096 249.192C346.608 249.693 347.195 250.088 347.856 250.376C348.517 250.653 349.232 250.792 350 250.792Z" fill="white"/>
<path d="M349.84 248.904C349.403 248.904 349.019 248.872 348.688 248.808C348.357 248.733 348.043 248.632 347.744 248.504V247.128C348.075 247.299 348.405 247.427 348.736 247.512C349.077 247.587 349.392 247.624 349.68 247.624C350.171 247.624 350.517 247.544 350.72 247.384C350.933 247.224 351.04 246.995 351.04 246.696C351.04 246.408 350.923 246.189 350.688 246.04C350.453 245.88 350.037 245.8 349.44 245.8H348.816V244.568H349.456C349.979 244.568 350.352 244.488 350.576 244.328C350.811 244.168 350.928 243.949 350.928 243.672C350.928 243.427 350.843 243.251 350.672 243.144C350.501 243.027 350.283 242.968 350.016 242.968C349.717 242.968 349.429 243.027 349.152 243.144C348.885 243.251 348.661 243.363 348.48 243.48L347.76 242.392C348.08 242.179 348.427 242.003 348.8 241.864C349.184 241.725 349.648 241.656 350.192 241.656C350.928 241.656 351.499 241.811 351.904 242.12C352.309 242.419 352.512 242.829 352.512 243.352C352.512 243.832 352.368 244.221 352.08 244.52C351.803 244.808 351.445 245.011 351.008 245.128L350.992 245.096C351.557 245.171 351.984 245.347 352.272 245.624C352.571 245.901 352.72 246.285 352.72 246.776C352.72 247.384 352.491 247.891 352.032 248.296C351.573 248.701 350.843 248.904 349.84 248.904ZM350 252.216C349.04 252.216 348.139 252.035 347.296 251.672C346.464 251.32 345.728 250.829 345.088 250.2C344.459 249.56 343.963 248.824 343.6 247.992C343.248 247.149 343.072 246.248 343.072 245.288C343.072 244.328 343.248 243.432 343.6 242.6C343.963 241.757 344.459 241.021 345.088 240.392C345.728 239.752 346.464 239.256 347.296 238.904C348.139 238.541 349.04 238.36 350 238.36C350.96 238.36 351.856 238.541 352.688 238.904C353.531 239.256 354.267 239.752 354.896 240.392C355.536 241.021 356.032 241.757 356.384 242.6C356.747 243.432 356.928 244.328 356.928 245.288C356.928 246.248 356.747 247.149 356.384 247.992C356.032 248.824 355.536 249.56 354.896 250.2C354.267 250.829 353.531 251.32 352.688 251.672C351.856 252.035 350.96 252.216 350 252.216ZM350 250.792C350.768 250.792 351.483 250.653 352.144 250.376C352.805 250.088 353.387 249.693 353.888 249.192C354.4 248.68 354.795 248.093 355.072 247.432C355.36 246.771 355.504 246.056 355.504 245.288C355.504 244.52 355.36 243.805 355.072 243.144C354.795 242.483 354.4 241.901 353.888 241.4C353.387 240.888 352.805 240.493 352.144 240.216C351.483 239.928 350.768 239.784 350 239.784C349.232 239.784 348.517 239.928 347.856 240.216C347.195 240.493 346.608 240.888 346.096 241.4C345.595 241.901 345.2 242.483 344.912 243.144C344.635 243.805 344.496 244.52 344.496 245.288C344.496 246.056 344.635 246.771 344.912 247.432C345.2 248.093 345.595 248.68 346.096 249.192C346.608 249.693 347.195 250.088 347.856 250.376C348.517 250.653 349.232 250.792 350 250.792Z" fill="#C7D8FF"/>
<line opacity="0.3" x1="350.4" y1="104.4" x2="350.4" y2="164.6" stroke="#869BB9" stroke-width="0.8" stroke-linecap="round" stroke-dasharray="1.65 2.47"/>
<line opacity="0.3" x1="350.4" y1="186.4" x2="350.4" y2="233.6" stroke="#869BB9" stroke-width="0.8" stroke-linecap="round" stroke-dasharray="1.65 2.47"/>
<g opacity="0.2">
<path d="M365.904 96V94.596H362.604L364.992 91.824C365.58 91.14 365.904 90.696 365.904 89.868C365.904 88.332 364.824 87.384 363.312 87.384C361.848 87.384 360.708 88.32 360.708 89.88H362.268C362.268 89.052 362.796 88.788 363.312 88.788C363.972 88.788 364.344 89.22 364.344 89.856C364.344 90.252 364.212 90.516 363.9 90.888L360.708 94.596V96H365.904ZM372.372 93.528V89.928C372.372 88.296 371.172 87.384 369.78 87.384C368.388 87.384 367.176 88.296 367.176 89.928V93.528C367.176 95.16 368.388 96.072 369.78 96.072C371.172 96.072 372.372 95.16 372.372 93.528ZM370.812 93.516C370.812 94.236 370.392 94.668 369.78 94.668C369.168 94.668 368.736 94.236 368.736 93.516V89.952C368.736 89.232 369.168 88.788 369.78 88.788C370.392 88.788 370.812 89.232 370.812 89.952V93.516ZM378.935 96V94.596H375.635L378.023 91.824C378.611 91.14 378.935 90.696 378.935 89.868C378.935 88.332 377.855 87.384 376.343 87.384C374.879 87.384 373.739 88.32 373.739 89.88H375.299C375.299 89.052 375.827 88.788 376.343 88.788C377.003 88.788 377.375 89.22 377.375 89.856C377.375 90.252 377.243 90.516 376.931 90.888L373.739 94.596V96H378.935ZM385.451 96V94.596H382.151L384.539 91.824C385.127 91.14 385.451 90.696 385.451 89.868C385.451 88.332 384.371 87.384 382.859 87.384C381.395 87.384 380.255 88.32 380.255 89.88H381.815C381.815 89.052 382.343 88.788 382.859 88.788C383.519 88.788 383.891 89.22 383.891 89.856C383.891 90.252 383.759 90.516 383.447 90.888L380.255 94.596V96H385.451ZM388.667 96V94.224H386.879V96H388.667ZM395.424 93.528C395.424 92.496 394.932 91.908 394.32 91.584C394.884 91.284 395.304 90.756 395.304 89.832C395.304 88.392 394.212 87.384 392.7 87.384C391.26 87.384 390.12 88.296 390.084 89.82H391.644C391.68 89.172 392.112 88.788 392.7 88.788C393.264 88.788 393.744 89.16 393.744 89.88C393.744 90.48 393.42 90.948 392.664 90.948H392.436V92.304H392.664C393.432 92.304 393.864 92.772 393.864 93.48C393.864 94.248 393.384 94.668 392.712 94.668C392.1 94.668 391.572 94.32 391.548 93.552H389.988C390.012 95.34 391.32 96.072 392.712 96.072C394.176 96.072 395.424 95.232 395.424 93.528ZM398.604 96V94.224H396.816V96H398.604ZM403.958 96V87.456H402.398L400.658 88.968V90.648L402.398 89.136V96H403.958ZM411.878 93.528C411.878 92.496 411.386 91.908 410.774 91.584C411.338 91.284 411.758 90.756 411.758 89.832C411.758 88.392 410.666 87.384 409.154 87.384C407.714 87.384 406.574 88.296 406.538 89.82H408.098C408.134 89.172 408.566 88.788 409.154 88.788C409.718 88.788 410.198 89.16 410.198 89.88C410.198 90.48 409.874 90.948 409.118 90.948H408.89V92.304H409.118C409.886 92.304 410.318 92.772 410.318 93.48C410.318 94.248 409.838 94.668 409.166 94.668C408.554 94.668 408.026 94.32 408.002 93.552H406.442C406.466 95.34 407.774 96.072 409.166 96.072C410.63 96.072 411.878 95.232 411.878 93.528ZM422.567 96V87.456H421.007L419.267 88.968V90.648L421.007 89.136V96H422.567ZM430.487 90.024C430.487 88.332 429.335 87.384 427.823 87.384C426.311 87.384 425.159 88.368 425.159 90.048C425.159 91.632 426.263 92.58 427.415 92.58C427.619 92.58 427.847 92.556 428.051 92.472L426.275 96H427.967L429.779 92.304C430.163 91.524 430.487 90.804 430.487 90.024ZM428.927 90.036C428.927 90.828 428.459 91.284 427.823 91.284C427.163 91.284 426.719 90.792 426.719 90.036C426.719 89.244 427.187 88.788 427.823 88.788C428.459 88.788 428.927 89.244 428.927 90.036ZM433.955 92.748V90.972H432.179V92.748H433.955ZM433.955 96V94.224H432.179V96H433.955ZM440.622 93.528V89.928C440.622 88.296 439.422 87.384 438.03 87.384C436.638 87.384 435.426 88.296 435.426 89.928V93.528C435.426 95.16 436.638 96.072 438.03 96.072C439.422 96.072 440.622 95.16 440.622 93.528ZM439.062 93.516C439.062 94.236 438.642 94.668 438.03 94.668C437.418 94.668 436.986 94.236 436.986 93.516V89.952C436.986 89.232 437.418 88.788 438.03 88.788C438.642 88.788 439.062 89.232 439.062 89.952V93.516ZM447.137 93.528V89.928C447.137 88.296 445.937 87.384 444.545 87.384C443.153 87.384 441.941 88.296 441.941 89.928V93.528C441.941 95.16 443.153 96.072 444.545 96.072C445.937 96.072 447.137 95.16 447.137 93.528ZM445.577 93.516C445.577 94.236 445.157 94.668 444.545 94.668C443.933 94.668 443.501 94.236 443.501 93.516V89.952C443.501 89.232 443.933 88.788 444.545 88.788C445.157 88.788 445.577 89.232 445.577 89.952V93.516Z" fill="white"/>
<path d="M365.904 96V94.596H362.604L364.992 91.824C365.58 91.14 365.904 90.696 365.904 89.868C365.904 88.332 364.824 87.384 363.312 87.384C361.848 87.384 360.708 88.32 360.708 89.88H362.268C362.268 89.052 362.796 88.788 363.312 88.788C363.972 88.788 364.344 89.22 364.344 89.856C364.344 90.252 364.212 90.516 363.9 90.888L360.708 94.596V96H365.904ZM372.372 93.528V89.928C372.372 88.296 371.172 87.384 369.78 87.384C368.388 87.384 367.176 88.296 367.176 89.928V93.528C367.176 95.16 368.388 96.072 369.78 96.072C371.172 96.072 372.372 95.16 372.372 93.528ZM370.812 93.516C370.812 94.236 370.392 94.668 369.78 94.668C369.168 94.668 368.736 94.236 368.736 93.516V89.952C368.736 89.232 369.168 88.788 369.78 88.788C370.392 88.788 370.812 89.232 370.812 89.952V93.516ZM378.935 96V94.596H375.635L378.023 91.824C378.611 91.14 378.935 90.696 378.935 89.868C378.935 88.332 377.855 87.384 376.343 87.384C374.879 87.384 373.739 88.32 373.739 89.88H375.299C375.299 89.052 375.827 88.788 376.343 88.788C377.003 88.788 377.375 89.22 377.375 89.856C377.375 90.252 377.243 90.516 376.931 90.888L373.739 94.596V96H378.935ZM385.451 96V94.596H382.151L384.539 91.824C385.127 91.14 385.451 90.696 385.451 89.868C385.451 88.332 384.371 87.384 382.859 87.384C381.395 87.384 380.255 88.32 380.255 89.88H381.815C381.815 89.052 382.343 88.788 382.859 88.788C383.519 88.788 383.891 89.22 383.891 89.856C383.891 90.252 383.759 90.516 383.447 90.888L380.255 94.596V96H385.451ZM388.667 96V94.224H386.879V96H388.667ZM395.424 93.528C395.424 92.496 394.932 91.908 394.32 91.584C394.884 91.284 395.304 90.756 395.304 89.832C395.304 88.392 394.212 87.384 392.7 87.384C391.26 87.384 390.12 88.296 390.084 89.82H391.644C391.68 89.172 392.112 88.788 392.7 88.788C393.264 88.788 393.744 89.16 393.744 89.88C393.744 90.48 393.42 90.948 392.664 90.948H392.436V92.304H392.664C393.432 92.304 393.864 92.772 393.864 93.48C393.864 94.248 393.384 94.668 392.712 94.668C392.1 94.668 391.572 94.32 391.548 93.552H389.988C390.012 95.34 391.32 96.072 392.712 96.072C394.176 96.072 395.424 95.232 395.424 93.528ZM398.604 96V94.224H396.816V96H398.604ZM403.958 96V87.456H402.398L400.658 88.968V90.648L402.398 89.136V96H403.958ZM411.878 93.528C411.878 92.496 411.386 91.908 410.774 91.584C411.338 91.284 411.758 90.756 411.758 89.832C411.758 88.392 410.666 87.384 409.154 87.384C407.714 87.384 406.574 88.296 406.538 89.82H408.098C408.134 89.172 408.566 88.788 409.154 88.788C409.718 88.788 410.198 89.16 410.198 89.88C410.198 90.48 409.874 90.948 409.118 90.948H408.89V92.304H409.118C409.886 92.304 410.318 92.772 410.318 93.48C410.318 94.248 409.838 94.668 409.166 94.668C408.554 94.668 408.026 94.32 408.002 93.552H406.442C406.466 95.34 407.774 96.072 409.166 96.072C410.63 96.072 411.878 95.232 411.878 93.528ZM422.567 96V87.456H421.007L419.267 88.968V90.648L421.007 89.136V96H422.567ZM430.487 90.024C430.487 88.332 429.335 87.384 427.823 87.384C426.311 87.384 425.159 88.368 425.159 90.048C425.159 91.632 426.263 92.58 427.415 92.58C427.619 92.58 427.847 92.556 428.051 92.472L426.275 96H427.967L429.779 92.304C430.163 91.524 430.487 90.804 430.487 90.024ZM428.927 90.036C428.927 90.828 428.459 91.284 427.823 91.284C427.163 91.284 426.719 90.792 426.719 90.036C426.719 89.244 427.187 88.788 427.823 88.788C428.459 88.788 428.927 89.244 428.927 90.036ZM433.955 92.748V90.972H432.179V92.748H433.955ZM433.955 96V94.224H432.179V96H433.955ZM440.622 93.528V89.928C440.622 88.296 439.422 87.384 438.03 87.384C436.638 87.384 435.426 88.296 435.426 89.928V93.528C435.426 95.16 436.638 96.072 438.03 96.072C439.422 96.072 440.622 95.16 440.622 93.528ZM439.062 93.516C439.062 94.236 438.642 94.668 438.03 94.668C437.418 94.668 436.986 94.236 436.986 93.516V89.952C436.986 89.232 437.418 88.788 438.03 88.788C438.642 88.788 439.062 89.232 439.062 89.952V93.516ZM447.137 93.528V89.928C447.137 88.296 445.937 87.384 444.545 87.384C443.153 87.384 441.941 88.296 441.941 89.928V93.528C441.941 95.16 443.153 96.072 444.545 96.072C445.937 96.072 447.137 95.16 447.137 93.528ZM445.577 93.516C445.577 94.236 445.157 94.668 444.545 94.668C443.933 94.668 443.501 94.236 443.501 93.516V89.952C443.501 89.232 443.933 88.788 444.545 88.788C445.157 88.788 445.577 89.232 445.577 89.952V93.516Z" fill="#125EFF"/>
</g>
<g opacity="0.2">
<path d="M367.904 181V179.596H364.604L366.992 176.824C367.58 176.14 367.904 175.696 367.904 174.868C367.904 173.332 366.824 172.384 365.312 172.384C363.848 172.384 362.708 173.32 362.708 174.88H364.268C364.268 174.052 364.796 173.788 365.312 173.788C365.972 173.788 366.344 174.22 366.344 174.856C366.344 175.252 366.212 175.516 365.9 175.888L362.708 179.596V181H367.904ZM374.372 178.528V174.928C374.372 173.296 373.172 172.384 371.78 172.384C370.388 172.384 369.176 173.296 369.176 174.928V178.528C369.176 180.16 370.388 181.072 371.78 181.072C373.172 181.072 374.372 180.16 374.372 178.528ZM372.812 178.516C372.812 179.236 372.392 179.668 371.78 179.668C371.168 179.668 370.736 179.236 370.736 178.516V174.952C370.736 174.232 371.168 173.788 371.78 173.788C372.392 173.788 372.812 174.232 372.812 174.952V178.516ZM380.935 181V179.596H377.635L380.023 176.824C380.611 176.14 380.935 175.696 380.935 174.868C380.935 173.332 379.855 172.384 378.343 172.384C376.879 172.384 375.739 173.32 375.739 174.88H377.299C377.299 174.052 377.827 173.788 378.343 173.788C379.003 173.788 379.375 174.22 379.375 174.856C379.375 175.252 379.243 175.516 378.931 175.888L375.739 179.596V181H380.935ZM387.451 181V179.596H384.151L386.539 176.824C387.127 176.14 387.451 175.696 387.451 174.868C387.451 173.332 386.371 172.384 384.859 172.384C383.395 172.384 382.255 173.32 382.255 174.88H383.815C383.815 174.052 384.343 173.788 384.859 173.788C385.519 173.788 385.891 174.22 385.891 174.856C385.891 175.252 385.759 175.516 385.447 175.888L382.255 179.596V181H387.451ZM390.667 181V179.224H388.879V181H390.667ZM397.424 178.528C397.424 177.496 396.932 176.908 396.32 176.584C396.884 176.284 397.304 175.756 397.304 174.832C397.304 173.392 396.212 172.384 394.7 172.384C393.26 172.384 392.12 173.296 392.084 174.82H393.644C393.68 174.172 394.112 173.788 394.7 173.788C395.264 173.788 395.744 174.16 395.744 174.88C395.744 175.48 395.42 175.948 394.664 175.948H394.436V177.304H394.664C395.432 177.304 395.864 177.772 395.864 178.48C395.864 179.248 395.384 179.668 394.712 179.668C394.1 179.668 393.572 179.32 393.548 178.552H391.988C392.012 180.34 393.32 181.072 394.712 181.072C396.176 181.072 397.424 180.232 397.424 178.528ZM400.604 181V179.224H398.816V181H400.604ZM405.958 181V172.456H404.398L402.658 173.968V175.648L404.398 174.136V181H405.958ZM414.082 179.788V178.312H413.302V176.716H411.802V178.312H410.014L412.942 172.456H411.238L408.31 178.312V179.788H411.802V181H413.302V179.788H414.082ZM424.567 181V172.456H423.007L421.267 173.968V175.648L423.007 174.136V181H424.567ZM432.403 178.528V174.928C432.403 173.296 431.203 172.384 429.811 172.384C428.419 172.384 427.207 173.296 427.207 174.928V178.528C427.207 180.16 428.419 181.072 429.811 181.072C431.203 181.072 432.403 180.16 432.403 178.528ZM430.843 178.516C430.843 179.236 430.423 179.668 429.811 179.668C429.199 179.668 428.767 179.236 428.767 178.516V174.952C428.767 174.232 429.199 173.788 429.811 173.788C430.423 173.788 430.843 174.232 430.843 174.952V178.516ZM435.955 177.748V175.972H434.179V177.748H435.955ZM435.955 181V179.224H434.179V181H435.955ZM442.67 181V179.596H439.37L441.758 176.824C442.346 176.14 442.67 175.696 442.67 174.868C442.67 173.332 441.59 172.384 440.078 172.384C438.614 172.384 437.474 173.32 437.474 174.88H439.034C439.034 174.052 439.562 173.788 440.078 173.788C440.738 173.788 441.11 174.22 441.11 174.856C441.11 175.252 440.978 175.516 440.666 175.888L437.474 179.596V181H442.67ZM449.137 178.528V174.928C449.137 173.296 447.937 172.384 446.545 172.384C445.153 172.384 443.941 173.296 443.941 174.928V178.528C443.941 180.16 445.153 181.072 446.545 181.072C447.937 181.072 449.137 180.16 449.137 178.528ZM447.577 178.516C447.577 179.236 447.157 179.668 446.545 179.668C445.933 179.668 445.501 179.236 445.501 178.516V174.952C445.501 174.232 445.933 173.788 446.545 173.788C447.157 173.788 447.577 174.232 447.577 174.952V178.516Z" fill="white"/>
<path d="M367.904 181V179.596H364.604L366.992 176.824C367.58 176.14 367.904 175.696 367.904 174.868C367.904 173.332 366.824 172.384 365.312 172.384C363.848 172.384 362.708 173.32 362.708 174.88H364.268C364.268 174.052 364.796 173.788 365.312 173.788C365.972 173.788 366.344 174.22 366.344 174.856C366.344 175.252 366.212 175.516 365.9 175.888L362.708 179.596V181H367.904ZM374.372 178.528V174.928C374.372 173.296 373.172 172.384 371.78 172.384C370.388 172.384 369.176 173.296 369.176 174.928V178.528C369.176 180.16 370.388 181.072 371.78 181.072C373.172 181.072 374.372 180.16 374.372 178.528ZM372.812 178.516C372.812 179.236 372.392 179.668 371.78 179.668C371.168 179.668 370.736 179.236 370.736 178.516V174.952C370.736 174.232 371.168 173.788 371.78 173.788C372.392 173.788 372.812 174.232 372.812 174.952V178.516ZM380.935 181V179.596H377.635L380.023 176.824C380.611 176.14 380.935 175.696 380.935 174.868C380.935 173.332 379.855 172.384 378.343 172.384C376.879 172.384 375.739 173.32 375.739 174.88H377.299C377.299 174.052 377.827 173.788 378.343 173.788C379.003 173.788 379.375 174.22 379.375 174.856C379.375 175.252 379.243 175.516 378.931 175.888L375.739 179.596V181H380.935ZM387.451 181V179.596H384.151L386.539 176.824C387.127 176.14 387.451 175.696 387.451 174.868C387.451 173.332 386.371 172.384 384.859 172.384C383.395 172.384 382.255 173.32 382.255 174.88H383.815C383.815 174.052 384.343 173.788 384.859 173.788C385.519 173.788 385.891 174.22 385.891 174.856C385.891 175.252 385.759 175.516 385.447 175.888L382.255 179.596V181H387.451ZM390.667 181V179.224H388.879V181H390.667ZM397.424 178.528C397.424 177.496 396.932 176.908 396.32 176.584C396.884 176.284 397.304 175.756 397.304 174.832C397.304 173.392 396.212 172.384 394.7 172.384C393.26 172.384 392.12 173.296 392.084 174.82H393.644C393.68 174.172 394.112 173.788 394.7 173.788C395.264 173.788 395.744 174.16 395.744 174.88C395.744 175.48 395.42 175.948 394.664 175.948H394.436V177.304H394.664C395.432 177.304 395.864 177.772 395.864 178.48C395.864 179.248 395.384 179.668 394.712 179.668C394.1 179.668 393.572 179.32 393.548 178.552H391.988C392.012 180.34 393.32 181.072 394.712 181.072C396.176 181.072 397.424 180.232 397.424 178.528ZM400.604 181V179.224H398.816V181H400.604ZM405.958 181V172.456H404.398L402.658 173.968V175.648L404.398 174.136V181H405.958ZM414.082 179.788V178.312H413.302V176.716H411.802V178.312H410.014L412.942 172.456H411.238L408.31 178.312V179.788H411.802V181H413.302V179.788H414.082ZM424.567 181V172.456H423.007L421.267 173.968V175.648L423.007 174.136V181H424.567ZM432.403 178.528V174.928C432.403 173.296 431.203 172.384 429.811 172.384C428.419 172.384 427.207 173.296 427.207 174.928V178.528C427.207 180.16 428.419 181.072 429.811 181.072C431.203 181.072 432.403 180.16 432.403 178.528ZM430.843 178.516C430.843 179.236 430.423 179.668 429.811 179.668C429.199 179.668 428.767 179.236 428.767 178.516V174.952C428.767 174.232 429.199 173.788 429.811 173.788C430.423 173.788 430.843 174.232 430.843 174.952V178.516ZM435.955 177.748V175.972H434.179V177.748H435.955ZM435.955 181V179.224H434.179V181H435.955ZM442.67 181V179.596H439.37L441.758 176.824C442.346 176.14 442.67 175.696 442.67 174.868C442.67 173.332 441.59 172.384 440.078 172.384C438.614 172.384 437.474 173.32 437.474 174.88H439.034C439.034 174.052 439.562 173.788 440.078 173.788C440.738 173.788 441.11 174.22 441.11 174.856C441.11 175.252 440.978 175.516 440.666 175.888L437.474 179.596V181H442.67ZM449.137 178.528V174.928C449.137 173.296 447.937 172.384 446.545 172.384C445.153 172.384 443.941 173.296 443.941 174.928V178.528C443.941 180.16 445.153 181.072 446.545 181.072C447.937 181.072 449.137 180.16 449.137 178.528ZM447.577 178.516C447.577 179.236 447.157 179.668 446.545 179.668C445.933 179.668 445.501 179.236 445.501 178.516V174.952C445.501 174.232 445.933 173.788 446.545 173.788C447.157 173.788 447.577 174.232 447.577 174.952V178.516Z" fill="#125EFF"/>
</g>
<g opacity="0.2">
<path d="M367.904 250V248.596H364.604L366.992 245.824C367.58 245.14 367.904 244.696 367.904 243.868C367.904 242.332 366.824 241.384 365.312 241.384C363.848 241.384 362.708 242.32 362.708 243.88H364.268C364.268 243.052 364.796 242.788 365.312 242.788C365.972 242.788 366.344 243.22 366.344 243.856C366.344 244.252 366.212 244.516 365.9 244.888L362.708 248.596V250H367.904ZM374.372 247.528V243.928C374.372 242.296 373.172 241.384 371.78 241.384C370.388 241.384 369.176 242.296 369.176 243.928V247.528C369.176 249.16 370.388 250.072 371.78 250.072C373.172 250.072 374.372 249.16 374.372 247.528ZM372.812 247.516C372.812 248.236 372.392 248.668 371.78 248.668C371.168 248.668 370.736 248.236 370.736 247.516V243.952C370.736 243.232 371.168 242.788 371.78 242.788C372.392 242.788 372.812 243.232 372.812 243.952V247.516ZM380.935 250V248.596H377.635L380.023 245.824C380.611 245.14 380.935 244.696 380.935 243.868C380.935 242.332 379.855 241.384 378.343 241.384C376.879 241.384 375.739 242.32 375.739 243.88H377.299C377.299 243.052 377.827 242.788 378.343 242.788C379.003 242.788 379.375 243.22 379.375 243.856C379.375 244.252 379.243 244.516 378.931 244.888L375.739 248.596V250H380.935ZM387.451 250V248.596H384.151L386.539 245.824C387.127 245.14 387.451 244.696 387.451 243.868C387.451 242.332 386.371 241.384 384.859 241.384C383.395 241.384 382.255 242.32 382.255 243.88H383.815C383.815 243.052 384.343 242.788 384.859 242.788C385.519 242.788 385.891 243.22 385.891 243.856C385.891 244.252 385.759 244.516 385.447 244.888L382.255 248.596V250H387.451ZM390.667 250V248.224H388.879V250H390.667ZM397.424 247.528C397.424 246.496 396.932 245.908 396.32 245.584C396.884 245.284 397.304 244.756 397.304 243.832C397.304 242.392 396.212 241.384 394.7 241.384C393.26 241.384 392.12 242.296 392.084 243.82H393.644C393.68 243.172 394.112 242.788 394.7 242.788C395.264 242.788 395.744 243.16 395.744 243.88C395.744 244.48 395.42 244.948 394.664 244.948H394.436V246.304H394.664C395.432 246.304 395.864 246.772 395.864 247.48C395.864 248.248 395.384 248.668 394.712 248.668C394.1 248.668 393.572 248.32 393.548 247.552H391.988C392.012 249.34 393.32 250.072 394.712 250.072C396.176 250.072 397.424 249.232 397.424 247.528ZM400.604 250V248.224H398.816V250H400.604ZM405.958 250V241.456H404.398L402.658 242.968V244.648L404.398 243.136V250H405.958ZM414.082 248.788V247.312H413.302V245.716H411.802V247.312H410.014L412.942 241.456H411.238L408.31 247.312V248.788H411.802V250H413.302V248.788H414.082ZM424.567 250V241.456H423.007L421.267 242.968V244.648L423.007 243.136V250H424.567ZM432.487 247.528C432.487 246.496 431.995 245.908 431.383 245.584C431.947 245.284 432.367 244.756 432.367 243.832C432.367 242.392 431.275 241.384 429.763 241.384C428.323 241.384 427.183 242.296 427.147 243.82H428.707C428.743 243.172 429.175 242.788 429.763 242.788C430.327 242.788 430.807 243.16 430.807 243.88C430.807 244.48 430.483 244.948 429.727 244.948H429.499V246.304H429.727C430.495 246.304 430.927 246.772 430.927 247.48C430.927 248.248 430.447 248.668 429.775 248.668C429.163 248.668 428.635 248.32 428.611 247.552H427.051C427.075 249.34 428.383 250.072 429.775 250.072C431.239 250.072 432.487 249.232 432.487 247.528ZM435.955 246.748V244.972H434.179V246.748H435.955ZM435.955 250V248.224H434.179V250H435.955ZM442.622 247.528V243.928C442.622 242.296 441.422 241.384 440.03 241.384C438.638 241.384 437.426 242.296 437.426 243.928V247.528C437.426 249.16 438.638 250.072 440.03 250.072C441.422 250.072 442.622 249.16 442.622 247.528ZM441.062 247.516C441.062 248.236 440.642 248.668 440.03 248.668C439.418 248.668 438.986 248.236 438.986 247.516V243.952C438.986 243.232 439.418 242.788 440.03 242.788C440.642 242.788 441.062 243.232 441.062 243.952V247.516ZM449.137 247.528V243.928C449.137 242.296 447.937 241.384 446.545 241.384C445.153 241.384 443.941 242.296 443.941 243.928V247.528C443.941 249.16 445.153 250.072 446.545 250.072C447.937 250.072 449.137 249.16 449.137 247.528ZM447.577 247.516C447.577 248.236 447.157 248.668 446.545 248.668C445.933 248.668 445.501 248.236 445.501 247.516V243.952C445.501 243.232 445.933 242.788 446.545 242.788C447.157 242.788 447.577 243.232 447.577 243.952V247.516Z" fill="white"/>
<path d="M367.904 250V248.596H364.604L366.992 245.824C367.58 245.14 367.904 244.696 367.904 243.868C367.904 242.332 366.824 241.384 365.312 241.384C363.848 241.384 362.708 242.32 362.708 243.88H364.268C364.268 243.052 364.796 242.788 365.312 242.788C365.972 242.788 366.344 243.22 366.344 243.856C366.344 244.252 366.212 244.516 365.9 244.888L362.708 248.596V250H367.904ZM374.372 247.528V243.928C374.372 242.296 373.172 241.384 371.78 241.384C370.388 241.384 369.176 242.296 369.176 243.928V247.528C369.176 249.16 370.388 250.072 371.78 250.072C373.172 250.072 374.372 249.16 374.372 247.528ZM372.812 247.516C372.812 248.236 372.392 248.668 371.78 248.668C371.168 248.668 370.736 248.236 370.736 247.516V243.952C370.736 243.232 371.168 242.788 371.78 242.788C372.392 242.788 372.812 243.232 372.812 243.952V247.516ZM380.935 250V248.596H377.635L380.023 245.824C380.611 245.14 380.935 244.696 380.935 243.868C380.935 242.332 379.855 241.384 378.343 241.384C376.879 241.384 375.739 242.32 375.739 243.88H377.299C377.299 243.052 377.827 242.788 378.343 242.788C379.003 242.788 379.375 243.22 379.375 243.856C379.375 244.252 379.243 244.516 378.931 244.888L375.739 248.596V250H380.935ZM387.451 250V248.596H384.151L386.539 245.824C387.127 245.14 387.451 244.696 387.451 243.868C387.451 242.332 386.371 241.384 384.859 241.384C383.395 241.384 382.255 242.32 382.255 243.88H383.815C383.815 243.052 384.343 242.788 384.859 242.788C385.519 242.788 385.891 243.22 385.891 243.856C385.891 244.252 385.759 244.516 385.447 244.888L382.255 248.596V250H387.451ZM390.667 250V248.224H388.879V250H390.667ZM397.424 247.528C397.424 246.496 396.932 245.908 396.32 245.584C396.884 245.284 397.304 244.756 397.304 243.832C397.304 242.392 396.212 241.384 394.7 241.384C393.26 241.384 392.12 242.296 392.084 243.82H393.644C393.68 243.172 394.112 242.788 394.7 242.788C395.264 242.788 395.744 243.16 395.744 243.88C395.744 244.48 395.42 244.948 394.664 244.948H394.436V246.304H394.664C395.432 246.304 395.864 246.772 395.864 247.48C395.864 248.248 395.384 248.668 394.712 248.668C394.1 248.668 393.572 248.32 393.548 247.552H391.988C392.012 249.34 393.32 250.072 394.712 250.072C396.176 250.072 397.424 249.232 397.424 247.528ZM400.604 250V248.224H398.816V250H400.604ZM405.958 250V241.456H404.398L402.658 242.968V244.648L404.398 243.136V250H405.958ZM414.082 248.788V247.312H413.302V245.716H411.802V247.312H410.014L412.942 241.456H411.238L408.31 247.312V248.788H411.802V250H413.302V248.788H414.082ZM424.567 250V241.456H423.007L421.267 242.968V244.648L423.007 243.136V250H424.567ZM432.487 247.528C432.487 246.496 431.995 245.908 431.383 245.584C431.947 245.284 432.367 244.756 432.367 243.832C432.367 242.392 431.275 241.384 429.763 241.384C428.323 241.384 427.183 242.296 427.147 243.82H428.707C428.743 243.172 429.175 242.788 429.763 242.788C430.327 242.788 430.807 243.16 430.807 243.88C430.807 244.48 430.483 244.948 429.727 244.948H429.499V246.304H429.727C430.495 246.304 430.927 246.772 430.927 247.48C430.927 248.248 430.447 248.668 429.775 248.668C429.163 248.668 428.635 248.32 428.611 247.552H427.051C427.075 249.34 428.383 250.072 429.775 250.072C431.239 250.072 432.487 249.232 432.487 247.528ZM435.955 246.748V244.972H434.179V246.748H435.955ZM435.955 250V248.224H434.179V250H435.955ZM442.622 247.528V243.928C442.622 242.296 441.422 241.384 440.03 241.384C438.638 241.384 437.426 242.296 437.426 243.928V247.528C437.426 249.16 438.638 250.072 440.03 250.072C441.422 250.072 442.622 249.16 442.622 247.528ZM441.062 247.516C441.062 248.236 440.642 248.668 440.03 248.668C439.418 248.668 438.986 248.236 438.986 247.516V243.952C438.986 243.232 439.418 242.788 440.03 242.788C440.642 242.788 441.062 243.232 441.062 243.952V247.516ZM449.137 247.528V243.928C449.137 242.296 447.937 241.384 446.545 241.384C445.153 241.384 443.941 242.296 443.941 243.928V247.528C443.941 249.16 445.153 250.072 446.545 250.072C447.937 250.072 449.137 249.16 449.137 247.528ZM447.577 247.516C447.577 248.236 447.157 248.668 446.545 248.668C445.933 248.668 445.501 248.236 445.501 247.516V243.952C445.501 243.232 445.933 242.788 446.545 242.788C447.157 242.788 447.577 243.232 447.577 243.952V247.516Z" fill="#125EFF"/>
</g>
<rect x="361.51" y="107.51" width="87.9791" height="40.9791" rx="5.48955" fill="white"/>
<rect x="361.51" y="107.51" width="87.9791" height="40.9791" rx="5.48955" fill="white"/>
<rect x="361.51" y="107.51" width="87.9791" height="40.9791" rx="5.48955" stroke="#F2F6FF" stroke-width="1.02091"/>
<rect x="363.51" y="192.51" width="85.9791" height="24.9791" rx="5.48955" fill="white"/>
<rect x="363.51" y="192.51" width="85.9791" height="24.9791" rx="5.48955" fill="white"/>
<rect x="363.51" y="192.51" width="85.9791" height="24.9791" rx="5.48955" stroke="#F2F6FF" stroke-width="1.02091"/>
<g opacity="0.8">
<rect x="370.387" y="116.387" width="70.2261" height="7.22607" rx="3.61303" fill="white"/>
<rect x="370.387" y="116.387" width="70.2261" height="7.22607" rx="3.61303" fill="#F0F5FF"/>
<rect x="370.387" y="116.387" width="70.2261" height="7.22607" rx="3.61303" stroke="#F2F6FF" stroke-width="0.773933"/>
</g>
<g opacity="0.8">
<rect x="372.387" y="201.387" width="68.2261" height="7.22607" rx="3.61303" fill="white"/>
<rect x="372.387" y="201.387" width="68.2261" height="7.22607" rx="3.61303" fill="#F0F5FF"/>
<rect x="372.387" y="201.387" width="68.2261" height="7.22607" rx="3.61303" stroke="#F2F6FF" stroke-width="0.773933"/>
</g>
<g opacity="0.8">
<rect x="370.387" y="132.387" width="26.2261" height="7.22607" rx="3.61303" fill="white"/>
<rect x="370.387" y="132.387" width="26.2261" height="7.22607" rx="3.61303" fill="#F0F5FF"/>
<rect x="370.387" y="132.387" width="26.2261" height="7.22607" rx="3.61303" stroke="#F2F6FF" stroke-width="0.773933"/>
</g>
<rect x="363.51" y="261.51" width="85.9791" height="47.9791" rx="5.48955" fill="white"/>
<rect x="363.51" y="261.51" width="85.9791" height="47.9791" rx="5.48955" fill="white"/>
<rect x="363.51" y="261.51" width="85.9791" height="47.9791" rx="5.48955" stroke="#F2F6FF" stroke-width="1.02091"/>
<path d="M393.397 273.835C393.397 273.835 393.396 273.836 393.396 273.836C393.397 275.954 395.062 277.67 397.116 277.67C399.17 277.67 400.833 275.954 400.833 273.835C400.833 271.716 399.171 270 397.118 270C395.064 270 393.399 271.716 393.398 273.834C393.398 273.835 393.398 273.835 393.397 273.835Z" fill="white"/>
<path d="M393.397 273.835C393.397 273.835 393.396 273.836 393.396 273.836C393.397 275.954 395.062 277.67 397.116 277.67C399.17 277.67 400.833 275.954 400.833 273.835C400.833 271.716 399.171 270 397.118 270C395.064 270 393.399 271.716 393.398 273.834C393.398 273.835 393.398 273.835 393.397 273.835Z" fill="#F3F7FF"/>
<path d="M397.944 287.06C397.945 287.06 397.945 287.06 397.945 287.06C397.336 286.193 396.353 286.193 395.746 287.06L387.295 299.115C386.687 299.981 387.05 300.683 388.103 300.683H426.813C427.868 300.683 428.221 299.983 427.609 299.118L414.222 280.241C413.605 279.371 412.614 279.375 412.001 280.241L403.795 291.811C403.177 292.683 401.882 292.679 401.269 291.804L397.944 287.061C397.944 287.061 397.944 287.06 397.944 287.06Z" fill="white"/>
<path d="M397.944 287.06C397.945 287.06 397.945 287.06 397.945 287.06C397.336 286.193 396.353 286.193 395.746 287.06L387.295 299.115C386.687 299.981 387.05 300.683 388.103 300.683H426.813C427.868 300.683 428.221 299.983 427.609 299.118L414.222 280.241C413.605 279.371 412.614 279.375 412.001 280.241L403.795 291.811C403.177 292.683 401.882 292.679 401.269 291.804L397.944 287.061C397.944 287.061 397.944 287.06 397.944 287.06Z" fill="#F3F7FF"/>
<rect x="14" y="214" width="12" height="12" rx="6" fill="white"/>
<rect x="14" y="214" width="12" height="12" rx="6" fill="url(#paint4_linear_1616_7593)" fill-opacity="0.2"/>
<circle cx="363" cy="396" r="6" fill="url(#paint5_linear_1616_7593)" fill-opacity="0.2"/>
<defs>
<filter id="filter0_d_1616_7593" x="0" y="20" width="508" height="398.113" filterUnits="userSpaceOnUse" color-interpolation-filters="sRGB">
<feFlood flood-opacity="0" result="BackgroundImageFix"/>
<feColorMatrix in="SourceAlpha" type="matrix" values="0 0 0 0 0 0 0 0 0 0 0 0 0 0 0 0 0 0 127 0" result="hardAlpha"/>
<feOffset dy="10"/>
<feGaussianBlur stdDeviation="15"/>
<feColorMatrix type="matrix" values="0 0 0 0 0.0196078 0 0 0 0 0.333333 0 0 0 0 1 0 0 0 0.1 0"/>
<feBlend mode="normal" in2="BackgroundImageFix" result="effect1_dropShadow_1616_7593"/>
<feBlend mode="normal" in="SourceGraphic" in2="effect1_dropShadow_1616_7593" result="shape"/>
</filter>
<radialGradient id="paint0_radial_1616_7593" cx="0" cy="0" r="1" gradientUnits="userSpaceOnUse" gradientTransform="translate(129.765 207.034) rotate(45.3634) scale(14.756 16.3497)">
<stop stop-color="#FD8011"/>
<stop offset="1" stop-color="#FD7F11" stop-opacity="0.2"/>
</radialGradient>
<linearGradient id="paint1_linear_1616_7593" x1="269" y1="199" x2="295.528" y2="225.528" gradientUnits="userSpaceOnUse">
<stop stop-color="#0555FF"/>
<stop offset="1" stop-color="#0555FF" stop-opacity="0.21"/>
</linearGradient>
<linearGradient id="paint2_linear_1616_7593" x1="397" y1="57" x2="397" y2="361" gradientUnits="userSpaceOnUse">
<stop stop-color="#0555FF"/>
<stop offset="1" stop-color="#0555FF" stop-opacity="0.6"/>
</linearGradient>
<linearGradient id="paint3_linear_1616_7593" x1="53" y1="96" x2="79" y2="122" gradientUnits="userSpaceOnUse">
<stop stop-color="#0555FF"/>
<stop offset="1" stop-color="#0555FF" stop-opacity="0.21"/>
</linearGradient>
<linearGradient id="paint4_linear_1616_7593" x1="20" y1="214" x2="20" y2="226" gradientUnits="userSpaceOnUse">
<stop stop-color="#0555FF"/>
<stop offset="1" stop-color="#0555FF" stop-opacity="0.21"/>
</linearGradient>
<linearGradient id="paint5_linear_1616_7593" x1="363" y1="390" x2="363" y2="402" gradientUnits="userSpaceOnUse">
<stop stop-color="#0555FF"/>
<stop offset="1" stop-color="#0555FF" stop-opacity="0.21"/>
</linearGradient>
</defs>
</svg>
