<svg width="508" height="440" viewBox="0 0 508 440" fill="none" xmlns="http://www.w3.org/2000/svg">
<rect width="496" height="440" transform="translate(6)" fill="white"/>
<rect x="13" y="215" width="10" height="10" rx="5" fill="white"/>
<rect x="13" y="215" width="10" height="10" rx="5" fill="url(#paint0_linear_1616_7877)" fill-opacity="0.2"/>
<g filter="url(#filter0_d_1616_7877)">
<rect x="30" y="40" width="448" height="338.113" rx="16" fill="white"/>
<rect x="30.5" y="40.5" width="447" height="337.113" rx="15.5" stroke="#F2F6FF"/>
</g>
<line opacity="0.3" x1="57.4351" y1="136.565" x2="450.565" y2="136.565" stroke="#869BB9" stroke-width="0.870144" stroke-linecap="round" stroke-dasharray="1.74 2.61"/>
<rect x="93" y="99" width="48" height="9" rx="4.5" fill="#F0F5FF"/>
<rect x="57" y="243" width="227" height="9" rx="4.5" fill="#F0F5FF"/>
<rect x="57" y="160" width="160" height="9" rx="4.5" fill="#F0F5FF"/>
<rect x="167" y="160" width="50" height="9" rx="4.5" fill="white"/>
<rect x="167" y="160" width="50" height="9" rx="4.5" fill="url(#paint1_radial_1616_7877)" fill-opacity="0.5"/>
<rect opacity="0.6" x="93" y="243" width="191" height="9" rx="4.5" fill="url(#paint2_linear_1616_7877)"/>
<rect x="217" y="197" width="199" height="9" rx="4.5" fill="#F0F5FF"/>
<path fill-rule="evenodd" clip-rule="evenodd" d="M228.59 157H228.59C228.169 157 227.959 157.221 227.959 157.663V159.718C225.727 160.062 223.97 161.946 223.689 164.313H221.655C221.57 164.31 221.486 164.324 221.406 164.356C221.327 164.388 221.255 164.437 221.193 164.499C221.132 164.561 221.084 164.635 221.05 164.718C221.017 164.8 221 164.888 221 164.978C221 165.067 221.017 165.155 221.05 165.238C221.084 165.32 221.132 165.394 221.193 165.456C221.255 165.518 221.327 165.567 221.406 165.599C221.486 165.631 221.57 165.646 221.655 165.642H223.688C223.967 168.012 225.726 169.898 227.959 170.241V172.337C227.959 172.779 228.169 173 228.59 173H228.59C229.011 173 229.221 172.779 229.221 172.337V170.269C231.554 170.015 233.414 168.086 233.702 165.642H236.367C236.535 165.642 236.696 165.572 236.815 165.448C236.933 165.323 237 165.154 237 164.977C237 164.801 236.933 164.632 236.814 164.507C236.696 164.383 236.535 164.313 236.367 164.313H233.702C233.412 161.872 231.552 159.944 229.221 159.69V157.663C229.221 157.221 229.011 157 228.59 157ZM232.429 164.328C232.162 162.612 230.859 161.266 229.221 161.026V161.656C229.221 162.097 229.011 162.318 228.59 162.318H228.59C228.169 162.318 227.959 162.097 227.959 161.656V161.065C227.228 161.219 226.551 161.597 226.017 162.16C225.458 162.749 225.093 163.503 224.963 164.313H225.436C225.603 164.313 225.764 164.383 225.883 164.507C226.001 164.632 226.068 164.801 226.068 164.977H226.067C226.067 165.154 226.001 165.323 225.882 165.448C225.764 165.572 225.603 165.642 225.435 165.642H224.963C225.222 167.279 226.424 168.577 227.959 168.896V168.344C227.959 167.903 228.169 167.682 228.59 167.682H228.59C229.011 167.682 229.221 167.903 229.221 168.344V168.932C230.031 168.811 230.789 168.416 231.373 167.8C231.937 167.206 232.303 166.445 232.43 165.628C232.399 165.62 232.368 165.611 232.338 165.599C232.259 165.567 232.186 165.518 232.125 165.456C232.064 165.394 232.015 165.32 231.982 165.238C231.949 165.155 231.932 165.067 231.932 164.978C231.932 164.888 231.949 164.8 231.982 164.718C232.015 164.635 232.064 164.561 232.125 164.499C232.186 164.437 232.259 164.388 232.338 164.356C232.368 164.344 232.398 164.335 232.429 164.328Z" fill="white"/>
<path fill-rule="evenodd" clip-rule="evenodd" d="M228.59 157H228.59C228.169 157 227.959 157.221 227.959 157.663V159.718C225.727 160.062 223.97 161.946 223.689 164.313H221.655C221.57 164.31 221.486 164.324 221.406 164.356C221.327 164.388 221.255 164.437 221.193 164.499C221.132 164.561 221.084 164.635 221.05 164.718C221.017 164.8 221 164.888 221 164.978C221 165.067 221.017 165.155 221.05 165.238C221.084 165.32 221.132 165.394 221.193 165.456C221.255 165.518 221.327 165.567 221.406 165.599C221.486 165.631 221.57 165.646 221.655 165.642H223.688C223.967 168.012 225.726 169.898 227.959 170.241V172.337C227.959 172.779 228.169 173 228.59 173H228.59C229.011 173 229.221 172.779 229.221 172.337V170.269C231.554 170.015 233.414 168.086 233.702 165.642H236.367C236.535 165.642 236.696 165.572 236.815 165.448C236.933 165.323 237 165.154 237 164.977C237 164.801 236.933 164.632 236.814 164.507C236.696 164.383 236.535 164.313 236.367 164.313H233.702C233.412 161.872 231.552 159.944 229.221 159.69V157.663C229.221 157.221 229.011 157 228.59 157ZM232.429 164.328C232.162 162.612 230.859 161.266 229.221 161.026V161.656C229.221 162.097 229.011 162.318 228.59 162.318H228.59C228.169 162.318 227.959 162.097 227.959 161.656V161.065C227.228 161.219 226.551 161.597 226.017 162.16C225.458 162.749 225.093 163.503 224.963 164.313H225.436C225.603 164.313 225.764 164.383 225.883 164.507C226.001 164.632 226.068 164.801 226.068 164.977H226.067C226.067 165.154 226.001 165.323 225.882 165.448C225.764 165.572 225.603 165.642 225.435 165.642H224.963C225.222 167.279 226.424 168.577 227.959 168.896V168.344C227.959 167.903 228.169 167.682 228.59 167.682H228.59C229.011 167.682 229.221 167.903 229.221 168.344V168.932C230.031 168.811 230.789 168.416 231.373 167.8C231.937 167.206 232.303 166.445 232.43 165.628C232.399 165.62 232.368 165.611 232.338 165.599C232.259 165.567 232.186 165.518 232.125 165.456C232.064 165.394 232.015 165.32 231.982 165.238C231.949 165.155 231.932 165.067 231.932 164.978C231.932 164.888 231.949 164.8 231.982 164.718C232.015 164.635 232.064 164.561 232.125 164.499C232.186 164.437 232.259 164.388 232.338 164.356C232.368 164.344 232.398 164.335 232.429 164.328Z" fill="url(#paint3_radial_1616_7877)" fill-opacity="0.5"/>
<path opacity="0.6" fill-rule="evenodd" clip-rule="evenodd" d="M295.59 240H295.59C295.169 240 294.959 240.221 294.959 240.663V242.718C292.727 243.062 290.97 244.946 290.689 247.313H288.655C288.57 247.31 288.486 247.324 288.406 247.356C288.327 247.388 288.255 247.437 288.193 247.499C288.132 247.561 288.084 247.635 288.05 247.718C288.017 247.8 288 247.888 288 247.978C288 248.067 288.017 248.155 288.05 248.238C288.084 248.32 288.132 248.394 288.193 248.456C288.255 248.518 288.327 248.567 288.406 248.599C288.486 248.631 288.57 248.646 288.655 248.642H290.688C290.967 251.012 292.726 252.898 294.959 253.241V255.337C294.959 255.779 295.169 256 295.59 256H295.59C296.011 256 296.221 255.779 296.221 255.337V253.269C298.554 253.015 300.414 251.086 300.702 248.642H303.367C303.535 248.642 303.696 248.572 303.815 248.448C303.933 248.323 304 248.154 304 247.977C304 247.801 303.933 247.632 303.814 247.507C303.696 247.383 303.535 247.313 303.367 247.313H300.702C300.412 244.872 298.552 242.944 296.221 242.69V240.663C296.221 240.221 296.011 240 295.59 240ZM299.429 247.328C299.162 245.612 297.859 244.266 296.221 244.026V244.656C296.221 245.097 296.011 245.318 295.59 245.318H295.59C295.169 245.318 294.959 245.097 294.959 244.656V244.065C294.228 244.219 293.551 244.597 293.017 245.16C292.458 245.749 292.093 246.503 291.963 247.313H292.436C292.603 247.313 292.764 247.383 292.883 247.507C293.001 247.632 293.068 247.801 293.068 247.977H293.067C293.067 248.154 293.001 248.323 292.882 248.448C292.764 248.572 292.603 248.642 292.435 248.642H291.963C292.222 250.279 293.424 251.577 294.959 251.896V251.344C294.959 250.903 295.169 250.682 295.59 250.682H295.59C296.011 250.682 296.221 250.903 296.221 251.344V251.932C297.031 251.811 297.789 251.416 298.373 250.8C298.937 250.206 299.303 249.445 299.43 248.628C299.399 248.62 299.368 248.611 299.338 248.599C299.259 248.567 299.186 248.518 299.125 248.456C299.064 248.394 299.015 248.32 298.982 248.238C298.949 248.155 298.932 248.067 298.932 247.978C298.932 247.888 298.949 247.8 298.982 247.718C299.015 247.635 299.064 247.561 299.125 247.499C299.186 247.437 299.259 247.388 299.338 247.356C299.368 247.344 299.398 247.335 299.429 247.328Z" fill="url(#paint4_linear_1616_7877)"/>
<rect x="275" y="280" width="141" height="9" rx="4.5" fill="#F0F5FF"/>
<circle cx="437.264" cy="202.264" r="13.2642" fill="white"/>
<circle cx="437.264" cy="202.264" r="13.2642" fill="url(#paint5_linear_1616_7877)" fill-opacity="0.4"/>
<path fill-rule="evenodd" clip-rule="evenodd" d="M431.701 198.642C431.807 198.51 431.928 198.386 432.061 198.276L432.065 198.272L432.092 198.248H432.093L432.218 198.145C432.23 198.135 432.244 198.125 432.257 198.116L432.273 198.105H432.272L432.873 197.599L432.886 197.588L436.707 194.54C437.08 194.228 437.624 194.232 437.993 194.551L441.75 197.653L441.784 197.684L442.544 198.339H442.546L442.657 198.435C442.736 198.504 442.81 198.577 442.88 198.653C443.32 199.134 443.568 199.767 443.568 200.429V204.582C443.568 205.616 442.967 206.552 442.03 206.977L438.362 208.639L438.258 208.686C438.246 208.691 438.234 208.696 438.223 208.701C438.211 208.706 438.199 208.711 438.187 208.717C438.187 208.717 438.186 208.717 438.184 208.719C438.156 208.73 438.129 208.741 438.101 208.751L437.24 209.131L433.75 210.496C433.307 210.67 432.878 210.215 433.071 209.777L433.928 207.852L434.022 207.596L432.655 206.977C431.719 206.552 431.119 205.616 431.119 204.582V200.297C431.119 199.689 431.328 199.107 431.701 198.642ZM432.778 202.98C432.961 204.729 434.263 205.834 437.343 205.881C440.422 205.834 441.726 204.731 441.908 202.982C442.016 201.944 441.93 200.926 441.84 200.271C441.778 199.821 441.479 199.437 441.056 199.277C439.342 198.635 438.171 198.606 437.345 198.606C436.223 198.606 435.252 198.669 433.628 199.277C433.204 199.437 432.906 199.82 432.844 200.271C432.756 200.924 432.67 201.942 432.778 202.98ZM430.351 195.883H430.57C430.616 195.883 430.657 195.906 430.657 195.933V199.812H430.792C430.821 199.812 430.843 199.836 430.843 199.863V203.31C430.843 203.339 430.82 203.361 430.792 203.361H430.254C430.043 203.361 429.872 203.189 429.87 202.977V200.199C429.87 199.985 430.043 199.812 430.254 199.812H430.264V195.933C430.264 195.906 430.301 195.883 430.351 195.883ZM443.892 203.374H444.43C444.641 203.374 444.812 203.202 444.814 202.989V200.212C444.814 199.998 444.641 199.825 444.43 199.825H443.892C443.863 199.825 443.842 199.849 443.842 199.876V203.323C443.842 203.352 443.865 203.374 443.892 203.374ZM435.751 202.692H435.221C435.104 202.692 435.009 202.596 435.009 202.478V200.82C435.009 200.702 435.104 200.605 435.221 200.605H435.751C435.868 200.605 435.963 200.702 435.963 200.82V202.478C435.963 202.596 435.868 202.692 435.751 202.692ZM439.466 202.692H438.936C438.819 202.692 438.724 202.596 438.724 202.478V200.82C438.724 200.702 438.819 200.605 438.936 200.605H439.466C439.583 200.605 439.678 200.702 439.678 200.82V202.478C439.678 202.596 439.583 202.692 439.466 202.692ZM437.348 204.456C437.701 204.456 438.032 204.346 438.261 204.155C438.318 204.106 438.327 204.019 438.279 203.961C438.23 203.903 438.144 203.894 438.086 203.943C437.906 204.093 437.638 204.181 437.35 204.181C437.056 204.181 436.784 204.092 436.606 203.936C436.548 203.887 436.462 203.892 436.413 203.95C436.365 204.008 436.37 204.095 436.428 204.144C436.653 204.344 436.989 204.456 437.348 204.456Z" fill="white"/>
<circle cx="437.264" cy="285.264" r="13.2642" fill="white"/>
<circle cx="437.264" cy="285.264" r="13.2642" fill="url(#paint6_linear_1616_7877)" fill-opacity="0.4"/>
<path fill-rule="evenodd" clip-rule="evenodd" d="M431.701 281.642C431.807 281.51 431.928 281.386 432.061 281.276L432.065 281.272L432.092 281.248H432.093L432.218 281.145C432.23 281.135 432.244 281.125 432.257 281.116L432.273 281.105H432.272L432.873 280.599L432.886 280.588L436.707 277.54C437.08 277.228 437.624 277.232 437.993 277.551L441.75 280.653L441.784 280.684L442.544 281.339H442.546L442.657 281.435C442.736 281.504 442.81 281.577 442.88 281.653C443.32 282.134 443.568 282.767 443.568 283.429V287.582C443.568 288.616 442.967 289.552 442.03 289.977L438.362 291.639L438.258 291.686C438.246 291.691 438.234 291.696 438.223 291.701C438.211 291.706 438.199 291.711 438.187 291.717C438.187 291.717 438.186 291.717 438.184 291.719C438.156 291.73 438.129 291.741 438.101 291.751L437.24 292.131L433.75 293.496C433.307 293.67 432.878 293.215 433.071 292.777L433.928 290.852L434.022 290.596L432.655 289.977C431.719 289.552 431.119 288.616 431.119 287.582V283.297C431.119 282.689 431.328 282.107 431.701 281.642ZM432.778 285.98C432.961 287.729 434.263 288.834 437.343 288.881C440.422 288.834 441.726 287.731 441.908 285.982C442.016 284.944 441.93 283.926 441.84 283.271C441.778 282.821 441.479 282.437 441.056 282.277C439.342 281.635 438.171 281.606 437.345 281.606C436.223 281.606 435.252 281.669 433.628 282.277C433.204 282.437 432.906 282.82 432.844 283.271C432.756 283.924 432.67 284.942 432.778 285.98ZM430.351 278.883H430.57C430.616 278.883 430.657 278.906 430.657 278.933V282.812H430.792C430.821 282.812 430.843 282.836 430.843 282.863V286.31C430.843 286.339 430.82 286.361 430.792 286.361H430.254C430.043 286.361 429.872 286.189 429.87 285.977V283.199C429.87 282.985 430.043 282.812 430.254 282.812H430.264V278.933C430.264 278.906 430.301 278.883 430.351 278.883ZM443.892 286.374H444.43C444.641 286.374 444.812 286.202 444.814 285.989V283.212C444.814 282.998 444.641 282.825 444.43 282.825H443.892C443.863 282.825 443.842 282.849 443.842 282.876V286.323C443.842 286.352 443.865 286.374 443.892 286.374ZM435.751 285.692H435.221C435.104 285.692 435.009 285.596 435.009 285.478V283.82C435.009 283.702 435.104 283.605 435.221 283.605H435.751C435.868 283.605 435.963 283.702 435.963 283.82V285.478C435.963 285.596 435.868 285.692 435.751 285.692ZM439.466 285.692H438.936C438.819 285.692 438.724 285.596 438.724 285.478V283.82C438.724 283.702 438.819 283.605 438.936 283.605H439.466C439.583 283.605 439.678 283.702 439.678 283.82V285.478C439.678 285.596 439.583 285.692 439.466 285.692ZM437.348 287.456C437.701 287.456 438.032 287.346 438.261 287.155C438.318 287.106 438.327 287.019 438.279 286.961C438.23 286.903 438.144 286.894 438.086 286.943C437.906 287.093 437.638 287.181 437.35 287.181C437.056 287.181 436.784 287.092 436.606 286.936C436.548 286.887 436.462 286.892 436.413 286.95C436.365 287.008 436.37 287.095 436.428 287.144C436.653 287.344 436.989 287.456 437.348 287.456Z" fill="white"/>
<rect x="217" y="214" width="81" height="9" rx="4.5" fill="#F0F5FF"/>
<circle cx="55.812" cy="65.8125" r="5" fill="#1561FF"/>
<circle cx="69.812" cy="65.8125" r="5" fill="#FD8113"/>
<circle cx="83.812" cy="65.8125" r="5" fill="#0CE18F"/>
<circle cx="70" cy="104" r="13" fill="white"/>
<circle cx="70" cy="104" r="13" fill="url(#paint7_linear_1616_7877)" fill-opacity="0.3"/>
<circle cx="198" cy="402" r="5" fill="white"/>
<circle cx="198" cy="402" r="5" fill="url(#paint8_linear_1616_7877)" fill-opacity="0.2"/>
<rect x="410" y="14" width="14" height="14" rx="7" fill="white"/>
<rect x="410" y="14" width="14" height="14" rx="7" fill="url(#paint9_linear_1616_7877)" fill-opacity="0.2"/>
<defs>
<filter id="filter0_d_1616_7877" x="0" y="20" width="508" height="398.113" filterUnits="userSpaceOnUse" color-interpolation-filters="sRGB">
<feFlood flood-opacity="0" result="BackgroundImageFix"/>
<feColorMatrix in="SourceAlpha" type="matrix" values="0 0 0 0 0 0 0 0 0 0 0 0 0 0 0 0 0 0 127 0" result="hardAlpha"/>
<feOffset dy="10"/>
<feGaussianBlur stdDeviation="15"/>
<feColorMatrix type="matrix" values="0 0 0 0 0.0196078 0 0 0 0 0.333333 0 0 0 0 1 0 0 0 0.1 0"/>
<feBlend mode="normal" in2="BackgroundImageFix" result="effect1_dropShadow_1616_7877"/>
<feBlend mode="normal" in="SourceGraphic" in2="effect1_dropShadow_1616_7877" result="shape"/>
</filter>
<linearGradient id="paint0_linear_1616_7877" x1="18" y1="215" x2="18" y2="225" gradientUnits="userSpaceOnUse">
<stop stop-color="#0555FF"/>
<stop offset="1" stop-color="#0555FF" stop-opacity="0.21"/>
</linearGradient>
<radialGradient id="paint1_radial_1616_7877" cx="0" cy="0" r="1" gradientUnits="userSpaceOnUse" gradientTransform="translate(172.882 161.059) rotate(11.0518) scale(35.2119 14.6819)">
<stop stop-color="#FD8011"/>
<stop offset="1" stop-color="#FD7F11" stop-opacity="0.2"/>
</radialGradient>
<linearGradient id="paint2_linear_1616_7877" x1="98.4057" y1="243.225" x2="99.8718" y2="263.577" gradientUnits="userSpaceOnUse">
<stop stop-color="#07D988"/>
<stop offset="1" stop-color="#15F59F" stop-opacity="0.2"/>
</linearGradient>
<radialGradient id="paint3_radial_1616_7877" cx="0" cy="0" r="1" gradientUnits="userSpaceOnUse" gradientTransform="translate(222.882 158.882) rotate(47.3373) scale(16.3186 18.0225)">
<stop stop-color="#FD8011"/>
<stop offset="1" stop-color="#FD7F11" stop-opacity="0.2"/>
</radialGradient>
<linearGradient id="paint4_linear_1616_7877" x1="288.453" y1="240.4" x2="305.114" y2="251.298" gradientUnits="userSpaceOnUse">
<stop stop-color="#07D988"/>
<stop offset="1" stop-color="#15F59F" stop-opacity="0.2"/>
</linearGradient>
<linearGradient id="paint5_linear_1616_7877" x1="424" y1="189" x2="450.528" y2="215.528" gradientUnits="userSpaceOnUse">
<stop stop-color="#0555FF"/>
<stop offset="1" stop-color="#0555FF" stop-opacity="0.21"/>
</linearGradient>
<linearGradient id="paint6_linear_1616_7877" x1="424" y1="272" x2="450.528" y2="298.528" gradientUnits="userSpaceOnUse">
<stop stop-color="#0555FF"/>
<stop offset="1" stop-color="#0555FF" stop-opacity="0.21"/>
</linearGradient>
<linearGradient id="paint7_linear_1616_7877" x1="57" y1="91" x2="83" y2="117" gradientUnits="userSpaceOnUse">
<stop stop-color="#0555FF"/>
<stop offset="1" stop-color="#0555FF" stop-opacity="0.21"/>
</linearGradient>
<linearGradient id="paint8_linear_1616_7877" x1="198" y1="397" x2="198" y2="407" gradientUnits="userSpaceOnUse">
<stop stop-color="#0555FF"/>
<stop offset="1" stop-color="#0555FF" stop-opacity="0.21"/>
</linearGradient>
<linearGradient id="paint9_linear_1616_7877" x1="417" y1="14" x2="417" y2="28" gradientUnits="userSpaceOnUse">
<stop stop-color="#0555FF"/>
<stop offset="1" stop-color="#0555FF" stop-opacity="0.21"/>
</linearGradient>
</defs>
</svg>
