<svg width="508" height="440" viewBox="0 0 508 440" fill="none" xmlns="http://www.w3.org/2000/svg">
<rect width="496" height="440" transform="translate(6)" fill="white"/>
<rect x="382" y="31" width="14" height="14" rx="7" fill="white"/>
<rect x="382" y="31" width="14" height="14" rx="7" fill="url(#paint0_linear_1616_7925)" fill-opacity="0.2"/>
<g filter="url(#filter0_d_1616_7925)">
<rect x="30" y="40" width="448" height="338.113" rx="16" fill="white"/>
<rect x="30.5" y="40.5" width="447" height="337.113" rx="15.5" stroke="#F2F6FF"/>
</g>
<rect x="332.409" y="57.4089" width="129.182" height="303.182" rx="10.1572" fill="white"/>
<rect x="332.409" y="57.4089" width="129.182" height="303.182" rx="10.1572" fill="url(#paint1_linear_1616_7925)" fill-opacity="0.06"/>
<rect x="332.409" y="57.4089" width="129.182" height="303.182" rx="10.1572" stroke="#F2F6FF" stroke-width="0.817741"/>
<path d="M397 95C397 95.0062 397.005 95.0111 397.011 95.0111C408.006 95.0161 417 102.374 417 111.436C417 120.5 408 127.86 397 127.86C396.603 127.875 396.213 127.966 395.85 128.128C393.69 128.97 390.11 131.629 387.6 133.621C387.316 133.852 386.965 133.985 386.6 134C386.366 133.996 386.136 133.944 385.923 133.849C385.709 133.754 385.517 133.617 385.357 133.446C385.029 133.096 384.851 132.632 384.86 132.153C384.86 128.806 384.67 124.412 383.67 123.673C379.57 120.664 377 116.292 377 111.426C377 102.351 385.999 95.0016 396.999 95.0011C396.999 95.0011 397 95.0006 397 95ZM403.5 107.247H390.5C389.671 107.247 389 107.937 389 108.787C389 109.637 389.671 110.327 390.5 110.327H403.5C404.329 110.327 405 109.637 405 108.787C405 107.937 404.329 107.247 403.5 107.247ZM401.5 114.434C401.5 114.434 401.5 114.434 401.499 114.434H392.5C391.671 114.434 391 115.123 391 115.973C391 116.824 391.671 117.513 392.5 117.513H401.5C402.329 117.513 403 116.824 403 115.973C403 115.123 402.329 114.433 401.501 114.433C401.5 114.433 401.5 114.433 401.5 114.434Z" fill="white"/>
<path d="M397 95C397 95.0062 397.005 95.0111 397.011 95.0111C408.006 95.0161 417 102.374 417 111.436C417 120.5 408 127.86 397 127.86C396.603 127.875 396.213 127.966 395.85 128.128C393.69 128.97 390.11 131.629 387.6 133.621C387.316 133.852 386.965 133.985 386.6 134C386.366 133.996 386.136 133.944 385.923 133.849C385.709 133.754 385.517 133.617 385.357 133.446C385.029 133.096 384.851 132.632 384.86 132.153C384.86 128.806 384.67 124.412 383.67 123.673C379.57 120.664 377 116.292 377 111.426C377 102.351 385.999 95.0016 396.999 95.0011C396.999 95.0011 397 95.0006 397 95ZM403.5 107.247H390.5C389.671 107.247 389 107.937 389 108.787C389 109.637 389.671 110.327 390.5 110.327H403.5C404.329 110.327 405 109.637 405 108.787C405 107.937 404.329 107.247 403.5 107.247ZM401.5 114.434C401.5 114.434 401.5 114.434 401.499 114.434H392.5C391.671 114.434 391 115.123 391 115.973C391 116.824 391.671 117.513 392.5 117.513H401.5C402.329 117.513 403 116.824 403 115.973C403 115.123 402.329 114.433 401.501 114.433C401.5 114.433 401.5 114.433 401.5 114.434Z" fill="url(#paint2_linear_1616_7925)" fill-opacity="0.35"/>
<rect x="348" y="193" width="71" height="9" rx="4.5" fill="white"/>
<rect x="348" y="164" width="98" height="9" rx="4.5" fill="white"/>
<rect x="348" y="222" width="98" height="9" rx="4.5" fill="white"/>
<rect x="62.5105" y="324.51" width="38.9791" height="19.9791" rx="9.98955" fill="white"/>
<rect x="62.5105" y="324.51" width="38.9791" height="19.9791" rx="9.98955" fill="url(#paint3_linear_1616_7925)" fill-opacity="0.06"/>
<rect x="62.5105" y="324.51" width="38.9791" height="19.9791" rx="9.98955" stroke="#F2F6FF" stroke-width="1.02091"/>
<rect x="83" y="326" width="17" height="17" rx="8.5" fill="white"/>
<rect x="83" y="326" width="17" height="17" rx="8.5" fill="url(#paint4_linear_1616_7925)" fill-opacity="0.4"/>
<g opacity="0.25">
<path d="M93.904 105V103.596H90.604L92.992 100.824C93.58 100.14 93.904 99.696 93.904 98.868C93.904 97.332 92.824 96.384 91.312 96.384C89.848 96.384 88.708 97.32 88.708 98.88H90.268C90.268 98.052 90.796 97.788 91.312 97.788C91.972 97.788 92.344 98.22 92.344 98.856C92.344 99.252 92.212 99.516 91.9 99.888L88.708 103.596V105H93.904ZM100.372 102.528V98.928C100.372 97.296 99.1716 96.384 97.7796 96.384C96.3876 96.384 95.1756 97.296 95.1756 98.928V102.528C95.1756 104.16 96.3876 105.072 97.7796 105.072C99.1716 105.072 100.372 104.16 100.372 102.528ZM98.8116 102.516C98.8116 103.236 98.3916 103.668 97.7796 103.668C97.1676 103.668 96.7356 103.236 96.7356 102.516V98.952C96.7356 98.232 97.1676 97.788 97.7796 97.788C98.3916 97.788 98.8116 98.232 98.8116 98.952V102.516ZM106.935 105V103.596H103.635L106.023 100.824C106.611 100.14 106.935 99.696 106.935 98.868C106.935 97.332 105.855 96.384 104.343 96.384C102.879 96.384 101.739 97.32 101.739 98.88H103.299C103.299 98.052 103.827 97.788 104.343 97.788C105.003 97.788 105.375 98.22 105.375 98.856C105.375 99.252 105.243 99.516 104.931 99.888L101.739 103.596V105H106.935ZM113.451 105V103.596H110.151L112.539 100.824C113.127 100.14 113.451 99.696 113.451 98.868C113.451 97.332 112.371 96.384 110.859 96.384C109.395 96.384 108.255 97.32 108.255 98.88H109.815C109.815 98.052 110.343 97.788 110.859 97.788C111.519 97.788 111.891 98.22 111.891 98.856C111.891 99.252 111.759 99.516 111.447 99.888L108.255 103.596V105H113.451ZM116.667 105V103.224H114.879V105H116.667ZM123.424 102.528C123.424 101.496 122.932 100.908 122.32 100.584C122.884 100.284 123.304 99.756 123.304 98.832C123.304 97.392 122.212 96.384 120.7 96.384C119.26 96.384 118.12 97.296 118.084 98.82H119.644C119.68 98.172 120.112 97.788 120.7 97.788C121.264 97.788 121.744 98.16 121.744 98.88C121.744 99.48 121.42 99.948 120.664 99.948H120.436V101.304H120.664C121.432 101.304 121.864 101.772 121.864 102.48C121.864 103.248 121.384 103.668 120.712 103.668C120.1 103.668 119.572 103.32 119.548 102.552H117.988C118.012 104.34 119.32 105.072 120.712 105.072C122.176 105.072 123.424 104.232 123.424 102.528ZM126.604 105V103.224H124.816V105H126.604ZM131.958 105V96.456H130.398L128.658 97.968V99.648L130.398 98.136V105H131.958ZM139.878 102.528C139.878 101.496 139.386 100.908 138.774 100.584C139.338 100.284 139.758 99.756 139.758 98.832C139.758 97.392 138.666 96.384 137.154 96.384C135.714 96.384 134.574 97.296 134.538 98.82H136.098C136.134 98.172 136.566 97.788 137.154 97.788C137.718 97.788 138.198 98.16 138.198 98.88C138.198 99.48 137.874 99.948 137.118 99.948H136.89V101.304H137.118C137.886 101.304 138.318 101.772 138.318 102.48C138.318 103.248 137.838 103.668 137.166 103.668C136.554 103.668 136.026 103.32 136.002 102.552H134.442C134.466 104.34 135.774 105.072 137.166 105.072C138.63 105.072 139.878 104.232 139.878 102.528ZM150.567 105V96.456H149.007L147.267 97.968V99.648L149.007 98.136V105H150.567ZM158.487 99.024C158.487 97.332 157.335 96.384 155.823 96.384C154.311 96.384 153.159 97.368 153.159 99.048C153.159 100.632 154.263 101.58 155.415 101.58C155.619 101.58 155.847 101.556 156.051 101.472L154.275 105H155.967L157.779 101.304C158.163 100.524 158.487 99.804 158.487 99.024ZM156.927 99.036C156.927 99.828 156.459 100.284 155.823 100.284C155.163 100.284 154.719 99.792 154.719 99.036C154.719 98.244 155.187 97.788 155.823 97.788C156.459 97.788 156.927 98.244 156.927 99.036ZM161.955 101.748V99.972H160.179V101.748H161.955ZM161.955 105V103.224H160.179V105H161.955ZM168.622 102.528V98.928C168.622 97.296 167.422 96.384 166.03 96.384C164.638 96.384 163.426 97.296 163.426 98.928V102.528C163.426 104.16 164.638 105.072 166.03 105.072C167.422 105.072 168.622 104.16 168.622 102.528ZM167.062 102.516C167.062 103.236 166.642 103.668 166.03 103.668C165.418 103.668 164.986 103.236 164.986 102.516V98.952C164.986 98.232 165.418 97.788 166.03 97.788C166.642 97.788 167.062 98.232 167.062 98.952V102.516ZM175.137 102.528V98.928C175.137 97.296 173.937 96.384 172.545 96.384C171.153 96.384 169.941 97.296 169.941 98.928V102.528C169.941 104.16 171.153 105.072 172.545 105.072C173.937 105.072 175.137 104.16 175.137 102.528ZM173.577 102.516C173.577 103.236 173.157 103.668 172.545 103.668C171.933 103.668 171.501 103.236 171.501 102.516V98.952C171.501 98.232 171.933 97.788 172.545 97.788C173.157 97.788 173.577 98.232 173.577 98.952V102.516Z" fill="white"/>
<path d="M93.904 105V103.596H90.604L92.992 100.824C93.58 100.14 93.904 99.696 93.904 98.868C93.904 97.332 92.824 96.384 91.312 96.384C89.848 96.384 88.708 97.32 88.708 98.88H90.268C90.268 98.052 90.796 97.788 91.312 97.788C91.972 97.788 92.344 98.22 92.344 98.856C92.344 99.252 92.212 99.516 91.9 99.888L88.708 103.596V105H93.904ZM100.372 102.528V98.928C100.372 97.296 99.1716 96.384 97.7796 96.384C96.3876 96.384 95.1756 97.296 95.1756 98.928V102.528C95.1756 104.16 96.3876 105.072 97.7796 105.072C99.1716 105.072 100.372 104.16 100.372 102.528ZM98.8116 102.516C98.8116 103.236 98.3916 103.668 97.7796 103.668C97.1676 103.668 96.7356 103.236 96.7356 102.516V98.952C96.7356 98.232 97.1676 97.788 97.7796 97.788C98.3916 97.788 98.8116 98.232 98.8116 98.952V102.516ZM106.935 105V103.596H103.635L106.023 100.824C106.611 100.14 106.935 99.696 106.935 98.868C106.935 97.332 105.855 96.384 104.343 96.384C102.879 96.384 101.739 97.32 101.739 98.88H103.299C103.299 98.052 103.827 97.788 104.343 97.788C105.003 97.788 105.375 98.22 105.375 98.856C105.375 99.252 105.243 99.516 104.931 99.888L101.739 103.596V105H106.935ZM113.451 105V103.596H110.151L112.539 100.824C113.127 100.14 113.451 99.696 113.451 98.868C113.451 97.332 112.371 96.384 110.859 96.384C109.395 96.384 108.255 97.32 108.255 98.88H109.815C109.815 98.052 110.343 97.788 110.859 97.788C111.519 97.788 111.891 98.22 111.891 98.856C111.891 99.252 111.759 99.516 111.447 99.888L108.255 103.596V105H113.451ZM116.667 105V103.224H114.879V105H116.667ZM123.424 102.528C123.424 101.496 122.932 100.908 122.32 100.584C122.884 100.284 123.304 99.756 123.304 98.832C123.304 97.392 122.212 96.384 120.7 96.384C119.26 96.384 118.12 97.296 118.084 98.82H119.644C119.68 98.172 120.112 97.788 120.7 97.788C121.264 97.788 121.744 98.16 121.744 98.88C121.744 99.48 121.42 99.948 120.664 99.948H120.436V101.304H120.664C121.432 101.304 121.864 101.772 121.864 102.48C121.864 103.248 121.384 103.668 120.712 103.668C120.1 103.668 119.572 103.32 119.548 102.552H117.988C118.012 104.34 119.32 105.072 120.712 105.072C122.176 105.072 123.424 104.232 123.424 102.528ZM126.604 105V103.224H124.816V105H126.604ZM131.958 105V96.456H130.398L128.658 97.968V99.648L130.398 98.136V105H131.958ZM139.878 102.528C139.878 101.496 139.386 100.908 138.774 100.584C139.338 100.284 139.758 99.756 139.758 98.832C139.758 97.392 138.666 96.384 137.154 96.384C135.714 96.384 134.574 97.296 134.538 98.82H136.098C136.134 98.172 136.566 97.788 137.154 97.788C137.718 97.788 138.198 98.16 138.198 98.88C138.198 99.48 137.874 99.948 137.118 99.948H136.89V101.304H137.118C137.886 101.304 138.318 101.772 138.318 102.48C138.318 103.248 137.838 103.668 137.166 103.668C136.554 103.668 136.026 103.32 136.002 102.552H134.442C134.466 104.34 135.774 105.072 137.166 105.072C138.63 105.072 139.878 104.232 139.878 102.528ZM150.567 105V96.456H149.007L147.267 97.968V99.648L149.007 98.136V105H150.567ZM158.487 99.024C158.487 97.332 157.335 96.384 155.823 96.384C154.311 96.384 153.159 97.368 153.159 99.048C153.159 100.632 154.263 101.58 155.415 101.58C155.619 101.58 155.847 101.556 156.051 101.472L154.275 105H155.967L157.779 101.304C158.163 100.524 158.487 99.804 158.487 99.024ZM156.927 99.036C156.927 99.828 156.459 100.284 155.823 100.284C155.163 100.284 154.719 99.792 154.719 99.036C154.719 98.244 155.187 97.788 155.823 97.788C156.459 97.788 156.927 98.244 156.927 99.036ZM161.955 101.748V99.972H160.179V101.748H161.955ZM161.955 105V103.224H160.179V105H161.955ZM168.622 102.528V98.928C168.622 97.296 167.422 96.384 166.03 96.384C164.638 96.384 163.426 97.296 163.426 98.928V102.528C163.426 104.16 164.638 105.072 166.03 105.072C167.422 105.072 168.622 104.16 168.622 102.528ZM167.062 102.516C167.062 103.236 166.642 103.668 166.03 103.668C165.418 103.668 164.986 103.236 164.986 102.516V98.952C164.986 98.232 165.418 97.788 166.03 97.788C166.642 97.788 167.062 98.232 167.062 98.952V102.516ZM175.137 102.528V98.928C175.137 97.296 173.937 96.384 172.545 96.384C171.153 96.384 169.941 97.296 169.941 98.928V102.528C169.941 104.16 171.153 105.072 172.545 105.072C173.937 105.072 175.137 104.16 175.137 102.528ZM173.577 102.516C173.577 103.236 173.157 103.668 172.545 103.668C171.933 103.668 171.501 103.236 171.501 102.516V98.952C171.501 98.232 171.933 97.788 172.545 97.788C173.157 97.788 173.577 98.232 173.577 98.952V102.516Z" fill="#125EFF"/>
</g>
<g opacity="0.25">
<path d="M93.904 178V176.596H90.604L92.992 173.824C93.58 173.14 93.904 172.696 93.904 171.868C93.904 170.332 92.824 169.384 91.312 169.384C89.848 169.384 88.708 170.32 88.708 171.88H90.268C90.268 171.052 90.796 170.788 91.312 170.788C91.972 170.788 92.344 171.22 92.344 171.856C92.344 172.252 92.212 172.516 91.9 172.888L88.708 176.596V178H93.904ZM100.372 175.528V171.928C100.372 170.296 99.1716 169.384 97.7796 169.384C96.3876 169.384 95.1756 170.296 95.1756 171.928V175.528C95.1756 177.16 96.3876 178.072 97.7796 178.072C99.1716 178.072 100.372 177.16 100.372 175.528ZM98.8116 175.516C98.8116 176.236 98.3916 176.668 97.7796 176.668C97.1676 176.668 96.7356 176.236 96.7356 175.516V171.952C96.7356 171.232 97.1676 170.788 97.7796 170.788C98.3916 170.788 98.8116 171.232 98.8116 171.952V175.516ZM106.935 178V176.596H103.635L106.023 173.824C106.611 173.14 106.935 172.696 106.935 171.868C106.935 170.332 105.855 169.384 104.343 169.384C102.879 169.384 101.739 170.32 101.739 171.88H103.299C103.299 171.052 103.827 170.788 104.343 170.788C105.003 170.788 105.375 171.22 105.375 171.856C105.375 172.252 105.243 172.516 104.931 172.888L101.739 176.596V178H106.935ZM113.451 178V176.596H110.151L112.539 173.824C113.127 173.14 113.451 172.696 113.451 171.868C113.451 170.332 112.371 169.384 110.859 169.384C109.395 169.384 108.255 170.32 108.255 171.88H109.815C109.815 171.052 110.343 170.788 110.859 170.788C111.519 170.788 111.891 171.22 111.891 171.856C111.891 172.252 111.759 172.516 111.447 172.888L108.255 176.596V178H113.451ZM116.667 178V176.224H114.879V178H116.667ZM123.424 175.528C123.424 174.496 122.932 173.908 122.32 173.584C122.884 173.284 123.304 172.756 123.304 171.832C123.304 170.392 122.212 169.384 120.7 169.384C119.26 169.384 118.12 170.296 118.084 171.82H119.644C119.68 171.172 120.112 170.788 120.7 170.788C121.264 170.788 121.744 171.16 121.744 171.88C121.744 172.48 121.42 172.948 120.664 172.948H120.436V174.304H120.664C121.432 174.304 121.864 174.772 121.864 175.48C121.864 176.248 121.384 176.668 120.712 176.668C120.1 176.668 119.572 176.32 119.548 175.552H117.988C118.012 177.34 119.32 178.072 120.712 178.072C122.176 178.072 123.424 177.232 123.424 175.528ZM126.604 178V176.224H124.816V178H126.604ZM131.958 178V169.456H130.398L128.658 170.968V172.648L130.398 171.136V178H131.958ZM140.082 176.788V175.312H139.302V173.716H137.802V175.312H136.014L138.942 169.456H137.238L134.31 175.312V176.788H137.802V178H139.302V176.788H140.082ZM150.567 178V169.456H149.007L147.267 170.968V172.648L149.007 171.136V178H150.567ZM158.403 175.528V171.928C158.403 170.296 157.203 169.384 155.811 169.384C154.419 169.384 153.207 170.296 153.207 171.928V175.528C153.207 177.16 154.419 178.072 155.811 178.072C157.203 178.072 158.403 177.16 158.403 175.528ZM156.843 175.516C156.843 176.236 156.423 176.668 155.811 176.668C155.199 176.668 154.767 176.236 154.767 175.516V171.952C154.767 171.232 155.199 170.788 155.811 170.788C156.423 170.788 156.843 171.232 156.843 171.952V175.516ZM161.955 174.748V172.972H160.179V174.748H161.955ZM161.955 178V176.224H160.179V178H161.955ZM168.67 178V176.596H165.37L167.758 173.824C168.346 173.14 168.67 172.696 168.67 171.868C168.67 170.332 167.59 169.384 166.078 169.384C164.614 169.384 163.474 170.32 163.474 171.88H165.034C165.034 171.052 165.562 170.788 166.078 170.788C166.738 170.788 167.11 171.22 167.11 171.856C167.11 172.252 166.978 172.516 166.666 172.888L163.474 176.596V178H168.67ZM175.137 175.528V171.928C175.137 170.296 173.937 169.384 172.545 169.384C171.153 169.384 169.941 170.296 169.941 171.928V175.528C169.941 177.16 171.153 178.072 172.545 178.072C173.937 178.072 175.137 177.16 175.137 175.528ZM173.577 175.516C173.577 176.236 173.157 176.668 172.545 176.668C171.933 176.668 171.501 176.236 171.501 175.516V171.952C171.501 171.232 171.933 170.788 172.545 170.788C173.157 170.788 173.577 171.232 173.577 171.952V175.516Z" fill="white"/>
<path d="M93.904 178V176.596H90.604L92.992 173.824C93.58 173.14 93.904 172.696 93.904 171.868C93.904 170.332 92.824 169.384 91.312 169.384C89.848 169.384 88.708 170.32 88.708 171.88H90.268C90.268 171.052 90.796 170.788 91.312 170.788C91.972 170.788 92.344 171.22 92.344 171.856C92.344 172.252 92.212 172.516 91.9 172.888L88.708 176.596V178H93.904ZM100.372 175.528V171.928C100.372 170.296 99.1716 169.384 97.7796 169.384C96.3876 169.384 95.1756 170.296 95.1756 171.928V175.528C95.1756 177.16 96.3876 178.072 97.7796 178.072C99.1716 178.072 100.372 177.16 100.372 175.528ZM98.8116 175.516C98.8116 176.236 98.3916 176.668 97.7796 176.668C97.1676 176.668 96.7356 176.236 96.7356 175.516V171.952C96.7356 171.232 97.1676 170.788 97.7796 170.788C98.3916 170.788 98.8116 171.232 98.8116 171.952V175.516ZM106.935 178V176.596H103.635L106.023 173.824C106.611 173.14 106.935 172.696 106.935 171.868C106.935 170.332 105.855 169.384 104.343 169.384C102.879 169.384 101.739 170.32 101.739 171.88H103.299C103.299 171.052 103.827 170.788 104.343 170.788C105.003 170.788 105.375 171.22 105.375 171.856C105.375 172.252 105.243 172.516 104.931 172.888L101.739 176.596V178H106.935ZM113.451 178V176.596H110.151L112.539 173.824C113.127 173.14 113.451 172.696 113.451 171.868C113.451 170.332 112.371 169.384 110.859 169.384C109.395 169.384 108.255 170.32 108.255 171.88H109.815C109.815 171.052 110.343 170.788 110.859 170.788C111.519 170.788 111.891 171.22 111.891 171.856C111.891 172.252 111.759 172.516 111.447 172.888L108.255 176.596V178H113.451ZM116.667 178V176.224H114.879V178H116.667ZM123.424 175.528C123.424 174.496 122.932 173.908 122.32 173.584C122.884 173.284 123.304 172.756 123.304 171.832C123.304 170.392 122.212 169.384 120.7 169.384C119.26 169.384 118.12 170.296 118.084 171.82H119.644C119.68 171.172 120.112 170.788 120.7 170.788C121.264 170.788 121.744 171.16 121.744 171.88C121.744 172.48 121.42 172.948 120.664 172.948H120.436V174.304H120.664C121.432 174.304 121.864 174.772 121.864 175.48C121.864 176.248 121.384 176.668 120.712 176.668C120.1 176.668 119.572 176.32 119.548 175.552H117.988C118.012 177.34 119.32 178.072 120.712 178.072C122.176 178.072 123.424 177.232 123.424 175.528ZM126.604 178V176.224H124.816V178H126.604ZM131.958 178V169.456H130.398L128.658 170.968V172.648L130.398 171.136V178H131.958ZM140.082 176.788V175.312H139.302V173.716H137.802V175.312H136.014L138.942 169.456H137.238L134.31 175.312V176.788H137.802V178H139.302V176.788H140.082ZM150.567 178V169.456H149.007L147.267 170.968V172.648L149.007 171.136V178H150.567ZM158.403 175.528V171.928C158.403 170.296 157.203 169.384 155.811 169.384C154.419 169.384 153.207 170.296 153.207 171.928V175.528C153.207 177.16 154.419 178.072 155.811 178.072C157.203 178.072 158.403 177.16 158.403 175.528ZM156.843 175.516C156.843 176.236 156.423 176.668 155.811 176.668C155.199 176.668 154.767 176.236 154.767 175.516V171.952C154.767 171.232 155.199 170.788 155.811 170.788C156.423 170.788 156.843 171.232 156.843 171.952V175.516ZM161.955 174.748V172.972H160.179V174.748H161.955ZM161.955 178V176.224H160.179V178H161.955ZM168.67 178V176.596H165.37L167.758 173.824C168.346 173.14 168.67 172.696 168.67 171.868C168.67 170.332 167.59 169.384 166.078 169.384C164.614 169.384 163.474 170.32 163.474 171.88H165.034C165.034 171.052 165.562 170.788 166.078 170.788C166.738 170.788 167.11 171.22 167.11 171.856C167.11 172.252 166.978 172.516 166.666 172.888L163.474 176.596V178H168.67ZM175.137 175.528V171.928C175.137 170.296 173.937 169.384 172.545 169.384C171.153 169.384 169.941 170.296 169.941 171.928V175.528C169.941 177.16 171.153 178.072 172.545 178.072C173.937 178.072 175.137 177.16 175.137 175.528ZM173.577 175.516C173.577 176.236 173.157 176.668 172.545 176.668C171.933 176.668 171.501 176.236 171.501 175.516V171.952C171.501 171.232 171.933 170.788 172.545 170.788C173.157 170.788 173.577 171.232 173.577 171.952V175.516Z" fill="#125EFF"/>
</g>
<g opacity="0.25">
<path d="M93.904 240V238.596H90.604L92.992 235.824C93.58 235.14 93.904 234.696 93.904 233.868C93.904 232.332 92.824 231.384 91.312 231.384C89.848 231.384 88.708 232.32 88.708 233.88H90.268C90.268 233.052 90.796 232.788 91.312 232.788C91.972 232.788 92.344 233.22 92.344 233.856C92.344 234.252 92.212 234.516 91.9 234.888L88.708 238.596V240H93.904ZM100.372 237.528V233.928C100.372 232.296 99.1716 231.384 97.7796 231.384C96.3876 231.384 95.1756 232.296 95.1756 233.928V237.528C95.1756 239.16 96.3876 240.072 97.7796 240.072C99.1716 240.072 100.372 239.16 100.372 237.528ZM98.8116 237.516C98.8116 238.236 98.3916 238.668 97.7796 238.668C97.1676 238.668 96.7356 238.236 96.7356 237.516V233.952C96.7356 233.232 97.1676 232.788 97.7796 232.788C98.3916 232.788 98.8116 233.232 98.8116 233.952V237.516ZM106.935 240V238.596H103.635L106.023 235.824C106.611 235.14 106.935 234.696 106.935 233.868C106.935 232.332 105.855 231.384 104.343 231.384C102.879 231.384 101.739 232.32 101.739 233.88H103.299C103.299 233.052 103.827 232.788 104.343 232.788C105.003 232.788 105.375 233.22 105.375 233.856C105.375 234.252 105.243 234.516 104.931 234.888L101.739 238.596V240H106.935ZM113.451 240V238.596H110.151L112.539 235.824C113.127 235.14 113.451 234.696 113.451 233.868C113.451 232.332 112.371 231.384 110.859 231.384C109.395 231.384 108.255 232.32 108.255 233.88H109.815C109.815 233.052 110.343 232.788 110.859 232.788C111.519 232.788 111.891 233.22 111.891 233.856C111.891 234.252 111.759 234.516 111.447 234.888L108.255 238.596V240H113.451ZM116.667 240V238.224H114.879V240H116.667ZM123.424 237.528C123.424 236.496 122.932 235.908 122.32 235.584C122.884 235.284 123.304 234.756 123.304 233.832C123.304 232.392 122.212 231.384 120.7 231.384C119.26 231.384 118.12 232.296 118.084 233.82H119.644C119.68 233.172 120.112 232.788 120.7 232.788C121.264 232.788 121.744 233.16 121.744 233.88C121.744 234.48 121.42 234.948 120.664 234.948H120.436V236.304H120.664C121.432 236.304 121.864 236.772 121.864 237.48C121.864 238.248 121.384 238.668 120.712 238.668C120.1 238.668 119.572 238.32 119.548 237.552H117.988C118.012 239.34 119.32 240.072 120.712 240.072C122.176 240.072 123.424 239.232 123.424 237.528ZM126.604 240V238.224H124.816V240H126.604ZM131.958 240V231.456H130.398L128.658 232.968V234.648L130.398 233.136V240H131.958ZM140.082 238.788V237.312H139.302V235.716H137.802V237.312H136.014L138.942 231.456H137.238L134.31 237.312V238.788H137.802V240H139.302V238.788H140.082ZM150.567 240V231.456H149.007L147.267 232.968V234.648L149.007 233.136V240H150.567ZM158.487 237.528C158.487 236.496 157.995 235.908 157.383 235.584C157.947 235.284 158.367 234.756 158.367 233.832C158.367 232.392 157.275 231.384 155.763 231.384C154.323 231.384 153.183 232.296 153.147 233.82H154.707C154.743 233.172 155.175 232.788 155.763 232.788C156.327 232.788 156.807 233.16 156.807 233.88C156.807 234.48 156.483 234.948 155.727 234.948H155.499V236.304H155.727C156.495 236.304 156.927 236.772 156.927 237.48C156.927 238.248 156.447 238.668 155.775 238.668C155.163 238.668 154.635 238.32 154.611 237.552H153.051C153.075 239.34 154.383 240.072 155.775 240.072C157.239 240.072 158.487 239.232 158.487 237.528ZM161.955 236.748V234.972H160.179V236.748H161.955ZM161.955 240V238.224H160.179V240H161.955ZM168.622 237.528V233.928C168.622 232.296 167.422 231.384 166.03 231.384C164.638 231.384 163.426 232.296 163.426 233.928V237.528C163.426 239.16 164.638 240.072 166.03 240.072C167.422 240.072 168.622 239.16 168.622 237.528ZM167.062 237.516C167.062 238.236 166.642 238.668 166.03 238.668C165.418 238.668 164.986 238.236 164.986 237.516V233.952C164.986 233.232 165.418 232.788 166.03 232.788C166.642 232.788 167.062 233.232 167.062 233.952V237.516ZM175.137 237.528V233.928C175.137 232.296 173.937 231.384 172.545 231.384C171.153 231.384 169.941 232.296 169.941 233.928V237.528C169.941 239.16 171.153 240.072 172.545 240.072C173.937 240.072 175.137 239.16 175.137 237.528ZM173.577 237.516C173.577 238.236 173.157 238.668 172.545 238.668C171.933 238.668 171.501 238.236 171.501 237.516V233.952C171.501 233.232 171.933 232.788 172.545 232.788C173.157 232.788 173.577 233.232 173.577 233.952V237.516Z" fill="white"/>
<path d="M93.904 240V238.596H90.604L92.992 235.824C93.58 235.14 93.904 234.696 93.904 233.868C93.904 232.332 92.824 231.384 91.312 231.384C89.848 231.384 88.708 232.32 88.708 233.88H90.268C90.268 233.052 90.796 232.788 91.312 232.788C91.972 232.788 92.344 233.22 92.344 233.856C92.344 234.252 92.212 234.516 91.9 234.888L88.708 238.596V240H93.904ZM100.372 237.528V233.928C100.372 232.296 99.1716 231.384 97.7796 231.384C96.3876 231.384 95.1756 232.296 95.1756 233.928V237.528C95.1756 239.16 96.3876 240.072 97.7796 240.072C99.1716 240.072 100.372 239.16 100.372 237.528ZM98.8116 237.516C98.8116 238.236 98.3916 238.668 97.7796 238.668C97.1676 238.668 96.7356 238.236 96.7356 237.516V233.952C96.7356 233.232 97.1676 232.788 97.7796 232.788C98.3916 232.788 98.8116 233.232 98.8116 233.952V237.516ZM106.935 240V238.596H103.635L106.023 235.824C106.611 235.14 106.935 234.696 106.935 233.868C106.935 232.332 105.855 231.384 104.343 231.384C102.879 231.384 101.739 232.32 101.739 233.88H103.299C103.299 233.052 103.827 232.788 104.343 232.788C105.003 232.788 105.375 233.22 105.375 233.856C105.375 234.252 105.243 234.516 104.931 234.888L101.739 238.596V240H106.935ZM113.451 240V238.596H110.151L112.539 235.824C113.127 235.14 113.451 234.696 113.451 233.868C113.451 232.332 112.371 231.384 110.859 231.384C109.395 231.384 108.255 232.32 108.255 233.88H109.815C109.815 233.052 110.343 232.788 110.859 232.788C111.519 232.788 111.891 233.22 111.891 233.856C111.891 234.252 111.759 234.516 111.447 234.888L108.255 238.596V240H113.451ZM116.667 240V238.224H114.879V240H116.667ZM123.424 237.528C123.424 236.496 122.932 235.908 122.32 235.584C122.884 235.284 123.304 234.756 123.304 233.832C123.304 232.392 122.212 231.384 120.7 231.384C119.26 231.384 118.12 232.296 118.084 233.82H119.644C119.68 233.172 120.112 232.788 120.7 232.788C121.264 232.788 121.744 233.16 121.744 233.88C121.744 234.48 121.42 234.948 120.664 234.948H120.436V236.304H120.664C121.432 236.304 121.864 236.772 121.864 237.48C121.864 238.248 121.384 238.668 120.712 238.668C120.1 238.668 119.572 238.32 119.548 237.552H117.988C118.012 239.34 119.32 240.072 120.712 240.072C122.176 240.072 123.424 239.232 123.424 237.528ZM126.604 240V238.224H124.816V240H126.604ZM131.958 240V231.456H130.398L128.658 232.968V234.648L130.398 233.136V240H131.958ZM140.082 238.788V237.312H139.302V235.716H137.802V237.312H136.014L138.942 231.456H137.238L134.31 237.312V238.788H137.802V240H139.302V238.788H140.082ZM150.567 240V231.456H149.007L147.267 232.968V234.648L149.007 233.136V240H150.567ZM158.487 237.528C158.487 236.496 157.995 235.908 157.383 235.584C157.947 235.284 158.367 234.756 158.367 233.832C158.367 232.392 157.275 231.384 155.763 231.384C154.323 231.384 153.183 232.296 153.147 233.82H154.707C154.743 233.172 155.175 232.788 155.763 232.788C156.327 232.788 156.807 233.16 156.807 233.88C156.807 234.48 156.483 234.948 155.727 234.948H155.499V236.304H155.727C156.495 236.304 156.927 236.772 156.927 237.48C156.927 238.248 156.447 238.668 155.775 238.668C155.163 238.668 154.635 238.32 154.611 237.552H153.051C153.075 239.34 154.383 240.072 155.775 240.072C157.239 240.072 158.487 239.232 158.487 237.528ZM161.955 236.748V234.972H160.179V236.748H161.955ZM161.955 240V238.224H160.179V240H161.955ZM168.622 237.528V233.928C168.622 232.296 167.422 231.384 166.03 231.384C164.638 231.384 163.426 232.296 163.426 233.928V237.528C163.426 239.16 164.638 240.072 166.03 240.072C167.422 240.072 168.622 239.16 168.622 237.528ZM167.062 237.516C167.062 238.236 166.642 238.668 166.03 238.668C165.418 238.668 164.986 238.236 164.986 237.516V233.952C164.986 233.232 165.418 232.788 166.03 232.788C166.642 232.788 167.062 233.232 167.062 233.952V237.516ZM175.137 237.528V233.928C175.137 232.296 173.937 231.384 172.545 231.384C171.153 231.384 169.941 232.296 169.941 233.928V237.528C169.941 239.16 171.153 240.072 172.545 240.072C173.937 240.072 175.137 239.16 175.137 237.528ZM173.577 237.516C173.577 238.236 173.157 238.668 172.545 238.668C171.933 238.668 171.501 238.236 171.501 237.516V233.952C171.501 233.232 171.933 232.788 172.545 232.788C173.157 232.788 173.577 233.232 173.577 233.952V237.516Z" fill="#125EFF"/>
</g>
<rect x="88.5105" y="114.51" width="214.979" height="40.9791" rx="5.48955" fill="white"/>
<rect x="88.5105" y="114.51" width="214.979" height="40.9791" rx="5.48955" fill="url(#paint5_linear_1616_7925)" fill-opacity="0.06"/>
<rect x="88.5105" y="114.51" width="214.979" height="40.9791" rx="5.48955" stroke="#F2F6FF" stroke-width="1.02091"/>
<rect x="88.5105" y="187.51" width="214.979" height="28.9791" rx="5.48955" fill="white"/>
<rect x="88.5105" y="187.51" width="214.979" height="28.9791" rx="5.48955" fill="url(#paint6_linear_1616_7925)" fill-opacity="0.06"/>
<rect x="88.5105" y="187.51" width="214.979" height="28.9791" rx="5.48955" stroke="#F2F6FF" stroke-width="1.02091"/>
<rect x="88.5105" y="249.51" width="132.979" height="54.9791" rx="5.48955" fill="white"/>
<rect x="88.5105" y="249.51" width="132.979" height="54.9791" rx="5.48955" fill="url(#paint7_linear_1616_7925)" fill-opacity="0.06"/>
<rect x="88.5105" y="249.51" width="132.979" height="54.9791" rx="5.48955" stroke="#F2F6FF" stroke-width="1.02091"/>
<path d="M137.397 264.835C137.397 264.835 137.396 264.836 137.396 264.836C137.397 266.954 139.062 268.67 141.116 268.67C143.17 268.67 144.833 266.954 144.833 264.835C144.833 262.716 143.171 261 141.118 261C139.064 261 137.399 262.716 137.398 264.834C137.398 264.835 137.398 264.835 137.397 264.835Z" fill="white"/>
<path d="M137.397 264.835C137.397 264.835 137.396 264.836 137.396 264.836C137.397 266.954 139.062 268.67 141.116 268.67C143.17 268.67 144.833 266.954 144.833 264.835C144.833 262.716 143.171 261 141.118 261C139.064 261 137.399 262.716 137.398 264.834C137.398 264.835 137.398 264.835 137.397 264.835Z" fill="white"/>
<path d="M141.944 278.06C141.945 278.06 141.945 278.06 141.945 278.06C141.336 277.193 140.353 277.193 139.746 278.06L131.295 290.115C130.687 290.981 131.05 291.683 132.103 291.683H170.813C171.868 291.683 172.221 290.983 171.609 290.118L158.222 271.241C157.605 270.371 156.614 270.375 156.001 271.241L147.795 282.811C147.177 283.683 145.882 283.679 145.269 282.804L141.944 278.061C141.944 278.061 141.944 278.06 141.944 278.06Z" fill="white"/>
<path d="M141.944 278.06C141.945 278.06 141.945 278.06 141.945 278.06C141.336 277.193 140.353 277.193 139.746 278.06L131.295 290.115C130.687 290.981 131.05 291.683 132.103 291.683H170.813C171.868 291.683 172.221 290.983 171.609 290.118L158.222 271.241C157.605 270.371 156.614 270.375 156.001 271.241L147.795 282.811C147.177 283.683 145.882 283.679 145.269 282.804L141.944 278.061C141.944 278.061 141.944 278.06 141.944 278.06Z" fill="white"/>
<path d="M70 108.216C69.04 108.216 68.1387 108.035 67.296 107.672C66.464 107.32 65.728 106.829 65.088 106.2C64.4587 105.56 63.9627 104.824 63.6 103.992C63.248 103.149 63.072 102.248 63.072 101.288C63.072 100.328 63.248 99.432 63.6 98.6C63.9627 97.7573 64.4587 97.0213 65.088 96.392C65.728 95.752 66.464 95.256 67.296 94.904C68.1387 94.5413 69.04 94.36 70 94.36C70.96 94.36 71.856 94.5413 72.688 94.904C73.5307 95.256 74.2667 95.752 74.896 96.392C75.536 97.0213 76.032 97.7573 76.384 98.6C76.7467 99.432 76.928 100.328 76.928 101.288C76.928 102.248 76.7467 103.149 76.384 103.992C76.032 104.824 75.536 105.56 74.896 106.2C74.2667 106.829 73.5307 107.32 72.688 107.672C71.856 108.035 70.96 108.216 70 108.216ZM70 106.792C70.768 106.792 71.4827 106.653 72.144 106.376C72.8053 106.088 73.3867 105.693 73.888 105.192C74.4 104.68 74.7947 104.093 75.072 103.432C75.36 102.771 75.504 102.056 75.504 101.288C75.504 100.52 75.36 99.8053 75.072 99.144C74.7947 98.4827 74.4 97.9013 73.888 97.4C73.3867 96.888 72.8053 96.4933 72.144 96.216C71.4827 95.928 70.768 95.784 70 95.784C69.232 95.784 68.5173 95.928 67.856 96.216C67.1947 96.4933 66.608 96.888 66.096 97.4C65.5947 97.9013 65.2 98.4827 64.912 99.144C64.6347 99.8053 64.496 100.52 64.496 101.288C64.496 102.056 64.6347 102.771 64.912 103.432C65.2 104.093 65.5947 104.68 66.096 105.192C66.608 105.693 67.1947 106.088 67.856 106.376C68.5173 106.653 69.232 106.792 70 106.792ZM69.376 104.792V100.92C69.376 100.771 69.376 100.547 69.376 100.248C69.3867 99.9493 69.4027 99.6827 69.424 99.448C69.3493 99.5227 69.28 99.592 69.216 99.656C69.1627 99.72 69.104 99.7787 69.04 99.832C68.9333 99.9173 68.7947 100.029 68.624 100.168C68.464 100.296 68.2667 100.445 68.032 100.616L67.216 99.56L69.504 97.768H71.008V104.792H69.376Z" fill="#1561FF"/>
<path d="M67.664 177.776V176.672L69.44 174.896C69.824 174.512 70.1173 174.203 70.32 173.968C70.5227 173.733 70.6667 173.525 70.752 173.344C70.8373 173.152 70.88 172.955 70.88 172.752C70.88 172.485 70.8 172.293 70.64 172.176C70.48 172.048 70.2773 171.984 70.032 171.984C69.7973 171.984 69.5573 172.048 69.312 172.176C69.0667 172.293 68.8 172.475 68.512 172.72L67.648 171.68C67.872 171.477 68.1013 171.301 68.336 171.152C68.5813 170.992 68.8533 170.869 69.152 170.784C69.4507 170.688 69.792 170.64 70.176 170.64C70.88 170.64 71.44 170.816 71.856 171.168C72.272 171.52 72.48 171.989 72.48 172.576C72.48 172.96 72.4 173.312 72.24 173.632C72.0907 173.941 71.8667 174.256 71.568 174.576C71.28 174.885 70.928 175.237 70.512 175.632L69.6 176.496L69.552 176.432H72.544V177.776H67.664ZM70 181.216C69.04 181.216 68.1387 181.035 67.296 180.672C66.464 180.32 65.728 179.829 65.088 179.2C64.4587 178.56 63.9627 177.824 63.6 176.992C63.248 176.149 63.072 175.248 63.072 174.288C63.072 173.328 63.248 172.432 63.6 171.6C63.9627 170.757 64.4587 170.021 65.088 169.392C65.728 168.752 66.464 168.256 67.296 167.904C68.1387 167.541 69.04 167.36 70 167.36C70.96 167.36 71.856 167.541 72.688 167.904C73.5307 168.256 74.2667 168.752 74.896 169.392C75.536 170.021 76.032 170.757 76.384 171.6C76.7467 172.432 76.928 173.328 76.928 174.288C76.928 175.248 76.7467 176.149 76.384 176.992C76.032 177.824 75.536 178.56 74.896 179.2C74.2667 179.829 73.5307 180.32 72.688 180.672C71.856 181.035 70.96 181.216 70 181.216ZM70 179.792C70.768 179.792 71.4827 179.653 72.144 179.376C72.8053 179.088 73.3867 178.693 73.888 178.192C74.4 177.68 74.7947 177.093 75.072 176.432C75.36 175.76 75.504 175.045 75.504 174.288C75.504 173.52 75.36 172.805 75.072 172.144C74.7947 171.483 74.4 170.901 73.888 170.4C73.3867 169.888 72.8 169.493 72.128 169.216C71.4667 168.928 70.7573 168.784 70 168.784C69.232 168.784 68.5173 168.928 67.856 169.216C67.1947 169.493 66.608 169.888 66.096 170.4C65.5947 170.901 65.2 171.488 64.912 172.16C64.6347 172.821 64.496 173.531 64.496 174.288C64.496 175.056 64.6347 175.771 64.912 176.432C65.2 177.093 65.5947 177.68 66.096 178.192C66.608 178.693 67.1947 179.088 67.856 179.376C68.528 179.653 69.2427 179.792 70 179.792Z" fill="white"/>
<path d="M67.664 177.776V176.672L69.44 174.896C69.824 174.512 70.1173 174.203 70.32 173.968C70.5227 173.733 70.6667 173.525 70.752 173.344C70.8373 173.152 70.88 172.955 70.88 172.752C70.88 172.485 70.8 172.293 70.64 172.176C70.48 172.048 70.2773 171.984 70.032 171.984C69.7973 171.984 69.5573 172.048 69.312 172.176C69.0667 172.293 68.8 172.475 68.512 172.72L67.648 171.68C67.872 171.477 68.1013 171.301 68.336 171.152C68.5813 170.992 68.8533 170.869 69.152 170.784C69.4507 170.688 69.792 170.64 70.176 170.64C70.88 170.64 71.44 170.816 71.856 171.168C72.272 171.52 72.48 171.989 72.48 172.576C72.48 172.96 72.4 173.312 72.24 173.632C72.0907 173.941 71.8667 174.256 71.568 174.576C71.28 174.885 70.928 175.237 70.512 175.632L69.6 176.496L69.552 176.432H72.544V177.776H67.664ZM70 181.216C69.04 181.216 68.1387 181.035 67.296 180.672C66.464 180.32 65.728 179.829 65.088 179.2C64.4587 178.56 63.9627 177.824 63.6 176.992C63.248 176.149 63.072 175.248 63.072 174.288C63.072 173.328 63.248 172.432 63.6 171.6C63.9627 170.757 64.4587 170.021 65.088 169.392C65.728 168.752 66.464 168.256 67.296 167.904C68.1387 167.541 69.04 167.36 70 167.36C70.96 167.36 71.856 167.541 72.688 167.904C73.5307 168.256 74.2667 168.752 74.896 169.392C75.536 170.021 76.032 170.757 76.384 171.6C76.7467 172.432 76.928 173.328 76.928 174.288C76.928 175.248 76.7467 176.149 76.384 176.992C76.032 177.824 75.536 178.56 74.896 179.2C74.2667 179.829 73.5307 180.32 72.688 180.672C71.856 181.035 70.96 181.216 70 181.216ZM70 179.792C70.768 179.792 71.4827 179.653 72.144 179.376C72.8053 179.088 73.3867 178.693 73.888 178.192C74.4 177.68 74.7947 177.093 75.072 176.432C75.36 175.76 75.504 175.045 75.504 174.288C75.504 173.52 75.36 172.805 75.072 172.144C74.7947 171.483 74.4 170.901 73.888 170.4C73.3867 169.888 72.8 169.493 72.128 169.216C71.4667 168.928 70.7573 168.784 70 168.784C69.232 168.784 68.5173 168.928 67.856 169.216C67.1947 169.493 66.608 169.888 66.096 170.4C65.5947 170.901 65.2 171.488 64.912 172.16C64.6347 172.821 64.496 173.531 64.496 174.288C64.496 175.056 64.6347 175.771 64.912 176.432C65.2 177.093 65.5947 177.68 66.096 178.192C66.608 178.693 67.1947 179.088 67.856 179.376C68.528 179.653 69.2427 179.792 70 179.792Z" fill="#125EFF"/>
<path d="M69.84 239.904C69.4027 239.904 69.0187 239.872 68.688 239.808C68.3573 239.733 68.0427 239.632 67.744 239.504V238.128C68.0747 238.299 68.4053 238.427 68.736 238.512C69.0773 238.587 69.392 238.624 69.68 238.624C70.1707 238.624 70.5173 238.544 70.72 238.384C70.9333 238.224 71.04 237.995 71.04 237.696C71.04 237.408 70.9227 237.189 70.688 237.04C70.4533 236.88 70.0373 236.8 69.44 236.8H68.816V235.568H69.456C69.9787 235.568 70.352 235.488 70.576 235.328C70.8107 235.168 70.928 234.949 70.928 234.672C70.928 234.427 70.8427 234.251 70.672 234.144C70.5013 234.027 70.2827 233.968 70.016 233.968C69.7173 233.968 69.4293 234.027 69.152 234.144C68.8853 234.251 68.6613 234.363 68.48 234.48L67.76 233.392C68.08 233.179 68.4267 233.003 68.8 232.864C69.184 232.725 69.648 232.656 70.192 232.656C70.928 232.656 71.4987 232.811 71.904 233.12C72.3093 233.419 72.512 233.829 72.512 234.352C72.512 234.832 72.368 235.221 72.08 235.52C71.8027 235.808 71.4453 236.011 71.008 236.128L70.992 236.096C71.5573 236.171 71.984 236.347 72.272 236.624C72.5707 236.901 72.72 237.285 72.72 237.776C72.72 238.384 72.4907 238.891 72.032 239.296C71.5733 239.701 70.8427 239.904 69.84 239.904ZM70 243.216C69.04 243.216 68.1387 243.035 67.296 242.672C66.464 242.32 65.728 241.829 65.088 241.2C64.4587 240.56 63.9627 239.824 63.6 238.992C63.248 238.149 63.072 237.248 63.072 236.288C63.072 235.328 63.248 234.432 63.6 233.6C63.9627 232.757 64.4587 232.021 65.088 231.392C65.728 230.752 66.464 230.256 67.296 229.904C68.1387 229.541 69.04 229.36 70 229.36C70.96 229.36 71.856 229.541 72.688 229.904C73.5307 230.256 74.2667 230.752 74.896 231.392C75.536 232.021 76.032 232.757 76.384 233.6C76.7467 234.432 76.928 235.328 76.928 236.288C76.928 237.248 76.7467 238.149 76.384 238.992C76.032 239.824 75.536 240.56 74.896 241.2C74.2667 241.829 73.5307 242.32 72.688 242.672C71.856 243.035 70.96 243.216 70 243.216ZM70 241.792C70.768 241.792 71.4827 241.653 72.144 241.376C72.8053 241.088 73.3867 240.693 73.888 240.192C74.4 239.68 74.7947 239.093 75.072 238.432C75.36 237.771 75.504 237.056 75.504 236.288C75.504 235.52 75.36 234.805 75.072 234.144C74.7947 233.483 74.4 232.901 73.888 232.4C73.3867 231.888 72.8053 231.493 72.144 231.216C71.4827 230.928 70.768 230.784 70 230.784C69.232 230.784 68.5173 230.928 67.856 231.216C67.1947 231.493 66.608 231.888 66.096 232.4C65.5947 232.901 65.2 233.483 64.912 234.144C64.6347 234.805 64.496 235.52 64.496 236.288C64.496 237.056 64.6347 237.771 64.912 238.432C65.2 239.093 65.5947 239.68 66.096 240.192C66.608 240.693 67.1947 241.088 67.856 241.376C68.5173 241.653 69.232 241.792 70 241.792Z" fill="white"/>
<path d="M69.84 239.904C69.4027 239.904 69.0187 239.872 68.688 239.808C68.3573 239.733 68.0427 239.632 67.744 239.504V238.128C68.0747 238.299 68.4053 238.427 68.736 238.512C69.0773 238.587 69.392 238.624 69.68 238.624C70.1707 238.624 70.5173 238.544 70.72 238.384C70.9333 238.224 71.04 237.995 71.04 237.696C71.04 237.408 70.9227 237.189 70.688 237.04C70.4533 236.88 70.0373 236.8 69.44 236.8H68.816V235.568H69.456C69.9787 235.568 70.352 235.488 70.576 235.328C70.8107 235.168 70.928 234.949 70.928 234.672C70.928 234.427 70.8427 234.251 70.672 234.144C70.5013 234.027 70.2827 233.968 70.016 233.968C69.7173 233.968 69.4293 234.027 69.152 234.144C68.8853 234.251 68.6613 234.363 68.48 234.48L67.76 233.392C68.08 233.179 68.4267 233.003 68.8 232.864C69.184 232.725 69.648 232.656 70.192 232.656C70.928 232.656 71.4987 232.811 71.904 233.12C72.3093 233.419 72.512 233.829 72.512 234.352C72.512 234.832 72.368 235.221 72.08 235.52C71.8027 235.808 71.4453 236.011 71.008 236.128L70.992 236.096C71.5573 236.171 71.984 236.347 72.272 236.624C72.5707 236.901 72.72 237.285 72.72 237.776C72.72 238.384 72.4907 238.891 72.032 239.296C71.5733 239.701 70.8427 239.904 69.84 239.904ZM70 243.216C69.04 243.216 68.1387 243.035 67.296 242.672C66.464 242.32 65.728 241.829 65.088 241.2C64.4587 240.56 63.9627 239.824 63.6 238.992C63.248 238.149 63.072 237.248 63.072 236.288C63.072 235.328 63.248 234.432 63.6 233.6C63.9627 232.757 64.4587 232.021 65.088 231.392C65.728 230.752 66.464 230.256 67.296 229.904C68.1387 229.541 69.04 229.36 70 229.36C70.96 229.36 71.856 229.541 72.688 229.904C73.5307 230.256 74.2667 230.752 74.896 231.392C75.536 232.021 76.032 232.757 76.384 233.6C76.7467 234.432 76.928 235.328 76.928 236.288C76.928 237.248 76.7467 238.149 76.384 238.992C76.032 239.824 75.536 240.56 74.896 241.2C74.2667 241.829 73.5307 242.32 72.688 242.672C71.856 243.035 70.96 243.216 70 243.216ZM70 241.792C70.768 241.792 71.4827 241.653 72.144 241.376C72.8053 241.088 73.3867 240.693 73.888 240.192C74.4 239.68 74.7947 239.093 75.072 238.432C75.36 237.771 75.504 237.056 75.504 236.288C75.504 235.52 75.36 234.805 75.072 234.144C74.7947 233.483 74.4 232.901 73.888 232.4C73.3867 231.888 72.8053 231.493 72.144 231.216C71.4827 230.928 70.768 230.784 70 230.784C69.232 230.784 68.5173 230.928 67.856 231.216C67.1947 231.493 66.608 231.888 66.096 232.4C65.5947 232.901 65.2 233.483 64.912 234.144C64.6347 234.805 64.496 235.52 64.496 236.288C64.496 237.056 64.6347 237.771 64.912 238.432C65.2 239.093 65.5947 239.68 66.096 240.192C66.608 240.693 67.1947 241.088 67.856 241.376C68.5173 241.653 69.232 241.792 70 241.792Z" fill="#125EFF"/>
<rect x="97.387" y="122.387" width="194.226" height="9.22607" rx="4.61303" fill="white"/>
<rect x="97.387" y="122.387" width="194.226" height="9.22607" rx="4.61303" fill="white"/>
<rect x="97.387" y="122.387" width="194.226" height="9.22607" rx="4.61303" stroke="#F2F6FF" stroke-width="0.773933"/>
<rect x="99.387" y="197.387" width="193.226" height="9.22607" rx="4.61303" fill="white"/>
<rect x="99.387" y="197.387" width="193.226" height="9.22607" rx="4.61303" fill="white"/>
<rect x="99.387" y="197.387" width="193.226" height="9.22607" rx="4.61303" stroke="#F2F6FF" stroke-width="0.773933"/>
<rect x="100.387" y="138.387" width="108.226" height="9.22607" rx="4.61303" fill="white"/>
<rect x="100.387" y="138.387" width="108.226" height="9.22607" rx="4.61303" fill="white"/>
<rect x="100.387" y="138.387" width="108.226" height="9.22607" rx="4.61303" stroke="#F2F6FF" stroke-width="0.773933"/>
<circle cx="55.7871" cy="65.5391" r="5" fill="#1561FF"/>
<circle cx="69.7871" cy="65.5391" r="5" fill="#FD8113"/>
<circle cx="83.7871" cy="65.5391" r="5" fill="#0CE18F"/>
<line opacity="0.3" x1="70.4" y1="114.4" x2="70.4" y2="162.6" stroke="#869BB9" stroke-width="0.8" stroke-linecap="round" stroke-dasharray="1.65 2.47"/>
<line opacity="0.3" x1="70.4" y1="184.4" x2="70.4" y2="224.6" stroke="#869BB9" stroke-width="0.8" stroke-linecap="round" stroke-dasharray="1.65 2.47"/>
<circle cx="55.812" cy="65.8125" r="5" fill="#1561FF"/>
<circle cx="69.812" cy="65.8125" r="5" fill="#FD8113"/>
<circle cx="83.812" cy="65.8125" r="5" fill="#0CE18F"/>
<circle cx="198" cy="402" r="5" fill="white"/>
<circle cx="198" cy="402" r="5" fill="url(#paint8_linear_1616_7925)" fill-opacity="0.2"/>
<defs>
<filter id="filter0_d_1616_7925" x="0" y="20" width="508" height="398.113" filterUnits="userSpaceOnUse" color-interpolation-filters="sRGB">
<feFlood flood-opacity="0" result="BackgroundImageFix"/>
<feColorMatrix in="SourceAlpha" type="matrix" values="0 0 0 0 0 0 0 0 0 0 0 0 0 0 0 0 0 0 127 0" result="hardAlpha"/>
<feOffset dy="10"/>
<feGaussianBlur stdDeviation="15"/>
<feColorMatrix type="matrix" values="0 0 0 0 0.0196078 0 0 0 0 0.333333 0 0 0 0 1 0 0 0 0.1 0"/>
<feBlend mode="normal" in2="BackgroundImageFix" result="effect1_dropShadow_1616_7925"/>
<feBlend mode="normal" in="SourceGraphic" in2="effect1_dropShadow_1616_7925" result="shape"/>
</filter>
<linearGradient id="paint0_linear_1616_7925" x1="389" y1="31" x2="389" y2="45" gradientUnits="userSpaceOnUse">
<stop stop-color="#0555FF"/>
<stop offset="1" stop-color="#0555FF" stop-opacity="0.21"/>
</linearGradient>
<linearGradient id="paint1_linear_1616_7925" x1="397" y1="57" x2="397" y2="361" gradientUnits="userSpaceOnUse">
<stop stop-color="#0555FF"/>
<stop offset="1" stop-color="#0555FF" stop-opacity="0.6"/>
</linearGradient>
<linearGradient id="paint2_linear_1616_7925" x1="377" y1="95" x2="415.988" y2="134.987" gradientUnits="userSpaceOnUse">
<stop stop-color="#0555FF"/>
<stop offset="1" stop-color="#0555FF" stop-opacity="0.21"/>
</linearGradient>
<linearGradient id="paint3_linear_1616_7925" x1="82" y1="324" x2="82" y2="345" gradientUnits="userSpaceOnUse">
<stop stop-color="#0555FF"/>
<stop offset="1" stop-color="#0555FF" stop-opacity="0.6"/>
</linearGradient>
<linearGradient id="paint4_linear_1616_7925" x1="83" y1="326" x2="100" y2="343" gradientUnits="userSpaceOnUse">
<stop stop-color="#0555FF"/>
<stop offset="1" stop-color="#0555FF" stop-opacity="0.21"/>
</linearGradient>
<linearGradient id="paint5_linear_1616_7925" x1="196" y1="114" x2="196" y2="156" gradientUnits="userSpaceOnUse">
<stop stop-color="#0555FF"/>
<stop offset="1" stop-color="#0555FF" stop-opacity="0.6"/>
</linearGradient>
<linearGradient id="paint6_linear_1616_7925" x1="196" y1="187" x2="196" y2="217" gradientUnits="userSpaceOnUse">
<stop stop-color="#0555FF"/>
<stop offset="1" stop-color="#0555FF" stop-opacity="0.6"/>
</linearGradient>
<linearGradient id="paint7_linear_1616_7925" x1="155" y1="249" x2="155" y2="305" gradientUnits="userSpaceOnUse">
<stop stop-color="#0555FF"/>
<stop offset="1" stop-color="#0555FF" stop-opacity="0.6"/>
</linearGradient>
<linearGradient id="paint8_linear_1616_7925" x1="198" y1="397" x2="198" y2="407" gradientUnits="userSpaceOnUse">
<stop stop-color="#0555FF"/>
<stop offset="1" stop-color="#0555FF" stop-opacity="0.21"/>
</linearGradient>
</defs>
</svg>
