<svg width="508" height="440" viewBox="0 0 508 440" fill="none" xmlns="http://www.w3.org/2000/svg">
<rect width="496" height="440" transform="translate(6)" fill="white"/>
<g filter="url(#filter0_d_1616_8042)">
<rect x="30" y="40" width="448" height="338.113" rx="16" fill="white"/>
<rect x="30.5" y="40.5" width="447" height="337.113" rx="15.5" stroke="#F2F6FF"/>
</g>
<rect x="55.1323" y="162" width="50.717" height="9.50943" rx="4.75472" fill="#F0F5FF"/>
<rect x="55" y="265.387" width="134" height="9" rx="4.5" fill="#F0F5FF"/>
<path d="M149.238 205.387C152.14 205.387 154 207.735 154 210.894C154 213.346 151.801 216.047 147.468 219.081C147.184 219.28 146.846 219.387 146.5 219.387C146.154 219.387 145.816 219.28 145.532 219.081C141.199 216.047 139 213.346 139 210.894C139 207.735 140.86 205.387 143.762 205.387C144.809 205.387 145.52 205.756 146.5 206.595C147.48 205.756 148.191 205.387 149.238 205.387Z" fill="url(#paint0_radial_1616_8042)" fill-opacity="0.8"/>
<rect x="160.806" y="207.438" width="110.943" height="9.50943" rx="4.75472" fill="#F0F5FF"/>
<circle cx="293.264" cy="212.264" r="13.2642" fill="white"/>
<circle cx="293.264" cy="212.264" r="13.2642" fill="url(#paint1_linear_1616_8042)" fill-opacity="0.4"/>
<path fill-rule="evenodd" clip-rule="evenodd" d="M287.701 208.642C287.807 208.51 287.928 208.386 288.061 208.276L288.065 208.272L288.092 208.248H288.093L288.218 208.145C288.23 208.135 288.244 208.125 288.257 208.116L288.273 208.105H288.272L288.873 207.599L288.886 207.588L292.707 204.54C293.08 204.228 293.624 204.232 293.993 204.551L297.75 207.653L297.784 207.684L298.544 208.339H298.546L298.657 208.435C298.736 208.504 298.81 208.577 298.88 208.653C299.32 209.134 299.568 209.767 299.568 210.429V214.582C299.568 215.616 298.967 216.552 298.03 216.977L294.362 218.639L294.258 218.686C294.246 218.691 294.234 218.696 294.223 218.701C294.211 218.706 294.199 218.711 294.187 218.717C294.187 218.717 294.186 218.717 294.184 218.719C294.156 218.73 294.129 218.741 294.101 218.751L293.24 219.131L289.75 220.496C289.307 220.67 288.878 220.215 289.071 219.777L289.928 217.852L290.022 217.596L288.655 216.977C287.719 216.552 287.119 215.616 287.119 214.582V210.297C287.119 209.689 287.328 209.107 287.701 208.642ZM288.778 212.98C288.961 214.729 290.263 215.834 293.343 215.881C296.422 215.834 297.726 214.731 297.908 212.982C298.016 211.944 297.93 210.926 297.84 210.271C297.778 209.821 297.479 209.437 297.056 209.277C295.342 208.635 294.171 208.606 293.345 208.606C292.223 208.606 291.252 208.669 289.628 209.277C289.204 209.437 288.906 209.82 288.844 210.271C288.756 210.924 288.67 211.942 288.778 212.98ZM286.351 205.883H286.57C286.616 205.883 286.657 205.906 286.657 205.933V209.812H286.792C286.821 209.812 286.843 209.836 286.843 209.863V213.31C286.843 213.339 286.82 213.361 286.792 213.361H286.254C286.043 213.361 285.872 213.189 285.87 212.977V210.199C285.87 209.985 286.043 209.812 286.254 209.812H286.264V205.933C286.264 205.906 286.301 205.883 286.351 205.883ZM299.892 213.374H300.43C300.641 213.374 300.812 213.202 300.814 212.989V210.212C300.814 209.998 300.641 209.825 300.43 209.825H299.892C299.863 209.825 299.842 209.849 299.842 209.876V213.323C299.842 213.352 299.865 213.374 299.892 213.374ZM291.751 212.692H291.221C291.104 212.692 291.009 212.596 291.009 212.478V210.82C291.009 210.702 291.104 210.605 291.221 210.605H291.751C291.868 210.605 291.963 210.702 291.963 210.82V212.478C291.963 212.596 291.868 212.692 291.751 212.692ZM295.466 212.692H294.936C294.819 212.692 294.724 212.596 294.724 212.478V210.82C294.724 210.702 294.819 210.605 294.936 210.605H295.466C295.583 210.605 295.678 210.702 295.678 210.82V212.478C295.678 212.596 295.583 212.692 295.466 212.692ZM293.348 214.456C293.701 214.456 294.032 214.346 294.261 214.155C294.318 214.106 294.327 214.019 294.279 213.961C294.23 213.903 294.144 213.894 294.086 213.943C293.906 214.093 293.638 214.181 293.35 214.181C293.056 214.181 292.784 214.092 292.606 213.936C292.548 213.887 292.462 213.892 292.413 213.95C292.365 214.008 292.37 214.095 292.428 214.144C292.653 214.344 292.989 214.456 293.348 214.456Z" fill="white"/>
<rect x="160.806" y="225.398" width="83.4717" height="9.50943" rx="4.75472" fill="#F0F5FF"/>
<line opacity="0.3" x1="55.4351" y1="137.565" x2="306.565" y2="137.565" stroke="#869BB9" stroke-width="0.870144" stroke-linecap="round" stroke-dasharray="1.74 2.61"/>
<rect x="89" y="104" width="37" height="10" rx="5" fill="#F0F5FF"/>
<circle cx="68" cy="109" r="13" fill="white"/>
<circle cx="68" cy="109" r="13" fill="url(#paint2_linear_1616_8042)" fill-opacity="0.3"/>
<rect x="332.409" y="57.4089" width="129.182" height="303.182" rx="10.1572" fill="white"/>
<rect x="332.409" y="57.4089" width="129.182" height="303.182" rx="10.1572" fill="url(#paint3_linear_1616_8042)" fill-opacity="0.06"/>
<rect x="332.409" y="57.4089" width="129.182" height="303.182" rx="10.1572" stroke="#F2F6FF" stroke-width="0.817741"/>
<rect x="342.5" y="181.5" width="107" height="107" rx="3.5" fill="white" stroke="#F2F6FF"/>
<path d="M365.97 201.107C365.97 200.83 365.876 200.592 365.683 200.382L360.032 194.725C359.833 194.526 359.557 194.354 359.226 194.21C358.884 194.066 358.581 194 358.305 194H355.015C354.74 194 354.502 194.105 354.304 194.304C354.105 194.504 354 194.742 354 195.018V198.306C354 198.583 354.066 198.899 354.21 199.231C354.353 199.574 354.513 199.839 354.723 200.039L360.374 205.707C360.573 205.906 360.81 205.994 361.086 205.994C361.362 205.994 361.599 205.9 361.809 205.707L365.683 201.821C365.865 201.622 365.97 201.384 365.97 201.107ZM357.24 197.26C357.041 197.459 356.804 197.554 356.528 197.554C356.252 197.554 356.014 197.459 355.816 197.26C355.617 197.061 355.523 196.823 355.523 196.546C355.523 196.269 355.617 196.031 355.816 195.832C356.014 195.633 356.252 195.539 356.528 195.539C356.804 195.539 357.041 195.633 357.24 195.832C357.438 196.031 357.526 196.269 357.526 196.546C357.543 196.828 357.438 197.061 357.24 197.26ZM368.713 200.376L363.062 194.725C362.863 194.526 362.587 194.354 362.256 194.21C361.914 194.066 361.61 194 361.334 194H359.557C359.833 194 360.148 194.066 360.479 194.21C360.821 194.354 361.086 194.515 361.285 194.725L366.936 200.376C367.135 200.587 367.228 200.825 367.228 201.101C367.228 201.378 367.135 201.616 366.936 201.815L363.233 205.541C363.393 205.701 363.536 205.817 363.652 205.895C363.768 205.972 363.928 206 364.116 206C364.392 206 364.629 205.906 364.839 205.707L368.713 201.81C368.912 201.611 369 201.373 369 201.096C369 200.819 368.906 200.592 368.713 200.376Z" fill="white"/>
<path d="M365.97 201.107C365.97 200.83 365.876 200.592 365.683 200.382L360.032 194.725C359.833 194.526 359.557 194.354 359.226 194.21C358.884 194.066 358.581 194 358.305 194H355.015C354.74 194 354.502 194.105 354.304 194.304C354.105 194.504 354 194.742 354 195.018V198.306C354 198.583 354.066 198.899 354.21 199.231C354.353 199.574 354.513 199.839 354.723 200.039L360.374 205.707C360.573 205.906 360.81 205.994 361.086 205.994C361.362 205.994 361.599 205.9 361.809 205.707L365.683 201.821C365.865 201.622 365.97 201.384 365.97 201.107ZM357.24 197.26C357.041 197.459 356.804 197.554 356.528 197.554C356.252 197.554 356.014 197.459 355.816 197.26C355.617 197.061 355.523 196.823 355.523 196.546C355.523 196.269 355.617 196.031 355.816 195.832C356.014 195.633 356.252 195.539 356.528 195.539C356.804 195.539 357.041 195.633 357.24 195.832C357.438 196.031 357.526 196.269 357.526 196.546C357.543 196.828 357.438 197.061 357.24 197.26ZM368.713 200.376L363.062 194.725C362.863 194.526 362.587 194.354 362.256 194.21C361.914 194.066 361.61 194 361.334 194H359.557C359.833 194 360.148 194.066 360.479 194.21C360.821 194.354 361.086 194.515 361.285 194.725L366.936 200.376C367.135 200.587 367.228 200.825 367.228 201.101C367.228 201.378 367.135 201.616 366.936 201.815L363.233 205.541C363.393 205.701 363.536 205.817 363.652 205.895C363.768 205.972 363.928 206 364.116 206C364.392 206 364.629 205.906 364.839 205.707L368.713 201.81C368.912 201.611 369 201.373 369 201.096C369 200.819 368.906 200.592 368.713 200.376Z" fill="url(#paint4_linear_1616_8042)" fill-opacity="0.3"/>
<path d="M365.97 224.107C365.97 223.83 365.876 223.592 365.683 223.382L360.032 217.725C359.833 217.526 359.557 217.354 359.226 217.21C358.884 217.066 358.581 217 358.305 217H355.015C354.74 217 354.502 217.105 354.304 217.304C354.105 217.504 354 217.742 354 218.018V221.306C354 221.583 354.066 221.899 354.21 222.231C354.353 222.574 354.513 222.839 354.723 223.039L360.374 228.707C360.573 228.906 360.81 228.994 361.086 228.994C361.362 228.994 361.599 228.9 361.809 228.707L365.683 224.821C365.865 224.622 365.97 224.384 365.97 224.107ZM357.24 220.26C357.041 220.459 356.804 220.554 356.528 220.554C356.252 220.554 356.014 220.459 355.816 220.26C355.617 220.061 355.523 219.823 355.523 219.546C355.523 219.269 355.617 219.031 355.816 218.832C356.014 218.633 356.252 218.539 356.528 218.539C356.804 218.539 357.041 218.633 357.24 218.832C357.438 219.031 357.526 219.269 357.526 219.546C357.543 219.828 357.438 220.061 357.24 220.26ZM368.713 223.376L363.062 217.725C362.863 217.526 362.587 217.354 362.256 217.21C361.914 217.066 361.61 217 361.334 217H359.557C359.833 217 360.148 217.066 360.479 217.21C360.821 217.354 361.086 217.515 361.285 217.725L366.936 223.376C367.135 223.587 367.228 223.825 367.228 224.101C367.228 224.378 367.135 224.616 366.936 224.815L363.233 228.541C363.393 228.701 363.536 228.817 363.652 228.895C363.768 228.972 363.928 229 364.116 229C364.392 229 364.629 228.906 364.839 228.707L368.713 224.81C368.912 224.611 369 224.373 369 224.096C369 223.819 368.906 223.592 368.713 223.376Z" fill="white"/>
<path d="M365.97 224.107C365.97 223.83 365.876 223.592 365.683 223.382L360.032 217.725C359.833 217.526 359.557 217.354 359.226 217.21C358.884 217.066 358.581 217 358.305 217H355.015C354.74 217 354.502 217.105 354.304 217.304C354.105 217.504 354 217.742 354 218.018V221.306C354 221.583 354.066 221.899 354.21 222.231C354.353 222.574 354.513 222.839 354.723 223.039L360.374 228.707C360.573 228.906 360.81 228.994 361.086 228.994C361.362 228.994 361.599 228.9 361.809 228.707L365.683 224.821C365.865 224.622 365.97 224.384 365.97 224.107ZM357.24 220.26C357.041 220.459 356.804 220.554 356.528 220.554C356.252 220.554 356.014 220.459 355.816 220.26C355.617 220.061 355.523 219.823 355.523 219.546C355.523 219.269 355.617 219.031 355.816 218.832C356.014 218.633 356.252 218.539 356.528 218.539C356.804 218.539 357.041 218.633 357.24 218.832C357.438 219.031 357.526 219.269 357.526 219.546C357.543 219.828 357.438 220.061 357.24 220.26ZM368.713 223.376L363.062 217.725C362.863 217.526 362.587 217.354 362.256 217.21C361.914 217.066 361.61 217 361.334 217H359.557C359.833 217 360.148 217.066 360.479 217.21C360.821 217.354 361.086 217.515 361.285 217.725L366.936 223.376C367.135 223.587 367.228 223.825 367.228 224.101C367.228 224.378 367.135 224.616 366.936 224.815L363.233 228.541C363.393 228.701 363.536 228.817 363.652 228.895C363.768 228.972 363.928 229 364.116 229C364.392 229 364.629 228.906 364.839 228.707L368.713 224.81C368.912 224.611 369 224.373 369 224.096C369 223.819 368.906 223.592 368.713 223.376Z" fill="url(#paint5_linear_1616_8042)" fill-opacity="0.3"/>
<path d="M365.97 247.107C365.97 246.83 365.876 246.592 365.683 246.382L360.032 240.725C359.833 240.526 359.557 240.354 359.226 240.21C358.884 240.066 358.581 240 358.305 240H355.015C354.74 240 354.502 240.105 354.304 240.304C354.105 240.504 354 240.742 354 241.018V244.306C354 244.583 354.066 244.899 354.21 245.231C354.353 245.574 354.513 245.839 354.723 246.039L360.374 251.707C360.573 251.906 360.81 251.994 361.086 251.994C361.362 251.994 361.599 251.9 361.809 251.707L365.683 247.821C365.865 247.622 365.97 247.384 365.97 247.107ZM357.24 243.26C357.041 243.459 356.804 243.554 356.528 243.554C356.252 243.554 356.014 243.459 355.816 243.26C355.617 243.061 355.523 242.823 355.523 242.546C355.523 242.269 355.617 242.031 355.816 241.832C356.014 241.633 356.252 241.539 356.528 241.539C356.804 241.539 357.041 241.633 357.24 241.832C357.438 242.031 357.526 242.269 357.526 242.546C357.543 242.828 357.438 243.061 357.24 243.26ZM368.713 246.376L363.062 240.725C362.863 240.526 362.587 240.354 362.256 240.21C361.914 240.066 361.61 240 361.334 240H359.557C359.833 240 360.148 240.066 360.479 240.21C360.821 240.354 361.086 240.515 361.285 240.725L366.936 246.376C367.135 246.587 367.228 246.825 367.228 247.101C367.228 247.378 367.135 247.616 366.936 247.815L363.233 251.541C363.393 251.701 363.536 251.817 363.652 251.895C363.768 251.972 363.928 252 364.116 252C364.392 252 364.629 251.906 364.839 251.707L368.713 247.81C368.912 247.611 369 247.373 369 247.096C369 246.819 368.906 246.592 368.713 246.376Z" fill="white"/>
<path d="M365.97 247.107C365.97 246.83 365.876 246.592 365.683 246.382L360.032 240.725C359.833 240.526 359.557 240.354 359.226 240.21C358.884 240.066 358.581 240 358.305 240H355.015C354.74 240 354.502 240.105 354.304 240.304C354.105 240.504 354 240.742 354 241.018V244.306C354 244.583 354.066 244.899 354.21 245.231C354.353 245.574 354.513 245.839 354.723 246.039L360.374 251.707C360.573 251.906 360.81 251.994 361.086 251.994C361.362 251.994 361.599 251.9 361.809 251.707L365.683 247.821C365.865 247.622 365.97 247.384 365.97 247.107ZM357.24 243.26C357.041 243.459 356.804 243.554 356.528 243.554C356.252 243.554 356.014 243.459 355.816 243.26C355.617 243.061 355.523 242.823 355.523 242.546C355.523 242.269 355.617 242.031 355.816 241.832C356.014 241.633 356.252 241.539 356.528 241.539C356.804 241.539 357.041 241.633 357.24 241.832C357.438 242.031 357.526 242.269 357.526 242.546C357.543 242.828 357.438 243.061 357.24 243.26ZM368.713 246.376L363.062 240.725C362.863 240.526 362.587 240.354 362.256 240.21C361.914 240.066 361.61 240 361.334 240H359.557C359.833 240 360.148 240.066 360.479 240.21C360.821 240.354 361.086 240.515 361.285 240.725L366.936 246.376C367.135 246.587 367.228 246.825 367.228 247.101C367.228 247.378 367.135 247.616 366.936 247.815L363.233 251.541C363.393 251.701 363.536 251.817 363.652 251.895C363.768 251.972 363.928 252 364.116 252C364.392 252 364.629 251.906 364.839 251.707L368.713 247.81C368.912 247.611 369 247.373 369 247.096C369 246.819 368.906 246.592 368.713 246.376Z" fill="url(#paint6_linear_1616_8042)" fill-opacity="0.3"/>
<path d="M365.97 270.107C365.97 269.83 365.876 269.592 365.683 269.382L360.032 263.725C359.833 263.526 359.557 263.354 359.226 263.21C358.884 263.066 358.581 263 358.305 263H355.015C354.74 263 354.502 263.105 354.304 263.304C354.105 263.504 354 263.742 354 264.018V267.306C354 267.583 354.066 267.899 354.21 268.231C354.353 268.574 354.513 268.839 354.723 269.039L360.374 274.707C360.573 274.906 360.81 274.994 361.086 274.994C361.362 274.994 361.599 274.9 361.809 274.707L365.683 270.821C365.865 270.622 365.97 270.384 365.97 270.107ZM357.24 266.26C357.041 266.459 356.804 266.554 356.528 266.554C356.252 266.554 356.014 266.459 355.816 266.26C355.617 266.061 355.523 265.823 355.523 265.546C355.523 265.269 355.617 265.031 355.816 264.832C356.014 264.633 356.252 264.539 356.528 264.539C356.804 264.539 357.041 264.633 357.24 264.832C357.438 265.031 357.526 265.269 357.526 265.546C357.543 265.828 357.438 266.061 357.24 266.26ZM368.713 269.376L363.062 263.725C362.863 263.526 362.587 263.354 362.256 263.21C361.914 263.066 361.61 263 361.334 263H359.557C359.833 263 360.148 263.066 360.479 263.21C360.821 263.354 361.086 263.515 361.285 263.725L366.936 269.376C367.135 269.587 367.228 269.825 367.228 270.101C367.228 270.378 367.135 270.616 366.936 270.815L363.233 274.541C363.393 274.701 363.536 274.817 363.652 274.895C363.768 274.972 363.928 275 364.116 275C364.392 275 364.629 274.906 364.839 274.707L368.713 270.81C368.912 270.611 369 270.373 369 270.096C369 269.819 368.906 269.592 368.713 269.376Z" fill="white"/>
<path d="M365.97 270.107C365.97 269.83 365.876 269.592 365.683 269.382L360.032 263.725C359.833 263.526 359.557 263.354 359.226 263.21C358.884 263.066 358.581 263 358.305 263H355.015C354.74 263 354.502 263.105 354.304 263.304C354.105 263.504 354 263.742 354 264.018V267.306C354 267.583 354.066 267.899 354.21 268.231C354.353 268.574 354.513 268.839 354.723 269.039L360.374 274.707C360.573 274.906 360.81 274.994 361.086 274.994C361.362 274.994 361.599 274.9 361.809 274.707L365.683 270.821C365.865 270.622 365.97 270.384 365.97 270.107ZM357.24 266.26C357.041 266.459 356.804 266.554 356.528 266.554C356.252 266.554 356.014 266.459 355.816 266.26C355.617 266.061 355.523 265.823 355.523 265.546C355.523 265.269 355.617 265.031 355.816 264.832C356.014 264.633 356.252 264.539 356.528 264.539C356.804 264.539 357.041 264.633 357.24 264.832C357.438 265.031 357.526 265.269 357.526 265.546C357.543 265.828 357.438 266.061 357.24 266.26ZM368.713 269.376L363.062 263.725C362.863 263.526 362.587 263.354 362.256 263.21C361.914 263.066 361.61 263 361.334 263H359.557C359.833 263 360.148 263.066 360.479 263.21C360.821 263.354 361.086 263.515 361.285 263.725L366.936 269.376C367.135 269.587 367.228 269.825 367.228 270.101C367.228 270.378 367.135 270.616 366.936 270.815L363.233 274.541C363.393 274.701 363.536 274.817 363.652 274.895C363.768 274.972 363.928 275 364.116 275C364.392 275 364.629 274.906 364.839 274.707L368.713 270.81C368.912 270.611 369 270.373 369 270.096C369 269.819 368.906 269.592 368.713 269.376Z" fill="url(#paint7_linear_1616_8042)" fill-opacity="0.3"/>
<circle opacity="0.5" cx="365.5" cy="89.5" r="5.5" fill="url(#paint8_linear_1616_8042)"/>
<circle cx="427" cy="100" r="7" fill="white"/>
<circle cx="427" cy="100" r="7" fill="url(#paint9_linear_1616_8042)" fill-opacity="0.3"/>
<circle cx="429" cy="134" r="5" fill="white"/>
<circle cx="429" cy="134" r="5" fill="url(#paint10_linear_1616_8042)" fill-opacity="0.3"/>
<circle cx="369" cy="148" r="6" fill="url(#paint11_radial_1616_8042)" fill-opacity="0.8"/>
<circle cx="397" cy="123" r="22" fill="white"/>
<circle cx="397" cy="123" r="22" fill="url(#paint12_linear_1616_8042)" fill-opacity="0.3"/>
<path fill-rule="evenodd" clip-rule="evenodd" d="M400.025 113C399.569 113 399.2 113.362 399.2 113.808C399.2 114.254 399.569 114.615 400.025 114.615H407.175C407.631 114.615 408 114.254 408 113.808C408 113.362 407.631 113 407.175 113H400.025ZM401.675 117.308C401.219 117.308 400.85 117.67 400.85 118.116C400.85 118.562 401.219 118.923 401.675 118.923H407.175C407.631 118.923 408 118.562 408 118.116C408 117.67 407.631 117.308 407.175 117.308H401.675ZM400.85 122.963C400.85 122.517 401.219 122.155 401.675 122.155H407.175C407.631 122.155 408 122.517 408 122.963C408 123.409 407.631 123.77 407.175 123.77H401.675C401.219 123.77 400.85 123.409 400.85 122.963ZM402.947 130.091C402.841 129.77 402.681 129.502 402.416 129.288C402.327 129.216 402.238 129.151 402.15 129.085C401.784 128.815 401.397 128.559 400.981 128.376C400.971 128.371 400.961 128.367 400.95 128.362C400.411 128.124 399.73 127.823 399.49 127.788C399.228 127.75 398.992 127.66 398.764 127.572C398.669 127.535 398.574 127.499 398.48 127.467C398.161 127.36 397.895 127.199 397.682 126.985C397.523 126.824 397.363 126.61 397.257 126.396C397.15 126.235 397.097 126.021 397.097 125.807C397.097 125.544 397.133 125.281 397.204 125.019C397.236 124.901 397.259 124.776 397.338 124.684C397.395 124.618 397.46 124.555 397.523 124.495C397.532 124.486 397.54 124.477 397.549 124.468C397.629 124.387 397.722 124.318 397.812 124.249C397.822 124.242 397.832 124.235 397.842 124.227C397.895 124.187 397.948 124.147 398.001 124.093C398.108 123.986 398.214 123.879 398.267 123.718C398.294 123.638 398.334 123.558 398.374 123.477C398.413 123.397 398.453 123.317 398.48 123.236C398.501 123.173 398.522 123.101 398.543 123.025C398.607 122.791 398.788 122.605 398.959 122.433C399.065 122.326 399.171 122.219 399.225 122.058C399.292 121.922 399.339 121.785 399.363 121.649C399.391 121.496 399.412 121.34 399.422 121.185C399.424 121.16 399.424 121.136 399.424 121.113C399.421 120.956 399.381 120.798 399.32 120.654C399.309 120.625 399.298 120.601 399.29 120.584C399.282 120.567 399.282 120.572 399.276 120.554C399.225 120.413 399.119 120.25 399.115 120.1C399.102 119.647 399.057 119.2 399.012 118.792C398.959 118.31 398.852 117.828 398.693 117.399C398.533 116.918 398.32 116.489 398.001 116.061C397.7 115.656 397.306 115.311 396.849 115.097C396.808 115.078 396.766 115.06 396.725 115.043C396.591 114.989 396.443 114.935 396.289 114.881C395.978 114.773 395.658 114.689 395.331 114.65C395.3 114.646 395.268 114.643 395.237 114.64C394.954 114.61 394.669 114.639 394.386 114.666C394.239 114.681 394.099 114.694 393.959 114.722C393.64 114.776 393.374 114.883 393.108 114.99C392.417 115.257 391.779 115.739 391.407 116.382C391.194 116.757 390.981 117.185 390.875 117.614C390.688 118.411 390.584 119.249 390.596 120.056C390.6 120.278 390.528 120.494 390.443 120.7C390.408 120.784 390.366 120.863 390.33 120.947C390.304 121.007 390.29 121.063 390.274 121.123C390.263 121.164 390.252 121.207 390.236 121.255C390.189 121.447 390.227 121.597 390.273 121.78C390.279 121.801 390.284 121.822 390.29 121.844L390.29 121.844C390.343 122.005 390.396 122.165 390.502 122.326C390.556 122.433 390.609 122.487 390.715 122.594C390.715 122.594 390.715 122.594 390.715 122.594C390.768 122.621 390.808 122.634 390.848 122.647C390.934 122.676 390.993 122.752 391.013 122.841L391.141 123.397C391.167 123.477 391.207 123.558 391.247 123.638C391.287 123.718 391.327 123.799 391.353 123.879C391.407 124.04 391.513 124.147 391.619 124.254L392.151 124.789C392.311 124.95 392.417 125.218 392.417 125.486V126.021C392.417 126.182 392.364 126.342 392.311 126.503C392.24 126.646 392.169 126.741 392.098 126.836C392.062 126.884 392.027 126.931 391.992 126.985C391.832 127.199 391.619 127.36 391.407 127.467C391.034 127.681 390.662 127.842 390.29 127.949C389.864 128.056 388.003 128.699 387.63 128.859C387.258 129.02 386.939 129.18 386.62 129.448C386.354 129.716 386.141 130.091 386.088 130.519C385.982 131.001 385.982 131.537 386.035 132.019C386.035 132.666 386.644 133.131 387.281 133.245C387.291 133.247 387.301 133.249 387.311 133.25C389.864 133.732 392.417 134 394.97 134C397.523 134 400.022 133.679 402.416 132.983C402.628 132.929 402.788 132.822 402.947 132.715C402.947 132.715 402.947 132.715 402.947 132.715C402.965 132.643 402.989 132.572 403.012 132.501C403.105 132.222 403.141 131.927 403.154 131.634C403.16 131.49 403.16 131.346 403.16 131.215V131.215C403.16 131.058 403.16 131.042 403.154 131.029C403.147 131.015 403.134 131.004 403.107 130.841C403.08 130.707 403.054 130.586 403.027 130.466C403.001 130.345 402.974 130.225 402.947 130.091Z" fill="white"/>
<path fill-rule="evenodd" clip-rule="evenodd" d="M400.025 113C399.569 113 399.2 113.362 399.2 113.808C399.2 114.254 399.569 114.615 400.025 114.615H407.175C407.631 114.615 408 114.254 408 113.808C408 113.362 407.631 113 407.175 113H400.025ZM401.675 117.308C401.219 117.308 400.85 117.67 400.85 118.116C400.85 118.562 401.219 118.923 401.675 118.923H407.175C407.631 118.923 408 118.562 408 118.116C408 117.67 407.631 117.308 407.175 117.308H401.675ZM400.85 122.963C400.85 122.517 401.219 122.155 401.675 122.155H407.175C407.631 122.155 408 122.517 408 122.963C408 123.409 407.631 123.77 407.175 123.77H401.675C401.219 123.77 400.85 123.409 400.85 122.963ZM402.947 130.091C402.841 129.77 402.681 129.502 402.416 129.288C402.327 129.216 402.238 129.151 402.15 129.085C401.784 128.815 401.397 128.559 400.981 128.376C400.971 128.371 400.961 128.367 400.95 128.362C400.411 128.124 399.73 127.823 399.49 127.788C399.228 127.75 398.992 127.66 398.764 127.572C398.669 127.535 398.574 127.499 398.48 127.467C398.161 127.36 397.895 127.199 397.682 126.985C397.523 126.824 397.363 126.61 397.257 126.396C397.15 126.235 397.097 126.021 397.097 125.807C397.097 125.544 397.133 125.281 397.204 125.019C397.236 124.901 397.259 124.776 397.338 124.684C397.395 124.618 397.46 124.555 397.523 124.495C397.532 124.486 397.54 124.477 397.549 124.468C397.629 124.387 397.722 124.318 397.812 124.249C397.822 124.242 397.832 124.235 397.842 124.227C397.895 124.187 397.948 124.147 398.001 124.093C398.108 123.986 398.214 123.879 398.267 123.718C398.294 123.638 398.334 123.558 398.374 123.477C398.413 123.397 398.453 123.317 398.48 123.236C398.501 123.173 398.522 123.101 398.543 123.025C398.607 122.791 398.788 122.605 398.959 122.433C399.065 122.326 399.171 122.219 399.225 122.058C399.292 121.922 399.339 121.785 399.363 121.649C399.391 121.496 399.412 121.34 399.422 121.185C399.424 121.16 399.424 121.136 399.424 121.113C399.421 120.956 399.381 120.798 399.32 120.654C399.309 120.625 399.298 120.601 399.29 120.584C399.282 120.567 399.282 120.572 399.276 120.554C399.225 120.413 399.119 120.25 399.115 120.1C399.102 119.647 399.057 119.2 399.012 118.792C398.959 118.31 398.852 117.828 398.693 117.399C398.533 116.918 398.32 116.489 398.001 116.061C397.7 115.656 397.306 115.311 396.849 115.097C396.808 115.078 396.766 115.06 396.725 115.043C396.591 114.989 396.443 114.935 396.289 114.881C395.978 114.773 395.658 114.689 395.331 114.65C395.3 114.646 395.268 114.643 395.237 114.64C394.954 114.61 394.669 114.639 394.386 114.666C394.239 114.681 394.099 114.694 393.959 114.722C393.64 114.776 393.374 114.883 393.108 114.99C392.417 115.257 391.779 115.739 391.407 116.382C391.194 116.757 390.981 117.185 390.875 117.614C390.688 118.411 390.584 119.249 390.596 120.056C390.6 120.278 390.528 120.494 390.443 120.7C390.408 120.784 390.366 120.863 390.33 120.947C390.304 121.007 390.29 121.063 390.274 121.123C390.263 121.164 390.252 121.207 390.236 121.255C390.189 121.447 390.227 121.597 390.273 121.78C390.279 121.801 390.284 121.822 390.29 121.844L390.29 121.844C390.343 122.005 390.396 122.165 390.502 122.326C390.556 122.433 390.609 122.487 390.715 122.594C390.715 122.594 390.715 122.594 390.715 122.594C390.768 122.621 390.808 122.634 390.848 122.647C390.934 122.676 390.993 122.752 391.013 122.841L391.141 123.397C391.167 123.477 391.207 123.558 391.247 123.638C391.287 123.718 391.327 123.799 391.353 123.879C391.407 124.04 391.513 124.147 391.619 124.254L392.151 124.789C392.311 124.95 392.417 125.218 392.417 125.486V126.021C392.417 126.182 392.364 126.342 392.311 126.503C392.24 126.646 392.169 126.741 392.098 126.836C392.062 126.884 392.027 126.931 391.992 126.985C391.832 127.199 391.619 127.36 391.407 127.467C391.034 127.681 390.662 127.842 390.29 127.949C389.864 128.056 388.003 128.699 387.63 128.859C387.258 129.02 386.939 129.18 386.62 129.448C386.354 129.716 386.141 130.091 386.088 130.519C385.982 131.001 385.982 131.537 386.035 132.019C386.035 132.666 386.644 133.131 387.281 133.245C387.291 133.247 387.301 133.249 387.311 133.25C389.864 133.732 392.417 134 394.97 134C397.523 134 400.022 133.679 402.416 132.983C402.628 132.929 402.788 132.822 402.947 132.715C402.947 132.715 402.947 132.715 402.947 132.715C402.965 132.643 402.989 132.572 403.012 132.501C403.105 132.222 403.141 131.927 403.154 131.634C403.16 131.49 403.16 131.346 403.16 131.215V131.215C403.16 131.058 403.16 131.042 403.154 131.029C403.147 131.015 403.134 131.004 403.107 130.841C403.08 130.707 403.054 130.586 403.027 130.466C403.001 130.345 402.974 130.225 402.947 130.091Z" fill="white"/>
<circle cx="55.7871" cy="65.5391" r="5" fill="#1561FF"/>
<circle cx="69.7871" cy="65.5391" r="5" fill="#FD8113"/>
<circle cx="83.7871" cy="65.5391" r="5" fill="#0CE18F"/>
<rect x="375" y="195" width="30" height="9" rx="4.5" fill="#F0F5FF"/>
<rect x="375" y="219" width="52" height="9" rx="4.5" fill="#F0F5FF"/>
<rect x="375" y="242" width="37" height="9" rx="4.5" fill="#F0F5FF"/>
<rect x="375" y="265" width="63" height="9" rx="4.5" fill="#F0F5FF"/>
<rect x="14" y="214" width="12" height="12" rx="6" fill="white"/>
<rect x="14" y="214" width="12" height="12" rx="6" fill="url(#paint13_linear_1616_8042)" fill-opacity="0.2"/>
<defs>
<filter id="filter0_d_1616_8042" x="0" y="20" width="508" height="398.113" filterUnits="userSpaceOnUse" color-interpolation-filters="sRGB">
<feFlood flood-opacity="0" result="BackgroundImageFix"/>
<feColorMatrix in="SourceAlpha" type="matrix" values="0 0 0 0 0 0 0 0 0 0 0 0 0 0 0 0 0 0 127 0" result="hardAlpha"/>
<feOffset dy="10"/>
<feGaussianBlur stdDeviation="15"/>
<feColorMatrix type="matrix" values="0 0 0 0 0.0196078 0 0 0 0 0.333333 0 0 0 0 1 0 0 0 0.1 0"/>
<feBlend mode="normal" in2="BackgroundImageFix" result="effect1_dropShadow_1616_8042"/>
<feBlend mode="normal" in="SourceGraphic" in2="effect1_dropShadow_1616_8042" result="shape"/>
</filter>
<radialGradient id="paint0_radial_1616_8042" cx="0" cy="0" r="1" gradientUnits="userSpaceOnUse" gradientTransform="translate(140.765 207.034) rotate(45.3634) scale(14.756 16.3497)">
<stop stop-color="#FD8011"/>
<stop offset="1" stop-color="#FD7F11" stop-opacity="0.2"/>
</radialGradient>
<linearGradient id="paint1_linear_1616_8042" x1="280" y1="199" x2="306.528" y2="225.528" gradientUnits="userSpaceOnUse">
<stop stop-color="#0555FF"/>
<stop offset="1" stop-color="#0555FF" stop-opacity="0.21"/>
</linearGradient>
<linearGradient id="paint2_linear_1616_8042" x1="55" y1="96" x2="81" y2="122" gradientUnits="userSpaceOnUse">
<stop stop-color="#0555FF"/>
<stop offset="1" stop-color="#0555FF" stop-opacity="0.21"/>
</linearGradient>
<linearGradient id="paint3_linear_1616_8042" x1="397" y1="57" x2="397" y2="361" gradientUnits="userSpaceOnUse">
<stop stop-color="#0555FF"/>
<stop offset="1" stop-color="#0555FF" stop-opacity="0.6"/>
</linearGradient>
<linearGradient id="paint4_linear_1616_8042" x1="354" y1="194" x2="365.707" y2="208.634" gradientUnits="userSpaceOnUse">
<stop stop-color="#0555FF"/>
<stop offset="1" stop-color="#0555FF" stop-opacity="0.21"/>
</linearGradient>
<linearGradient id="paint5_linear_1616_8042" x1="354" y1="217" x2="365.707" y2="231.634" gradientUnits="userSpaceOnUse">
<stop stop-color="#0555FF"/>
<stop offset="1" stop-color="#0555FF" stop-opacity="0.21"/>
</linearGradient>
<linearGradient id="paint6_linear_1616_8042" x1="354" y1="240" x2="365.707" y2="254.634" gradientUnits="userSpaceOnUse">
<stop stop-color="#0555FF"/>
<stop offset="1" stop-color="#0555FF" stop-opacity="0.21"/>
</linearGradient>
<linearGradient id="paint7_linear_1616_8042" x1="354" y1="263" x2="365.707" y2="277.634" gradientUnits="userSpaceOnUse">
<stop stop-color="#0555FF"/>
<stop offset="1" stop-color="#0555FF" stop-opacity="0.21"/>
</linearGradient>
<linearGradient id="paint8_linear_1616_8042" x1="360.311" y1="84.275" x2="371.766" y2="91.7671" gradientUnits="userSpaceOnUse">
<stop stop-color="#07D988"/>
<stop offset="1" stop-color="#15F59F" stop-opacity="0.2"/>
</linearGradient>
<linearGradient id="paint9_linear_1616_8042" x1="420" y1="93" x2="434" y2="107" gradientUnits="userSpaceOnUse">
<stop stop-color="#0555FF"/>
<stop offset="1" stop-color="#0555FF" stop-opacity="0.21"/>
</linearGradient>
<linearGradient id="paint10_linear_1616_8042" x1="424" y1="129" x2="434" y2="139" gradientUnits="userSpaceOnUse">
<stop stop-color="#0555FF"/>
<stop offset="1" stop-color="#0555FF" stop-opacity="0.21"/>
</linearGradient>
<radialGradient id="paint11_radial_1616_8042" cx="0" cy="0" r="1" gradientUnits="userSpaceOnUse" gradientTransform="translate(364.412 143.412) rotate(47.3373) scale(12.239 13.5169)">
<stop stop-color="#FD8011"/>
<stop offset="1" stop-color="#FD7F11" stop-opacity="0.2"/>
</radialGradient>
<linearGradient id="paint12_linear_1616_8042" x1="375" y1="101" x2="419" y2="145" gradientUnits="userSpaceOnUse">
<stop stop-color="#0555FF"/>
<stop offset="1" stop-color="#0555FF" stop-opacity="0.21"/>
</linearGradient>
<linearGradient id="paint13_linear_1616_8042" x1="20" y1="214" x2="20" y2="226" gradientUnits="userSpaceOnUse">
<stop stop-color="#0555FF"/>
<stop offset="1" stop-color="#0555FF" stop-opacity="0.21"/>
</linearGradient>
</defs>
</svg>
