<svg width="508" height="440" viewBox="0 0 508 440" fill="none" xmlns="http://www.w3.org/2000/svg">
<rect width="496" height="440" transform="translate(6)" fill="white"/>
<g filter="url(#filter0_d_1616_6345)">
<rect x="30" y="40" width="448" height="338.113" rx="16" fill="white"/>
<rect x="30.5" y="40.5" width="447" height="337.113" rx="15.5" stroke="#F2F6FF"/>
</g>
<rect x="332.409" y="57.4089" width="129.182" height="303.182" rx="10.1572" fill="white"/>
<rect x="332.409" y="57.4089" width="129.182" height="303.182" rx="10.1572" fill="url(#paint0_linear_1616_6345)" fill-opacity="0.06"/>
<rect x="332.409" y="57.4089" width="129.182" height="303.182" rx="10.1572" stroke="#F2F6FF" stroke-width="0.817741"/>
<g filter="url(#filter1_d_1616_6345)">
<rect x="374" y="336" width="72" height="72" rx="16" fill="url(#paint1_linear_1616_6345)"/>
</g>
<path fill-rule="evenodd" clip-rule="evenodd" d="M426.238 354.255H426.241C426.241 354.255 428.098 362.276 426.002 368.408C425.999 368.41 425.997 368.413 425.995 368.416C425.993 368.417 425.992 368.419 425.99 368.421C425.103 371.531 423.519 374.055 421.076 376.846C419.819 378.28 418.876 379.689 418.431 381.606C417.505 385.586 415.337 388.909 412.096 391.448C411.597 391.839 410.599 392.158 410.164 391.916C409.745 391.683 409.462 390.603 409.618 390.031C410.639 386.324 409.832 383.733 406.196 381.673C404.309 380.603 402.676 379.091 401.04 377.576C400.188 376.787 399.334 375.997 398.444 375.268C397.957 374.87 397.142 374.501 396.589 374.622C395.705 374.814 394.844 375.107 393.982 375.4C393.313 375.628 392.643 375.855 391.962 376.036C391.429 376.177 390.517 376.175 390.289 375.865C389.973 375.439 389.904 374.543 390.142 374.045C392.039 370.11 394.985 367.217 398.93 365.248C400.145 364.644 401.309 363.643 402.101 362.541C407.296 355.32 414.264 351.773 423.186 352.011C424.828 352.056 425.978 352.455 426.238 354.255ZM409.345 367.046C409.658 369.862 411.878 371.66 414.637 371.336C417.487 371.001 419.395 368.661 419.067 365.905C418.744 363.225 416.137 361.179 413.514 361.548C410.882 361.917 409.045 364.342 409.345 367.046ZM402.451 381.106C403.971 382.329 404.607 384.991 403.512 386.344C402.367 387.755 399.047 389.806 396.489 391.118C395.126 391.819 393.485 390.504 393.874 389.026C394.6 386.282 395.859 382.629 397.06 381.145C398.156 379.793 400.899 379.855 402.419 381.079L402.434 381.093C402.437 381.096 402.44 381.098 402.443 381.1C402.446 381.101 402.449 381.103 402.451 381.106Z" fill="url(#paint2_linear_1616_6345)"/>
<circle cx="366" cy="232" r="10" fill="white"/>
<circle cx="366" cy="232" r="10" fill="url(#paint3_linear_1616_6345)" fill-opacity="0.3"/>
<rect x="382" y="228" width="35" height="9" rx="4.5" fill="white"/>
<path d="M373.475 131H368.577C368.317 131 368.1 131.173 368.013 131.433L366.496 134.333C366.496 134.333 369.747 134.549 371.611 136.324L373.865 131.909C373.952 131.822 373.995 131.693 373.995 131.606C374.039 131.26 373.779 131 373.475 131ZM365.542 134.376L364.025 131.476C363.939 131.216 363.765 131.043 363.505 131.043H358.564C358.26 131.043 358 131.303 358 131.606C358 131.736 358.043 131.866 358.13 131.909L360.384 136.324C362.291 134.506 365.542 134.333 365.542 134.376ZM366.063 135.502C361.771 135.588 358.39 139.138 358.477 143.423C358.564 147.709 362.118 151.085 366.409 150.998C370.657 150.912 373.995 147.492 373.995 143.25C373.952 138.921 370.397 135.459 366.063 135.502ZM368.143 146.583H363.592V146.237C363.592 145.891 363.635 145.501 363.765 145.155C363.895 144.852 364.069 144.549 364.329 144.332C364.676 143.986 365.109 143.596 365.586 143.337C366.019 143.077 366.409 142.687 366.756 142.298C366.973 141.995 367.06 141.605 367.06 141.259C367.06 140.913 366.93 140.566 366.713 140.35C366.453 140.09 366.063 140.004 365.716 140.047C365.412 140.047 365.066 140.133 364.806 140.307C364.502 140.48 364.199 140.696 363.982 140.956V140.09C364.242 139.83 364.502 139.657 364.762 139.527C365.066 139.398 365.456 139.311 365.846 139.311C366.409 139.268 367.016 139.484 367.45 139.83C367.84 140.177 368.1 140.696 368.057 141.259C368.057 141.735 367.927 142.211 367.71 142.644C367.406 143.12 366.93 143.51 366.453 143.856C365.846 144.289 365.456 144.592 365.239 144.765C365.066 144.938 364.936 145.068 364.806 145.285C364.719 145.501 364.676 145.674 364.676 145.891H368.273V146.67H368.143V146.583Z" fill="white"/>
<path d="M373.475 131H368.577C368.317 131 368.1 131.173 368.013 131.433L366.496 134.333C366.496 134.333 369.747 134.549 371.611 136.324L373.865 131.909C373.952 131.822 373.995 131.693 373.995 131.606C374.039 131.26 373.779 131 373.475 131ZM365.542 134.376L364.025 131.476C363.939 131.216 363.765 131.043 363.505 131.043H358.564C358.26 131.043 358 131.303 358 131.606C358 131.736 358.043 131.866 358.13 131.909L360.384 136.324C362.291 134.506 365.542 134.333 365.542 134.376ZM366.063 135.502C361.771 135.588 358.39 139.138 358.477 143.423C358.564 147.709 362.118 151.085 366.409 150.998C370.657 150.912 373.995 147.492 373.995 143.25C373.952 138.921 370.397 135.459 366.063 135.502ZM368.143 146.583H363.592V146.237C363.592 145.891 363.635 145.501 363.765 145.155C363.895 144.852 364.069 144.549 364.329 144.332C364.676 143.986 365.109 143.596 365.586 143.337C366.019 143.077 366.409 142.687 366.756 142.298C366.973 141.995 367.06 141.605 367.06 141.259C367.06 140.913 366.93 140.566 366.713 140.35C366.453 140.09 366.063 140.004 365.716 140.047C365.412 140.047 365.066 140.133 364.806 140.307C364.502 140.48 364.199 140.696 363.982 140.956V140.09C364.242 139.83 364.502 139.657 364.762 139.527C365.066 139.398 365.456 139.311 365.846 139.311C366.409 139.268 367.016 139.484 367.45 139.83C367.84 140.177 368.1 140.696 368.057 141.259C368.057 141.735 367.927 142.211 367.71 142.644C367.406 143.12 366.93 143.51 366.453 143.856C365.846 144.289 365.456 144.592 365.239 144.765C365.066 144.938 364.936 145.068 364.806 145.285C364.719 145.501 364.676 145.674 364.676 145.891H368.273V146.67H368.143V146.583Z" fill="url(#paint4_linear_1616_6345)" fill-opacity="0.4"/>
<circle cx="366.016" cy="278" r="10" fill="white"/>
<circle cx="366.016" cy="278" r="10" fill="url(#paint5_linear_1616_6345)" fill-opacity="0.3"/>
<path opacity="0.5" d="M373.447 176H368.553C368.298 176 368.085 176.17 368 176.425L366.468 179.354C366.468 179.354 369.702 179.567 371.617 181.35L373.872 176.892C373.957 176.807 374 176.679 374 176.552C374 176.212 373.787 176 373.447 176ZM365.532 179.354L364 176.425C363.915 176.17 363.702 176 363.489 176H358.553C358.213 176 358 176.212 358 176.552C358 176.679 358.043 176.807 358.128 176.892L360.34 181.307C362.255 179.482 365.532 179.312 365.532 179.354ZM366.043 180.458C361.745 180.543 358.34 184.11 358.426 188.398C358.511 192.687 362.085 196.083 366.383 195.998C370.638 195.914 374 192.474 374 188.228C373.915 183.897 370.383 180.416 366.043 180.458ZM367.191 191.116C366.681 191.54 366 191.752 365.319 191.71C364.766 191.752 364.17 191.583 363.617 191.328V190.394C364.085 190.776 364.681 190.988 365.319 190.946C365.745 190.988 366.17 190.818 366.511 190.606C366.809 190.351 366.936 190.012 366.936 189.587C366.936 188.653 366.255 188.228 364.979 188.228H364.383V187.464H364.979C366.128 187.464 366.723 187.039 366.723 186.19C366.723 185.384 366.298 185.001 365.404 185.001C364.894 185.001 364.383 185.214 363.957 185.511V184.619C364.468 184.322 365.021 184.195 365.66 184.237C366.213 184.195 366.723 184.407 367.149 184.704C367.489 185.044 367.702 185.468 367.702 185.936C367.745 186.827 367.149 187.634 366.255 187.761V187.804C366.723 187.846 367.191 188.059 367.489 188.356C367.83 188.695 367.957 189.078 367.915 189.502C367.915 190.139 367.702 190.691 367.191 191.116Z" fill="url(#paint6_linear_1616_6345)"/>
<path d="M373.486 85H368.565C368.31 85 368.098 85.1695 368.013 85.4237L366.486 88.3472C366.486 88.3472 369.71 88.559 371.619 90.3386L373.868 85.8898C373.953 85.805 373.995 85.6779 373.995 85.5508C374.038 85.2542 373.783 85 373.486 85ZM365.552 88.3472L364.025 85.4237C363.94 85.1695 363.728 85 363.516 85H358.552C358.255 85 358 85.2542 358 85.5508C358 85.6779 358.042 85.805 358.127 85.8898L360.376 90.3386C362.285 88.5167 365.552 88.3048 365.552 88.3472ZM366.061 89.4912C361.776 89.5759 358.382 93.135 358.467 97.4143C358.552 101.694 362.116 105.083 366.401 104.998C370.644 104.914 373.995 101.482 373.995 97.2448C373.953 92.9231 370.389 89.4488 366.061 89.4912ZM366.613 100.592H365.679V94.406C365.467 94.6179 365.213 94.745 364.958 94.8721C364.619 95.0416 364.322 95.1687 363.982 95.2111V94.2789C364.407 94.1518 364.831 93.9824 365.213 93.7705C365.552 93.5587 365.892 93.3892 366.231 93.135H366.57C366.613 93.1773 366.613 100.592 366.613 100.592Z" fill="url(#paint7_radial_1616_6345)" fill-opacity="0.5"/>
<rect x="382" y="91" width="56" height="9" rx="4.5" fill="white"/>
<rect x="382" y="136" width="41" height="9" rx="4.5" fill="white"/>
<rect x="382" y="182" width="56" height="9" rx="4.5" fill="white"/>
<rect x="382" y="274" width="56" height="9" rx="4.5" fill="white"/>
<rect x="-0.264151" y="0.264151" width="0.528302" height="295.321" rx="0.264151" transform="matrix(-1 0 0 1 108.717 61.1328)" fill="white"/>
<rect x="-0.264151" y="0.264151" width="0.528302" height="295.321" rx="0.264151" transform="matrix(-1 0 0 1 108.717 61.1328)" fill="url(#paint8_linear_1616_6345)" fill-opacity="0.06"/>
<rect x="-0.264151" y="0.264151" width="0.528302" height="295.321" rx="0.264151" transform="matrix(-1 0 0 1 108.717 61.1328)" stroke="#F2F6FF" stroke-width="0.528302"/>
<rect x="51.1318" y="96" width="40.1509" height="40.1509" rx="20.0755" fill="white"/>
<rect x="51.1318" y="96" width="40.1509" height="40.1509" rx="20.0755" fill="url(#paint9_linear_1616_6345)" fill-opacity="0.1"/>
<circle cx="71.2075" cy="116.076" r="13.7358" fill="white"/>
<circle cx="71.2075" cy="116.076" r="13.7358" fill="url(#paint10_linear_1616_6345)" fill-opacity="0.3"/>
<circle cx="71.2075" cy="164.681" r="13.7358" fill="white"/>
<circle cx="71.2075" cy="164.681" r="13.7358" fill="url(#paint11_linear_1616_6345)" fill-opacity="0.3"/>
<circle cx="71.2075" cy="213.283" r="13.7358" fill="white"/>
<circle cx="71.2075" cy="213.283" r="13.7358" fill="url(#paint12_linear_1616_6345)" fill-opacity="0.3"/>
<circle cx="71.2075" cy="261.888" r="13.7358" fill="white"/>
<circle cx="71.2075" cy="261.888" r="13.7358" fill="url(#paint13_linear_1616_6345)" fill-opacity="0.3"/>
<circle cx="71.2075" cy="310.49" r="13.7358" fill="white"/>
<circle cx="71.2075" cy="310.49" r="13.7358" fill="url(#paint14_linear_1616_6345)" fill-opacity="0.3"/>
<rect x="126.132" y="121.613" width="50.717" height="9.50943" rx="4.75472" fill="#F0F5FF"/>
<circle cx="55.7871" cy="65.5391" r="5" fill="#1561FF"/>
<circle cx="69.7871" cy="65.5391" r="5" fill="#FD8113"/>
<circle cx="83.7871" cy="65.5391" r="5" fill="#0CE18F"/>
<rect x="171" y="161.051" width="110.943" height="9.50943" rx="4.75472" fill="#F0F5FF"/>
<rect x="171" y="179.012" width="83.4717" height="9.50943" rx="4.75472" fill="#F0F5FF"/>
<circle cx="300.93" cy="164.737" r="13.2642" fill="white"/>
<circle cx="300.93" cy="164.737" r="13.2642" fill="url(#paint15_linear_1616_6345)" fill-opacity="0.4"/>
<path fill-rule="evenodd" clip-rule="evenodd" d="M295.367 161.115C295.473 160.982 295.594 160.859 295.727 160.748L295.731 160.745L295.758 160.721H295.759L295.884 160.618C295.896 160.607 295.91 160.598 295.924 160.589L295.939 160.578H295.938L296.539 160.072L296.552 160.061L300.373 157.013C300.746 156.701 301.29 156.704 301.659 157.023L305.416 160.126L305.45 160.157L306.21 160.812H306.212L306.323 160.908C306.402 160.977 306.476 161.049 306.546 161.126C306.986 161.606 307.234 162.24 307.234 162.902V167.055C307.234 168.089 306.633 169.025 305.696 169.45L302.028 171.112L301.924 171.159C301.912 171.164 301.9 171.169 301.889 171.174C301.877 171.179 301.865 171.184 301.853 171.19C301.853 171.19 301.852 171.19 301.85 171.191C301.822 171.203 301.794 171.214 301.765 171.224L300.905 171.604L297.415 172.969C296.972 173.143 296.544 172.687 296.736 172.25L297.594 170.325L297.688 170.068L296.321 169.45C295.385 169.025 294.785 168.089 294.785 167.055V162.769C294.785 162.162 294.994 161.579 295.367 161.115ZM296.444 165.453C296.627 167.202 297.929 168.307 301.009 168.354C304.088 168.307 305.392 167.204 305.574 165.455C305.682 164.417 305.596 163.399 305.506 162.744C305.444 162.294 305.145 161.909 304.722 161.75C303.008 161.107 301.837 161.078 301.011 161.078C299.889 161.078 298.918 161.142 297.294 161.75C296.87 161.909 296.572 162.292 296.51 162.744C296.422 163.397 296.336 164.415 296.444 165.453ZM294.017 158.355H294.235C294.282 158.355 294.323 158.379 294.323 158.405V162.285H294.459C294.487 162.285 294.509 162.309 294.509 162.336V165.783C294.509 165.812 294.486 165.834 294.459 165.834H293.92C293.709 165.834 293.538 165.662 293.536 165.449V162.672C293.536 162.458 293.709 162.285 293.92 162.285H293.93V158.405C293.93 158.379 293.967 158.355 294.017 158.355ZM307.558 165.847H308.096C308.307 165.847 308.478 165.674 308.48 165.462V162.684C308.48 162.47 308.307 162.298 308.096 162.298H307.558C307.529 162.298 307.508 162.321 307.508 162.349V165.796C307.508 165.825 307.531 165.847 307.558 165.847ZM299.417 165.165H298.887C298.77 165.165 298.675 165.068 298.675 164.95V163.292C298.675 163.174 298.77 163.078 298.887 163.078H299.417C299.534 163.078 299.629 163.174 299.629 163.292V164.95C299.629 165.068 299.534 165.165 299.417 165.165ZM303.132 165.165H302.602C302.485 165.165 302.39 165.068 302.39 164.95V163.292C302.39 163.174 302.485 163.078 302.602 163.078H303.132C303.249 163.078 303.344 163.174 303.344 163.292V164.95C303.344 165.068 303.249 165.165 303.132 165.165ZM301.014 166.929C301.367 166.929 301.698 166.818 301.927 166.628C301.984 166.579 301.993 166.492 301.945 166.434C301.896 166.376 301.81 166.367 301.752 166.415C301.572 166.566 301.303 166.653 301.015 166.653C300.722 166.653 300.45 166.564 300.272 166.408C300.214 166.359 300.128 166.365 300.079 166.423C300.03 166.481 300.036 166.568 300.093 166.617C300.318 166.816 300.655 166.929 301.014 166.929Z" fill="white"/>
<rect x="217" y="85" width="65" height="9" rx="4.5" fill="#F0F5FF"/>
<path fill-rule="evenodd" clip-rule="evenodd" d="M210.418 90.6192C210.626 90.8034 210.75 91.0337 210.834 91.3101C210.854 91.4252 210.875 91.5288 210.896 91.6324C210.917 91.7361 210.938 91.8397 210.958 91.9548C210.977 92.0804 210.988 92.1014 210.993 92.1128C210.994 92.1142 210.995 92.1154 210.995 92.1167C211 92.128 211 92.1416 211 92.2772C211 92.3903 211 92.5146 210.995 92.639C210.985 92.8898 210.957 93.1422 210.884 93.3825C210.866 93.4439 210.847 93.5054 210.834 93.5668C210.834 93.5668 210.834 93.5668 210.834 93.5668C210.709 93.6589 210.584 93.751 210.418 93.797C209.476 94.0981 208.514 94.3177 207.535 94.4616C207.524 94.4632 207.514 94.4547 207.514 94.4434L207.514 94.4428V94.4427C207.513 94.4224 207.511 94.3584 207.5 94.2822C207.493 94.2372 207.482 94.1819 207.464 94.1202L207.464 94.119C207.461 94.1106 207.459 94.1021 207.458 94.0935L207.455 94.0767C207.432 93.9505 207.409 93.8377 207.389 93.7361L207.389 93.736L207.389 93.7359L207.388 93.7322C207.367 93.6275 207.349 93.5344 207.33 93.4319L207.318 93.3668L207.299 93.3035C207.172 92.8823 206.954 92.4478 206.551 92.0906C206.463 92.0132 206.357 91.9268 206.281 91.8649L206.281 91.8648L206.281 91.8647C206.269 91.8548 206.257 91.8455 206.247 91.837C206.233 91.8263 206.222 91.8167 206.212 91.8087C206.127 91.738 206.068 91.684 206.014 91.6247L206.01 91.62C205.894 91.4915 205.749 91.393 205.586 91.3331C205.586 91.3331 205.586 91.3331 205.586 91.333C205.583 91.3317 205.565 91.3243 205.528 91.3071C205.482 91.2861 205.424 91.2585 205.353 91.2245C205.302 91.1996 205.237 91.1685 205.168 91.1348L205.168 91.1345L205.167 91.1345L205.167 91.1343C205.068 91.086 204.958 91.0326 204.859 90.9854C204.682 90.9004 204.489 90.8101 204.317 90.7365C204.185 90.6806 203.941 90.578 203.718 90.5427C203.685 90.5375 203.634 90.5238 203.534 90.4843C203.493 90.4677 203.453 90.451 203.403 90.4295L203.403 90.4295L203.363 90.4127C203.298 90.3853 203.216 90.3512 203.129 90.319C203.029 90.282 202.973 90.2383 202.936 90.197C202.883 90.1381 202.825 90.0514 202.794 89.9834C202.78 89.9513 202.772 89.9164 202.774 89.8813C202.778 89.7985 202.788 89.7139 202.806 89.6271C202.806 89.6242 202.808 89.6216 202.811 89.6202C202.812 89.6197 202.813 89.6189 202.814 89.6181L202.923 89.4967C202.928 89.4928 202.935 89.4865 202.946 89.4774L202.953 89.4718C202.995 89.4372 203.089 89.3592 203.185 89.2526L203.199 89.2373C203.283 89.1457 203.516 88.8914 203.635 88.5038L203.637 88.499C203.641 88.4903 203.65 88.4699 203.668 88.4299L203.673 88.418C203.701 88.3568 203.761 88.2254 203.804 88.0804C203.81 88.0618 203.816 88.0427 203.821 88.0233C203.841 87.9526 203.878 87.8878 203.927 87.833L203.934 87.8249L203.948 87.8096C204.027 87.724 204.235 87.4964 204.359 87.1509C204.471 86.8882 204.541 86.607 204.557 86.3122C204.602 86.063 204.61 85.7968 204.546 85.5137C204.52 85.3245 204.462 85.1636 204.421 85.0649C204.381 84.9329 204.343 84.7991 204.335 84.6613C204.318 84.3531 204.29 84.0614 204.264 83.8051C204.216 83.325 204.119 82.8294 203.965 82.3696C203.811 81.8627 203.599 81.3925 203.282 80.9246C203.113 80.6758 202.934 80.4721 202.712 80.2802C202.438 79.995 202.12 79.793 201.819 79.6596C201.782 79.643 201.765 79.5986 201.784 79.5622C201.791 79.548 201.798 79.5339 201.805 79.5198C202.097 78.9672 202.596 78.5527 203.137 78.3224C203.345 78.2303 203.553 78.1382 203.802 78.0921C203.912 78.0679 204.021 78.0564 204.136 78.0443C204.358 78.021 204.581 77.9961 204.802 78.0214C204.828 78.0243 204.853 78.0274 204.878 78.0307C205.132 78.0639 205.38 78.1351 205.62 78.2272C205.742 78.2742 205.86 78.3213 205.966 78.3684C205.995 78.3814 206.024 78.3953 206.054 78.4101C206.424 78.5977 206.732 78.9001 206.964 79.2435C207.214 79.6119 207.38 79.9804 207.505 80.3949C207.63 80.7633 207.713 81.1778 207.755 81.5923C207.791 81.956 207.828 82.3552 207.836 82.7587C207.838 82.8631 207.92 82.9684 207.954 83.0671C207.967 83.1056 207.972 83.1312 207.988 83.1687C208.003 83.2032 208.017 83.2378 208.027 83.2723C208.05 83.3474 208.061 83.4262 208.071 83.5038C208.077 83.5508 208.079 83.5992 208.076 83.6506C208.068 83.7839 208.051 83.9173 208.03 84.049C208.011 84.1666 207.974 84.2841 207.921 84.4017C207.88 84.5399 207.796 84.632 207.713 84.7241C207.582 84.8697 207.439 85.0243 207.393 85.2148C207.375 85.2876 207.357 85.3555 207.339 85.4149C207.318 85.484 207.287 85.5531 207.256 85.6222C207.224 85.6913 207.193 85.7604 207.172 85.8294C207.131 85.9676 207.048 86.0597 206.964 86.1518C206.923 86.1979 206.881 86.2324 206.84 86.267C206.832 86.2734 206.824 86.2799 206.816 86.2864C206.745 86.3459 206.673 86.4056 206.611 86.4742C206.605 86.4811 206.598 86.4881 206.592 86.4949C206.543 86.548 206.491 86.6025 206.446 86.6595C206.383 86.7401 206.366 86.8462 206.341 86.9456C206.285 87.1723 206.257 87.3989 206.257 87.6256C206.257 87.8098 206.299 87.9941 206.382 88.1322C206.465 88.3164 206.59 88.5007 206.715 88.6388C206.881 88.8231 207.089 88.9612 207.339 89.0533C207.413 89.0806 207.486 89.1118 207.561 89.1435C207.74 89.2191 207.924 89.2972 208.129 89.3297C208.317 89.3593 208.849 89.6181 209.271 89.8232C209.275 89.8251 209.279 89.827 209.283 89.8289C209.616 89.9906 209.922 90.2121 210.21 90.4452L210.21 90.4453C210.279 90.5015 210.348 90.5578 210.418 90.6192ZM206.257 93.6379C206.174 93.3616 206.049 93.1313 205.841 92.9471C205.772 92.8857 205.703 92.8294 205.633 92.7731C205.346 92.54 205.04 92.3185 204.707 92.1568C204.703 92.1549 204.699 92.153 204.695 92.1511C204.273 91.946 203.741 91.6872 203.553 91.6576C203.348 91.6251 203.164 91.547 202.985 91.4714C202.91 91.4397 202.836 91.4085 202.763 91.3812C202.513 91.2891 202.305 91.1509 202.139 90.9667C202.014 90.8286 201.889 90.6443 201.806 90.4601C201.723 90.3219 201.681 90.1377 201.681 89.9535C201.681 89.7268 201.709 89.5002 201.765 89.2735C201.79 89.1741 201.806 89.068 201.87 88.9874C201.914 88.9304 201.966 88.8759 202.016 88.8228C202.022 88.816 202.028 88.809 202.035 88.8021C202.097 88.7335 202.169 88.6738 202.24 88.6143C202.248 88.6078 202.256 88.6013 202.263 88.5949C202.305 88.5603 202.347 88.5258 202.388 88.4797C202.471 88.3876 202.555 88.2955 202.596 88.1573C202.617 88.0883 202.648 88.0192 202.679 87.9501C202.711 87.881 202.742 87.8119 202.763 87.7428C202.804 87.6047 202.846 87.4205 202.888 87.2363C202.888 87.2362 202.888 87.2362 202.888 87.2362C203.012 87.1902 203.054 87.1441 203.137 87.052C203.22 86.9599 203.304 86.8678 203.345 86.7296C203.398 86.612 203.434 86.4945 203.454 86.3769C203.475 86.2452 203.492 86.1118 203.5 85.9785C203.503 85.9271 203.501 85.8787 203.495 85.8317C203.485 85.7541 203.474 85.6753 203.451 85.6002C203.441 85.5657 203.427 85.5311 203.412 85.4966C203.396 85.4591 203.391 85.4335 203.378 85.395C203.344 85.2963 203.262 85.191 203.26 85.0866C203.252 84.6831 203.215 84.2839 203.179 83.9202C203.137 83.5057 203.054 83.0912 202.929 82.7228C202.804 82.3083 202.638 81.9398 202.388 81.5714C202.156 81.228 201.847 80.9256 201.478 80.738C201.448 80.7232 201.419 80.7093 201.39 80.6963C201.283 80.6492 201.166 80.6021 201.044 80.555C200.804 80.463 200.556 80.3918 200.302 80.3586C200.277 80.3553 200.251 80.3522 200.226 80.3493C200.005 80.324 199.782 80.3489 199.56 80.3722C199.445 80.3843 199.336 80.3958 199.226 80.42C198.977 80.4661 198.769 80.5582 198.561 80.6503L198.561 80.6503C198.02 80.8806 197.521 81.2951 197.229 81.8477C197.063 82.1701 196.897 82.5386 196.813 82.907C196.667 83.5947 196.585 84.3179 196.596 85.0143C196.598 85.2018 196.543 85.384 196.476 85.5594C196.448 85.6325 196.415 85.7029 196.387 85.7757C196.367 85.8268 196.355 85.8742 196.344 85.9249C196.335 85.9604 196.326 85.9975 196.314 86.0388C196.277 86.2042 196.306 86.3325 196.343 86.4903C196.347 86.5083 196.351 86.5266 196.356 86.5454L196.356 86.5454C196.397 86.6836 196.439 86.8217 196.522 86.9599C196.564 87.052 196.605 87.0981 196.688 87.1902C196.688 87.1902 196.688 87.1902 196.689 87.1902C196.73 87.2132 196.761 87.2247 196.793 87.2362C196.86 87.2613 196.905 87.323 196.92 87.3938L197.021 87.881C197.042 87.9501 197.073 88.0192 197.105 88.0883C197.136 88.1573 197.167 88.2264 197.188 88.2955C197.229 88.4337 197.313 88.5258 197.396 88.6179L197.812 89.0784C197.937 89.2166 198.02 89.4469 198.02 89.6772V90.1377C198.02 90.2759 197.978 90.4141 197.937 90.5522C197.881 90.675 197.826 90.7569 197.77 90.8388C197.742 90.8797 197.715 90.9207 197.687 90.9667C197.562 91.1509 197.396 91.2891 197.229 91.3812C196.938 91.5654 196.647 91.7036 196.356 91.7957C196.023 91.8878 194.567 92.4405 194.275 92.5787C193.984 92.7168 193.735 92.855 193.485 93.0853C193.277 93.3156 193.111 93.6379 193.069 94.0064C192.986 94.4209 192.986 94.8814 193.027 95.2959C193.027 95.3071 193.027 95.3183 193.028 95.3295C193.041 95.8573 193.507 96.2594 194.026 96.3552C196.023 96.7697 198.02 97 200.017 97C202.014 97 203.969 96.7237 205.841 96.1249C206.008 96.0789 206.133 95.9868 206.257 95.8947C206.257 95.8947 206.257 95.8947 206.257 95.8946C206.271 95.8332 206.29 95.7718 206.308 95.7104C206.381 95.4701 206.409 95.2177 206.419 94.9669C206.424 94.8425 206.424 94.7182 206.424 94.6051C206.424 94.4695 206.424 94.4559 206.419 94.4446C206.414 94.4328 206.403 94.4235 206.382 94.2827C206.361 94.1676 206.341 94.064 206.32 93.9604C206.299 93.8567 206.278 93.7531 206.257 93.6379Z" fill="white"/>
<path fill-rule="evenodd" clip-rule="evenodd" d="M210.418 90.6192C210.626 90.8034 210.75 91.0337 210.834 91.3101C210.854 91.4252 210.875 91.5288 210.896 91.6324C210.917 91.7361 210.938 91.8397 210.958 91.9548C210.977 92.0804 210.988 92.1014 210.993 92.1128C210.994 92.1142 210.995 92.1154 210.995 92.1167C211 92.128 211 92.1416 211 92.2772C211 92.3903 211 92.5146 210.995 92.639C210.985 92.8898 210.957 93.1422 210.884 93.3825C210.866 93.4439 210.847 93.5054 210.834 93.5668C210.834 93.5668 210.834 93.5668 210.834 93.5668C210.709 93.6589 210.584 93.751 210.418 93.797C209.476 94.0981 208.514 94.3177 207.535 94.4616C207.524 94.4632 207.514 94.4547 207.514 94.4434L207.514 94.4428V94.4427C207.513 94.4224 207.511 94.3584 207.5 94.2822C207.493 94.2372 207.482 94.1819 207.464 94.1202L207.464 94.119C207.461 94.1106 207.459 94.1021 207.458 94.0935L207.455 94.0767C207.432 93.9505 207.409 93.8377 207.389 93.7361L207.389 93.736L207.389 93.7359L207.388 93.7322C207.367 93.6275 207.349 93.5344 207.33 93.4319L207.318 93.3668L207.299 93.3035C207.172 92.8823 206.954 92.4478 206.551 92.0906C206.463 92.0132 206.357 91.9268 206.281 91.8649L206.281 91.8648L206.281 91.8647C206.269 91.8548 206.257 91.8455 206.247 91.837C206.233 91.8263 206.222 91.8167 206.212 91.8087C206.127 91.738 206.068 91.684 206.014 91.6247L206.01 91.62C205.894 91.4915 205.749 91.393 205.586 91.3331C205.586 91.3331 205.586 91.3331 205.586 91.333C205.583 91.3317 205.565 91.3243 205.528 91.3071C205.482 91.2861 205.424 91.2585 205.353 91.2245C205.302 91.1996 205.237 91.1685 205.168 91.1348L205.168 91.1345L205.167 91.1345L205.167 91.1343C205.068 91.086 204.958 91.0326 204.859 90.9854C204.682 90.9004 204.489 90.8101 204.317 90.7365C204.185 90.6806 203.941 90.578 203.718 90.5427C203.685 90.5375 203.634 90.5238 203.534 90.4843C203.493 90.4677 203.453 90.451 203.403 90.4295L203.403 90.4295L203.363 90.4127C203.298 90.3853 203.216 90.3512 203.129 90.319C203.029 90.282 202.973 90.2383 202.936 90.197C202.883 90.1381 202.825 90.0514 202.794 89.9834C202.78 89.9513 202.772 89.9164 202.774 89.8813C202.778 89.7985 202.788 89.7139 202.806 89.6271C202.806 89.6242 202.808 89.6216 202.811 89.6202C202.812 89.6197 202.813 89.6189 202.814 89.6181L202.923 89.4967C202.928 89.4928 202.935 89.4865 202.946 89.4774L202.953 89.4718C202.995 89.4372 203.089 89.3592 203.185 89.2526L203.199 89.2373C203.283 89.1457 203.516 88.8914 203.635 88.5038L203.637 88.499C203.641 88.4903 203.65 88.4699 203.668 88.4299L203.673 88.418C203.701 88.3568 203.761 88.2254 203.804 88.0804C203.81 88.0618 203.816 88.0427 203.821 88.0233C203.841 87.9526 203.878 87.8878 203.927 87.833L203.934 87.8249L203.948 87.8096C204.027 87.724 204.235 87.4964 204.359 87.1509C204.471 86.8882 204.541 86.607 204.557 86.3122C204.602 86.063 204.61 85.7968 204.546 85.5137C204.52 85.3245 204.462 85.1636 204.421 85.0649C204.381 84.9329 204.343 84.7991 204.335 84.6613C204.318 84.3531 204.29 84.0614 204.264 83.8051C204.216 83.325 204.119 82.8294 203.965 82.3696C203.811 81.8627 203.599 81.3925 203.282 80.9246C203.113 80.6758 202.934 80.4721 202.712 80.2802C202.438 79.995 202.12 79.793 201.819 79.6596C201.782 79.643 201.765 79.5986 201.784 79.5622C201.791 79.548 201.798 79.5339 201.805 79.5198C202.097 78.9672 202.596 78.5527 203.137 78.3224C203.345 78.2303 203.553 78.1382 203.802 78.0921C203.912 78.0679 204.021 78.0564 204.136 78.0443C204.358 78.021 204.581 77.9961 204.802 78.0214C204.828 78.0243 204.853 78.0274 204.878 78.0307C205.132 78.0639 205.38 78.1351 205.62 78.2272C205.742 78.2742 205.86 78.3213 205.966 78.3684C205.995 78.3814 206.024 78.3953 206.054 78.4101C206.424 78.5977 206.732 78.9001 206.964 79.2435C207.214 79.6119 207.38 79.9804 207.505 80.3949C207.63 80.7633 207.713 81.1778 207.755 81.5923C207.791 81.956 207.828 82.3552 207.836 82.7587C207.838 82.8631 207.92 82.9684 207.954 83.0671C207.967 83.1056 207.972 83.1312 207.988 83.1687C208.003 83.2032 208.017 83.2378 208.027 83.2723C208.05 83.3474 208.061 83.4262 208.071 83.5038C208.077 83.5508 208.079 83.5992 208.076 83.6506C208.068 83.7839 208.051 83.9173 208.03 84.049C208.011 84.1666 207.974 84.2841 207.921 84.4017C207.88 84.5399 207.796 84.632 207.713 84.7241C207.582 84.8697 207.439 85.0243 207.393 85.2148C207.375 85.2876 207.357 85.3555 207.339 85.4149C207.318 85.484 207.287 85.5531 207.256 85.6222C207.224 85.6913 207.193 85.7604 207.172 85.8294C207.131 85.9676 207.048 86.0597 206.964 86.1518C206.923 86.1979 206.881 86.2324 206.84 86.267C206.832 86.2734 206.824 86.2799 206.816 86.2864C206.745 86.3459 206.673 86.4056 206.611 86.4742C206.605 86.4811 206.598 86.4881 206.592 86.4949C206.543 86.548 206.491 86.6025 206.446 86.6595C206.383 86.7401 206.366 86.8462 206.341 86.9456C206.285 87.1723 206.257 87.3989 206.257 87.6256C206.257 87.8098 206.299 87.9941 206.382 88.1322C206.465 88.3164 206.59 88.5007 206.715 88.6388C206.881 88.8231 207.089 88.9612 207.339 89.0533C207.413 89.0806 207.486 89.1118 207.561 89.1435C207.74 89.2191 207.924 89.2972 208.129 89.3297C208.317 89.3593 208.849 89.6181 209.271 89.8232C209.275 89.8251 209.279 89.827 209.283 89.8289C209.616 89.9906 209.922 90.2121 210.21 90.4452L210.21 90.4453C210.279 90.5015 210.348 90.5578 210.418 90.6192ZM206.257 93.6379C206.174 93.3616 206.049 93.1313 205.841 92.9471C205.772 92.8857 205.703 92.8294 205.633 92.7731C205.346 92.54 205.04 92.3185 204.707 92.1568C204.703 92.1549 204.699 92.153 204.695 92.1511C204.273 91.946 203.741 91.6872 203.553 91.6576C203.348 91.6251 203.164 91.547 202.985 91.4714C202.91 91.4397 202.836 91.4085 202.763 91.3812C202.513 91.2891 202.305 91.1509 202.139 90.9667C202.014 90.8286 201.889 90.6443 201.806 90.4601C201.723 90.3219 201.681 90.1377 201.681 89.9535C201.681 89.7268 201.709 89.5002 201.765 89.2735C201.79 89.1741 201.806 89.068 201.87 88.9874C201.914 88.9304 201.966 88.8759 202.016 88.8228C202.022 88.816 202.028 88.809 202.035 88.8021C202.097 88.7335 202.169 88.6738 202.24 88.6143C202.248 88.6078 202.256 88.6013 202.263 88.5949C202.305 88.5603 202.347 88.5258 202.388 88.4797C202.471 88.3876 202.555 88.2955 202.596 88.1573C202.617 88.0883 202.648 88.0192 202.679 87.9501C202.711 87.881 202.742 87.8119 202.763 87.7428C202.804 87.6047 202.846 87.4205 202.888 87.2363C202.888 87.2362 202.888 87.2362 202.888 87.2362C203.012 87.1902 203.054 87.1441 203.137 87.052C203.22 86.9599 203.304 86.8678 203.345 86.7296C203.398 86.612 203.434 86.4945 203.454 86.3769C203.475 86.2452 203.492 86.1118 203.5 85.9785C203.503 85.9271 203.501 85.8787 203.495 85.8317C203.485 85.7541 203.474 85.6753 203.451 85.6002C203.441 85.5657 203.427 85.5311 203.412 85.4966C203.396 85.4591 203.391 85.4335 203.378 85.395C203.344 85.2963 203.262 85.191 203.26 85.0866C203.252 84.6831 203.215 84.2839 203.179 83.9202C203.137 83.5057 203.054 83.0912 202.929 82.7228C202.804 82.3083 202.638 81.9398 202.388 81.5714C202.156 81.228 201.847 80.9256 201.478 80.738C201.448 80.7232 201.419 80.7093 201.39 80.6963C201.283 80.6492 201.166 80.6021 201.044 80.555C200.804 80.463 200.556 80.3918 200.302 80.3586C200.277 80.3553 200.251 80.3522 200.226 80.3493C200.005 80.324 199.782 80.3489 199.56 80.3722C199.445 80.3843 199.336 80.3958 199.226 80.42C198.977 80.4661 198.769 80.5582 198.561 80.6503L198.561 80.6503C198.02 80.8806 197.521 81.2951 197.229 81.8477C197.063 82.1701 196.897 82.5386 196.813 82.907C196.667 83.5947 196.585 84.3179 196.596 85.0143C196.598 85.2018 196.543 85.384 196.476 85.5594C196.448 85.6325 196.415 85.7029 196.387 85.7757C196.367 85.8268 196.355 85.8742 196.344 85.9249C196.335 85.9604 196.326 85.9975 196.314 86.0388C196.277 86.2042 196.306 86.3325 196.343 86.4903C196.347 86.5083 196.351 86.5266 196.356 86.5454L196.356 86.5454C196.397 86.6836 196.439 86.8217 196.522 86.9599C196.564 87.052 196.605 87.0981 196.688 87.1902C196.688 87.1902 196.688 87.1902 196.689 87.1902C196.73 87.2132 196.761 87.2247 196.793 87.2362C196.86 87.2613 196.905 87.323 196.92 87.3938L197.021 87.881C197.042 87.9501 197.073 88.0192 197.105 88.0883C197.136 88.1573 197.167 88.2264 197.188 88.2955C197.229 88.4337 197.313 88.5258 197.396 88.6179L197.812 89.0784C197.937 89.2166 198.02 89.4469 198.02 89.6772V90.1377C198.02 90.2759 197.978 90.4141 197.937 90.5522C197.881 90.675 197.826 90.7569 197.77 90.8388C197.742 90.8797 197.715 90.9207 197.687 90.9667C197.562 91.1509 197.396 91.2891 197.229 91.3812C196.938 91.5654 196.647 91.7036 196.356 91.7957C196.023 91.8878 194.567 92.4405 194.275 92.5787C193.984 92.7168 193.735 92.855 193.485 93.0853C193.277 93.3156 193.111 93.6379 193.069 94.0064C192.986 94.4209 192.986 94.8814 193.027 95.2959C193.027 95.3071 193.027 95.3183 193.028 95.3295C193.041 95.8573 193.507 96.2594 194.026 96.3552C196.023 96.7697 198.02 97 200.017 97C202.014 97 203.969 96.7237 205.841 96.1249C206.008 96.0789 206.133 95.9868 206.257 95.8947C206.257 95.8947 206.257 95.8947 206.257 95.8946C206.271 95.8332 206.29 95.7718 206.308 95.7104C206.381 95.4701 206.409 95.2177 206.419 94.9669C206.424 94.8425 206.424 94.7182 206.424 94.6051C206.424 94.4695 206.424 94.4559 206.419 94.4446C206.414 94.4328 206.403 94.4235 206.382 94.2827C206.361 94.1676 206.341 94.064 206.32 93.9604C206.299 93.8567 206.278 93.7531 206.257 93.6379Z" fill="url(#paint16_linear_1616_6345)" fill-opacity="0.3"/>
<circle cx="300.93" cy="88.2643" r="13.2642" fill="white"/>
<circle cx="300.93" cy="88.2643" r="13.2642" fill="url(#paint17_linear_1616_6345)" fill-opacity="0.4"/>
<path fill-rule="evenodd" clip-rule="evenodd" d="M295.367 84.6421C295.473 84.5096 295.594 84.3863 295.727 84.2756L295.731 84.272L295.758 84.2484H295.759L295.884 84.145C295.896 84.1346 295.91 84.1252 295.924 84.1161L295.939 84.105H295.938L296.539 83.5989L296.552 83.588L300.373 80.5399C300.746 80.2279 301.29 80.2315 301.659 80.5508L305.416 83.6533L305.45 83.6841L306.21 84.3391H306.212L306.323 84.4352C306.402 84.5042 306.476 84.5768 306.546 84.653C306.986 85.1337 307.234 85.7669 307.234 86.4292V90.5821C307.234 91.6162 306.633 92.5524 305.696 92.977L302.028 94.6389L301.924 94.686C301.912 94.6915 301.9 94.6965 301.889 94.7014C301.877 94.7064 301.865 94.7114 301.853 94.7169C301.853 94.7169 301.852 94.7169 301.85 94.7187C301.822 94.7301 301.794 94.741 301.765 94.7513L300.905 95.1315L297.415 96.4959C296.972 96.67 296.544 96.2146 296.736 95.7774L297.594 93.8524L297.688 93.5958L296.321 92.977C295.385 92.5524 294.785 91.6162 294.785 90.5821V86.2967C294.785 85.6889 294.994 85.1065 295.367 84.6421ZM296.444 88.9801C296.627 90.729 297.929 91.8339 301.009 91.8811C304.088 91.8339 305.392 90.7309 305.574 88.9819C305.682 87.9441 305.596 86.9263 305.506 86.2713C305.444 85.8214 305.145 85.4367 304.722 85.2771C303.008 84.6348 301.837 84.6058 301.011 84.6058C299.889 84.6058 298.918 84.6693 297.294 85.2771C296.87 85.4367 296.572 85.8196 296.51 86.2713C296.422 86.9245 296.336 87.9423 296.444 88.9801ZM294.017 81.8828H294.235C294.282 81.8828 294.323 81.906 294.323 81.9328V85.8125H294.459C294.487 85.8125 294.509 85.8361 294.509 85.8633V89.3105C294.509 89.3395 294.486 89.3613 294.459 89.3613H293.92C293.709 89.3613 293.538 89.1889 293.536 88.9766V86.1989C293.536 85.9849 293.709 85.8125 293.92 85.8125H293.93V81.9328C293.93 81.906 293.967 81.8828 294.017 81.8828ZM307.558 89.374H308.096C308.307 89.374 308.478 89.2016 308.48 88.9893V86.2116C308.48 85.9976 308.307 85.8252 308.096 85.8252H307.558C307.529 85.8252 307.508 85.8488 307.508 85.876V89.3232C307.508 89.3522 307.531 89.374 307.558 89.374ZM299.417 88.6919H298.887C298.77 88.6919 298.675 88.5958 298.675 88.4778V86.8196C298.675 86.7016 298.77 86.6055 298.887 86.6055H299.417C299.534 86.6055 299.629 86.7016 299.629 86.8196V88.4778C299.629 88.5958 299.534 88.6919 299.417 88.6919ZM303.132 88.6919H302.602C302.485 88.6919 302.39 88.5958 302.39 88.4778V86.8196C302.39 86.7016 302.485 86.6055 302.602 86.6055H303.132C303.249 86.6055 303.344 86.7016 303.344 86.8196V88.4778C303.344 88.5958 303.249 88.6919 303.132 88.6919ZM301.014 90.4563C301.367 90.4563 301.698 90.3456 301.927 90.1551C301.984 90.1061 301.993 90.019 301.945 89.961C301.896 89.9029 301.81 89.8938 301.752 89.9428C301.572 90.0934 301.303 90.1805 301.015 90.1805C300.722 90.1805 300.45 90.0916 300.272 89.9356C300.214 89.8866 300.128 89.892 300.079 89.9501C300.03 90.0081 300.036 90.0952 300.093 90.1442C300.318 90.3438 300.655 90.4563 301.014 90.4563Z" fill="white"/>
<circle cx="300.93" cy="222.264" r="13.2642" fill="white"/>
<circle cx="300.93" cy="222.264" r="13.2642" fill="url(#paint18_linear_1616_6345)" fill-opacity="0.4"/>
<rect x="148.51" y="209.51" width="132.979" height="54.9791" rx="5.48955" fill="white"/>
<rect x="148.51" y="209.51" width="132.979" height="54.9791" rx="5.48955" fill="url(#paint19_linear_1616_6345)" fill-opacity="0.06"/>
<rect x="148.51" y="209.51" width="132.979" height="54.9791" rx="5.48955" stroke="#F2F6FF" stroke-width="1.02091"/>
<path d="M201.397 225.835C201.397 225.835 201.396 225.836 201.396 225.836C201.397 227.954 203.062 229.67 205.116 229.67C207.17 229.67 208.833 227.954 208.833 225.835C208.833 223.716 207.171 222 205.118 222C203.064 222 201.399 223.716 201.398 225.834C201.398 225.835 201.398 225.835 201.397 225.835Z" fill="white"/>
<path d="M201.397 225.835C201.397 225.835 201.396 225.836 201.396 225.836C201.397 227.954 203.062 229.67 205.116 229.67C207.17 229.67 208.833 227.954 208.833 225.835C208.833 223.716 207.171 222 205.118 222C203.064 222 201.399 223.716 201.398 225.834C201.398 225.835 201.398 225.835 201.397 225.835Z" fill="white"/>
<path d="M205.944 239.06C205.945 239.06 205.945 239.06 205.945 239.06C205.336 238.193 204.353 238.193 203.746 239.06L195.295 251.115C194.687 251.981 195.05 252.683 196.103 252.683H234.813C235.868 252.683 236.221 251.983 235.609 251.118L222.222 232.241C221.605 231.371 220.614 231.375 220.001 232.241L211.795 243.811C211.177 244.683 209.882 244.679 209.269 243.804L205.944 239.061C205.944 239.061 205.944 239.06 205.944 239.06Z" fill="white"/>
<path d="M205.944 239.06C205.945 239.06 205.945 239.06 205.945 239.06C205.336 238.193 204.353 238.193 203.746 239.06L195.295 251.115C194.687 251.981 195.05 252.683 196.103 252.683H234.813C235.868 252.683 236.221 251.983 235.609 251.118L222.222 232.241C221.605 231.371 220.614 231.375 220.001 232.241L211.795 243.811C211.177 244.683 209.882 244.679 209.269 243.804L205.944 239.061C205.944 239.061 205.944 239.06 205.944 239.06Z" fill="white"/>
<path fill-rule="evenodd" clip-rule="evenodd" d="M295.367 218.642C295.473 218.51 295.594 218.386 295.727 218.276L295.731 218.272L295.758 218.248H295.759L295.884 218.145C295.896 218.135 295.91 218.125 295.924 218.116L295.939 218.105H295.938L296.539 217.599L296.552 217.588L300.373 214.54C300.746 214.228 301.29 214.232 301.659 214.551L305.416 217.653L305.45 217.684L306.21 218.339H306.212L306.323 218.435C306.402 218.504 306.476 218.577 306.546 218.653C306.986 219.134 307.234 219.767 307.234 220.429V224.582C307.234 225.616 306.633 226.552 305.696 226.977L302.028 228.639L301.924 228.686C301.912 228.691 301.9 228.696 301.889 228.701C301.877 228.706 301.865 228.711 301.853 228.717C301.853 228.717 301.852 228.717 301.85 228.719C301.822 228.73 301.794 228.741 301.765 228.751L300.905 229.131L297.415 230.496C296.972 230.67 296.544 230.215 296.736 229.777L297.594 227.852L297.688 227.596L296.321 226.977C295.385 226.552 294.785 225.616 294.785 224.582V220.297C294.785 219.689 294.994 219.107 295.367 218.642ZM296.444 222.98C296.627 224.729 297.929 225.834 301.009 225.881C304.088 225.834 305.392 224.731 305.574 222.982C305.682 221.944 305.596 220.926 305.506 220.271C305.444 219.821 305.145 219.437 304.722 219.277C303.008 218.635 301.837 218.606 301.011 218.606C299.889 218.606 298.918 218.669 297.294 219.277C296.87 219.437 296.572 219.82 296.51 220.271C296.422 220.924 296.336 221.942 296.444 222.98ZM294.017 215.883H294.235C294.282 215.883 294.323 215.906 294.323 215.933V219.812H294.459C294.487 219.812 294.509 219.836 294.509 219.863V223.31C294.509 223.339 294.486 223.361 294.459 223.361H293.92C293.709 223.361 293.538 223.189 293.536 222.977V220.199C293.536 219.985 293.709 219.812 293.92 219.812H293.93V215.933C293.93 215.906 293.967 215.883 294.017 215.883ZM307.558 223.374H308.096C308.307 223.374 308.478 223.202 308.48 222.989V220.212C308.48 219.998 308.307 219.825 308.096 219.825H307.558C307.529 219.825 307.508 219.849 307.508 219.876V223.323C307.508 223.352 307.531 223.374 307.558 223.374ZM299.417 222.692H298.887C298.77 222.692 298.675 222.596 298.675 222.478V220.82C298.675 220.702 298.77 220.605 298.887 220.605H299.417C299.534 220.605 299.629 220.702 299.629 220.82V222.478C299.629 222.596 299.534 222.692 299.417 222.692ZM303.132 222.692H302.602C302.485 222.692 302.39 222.596 302.39 222.478V220.82C302.39 220.702 302.485 220.605 302.602 220.605H303.132C303.249 220.605 303.344 220.702 303.344 220.82V222.478C303.344 222.596 303.249 222.692 303.132 222.692ZM301.014 224.456C301.367 224.456 301.698 224.346 301.927 224.155C301.984 224.106 301.993 224.019 301.945 223.961C301.896 223.903 301.81 223.894 301.752 223.943C301.572 224.093 301.303 224.181 301.015 224.181C300.722 224.181 300.45 224.092 300.272 223.936C300.214 223.887 300.128 223.892 300.079 223.95C300.03 224.008 300.036 224.095 300.093 224.144C300.318 224.344 300.655 224.456 301.014 224.456Z" fill="white"/>
<rect x="14" y="214" width="12" height="12" rx="6" fill="white"/>
<rect x="14" y="214" width="12" height="12" rx="6" fill="url(#paint20_linear_1616_6345)" fill-opacity="0.2"/>
<defs>
<filter id="filter0_d_1616_6345" x="0" y="20" width="508" height="398.113" filterUnits="userSpaceOnUse" color-interpolation-filters="sRGB">
<feFlood flood-opacity="0" result="BackgroundImageFix"/>
<feColorMatrix in="SourceAlpha" type="matrix" values="0 0 0 0 0 0 0 0 0 0 0 0 0 0 0 0 0 0 127 0" result="hardAlpha"/>
<feOffset dy="10"/>
<feGaussianBlur stdDeviation="15"/>
<feColorMatrix type="matrix" values="0 0 0 0 0.0196078 0 0 0 0 0.333333 0 0 0 0 1 0 0 0 0.1 0"/>
<feBlend mode="normal" in2="BackgroundImageFix" result="effect1_dropShadow_1616_6345"/>
<feBlend mode="normal" in="SourceGraphic" in2="effect1_dropShadow_1616_6345" result="shape"/>
</filter>
<filter id="filter1_d_1616_6345" x="364" y="336" width="92" height="92" filterUnits="userSpaceOnUse" color-interpolation-filters="sRGB">
<feFlood flood-opacity="0" result="BackgroundImageFix"/>
<feColorMatrix in="SourceAlpha" type="matrix" values="0 0 0 0 0 0 0 0 0 0 0 0 0 0 0 0 0 0 127 0" result="hardAlpha"/>
<feOffset dy="10"/>
<feGaussianBlur stdDeviation="5"/>
<feComposite in2="hardAlpha" operator="out"/>
<feColorMatrix type="matrix" values="0 0 0 0 0.0509804 0 0 0 0 0.894118 0 0 0 0 0.572549 0 0 0 0.1 0"/>
<feBlend mode="normal" in2="BackgroundImageFix" result="effect1_dropShadow_1616_6345"/>
<feBlend mode="normal" in="SourceGraphic" in2="effect1_dropShadow_1616_6345" result="shape"/>
</filter>
<linearGradient id="paint0_linear_1616_6345" x1="397" y1="57" x2="397" y2="361" gradientUnits="userSpaceOnUse">
<stop stop-color="#0555FF"/>
<stop offset="1" stop-color="#0555FF" stop-opacity="0.6"/>
</linearGradient>
<linearGradient id="paint1_linear_1616_6345" x1="376.038" y1="337.8" x2="451.011" y2="386.839" gradientUnits="userSpaceOnUse">
<stop stop-color="#07D988"/>
<stop offset="1" stop-color="#15F59F"/>
</linearGradient>
<linearGradient id="paint2_linear_1616_6345" x1="426.72" y1="351.641" x2="393.957" y2="390.698" gradientUnits="userSpaceOnUse">
<stop offset="0.474963" stop-color="#FCFCFC"/>
<stop offset="1" stop-color="#FCFCFC" stop-opacity="0.6"/>
</linearGradient>
<linearGradient id="paint3_linear_1616_6345" x1="356" y1="222" x2="376" y2="242" gradientUnits="userSpaceOnUse">
<stop stop-color="#0555FF"/>
<stop offset="1" stop-color="#0555FF" stop-opacity="0.21"/>
</linearGradient>
<linearGradient id="paint4_linear_1616_6345" x1="358" y1="131" x2="377.512" y2="146.61" gradientUnits="userSpaceOnUse">
<stop stop-color="#0555FF"/>
<stop offset="1" stop-color="#0555FF" stop-opacity="0.21"/>
</linearGradient>
<linearGradient id="paint5_linear_1616_6345" x1="356.016" y1="268" x2="376.016" y2="288" gradientUnits="userSpaceOnUse">
<stop stop-color="#0555FF"/>
<stop offset="1" stop-color="#0555FF" stop-opacity="0.21"/>
</linearGradient>
<linearGradient id="paint6_linear_1616_6345" x1="358.453" y1="176.5" x2="377.128" y2="186.272" gradientUnits="userSpaceOnUse">
<stop stop-color="#07D988"/>
<stop offset="1" stop-color="#15F59F" stop-opacity="0.2"/>
</linearGradient>
<radialGradient id="paint7_radial_1616_6345" cx="0" cy="0" r="1" gradientUnits="userSpaceOnUse" gradientTransform="translate(359.882 87.3529) rotate(53.6003) scale(18.6359 19.7268)">
<stop stop-color="#FD8011"/>
<stop offset="1" stop-color="#FD7F11" stop-opacity="0.2"/>
</radialGradient>
<linearGradient id="paint8_linear_1616_6345" x1="0.528302" y1="0" x2="0.528302" y2="295.849" gradientUnits="userSpaceOnUse">
<stop stop-color="#0555FF"/>
<stop offset="1" stop-color="#0555FF" stop-opacity="0.6"/>
</linearGradient>
<linearGradient id="paint9_linear_1616_6345" x1="51.1318" y1="96" x2="91.2828" y2="136.151" gradientUnits="userSpaceOnUse">
<stop stop-color="#0555FF"/>
<stop offset="1" stop-color="#0555FF" stop-opacity="0.21"/>
</linearGradient>
<linearGradient id="paint10_linear_1616_6345" x1="57.4717" y1="102.34" x2="84.9434" y2="129.812" gradientUnits="userSpaceOnUse">
<stop stop-color="#0555FF"/>
<stop offset="1" stop-color="#0555FF" stop-opacity="0.21"/>
</linearGradient>
<linearGradient id="paint11_linear_1616_6345" x1="57.4717" y1="150.945" x2="84.9434" y2="178.417" gradientUnits="userSpaceOnUse">
<stop stop-color="#0555FF"/>
<stop offset="1" stop-color="#0555FF" stop-opacity="0.21"/>
</linearGradient>
<linearGradient id="paint12_linear_1616_6345" x1="57.4717" y1="199.547" x2="84.9434" y2="227.019" gradientUnits="userSpaceOnUse">
<stop stop-color="#0555FF"/>
<stop offset="1" stop-color="#0555FF" stop-opacity="0.21"/>
</linearGradient>
<linearGradient id="paint13_linear_1616_6345" x1="57.4717" y1="248.152" x2="84.9434" y2="275.624" gradientUnits="userSpaceOnUse">
<stop stop-color="#0555FF"/>
<stop offset="1" stop-color="#0555FF" stop-opacity="0.21"/>
</linearGradient>
<linearGradient id="paint14_linear_1616_6345" x1="57.4717" y1="296.754" x2="84.9434" y2="324.226" gradientUnits="userSpaceOnUse">
<stop stop-color="#0555FF"/>
<stop offset="1" stop-color="#0555FF" stop-opacity="0.21"/>
</linearGradient>
<linearGradient id="paint15_linear_1616_6345" x1="287.666" y1="151.473" x2="314.195" y2="178.001" gradientUnits="userSpaceOnUse">
<stop stop-color="#0555FF"/>
<stop offset="1" stop-color="#0555FF" stop-opacity="0.21"/>
</linearGradient>
<linearGradient id="paint16_linear_1616_6345" x1="193" y1="78" x2="211.972" y2="95.9737" gradientUnits="userSpaceOnUse">
<stop stop-color="#0555FF"/>
<stop offset="1" stop-color="#0555FF" stop-opacity="0.21"/>
</linearGradient>
<linearGradient id="paint17_linear_1616_6345" x1="287.666" y1="75" x2="314.195" y2="101.528" gradientUnits="userSpaceOnUse">
<stop stop-color="#0555FF"/>
<stop offset="1" stop-color="#0555FF" stop-opacity="0.21"/>
</linearGradient>
<linearGradient id="paint18_linear_1616_6345" x1="287.666" y1="209" x2="314.195" y2="235.528" gradientUnits="userSpaceOnUse">
<stop stop-color="#0555FF"/>
<stop offset="1" stop-color="#0555FF" stop-opacity="0.21"/>
</linearGradient>
<linearGradient id="paint19_linear_1616_6345" x1="215" y1="209" x2="215" y2="265" gradientUnits="userSpaceOnUse">
<stop stop-color="#0555FF"/>
<stop offset="1" stop-color="#0555FF" stop-opacity="0.6"/>
</linearGradient>
<linearGradient id="paint20_linear_1616_6345" x1="20" y1="214" x2="20" y2="226" gradientUnits="userSpaceOnUse">
<stop stop-color="#0555FF"/>
<stop offset="1" stop-color="#0555FF" stop-opacity="0.21"/>
</linearGradient>
</defs>
</svg>
