<svg width="508" height="440" viewBox="0 0 508 440" fill="none" xmlns="http://www.w3.org/2000/svg">
<rect width="496" height="440" transform="translate(6)" fill="white"/>
<rect x="13" y="215" width="10" height="10" rx="5" fill="white"/>
<rect x="13" y="215" width="10" height="10" rx="5" fill="url(#paint0_linear_1616_8391)" fill-opacity="0.2"/>
<rect x="382" y="31" width="14" height="14" rx="7" fill="white"/>
<rect x="382" y="31" width="14" height="14" rx="7" fill="url(#paint1_linear_1616_8391)" fill-opacity="0.2"/>
<g filter="url(#filter0_d_1616_8391)">
<rect x="30" y="40" width="448" height="338.113" rx="16" fill="white"/>
<rect x="30.5" y="40.5" width="447" height="337.113" rx="15.5" stroke="#F2F6FF"/>
</g>
<rect x="46.4089" y="57.4089" width="129.182" height="303.182" rx="9.65563" fill="white"/>
<rect x="46.4089" y="57.4089" width="129.182" height="303.182" rx="9.65563" fill="url(#paint2_linear_1616_8391)" fill-opacity="0.06"/>
<rect x="46.4089" y="57.4089" width="129.182" height="303.182" rx="9.65563" stroke="#F2F6FF" stroke-width="0.817741"/>
<circle cx="67.812" cy="78.8125" r="5" fill="#1561FF"/>
<circle cx="81.812" cy="78.8125" r="5" fill="#FD8113"/>
<circle cx="95.812" cy="78.8125" r="5" fill="#0CE18F"/>
<path opacity="0.45" d="M214.97 86.6094C214.727 86.6094 214.469 86.7063 214.291 86.9003C214.113 87.0942 214 87.3366 214 87.579V105.033C214 105.275 214.097 105.534 214.291 105.711C214.485 105.905 214.727 106.002 214.97 106.002H229.191C229.434 106.002 229.692 105.905 229.87 105.711C230.064 105.518 230.161 105.275 230.161 105.033V92.104L224.666 86.6094H214.97Z" fill="url(#paint3_linear_1616_8391)"/>
<path d="M220.401 102.734L219.285 99.9987L220.319 97.4414H219.159L218.713 99.0248L218.267 97.4414H217.107L218.111 99.9987L217.026 102.734H218.185L218.713 101.047L219.241 102.734H220.401ZM223.291 102.734V101.783H221.908V97.4414H220.853V102.734H223.291ZM226.697 101.225C226.697 100.266 226.504 99.9615 225.835 99.6939L225.174 99.4263C224.869 99.2999 224.809 99.2032 224.809 98.8687C224.809 98.6903 224.832 98.5788 224.898 98.4896C224.958 98.4078 225.055 98.3483 225.203 98.3483C225.359 98.3483 225.449 98.4004 225.508 98.4821C225.597 98.6011 225.597 98.7721 225.597 98.9579H226.653C226.653 98.4227 226.534 97.9989 226.244 97.7313C226.014 97.5157 225.672 97.3968 225.203 97.3968C224.802 97.3968 224.482 97.5157 224.229 97.7313C223.91 98.0064 223.754 98.4152 223.754 98.9059C223.754 99.7311 223.977 100.014 224.512 100.237L225.181 100.512C225.56 100.668 225.642 100.757 225.642 101.262C225.642 101.478 225.612 101.619 225.538 101.708C225.471 101.798 225.367 101.842 225.203 101.842C225.04 101.842 224.936 101.783 224.876 101.716C224.78 101.604 224.765 101.448 224.765 101.233H223.709C223.709 101.775 223.798 102.147 224.058 102.407C224.296 102.645 224.683 102.794 225.203 102.794C225.716 102.794 226.118 102.63 226.356 102.4C226.631 102.132 226.697 101.761 226.697 101.225Z" fill="white"/>
<path opacity="0.45" d="M230.161 92.104H225.636C225.393 92.104 225.135 92.0071 224.957 91.8131C224.763 91.6354 224.666 91.3768 224.666 91.1344V86.6094L230.161 92.104Z" fill="url(#paint4_linear_1616_8391)"/>
<path opacity="0.45" d="M221.998 144C219.72 144 217.612 144.726 215.924 145.944C214.221 147.172 212.956 148.911 212.366 150.911C212.129 151.714 212 152.568 212 153.444C212 156.73 213.771 159.611 216.463 161.309C216.704 161.459 216.828 161.788 216.724 162.08C216.523 162.637 216.266 163.171 215.961 163.673C215.864 163.828 215.985 164.043 216.149 163.993C217.073 163.714 217.937 163.312 218.72 162.806C219.005 162.619 219.331 162.559 219.652 162.632C220.403 162.801 221.191 162.893 222.002 162.893C227.525 162.893 232 158.661 232 153.449C232 148.231 227.521 144 221.998 144Z" fill="url(#paint5_linear_1616_8391)"/>
<path opacity="0.45" d="M222.001 206.465C221.885 206.465 221.772 206.476 221.657 206.484V208.734C221.772 208.723 221.883 208.697 222.001 208.697C224.096 208.697 225.794 210.529 225.794 212.79C225.794 213.179 225.727 213.549 225.633 213.906H227.766C227.826 213.543 227.863 213.171 227.863 212.79C227.863 209.297 225.238 206.465 222.001 206.465ZM222.001 202C221.885 202 221.772 202.015 221.657 202.019V204.251C221.772 204.246 221.885 204.232 222.001 204.232C226.381 204.232 229.931 208.063 229.931 212.79C229.931 213.169 229.901 213.54 229.856 213.906H231.946C231.982 213.535 232 213.163 232 212.79C232 206.831 227.524 202 222.001 202V202ZM225.637 217.191C224.489 216.717 223.401 216.108 222.141 217.378C221.362 218.161 220.8 218.076 220.291 217.784C219.783 217.492 216.65 214.041 216.223 212.912C215.795 211.783 216.026 211.631 216.223 211.288C216.419 210.946 217.783 210.146 216.962 207.635C216.142 205.123 215.497 203.231 212.154 207.635C211.807 208.091 212.154 210.07 212.154 210.07C212.154 210.07 214.511 218.385 222.51 221.843C223.752 222.38 226.556 221.53 227.688 219.408C228.243 218.367 227.438 217.935 225.637 217.191Z" fill="url(#paint6_linear_1616_8391)"/>
<path opacity="0.45" d="M226.216 319.446C226.457 319.446 226.696 319.465 226.932 319.492C226.289 316.341 223.087 314 219.433 314C215.347 314 212 316.931 212 320.652C212 322.799 213.114 324.563 214.974 325.931L214.231 328.284L216.829 326.913C217.759 327.106 218.505 327.306 219.433 327.306C219.666 327.306 219.897 327.294 220.127 327.274C219.981 326.752 219.897 326.204 219.897 325.636C219.897 322.219 222.685 319.446 226.216 319.446ZM222.22 317.325C222.78 317.325 223.15 317.713 223.15 318.302C223.15 318.888 222.78 319.281 222.22 319.281C221.663 319.281 221.104 318.888 221.104 318.302C221.104 317.713 221.663 317.325 222.22 317.325ZM217.018 319.281C216.461 319.281 215.899 318.888 215.899 318.302C215.899 317.713 216.461 317.325 217.018 317.325C217.575 317.325 217.946 317.713 217.946 318.302C217.946 318.888 217.575 319.281 217.018 319.281ZM233 325.542C233 322.415 230.026 319.866 226.687 319.866C223.15 319.866 220.365 322.415 220.365 325.542C220.365 328.674 223.15 331.217 226.687 331.217C227.427 331.217 228.173 331.022 228.916 330.825L230.955 332L230.396 330.046C231.889 328.868 233 327.306 233 325.542ZM224.637 324.563C224.267 324.563 223.894 324.176 223.894 323.781C223.894 323.391 224.267 322.999 224.637 322.999C225.199 322.999 225.567 323.391 225.567 323.781C225.567 324.176 225.199 324.563 224.637 324.563ZM228.725 324.563C228.358 324.563 227.987 324.176 227.987 323.781C227.987 323.391 228.358 322.999 228.725 322.999C229.282 322.999 229.655 323.391 229.655 323.781C229.655 324.176 229.282 324.563 228.725 324.563Z" fill="url(#paint7_linear_1616_8391)"/>
<rect x="244" y="89" width="189" height="8" rx="4" fill="white"/>
<rect x="244" y="89" width="189" height="8" rx="4" fill="#F0F5FF"/>
<rect x="244" y="319" width="138" height="8" rx="4" fill="white"/>
<rect x="244" y="319" width="138" height="8" rx="4" fill="#F0F5FF"/>
<rect x="244" y="205" width="102" height="8" rx="4" fill="white"/>
<rect x="244" y="205" width="102" height="8" rx="4" fill="#F0F5FF"/>
<rect x="244" y="147" width="138" height="8" rx="4" fill="white"/>
<rect x="244" y="147" width="138" height="8" rx="4" fill="#F0F5FF"/>
<rect x="244" y="263" width="163" height="8" rx="4" fill="white"/>
<rect x="244" y="263" width="163" height="8" rx="4" fill="#F0F5FF"/>
<path opacity="0.45" fill-rule="evenodd" clip-rule="evenodd" d="M213.726 257H221.499C221.9 257 222.225 257.328 222.225 257.732V265.585C222.225 265.989 221.9 266.317 221.499 266.317H213.726C213.325 266.317 213 265.989 213 265.585V257.732C213 257.328 213.325 257 213.726 257ZM215.438 258.729C215.037 258.729 214.712 259.056 214.712 259.46V263.857C214.712 264.261 215.037 264.588 215.438 264.588H219.787C220.188 264.588 220.513 264.261 220.513 263.857V259.46C220.513 259.056 220.188 258.729 219.787 258.729H215.438ZM216.816 260.121H218.409C218.81 260.121 219.135 260.448 219.135 260.852V262.465C219.135 262.869 218.81 263.196 218.409 263.196H216.816C216.415 263.196 216.09 262.869 216.09 262.465V260.852C216.09 260.448 216.415 260.121 216.816 260.121ZM213.726 267.683H221.499C221.9 267.683 222.225 268.011 222.225 268.415V276.268C222.225 276.672 221.9 277 221.499 277H213.726C213.325 277 213 276.672 213 276.268V268.415C213 268.011 213.325 267.683 213.726 267.683ZM215.438 269.412C215.037 269.412 214.712 269.739 214.712 270.143V274.54C214.712 274.944 215.037 275.271 215.438 275.271H219.787C220.188 275.271 220.513 274.944 220.513 274.54V270.143C220.513 269.739 220.188 269.412 219.787 269.412H215.438ZM216.816 270.804H218.409C218.81 270.804 219.135 271.131 219.135 271.535V273.148C219.135 273.552 218.81 273.879 218.409 273.879H216.816C216.415 273.879 216.09 273.552 216.09 273.148V271.535C216.09 271.131 216.415 270.804 216.816 270.804ZM224.501 257H232.274C232.675 257 233 257.328 233 257.732V265.585C233 265.989 232.675 266.317 232.274 266.317H224.501C224.1 266.317 223.775 265.989 223.775 265.585V257.732C223.775 257.328 224.1 257 224.501 257ZM226.213 258.729C225.812 258.729 225.486 259.056 225.486 259.46V263.857C225.486 264.261 225.812 264.588 226.213 264.588H230.562C230.963 264.588 231.288 264.261 231.288 263.857V259.46C231.288 259.056 230.963 258.729 230.562 258.729H226.213ZM227.591 260.121H229.184C229.585 260.121 229.91 260.448 229.91 260.852V262.465C229.91 262.869 229.585 263.196 229.184 263.196H227.591C227.19 263.196 226.865 262.869 226.865 262.465V260.852C226.865 260.448 227.19 260.121 227.591 260.121ZM224.501 267.707H225.252C225.736 267.707 225.978 267.951 225.978 268.439V269.195C225.978 269.683 225.736 269.927 225.252 269.927H224.501C224.017 269.927 223.775 269.683 223.775 269.195V268.439C223.775 267.951 224.017 267.707 224.501 267.707ZM232.274 267.707H231.523C231.039 267.707 230.797 267.951 230.797 268.439V269.195C230.797 269.683 231.039 269.927 231.523 269.927H232.274C232.758 269.927 233 269.683 233 269.195V268.439C233 267.951 232.758 267.707 232.274 267.707ZM224.501 274.78H225.252C225.736 274.78 225.978 275.024 225.978 275.512V276.268C225.978 276.756 225.736 277 225.252 277H224.501C224.017 277 223.775 276.756 223.775 276.268V275.512C223.775 275.024 224.017 274.78 224.501 274.78ZM227.455 269.927H226.705C226.22 269.927 225.978 270.171 225.978 270.658V274.049C225.978 274.537 226.22 274.78 226.705 274.78H227.455C227.939 274.78 228.182 274.537 228.182 274.049V270.658C228.182 270.171 227.939 269.927 227.455 269.927ZM231.523 272.146H232.274C232.758 272.146 233 272.39 233 272.878V276.268C233 276.754 232.76 276.998 232.28 277C232.278 277 232.276 277 232.274 277H228.908C228.507 277 228.182 276.672 228.182 276.268V275.512C228.182 275.108 228.507 274.78 228.908 274.78H230.797V272.878C230.797 272.39 231.039 272.146 231.523 272.146Z" fill="url(#paint8_linear_1616_8391)"/>
<path fill-rule="evenodd" clip-rule="evenodd" d="M97.6247 127.95C97.8932 127.616 98.1981 127.304 98.5348 127.024L98.5439 127.015L98.6104 126.957C98.6116 126.956 98.613 126.955 98.6145 126.955C98.6159 126.955 98.6173 126.955 98.6184 126.954L98.9307 126.694C98.9631 126.668 98.9978 126.644 99.0315 126.621L99.0315 126.621C99.0445 126.612 99.0573 126.603 99.0698 126.595C99.0704 126.594 99.0701 126.593 99.0694 126.593C99.0686 126.593 99.0683 126.592 99.0689 126.592L100.587 125.314L100.619 125.287L110.275 117.585C111.217 116.796 112.592 116.805 113.525 117.612L123.017 125.452L123.104 125.53L125.022 127.183C125.023 127.184 125.025 127.185 125.026 127.185C125.028 127.185 125.029 127.185 125.03 127.186L125.311 127.428C125.511 127.602 125.697 127.785 125.875 127.978C126.985 129.193 127.613 130.793 127.613 132.466V142.96C127.613 145.573 126.093 147.939 123.727 149.012L114.457 153.211L114.193 153.331C114.164 153.344 114.134 153.357 114.105 153.369L114.105 153.37C114.077 153.381 114.049 153.393 114.021 153.406C114.018 153.408 114.016 153.408 114.013 153.409C114.01 153.41 114.005 153.414 114.002 153.415C113.934 153.443 113.866 153.469 113.797 153.494L111.621 154.456L102.802 157.904C101.683 158.344 100.599 157.193 101.086 156.088L103.253 151.224C103.387 150.859 103.216 150.452 102.862 150.291L100.037 149.012C97.6702 147.939 96.1548 145.573 96.1548 142.96V132.131C96.1548 130.596 96.6827 129.124 97.6247 127.95ZM100.346 138.912C100.81 143.332 104.1 146.124 111.882 146.243C119.663 146.124 122.958 143.336 123.418 138.917C123.691 136.294 123.472 133.722 123.245 132.067C123.09 130.93 122.334 129.958 121.265 129.555C116.933 127.932 113.975 127.859 111.886 127.859C109.051 127.859 106.598 128.019 102.494 129.555C101.424 129.958 100.669 130.926 100.514 132.067C100.291 133.718 100.073 136.29 100.346 138.912ZM94.2144 120.978H94.7664C94.8847 120.978 94.9873 121.037 94.9873 121.104V130.565C94.9873 130.755 95.1406 130.908 95.3297 130.908C95.4025 130.908 95.4571 130.967 95.4571 131.036V139.747C95.4571 139.82 95.398 139.875 95.3297 139.875H93.9691C93.4366 139.875 93.0043 139.44 92.9998 138.903V131.884C92.9998 131.343 93.4366 130.908 93.9691 130.908C93.9826 130.908 93.9936 130.897 93.9936 130.883V121.104C93.9936 121.037 94.0882 120.978 94.2144 120.978ZM128.431 139.907H129.791C130.324 139.907 130.756 139.472 130.761 138.935V131.917C130.761 131.376 130.324 130.94 129.791 130.94H128.431C128.358 130.94 128.303 131 128.303 131.068V139.779C128.303 139.852 128.363 139.907 128.431 139.907ZM107.858 138.184H106.52C106.225 138.184 105.983 137.941 105.983 137.643V133.453C105.983 133.155 106.225 132.912 106.52 132.912H107.858C108.154 132.912 108.395 133.155 108.395 133.453V137.643C108.395 137.941 108.154 138.184 107.858 138.184ZM117.246 138.184H115.908C115.613 138.184 115.371 137.941 115.371 137.643V133.453C115.371 133.155 115.613 132.912 115.908 132.912H117.246C117.542 132.912 117.783 133.155 117.783 133.453V137.643C117.783 137.941 117.542 138.184 117.246 138.184ZM111.894 142.642C112.786 142.642 113.624 142.363 114.201 141.881C114.347 141.758 114.37 141.537 114.247 141.391C114.124 141.244 113.906 141.221 113.76 141.345C113.305 141.725 112.627 141.945 111.899 141.945C111.157 141.945 110.47 141.721 110.019 141.327C109.874 141.203 109.655 141.217 109.533 141.363C109.41 141.51 109.423 141.73 109.569 141.854C110.138 142.358 110.989 142.642 111.894 142.642Z" fill="white"/>
<path fill-rule="evenodd" clip-rule="evenodd" d="M97.6247 127.95C97.8932 127.616 98.1981 127.304 98.5348 127.024L98.5439 127.015L98.6104 126.957C98.6116 126.956 98.613 126.955 98.6145 126.955C98.6159 126.955 98.6173 126.955 98.6184 126.954L98.9307 126.694C98.9631 126.668 98.9978 126.644 99.0315 126.621L99.0315 126.621C99.0445 126.612 99.0573 126.603 99.0698 126.595C99.0704 126.594 99.0701 126.593 99.0694 126.593C99.0686 126.593 99.0683 126.592 99.0689 126.592L100.587 125.314L100.619 125.287L110.275 117.585C111.217 116.796 112.592 116.805 113.525 117.612L123.017 125.452L123.104 125.53L125.022 127.183C125.023 127.184 125.025 127.185 125.026 127.185C125.028 127.185 125.029 127.185 125.03 127.186L125.311 127.428C125.511 127.602 125.697 127.785 125.875 127.978C126.985 129.193 127.613 130.793 127.613 132.466V142.96C127.613 145.573 126.093 147.939 123.727 149.012L114.457 153.211L114.193 153.331C114.164 153.344 114.134 153.357 114.105 153.369L114.105 153.37C114.077 153.381 114.049 153.393 114.021 153.406C114.018 153.408 114.016 153.408 114.013 153.409C114.01 153.41 114.005 153.414 114.002 153.415C113.934 153.443 113.866 153.469 113.797 153.494L111.621 154.456L102.802 157.904C101.683 158.344 100.599 157.193 101.086 156.088L103.253 151.224C103.387 150.859 103.216 150.452 102.862 150.291L100.037 149.012C97.6702 147.939 96.1548 145.573 96.1548 142.96V132.131C96.1548 130.596 96.6827 129.124 97.6247 127.95ZM100.346 138.912C100.81 143.332 104.1 146.124 111.882 146.243C119.663 146.124 122.958 143.336 123.418 138.917C123.691 136.294 123.472 133.722 123.245 132.067C123.09 130.93 122.334 129.958 121.265 129.555C116.933 127.932 113.975 127.859 111.886 127.859C109.051 127.859 106.598 128.019 102.494 129.555C101.424 129.958 100.669 130.926 100.514 132.067C100.291 133.718 100.073 136.29 100.346 138.912ZM94.2144 120.978H94.7664C94.8847 120.978 94.9873 121.037 94.9873 121.104V130.565C94.9873 130.755 95.1406 130.908 95.3297 130.908C95.4025 130.908 95.4571 130.967 95.4571 131.036V139.747C95.4571 139.82 95.398 139.875 95.3297 139.875H93.9691C93.4366 139.875 93.0043 139.44 92.9998 138.903V131.884C92.9998 131.343 93.4366 130.908 93.9691 130.908C93.9826 130.908 93.9936 130.897 93.9936 130.883V121.104C93.9936 121.037 94.0882 120.978 94.2144 120.978ZM128.431 139.907H129.791C130.324 139.907 130.756 139.472 130.761 138.935V131.917C130.761 131.376 130.324 130.94 129.791 130.94H128.431C128.358 130.94 128.303 131 128.303 131.068V139.779C128.303 139.852 128.363 139.907 128.431 139.907ZM107.858 138.184H106.52C106.225 138.184 105.983 137.941 105.983 137.643V133.453C105.983 133.155 106.225 132.912 106.52 132.912H107.858C108.154 132.912 108.395 133.155 108.395 133.453V137.643C108.395 137.941 108.154 138.184 107.858 138.184ZM117.246 138.184H115.908C115.613 138.184 115.371 137.941 115.371 137.643V133.453C115.371 133.155 115.613 132.912 115.908 132.912H117.246C117.542 132.912 117.783 133.155 117.783 133.453V137.643C117.783 137.941 117.542 138.184 117.246 138.184ZM111.894 142.642C112.786 142.642 113.624 142.363 114.201 141.881C114.347 141.758 114.37 141.537 114.247 141.391C114.124 141.244 113.906 141.221 113.76 141.345C113.305 141.725 112.627 141.945 111.899 141.945C111.157 141.945 110.47 141.721 110.019 141.327C109.874 141.203 109.655 141.217 109.533 141.363C109.41 141.51 109.423 141.73 109.569 141.854C110.138 142.358 110.989 142.642 111.894 142.642Z" fill="url(#paint9_linear_1616_8391)" fill-opacity="0.35"/>
<rect x="66" y="179" width="89" height="8" rx="4" fill="white"/>
<rect x="66" y="179" width="89" height="8" rx="4" fill="#E3EBF9"/>
<rect x="66" y="271" width="65" height="8" rx="4" fill="white"/>
<rect x="66" y="271" width="65" height="8" rx="4" fill="#E3EBF9"/>
<rect x="66" y="225" width="48" height="8" rx="4" fill="white"/>
<rect x="66" y="225" width="48" height="8" rx="4" fill="#E3EBF9"/>
<rect x="66" y="202" width="65" height="8" rx="4" fill="white"/>
<rect x="66" y="202" width="65" height="8" rx="4" fill="#E3EBF9"/>
<rect x="66" y="248" width="77" height="8" rx="4" fill="white"/>
<rect x="66" y="248" width="77" height="8" rx="4" fill="#E3EBF9"/>
<circle cx="198" cy="402" r="5" fill="white"/>
<circle cx="198" cy="402" r="5" fill="url(#paint10_linear_1616_8391)" fill-opacity="0.2"/>
<defs>
<filter id="filter0_d_1616_8391" x="0" y="20" width="508" height="398.113" filterUnits="userSpaceOnUse" color-interpolation-filters="sRGB">
<feFlood flood-opacity="0" result="BackgroundImageFix"/>
<feColorMatrix in="SourceAlpha" type="matrix" values="0 0 0 0 0 0 0 0 0 0 0 0 0 0 0 0 0 0 127 0" result="hardAlpha"/>
<feOffset dy="10"/>
<feGaussianBlur stdDeviation="15"/>
<feColorMatrix type="matrix" values="0 0 0 0 0.0196078 0 0 0 0 0.333333 0 0 0 0 1 0 0 0 0.1 0"/>
<feBlend mode="normal" in2="BackgroundImageFix" result="effect1_dropShadow_1616_8391"/>
<feBlend mode="normal" in="SourceGraphic" in2="effect1_dropShadow_1616_8391" result="shape"/>
</filter>
<linearGradient id="paint0_linear_1616_8391" x1="18" y1="215" x2="18" y2="225" gradientUnits="userSpaceOnUse">
<stop stop-color="#0555FF"/>
<stop offset="1" stop-color="#0555FF" stop-opacity="0.21"/>
</linearGradient>
<linearGradient id="paint1_linear_1616_8391" x1="389" y1="31" x2="389" y2="45" gradientUnits="userSpaceOnUse">
<stop stop-color="#0555FF"/>
<stop offset="1" stop-color="#0555FF" stop-opacity="0.21"/>
</linearGradient>
<linearGradient id="paint2_linear_1616_8391" x1="111" y1="57" x2="111" y2="361" gradientUnits="userSpaceOnUse">
<stop stop-color="#0555FF"/>
<stop offset="1" stop-color="#0555FF" stop-opacity="0.6"/>
</linearGradient>
<linearGradient id="paint3_linear_1616_8391" x1="214.457" y1="87.0942" x2="232.982" y2="97.1912" gradientUnits="userSpaceOnUse">
<stop stop-color="#07D988"/>
<stop offset="1" stop-color="#15F59F" stop-opacity="0.2"/>
</linearGradient>
<linearGradient id="paint4_linear_1616_8391" x1="224.822" y1="86.7467" x2="230.543" y2="90.4892" gradientUnits="userSpaceOnUse">
<stop stop-color="#07D988"/>
<stop offset="1" stop-color="#15F59F" stop-opacity="0.2"/>
</linearGradient>
<linearGradient id="paint5_linear_1616_8391" x1="212.566" y1="144.5" x2="233.392" y2="158.122" gradientUnits="userSpaceOnUse">
<stop stop-color="#07D988"/>
<stop offset="1" stop-color="#15F59F" stop-opacity="0.2"/>
</linearGradient>
<linearGradient id="paint6_linear_1616_8391" x1="212.566" y1="202.5" x2="233.392" y2="216.122" gradientUnits="userSpaceOnUse">
<stop stop-color="#07D988"/>
<stop offset="1" stop-color="#15F59F" stop-opacity="0.2"/>
</linearGradient>
<linearGradient id="paint7_linear_1616_8391" x1="212.594" y1="314.45" x2="232.326" y2="329.508" gradientUnits="userSpaceOnUse">
<stop stop-color="#07D988"/>
<stop offset="1" stop-color="#15F59F" stop-opacity="0.2"/>
</linearGradient>
<linearGradient id="paint8_linear_1616_8391" x1="213.566" y1="257.5" x2="234.392" y2="271.122" gradientUnits="userSpaceOnUse">
<stop stop-color="#07D988"/>
<stop offset="1" stop-color="#15F59F" stop-opacity="0.2"/>
</linearGradient>
<linearGradient id="paint9_linear_1616_8391" x1="130.761" y1="117" x2="89.8992" y2="154.633" gradientUnits="userSpaceOnUse">
<stop stop-color="#0555FF"/>
<stop offset="1" stop-color="#0555FF" stop-opacity="0.21"/>
</linearGradient>
<linearGradient id="paint10_linear_1616_8391" x1="198" y1="397" x2="198" y2="407" gradientUnits="userSpaceOnUse">
<stop stop-color="#0555FF"/>
<stop offset="1" stop-color="#0555FF" stop-opacity="0.21"/>
</linearGradient>
</defs>
</svg>
