<svg width="508" height="440" viewBox="0 0 508 440" fill="none" xmlns="http://www.w3.org/2000/svg">
<rect width="496" height="440" transform="translate(6)" fill="white"/>
<g filter="url(#filter0_d_1616_8503)">
<rect x="30" y="40" width="448" height="338.113" rx="16" fill="white"/>
<rect x="30.5" y="40.5" width="447" height="337.113" rx="15.5" stroke="#F2F6FF"/>
</g>
<rect x="332.409" y="57.4089" width="129.182" height="303.182" rx="10.1572" fill="white"/>
<rect x="332.409" y="57.4089" width="129.182" height="303.182" rx="10.1572" fill="url(#paint0_linear_1616_8503)" fill-opacity="0.06"/>
<rect x="332.409" y="57.4089" width="129.182" height="303.182" rx="10.1572" stroke="#F2F6FF" stroke-width="0.817741"/>
<path d="M413.666 130.738H400.334V135.696H403.666C404.108 135.696 404.533 135.87 404.845 136.18C405.158 136.49 405.334 136.91 405.334 137.348C405.334 137.786 405.158 138.206 404.845 138.516C404.533 138.826 404.108 139 403.666 139H390.334C389.892 139 389.467 138.826 389.155 138.516C388.842 138.206 388.666 137.786 388.666 137.348C388.666 136.91 388.842 136.49 389.155 136.18C389.467 135.87 389.892 135.696 390.334 135.696H393.666V130.738H380.334C379.896 130.738 379.462 130.652 379.058 130.486C378.653 130.32 378.285 130.077 377.976 129.77C377.666 129.463 377.42 129.099 377.253 128.698C377.086 128.297 377 127.867 377 127.434V104.304C377 102.479 378.491 101 380.334 101H413.666C415.509 101 417 102.479 417 104.304V127.434C417 129.258 415.509 130.738 413.666 130.738ZM380.334 125.782H413.666V122.478H380.334V125.782Z" fill="white"/>
<path d="M413.666 130.738H400.334V135.696H403.666C404.108 135.696 404.533 135.87 404.845 136.18C405.158 136.49 405.334 136.91 405.334 137.348C405.334 137.786 405.158 138.206 404.845 138.516C404.533 138.826 404.108 139 403.666 139H390.334C389.892 139 389.467 138.826 389.155 138.516C388.842 138.206 388.666 137.786 388.666 137.348C388.666 136.91 388.842 136.49 389.155 136.18C389.467 135.87 389.892 135.696 390.334 135.696H393.666V130.738H380.334C379.896 130.738 379.462 130.652 379.058 130.486C378.653 130.32 378.285 130.077 377.976 129.77C377.666 129.463 377.42 129.099 377.253 128.698C377.086 128.297 377 127.867 377 127.434V104.304C377 102.479 378.491 101 380.334 101H413.666C415.509 101 417 102.479 417 104.304V127.434C417 129.258 415.509 130.738 413.666 130.738ZM380.334 125.782H413.666V122.478H380.334V125.782Z" fill="url(#paint1_linear_1616_8503)" fill-opacity="0.35"/>
<rect x="343" y="171" width="109" height="9" rx="4.5" fill="white"/>
<rect x="343" y="195" width="41" height="9" rx="4.5" fill="white"/>
<rect x="-0.264151" y="0.264151" width="0.528302" height="295.321" rx="0.264151" transform="matrix(-1 0 0 1 108.717 61.1328)" fill="white"/>
<rect x="-0.264151" y="0.264151" width="0.528302" height="295.321" rx="0.264151" transform="matrix(-1 0 0 1 108.717 61.1328)" fill="url(#paint2_linear_1616_8503)" fill-opacity="0.06"/>
<rect x="-0.264151" y="0.264151" width="0.528302" height="295.321" rx="0.264151" transform="matrix(-1 0 0 1 108.717 61.1328)" stroke="#F2F6FF" stroke-width="0.528302"/>
<rect x="51.1318" y="96" width="40.1509" height="40.1509" rx="20.0755" fill="white"/>
<rect x="51.1318" y="96" width="40.1509" height="40.1509" rx="20.0755" fill="url(#paint3_linear_1616_8503)" fill-opacity="0.1"/>
<circle cx="71.2075" cy="116.076" r="13.7358" fill="white"/>
<circle cx="71.2075" cy="116.076" r="13.7358" fill="url(#paint4_linear_1616_8503)" fill-opacity="0.3"/>
<circle cx="71.2075" cy="164.681" r="13.7358" fill="white"/>
<circle cx="71.2075" cy="164.681" r="13.7358" fill="url(#paint5_linear_1616_8503)" fill-opacity="0.3"/>
<circle cx="71.2075" cy="213.283" r="13.7358" fill="white"/>
<circle cx="71.2075" cy="213.283" r="13.7358" fill="url(#paint6_linear_1616_8503)" fill-opacity="0.3"/>
<circle cx="71.2075" cy="261.888" r="13.7358" fill="white"/>
<circle cx="71.2075" cy="261.888" r="13.7358" fill="url(#paint7_linear_1616_8503)" fill-opacity="0.3"/>
<circle cx="71.2075" cy="310.49" r="13.7358" fill="white"/>
<circle cx="71.2075" cy="310.49" r="13.7358" fill="url(#paint8_linear_1616_8503)" fill-opacity="0.3"/>
<rect x="126.132" y="81.6133" width="50.717" height="9.50943" rx="4.75472" fill="#F0F5FF"/>
<rect x="126" y="185" width="134" height="9" rx="4.5" fill="#F0F5FF"/>
<path d="M163.238 125C166.14 125 168 127.348 168 130.508C168 132.96 165.801 135.66 161.468 138.695C161.184 138.893 160.846 139 160.5 139C160.154 139 159.816 138.893 159.532 138.695C155.199 135.66 153 132.96 153 130.508C153 127.348 154.86 125 157.762 125C158.809 125 159.52 125.369 160.5 126.208C161.48 125.37 162.191 125 163.238 125Z" fill="url(#paint9_radial_1616_8503)" fill-opacity="0.6"/>
<rect x="174.806" y="127.051" width="110.943" height="9.50943" rx="4.75472" fill="#F0F5FF"/>
<path d="M313.637 131.923C313.637 137.09 309.449 141.277 304.283 141.277C299.117 141.277 294.929 137.09 294.929 131.923C294.929 126.757 299.117 122.57 304.283 122.57C309.449 122.57 313.637 126.757 313.637 131.923Z" fill="white" stroke="#E3EBF9" stroke-width="0.311059"/>
<path opacity="0.3" d="M307.816 128.119C307.361 127.646 306.814 127.271 306.207 127.016C305.601 126.762 304.948 126.633 304.289 126.637C303.629 126.63 302.975 126.757 302.367 127.012C301.759 127.267 301.211 127.644 300.756 128.119C300.279 128.572 299.901 129.117 299.645 129.721C299.39 130.325 299.262 130.974 299.27 131.629C299.271 132.703 299.625 133.747 300.277 134.605C300.936 135.508 301.892 136.157 302.98 136.441V138.26C307.209 136.839 309.32 134.629 309.313 131.629C309.316 130.974 309.185 130.325 308.928 129.722C308.671 129.118 308.292 128.573 307.816 128.119Z" fill="#FD8012"/>
<path d="M305.354 132.805L305.373 132.787C305.612 132.648 305.813 132.453 305.956 132.218C306.1 131.983 306.183 131.716 306.196 131.442C306.217 130.513 305.389 129.732 304.343 129.711C303.298 129.691 302.429 130.424 302.408 131.344C302.388 132.264 303.215 133.054 304.261 133.075H304.38C304.498 133.158 304.621 133.234 304.749 133.301C304.945 133.409 305.164 133.467 305.387 133.471C305.593 133.45 305.626 133.322 305.593 133.252C305.56 133.183 305.484 133.183 305.424 133.144C305.36 133.111 305.307 133.059 305.274 132.995C305.264 132.976 305.258 132.955 305.257 132.934C305.256 132.912 305.26 132.891 305.269 132.871C305.277 132.851 305.291 132.834 305.307 132.82C305.324 132.806 305.344 132.796 305.365 132.791" fill="white"/>
<rect x="174.806" y="145.012" width="83.4717" height="9.50943" rx="4.75472" fill="#F0F5FF"/>
<circle cx="55.7871" cy="65.5391" r="5" fill="#1561FF"/>
<circle cx="69.7871" cy="65.5391" r="5" fill="#FD8113"/>
<circle cx="83.7871" cy="65.5391" r="5" fill="#0CE18F"/>
<rect x="343" y="243" width="109" height="44" rx="4" fill="white"/>
<g opacity="0.28">
<path d="M409.112 278H410.876V276.152H413.192V275.264H410.876V274.496H413.192V273.596H411.26L414.08 269.144H412.04L410.96 271.304C410.552 272.18 410.384 272.528 410.048 273.188H409.976C409.652 272.528 409.508 272.216 409.064 271.304L407.96 269.144H405.884L408.716 273.596H406.772V274.496H409.112V275.264H406.772V276.152H409.112V278ZM421.94 272.024C421.94 270.332 420.788 269.384 419.276 269.384C417.764 269.384 416.612 270.368 416.612 272.048C416.612 273.632 417.716 274.58 418.868 274.58C419.072 274.58 419.3 274.556 419.504 274.472L417.728 278H419.42L421.232 274.304C421.616 273.524 421.94 272.804 421.94 272.024ZM420.38 272.036C420.38 272.828 419.912 273.284 419.276 273.284C418.616 273.284 418.172 272.792 418.172 272.036C418.172 271.244 418.64 270.788 419.276 270.788C419.912 270.788 420.38 271.244 420.38 272.036ZM428.456 272.024C428.456 270.332 427.304 269.384 425.792 269.384C424.28 269.384 423.128 270.368 423.128 272.048C423.128 273.632 424.232 274.58 425.384 274.58C425.588 274.58 425.816 274.556 426.02 274.472L424.244 278H425.936L427.748 274.304C428.132 273.524 428.456 272.804 428.456 272.024ZM426.896 272.036C426.896 272.828 426.428 273.284 425.792 273.284C425.132 273.284 424.688 272.792 424.688 272.036C424.688 271.244 425.156 270.788 425.792 270.788C426.428 270.788 426.896 271.244 426.896 272.036ZM431.635 278V276.224H429.847V278H431.635ZM438.309 275.528V271.928C438.309 270.296 437.109 269.384 435.717 269.384C434.325 269.384 433.113 270.296 433.113 271.928V275.528C433.113 277.16 434.325 278.072 435.717 278.072C437.109 278.072 438.309 277.16 438.309 275.528ZM436.749 275.516C436.749 276.236 436.329 276.668 435.717 276.668C435.105 276.668 434.673 276.236 434.673 275.516V271.952C434.673 271.232 435.105 270.788 435.717 270.788C436.329 270.788 436.749 271.232 436.749 271.952V275.516ZM444.825 275.528V271.928C444.825 270.296 443.625 269.384 442.233 269.384C440.841 269.384 439.629 270.296 439.629 271.928V275.528C439.629 277.16 440.841 278.072 442.233 278.072C443.625 278.072 444.825 277.16 444.825 275.528ZM443.265 275.516C443.265 276.236 442.845 276.668 442.233 276.668C441.621 276.668 441.189 276.236 441.189 275.516V271.952C441.189 271.232 441.621 270.788 442.233 270.788C442.845 270.788 443.265 271.232 443.265 271.952V275.516Z" fill="white"/>
<path d="M409.112 278H410.876V276.152H413.192V275.264H410.876V274.496H413.192V273.596H411.26L414.08 269.144H412.04L410.96 271.304C410.552 272.18 410.384 272.528 410.048 273.188H409.976C409.652 272.528 409.508 272.216 409.064 271.304L407.96 269.144H405.884L408.716 273.596H406.772V274.496H409.112V275.264H406.772V276.152H409.112V278ZM421.94 272.024C421.94 270.332 420.788 269.384 419.276 269.384C417.764 269.384 416.612 270.368 416.612 272.048C416.612 273.632 417.716 274.58 418.868 274.58C419.072 274.58 419.3 274.556 419.504 274.472L417.728 278H419.42L421.232 274.304C421.616 273.524 421.94 272.804 421.94 272.024ZM420.38 272.036C420.38 272.828 419.912 273.284 419.276 273.284C418.616 273.284 418.172 272.792 418.172 272.036C418.172 271.244 418.64 270.788 419.276 270.788C419.912 270.788 420.38 271.244 420.38 272.036ZM428.456 272.024C428.456 270.332 427.304 269.384 425.792 269.384C424.28 269.384 423.128 270.368 423.128 272.048C423.128 273.632 424.232 274.58 425.384 274.58C425.588 274.58 425.816 274.556 426.02 274.472L424.244 278H425.936L427.748 274.304C428.132 273.524 428.456 272.804 428.456 272.024ZM426.896 272.036C426.896 272.828 426.428 273.284 425.792 273.284C425.132 273.284 424.688 272.792 424.688 272.036C424.688 271.244 425.156 270.788 425.792 270.788C426.428 270.788 426.896 271.244 426.896 272.036ZM431.635 278V276.224H429.847V278H431.635ZM438.309 275.528V271.928C438.309 270.296 437.109 269.384 435.717 269.384C434.325 269.384 433.113 270.296 433.113 271.928V275.528C433.113 277.16 434.325 278.072 435.717 278.072C437.109 278.072 438.309 277.16 438.309 275.528ZM436.749 275.516C436.749 276.236 436.329 276.668 435.717 276.668C435.105 276.668 434.673 276.236 434.673 275.516V271.952C434.673 271.232 435.105 270.788 435.717 270.788C436.329 270.788 436.749 271.232 436.749 271.952V275.516ZM444.825 275.528V271.928C444.825 270.296 443.625 269.384 442.233 269.384C440.841 269.384 439.629 270.296 439.629 271.928V275.528C439.629 277.16 440.841 278.072 442.233 278.072C443.625 278.072 444.825 277.16 444.825 275.528ZM443.265 275.516C443.265 276.236 442.845 276.668 442.233 276.668C441.621 276.668 441.189 276.236 441.189 275.516V271.952C441.189 271.232 441.621 270.788 442.233 270.788C442.845 270.788 443.265 271.232 443.265 271.952V275.516Z" fill="#125EFF"/>
</g>
<rect x="349.409" y="249.409" width="31.1823" height="31.1823" rx="3.59113" fill="white"/>
<rect x="349.409" y="249.409" width="31.1823" height="31.1823" rx="3.59113" fill="url(#paint10_linear_1616_8503)" fill-opacity="0.06"/>
<rect x="349.409" y="249.409" width="31.1823" height="31.1823" rx="3.59113" stroke="#F2F6FF" stroke-width="0.817741"/>
<rect x="389.409" y="252.409" width="56.1823" height="8.18226" rx="4.09113" fill="white"/>
<rect x="389.409" y="252.409" width="56.1823" height="8.18226" rx="4.09113" fill="url(#paint11_linear_1616_8503)" fill-opacity="0.06"/>
<rect x="389.409" y="252.409" width="56.1823" height="8.18226" rx="4.09113" stroke="#F2F6FF" stroke-width="0.817741"/>
<rect x="343" y="297" width="109" height="44" rx="4" fill="white"/>
<g opacity="0.28">
<path d="M409.112 332H410.876V330.152H413.192V329.264H410.876V328.496H413.192V327.596H411.26L414.08 323.144H412.04L410.96 325.304C410.552 326.18 410.384 326.528 410.048 327.188H409.976C409.652 326.528 409.508 326.216 409.064 325.304L407.96 323.144H405.884L408.716 327.596H406.772V328.496H409.112V329.264H406.772V330.152H409.112V332ZM422.036 324.86V323.456H416.6V326.204H418.088V324.86H420.344L417.572 332H419.264L422.036 324.86ZM428.456 326.024C428.456 324.332 427.304 323.384 425.792 323.384C424.28 323.384 423.128 324.368 423.128 326.048C423.128 327.632 424.232 328.58 425.384 328.58C425.588 328.58 425.816 328.556 426.02 328.472L424.244 332H425.936L427.748 328.304C428.132 327.524 428.456 326.804 428.456 326.024ZM426.896 326.036C426.896 326.828 426.428 327.284 425.792 327.284C425.132 327.284 424.688 326.792 424.688 326.036C424.688 325.244 425.156 324.788 425.792 324.788C426.428 324.788 426.896 325.244 426.896 326.036ZM431.635 332V330.224H429.847V332H431.635ZM438.309 329.528V325.928C438.309 324.296 437.109 323.384 435.717 323.384C434.325 323.384 433.113 324.296 433.113 325.928V329.528C433.113 331.16 434.325 332.072 435.717 332.072C437.109 332.072 438.309 331.16 438.309 329.528ZM436.749 329.516C436.749 330.236 436.329 330.668 435.717 330.668C435.105 330.668 434.673 330.236 434.673 329.516V325.952C434.673 325.232 435.105 324.788 435.717 324.788C436.329 324.788 436.749 325.232 436.749 325.952V329.516ZM444.825 329.528V325.928C444.825 324.296 443.625 323.384 442.233 323.384C440.841 323.384 439.629 324.296 439.629 325.928V329.528C439.629 331.16 440.841 332.072 442.233 332.072C443.625 332.072 444.825 331.16 444.825 329.528ZM443.265 329.516C443.265 330.236 442.845 330.668 442.233 330.668C441.621 330.668 441.189 330.236 441.189 329.516V325.952C441.189 325.232 441.621 324.788 442.233 324.788C442.845 324.788 443.265 325.232 443.265 325.952V329.516Z" fill="white"/>
<path d="M409.112 332H410.876V330.152H413.192V329.264H410.876V328.496H413.192V327.596H411.26L414.08 323.144H412.04L410.96 325.304C410.552 326.18 410.384 326.528 410.048 327.188H409.976C409.652 326.528 409.508 326.216 409.064 325.304L407.96 323.144H405.884L408.716 327.596H406.772V328.496H409.112V329.264H406.772V330.152H409.112V332ZM422.036 324.86V323.456H416.6V326.204H418.088V324.86H420.344L417.572 332H419.264L422.036 324.86ZM428.456 326.024C428.456 324.332 427.304 323.384 425.792 323.384C424.28 323.384 423.128 324.368 423.128 326.048C423.128 327.632 424.232 328.58 425.384 328.58C425.588 328.58 425.816 328.556 426.02 328.472L424.244 332H425.936L427.748 328.304C428.132 327.524 428.456 326.804 428.456 326.024ZM426.896 326.036C426.896 326.828 426.428 327.284 425.792 327.284C425.132 327.284 424.688 326.792 424.688 326.036C424.688 325.244 425.156 324.788 425.792 324.788C426.428 324.788 426.896 325.244 426.896 326.036ZM431.635 332V330.224H429.847V332H431.635ZM438.309 329.528V325.928C438.309 324.296 437.109 323.384 435.717 323.384C434.325 323.384 433.113 324.296 433.113 325.928V329.528C433.113 331.16 434.325 332.072 435.717 332.072C437.109 332.072 438.309 331.16 438.309 329.528ZM436.749 329.516C436.749 330.236 436.329 330.668 435.717 330.668C435.105 330.668 434.673 330.236 434.673 329.516V325.952C434.673 325.232 435.105 324.788 435.717 324.788C436.329 324.788 436.749 325.232 436.749 325.952V329.516ZM444.825 329.528V325.928C444.825 324.296 443.625 323.384 442.233 323.384C440.841 323.384 439.629 324.296 439.629 325.928V329.528C439.629 331.16 440.841 332.072 442.233 332.072C443.625 332.072 444.825 331.16 444.825 329.528ZM443.265 329.516C443.265 330.236 442.845 330.668 442.233 330.668C441.621 330.668 441.189 330.236 441.189 329.516V325.952C441.189 325.232 441.621 324.788 442.233 324.788C442.845 324.788 443.265 325.232 443.265 325.952V329.516Z" fill="#125EFF"/>
</g>
<rect x="349.409" y="303.409" width="31.1823" height="31.1823" rx="3.59113" fill="white"/>
<rect x="349.409" y="303.409" width="31.1823" height="31.1823" rx="3.59113" fill="url(#paint12_linear_1616_8503)" fill-opacity="0.06"/>
<rect x="349.409" y="303.409" width="31.1823" height="31.1823" rx="3.59113" stroke="#F2F6FF" stroke-width="0.817741"/>
<rect x="389.409" y="306.409" width="56.1823" height="8.18226" rx="4.09113" fill="white"/>
<rect x="389.409" y="306.409" width="56.1823" height="8.18226" rx="4.09113" fill="url(#paint13_linear_1616_8503)" fill-opacity="0.06"/>
<rect x="389.409" y="306.409" width="56.1823" height="8.18226" rx="4.09113" stroke="#F2F6FF" stroke-width="0.817741"/>
<rect x="422" y="15" width="15" height="15" rx="7.5" fill="white"/>
<rect x="422" y="15" width="15" height="15" rx="7.5" fill="url(#paint14_linear_1616_8503)" fill-opacity="0.2"/>
<rect x="14" y="214" width="12" height="12" rx="6" fill="white"/>
<rect x="14" y="214" width="12" height="12" rx="6" fill="url(#paint15_linear_1616_8503)" fill-opacity="0.2"/>
<defs>
<filter id="filter0_d_1616_8503" x="0" y="20" width="508" height="398.113" filterUnits="userSpaceOnUse" color-interpolation-filters="sRGB">
<feFlood flood-opacity="0" result="BackgroundImageFix"/>
<feColorMatrix in="SourceAlpha" type="matrix" values="0 0 0 0 0 0 0 0 0 0 0 0 0 0 0 0 0 0 127 0" result="hardAlpha"/>
<feOffset dy="10"/>
<feGaussianBlur stdDeviation="15"/>
<feColorMatrix type="matrix" values="0 0 0 0 0.0196078 0 0 0 0 0.333333 0 0 0 0 1 0 0 0 0.1 0"/>
<feBlend mode="normal" in2="BackgroundImageFix" result="effect1_dropShadow_1616_8503"/>
<feBlend mode="normal" in="SourceGraphic" in2="effect1_dropShadow_1616_8503" result="shape"/>
</filter>
<linearGradient id="paint0_linear_1616_8503" x1="397" y1="57" x2="397" y2="361" gradientUnits="userSpaceOnUse">
<stop stop-color="#0555FF"/>
<stop offset="1" stop-color="#0555FF" stop-opacity="0.6"/>
</linearGradient>
<linearGradient id="paint1_linear_1616_8503" x1="377" y1="101" x2="414.95" y2="140.947" gradientUnits="userSpaceOnUse">
<stop stop-color="#0555FF"/>
<stop offset="1" stop-color="#0555FF" stop-opacity="0.21"/>
</linearGradient>
<linearGradient id="paint2_linear_1616_8503" x1="0.528302" y1="0" x2="0.528302" y2="295.849" gradientUnits="userSpaceOnUse">
<stop stop-color="#0555FF"/>
<stop offset="1" stop-color="#0555FF" stop-opacity="0.6"/>
</linearGradient>
<linearGradient id="paint3_linear_1616_8503" x1="51.1318" y1="96" x2="91.2828" y2="136.151" gradientUnits="userSpaceOnUse">
<stop stop-color="#0555FF"/>
<stop offset="1" stop-color="#0555FF" stop-opacity="0.21"/>
</linearGradient>
<linearGradient id="paint4_linear_1616_8503" x1="57.4717" y1="102.34" x2="84.9434" y2="129.812" gradientUnits="userSpaceOnUse">
<stop stop-color="#0555FF"/>
<stop offset="1" stop-color="#0555FF" stop-opacity="0.21"/>
</linearGradient>
<linearGradient id="paint5_linear_1616_8503" x1="57.4717" y1="150.945" x2="84.9434" y2="178.417" gradientUnits="userSpaceOnUse">
<stop stop-color="#0555FF"/>
<stop offset="1" stop-color="#0555FF" stop-opacity="0.21"/>
</linearGradient>
<linearGradient id="paint6_linear_1616_8503" x1="57.4717" y1="199.547" x2="84.9434" y2="227.019" gradientUnits="userSpaceOnUse">
<stop stop-color="#0555FF"/>
<stop offset="1" stop-color="#0555FF" stop-opacity="0.21"/>
</linearGradient>
<linearGradient id="paint7_linear_1616_8503" x1="57.4717" y1="248.152" x2="84.9434" y2="275.624" gradientUnits="userSpaceOnUse">
<stop stop-color="#0555FF"/>
<stop offset="1" stop-color="#0555FF" stop-opacity="0.21"/>
</linearGradient>
<linearGradient id="paint8_linear_1616_8503" x1="57.4717" y1="296.754" x2="84.9434" y2="324.226" gradientUnits="userSpaceOnUse">
<stop stop-color="#0555FF"/>
<stop offset="1" stop-color="#0555FF" stop-opacity="0.21"/>
</linearGradient>
<radialGradient id="paint9_radial_1616_8503" cx="0" cy="0" r="1" gradientUnits="userSpaceOnUse" gradientTransform="translate(154.765 126.647) rotate(45.3634) scale(14.756 16.3497)">
<stop stop-color="#FD8011"/>
<stop offset="1" stop-color="#FD7F11" stop-opacity="0.2"/>
</radialGradient>
<linearGradient id="paint10_linear_1616_8503" x1="365" y1="249" x2="365" y2="281" gradientUnits="userSpaceOnUse">
<stop stop-color="#0555FF"/>
<stop offset="1" stop-color="#0555FF" stop-opacity="0.6"/>
</linearGradient>
<linearGradient id="paint11_linear_1616_8503" x1="417.5" y1="252" x2="417.5" y2="261" gradientUnits="userSpaceOnUse">
<stop stop-color="#0555FF"/>
<stop offset="1" stop-color="#0555FF" stop-opacity="0.6"/>
</linearGradient>
<linearGradient id="paint12_linear_1616_8503" x1="365" y1="303" x2="365" y2="335" gradientUnits="userSpaceOnUse">
<stop stop-color="#0555FF"/>
<stop offset="1" stop-color="#0555FF" stop-opacity="0.6"/>
</linearGradient>
<linearGradient id="paint13_linear_1616_8503" x1="417.5" y1="306" x2="417.5" y2="315" gradientUnits="userSpaceOnUse">
<stop stop-color="#0555FF"/>
<stop offset="1" stop-color="#0555FF" stop-opacity="0.6"/>
</linearGradient>
<linearGradient id="paint14_linear_1616_8503" x1="429.5" y1="15" x2="429.5" y2="30" gradientUnits="userSpaceOnUse">
<stop stop-color="#0555FF"/>
<stop offset="1" stop-color="#0555FF" stop-opacity="0.21"/>
</linearGradient>
<linearGradient id="paint15_linear_1616_8503" x1="20" y1="214" x2="20" y2="226" gradientUnits="userSpaceOnUse">
<stop stop-color="#0555FF"/>
<stop offset="1" stop-color="#0555FF" stop-opacity="0.21"/>
</linearGradient>
</defs>
</svg>
