<svg width="508" height="440" viewBox="0 0 508 440" fill="none" xmlns="http://www.w3.org/2000/svg">
<rect width="496" height="440" transform="translate(6)" fill="white"/>
<rect x="13" y="215" width="10" height="10" rx="5" fill="white"/>
<rect x="13" y="215" width="10" height="10" rx="5" fill="url(#paint0_linear_1616_9743)" fill-opacity="0.2"/>
<rect x="382" y="31" width="14" height="14" rx="7" fill="white"/>
<rect x="382" y="31" width="14" height="14" rx="7" fill="url(#paint1_linear_1616_9743)" fill-opacity="0.2"/>
<g filter="url(#filter0_d_1616_9743)">
<rect x="30" y="40" width="448" height="338.113" rx="16" fill="white"/>
<rect x="30.5" y="40.5" width="447" height="337.113" rx="15.5" stroke="#F2F6FF"/>
</g>
<circle cx="223" cy="305" r="10" fill="white"/>
<circle cx="223" cy="305" r="10" fill="url(#paint2_linear_1616_9743)" fill-opacity="0.3"/>
<circle opacity="0.5" cx="223" cy="260" r="10" fill="url(#paint3_linear_1616_9743)"/>
<circle cx="223" cy="215" r="10" fill="white"/>
<circle cx="223" cy="215" r="10" fill="url(#paint4_linear_1616_9743)" fill-opacity="0.3"/>
<circle cx="223" cy="170" r="10" fill="url(#paint5_radial_1616_9743)" fill-opacity="0.5"/>
<rect x="245" y="165" width="39.0943" height="9" rx="4.5" fill="#F0F5FF"/>
<rect x="245" y="211" width="29" height="9" rx="4.5" fill="#F0F5FF"/>
<rect x="245" y="256" width="39.0943" height="9" rx="4.5" fill="#F0F5FF"/>
<rect x="245" y="301" width="49" height="9" rx="4.5" fill="#F0F5FF"/>
<g opacity="0.24">
<path d="M337.158 264V256.168H335.728L334.133 257.554V259.094L335.728 257.708V264H337.158ZM344.418 261.734C344.418 260.788 343.967 260.249 343.406 259.952C343.923 259.677 344.308 259.193 344.308 258.346C344.308 257.026 343.307 256.102 341.921 256.102C340.601 256.102 339.556 256.938 339.523 258.335H340.953C340.986 257.741 341.382 257.389 341.921 257.389C342.438 257.389 342.878 257.73 342.878 258.39C342.878 258.94 342.581 259.369 341.888 259.369H341.679V260.612H341.888C342.592 260.612 342.988 261.041 342.988 261.69C342.988 262.394 342.548 262.779 341.932 262.779C341.371 262.779 340.887 262.46 340.865 261.756H339.435C339.457 263.395 340.656 264.066 341.932 264.066C343.274 264.066 344.418 263.296 344.418 261.734ZM350.577 262.889V261.536H349.862V260.073H348.487V261.536H346.848L349.532 256.168H347.97L345.286 261.536V262.889H348.487V264H349.862V262.889H350.577ZM355.758 258.94L354.537 258.302L355.758 257.664L355.252 256.784L354.097 257.521L354.141 256.146H353.129L353.184 257.521L352.018 256.784L351.523 257.664L352.733 258.302L351.523 258.94L352.018 259.809L353.184 259.083L353.129 260.458H354.141L354.097 259.083L355.252 259.809L355.758 258.94ZM361.194 258.94L359.973 258.302L361.194 257.664L360.688 256.784L359.533 257.521L359.577 256.146H358.565L358.62 257.521L357.454 256.784L356.959 257.664L358.169 258.302L356.959 258.94L357.454 259.809L358.62 259.083L358.565 260.458H359.577L359.533 259.083L360.688 259.809L361.194 258.94ZM366.629 258.94L365.408 258.302L366.629 257.664L366.123 256.784L364.968 257.521L365.012 256.146H364L364.055 257.521L362.889 256.784L362.394 257.664L363.604 258.302L362.394 258.94L362.889 259.809L364.055 259.083L364 260.458H365.012L364.968 259.083L366.123 259.809L366.629 258.94ZM372.065 258.94L370.844 258.302L372.065 257.664L371.559 256.784L370.404 257.521L370.448 256.146H369.436L369.491 257.521L368.325 256.784L367.83 257.664L369.04 258.302L367.83 258.94L368.325 259.809L369.491 259.083L369.436 260.458H370.448L370.404 259.083L371.559 259.809L372.065 258.94ZM377.5 258.94L376.279 258.302L377.5 257.664L376.994 256.784L375.839 257.521L375.883 256.146H374.871L374.926 257.521L373.76 256.784L373.265 257.664L374.475 258.302L373.265 258.94L373.76 259.809L374.926 259.083L374.871 260.458H375.883L375.839 259.083L376.994 259.809L377.5 258.94ZM382.936 258.94L381.715 258.302L382.936 257.664L382.43 256.784L381.275 257.521L381.319 256.146H380.307L380.362 257.521L379.196 256.784L378.701 257.664L379.911 258.302L378.701 258.94L379.196 259.809L380.362 259.083L380.307 260.458H381.319L381.275 259.083L382.43 259.809L382.936 258.94ZM388.371 258.94L387.15 258.302L388.371 257.664L387.865 256.784L386.71 257.521L386.754 256.146H385.742L385.797 257.521L384.631 256.784L384.136 257.664L385.346 258.302L384.136 258.94L384.631 259.809L385.797 259.083L385.742 260.458H386.754L386.71 259.083L387.865 259.809L388.371 258.94ZM393.807 258.94L392.586 258.302L393.807 257.664L393.301 256.784L392.146 257.521L392.19 256.146H391.178L391.233 257.521L390.067 256.784L389.572 257.664L390.782 258.302L389.572 258.94L390.067 259.809L391.233 259.083L391.178 260.458H392.19L392.146 259.083L393.301 259.809L393.807 258.94Z" fill="white"/>
<path d="M337.158 264V256.168H335.728L334.133 257.554V259.094L335.728 257.708V264H337.158ZM344.418 261.734C344.418 260.788 343.967 260.249 343.406 259.952C343.923 259.677 344.308 259.193 344.308 258.346C344.308 257.026 343.307 256.102 341.921 256.102C340.601 256.102 339.556 256.938 339.523 258.335H340.953C340.986 257.741 341.382 257.389 341.921 257.389C342.438 257.389 342.878 257.73 342.878 258.39C342.878 258.94 342.581 259.369 341.888 259.369H341.679V260.612H341.888C342.592 260.612 342.988 261.041 342.988 261.69C342.988 262.394 342.548 262.779 341.932 262.779C341.371 262.779 340.887 262.46 340.865 261.756H339.435C339.457 263.395 340.656 264.066 341.932 264.066C343.274 264.066 344.418 263.296 344.418 261.734ZM350.577 262.889V261.536H349.862V260.073H348.487V261.536H346.848L349.532 256.168H347.97L345.286 261.536V262.889H348.487V264H349.862V262.889H350.577ZM355.758 258.94L354.537 258.302L355.758 257.664L355.252 256.784L354.097 257.521L354.141 256.146H353.129L353.184 257.521L352.018 256.784L351.523 257.664L352.733 258.302L351.523 258.94L352.018 259.809L353.184 259.083L353.129 260.458H354.141L354.097 259.083L355.252 259.809L355.758 258.94ZM361.194 258.94L359.973 258.302L361.194 257.664L360.688 256.784L359.533 257.521L359.577 256.146H358.565L358.62 257.521L357.454 256.784L356.959 257.664L358.169 258.302L356.959 258.94L357.454 259.809L358.62 259.083L358.565 260.458H359.577L359.533 259.083L360.688 259.809L361.194 258.94ZM366.629 258.94L365.408 258.302L366.629 257.664L366.123 256.784L364.968 257.521L365.012 256.146H364L364.055 257.521L362.889 256.784L362.394 257.664L363.604 258.302L362.394 258.94L362.889 259.809L364.055 259.083L364 260.458H365.012L364.968 259.083L366.123 259.809L366.629 258.94ZM372.065 258.94L370.844 258.302L372.065 257.664L371.559 256.784L370.404 257.521L370.448 256.146H369.436L369.491 257.521L368.325 256.784L367.83 257.664L369.04 258.302L367.83 258.94L368.325 259.809L369.491 259.083L369.436 260.458H370.448L370.404 259.083L371.559 259.809L372.065 258.94ZM377.5 258.94L376.279 258.302L377.5 257.664L376.994 256.784L375.839 257.521L375.883 256.146H374.871L374.926 257.521L373.76 256.784L373.265 257.664L374.475 258.302L373.265 258.94L373.76 259.809L374.926 259.083L374.871 260.458H375.883L375.839 259.083L376.994 259.809L377.5 258.94ZM382.936 258.94L381.715 258.302L382.936 257.664L382.43 256.784L381.275 257.521L381.319 256.146H380.307L380.362 257.521L379.196 256.784L378.701 257.664L379.911 258.302L378.701 258.94L379.196 259.809L380.362 259.083L380.307 260.458H381.319L381.275 259.083L382.43 259.809L382.936 258.94ZM388.371 258.94L387.15 258.302L388.371 257.664L387.865 256.784L386.71 257.521L386.754 256.146H385.742L385.797 257.521L384.631 256.784L384.136 257.664L385.346 258.302L384.136 258.94L384.631 259.809L385.797 259.083L385.742 260.458H386.754L386.71 259.083L387.865 259.809L388.371 258.94ZM393.807 258.94L392.586 258.302L393.807 257.664L393.301 256.784L392.146 257.521L392.19 256.146H391.178L391.233 257.521L390.067 256.784L389.572 257.664L390.782 258.302L389.572 258.94L390.067 259.809L391.233 259.083L391.178 260.458H392.19L392.146 259.083L393.301 259.809L393.807 258.94Z" fill="#125EFF"/>
</g>
<g opacity="0.24">
<path d="M337.158 219V211.168H335.728L334.133 212.554V214.094L335.728 212.708V219H337.158ZM344.418 216.734C344.418 215.788 343.967 215.249 343.406 214.952C343.923 214.677 344.308 214.193 344.308 213.346C344.308 212.026 343.307 211.102 341.921 211.102C340.601 211.102 339.556 211.938 339.523 213.335H340.953C340.986 212.741 341.382 212.389 341.921 212.389C342.438 212.389 342.878 212.73 342.878 213.39C342.878 213.94 342.581 214.369 341.888 214.369H341.679V215.612H341.888C342.592 215.612 342.988 216.041 342.988 216.69C342.988 217.394 342.548 217.779 341.932 217.779C341.371 217.779 340.887 217.46 340.865 216.756H339.435C339.457 218.395 340.656 219.066 341.932 219.066C343.274 219.066 344.418 218.296 344.418 216.734ZM350.577 217.889V216.536H349.862V215.073H348.487V216.536H346.848L349.532 211.168H347.97L345.286 216.536V217.889H348.487V219H349.862V217.889H350.577ZM355.758 213.94L354.537 213.302L355.758 212.664L355.252 211.784L354.097 212.521L354.141 211.146H353.129L353.184 212.521L352.018 211.784L351.523 212.664L352.733 213.302L351.523 213.94L352.018 214.809L353.184 214.083L353.129 215.458H354.141L354.097 214.083L355.252 214.809L355.758 213.94ZM361.194 213.94L359.973 213.302L361.194 212.664L360.688 211.784L359.533 212.521L359.577 211.146H358.565L358.62 212.521L357.454 211.784L356.959 212.664L358.169 213.302L356.959 213.94L357.454 214.809L358.62 214.083L358.565 215.458H359.577L359.533 214.083L360.688 214.809L361.194 213.94ZM366.629 213.94L365.408 213.302L366.629 212.664L366.123 211.784L364.968 212.521L365.012 211.146H364L364.055 212.521L362.889 211.784L362.394 212.664L363.604 213.302L362.394 213.94L362.889 214.809L364.055 214.083L364 215.458H365.012L364.968 214.083L366.123 214.809L366.629 213.94ZM372.065 213.94L370.844 213.302L372.065 212.664L371.559 211.784L370.404 212.521L370.448 211.146H369.436L369.491 212.521L368.325 211.784L367.83 212.664L369.04 213.302L367.83 213.94L368.325 214.809L369.491 214.083L369.436 215.458H370.448L370.404 214.083L371.559 214.809L372.065 213.94ZM377.5 213.94L376.279 213.302L377.5 212.664L376.994 211.784L375.839 212.521L375.883 211.146H374.871L374.926 212.521L373.76 211.784L373.265 212.664L374.475 213.302L373.265 213.94L373.76 214.809L374.926 214.083L374.871 215.458H375.883L375.839 214.083L376.994 214.809L377.5 213.94ZM382.936 213.94L381.715 213.302L382.936 212.664L382.43 211.784L381.275 212.521L381.319 211.146H380.307L380.362 212.521L379.196 211.784L378.701 212.664L379.911 213.302L378.701 213.94L379.196 214.809L380.362 214.083L380.307 215.458H381.319L381.275 214.083L382.43 214.809L382.936 213.94ZM388.371 213.94L387.15 213.302L388.371 212.664L387.865 211.784L386.71 212.521L386.754 211.146H385.742L385.797 212.521L384.631 211.784L384.136 212.664L385.346 213.302L384.136 213.94L384.631 214.809L385.797 214.083L385.742 215.458H386.754L386.71 214.083L387.865 214.809L388.371 213.94ZM393.807 213.94L392.586 213.302L393.807 212.664L393.301 211.784L392.146 212.521L392.19 211.146H391.178L391.233 212.521L390.067 211.784L389.572 212.664L390.782 213.302L389.572 213.94L390.067 214.809L391.233 214.083L391.178 215.458H392.19L392.146 214.083L393.301 214.809L393.807 213.94Z" fill="white"/>
<path d="M337.158 219V211.168H335.728L334.133 212.554V214.094L335.728 212.708V219H337.158ZM344.418 216.734C344.418 215.788 343.967 215.249 343.406 214.952C343.923 214.677 344.308 214.193 344.308 213.346C344.308 212.026 343.307 211.102 341.921 211.102C340.601 211.102 339.556 211.938 339.523 213.335H340.953C340.986 212.741 341.382 212.389 341.921 212.389C342.438 212.389 342.878 212.73 342.878 213.39C342.878 213.94 342.581 214.369 341.888 214.369H341.679V215.612H341.888C342.592 215.612 342.988 216.041 342.988 216.69C342.988 217.394 342.548 217.779 341.932 217.779C341.371 217.779 340.887 217.46 340.865 216.756H339.435C339.457 218.395 340.656 219.066 341.932 219.066C343.274 219.066 344.418 218.296 344.418 216.734ZM350.577 217.889V216.536H349.862V215.073H348.487V216.536H346.848L349.532 211.168H347.97L345.286 216.536V217.889H348.487V219H349.862V217.889H350.577ZM355.758 213.94L354.537 213.302L355.758 212.664L355.252 211.784L354.097 212.521L354.141 211.146H353.129L353.184 212.521L352.018 211.784L351.523 212.664L352.733 213.302L351.523 213.94L352.018 214.809L353.184 214.083L353.129 215.458H354.141L354.097 214.083L355.252 214.809L355.758 213.94ZM361.194 213.94L359.973 213.302L361.194 212.664L360.688 211.784L359.533 212.521L359.577 211.146H358.565L358.62 212.521L357.454 211.784L356.959 212.664L358.169 213.302L356.959 213.94L357.454 214.809L358.62 214.083L358.565 215.458H359.577L359.533 214.083L360.688 214.809L361.194 213.94ZM366.629 213.94L365.408 213.302L366.629 212.664L366.123 211.784L364.968 212.521L365.012 211.146H364L364.055 212.521L362.889 211.784L362.394 212.664L363.604 213.302L362.394 213.94L362.889 214.809L364.055 214.083L364 215.458H365.012L364.968 214.083L366.123 214.809L366.629 213.94ZM372.065 213.94L370.844 213.302L372.065 212.664L371.559 211.784L370.404 212.521L370.448 211.146H369.436L369.491 212.521L368.325 211.784L367.83 212.664L369.04 213.302L367.83 213.94L368.325 214.809L369.491 214.083L369.436 215.458H370.448L370.404 214.083L371.559 214.809L372.065 213.94ZM377.5 213.94L376.279 213.302L377.5 212.664L376.994 211.784L375.839 212.521L375.883 211.146H374.871L374.926 212.521L373.76 211.784L373.265 212.664L374.475 213.302L373.265 213.94L373.76 214.809L374.926 214.083L374.871 215.458H375.883L375.839 214.083L376.994 214.809L377.5 213.94ZM382.936 213.94L381.715 213.302L382.936 212.664L382.43 211.784L381.275 212.521L381.319 211.146H380.307L380.362 212.521L379.196 211.784L378.701 212.664L379.911 213.302L378.701 213.94L379.196 214.809L380.362 214.083L380.307 215.458H381.319L381.275 214.083L382.43 214.809L382.936 213.94ZM388.371 213.94L387.15 213.302L388.371 212.664L387.865 211.784L386.71 212.521L386.754 211.146H385.742L385.797 212.521L384.631 211.784L384.136 212.664L385.346 213.302L384.136 213.94L384.631 214.809L385.797 214.083L385.742 215.458H386.754L386.71 214.083L387.865 214.809L388.371 213.94ZM393.807 213.94L392.586 213.302L393.807 212.664L393.301 211.784L392.146 212.521L392.19 211.146H391.178L391.233 212.521L390.067 211.784L389.572 212.664L390.782 213.302L389.572 213.94L390.067 214.809L391.233 214.083L391.178 215.458H392.19L392.146 214.083L393.301 214.809L393.807 213.94Z" fill="#125EFF"/>
</g>
<g opacity="0.24">
<path d="M337.158 309V301.168H335.728L334.133 302.554V304.094L335.728 302.708V309H337.158ZM344.418 306.734C344.418 305.788 343.967 305.249 343.406 304.952C343.923 304.677 344.308 304.193 344.308 303.346C344.308 302.026 343.307 301.102 341.921 301.102C340.601 301.102 339.556 301.938 339.523 303.335H340.953C340.986 302.741 341.382 302.389 341.921 302.389C342.438 302.389 342.878 302.73 342.878 303.39C342.878 303.94 342.581 304.369 341.888 304.369H341.679V305.612H341.888C342.592 305.612 342.988 306.041 342.988 306.69C342.988 307.394 342.548 307.779 341.932 307.779C341.371 307.779 340.887 307.46 340.865 306.756H339.435C339.457 308.395 340.656 309.066 341.932 309.066C343.274 309.066 344.418 308.296 344.418 306.734ZM350.577 307.889V306.536H349.862V305.073H348.487V306.536H346.848L349.532 301.168H347.97L345.286 306.536V307.889H348.487V309H349.862V307.889H350.577ZM355.758 303.94L354.537 303.302L355.758 302.664L355.252 301.784L354.097 302.521L354.141 301.146H353.129L353.184 302.521L352.018 301.784L351.523 302.664L352.733 303.302L351.523 303.94L352.018 304.809L353.184 304.083L353.129 305.458H354.141L354.097 304.083L355.252 304.809L355.758 303.94ZM361.194 303.94L359.973 303.302L361.194 302.664L360.688 301.784L359.533 302.521L359.577 301.146H358.565L358.62 302.521L357.454 301.784L356.959 302.664L358.169 303.302L356.959 303.94L357.454 304.809L358.62 304.083L358.565 305.458H359.577L359.533 304.083L360.688 304.809L361.194 303.94ZM366.629 303.94L365.408 303.302L366.629 302.664L366.123 301.784L364.968 302.521L365.012 301.146H364L364.055 302.521L362.889 301.784L362.394 302.664L363.604 303.302L362.394 303.94L362.889 304.809L364.055 304.083L364 305.458H365.012L364.968 304.083L366.123 304.809L366.629 303.94ZM372.065 303.94L370.844 303.302L372.065 302.664L371.559 301.784L370.404 302.521L370.448 301.146H369.436L369.491 302.521L368.325 301.784L367.83 302.664L369.04 303.302L367.83 303.94L368.325 304.809L369.491 304.083L369.436 305.458H370.448L370.404 304.083L371.559 304.809L372.065 303.94ZM377.5 303.94L376.279 303.302L377.5 302.664L376.994 301.784L375.839 302.521L375.883 301.146H374.871L374.926 302.521L373.76 301.784L373.265 302.664L374.475 303.302L373.265 303.94L373.76 304.809L374.926 304.083L374.871 305.458H375.883L375.839 304.083L376.994 304.809L377.5 303.94ZM382.936 303.94L381.715 303.302L382.936 302.664L382.43 301.784L381.275 302.521L381.319 301.146H380.307L380.362 302.521L379.196 301.784L378.701 302.664L379.911 303.302L378.701 303.94L379.196 304.809L380.362 304.083L380.307 305.458H381.319L381.275 304.083L382.43 304.809L382.936 303.94ZM388.371 303.94L387.15 303.302L388.371 302.664L387.865 301.784L386.71 302.521L386.754 301.146H385.742L385.797 302.521L384.631 301.784L384.136 302.664L385.346 303.302L384.136 303.94L384.631 304.809L385.797 304.083L385.742 305.458H386.754L386.71 304.083L387.865 304.809L388.371 303.94ZM393.807 303.94L392.586 303.302L393.807 302.664L393.301 301.784L392.146 302.521L392.19 301.146H391.178L391.233 302.521L390.067 301.784L389.572 302.664L390.782 303.302L389.572 303.94L390.067 304.809L391.233 304.083L391.178 305.458H392.19L392.146 304.083L393.301 304.809L393.807 303.94Z" fill="white"/>
<path d="M337.158 309V301.168H335.728L334.133 302.554V304.094L335.728 302.708V309H337.158ZM344.418 306.734C344.418 305.788 343.967 305.249 343.406 304.952C343.923 304.677 344.308 304.193 344.308 303.346C344.308 302.026 343.307 301.102 341.921 301.102C340.601 301.102 339.556 301.938 339.523 303.335H340.953C340.986 302.741 341.382 302.389 341.921 302.389C342.438 302.389 342.878 302.73 342.878 303.39C342.878 303.94 342.581 304.369 341.888 304.369H341.679V305.612H341.888C342.592 305.612 342.988 306.041 342.988 306.69C342.988 307.394 342.548 307.779 341.932 307.779C341.371 307.779 340.887 307.46 340.865 306.756H339.435C339.457 308.395 340.656 309.066 341.932 309.066C343.274 309.066 344.418 308.296 344.418 306.734ZM350.577 307.889V306.536H349.862V305.073H348.487V306.536H346.848L349.532 301.168H347.97L345.286 306.536V307.889H348.487V309H349.862V307.889H350.577ZM355.758 303.94L354.537 303.302L355.758 302.664L355.252 301.784L354.097 302.521L354.141 301.146H353.129L353.184 302.521L352.018 301.784L351.523 302.664L352.733 303.302L351.523 303.94L352.018 304.809L353.184 304.083L353.129 305.458H354.141L354.097 304.083L355.252 304.809L355.758 303.94ZM361.194 303.94L359.973 303.302L361.194 302.664L360.688 301.784L359.533 302.521L359.577 301.146H358.565L358.62 302.521L357.454 301.784L356.959 302.664L358.169 303.302L356.959 303.94L357.454 304.809L358.62 304.083L358.565 305.458H359.577L359.533 304.083L360.688 304.809L361.194 303.94ZM366.629 303.94L365.408 303.302L366.629 302.664L366.123 301.784L364.968 302.521L365.012 301.146H364L364.055 302.521L362.889 301.784L362.394 302.664L363.604 303.302L362.394 303.94L362.889 304.809L364.055 304.083L364 305.458H365.012L364.968 304.083L366.123 304.809L366.629 303.94ZM372.065 303.94L370.844 303.302L372.065 302.664L371.559 301.784L370.404 302.521L370.448 301.146H369.436L369.491 302.521L368.325 301.784L367.83 302.664L369.04 303.302L367.83 303.94L368.325 304.809L369.491 304.083L369.436 305.458H370.448L370.404 304.083L371.559 304.809L372.065 303.94ZM377.5 303.94L376.279 303.302L377.5 302.664L376.994 301.784L375.839 302.521L375.883 301.146H374.871L374.926 302.521L373.76 301.784L373.265 302.664L374.475 303.302L373.265 303.94L373.76 304.809L374.926 304.083L374.871 305.458H375.883L375.839 304.083L376.994 304.809L377.5 303.94ZM382.936 303.94L381.715 303.302L382.936 302.664L382.43 301.784L381.275 302.521L381.319 301.146H380.307L380.362 302.521L379.196 301.784L378.701 302.664L379.911 303.302L378.701 303.94L379.196 304.809L380.362 304.083L380.307 305.458H381.319L381.275 304.083L382.43 304.809L382.936 303.94ZM388.371 303.94L387.15 303.302L388.371 302.664L387.865 301.784L386.71 302.521L386.754 301.146H385.742L385.797 302.521L384.631 301.784L384.136 302.664L385.346 303.302L384.136 303.94L384.631 304.809L385.797 304.083L385.742 305.458H386.754L386.71 304.083L387.865 304.809L388.371 303.94ZM393.807 303.94L392.586 303.302L393.807 302.664L393.301 301.784L392.146 302.521L392.19 301.146H391.178L391.233 302.521L390.067 301.784L389.572 302.664L390.782 303.302L389.572 303.94L390.067 304.809L391.233 304.083L391.178 305.458H392.19L392.146 304.083L393.301 304.809L393.807 303.94Z" fill="#125EFF"/>
</g>
<g opacity="0.24">
<path d="M337.158 174V166.168H335.728L334.133 167.554V169.094L335.728 167.708V174H337.158ZM344.418 171.734C344.418 170.788 343.967 170.249 343.406 169.952C343.923 169.677 344.308 169.193 344.308 168.346C344.308 167.026 343.307 166.102 341.921 166.102C340.601 166.102 339.556 166.938 339.523 168.335H340.953C340.986 167.741 341.382 167.389 341.921 167.389C342.438 167.389 342.878 167.73 342.878 168.39C342.878 168.94 342.581 169.369 341.888 169.369H341.679V170.612H341.888C342.592 170.612 342.988 171.041 342.988 171.69C342.988 172.394 342.548 172.779 341.932 172.779C341.371 172.779 340.887 172.46 340.865 171.756H339.435C339.457 173.395 340.656 174.066 341.932 174.066C343.274 174.066 344.418 173.296 344.418 171.734ZM350.577 172.889V171.536H349.862V170.073H348.487V171.536H346.848L349.532 166.168H347.97L345.286 171.536V172.889H348.487V174H349.862V172.889H350.577ZM355.758 168.94L354.537 168.302L355.758 167.664L355.252 166.784L354.097 167.521L354.141 166.146H353.129L353.184 167.521L352.018 166.784L351.523 167.664L352.733 168.302L351.523 168.94L352.018 169.809L353.184 169.083L353.129 170.458H354.141L354.097 169.083L355.252 169.809L355.758 168.94ZM361.194 168.94L359.973 168.302L361.194 167.664L360.688 166.784L359.533 167.521L359.577 166.146H358.565L358.62 167.521L357.454 166.784L356.959 167.664L358.169 168.302L356.959 168.94L357.454 169.809L358.62 169.083L358.565 170.458H359.577L359.533 169.083L360.688 169.809L361.194 168.94ZM366.629 168.94L365.408 168.302L366.629 167.664L366.123 166.784L364.968 167.521L365.012 166.146H364L364.055 167.521L362.889 166.784L362.394 167.664L363.604 168.302L362.394 168.94L362.889 169.809L364.055 169.083L364 170.458H365.012L364.968 169.083L366.123 169.809L366.629 168.94ZM372.065 168.94L370.844 168.302L372.065 167.664L371.559 166.784L370.404 167.521L370.448 166.146H369.436L369.491 167.521L368.325 166.784L367.83 167.664L369.04 168.302L367.83 168.94L368.325 169.809L369.491 169.083L369.436 170.458H370.448L370.404 169.083L371.559 169.809L372.065 168.94ZM377.5 168.94L376.279 168.302L377.5 167.664L376.994 166.784L375.839 167.521L375.883 166.146H374.871L374.926 167.521L373.76 166.784L373.265 167.664L374.475 168.302L373.265 168.94L373.76 169.809L374.926 169.083L374.871 170.458H375.883L375.839 169.083L376.994 169.809L377.5 168.94ZM382.936 168.94L381.715 168.302L382.936 167.664L382.43 166.784L381.275 167.521L381.319 166.146H380.307L380.362 167.521L379.196 166.784L378.701 167.664L379.911 168.302L378.701 168.94L379.196 169.809L380.362 169.083L380.307 170.458H381.319L381.275 169.083L382.43 169.809L382.936 168.94ZM388.371 168.94L387.15 168.302L388.371 167.664L387.865 166.784L386.71 167.521L386.754 166.146H385.742L385.797 167.521L384.631 166.784L384.136 167.664L385.346 168.302L384.136 168.94L384.631 169.809L385.797 169.083L385.742 170.458H386.754L386.71 169.083L387.865 169.809L388.371 168.94ZM393.807 168.94L392.586 168.302L393.807 167.664L393.301 166.784L392.146 167.521L392.19 166.146H391.178L391.233 167.521L390.067 166.784L389.572 167.664L390.782 168.302L389.572 168.94L390.067 169.809L391.233 169.083L391.178 170.458H392.19L392.146 169.083L393.301 169.809L393.807 168.94Z" fill="white"/>
<path d="M337.158 174V166.168H335.728L334.133 167.554V169.094L335.728 167.708V174H337.158ZM344.418 171.734C344.418 170.788 343.967 170.249 343.406 169.952C343.923 169.677 344.308 169.193 344.308 168.346C344.308 167.026 343.307 166.102 341.921 166.102C340.601 166.102 339.556 166.938 339.523 168.335H340.953C340.986 167.741 341.382 167.389 341.921 167.389C342.438 167.389 342.878 167.73 342.878 168.39C342.878 168.94 342.581 169.369 341.888 169.369H341.679V170.612H341.888C342.592 170.612 342.988 171.041 342.988 171.69C342.988 172.394 342.548 172.779 341.932 172.779C341.371 172.779 340.887 172.46 340.865 171.756H339.435C339.457 173.395 340.656 174.066 341.932 174.066C343.274 174.066 344.418 173.296 344.418 171.734ZM350.577 172.889V171.536H349.862V170.073H348.487V171.536H346.848L349.532 166.168H347.97L345.286 171.536V172.889H348.487V174H349.862V172.889H350.577ZM355.758 168.94L354.537 168.302L355.758 167.664L355.252 166.784L354.097 167.521L354.141 166.146H353.129L353.184 167.521L352.018 166.784L351.523 167.664L352.733 168.302L351.523 168.94L352.018 169.809L353.184 169.083L353.129 170.458H354.141L354.097 169.083L355.252 169.809L355.758 168.94ZM361.194 168.94L359.973 168.302L361.194 167.664L360.688 166.784L359.533 167.521L359.577 166.146H358.565L358.62 167.521L357.454 166.784L356.959 167.664L358.169 168.302L356.959 168.94L357.454 169.809L358.62 169.083L358.565 170.458H359.577L359.533 169.083L360.688 169.809L361.194 168.94ZM366.629 168.94L365.408 168.302L366.629 167.664L366.123 166.784L364.968 167.521L365.012 166.146H364L364.055 167.521L362.889 166.784L362.394 167.664L363.604 168.302L362.394 168.94L362.889 169.809L364.055 169.083L364 170.458H365.012L364.968 169.083L366.123 169.809L366.629 168.94ZM372.065 168.94L370.844 168.302L372.065 167.664L371.559 166.784L370.404 167.521L370.448 166.146H369.436L369.491 167.521L368.325 166.784L367.83 167.664L369.04 168.302L367.83 168.94L368.325 169.809L369.491 169.083L369.436 170.458H370.448L370.404 169.083L371.559 169.809L372.065 168.94ZM377.5 168.94L376.279 168.302L377.5 167.664L376.994 166.784L375.839 167.521L375.883 166.146H374.871L374.926 167.521L373.76 166.784L373.265 167.664L374.475 168.302L373.265 168.94L373.76 169.809L374.926 169.083L374.871 170.458H375.883L375.839 169.083L376.994 169.809L377.5 168.94ZM382.936 168.94L381.715 168.302L382.936 167.664L382.43 166.784L381.275 167.521L381.319 166.146H380.307L380.362 167.521L379.196 166.784L378.701 167.664L379.911 168.302L378.701 168.94L379.196 169.809L380.362 169.083L380.307 170.458H381.319L381.275 169.083L382.43 169.809L382.936 168.94ZM388.371 168.94L387.15 168.302L388.371 167.664L387.865 166.784L386.71 167.521L386.754 166.146H385.742L385.797 167.521L384.631 166.784L384.136 167.664L385.346 168.302L384.136 168.94L384.631 169.809L385.797 169.083L385.742 170.458H386.754L386.71 169.083L387.865 169.809L388.371 168.94ZM393.807 168.94L392.586 168.302L393.807 167.664L393.301 166.784L392.146 167.521L392.19 166.146H391.178L391.233 167.521L390.067 166.784L389.572 167.664L390.782 168.302L389.572 168.94L390.067 169.809L391.233 169.083L391.178 170.458H392.19L392.146 169.083L393.301 169.809L393.807 168.94Z" fill="#125EFF"/>
</g>
<rect x="46.4089" y="57.4089" width="129.182" height="303.182" rx="9.65563" fill="white"/>
<rect x="46.4089" y="57.4089" width="129.182" height="303.182" rx="9.65563" fill="url(#paint6_linear_1616_9743)" fill-opacity="0.06"/>
<rect x="46.4089" y="57.4089" width="129.182" height="303.182" rx="9.65563" stroke="#F2F6FF" stroke-width="0.817741"/>
<path d="M128.666 150.738H115.334V155.696H118.666C119.108 155.696 119.533 155.87 119.845 156.18C120.158 156.49 120.334 156.91 120.334 157.348C120.334 157.786 120.158 158.206 119.845 158.516C119.533 158.826 119.108 159 118.666 159H105.334C104.892 159 104.467 158.826 104.155 158.516C103.842 158.206 103.666 157.786 103.666 157.348C103.666 156.91 103.842 156.49 104.155 156.18C104.467 155.87 104.892 155.696 105.334 155.696H108.666V150.738H95.3343C94.8962 150.738 94.4624 150.652 94.0577 150.486C93.6529 150.32 93.2852 150.077 92.9756 149.77C92.6659 149.463 92.4204 149.099 92.253 148.698C92.0856 148.297 91.9996 147.867 92 147.434V124.304C92 122.479 93.4914 121 95.3343 121H128.666C130.509 121 132 122.479 132 124.304V147.434C132 149.258 130.509 150.738 128.666 150.738ZM95.3343 146.63C95.3343 147.266 95.85 147.782 96.4862 147.782H127.514C128.15 147.782 128.666 147.266 128.666 146.63C128.666 145.994 128.15 145.478 127.514 145.478H96.4862C95.85 145.478 95.3343 145.994 95.3343 146.63Z" fill="white"/>
<path d="M128.666 150.738H115.334V155.696H118.666C119.108 155.696 119.533 155.87 119.845 156.18C120.158 156.49 120.334 156.91 120.334 157.348C120.334 157.786 120.158 158.206 119.845 158.516C119.533 158.826 119.108 159 118.666 159H105.334C104.892 159 104.467 158.826 104.155 158.516C103.842 158.206 103.666 157.786 103.666 157.348C103.666 156.91 103.842 156.49 104.155 156.18C104.467 155.87 104.892 155.696 105.334 155.696H108.666V150.738H95.3343C94.8962 150.738 94.4624 150.652 94.0577 150.486C93.6529 150.32 93.2852 150.077 92.9756 149.77C92.6659 149.463 92.4204 149.099 92.253 148.698C92.0856 148.297 91.9996 147.867 92 147.434V124.304C92 122.479 93.4914 121 95.3343 121H128.666C130.509 121 132 122.479 132 124.304V147.434C132 149.258 130.509 150.738 128.666 150.738ZM95.3343 146.63C95.3343 147.266 95.85 147.782 96.4862 147.782H127.514C128.15 147.782 128.666 147.266 128.666 146.63C128.666 145.994 128.15 145.478 127.514 145.478H96.4862C95.85 145.478 95.3343 145.994 95.3343 146.63Z" fill="url(#paint7_linear_1616_9743)" fill-opacity="0.35"/>
<path d="M113.951 134.071C114.044 134.071 114.134 134.1 114.21 134.153L119.016 137.548C119.219 137.691 119.267 137.972 119.124 138.174C119.096 138.213 119.063 138.248 119.024 138.276L114.218 141.834C114.019 141.982 113.738 141.94 113.59 141.74C113.533 141.663 113.502 141.569 113.502 141.473V139.184H109.573C106.773 139.2 105.253 137.816 105.012 135.033C105.255 135.288 106.318 136.791 109.573 136.791C111.743 136.791 113.052 136.766 113.502 136.716V134.52C113.502 134.272 113.703 134.071 113.951 134.071ZM110.945 127.182C111.002 127.259 111.033 127.353 111.033 127.449V129.738H114.962C117.762 129.722 119.283 131.106 119.523 133.889C119.28 133.635 118.217 132.132 114.962 132.132C112.792 132.132 111.483 132.157 111.033 132.206V134.402C111.033 134.65 110.832 134.851 110.584 134.851C110.491 134.851 110.401 134.823 110.325 134.769L105.519 131.374C105.316 131.231 105.268 130.951 105.411 130.748C105.439 130.709 105.473 130.675 105.511 130.646L110.317 127.088C110.516 126.941 110.797 126.983 110.945 127.182V127.182Z" fill="white"/>
<circle cx="67.8125" cy="78.8125" r="5" fill="#1561FF"/>
<circle cx="81.8125" cy="78.8125" r="5" fill="#FD8113"/>
<circle cx="95.8125" cy="78.8125" r="5" fill="#0CE18F"/>
<line opacity="0.3" x1="200.435" y1="117.565" x2="452.565" y2="117.565" stroke="#869BB9" stroke-width="0.870144" stroke-linecap="round" stroke-dasharray="1.74 2.61"/>
<rect x="200" y="89" width="48" height="9" rx="4.5" fill="#F0F5FF"/>
<path d="M410.756 165.686C410.613 165.556 410.425 165.484 410.231 165.484C410.214 165.484 410.196 165.484 410.178 165.485C410.167 165.486 410.044 165.494 409.851 165.494C409.531 165.494 408.906 165.472 408.314 165.33C407.549 165.146 406.667 164.295 406.41 164.127C406.281 164.042 406.132 164 405.983 164C405.834 164 405.685 164.042 405.556 164.126C405.525 164.147 404.601 165.113 403.697 165.33C403.106 165.472 402.469 165.494 402.149 165.494C401.956 165.494 401.833 165.486 401.82 165.485C401.804 165.484 401.787 165.484 401.77 165.484C401.575 165.484 401.387 165.555 401.244 165.686C401.088 165.828 401 166.027 401 166.235V168.114C401 175.059 405.65 175.953 405.847 175.989C405.892 175.996 405.937 176 405.983 176C406.028 176 406.074 175.996 406.119 175.989C406.316 175.953 411 175.059 411 168.114V166.235C411 166.027 410.911 165.828 410.756 165.686ZM409.037 168.373L405.813 171.525C405.793 171.558 405.768 171.591 405.738 171.62C405.644 171.712 405.519 171.757 405.395 171.754C405.271 171.757 405.146 171.712 405.052 171.62C405.022 171.591 404.997 171.558 404.976 171.525L403.254 169.84C403.07 169.661 403.07 169.371 403.254 169.191C403.437 169.012 403.735 169.012 403.918 169.191L405.395 170.635L408.373 167.724C408.556 167.545 408.853 167.545 409.037 167.724C409.22 167.903 409.22 168.194 409.037 168.373Z" fill="white"/>
<path d="M410.756 165.686C410.613 165.556 410.425 165.484 410.231 165.484C410.214 165.484 410.196 165.484 410.178 165.485C410.167 165.486 410.044 165.494 409.851 165.494C409.531 165.494 408.906 165.472 408.314 165.33C407.549 165.146 406.667 164.295 406.41 164.127C406.281 164.042 406.132 164 405.983 164C405.834 164 405.685 164.042 405.556 164.126C405.525 164.147 404.601 165.113 403.697 165.33C403.106 165.472 402.469 165.494 402.149 165.494C401.956 165.494 401.833 165.486 401.82 165.485C401.804 165.484 401.787 165.484 401.77 165.484C401.575 165.484 401.387 165.555 401.244 165.686C401.088 165.828 401 166.027 401 166.235V168.114C401 175.059 405.65 175.953 405.847 175.989C405.892 175.996 405.937 176 405.983 176C406.028 176 406.074 175.996 406.119 175.989C406.316 175.953 411 175.059 411 168.114V166.235C411 166.027 410.911 165.828 410.756 165.686ZM409.037 168.373L405.813 171.525C405.793 171.558 405.768 171.591 405.738 171.62C405.644 171.712 405.519 171.757 405.395 171.754C405.271 171.757 405.146 171.712 405.052 171.62C405.022 171.591 404.997 171.558 404.976 171.525L403.254 169.84C403.07 169.661 403.07 169.371 403.254 169.191C403.437 169.012 403.735 169.012 403.918 169.191L405.395 170.635L408.373 167.724C408.556 167.545 408.853 167.545 409.037 167.724C409.22 167.903 409.22 168.194 409.037 168.373Z" fill="url(#paint8_linear_1616_9743)" fill-opacity="0.35"/>
<path d="M410.756 210.686C410.613 210.556 410.425 210.484 410.231 210.484C410.214 210.484 410.196 210.484 410.178 210.485C410.167 210.486 410.044 210.494 409.851 210.494C409.531 210.494 408.906 210.472 408.314 210.33C407.549 210.146 406.667 209.295 406.41 209.127C406.281 209.042 406.132 209 405.983 209C405.834 209 405.685 209.042 405.556 209.126C405.525 209.147 404.601 210.113 403.697 210.33C403.106 210.472 402.469 210.494 402.149 210.494C401.956 210.494 401.833 210.486 401.82 210.485C401.804 210.484 401.787 210.484 401.77 210.484C401.575 210.484 401.387 210.555 401.244 210.686C401.088 210.828 401 211.027 401 211.235V213.114C401 220.059 405.65 220.953 405.847 220.989C405.892 220.996 405.937 221 405.983 221C406.028 221 406.074 220.996 406.119 220.989C406.316 220.953 411 220.059 411 213.114V211.235C411 211.027 410.911 210.828 410.756 210.686ZM409.037 213.373L405.813 216.525C405.793 216.558 405.768 216.591 405.738 216.62C405.644 216.712 405.519 216.757 405.395 216.754C405.271 216.757 405.146 216.712 405.052 216.62C405.022 216.591 404.997 216.558 404.976 216.525L403.254 214.84C403.07 214.661 403.07 214.371 403.254 214.191C403.437 214.012 403.735 214.012 403.918 214.191L405.395 215.635L408.373 212.724C408.556 212.545 408.853 212.545 409.037 212.724C409.22 212.903 409.22 213.194 409.037 213.373Z" fill="white"/>
<path d="M410.756 210.686C410.613 210.556 410.425 210.484 410.231 210.484C410.214 210.484 410.196 210.484 410.178 210.485C410.167 210.486 410.044 210.494 409.851 210.494C409.531 210.494 408.906 210.472 408.314 210.33C407.549 210.146 406.667 209.295 406.41 209.127C406.281 209.042 406.132 209 405.983 209C405.834 209 405.685 209.042 405.556 209.126C405.525 209.147 404.601 210.113 403.697 210.33C403.106 210.472 402.469 210.494 402.149 210.494C401.956 210.494 401.833 210.486 401.82 210.485C401.804 210.484 401.787 210.484 401.77 210.484C401.575 210.484 401.387 210.555 401.244 210.686C401.088 210.828 401 211.027 401 211.235V213.114C401 220.059 405.65 220.953 405.847 220.989C405.892 220.996 405.937 221 405.983 221C406.028 221 406.074 220.996 406.119 220.989C406.316 220.953 411 220.059 411 213.114V211.235C411 211.027 410.911 210.828 410.756 210.686ZM409.037 213.373L405.813 216.525C405.793 216.558 405.768 216.591 405.738 216.62C405.644 216.712 405.519 216.757 405.395 216.754C405.271 216.757 405.146 216.712 405.052 216.62C405.022 216.591 404.997 216.558 404.976 216.525L403.254 214.84C403.07 214.661 403.07 214.371 403.254 214.191C403.437 214.012 403.735 214.012 403.918 214.191L405.395 215.635L408.373 212.724C408.556 212.545 408.853 212.545 409.037 212.724C409.22 212.903 409.22 213.194 409.037 213.373Z" fill="url(#paint9_linear_1616_9743)" fill-opacity="0.35"/>
<path d="M410.756 255.686C410.613 255.556 410.425 255.484 410.231 255.484C410.214 255.484 410.196 255.484 410.178 255.485C410.167 255.486 410.044 255.494 409.851 255.494C409.531 255.494 408.906 255.472 408.314 255.33C407.549 255.146 406.667 254.295 406.41 254.127C406.281 254.042 406.132 254 405.983 254C405.834 254 405.685 254.042 405.556 254.126C405.525 254.147 404.601 255.113 403.697 255.33C403.106 255.472 402.469 255.494 402.149 255.494C401.956 255.494 401.833 255.486 401.82 255.485C401.804 255.484 401.787 255.484 401.77 255.484C401.575 255.484 401.387 255.555 401.244 255.686C401.088 255.828 401 256.027 401 256.235V258.114C401 265.059 405.65 265.953 405.847 265.989C405.892 265.996 405.937 266 405.983 266C406.028 266 406.074 265.996 406.119 265.989C406.316 265.953 411 265.059 411 258.114V256.235C411 256.027 410.911 255.828 410.756 255.686ZM409.037 258.373L405.813 261.525C405.793 261.558 405.768 261.591 405.738 261.62C405.644 261.712 405.519 261.757 405.395 261.754C405.271 261.757 405.146 261.712 405.052 261.62C405.022 261.591 404.997 261.558 404.976 261.525L403.254 259.84C403.07 259.661 403.07 259.371 403.254 259.191C403.437 259.012 403.735 259.012 403.918 259.191L405.395 260.635L408.373 257.724C408.556 257.545 408.853 257.545 409.037 257.724C409.22 257.903 409.22 258.194 409.037 258.373Z" fill="white"/>
<path d="M410.756 255.686C410.613 255.556 410.425 255.484 410.231 255.484C410.214 255.484 410.196 255.484 410.178 255.485C410.167 255.486 410.044 255.494 409.851 255.494C409.531 255.494 408.906 255.472 408.314 255.33C407.549 255.146 406.667 254.295 406.41 254.127C406.281 254.042 406.132 254 405.983 254C405.834 254 405.685 254.042 405.556 254.126C405.525 254.147 404.601 255.113 403.697 255.33C403.106 255.472 402.469 255.494 402.149 255.494C401.956 255.494 401.833 255.486 401.82 255.485C401.804 255.484 401.787 255.484 401.77 255.484C401.575 255.484 401.387 255.555 401.244 255.686C401.088 255.828 401 256.027 401 256.235V258.114C401 265.059 405.65 265.953 405.847 265.989C405.892 265.996 405.937 266 405.983 266C406.028 266 406.074 265.996 406.119 265.989C406.316 265.953 411 265.059 411 258.114V256.235C411 256.027 410.911 255.828 410.756 255.686ZM409.037 258.373L405.813 261.525C405.793 261.558 405.768 261.591 405.738 261.62C405.644 261.712 405.519 261.757 405.395 261.754C405.271 261.757 405.146 261.712 405.052 261.62C405.022 261.591 404.997 261.558 404.976 261.525L403.254 259.84C403.07 259.661 403.07 259.371 403.254 259.191C403.437 259.012 403.735 259.012 403.918 259.191L405.395 260.635L408.373 257.724C408.556 257.545 408.853 257.545 409.037 257.724C409.22 257.903 409.22 258.194 409.037 258.373Z" fill="url(#paint10_linear_1616_9743)" fill-opacity="0.35"/>
<path d="M410.756 300.686C410.613 300.556 410.425 300.484 410.231 300.484C410.214 300.484 410.196 300.484 410.178 300.485C410.167 300.486 410.044 300.494 409.851 300.494C409.531 300.494 408.906 300.472 408.314 300.33C407.549 300.146 406.667 299.295 406.41 299.127C406.281 299.042 406.132 299 405.983 299C405.834 299 405.685 299.042 405.556 299.126C405.525 299.147 404.601 300.113 403.697 300.33C403.106 300.472 402.469 300.494 402.149 300.494C401.956 300.494 401.833 300.486 401.82 300.485C401.804 300.484 401.787 300.484 401.77 300.484C401.575 300.484 401.387 300.555 401.244 300.686C401.088 300.828 401 301.027 401 301.235V303.114C401 310.059 405.65 310.953 405.847 310.989C405.892 310.996 405.937 311 405.983 311C406.028 311 406.074 310.996 406.119 310.989C406.316 310.953 411 310.059 411 303.114V301.235C411 301.027 410.911 300.828 410.756 300.686ZM409.037 303.373L405.813 306.525C405.793 306.558 405.768 306.591 405.738 306.62C405.644 306.712 405.519 306.757 405.395 306.754C405.271 306.757 405.146 306.712 405.052 306.62C405.022 306.591 404.997 306.558 404.976 306.525L403.254 304.84C403.07 304.661 403.07 304.371 403.254 304.191C403.437 304.012 403.735 304.012 403.918 304.191L405.395 305.635L408.373 302.724C408.556 302.545 408.853 302.545 409.037 302.724C409.22 302.903 409.22 303.194 409.037 303.373Z" fill="white"/>
<path d="M410.756 300.686C410.613 300.556 410.425 300.484 410.231 300.484C410.214 300.484 410.196 300.484 410.178 300.485C410.167 300.486 410.044 300.494 409.851 300.494C409.531 300.494 408.906 300.472 408.314 300.33C407.549 300.146 406.667 299.295 406.41 299.127C406.281 299.042 406.132 299 405.983 299C405.834 299 405.685 299.042 405.556 299.126C405.525 299.147 404.601 300.113 403.697 300.33C403.106 300.472 402.469 300.494 402.149 300.494C401.956 300.494 401.833 300.486 401.82 300.485C401.804 300.484 401.787 300.484 401.77 300.484C401.575 300.484 401.387 300.555 401.244 300.686C401.088 300.828 401 301.027 401 301.235V303.114C401 310.059 405.65 310.953 405.847 310.989C405.892 310.996 405.937 311 405.983 311C406.028 311 406.074 310.996 406.119 310.989C406.316 310.953 411 310.059 411 303.114V301.235C411 301.027 410.911 300.828 410.756 300.686ZM409.037 303.373L405.813 306.525C405.793 306.558 405.768 306.591 405.738 306.62C405.644 306.712 405.519 306.757 405.395 306.754C405.271 306.757 405.146 306.712 405.052 306.62C405.022 306.591 404.997 306.558 404.976 306.525L403.254 304.84C403.07 304.661 403.07 304.371 403.254 304.191C403.437 304.012 403.735 304.012 403.918 304.191L405.395 305.635L408.373 302.724C408.556 302.545 408.853 302.545 409.037 302.724C409.22 302.903 409.22 303.194 409.037 303.373Z" fill="url(#paint11_linear_1616_9743)" fill-opacity="0.35"/>
<rect x="72" y="183" width="80" height="9" rx="4.5" fill="white"/>
<rect x="72" y="212" width="58" height="9" rx="4.5" fill="white"/>
<circle cx="198" cy="402" r="5" fill="white"/>
<circle cx="198" cy="402" r="5" fill="url(#paint12_linear_1616_9743)" fill-opacity="0.2"/>
<defs>
<filter id="filter0_d_1616_9743" x="0" y="20" width="508" height="398.113" filterUnits="userSpaceOnUse" color-interpolation-filters="sRGB">
<feFlood flood-opacity="0" result="BackgroundImageFix"/>
<feColorMatrix in="SourceAlpha" type="matrix" values="0 0 0 0 0 0 0 0 0 0 0 0 0 0 0 0 0 0 127 0" result="hardAlpha"/>
<feOffset dy="10"/>
<feGaussianBlur stdDeviation="15"/>
<feColorMatrix type="matrix" values="0 0 0 0 0.0196078 0 0 0 0 0.333333 0 0 0 0 1 0 0 0 0.1 0"/>
<feBlend mode="normal" in2="BackgroundImageFix" result="effect1_dropShadow_1616_9743"/>
<feBlend mode="normal" in="SourceGraphic" in2="effect1_dropShadow_1616_9743" result="shape"/>
</filter>
<linearGradient id="paint0_linear_1616_9743" x1="18" y1="215" x2="18" y2="225" gradientUnits="userSpaceOnUse">
<stop stop-color="#0555FF"/>
<stop offset="1" stop-color="#0555FF" stop-opacity="0.21"/>
</linearGradient>
<linearGradient id="paint1_linear_1616_9743" x1="389" y1="31" x2="389" y2="45" gradientUnits="userSpaceOnUse">
<stop stop-color="#0555FF"/>
<stop offset="1" stop-color="#0555FF" stop-opacity="0.21"/>
</linearGradient>
<linearGradient id="paint2_linear_1616_9743" x1="213" y1="295" x2="233" y2="315" gradientUnits="userSpaceOnUse">
<stop stop-color="#0555FF"/>
<stop offset="1" stop-color="#0555FF" stop-opacity="0.21"/>
</linearGradient>
<linearGradient id="paint3_linear_1616_9743" x1="213.566" y1="250.5" x2="234.392" y2="264.122" gradientUnits="userSpaceOnUse">
<stop stop-color="#07D988"/>
<stop offset="1" stop-color="#15F59F" stop-opacity="0.2"/>
</linearGradient>
<linearGradient id="paint4_linear_1616_9743" x1="213" y1="205" x2="233" y2="225" gradientUnits="userSpaceOnUse">
<stop stop-color="#0555FF"/>
<stop offset="1" stop-color="#0555FF" stop-opacity="0.21"/>
</linearGradient>
<radialGradient id="paint5_radial_1616_9743" cx="0" cy="0" r="1" gradientUnits="userSpaceOnUse" gradientTransform="translate(215.353 162.353) rotate(47.3373) scale(20.3983 22.5281)">
<stop stop-color="#FD8011"/>
<stop offset="1" stop-color="#FD7F11" stop-opacity="0.2"/>
</radialGradient>
<linearGradient id="paint6_linear_1616_9743" x1="111" y1="57" x2="111" y2="361" gradientUnits="userSpaceOnUse">
<stop stop-color="#0555FF"/>
<stop offset="1" stop-color="#0555FF" stop-opacity="0.6"/>
</linearGradient>
<linearGradient id="paint7_linear_1616_9743" x1="92" y1="121" x2="129.95" y2="160.947" gradientUnits="userSpaceOnUse">
<stop stop-color="#0555FF"/>
<stop offset="1" stop-color="#0555FF" stop-opacity="0.21"/>
</linearGradient>
<linearGradient id="paint8_linear_1616_9743" x1="401" y1="164" x2="412.803" y2="173.836" gradientUnits="userSpaceOnUse">
<stop stop-color="#0555FF"/>
<stop offset="1" stop-color="#0555FF" stop-opacity="0.21"/>
</linearGradient>
<linearGradient id="paint9_linear_1616_9743" x1="401" y1="209" x2="412.803" y2="218.836" gradientUnits="userSpaceOnUse">
<stop stop-color="#0555FF"/>
<stop offset="1" stop-color="#0555FF" stop-opacity="0.21"/>
</linearGradient>
<linearGradient id="paint10_linear_1616_9743" x1="401" y1="254" x2="412.803" y2="263.836" gradientUnits="userSpaceOnUse">
<stop stop-color="#0555FF"/>
<stop offset="1" stop-color="#0555FF" stop-opacity="0.21"/>
</linearGradient>
<linearGradient id="paint11_linear_1616_9743" x1="401" y1="299" x2="412.803" y2="308.836" gradientUnits="userSpaceOnUse">
<stop stop-color="#0555FF"/>
<stop offset="1" stop-color="#0555FF" stop-opacity="0.21"/>
</linearGradient>
<linearGradient id="paint12_linear_1616_9743" x1="198" y1="397" x2="198" y2="407" gradientUnits="userSpaceOnUse">
<stop stop-color="#0555FF"/>
<stop offset="1" stop-color="#0555FF" stop-opacity="0.21"/>
</linearGradient>
</defs>
</svg>
