<svg width="508" height="440" viewBox="0 0 508 440" fill="none" xmlns="http://www.w3.org/2000/svg">
<rect width="496" height="440" transform="translate(6)" fill="white"/>
<g filter="url(#filter0_d_1616_6421)">
<rect x="30" y="40" width="448" height="338.113" rx="16" fill="white"/>
<rect x="30.5" y="40.5" width="447" height="337.113" rx="15.5" stroke="#F2F6FF"/>
</g>
<g filter="url(#filter1_d_1616_6421)">
<rect x="374" y="336" width="72" height="72" rx="16" fill="url(#paint0_linear_1616_6421)"/>
</g>
<path fill-rule="evenodd" clip-rule="evenodd" d="M393.831 361.294C394.14 360.909 394.49 360.551 394.877 360.23C394.879 360.228 394.881 360.226 394.883 360.225C394.886 360.224 394.888 360.222 394.888 360.219L394.966 360.151H394.971L395.332 359.85C395.369 359.82 395.409 359.793 395.448 359.767L395.448 359.766C395.464 359.756 395.479 359.745 395.494 359.735H395.489L397.236 358.265L397.272 358.233L408.368 349.383C409.451 348.477 411.03 348.487 412.102 349.414L423.01 358.423L423.109 358.512L425.316 360.414H425.321L425.645 360.693C425.875 360.894 426.09 361.104 426.294 361.326C427.569 362.722 428.291 364.56 428.291 366.483V378.542C428.291 381.544 426.545 384.263 423.825 385.496L413.174 390.321L412.87 390.458C412.836 390.474 412.802 390.488 412.769 390.503L412.768 390.503C412.734 390.517 412.7 390.532 412.667 390.548C412.665 390.548 412.664 390.548 412.664 390.548C412.663 390.549 412.662 390.549 412.661 390.55C412.66 390.55 412.66 390.55 412.659 390.55C412.658 390.551 412.657 390.552 412.656 390.553C412.633 390.562 412.61 390.572 412.587 390.581L409.916 391.762L399.782 395.723C398.496 396.229 397.251 394.907 397.811 393.637L400.3 388.048L400.577 387.295L396.603 385.496C393.884 384.263 392.142 381.544 392.142 378.542V366.098C392.142 364.334 392.749 362.643 393.831 361.294ZM396.958 373.89C397.492 378.968 401.272 382.177 410.214 382.314C419.156 382.177 422.942 378.974 423.47 373.895C423.784 370.882 423.533 367.926 423.271 366.025C423.093 364.718 422.225 363.601 420.996 363.138C416.018 361.273 412.619 361.189 410.219 361.189C406.962 361.189 404.143 361.373 399.427 363.138C398.198 363.601 397.33 364.713 397.152 366.025C396.896 367.921 396.645 370.877 396.958 373.89ZM389.915 353.281H390.549C390.685 353.281 390.803 353.349 390.803 353.426V364.703H391.196C391.279 364.703 391.342 364.772 391.342 364.851V374.86C391.342 374.944 391.274 375.008 391.196 375.008H389.632C389.02 375.008 388.524 374.507 388.518 373.891V365.825C388.518 365.204 389.02 364.703 389.632 364.703H389.661V353.426C389.661 353.349 389.77 353.281 389.915 353.281ZM429.232 375.044H430.795C431.407 375.044 431.904 374.544 431.909 373.928V365.862C431.909 365.24 431.407 364.74 430.795 364.74H429.232C429.148 364.74 429.085 364.808 429.085 364.888V374.897C429.085 374.981 429.153 375.044 429.232 375.044ZM405.592 373.051H404.055C403.715 373.051 403.438 372.771 403.438 372.429V367.614C403.438 367.271 403.715 366.992 404.055 366.992H405.592C405.932 366.992 406.209 367.271 406.209 367.614V372.429C406.209 372.771 405.932 373.051 405.592 373.051ZM416.38 373.051H414.843C414.503 373.051 414.226 372.771 414.226 372.429V367.614C414.226 367.271 414.503 366.992 414.843 366.992H416.38C416.72 366.992 416.997 367.271 416.997 367.614V372.429C416.997 372.771 416.72 373.051 416.38 373.051ZM410.23 378.167C411.255 378.167 412.217 377.846 412.881 377.293C413.049 377.15 413.075 376.897 412.933 376.729C412.792 376.56 412.541 376.534 412.374 376.676C411.851 377.113 411.072 377.366 410.235 377.366C409.383 377.366 408.593 377.108 408.076 376.655C407.908 376.513 407.657 376.529 407.516 376.697C407.375 376.866 407.391 377.119 407.558 377.261C408.212 377.84 409.189 378.167 410.23 378.167Z" fill="url(#paint1_linear_1616_6421)"/>
<rect x="70.5105" y="324.51" width="38.9791" height="19.9791" rx="9.98955" fill="white"/>
<rect x="70.5105" y="324.51" width="38.9791" height="19.9791" rx="9.98955" fill="url(#paint2_linear_1616_6421)" fill-opacity="0.06"/>
<rect x="70.5105" y="324.51" width="38.9791" height="19.9791" rx="9.98955" stroke="#F2F6FF" stroke-width="1.02091"/>
<rect x="91" y="326" width="17" height="17" rx="8.5" fill="white"/>
<rect x="91" y="326" width="17" height="17" rx="8.5" fill="url(#paint3_linear_1616_6421)" fill-opacity="0.4"/>
<g opacity="0.25">
<path d="M101.904 105V103.596H98.604L100.992 100.824C101.58 100.14 101.904 99.696 101.904 98.868C101.904 97.332 100.824 96.384 99.312 96.384C97.848 96.384 96.708 97.32 96.708 98.88H98.268C98.268 98.052 98.796 97.788 99.312 97.788C99.972 97.788 100.344 98.22 100.344 98.856C100.344 99.252 100.212 99.516 99.9 99.888L96.708 103.596V105H101.904ZM108.372 102.528V98.928C108.372 97.296 107.172 96.384 105.78 96.384C104.388 96.384 103.176 97.296 103.176 98.928V102.528C103.176 104.16 104.388 105.072 105.78 105.072C107.172 105.072 108.372 104.16 108.372 102.528ZM106.812 102.516C106.812 103.236 106.392 103.668 105.78 103.668C105.168 103.668 104.736 103.236 104.736 102.516V98.952C104.736 98.232 105.168 97.788 105.78 97.788C106.392 97.788 106.812 98.232 106.812 98.952V102.516ZM114.935 105V103.596H111.635L114.023 100.824C114.611 100.14 114.935 99.696 114.935 98.868C114.935 97.332 113.855 96.384 112.343 96.384C110.879 96.384 109.739 97.32 109.739 98.88H111.299C111.299 98.052 111.827 97.788 112.343 97.788C113.003 97.788 113.375 98.22 113.375 98.856C113.375 99.252 113.243 99.516 112.931 99.888L109.739 103.596V105H114.935ZM121.451 105V103.596H118.151L120.539 100.824C121.127 100.14 121.451 99.696 121.451 98.868C121.451 97.332 120.371 96.384 118.859 96.384C117.395 96.384 116.255 97.32 116.255 98.88H117.815C117.815 98.052 118.343 97.788 118.859 97.788C119.519 97.788 119.891 98.22 119.891 98.856C119.891 99.252 119.759 99.516 119.447 99.888L116.255 103.596V105H121.451ZM124.667 105V103.224H122.879V105H124.667ZM131.424 102.528C131.424 101.496 130.932 100.908 130.32 100.584C130.884 100.284 131.304 99.756 131.304 98.832C131.304 97.392 130.212 96.384 128.7 96.384C127.26 96.384 126.12 97.296 126.084 98.82H127.644C127.68 98.172 128.112 97.788 128.7 97.788C129.264 97.788 129.744 98.16 129.744 98.88C129.744 99.48 129.42 99.948 128.664 99.948H128.436V101.304H128.664C129.432 101.304 129.864 101.772 129.864 102.48C129.864 103.248 129.384 103.668 128.712 103.668C128.1 103.668 127.572 103.32 127.548 102.552H125.988C126.012 104.34 127.32 105.072 128.712 105.072C130.176 105.072 131.424 104.232 131.424 102.528ZM134.604 105V103.224H132.816V105H134.604ZM139.958 105V96.456H138.398L136.658 97.968V99.648L138.398 98.136V105H139.958ZM147.878 102.528C147.878 101.496 147.386 100.908 146.774 100.584C147.338 100.284 147.758 99.756 147.758 98.832C147.758 97.392 146.666 96.384 145.154 96.384C143.714 96.384 142.574 97.296 142.538 98.82H144.098C144.134 98.172 144.566 97.788 145.154 97.788C145.718 97.788 146.198 98.16 146.198 98.88C146.198 99.48 145.874 99.948 145.118 99.948H144.89V101.304H145.118C145.886 101.304 146.318 101.772 146.318 102.48C146.318 103.248 145.838 103.668 145.166 103.668C144.554 103.668 144.026 103.32 144.002 102.552H142.442C142.466 104.34 143.774 105.072 145.166 105.072C146.63 105.072 147.878 104.232 147.878 102.528ZM158.567 105V96.456H157.007L155.267 97.968V99.648L157.007 98.136V105H158.567ZM166.487 99.024C166.487 97.332 165.335 96.384 163.823 96.384C162.311 96.384 161.159 97.368 161.159 99.048C161.159 100.632 162.263 101.58 163.415 101.58C163.619 101.58 163.847 101.556 164.051 101.472L162.275 105H163.967L165.779 101.304C166.163 100.524 166.487 99.804 166.487 99.024ZM164.927 99.036C164.927 99.828 164.459 100.284 163.823 100.284C163.163 100.284 162.719 99.792 162.719 99.036C162.719 98.244 163.187 97.788 163.823 97.788C164.459 97.788 164.927 98.244 164.927 99.036ZM169.955 101.748V99.972H168.179V101.748H169.955ZM169.955 105V103.224H168.179V105H169.955ZM176.622 102.528V98.928C176.622 97.296 175.422 96.384 174.03 96.384C172.638 96.384 171.426 97.296 171.426 98.928V102.528C171.426 104.16 172.638 105.072 174.03 105.072C175.422 105.072 176.622 104.16 176.622 102.528ZM175.062 102.516C175.062 103.236 174.642 103.668 174.03 103.668C173.418 103.668 172.986 103.236 172.986 102.516V98.952C172.986 98.232 173.418 97.788 174.03 97.788C174.642 97.788 175.062 98.232 175.062 98.952V102.516ZM183.137 102.528V98.928C183.137 97.296 181.937 96.384 180.545 96.384C179.153 96.384 177.941 97.296 177.941 98.928V102.528C177.941 104.16 179.153 105.072 180.545 105.072C181.937 105.072 183.137 104.16 183.137 102.528ZM181.577 102.516C181.577 103.236 181.157 103.668 180.545 103.668C179.933 103.668 179.501 103.236 179.501 102.516V98.952C179.501 98.232 179.933 97.788 180.545 97.788C181.157 97.788 181.577 98.232 181.577 98.952V102.516Z" fill="white"/>
<path d="M101.904 105V103.596H98.604L100.992 100.824C101.58 100.14 101.904 99.696 101.904 98.868C101.904 97.332 100.824 96.384 99.312 96.384C97.848 96.384 96.708 97.32 96.708 98.88H98.268C98.268 98.052 98.796 97.788 99.312 97.788C99.972 97.788 100.344 98.22 100.344 98.856C100.344 99.252 100.212 99.516 99.9 99.888L96.708 103.596V105H101.904ZM108.372 102.528V98.928C108.372 97.296 107.172 96.384 105.78 96.384C104.388 96.384 103.176 97.296 103.176 98.928V102.528C103.176 104.16 104.388 105.072 105.78 105.072C107.172 105.072 108.372 104.16 108.372 102.528ZM106.812 102.516C106.812 103.236 106.392 103.668 105.78 103.668C105.168 103.668 104.736 103.236 104.736 102.516V98.952C104.736 98.232 105.168 97.788 105.78 97.788C106.392 97.788 106.812 98.232 106.812 98.952V102.516ZM114.935 105V103.596H111.635L114.023 100.824C114.611 100.14 114.935 99.696 114.935 98.868C114.935 97.332 113.855 96.384 112.343 96.384C110.879 96.384 109.739 97.32 109.739 98.88H111.299C111.299 98.052 111.827 97.788 112.343 97.788C113.003 97.788 113.375 98.22 113.375 98.856C113.375 99.252 113.243 99.516 112.931 99.888L109.739 103.596V105H114.935ZM121.451 105V103.596H118.151L120.539 100.824C121.127 100.14 121.451 99.696 121.451 98.868C121.451 97.332 120.371 96.384 118.859 96.384C117.395 96.384 116.255 97.32 116.255 98.88H117.815C117.815 98.052 118.343 97.788 118.859 97.788C119.519 97.788 119.891 98.22 119.891 98.856C119.891 99.252 119.759 99.516 119.447 99.888L116.255 103.596V105H121.451ZM124.667 105V103.224H122.879V105H124.667ZM131.424 102.528C131.424 101.496 130.932 100.908 130.32 100.584C130.884 100.284 131.304 99.756 131.304 98.832C131.304 97.392 130.212 96.384 128.7 96.384C127.26 96.384 126.12 97.296 126.084 98.82H127.644C127.68 98.172 128.112 97.788 128.7 97.788C129.264 97.788 129.744 98.16 129.744 98.88C129.744 99.48 129.42 99.948 128.664 99.948H128.436V101.304H128.664C129.432 101.304 129.864 101.772 129.864 102.48C129.864 103.248 129.384 103.668 128.712 103.668C128.1 103.668 127.572 103.32 127.548 102.552H125.988C126.012 104.34 127.32 105.072 128.712 105.072C130.176 105.072 131.424 104.232 131.424 102.528ZM134.604 105V103.224H132.816V105H134.604ZM139.958 105V96.456H138.398L136.658 97.968V99.648L138.398 98.136V105H139.958ZM147.878 102.528C147.878 101.496 147.386 100.908 146.774 100.584C147.338 100.284 147.758 99.756 147.758 98.832C147.758 97.392 146.666 96.384 145.154 96.384C143.714 96.384 142.574 97.296 142.538 98.82H144.098C144.134 98.172 144.566 97.788 145.154 97.788C145.718 97.788 146.198 98.16 146.198 98.88C146.198 99.48 145.874 99.948 145.118 99.948H144.89V101.304H145.118C145.886 101.304 146.318 101.772 146.318 102.48C146.318 103.248 145.838 103.668 145.166 103.668C144.554 103.668 144.026 103.32 144.002 102.552H142.442C142.466 104.34 143.774 105.072 145.166 105.072C146.63 105.072 147.878 104.232 147.878 102.528ZM158.567 105V96.456H157.007L155.267 97.968V99.648L157.007 98.136V105H158.567ZM166.487 99.024C166.487 97.332 165.335 96.384 163.823 96.384C162.311 96.384 161.159 97.368 161.159 99.048C161.159 100.632 162.263 101.58 163.415 101.58C163.619 101.58 163.847 101.556 164.051 101.472L162.275 105H163.967L165.779 101.304C166.163 100.524 166.487 99.804 166.487 99.024ZM164.927 99.036C164.927 99.828 164.459 100.284 163.823 100.284C163.163 100.284 162.719 99.792 162.719 99.036C162.719 98.244 163.187 97.788 163.823 97.788C164.459 97.788 164.927 98.244 164.927 99.036ZM169.955 101.748V99.972H168.179V101.748H169.955ZM169.955 105V103.224H168.179V105H169.955ZM176.622 102.528V98.928C176.622 97.296 175.422 96.384 174.03 96.384C172.638 96.384 171.426 97.296 171.426 98.928V102.528C171.426 104.16 172.638 105.072 174.03 105.072C175.422 105.072 176.622 104.16 176.622 102.528ZM175.062 102.516C175.062 103.236 174.642 103.668 174.03 103.668C173.418 103.668 172.986 103.236 172.986 102.516V98.952C172.986 98.232 173.418 97.788 174.03 97.788C174.642 97.788 175.062 98.232 175.062 98.952V102.516ZM183.137 102.528V98.928C183.137 97.296 181.937 96.384 180.545 96.384C179.153 96.384 177.941 97.296 177.941 98.928V102.528C177.941 104.16 179.153 105.072 180.545 105.072C181.937 105.072 183.137 104.16 183.137 102.528ZM181.577 102.516C181.577 103.236 181.157 103.668 180.545 103.668C179.933 103.668 179.501 103.236 179.501 102.516V98.952C179.501 98.232 179.933 97.788 180.545 97.788C181.157 97.788 181.577 98.232 181.577 98.952V102.516Z" fill="#125EFF"/>
</g>
<g opacity="0.25">
<path d="M101.904 178V176.596H98.604L100.992 173.824C101.58 173.14 101.904 172.696 101.904 171.868C101.904 170.332 100.824 169.384 99.312 169.384C97.848 169.384 96.708 170.32 96.708 171.88H98.268C98.268 171.052 98.796 170.788 99.312 170.788C99.972 170.788 100.344 171.22 100.344 171.856C100.344 172.252 100.212 172.516 99.9 172.888L96.708 176.596V178H101.904ZM108.372 175.528V171.928C108.372 170.296 107.172 169.384 105.78 169.384C104.388 169.384 103.176 170.296 103.176 171.928V175.528C103.176 177.16 104.388 178.072 105.78 178.072C107.172 178.072 108.372 177.16 108.372 175.528ZM106.812 175.516C106.812 176.236 106.392 176.668 105.78 176.668C105.168 176.668 104.736 176.236 104.736 175.516V171.952C104.736 171.232 105.168 170.788 105.78 170.788C106.392 170.788 106.812 171.232 106.812 171.952V175.516ZM114.935 178V176.596H111.635L114.023 173.824C114.611 173.14 114.935 172.696 114.935 171.868C114.935 170.332 113.855 169.384 112.343 169.384C110.879 169.384 109.739 170.32 109.739 171.88H111.299C111.299 171.052 111.827 170.788 112.343 170.788C113.003 170.788 113.375 171.22 113.375 171.856C113.375 172.252 113.243 172.516 112.931 172.888L109.739 176.596V178H114.935ZM121.451 178V176.596H118.151L120.539 173.824C121.127 173.14 121.451 172.696 121.451 171.868C121.451 170.332 120.371 169.384 118.859 169.384C117.395 169.384 116.255 170.32 116.255 171.88H117.815C117.815 171.052 118.343 170.788 118.859 170.788C119.519 170.788 119.891 171.22 119.891 171.856C119.891 172.252 119.759 172.516 119.447 172.888L116.255 176.596V178H121.451ZM124.667 178V176.224H122.879V178H124.667ZM131.424 175.528C131.424 174.496 130.932 173.908 130.32 173.584C130.884 173.284 131.304 172.756 131.304 171.832C131.304 170.392 130.212 169.384 128.7 169.384C127.26 169.384 126.12 170.296 126.084 171.82H127.644C127.68 171.172 128.112 170.788 128.7 170.788C129.264 170.788 129.744 171.16 129.744 171.88C129.744 172.48 129.42 172.948 128.664 172.948H128.436V174.304H128.664C129.432 174.304 129.864 174.772 129.864 175.48C129.864 176.248 129.384 176.668 128.712 176.668C128.1 176.668 127.572 176.32 127.548 175.552H125.988C126.012 177.34 127.32 178.072 128.712 178.072C130.176 178.072 131.424 177.232 131.424 175.528ZM134.604 178V176.224H132.816V178H134.604ZM139.958 178V169.456H138.398L136.658 170.968V172.648L138.398 171.136V178H139.958ZM148.082 176.788V175.312H147.302V173.716H145.802V175.312H144.014L146.942 169.456H145.238L142.31 175.312V176.788H145.802V178H147.302V176.788H148.082ZM158.567 178V169.456H157.007L155.267 170.968V172.648L157.007 171.136V178H158.567ZM166.403 175.528V171.928C166.403 170.296 165.203 169.384 163.811 169.384C162.419 169.384 161.207 170.296 161.207 171.928V175.528C161.207 177.16 162.419 178.072 163.811 178.072C165.203 178.072 166.403 177.16 166.403 175.528ZM164.843 175.516C164.843 176.236 164.423 176.668 163.811 176.668C163.199 176.668 162.767 176.236 162.767 175.516V171.952C162.767 171.232 163.199 170.788 163.811 170.788C164.423 170.788 164.843 171.232 164.843 171.952V175.516ZM169.955 174.748V172.972H168.179V174.748H169.955ZM169.955 178V176.224H168.179V178H169.955ZM176.67 178V176.596H173.37L175.758 173.824C176.346 173.14 176.67 172.696 176.67 171.868C176.67 170.332 175.59 169.384 174.078 169.384C172.614 169.384 171.474 170.32 171.474 171.88H173.034C173.034 171.052 173.562 170.788 174.078 170.788C174.738 170.788 175.11 171.22 175.11 171.856C175.11 172.252 174.978 172.516 174.666 172.888L171.474 176.596V178H176.67ZM183.137 175.528V171.928C183.137 170.296 181.937 169.384 180.545 169.384C179.153 169.384 177.941 170.296 177.941 171.928V175.528C177.941 177.16 179.153 178.072 180.545 178.072C181.937 178.072 183.137 177.16 183.137 175.528ZM181.577 175.516C181.577 176.236 181.157 176.668 180.545 176.668C179.933 176.668 179.501 176.236 179.501 175.516V171.952C179.501 171.232 179.933 170.788 180.545 170.788C181.157 170.788 181.577 171.232 181.577 171.952V175.516Z" fill="white"/>
<path d="M101.904 178V176.596H98.604L100.992 173.824C101.58 173.14 101.904 172.696 101.904 171.868C101.904 170.332 100.824 169.384 99.312 169.384C97.848 169.384 96.708 170.32 96.708 171.88H98.268C98.268 171.052 98.796 170.788 99.312 170.788C99.972 170.788 100.344 171.22 100.344 171.856C100.344 172.252 100.212 172.516 99.9 172.888L96.708 176.596V178H101.904ZM108.372 175.528V171.928C108.372 170.296 107.172 169.384 105.78 169.384C104.388 169.384 103.176 170.296 103.176 171.928V175.528C103.176 177.16 104.388 178.072 105.78 178.072C107.172 178.072 108.372 177.16 108.372 175.528ZM106.812 175.516C106.812 176.236 106.392 176.668 105.78 176.668C105.168 176.668 104.736 176.236 104.736 175.516V171.952C104.736 171.232 105.168 170.788 105.78 170.788C106.392 170.788 106.812 171.232 106.812 171.952V175.516ZM114.935 178V176.596H111.635L114.023 173.824C114.611 173.14 114.935 172.696 114.935 171.868C114.935 170.332 113.855 169.384 112.343 169.384C110.879 169.384 109.739 170.32 109.739 171.88H111.299C111.299 171.052 111.827 170.788 112.343 170.788C113.003 170.788 113.375 171.22 113.375 171.856C113.375 172.252 113.243 172.516 112.931 172.888L109.739 176.596V178H114.935ZM121.451 178V176.596H118.151L120.539 173.824C121.127 173.14 121.451 172.696 121.451 171.868C121.451 170.332 120.371 169.384 118.859 169.384C117.395 169.384 116.255 170.32 116.255 171.88H117.815C117.815 171.052 118.343 170.788 118.859 170.788C119.519 170.788 119.891 171.22 119.891 171.856C119.891 172.252 119.759 172.516 119.447 172.888L116.255 176.596V178H121.451ZM124.667 178V176.224H122.879V178H124.667ZM131.424 175.528C131.424 174.496 130.932 173.908 130.32 173.584C130.884 173.284 131.304 172.756 131.304 171.832C131.304 170.392 130.212 169.384 128.7 169.384C127.26 169.384 126.12 170.296 126.084 171.82H127.644C127.68 171.172 128.112 170.788 128.7 170.788C129.264 170.788 129.744 171.16 129.744 171.88C129.744 172.48 129.42 172.948 128.664 172.948H128.436V174.304H128.664C129.432 174.304 129.864 174.772 129.864 175.48C129.864 176.248 129.384 176.668 128.712 176.668C128.1 176.668 127.572 176.32 127.548 175.552H125.988C126.012 177.34 127.32 178.072 128.712 178.072C130.176 178.072 131.424 177.232 131.424 175.528ZM134.604 178V176.224H132.816V178H134.604ZM139.958 178V169.456H138.398L136.658 170.968V172.648L138.398 171.136V178H139.958ZM148.082 176.788V175.312H147.302V173.716H145.802V175.312H144.014L146.942 169.456H145.238L142.31 175.312V176.788H145.802V178H147.302V176.788H148.082ZM158.567 178V169.456H157.007L155.267 170.968V172.648L157.007 171.136V178H158.567ZM166.403 175.528V171.928C166.403 170.296 165.203 169.384 163.811 169.384C162.419 169.384 161.207 170.296 161.207 171.928V175.528C161.207 177.16 162.419 178.072 163.811 178.072C165.203 178.072 166.403 177.16 166.403 175.528ZM164.843 175.516C164.843 176.236 164.423 176.668 163.811 176.668C163.199 176.668 162.767 176.236 162.767 175.516V171.952C162.767 171.232 163.199 170.788 163.811 170.788C164.423 170.788 164.843 171.232 164.843 171.952V175.516ZM169.955 174.748V172.972H168.179V174.748H169.955ZM169.955 178V176.224H168.179V178H169.955ZM176.67 178V176.596H173.37L175.758 173.824C176.346 173.14 176.67 172.696 176.67 171.868C176.67 170.332 175.59 169.384 174.078 169.384C172.614 169.384 171.474 170.32 171.474 171.88H173.034C173.034 171.052 173.562 170.788 174.078 170.788C174.738 170.788 175.11 171.22 175.11 171.856C175.11 172.252 174.978 172.516 174.666 172.888L171.474 176.596V178H176.67ZM183.137 175.528V171.928C183.137 170.296 181.937 169.384 180.545 169.384C179.153 169.384 177.941 170.296 177.941 171.928V175.528C177.941 177.16 179.153 178.072 180.545 178.072C181.937 178.072 183.137 177.16 183.137 175.528ZM181.577 175.516C181.577 176.236 181.157 176.668 180.545 176.668C179.933 176.668 179.501 176.236 179.501 175.516V171.952C179.501 171.232 179.933 170.788 180.545 170.788C181.157 170.788 181.577 171.232 181.577 171.952V175.516Z" fill="#125EFF"/>
</g>
<g opacity="0.25">
<path d="M101.904 240V238.596H98.604L100.992 235.824C101.58 235.14 101.904 234.696 101.904 233.868C101.904 232.332 100.824 231.384 99.312 231.384C97.848 231.384 96.708 232.32 96.708 233.88H98.268C98.268 233.052 98.796 232.788 99.312 232.788C99.972 232.788 100.344 233.22 100.344 233.856C100.344 234.252 100.212 234.516 99.9 234.888L96.708 238.596V240H101.904ZM108.372 237.528V233.928C108.372 232.296 107.172 231.384 105.78 231.384C104.388 231.384 103.176 232.296 103.176 233.928V237.528C103.176 239.16 104.388 240.072 105.78 240.072C107.172 240.072 108.372 239.16 108.372 237.528ZM106.812 237.516C106.812 238.236 106.392 238.668 105.78 238.668C105.168 238.668 104.736 238.236 104.736 237.516V233.952C104.736 233.232 105.168 232.788 105.78 232.788C106.392 232.788 106.812 233.232 106.812 233.952V237.516ZM114.935 240V238.596H111.635L114.023 235.824C114.611 235.14 114.935 234.696 114.935 233.868C114.935 232.332 113.855 231.384 112.343 231.384C110.879 231.384 109.739 232.32 109.739 233.88H111.299C111.299 233.052 111.827 232.788 112.343 232.788C113.003 232.788 113.375 233.22 113.375 233.856C113.375 234.252 113.243 234.516 112.931 234.888L109.739 238.596V240H114.935ZM121.451 240V238.596H118.151L120.539 235.824C121.127 235.14 121.451 234.696 121.451 233.868C121.451 232.332 120.371 231.384 118.859 231.384C117.395 231.384 116.255 232.32 116.255 233.88H117.815C117.815 233.052 118.343 232.788 118.859 232.788C119.519 232.788 119.891 233.22 119.891 233.856C119.891 234.252 119.759 234.516 119.447 234.888L116.255 238.596V240H121.451ZM124.667 240V238.224H122.879V240H124.667ZM131.424 237.528C131.424 236.496 130.932 235.908 130.32 235.584C130.884 235.284 131.304 234.756 131.304 233.832C131.304 232.392 130.212 231.384 128.7 231.384C127.26 231.384 126.12 232.296 126.084 233.82H127.644C127.68 233.172 128.112 232.788 128.7 232.788C129.264 232.788 129.744 233.16 129.744 233.88C129.744 234.48 129.42 234.948 128.664 234.948H128.436V236.304H128.664C129.432 236.304 129.864 236.772 129.864 237.48C129.864 238.248 129.384 238.668 128.712 238.668C128.1 238.668 127.572 238.32 127.548 237.552H125.988C126.012 239.34 127.32 240.072 128.712 240.072C130.176 240.072 131.424 239.232 131.424 237.528ZM134.604 240V238.224H132.816V240H134.604ZM139.958 240V231.456H138.398L136.658 232.968V234.648L138.398 233.136V240H139.958ZM148.082 238.788V237.312H147.302V235.716H145.802V237.312H144.014L146.942 231.456H145.238L142.31 237.312V238.788H145.802V240H147.302V238.788H148.082ZM158.567 240V231.456H157.007L155.267 232.968V234.648L157.007 233.136V240H158.567ZM166.487 237.528C166.487 236.496 165.995 235.908 165.383 235.584C165.947 235.284 166.367 234.756 166.367 233.832C166.367 232.392 165.275 231.384 163.763 231.384C162.323 231.384 161.183 232.296 161.147 233.82H162.707C162.743 233.172 163.175 232.788 163.763 232.788C164.327 232.788 164.807 233.16 164.807 233.88C164.807 234.48 164.483 234.948 163.727 234.948H163.499V236.304H163.727C164.495 236.304 164.927 236.772 164.927 237.48C164.927 238.248 164.447 238.668 163.775 238.668C163.163 238.668 162.635 238.32 162.611 237.552H161.051C161.075 239.34 162.383 240.072 163.775 240.072C165.239 240.072 166.487 239.232 166.487 237.528ZM169.955 236.748V234.972H168.179V236.748H169.955ZM169.955 240V238.224H168.179V240H169.955ZM176.622 237.528V233.928C176.622 232.296 175.422 231.384 174.03 231.384C172.638 231.384 171.426 232.296 171.426 233.928V237.528C171.426 239.16 172.638 240.072 174.03 240.072C175.422 240.072 176.622 239.16 176.622 237.528ZM175.062 237.516C175.062 238.236 174.642 238.668 174.03 238.668C173.418 238.668 172.986 238.236 172.986 237.516V233.952C172.986 233.232 173.418 232.788 174.03 232.788C174.642 232.788 175.062 233.232 175.062 233.952V237.516ZM183.137 237.528V233.928C183.137 232.296 181.937 231.384 180.545 231.384C179.153 231.384 177.941 232.296 177.941 233.928V237.528C177.941 239.16 179.153 240.072 180.545 240.072C181.937 240.072 183.137 239.16 183.137 237.528ZM181.577 237.516C181.577 238.236 181.157 238.668 180.545 238.668C179.933 238.668 179.501 238.236 179.501 237.516V233.952C179.501 233.232 179.933 232.788 180.545 232.788C181.157 232.788 181.577 233.232 181.577 233.952V237.516Z" fill="white"/>
<path d="M101.904 240V238.596H98.604L100.992 235.824C101.58 235.14 101.904 234.696 101.904 233.868C101.904 232.332 100.824 231.384 99.312 231.384C97.848 231.384 96.708 232.32 96.708 233.88H98.268C98.268 233.052 98.796 232.788 99.312 232.788C99.972 232.788 100.344 233.22 100.344 233.856C100.344 234.252 100.212 234.516 99.9 234.888L96.708 238.596V240H101.904ZM108.372 237.528V233.928C108.372 232.296 107.172 231.384 105.78 231.384C104.388 231.384 103.176 232.296 103.176 233.928V237.528C103.176 239.16 104.388 240.072 105.78 240.072C107.172 240.072 108.372 239.16 108.372 237.528ZM106.812 237.516C106.812 238.236 106.392 238.668 105.78 238.668C105.168 238.668 104.736 238.236 104.736 237.516V233.952C104.736 233.232 105.168 232.788 105.78 232.788C106.392 232.788 106.812 233.232 106.812 233.952V237.516ZM114.935 240V238.596H111.635L114.023 235.824C114.611 235.14 114.935 234.696 114.935 233.868C114.935 232.332 113.855 231.384 112.343 231.384C110.879 231.384 109.739 232.32 109.739 233.88H111.299C111.299 233.052 111.827 232.788 112.343 232.788C113.003 232.788 113.375 233.22 113.375 233.856C113.375 234.252 113.243 234.516 112.931 234.888L109.739 238.596V240H114.935ZM121.451 240V238.596H118.151L120.539 235.824C121.127 235.14 121.451 234.696 121.451 233.868C121.451 232.332 120.371 231.384 118.859 231.384C117.395 231.384 116.255 232.32 116.255 233.88H117.815C117.815 233.052 118.343 232.788 118.859 232.788C119.519 232.788 119.891 233.22 119.891 233.856C119.891 234.252 119.759 234.516 119.447 234.888L116.255 238.596V240H121.451ZM124.667 240V238.224H122.879V240H124.667ZM131.424 237.528C131.424 236.496 130.932 235.908 130.32 235.584C130.884 235.284 131.304 234.756 131.304 233.832C131.304 232.392 130.212 231.384 128.7 231.384C127.26 231.384 126.12 232.296 126.084 233.82H127.644C127.68 233.172 128.112 232.788 128.7 232.788C129.264 232.788 129.744 233.16 129.744 233.88C129.744 234.48 129.42 234.948 128.664 234.948H128.436V236.304H128.664C129.432 236.304 129.864 236.772 129.864 237.48C129.864 238.248 129.384 238.668 128.712 238.668C128.1 238.668 127.572 238.32 127.548 237.552H125.988C126.012 239.34 127.32 240.072 128.712 240.072C130.176 240.072 131.424 239.232 131.424 237.528ZM134.604 240V238.224H132.816V240H134.604ZM139.958 240V231.456H138.398L136.658 232.968V234.648L138.398 233.136V240H139.958ZM148.082 238.788V237.312H147.302V235.716H145.802V237.312H144.014L146.942 231.456H145.238L142.31 237.312V238.788H145.802V240H147.302V238.788H148.082ZM158.567 240V231.456H157.007L155.267 232.968V234.648L157.007 233.136V240H158.567ZM166.487 237.528C166.487 236.496 165.995 235.908 165.383 235.584C165.947 235.284 166.367 234.756 166.367 233.832C166.367 232.392 165.275 231.384 163.763 231.384C162.323 231.384 161.183 232.296 161.147 233.82H162.707C162.743 233.172 163.175 232.788 163.763 232.788C164.327 232.788 164.807 233.16 164.807 233.88C164.807 234.48 164.483 234.948 163.727 234.948H163.499V236.304H163.727C164.495 236.304 164.927 236.772 164.927 237.48C164.927 238.248 164.447 238.668 163.775 238.668C163.163 238.668 162.635 238.32 162.611 237.552H161.051C161.075 239.34 162.383 240.072 163.775 240.072C165.239 240.072 166.487 239.232 166.487 237.528ZM169.955 236.748V234.972H168.179V236.748H169.955ZM169.955 240V238.224H168.179V240H169.955ZM176.622 237.528V233.928C176.622 232.296 175.422 231.384 174.03 231.384C172.638 231.384 171.426 232.296 171.426 233.928V237.528C171.426 239.16 172.638 240.072 174.03 240.072C175.422 240.072 176.622 239.16 176.622 237.528ZM175.062 237.516C175.062 238.236 174.642 238.668 174.03 238.668C173.418 238.668 172.986 238.236 172.986 237.516V233.952C172.986 233.232 173.418 232.788 174.03 232.788C174.642 232.788 175.062 233.232 175.062 233.952V237.516ZM183.137 237.528V233.928C183.137 232.296 181.937 231.384 180.545 231.384C179.153 231.384 177.941 232.296 177.941 233.928V237.528C177.941 239.16 179.153 240.072 180.545 240.072C181.937 240.072 183.137 239.16 183.137 237.528ZM181.577 237.516C181.577 238.236 181.157 238.668 180.545 238.668C179.933 238.668 179.501 238.236 179.501 237.516V233.952C179.501 233.232 179.933 232.788 180.545 232.788C181.157 232.788 181.577 233.232 181.577 233.952V237.516Z" fill="#125EFF"/>
</g>
<rect x="96.5105" y="114.51" width="333.979" height="40.9791" rx="5.48955" fill="white"/>
<rect x="96.5105" y="114.51" width="333.979" height="40.9791" rx="5.48955" fill="url(#paint4_linear_1616_6421)" fill-opacity="0.06"/>
<rect x="96.5105" y="114.51" width="333.979" height="40.9791" rx="5.48955" stroke="#F2F6FF" stroke-width="1.02091"/>
<rect x="96.5105" y="187.51" width="333.979" height="28.9791" rx="5.48955" fill="white"/>
<rect x="96.5105" y="187.51" width="333.979" height="28.9791" rx="5.48955" fill="url(#paint5_linear_1616_6421)" fill-opacity="0.06"/>
<rect x="96.5105" y="187.51" width="333.979" height="28.9791" rx="5.48955" stroke="#F2F6FF" stroke-width="1.02091"/>
<rect x="96.5105" y="249.51" width="132.979" height="54.9791" rx="5.48955" fill="white"/>
<rect x="96.5105" y="249.51" width="132.979" height="54.9791" rx="5.48955" fill="url(#paint6_linear_1616_6421)" fill-opacity="0.06"/>
<rect x="96.5105" y="249.51" width="132.979" height="54.9791" rx="5.48955" stroke="#F2F6FF" stroke-width="1.02091"/>
<path d="M145.397 264.835C145.397 264.835 145.396 264.836 145.396 264.836C145.397 266.954 147.062 268.67 149.116 268.67C151.17 268.67 152.833 266.954 152.833 264.835C152.833 262.716 151.171 261 149.118 261C147.064 261 145.399 262.716 145.398 264.834C145.398 264.835 145.398 264.835 145.397 264.835Z" fill="white"/>
<path d="M145.397 264.835C145.397 264.835 145.396 264.836 145.396 264.836C145.397 266.954 147.062 268.67 149.116 268.67C151.17 268.67 152.833 266.954 152.833 264.835C152.833 262.716 151.171 261 149.118 261C147.064 261 145.399 262.716 145.398 264.834C145.398 264.835 145.398 264.835 145.397 264.835Z" fill="white"/>
<path d="M149.944 278.06C149.945 278.06 149.945 278.06 149.945 278.06C149.336 277.193 148.353 277.193 147.746 278.06L139.295 290.115C138.687 290.981 139.05 291.683 140.103 291.683H178.813C179.868 291.683 180.221 290.983 179.609 290.118L166.222 271.241C165.605 270.371 164.614 270.375 164.001 271.241L155.795 282.811C155.177 283.683 153.882 283.679 153.269 282.804L149.944 278.061C149.944 278.061 149.944 278.06 149.944 278.06Z" fill="white"/>
<path d="M149.944 278.06C149.945 278.06 149.945 278.06 149.945 278.06C149.336 277.193 148.353 277.193 147.746 278.06L139.295 290.115C138.687 290.981 139.05 291.683 140.103 291.683H178.813C179.868 291.683 180.221 290.983 179.609 290.118L166.222 271.241C165.605 270.371 164.614 270.375 164.001 271.241L155.795 282.811C155.177 283.683 153.882 283.679 153.269 282.804L149.944 278.061C149.944 278.061 149.944 278.06 149.944 278.06Z" fill="white"/>
<path d="M78 108.216C77.04 108.216 76.1387 108.035 75.296 107.672C74.464 107.32 73.728 106.829 73.088 106.2C72.4587 105.56 71.9627 104.824 71.6 103.992C71.248 103.149 71.072 102.248 71.072 101.288C71.072 100.328 71.248 99.432 71.6 98.6C71.9627 97.7573 72.4587 97.0213 73.088 96.392C73.728 95.752 74.464 95.256 75.296 94.904C76.1387 94.5413 77.04 94.36 78 94.36C78.96 94.36 79.856 94.5413 80.688 94.904C81.5307 95.256 82.2667 95.752 82.896 96.392C83.536 97.0213 84.032 97.7573 84.384 98.6C84.7467 99.432 84.928 100.328 84.928 101.288C84.928 102.248 84.7467 103.149 84.384 103.992C84.032 104.824 83.536 105.56 82.896 106.2C82.2667 106.829 81.5307 107.32 80.688 107.672C79.856 108.035 78.96 108.216 78 108.216ZM78 106.792C78.768 106.792 79.4827 106.653 80.144 106.376C80.8053 106.088 81.3867 105.693 81.888 105.192C82.4 104.68 82.7947 104.093 83.072 103.432C83.36 102.771 83.504 102.056 83.504 101.288C83.504 100.52 83.36 99.8053 83.072 99.144C82.7947 98.4827 82.4 97.9013 81.888 97.4C81.3867 96.888 80.8053 96.4933 80.144 96.216C79.4827 95.928 78.768 95.784 78 95.784C77.232 95.784 76.5173 95.928 75.856 96.216C75.1947 96.4933 74.608 96.888 74.096 97.4C73.5947 97.9013 73.2 98.4827 72.912 99.144C72.6347 99.8053 72.496 100.52 72.496 101.288C72.496 102.056 72.6347 102.771 72.912 103.432C73.2 104.093 73.5947 104.68 74.096 105.192C74.608 105.693 75.1947 106.088 75.856 106.376C76.5173 106.653 77.232 106.792 78 106.792ZM77.376 104.792V100.92C77.376 100.771 77.376 100.547 77.376 100.248C77.3867 99.9493 77.4027 99.6827 77.424 99.448C77.3493 99.5227 77.28 99.592 77.216 99.656C77.1627 99.72 77.104 99.7787 77.04 99.832C76.9333 99.9173 76.7947 100.029 76.624 100.168C76.464 100.296 76.2667 100.445 76.032 100.616L75.216 99.56L77.504 97.768H79.008V104.792H77.376Z" fill="#1561FF"/>
<path d="M75.664 177.776V176.672L77.44 174.896C77.824 174.512 78.1173 174.203 78.32 173.968C78.5227 173.733 78.6667 173.525 78.752 173.344C78.8373 173.152 78.88 172.955 78.88 172.752C78.88 172.485 78.8 172.293 78.64 172.176C78.48 172.048 78.2773 171.984 78.032 171.984C77.7973 171.984 77.5573 172.048 77.312 172.176C77.0667 172.293 76.8 172.475 76.512 172.72L75.648 171.68C75.872 171.477 76.1013 171.301 76.336 171.152C76.5813 170.992 76.8533 170.869 77.152 170.784C77.4507 170.688 77.792 170.64 78.176 170.64C78.88 170.64 79.44 170.816 79.856 171.168C80.272 171.52 80.48 171.989 80.48 172.576C80.48 172.96 80.4 173.312 80.24 173.632C80.0907 173.941 79.8667 174.256 79.568 174.576C79.28 174.885 78.928 175.237 78.512 175.632L77.6 176.496L77.552 176.432H80.544V177.776H75.664ZM78 181.216C77.04 181.216 76.1387 181.035 75.296 180.672C74.464 180.32 73.728 179.829 73.088 179.2C72.4587 178.56 71.9627 177.824 71.6 176.992C71.248 176.149 71.072 175.248 71.072 174.288C71.072 173.328 71.248 172.432 71.6 171.6C71.9627 170.757 72.4587 170.021 73.088 169.392C73.728 168.752 74.464 168.256 75.296 167.904C76.1387 167.541 77.04 167.36 78 167.36C78.96 167.36 79.856 167.541 80.688 167.904C81.5307 168.256 82.2667 168.752 82.896 169.392C83.536 170.021 84.032 170.757 84.384 171.6C84.7467 172.432 84.928 173.328 84.928 174.288C84.928 175.248 84.7467 176.149 84.384 176.992C84.032 177.824 83.536 178.56 82.896 179.2C82.2667 179.829 81.5307 180.32 80.688 180.672C79.856 181.035 78.96 181.216 78 181.216ZM78 179.792C78.768 179.792 79.4827 179.653 80.144 179.376C80.8053 179.088 81.3867 178.693 81.888 178.192C82.4 177.68 82.7947 177.093 83.072 176.432C83.36 175.76 83.504 175.045 83.504 174.288C83.504 173.52 83.36 172.805 83.072 172.144C82.7947 171.483 82.4 170.901 81.888 170.4C81.3867 169.888 80.8 169.493 80.128 169.216C79.4667 168.928 78.7573 168.784 78 168.784C77.232 168.784 76.5173 168.928 75.856 169.216C75.1947 169.493 74.608 169.888 74.096 170.4C73.5947 170.901 73.2 171.488 72.912 172.16C72.6347 172.821 72.496 173.531 72.496 174.288C72.496 175.056 72.6347 175.771 72.912 176.432C73.2 177.093 73.5947 177.68 74.096 178.192C74.608 178.693 75.1947 179.088 75.856 179.376C76.528 179.653 77.2427 179.792 78 179.792Z" fill="white"/>
<path d="M75.664 177.776V176.672L77.44 174.896C77.824 174.512 78.1173 174.203 78.32 173.968C78.5227 173.733 78.6667 173.525 78.752 173.344C78.8373 173.152 78.88 172.955 78.88 172.752C78.88 172.485 78.8 172.293 78.64 172.176C78.48 172.048 78.2773 171.984 78.032 171.984C77.7973 171.984 77.5573 172.048 77.312 172.176C77.0667 172.293 76.8 172.475 76.512 172.72L75.648 171.68C75.872 171.477 76.1013 171.301 76.336 171.152C76.5813 170.992 76.8533 170.869 77.152 170.784C77.4507 170.688 77.792 170.64 78.176 170.64C78.88 170.64 79.44 170.816 79.856 171.168C80.272 171.52 80.48 171.989 80.48 172.576C80.48 172.96 80.4 173.312 80.24 173.632C80.0907 173.941 79.8667 174.256 79.568 174.576C79.28 174.885 78.928 175.237 78.512 175.632L77.6 176.496L77.552 176.432H80.544V177.776H75.664ZM78 181.216C77.04 181.216 76.1387 181.035 75.296 180.672C74.464 180.32 73.728 179.829 73.088 179.2C72.4587 178.56 71.9627 177.824 71.6 176.992C71.248 176.149 71.072 175.248 71.072 174.288C71.072 173.328 71.248 172.432 71.6 171.6C71.9627 170.757 72.4587 170.021 73.088 169.392C73.728 168.752 74.464 168.256 75.296 167.904C76.1387 167.541 77.04 167.36 78 167.36C78.96 167.36 79.856 167.541 80.688 167.904C81.5307 168.256 82.2667 168.752 82.896 169.392C83.536 170.021 84.032 170.757 84.384 171.6C84.7467 172.432 84.928 173.328 84.928 174.288C84.928 175.248 84.7467 176.149 84.384 176.992C84.032 177.824 83.536 178.56 82.896 179.2C82.2667 179.829 81.5307 180.32 80.688 180.672C79.856 181.035 78.96 181.216 78 181.216ZM78 179.792C78.768 179.792 79.4827 179.653 80.144 179.376C80.8053 179.088 81.3867 178.693 81.888 178.192C82.4 177.68 82.7947 177.093 83.072 176.432C83.36 175.76 83.504 175.045 83.504 174.288C83.504 173.52 83.36 172.805 83.072 172.144C82.7947 171.483 82.4 170.901 81.888 170.4C81.3867 169.888 80.8 169.493 80.128 169.216C79.4667 168.928 78.7573 168.784 78 168.784C77.232 168.784 76.5173 168.928 75.856 169.216C75.1947 169.493 74.608 169.888 74.096 170.4C73.5947 170.901 73.2 171.488 72.912 172.16C72.6347 172.821 72.496 173.531 72.496 174.288C72.496 175.056 72.6347 175.771 72.912 176.432C73.2 177.093 73.5947 177.68 74.096 178.192C74.608 178.693 75.1947 179.088 75.856 179.376C76.528 179.653 77.2427 179.792 78 179.792Z" fill="#125EFF"/>
<path d="M77.84 239.904C77.4027 239.904 77.0187 239.872 76.688 239.808C76.3573 239.733 76.0427 239.632 75.744 239.504V238.128C76.0747 238.299 76.4053 238.427 76.736 238.512C77.0773 238.587 77.392 238.624 77.68 238.624C78.1707 238.624 78.5173 238.544 78.72 238.384C78.9333 238.224 79.04 237.995 79.04 237.696C79.04 237.408 78.9227 237.189 78.688 237.04C78.4533 236.88 78.0373 236.8 77.44 236.8H76.816V235.568H77.456C77.9787 235.568 78.352 235.488 78.576 235.328C78.8107 235.168 78.928 234.949 78.928 234.672C78.928 234.427 78.8427 234.251 78.672 234.144C78.5013 234.027 78.2827 233.968 78.016 233.968C77.7173 233.968 77.4293 234.027 77.152 234.144C76.8853 234.251 76.6613 234.363 76.48 234.48L75.76 233.392C76.08 233.179 76.4267 233.003 76.8 232.864C77.184 232.725 77.648 232.656 78.192 232.656C78.928 232.656 79.4987 232.811 79.904 233.12C80.3093 233.419 80.512 233.829 80.512 234.352C80.512 234.832 80.368 235.221 80.08 235.52C79.8027 235.808 79.4453 236.011 79.008 236.128L78.992 236.096C79.5573 236.171 79.984 236.347 80.272 236.624C80.5707 236.901 80.72 237.285 80.72 237.776C80.72 238.384 80.4907 238.891 80.032 239.296C79.5733 239.701 78.8427 239.904 77.84 239.904ZM78 243.216C77.04 243.216 76.1387 243.035 75.296 242.672C74.464 242.32 73.728 241.829 73.088 241.2C72.4587 240.56 71.9627 239.824 71.6 238.992C71.248 238.149 71.072 237.248 71.072 236.288C71.072 235.328 71.248 234.432 71.6 233.6C71.9627 232.757 72.4587 232.021 73.088 231.392C73.728 230.752 74.464 230.256 75.296 229.904C76.1387 229.541 77.04 229.36 78 229.36C78.96 229.36 79.856 229.541 80.688 229.904C81.5307 230.256 82.2667 230.752 82.896 231.392C83.536 232.021 84.032 232.757 84.384 233.6C84.7467 234.432 84.928 235.328 84.928 236.288C84.928 237.248 84.7467 238.149 84.384 238.992C84.032 239.824 83.536 240.56 82.896 241.2C82.2667 241.829 81.5307 242.32 80.688 242.672C79.856 243.035 78.96 243.216 78 243.216ZM78 241.792C78.768 241.792 79.4827 241.653 80.144 241.376C80.8053 241.088 81.3867 240.693 81.888 240.192C82.4 239.68 82.7947 239.093 83.072 238.432C83.36 237.771 83.504 237.056 83.504 236.288C83.504 235.52 83.36 234.805 83.072 234.144C82.7947 233.483 82.4 232.901 81.888 232.4C81.3867 231.888 80.8053 231.493 80.144 231.216C79.4827 230.928 78.768 230.784 78 230.784C77.232 230.784 76.5173 230.928 75.856 231.216C75.1947 231.493 74.608 231.888 74.096 232.4C73.5947 232.901 73.2 233.483 72.912 234.144C72.6347 234.805 72.496 235.52 72.496 236.288C72.496 237.056 72.6347 237.771 72.912 238.432C73.2 239.093 73.5947 239.68 74.096 240.192C74.608 240.693 75.1947 241.088 75.856 241.376C76.5173 241.653 77.232 241.792 78 241.792Z" fill="white"/>
<path d="M77.84 239.904C77.4027 239.904 77.0187 239.872 76.688 239.808C76.3573 239.733 76.0427 239.632 75.744 239.504V238.128C76.0747 238.299 76.4053 238.427 76.736 238.512C77.0773 238.587 77.392 238.624 77.68 238.624C78.1707 238.624 78.5173 238.544 78.72 238.384C78.9333 238.224 79.04 237.995 79.04 237.696C79.04 237.408 78.9227 237.189 78.688 237.04C78.4533 236.88 78.0373 236.8 77.44 236.8H76.816V235.568H77.456C77.9787 235.568 78.352 235.488 78.576 235.328C78.8107 235.168 78.928 234.949 78.928 234.672C78.928 234.427 78.8427 234.251 78.672 234.144C78.5013 234.027 78.2827 233.968 78.016 233.968C77.7173 233.968 77.4293 234.027 77.152 234.144C76.8853 234.251 76.6613 234.363 76.48 234.48L75.76 233.392C76.08 233.179 76.4267 233.003 76.8 232.864C77.184 232.725 77.648 232.656 78.192 232.656C78.928 232.656 79.4987 232.811 79.904 233.12C80.3093 233.419 80.512 233.829 80.512 234.352C80.512 234.832 80.368 235.221 80.08 235.52C79.8027 235.808 79.4453 236.011 79.008 236.128L78.992 236.096C79.5573 236.171 79.984 236.347 80.272 236.624C80.5707 236.901 80.72 237.285 80.72 237.776C80.72 238.384 80.4907 238.891 80.032 239.296C79.5733 239.701 78.8427 239.904 77.84 239.904ZM78 243.216C77.04 243.216 76.1387 243.035 75.296 242.672C74.464 242.32 73.728 241.829 73.088 241.2C72.4587 240.56 71.9627 239.824 71.6 238.992C71.248 238.149 71.072 237.248 71.072 236.288C71.072 235.328 71.248 234.432 71.6 233.6C71.9627 232.757 72.4587 232.021 73.088 231.392C73.728 230.752 74.464 230.256 75.296 229.904C76.1387 229.541 77.04 229.36 78 229.36C78.96 229.36 79.856 229.541 80.688 229.904C81.5307 230.256 82.2667 230.752 82.896 231.392C83.536 232.021 84.032 232.757 84.384 233.6C84.7467 234.432 84.928 235.328 84.928 236.288C84.928 237.248 84.7467 238.149 84.384 238.992C84.032 239.824 83.536 240.56 82.896 241.2C82.2667 241.829 81.5307 242.32 80.688 242.672C79.856 243.035 78.96 243.216 78 243.216ZM78 241.792C78.768 241.792 79.4827 241.653 80.144 241.376C80.8053 241.088 81.3867 240.693 81.888 240.192C82.4 239.68 82.7947 239.093 83.072 238.432C83.36 237.771 83.504 237.056 83.504 236.288C83.504 235.52 83.36 234.805 83.072 234.144C82.7947 233.483 82.4 232.901 81.888 232.4C81.3867 231.888 80.8053 231.493 80.144 231.216C79.4827 230.928 78.768 230.784 78 230.784C77.232 230.784 76.5173 230.928 75.856 231.216C75.1947 231.493 74.608 231.888 74.096 232.4C73.5947 232.901 73.2 233.483 72.912 234.144C72.6347 234.805 72.496 235.52 72.496 236.288C72.496 237.056 72.6347 237.771 72.912 238.432C73.2 239.093 73.5947 239.68 74.096 240.192C74.608 240.693 75.1947 241.088 75.856 241.376C76.5173 241.653 77.232 241.792 78 241.792Z" fill="#125EFF"/>
<rect x="110.387" y="122.387" width="300.226" height="9.22607" rx="4.61303" fill="white"/>
<rect x="110.387" y="122.387" width="300.226" height="9.22607" rx="4.61303" fill="white"/>
<rect x="110.387" y="122.387" width="300.226" height="9.22607" rx="4.61303" stroke="#F2F6FF" stroke-width="0.773933"/>
<rect x="113.387" y="197.387" width="300.226" height="9.22607" rx="4.61303" fill="white"/>
<rect x="113.387" y="197.387" width="300.226" height="9.22607" rx="4.61303" fill="white"/>
<rect x="113.387" y="197.387" width="300.226" height="9.22607" rx="4.61303" stroke="#F2F6FF" stroke-width="0.773933"/>
<rect x="110.387" y="138.387" width="119.226" height="9.22607" rx="4.61303" fill="white"/>
<rect x="110.387" y="138.387" width="119.226" height="9.22607" rx="4.61303" fill="white"/>
<rect x="110.387" y="138.387" width="119.226" height="9.22607" rx="4.61303" stroke="#F2F6FF" stroke-width="0.773933"/>
<circle cx="55.7871" cy="65.5391" r="5" fill="#1561FF"/>
<circle cx="69.7871" cy="65.5391" r="5" fill="#FD8113"/>
<circle cx="83.7871" cy="65.5391" r="5" fill="#0CE18F"/>
<line opacity="0.3" x1="78.4" y1="114.4" x2="78.4" y2="162.6" stroke="#869BB9" stroke-width="0.8" stroke-linecap="round" stroke-dasharray="1.65 2.47"/>
<line opacity="0.3" x1="78.4" y1="184.4" x2="78.4" y2="224.6" stroke="#869BB9" stroke-width="0.8" stroke-linecap="round" stroke-dasharray="1.65 2.47"/>
<rect x="422" y="11" width="15" height="15" rx="7.5" fill="white"/>
<rect x="422" y="11" width="15" height="15" rx="7.5" fill="url(#paint7_linear_1616_6421)" fill-opacity="0.2"/>
<rect x="14" y="214" width="12" height="12" rx="6" fill="white"/>
<rect x="14" y="214" width="12" height="12" rx="6" fill="url(#paint8_linear_1616_6421)" fill-opacity="0.2"/>
<circle cx="226" cy="418" r="6" fill="url(#paint9_linear_1616_6421)" fill-opacity="0.2"/>
<defs>
<filter id="filter0_d_1616_6421" x="0" y="20" width="508" height="398.113" filterUnits="userSpaceOnUse" color-interpolation-filters="sRGB">
<feFlood flood-opacity="0" result="BackgroundImageFix"/>
<feColorMatrix in="SourceAlpha" type="matrix" values="0 0 0 0 0 0 0 0 0 0 0 0 0 0 0 0 0 0 127 0" result="hardAlpha"/>
<feOffset dy="10"/>
<feGaussianBlur stdDeviation="15"/>
<feColorMatrix type="matrix" values="0 0 0 0 0.0196078 0 0 0 0 0.333333 0 0 0 0 1 0 0 0 0.1 0"/>
<feBlend mode="normal" in2="BackgroundImageFix" result="effect1_dropShadow_1616_6421"/>
<feBlend mode="normal" in="SourceGraphic" in2="effect1_dropShadow_1616_6421" result="shape"/>
</filter>
<filter id="filter1_d_1616_6421" x="363.911" y="336" width="92.1786" height="102.268" filterUnits="userSpaceOnUse" color-interpolation-filters="sRGB">
<feFlood flood-opacity="0" result="BackgroundImageFix"/>
<feColorMatrix in="SourceAlpha" type="matrix" values="0 0 0 0 0 0 0 0 0 0 0 0 0 0 0 0 0 0 127 0" result="hardAlpha"/>
<feMorphology radius="10.0893" operator="erode" in="SourceAlpha" result="effect1_dropShadow_1616_6421"/>
<feOffset dy="20.1786"/>
<feGaussianBlur stdDeviation="10.0893"/>
<feComposite in2="hardAlpha" operator="out"/>
<feColorMatrix type="matrix" values="0 0 0 0 0.164706 0 0 0 0 0.435294 0 0 0 0 1 0 0 0 0.1 0"/>
<feBlend mode="normal" in2="BackgroundImageFix" result="effect1_dropShadow_1616_6421"/>
<feBlend mode="normal" in="SourceGraphic" in2="effect1_dropShadow_1616_6421" result="shape"/>
</filter>
<linearGradient id="paint0_linear_1616_6421" x1="392.968" y1="336" x2="424.03" y2="406.596" gradientUnits="userSpaceOnUse">
<stop stop-color="#0555FF"/>
<stop offset="1" stop-color="#4380FF"/>
</linearGradient>
<linearGradient id="paint1_linear_1616_6421" x1="388.847" y1="348.289" x2="427.474" y2="394.126" gradientUnits="userSpaceOnUse">
<stop offset="0.474963" stop-color="#FCFCFC"/>
<stop offset="1" stop-color="#FCFCFC" stop-opacity="0.6"/>
</linearGradient>
<linearGradient id="paint2_linear_1616_6421" x1="90" y1="324" x2="90" y2="345" gradientUnits="userSpaceOnUse">
<stop stop-color="#0555FF"/>
<stop offset="1" stop-color="#0555FF" stop-opacity="0.6"/>
</linearGradient>
<linearGradient id="paint3_linear_1616_6421" x1="91" y1="326" x2="108" y2="343" gradientUnits="userSpaceOnUse">
<stop stop-color="#0555FF"/>
<stop offset="1" stop-color="#0555FF" stop-opacity="0.21"/>
</linearGradient>
<linearGradient id="paint4_linear_1616_6421" x1="263.5" y1="114" x2="263.5" y2="156" gradientUnits="userSpaceOnUse">
<stop stop-color="#0555FF"/>
<stop offset="1" stop-color="#0555FF" stop-opacity="0.6"/>
</linearGradient>
<linearGradient id="paint5_linear_1616_6421" x1="263.5" y1="187" x2="263.5" y2="217" gradientUnits="userSpaceOnUse">
<stop stop-color="#0555FF"/>
<stop offset="1" stop-color="#0555FF" stop-opacity="0.6"/>
</linearGradient>
<linearGradient id="paint6_linear_1616_6421" x1="163" y1="249" x2="163" y2="305" gradientUnits="userSpaceOnUse">
<stop stop-color="#0555FF"/>
<stop offset="1" stop-color="#0555FF" stop-opacity="0.6"/>
</linearGradient>
<linearGradient id="paint7_linear_1616_6421" x1="429.5" y1="11" x2="429.5" y2="26" gradientUnits="userSpaceOnUse">
<stop stop-color="#0555FF"/>
<stop offset="1" stop-color="#0555FF" stop-opacity="0.21"/>
</linearGradient>
<linearGradient id="paint8_linear_1616_6421" x1="20" y1="214" x2="20" y2="226" gradientUnits="userSpaceOnUse">
<stop stop-color="#0555FF"/>
<stop offset="1" stop-color="#0555FF" stop-opacity="0.21"/>
</linearGradient>
<linearGradient id="paint9_linear_1616_6421" x1="226" y1="412" x2="226" y2="424" gradientUnits="userSpaceOnUse">
<stop stop-color="#0555FF"/>
<stop offset="1" stop-color="#0555FF" stop-opacity="0.21"/>
</linearGradient>
</defs>
</svg>
