<svg width="508" height="440" viewBox="0 0 508 440" fill="none" xmlns="http://www.w3.org/2000/svg">
<rect width="496" height="440" transform="translate(6)" fill="white"/>
<g filter="url(#filter0_d_1616_6469)">
<rect x="30" y="40" width="448" height="338.113" rx="16" fill="white"/>
<rect x="30.5" y="40.5" width="447" height="337.113" rx="15.5" stroke="#F2F6FF"/>
</g>
<rect x="332.409" y="57.4089" width="129.182" height="303.182" rx="10.1572" fill="white"/>
<rect x="332.409" y="57.4089" width="129.182" height="303.182" rx="10.1572" fill="url(#paint0_linear_1616_6469)" fill-opacity="0.06"/>
<rect x="332.409" y="57.4089" width="129.182" height="303.182" rx="10.1572" stroke="#F2F6FF" stroke-width="0.817741"/>
<path d="M413.666 130.738H400.334V135.696H403.666C404.108 135.696 404.533 135.87 404.845 136.18C405.158 136.49 405.334 136.91 405.334 137.348C405.334 137.786 405.158 138.206 404.845 138.516C404.533 138.826 404.108 139 403.666 139H390.334C389.892 139 389.467 138.826 389.155 138.516C388.842 138.206 388.666 137.786 388.666 137.348C388.666 136.91 388.842 136.49 389.155 136.18C389.467 135.87 389.892 135.696 390.334 135.696H393.666V130.738H380.334C379.896 130.738 379.462 130.652 379.058 130.486C378.653 130.32 378.285 130.077 377.976 129.77C377.666 129.463 377.42 129.099 377.253 128.698C377.086 128.297 377 127.867 377 127.434V104.304C377 102.479 378.491 101 380.334 101H413.666C415.509 101 417 102.479 417 104.304V127.434C417 129.258 415.509 130.738 413.666 130.738ZM380.334 125.782H413.666V122.478H380.334V125.782Z" fill="white"/>
<path d="M413.666 130.738H400.334V135.696H403.666C404.108 135.696 404.533 135.87 404.845 136.18C405.158 136.49 405.334 136.91 405.334 137.348C405.334 137.786 405.158 138.206 404.845 138.516C404.533 138.826 404.108 139 403.666 139H390.334C389.892 139 389.467 138.826 389.155 138.516C388.842 138.206 388.666 137.786 388.666 137.348C388.666 136.91 388.842 136.49 389.155 136.18C389.467 135.87 389.892 135.696 390.334 135.696H393.666V130.738H380.334C379.896 130.738 379.462 130.652 379.058 130.486C378.653 130.32 378.285 130.077 377.976 129.77C377.666 129.463 377.42 129.099 377.253 128.698C377.086 128.297 377 127.867 377 127.434V104.304C377 102.479 378.491 101 380.334 101H413.666C415.509 101 417 102.479 417 104.304V127.434C417 129.258 415.509 130.738 413.666 130.738ZM380.334 125.782H413.666V122.478H380.334V125.782Z" fill="url(#paint1_linear_1616_6469)" fill-opacity="0.35"/>
<rect x="343" y="159" width="109" height="9" rx="4.5" fill="white"/>
<rect x="343" y="176" width="41" height="9" rx="4.5" fill="white"/>
<rect x="-0.264151" y="0.264151" width="0.528302" height="295.321" rx="0.264151" transform="matrix(-1 0 0 1 108.717 61.1328)" fill="white"/>
<rect x="-0.264151" y="0.264151" width="0.528302" height="295.321" rx="0.264151" transform="matrix(-1 0 0 1 108.717 61.1328)" fill="url(#paint2_linear_1616_6469)" fill-opacity="0.06"/>
<rect x="-0.264151" y="0.264151" width="0.528302" height="295.321" rx="0.264151" transform="matrix(-1 0 0 1 108.717 61.1328)" stroke="#F2F6FF" stroke-width="0.528302"/>
<rect x="51.1318" y="96" width="40.1509" height="40.1509" rx="20.0755" fill="white"/>
<rect x="51.1318" y="96" width="40.1509" height="40.1509" rx="20.0755" fill="url(#paint3_linear_1616_6469)" fill-opacity="0.1"/>
<circle cx="71.2075" cy="116.076" r="13.7358" fill="white"/>
<circle cx="71.2075" cy="116.076" r="13.7358" fill="url(#paint4_linear_1616_6469)" fill-opacity="0.3"/>
<circle cx="71.2075" cy="164.681" r="13.7358" fill="white"/>
<circle cx="71.2075" cy="164.681" r="13.7358" fill="url(#paint5_linear_1616_6469)" fill-opacity="0.3"/>
<circle cx="71.2075" cy="213.283" r="13.7358" fill="white"/>
<circle cx="71.2075" cy="213.283" r="13.7358" fill="url(#paint6_linear_1616_6469)" fill-opacity="0.3"/>
<circle cx="71.2075" cy="261.888" r="13.7358" fill="white"/>
<circle cx="71.2075" cy="261.888" r="13.7358" fill="url(#paint7_linear_1616_6469)" fill-opacity="0.3"/>
<circle cx="71.2075" cy="310.49" r="13.7358" fill="white"/>
<circle cx="71.2075" cy="310.49" r="13.7358" fill="url(#paint8_linear_1616_6469)" fill-opacity="0.3"/>
<rect x="126.132" y="81.6133" width="50.717" height="9.50943" rx="4.75472" fill="#F0F5FF"/>
<rect x="126" y="185" width="134" height="9" rx="4.5" fill="#F0F5FF"/>
<path d="M163.238 125C166.14 125 168 127.348 168 130.508C168 132.96 165.801 135.66 161.468 138.695C161.184 138.893 160.846 139 160.5 139C160.154 139 159.816 138.893 159.532 138.695C155.199 135.66 153 132.96 153 130.508C153 127.348 154.86 125 157.762 125C158.809 125 159.52 125.369 160.5 126.208C161.48 125.37 162.191 125 163.238 125Z" fill="url(#paint9_radial_1616_6469)" fill-opacity="0.6"/>
<rect x="174.806" y="127.051" width="110.943" height="9.50943" rx="4.75472" fill="#F0F5FF"/>
<path d="M313.637 131.923C313.637 137.09 309.449 141.277 304.283 141.277C299.117 141.277 294.929 137.09 294.929 131.923C294.929 126.757 299.117 122.57 304.283 122.57C309.449 122.57 313.637 126.757 313.637 131.923Z" fill="white" stroke="#E3EBF9" stroke-width="0.311059"/>
<path opacity="0.3" d="M307.816 128.119C307.361 127.646 306.814 127.271 306.207 127.016C305.601 126.762 304.948 126.633 304.289 126.637C303.629 126.63 302.975 126.757 302.367 127.012C301.759 127.267 301.211 127.644 300.756 128.119C300.279 128.572 299.901 129.117 299.645 129.721C299.39 130.325 299.262 130.974 299.27 131.629C299.271 132.703 299.625 133.747 300.277 134.605C300.936 135.508 301.892 136.157 302.98 136.441V138.26C307.209 136.839 309.32 134.629 309.313 131.629C309.316 130.974 309.185 130.325 308.928 129.722C308.671 129.118 308.292 128.573 307.816 128.119Z" fill="#FD8012"/>
<path d="M305.354 132.805L305.373 132.787C305.612 132.648 305.813 132.453 305.956 132.218C306.1 131.983 306.183 131.716 306.196 131.442C306.217 130.513 305.389 129.732 304.343 129.711C303.298 129.691 302.429 130.424 302.408 131.344C302.388 132.264 303.215 133.054 304.261 133.075H304.38C304.498 133.158 304.621 133.234 304.749 133.301C304.945 133.409 305.164 133.467 305.387 133.471C305.593 133.45 305.626 133.322 305.593 133.252C305.56 133.183 305.484 133.183 305.424 133.144C305.36 133.111 305.307 133.059 305.274 132.995C305.264 132.976 305.258 132.955 305.257 132.934C305.256 132.912 305.26 132.891 305.269 132.871C305.277 132.851 305.291 132.834 305.307 132.82C305.324 132.806 305.344 132.796 305.365 132.791" fill="white"/>
<rect x="174.806" y="145.012" width="83.4717" height="9.50943" rx="4.75472" fill="#F0F5FF"/>
<circle cx="55.7871" cy="65.5391" r="5" fill="#1561FF"/>
<circle cx="69.7871" cy="65.5391" r="5" fill="#FD8113"/>
<circle cx="83.7871" cy="65.5391" r="5" fill="#0CE18F"/>
<rect x="343" y="203" width="109" height="44" rx="4" fill="white"/>
<g opacity="0.28">
<path d="M409.112 238H410.876V236.152H413.192V235.264H410.876V234.496H413.192V233.596H411.26L414.08 229.144H412.04L410.96 231.304C410.552 232.18 410.384 232.528 410.048 233.188H409.976C409.652 232.528 409.508 232.216 409.064 231.304L407.96 229.144H405.884L408.716 233.596H406.772V234.496H409.112V235.264H406.772V236.152H409.112V238ZM421.94 232.024C421.94 230.332 420.788 229.384 419.276 229.384C417.764 229.384 416.612 230.368 416.612 232.048C416.612 233.632 417.716 234.58 418.868 234.58C419.072 234.58 419.3 234.556 419.504 234.472L417.728 238H419.42L421.232 234.304C421.616 233.524 421.94 232.804 421.94 232.024ZM420.38 232.036C420.38 232.828 419.912 233.284 419.276 233.284C418.616 233.284 418.172 232.792 418.172 232.036C418.172 231.244 418.64 230.788 419.276 230.788C419.912 230.788 420.38 231.244 420.38 232.036ZM428.456 232.024C428.456 230.332 427.304 229.384 425.792 229.384C424.28 229.384 423.128 230.368 423.128 232.048C423.128 233.632 424.232 234.58 425.384 234.58C425.588 234.58 425.816 234.556 426.02 234.472L424.244 238H425.936L427.748 234.304C428.132 233.524 428.456 232.804 428.456 232.024ZM426.896 232.036C426.896 232.828 426.428 233.284 425.792 233.284C425.132 233.284 424.688 232.792 424.688 232.036C424.688 231.244 425.156 230.788 425.792 230.788C426.428 230.788 426.896 231.244 426.896 232.036ZM431.635 238V236.224H429.847V238H431.635ZM438.309 235.528V231.928C438.309 230.296 437.109 229.384 435.717 229.384C434.325 229.384 433.113 230.296 433.113 231.928V235.528C433.113 237.16 434.325 238.072 435.717 238.072C437.109 238.072 438.309 237.16 438.309 235.528ZM436.749 235.516C436.749 236.236 436.329 236.668 435.717 236.668C435.105 236.668 434.673 236.236 434.673 235.516V231.952C434.673 231.232 435.105 230.788 435.717 230.788C436.329 230.788 436.749 231.232 436.749 231.952V235.516ZM444.825 235.528V231.928C444.825 230.296 443.625 229.384 442.233 229.384C440.841 229.384 439.629 230.296 439.629 231.928V235.528C439.629 237.16 440.841 238.072 442.233 238.072C443.625 238.072 444.825 237.16 444.825 235.528ZM443.265 235.516C443.265 236.236 442.845 236.668 442.233 236.668C441.621 236.668 441.189 236.236 441.189 235.516V231.952C441.189 231.232 441.621 230.788 442.233 230.788C442.845 230.788 443.265 231.232 443.265 231.952V235.516Z" fill="white"/>
<path d="M409.112 238H410.876V236.152H413.192V235.264H410.876V234.496H413.192V233.596H411.26L414.08 229.144H412.04L410.96 231.304C410.552 232.18 410.384 232.528 410.048 233.188H409.976C409.652 232.528 409.508 232.216 409.064 231.304L407.96 229.144H405.884L408.716 233.596H406.772V234.496H409.112V235.264H406.772V236.152H409.112V238ZM421.94 232.024C421.94 230.332 420.788 229.384 419.276 229.384C417.764 229.384 416.612 230.368 416.612 232.048C416.612 233.632 417.716 234.58 418.868 234.58C419.072 234.58 419.3 234.556 419.504 234.472L417.728 238H419.42L421.232 234.304C421.616 233.524 421.94 232.804 421.94 232.024ZM420.38 232.036C420.38 232.828 419.912 233.284 419.276 233.284C418.616 233.284 418.172 232.792 418.172 232.036C418.172 231.244 418.64 230.788 419.276 230.788C419.912 230.788 420.38 231.244 420.38 232.036ZM428.456 232.024C428.456 230.332 427.304 229.384 425.792 229.384C424.28 229.384 423.128 230.368 423.128 232.048C423.128 233.632 424.232 234.58 425.384 234.58C425.588 234.58 425.816 234.556 426.02 234.472L424.244 238H425.936L427.748 234.304C428.132 233.524 428.456 232.804 428.456 232.024ZM426.896 232.036C426.896 232.828 426.428 233.284 425.792 233.284C425.132 233.284 424.688 232.792 424.688 232.036C424.688 231.244 425.156 230.788 425.792 230.788C426.428 230.788 426.896 231.244 426.896 232.036ZM431.635 238V236.224H429.847V238H431.635ZM438.309 235.528V231.928C438.309 230.296 437.109 229.384 435.717 229.384C434.325 229.384 433.113 230.296 433.113 231.928V235.528C433.113 237.16 434.325 238.072 435.717 238.072C437.109 238.072 438.309 237.16 438.309 235.528ZM436.749 235.516C436.749 236.236 436.329 236.668 435.717 236.668C435.105 236.668 434.673 236.236 434.673 235.516V231.952C434.673 231.232 435.105 230.788 435.717 230.788C436.329 230.788 436.749 231.232 436.749 231.952V235.516ZM444.825 235.528V231.928C444.825 230.296 443.625 229.384 442.233 229.384C440.841 229.384 439.629 230.296 439.629 231.928V235.528C439.629 237.16 440.841 238.072 442.233 238.072C443.625 238.072 444.825 237.16 444.825 235.528ZM443.265 235.516C443.265 236.236 442.845 236.668 442.233 236.668C441.621 236.668 441.189 236.236 441.189 235.516V231.952C441.189 231.232 441.621 230.788 442.233 230.788C442.845 230.788 443.265 231.232 443.265 231.952V235.516Z" fill="#125EFF"/>
</g>
<rect x="349.409" y="209.409" width="31.1823" height="31.1823" rx="3.59113" fill="white"/>
<rect x="349.409" y="209.409" width="31.1823" height="31.1823" rx="3.59113" fill="url(#paint10_linear_1616_6469)" fill-opacity="0.06"/>
<rect x="349.409" y="209.409" width="31.1823" height="31.1823" rx="3.59113" stroke="#F2F6FF" stroke-width="0.817741"/>
<rect x="389.409" y="212.409" width="56.1823" height="8.18226" rx="4.09113" fill="white"/>
<rect x="389.409" y="212.409" width="56.1823" height="8.18226" rx="4.09113" fill="url(#paint11_linear_1616_6469)" fill-opacity="0.06"/>
<rect x="389.409" y="212.409" width="56.1823" height="8.18226" rx="4.09113" stroke="#F2F6FF" stroke-width="0.817741"/>
<rect x="343" y="257" width="109" height="44" rx="4" fill="white"/>
<g opacity="0.28">
<path d="M409.112 292H410.876V290.152H413.192V289.264H410.876V288.496H413.192V287.596H411.26L414.08 283.144H412.04L410.96 285.304C410.552 286.18 410.384 286.528 410.048 287.188H409.976C409.652 286.528 409.508 286.216 409.064 285.304L407.96 283.144H405.884L408.716 287.596H406.772V288.496H409.112V289.264H406.772V290.152H409.112V292ZM422.036 284.86V283.456H416.6V286.204H418.088V284.86H420.344L417.572 292H419.264L422.036 284.86ZM428.456 286.024C428.456 284.332 427.304 283.384 425.792 283.384C424.28 283.384 423.128 284.368 423.128 286.048C423.128 287.632 424.232 288.58 425.384 288.58C425.588 288.58 425.816 288.556 426.02 288.472L424.244 292H425.936L427.748 288.304C428.132 287.524 428.456 286.804 428.456 286.024ZM426.896 286.036C426.896 286.828 426.428 287.284 425.792 287.284C425.132 287.284 424.688 286.792 424.688 286.036C424.688 285.244 425.156 284.788 425.792 284.788C426.428 284.788 426.896 285.244 426.896 286.036ZM431.635 292V290.224H429.847V292H431.635ZM438.309 289.528V285.928C438.309 284.296 437.109 283.384 435.717 283.384C434.325 283.384 433.113 284.296 433.113 285.928V289.528C433.113 291.16 434.325 292.072 435.717 292.072C437.109 292.072 438.309 291.16 438.309 289.528ZM436.749 289.516C436.749 290.236 436.329 290.668 435.717 290.668C435.105 290.668 434.673 290.236 434.673 289.516V285.952C434.673 285.232 435.105 284.788 435.717 284.788C436.329 284.788 436.749 285.232 436.749 285.952V289.516ZM444.825 289.528V285.928C444.825 284.296 443.625 283.384 442.233 283.384C440.841 283.384 439.629 284.296 439.629 285.928V289.528C439.629 291.16 440.841 292.072 442.233 292.072C443.625 292.072 444.825 291.16 444.825 289.528ZM443.265 289.516C443.265 290.236 442.845 290.668 442.233 290.668C441.621 290.668 441.189 290.236 441.189 289.516V285.952C441.189 285.232 441.621 284.788 442.233 284.788C442.845 284.788 443.265 285.232 443.265 285.952V289.516Z" fill="white"/>
<path d="M409.112 292H410.876V290.152H413.192V289.264H410.876V288.496H413.192V287.596H411.26L414.08 283.144H412.04L410.96 285.304C410.552 286.18 410.384 286.528 410.048 287.188H409.976C409.652 286.528 409.508 286.216 409.064 285.304L407.96 283.144H405.884L408.716 287.596H406.772V288.496H409.112V289.264H406.772V290.152H409.112V292ZM422.036 284.86V283.456H416.6V286.204H418.088V284.86H420.344L417.572 292H419.264L422.036 284.86ZM428.456 286.024C428.456 284.332 427.304 283.384 425.792 283.384C424.28 283.384 423.128 284.368 423.128 286.048C423.128 287.632 424.232 288.58 425.384 288.58C425.588 288.58 425.816 288.556 426.02 288.472L424.244 292H425.936L427.748 288.304C428.132 287.524 428.456 286.804 428.456 286.024ZM426.896 286.036C426.896 286.828 426.428 287.284 425.792 287.284C425.132 287.284 424.688 286.792 424.688 286.036C424.688 285.244 425.156 284.788 425.792 284.788C426.428 284.788 426.896 285.244 426.896 286.036ZM431.635 292V290.224H429.847V292H431.635ZM438.309 289.528V285.928C438.309 284.296 437.109 283.384 435.717 283.384C434.325 283.384 433.113 284.296 433.113 285.928V289.528C433.113 291.16 434.325 292.072 435.717 292.072C437.109 292.072 438.309 291.16 438.309 289.528ZM436.749 289.516C436.749 290.236 436.329 290.668 435.717 290.668C435.105 290.668 434.673 290.236 434.673 289.516V285.952C434.673 285.232 435.105 284.788 435.717 284.788C436.329 284.788 436.749 285.232 436.749 285.952V289.516ZM444.825 289.528V285.928C444.825 284.296 443.625 283.384 442.233 283.384C440.841 283.384 439.629 284.296 439.629 285.928V289.528C439.629 291.16 440.841 292.072 442.233 292.072C443.625 292.072 444.825 291.16 444.825 289.528ZM443.265 289.516C443.265 290.236 442.845 290.668 442.233 290.668C441.621 290.668 441.189 290.236 441.189 289.516V285.952C441.189 285.232 441.621 284.788 442.233 284.788C442.845 284.788 443.265 285.232 443.265 285.952V289.516Z" fill="#125EFF"/>
</g>
<rect x="349.409" y="263.409" width="31.1823" height="31.1823" rx="3.59113" fill="white"/>
<rect x="349.409" y="263.409" width="31.1823" height="31.1823" rx="3.59113" fill="url(#paint12_linear_1616_6469)" fill-opacity="0.06"/>
<rect x="349.409" y="263.409" width="31.1823" height="31.1823" rx="3.59113" stroke="#F2F6FF" stroke-width="0.817741"/>
<rect x="389.409" y="266.409" width="56.1823" height="8.18226" rx="4.09113" fill="white"/>
<rect x="389.409" y="266.409" width="56.1823" height="8.18226" rx="4.09113" fill="url(#paint13_linear_1616_6469)" fill-opacity="0.06"/>
<rect x="389.409" y="266.409" width="56.1823" height="8.18226" rx="4.09113" stroke="#F2F6FF" stroke-width="0.817741"/>
<g filter="url(#filter1_d_1616_6469)">
<rect x="374" y="336" width="72" height="72" rx="16" fill="url(#paint14_linear_1616_6469)"/>
</g>
<path d="M410.273 352.742C399.511 352.742 390.742 361.512 390.742 372.274C390.742 383.037 399.511 391.806 410.273 391.806C421.035 391.806 429.805 383.037 429.805 372.274C429.904 361.512 421.135 352.742 410.273 352.742ZM419.142 364.402L415.156 376.559C415.056 376.858 414.757 377.157 414.459 377.257L402.301 381.243C402.002 381.342 401.604 381.342 401.504 381.143C401.305 380.944 401.205 380.645 401.404 380.346L405.39 368.188C405.49 367.889 405.789 367.59 406.088 367.491L418.245 363.505C418.544 363.405 418.943 363.405 419.042 363.604C419.242 363.804 419.341 364.103 419.142 364.402Z" fill="url(#paint15_linear_1616_6469)"/>
<path d="M410.274 369.484C408.786 369.484 407.483 370.693 407.483 372.275C407.483 373.763 408.693 375.065 410.274 375.065C411.855 375.065 413.064 373.856 413.064 372.275C413.064 370.787 411.855 369.484 410.274 369.484Z" fill="url(#paint16_linear_1616_6469)"/>
<rect x="422" y="15" width="15" height="15" rx="7.5" fill="white"/>
<rect x="422" y="15" width="15" height="15" rx="7.5" fill="url(#paint17_linear_1616_6469)" fill-opacity="0.2"/>
<rect x="14" y="214" width="12" height="12" rx="6" fill="white"/>
<rect x="14" y="214" width="12" height="12" rx="6" fill="url(#paint18_linear_1616_6469)" fill-opacity="0.2"/>
<defs>
<filter id="filter0_d_1616_6469" x="0" y="20" width="508" height="398.113" filterUnits="userSpaceOnUse" color-interpolation-filters="sRGB">
<feFlood flood-opacity="0" result="BackgroundImageFix"/>
<feColorMatrix in="SourceAlpha" type="matrix" values="0 0 0 0 0 0 0 0 0 0 0 0 0 0 0 0 0 0 127 0" result="hardAlpha"/>
<feOffset dy="10"/>
<feGaussianBlur stdDeviation="15"/>
<feColorMatrix type="matrix" values="0 0 0 0 0.0196078 0 0 0 0 0.333333 0 0 0 0 1 0 0 0 0.1 0"/>
<feBlend mode="normal" in2="BackgroundImageFix" result="effect1_dropShadow_1616_6469"/>
<feBlend mode="normal" in="SourceGraphic" in2="effect1_dropShadow_1616_6469" result="shape"/>
</filter>
<filter id="filter1_d_1616_6469" x="364" y="336" width="92" height="92" filterUnits="userSpaceOnUse" color-interpolation-filters="sRGB">
<feFlood flood-opacity="0" result="BackgroundImageFix"/>
<feColorMatrix in="SourceAlpha" type="matrix" values="0 0 0 0 0 0 0 0 0 0 0 0 0 0 0 0 0 0 127 0" result="hardAlpha"/>
<feOffset dy="10"/>
<feGaussianBlur stdDeviation="5"/>
<feComposite in2="hardAlpha" operator="out"/>
<feColorMatrix type="matrix" values="0 0 0 0 0.0509804 0 0 0 0 0.894118 0 0 0 0 0.572549 0 0 0 0.1 0"/>
<feBlend mode="normal" in2="BackgroundImageFix" result="effect1_dropShadow_1616_6469"/>
<feBlend mode="normal" in="SourceGraphic" in2="effect1_dropShadow_1616_6469" result="shape"/>
</filter>
<linearGradient id="paint0_linear_1616_6469" x1="397" y1="57" x2="397" y2="361" gradientUnits="userSpaceOnUse">
<stop stop-color="#0555FF"/>
<stop offset="1" stop-color="#0555FF" stop-opacity="0.6"/>
</linearGradient>
<linearGradient id="paint1_linear_1616_6469" x1="377" y1="101" x2="414.95" y2="140.947" gradientUnits="userSpaceOnUse">
<stop stop-color="#0555FF"/>
<stop offset="1" stop-color="#0555FF" stop-opacity="0.21"/>
</linearGradient>
<linearGradient id="paint2_linear_1616_6469" x1="0.528302" y1="0" x2="0.528302" y2="295.849" gradientUnits="userSpaceOnUse">
<stop stop-color="#0555FF"/>
<stop offset="1" stop-color="#0555FF" stop-opacity="0.6"/>
</linearGradient>
<linearGradient id="paint3_linear_1616_6469" x1="51.1318" y1="96" x2="91.2828" y2="136.151" gradientUnits="userSpaceOnUse">
<stop stop-color="#0555FF"/>
<stop offset="1" stop-color="#0555FF" stop-opacity="0.21"/>
</linearGradient>
<linearGradient id="paint4_linear_1616_6469" x1="57.4717" y1="102.34" x2="84.9434" y2="129.812" gradientUnits="userSpaceOnUse">
<stop stop-color="#0555FF"/>
<stop offset="1" stop-color="#0555FF" stop-opacity="0.21"/>
</linearGradient>
<linearGradient id="paint5_linear_1616_6469" x1="57.4717" y1="150.945" x2="84.9434" y2="178.417" gradientUnits="userSpaceOnUse">
<stop stop-color="#0555FF"/>
<stop offset="1" stop-color="#0555FF" stop-opacity="0.21"/>
</linearGradient>
<linearGradient id="paint6_linear_1616_6469" x1="57.4717" y1="199.547" x2="84.9434" y2="227.019" gradientUnits="userSpaceOnUse">
<stop stop-color="#0555FF"/>
<stop offset="1" stop-color="#0555FF" stop-opacity="0.21"/>
</linearGradient>
<linearGradient id="paint7_linear_1616_6469" x1="57.4717" y1="248.152" x2="84.9434" y2="275.624" gradientUnits="userSpaceOnUse">
<stop stop-color="#0555FF"/>
<stop offset="1" stop-color="#0555FF" stop-opacity="0.21"/>
</linearGradient>
<linearGradient id="paint8_linear_1616_6469" x1="57.4717" y1="296.754" x2="84.9434" y2="324.226" gradientUnits="userSpaceOnUse">
<stop stop-color="#0555FF"/>
<stop offset="1" stop-color="#0555FF" stop-opacity="0.21"/>
</linearGradient>
<radialGradient id="paint9_radial_1616_6469" cx="0" cy="0" r="1" gradientUnits="userSpaceOnUse" gradientTransform="translate(154.765 126.647) rotate(45.3634) scale(14.756 16.3497)">
<stop stop-color="#FD8011"/>
<stop offset="1" stop-color="#FD7F11" stop-opacity="0.2"/>
</radialGradient>
<linearGradient id="paint10_linear_1616_6469" x1="365" y1="209" x2="365" y2="241" gradientUnits="userSpaceOnUse">
<stop stop-color="#0555FF"/>
<stop offset="1" stop-color="#0555FF" stop-opacity="0.6"/>
</linearGradient>
<linearGradient id="paint11_linear_1616_6469" x1="417.5" y1="212" x2="417.5" y2="221" gradientUnits="userSpaceOnUse">
<stop stop-color="#0555FF"/>
<stop offset="1" stop-color="#0555FF" stop-opacity="0.6"/>
</linearGradient>
<linearGradient id="paint12_linear_1616_6469" x1="365" y1="263" x2="365" y2="295" gradientUnits="userSpaceOnUse">
<stop stop-color="#0555FF"/>
<stop offset="1" stop-color="#0555FF" stop-opacity="0.6"/>
</linearGradient>
<linearGradient id="paint13_linear_1616_6469" x1="417.5" y1="266" x2="417.5" y2="275" gradientUnits="userSpaceOnUse">
<stop stop-color="#0555FF"/>
<stop offset="1" stop-color="#0555FF" stop-opacity="0.6"/>
</linearGradient>
<linearGradient id="paint14_linear_1616_6469" x1="376.038" y1="337.8" x2="451.011" y2="386.839" gradientUnits="userSpaceOnUse">
<stop stop-color="#07D988"/>
<stop offset="1" stop-color="#15F59F"/>
</linearGradient>
<linearGradient id="paint15_linear_1616_6469" x1="390.742" y1="352.742" x2="421.575" y2="397.479" gradientUnits="userSpaceOnUse">
<stop stop-color="white"/>
<stop offset="0.993319" stop-color="white" stop-opacity="0.6"/>
</linearGradient>
<linearGradient id="paint16_linear_1616_6469" x1="407.483" y1="369.484" x2="411.888" y2="375.875" gradientUnits="userSpaceOnUse">
<stop stop-color="white"/>
<stop offset="0.993319" stop-color="white" stop-opacity="0.6"/>
</linearGradient>
<linearGradient id="paint17_linear_1616_6469" x1="429.5" y1="15" x2="429.5" y2="30" gradientUnits="userSpaceOnUse">
<stop stop-color="#0555FF"/>
<stop offset="1" stop-color="#0555FF" stop-opacity="0.21"/>
</linearGradient>
<linearGradient id="paint18_linear_1616_6469" x1="20" y1="214" x2="20" y2="226" gradientUnits="userSpaceOnUse">
<stop stop-color="#0555FF"/>
<stop offset="1" stop-color="#0555FF" stop-opacity="0.21"/>
</linearGradient>
</defs>
</svg>
