<svg width="508" height="440" viewBox="0 0 508 440" fill="none" xmlns="http://www.w3.org/2000/svg">
<rect width="496" height="440" transform="translate(6)" fill="white"/>
<rect x="13" y="215" width="10" height="10" rx="5" fill="white"/>
<rect x="13" y="215" width="10" height="10" rx="5" fill="url(#paint0_linear_1616_6808)" fill-opacity="0.2"/>
<rect x="382" y="31" width="14" height="14" rx="7" fill="white"/>
<rect x="382" y="31" width="14" height="14" rx="7" fill="url(#paint1_linear_1616_6808)" fill-opacity="0.2"/>
<g filter="url(#filter0_d_1616_6808)">
<rect x="30" y="40" width="448" height="338.113" rx="16" fill="white"/>
<rect x="30.5" y="40.5" width="447" height="337.113" rx="15.5" stroke="#F2F6FF"/>
</g>
<line opacity="0.3" x1="196.435" y1="268.565" x2="452.565" y2="268.565" stroke="#869BB9" stroke-width="0.870144" stroke-linecap="round" stroke-dasharray="1.74 2.61"/>
<rect x="196.459" y="86" width="48" height="9" rx="4.5" fill="#F0F5FF"/>
<rect x="196" y="176.613" width="151" height="9" rx="4.5" fill="#F0F5FF"/>
<rect x="252" y="127" width="158" height="9" rx="4.5" fill="#F0F5FF"/>
<rect x="252" y="144" width="64" height="9" rx="4.5" fill="#F0F5FF"/>
<rect x="195" y="314" width="232" height="9" rx="4.5" fill="#F0F5FF"/>
<rect x="195" y="331" width="100" height="9" rx="4.5" fill="#F0F5FF"/>
<path d="M212.853 292C212.853 296.889 208.889 300.853 204 300.853C199.111 300.853 195.147 296.889 195.147 292C195.147 287.111 199.111 283.147 204 283.147C208.889 283.147 212.853 287.111 212.853 292Z" fill="white" stroke="#E3EBF9" stroke-width="0.294395"/>
<path opacity="0.3" d="M207.344 288.403C206.913 287.956 206.395 287.601 205.821 287.359C205.247 287.118 204.629 286.996 204.006 287C203.381 286.993 202.762 287.114 202.186 287.356C201.611 287.597 201.092 287.953 200.662 288.403C200.21 288.831 199.853 289.347 199.611 289.919C199.369 290.49 199.248 291.105 199.255 291.725C199.257 292.741 199.591 293.729 200.208 294.541C200.832 295.396 201.737 296.011 202.767 296.279V298C206.769 296.656 208.767 294.564 208.76 291.725C208.763 291.105 208.639 290.491 208.396 289.92C208.152 289.349 207.794 288.832 207.344 288.403Z" fill="#FD8012"/>
<path d="M205.014 292.835L205.031 292.817C205.258 292.686 205.448 292.501 205.584 292.279C205.72 292.057 205.798 291.804 205.811 291.545C205.83 290.666 205.047 289.926 204.057 289.907C203.067 289.887 202.245 290.581 202.225 291.452C202.206 292.323 202.989 293.07 203.979 293.09H204.092C204.204 293.169 204.32 293.24 204.441 293.304C204.626 293.406 204.833 293.461 205.045 293.465C205.24 293.445 205.271 293.324 205.24 293.258C205.209 293.192 205.137 293.192 205.08 293.155C205.019 293.124 204.969 293.075 204.938 293.014C204.928 292.997 204.922 292.977 204.922 292.956C204.921 292.936 204.925 292.916 204.933 292.897C204.941 292.878 204.954 292.862 204.969 292.849C204.985 292.836 205.004 292.826 205.024 292.821" fill="white"/>
<path d="M236.853 292C236.853 296.889 232.889 300.853 228 300.853C223.111 300.853 219.147 296.889 219.147 292C219.147 287.111 223.111 283.147 228 283.147C232.889 283.147 236.853 287.111 236.853 292Z" fill="white" stroke="#E3EBF9" stroke-width="0.294395"/>
<path opacity="0.3" d="M231.344 288.403C230.913 287.956 230.395 287.601 229.821 287.359C229.247 287.118 228.629 286.996 228.006 287C227.381 286.993 226.762 287.114 226.186 287.356C225.611 287.597 225.092 287.953 224.662 288.403C224.21 288.831 223.853 289.347 223.611 289.919C223.369 290.49 223.248 291.105 223.255 291.725C223.257 292.741 223.591 293.729 224.208 294.541C224.832 295.396 225.737 296.011 226.767 296.279V298C230.769 296.656 232.767 294.564 232.76 291.725C232.763 291.105 232.639 290.491 232.396 289.92C232.152 289.349 231.794 288.832 231.344 288.403Z" fill="#FD8012"/>
<path d="M229.014 292.835L229.031 292.817C229.258 292.686 229.448 292.501 229.584 292.279C229.72 292.057 229.798 291.804 229.811 291.545C229.83 290.666 229.047 289.926 228.057 289.907C227.067 289.887 226.245 290.581 226.225 291.452C226.206 292.323 226.989 293.07 227.979 293.09H228.092C228.204 293.169 228.32 293.24 228.441 293.304C228.626 293.406 228.833 293.461 229.045 293.465C229.24 293.445 229.271 293.324 229.24 293.258C229.209 293.192 229.137 293.192 229.08 293.155C229.019 293.124 228.969 293.075 228.938 293.014C228.928 292.997 228.922 292.977 228.922 292.956C228.921 292.936 228.925 292.916 228.933 292.897C228.941 292.878 228.954 292.862 228.969 292.849C228.985 292.836 229.004 292.826 229.024 292.821" fill="white"/>
<path d="M259.853 292C259.853 296.889 255.889 300.853 251 300.853C246.111 300.853 242.147 296.889 242.147 292C242.147 287.111 246.111 283.147 251 283.147C255.889 283.147 259.853 287.111 259.853 292Z" fill="white" stroke="#E3EBF9" stroke-width="0.294395"/>
<path opacity="0.3" d="M254.344 288.403C253.913 287.956 253.395 287.601 252.821 287.359C252.247 287.118 251.629 286.996 251.006 287C250.381 286.993 249.762 287.114 249.186 287.356C248.611 287.597 248.092 287.953 247.662 288.403C247.21 288.831 246.853 289.347 246.611 289.919C246.369 290.49 246.248 291.105 246.255 291.725C246.257 292.741 246.591 293.729 247.208 294.541C247.832 295.396 248.737 296.011 249.767 296.279V298C253.769 296.656 255.767 294.564 255.76 291.725C255.763 291.105 255.639 290.491 255.396 289.92C255.152 289.349 254.794 288.832 254.344 288.403Z" fill="#FD8012"/>
<path d="M252.014 292.835L252.031 292.817C252.258 292.686 252.448 292.501 252.584 292.279C252.72 292.057 252.798 291.804 252.811 291.545C252.83 290.666 252.047 289.926 251.057 289.907C250.067 289.887 249.245 290.581 249.225 291.452C249.206 292.323 249.989 293.07 250.979 293.09H251.092C251.204 293.169 251.32 293.24 251.441 293.304C251.626 293.406 251.833 293.461 252.045 293.465C252.24 293.445 252.271 293.324 252.24 293.258C252.209 293.192 252.137 293.192 252.08 293.155C252.019 293.124 251.969 293.075 251.938 293.014C251.928 292.997 251.922 292.977 251.922 292.956C251.921 292.936 251.925 292.916 251.933 292.897C251.941 292.878 251.954 292.862 251.969 292.849C251.985 292.836 252.004 292.826 252.024 292.821" fill="white"/>
<path d="M283.853 292C283.853 296.889 279.889 300.853 275 300.853C270.111 300.853 266.147 296.889 266.147 292C266.147 287.111 270.111 283.147 275 283.147C279.889 283.147 283.853 287.111 283.853 292Z" fill="white" stroke="#E3EBF9" stroke-width="0.294395"/>
<path opacity="0.3" d="M278.344 288.403C277.913 287.956 277.395 287.601 276.821 287.359C276.247 287.118 275.629 286.996 275.006 287C274.381 286.993 273.762 287.114 273.186 287.356C272.611 287.597 272.092 287.953 271.662 288.403C271.21 288.831 270.853 289.347 270.611 289.919C270.369 290.49 270.248 291.105 270.255 291.725C270.257 292.741 270.591 293.729 271.208 294.541C271.832 295.396 272.737 296.011 273.767 296.279V298C277.769 296.656 279.767 294.564 279.76 291.725C279.763 291.105 279.639 290.491 279.396 289.92C279.152 289.349 278.794 288.832 278.344 288.403Z" fill="#FD8012"/>
<path d="M276.014 292.835L276.031 292.817C276.258 292.686 276.448 292.501 276.584 292.279C276.72 292.057 276.798 291.804 276.811 291.545C276.83 290.666 276.047 289.926 275.057 289.907C274.067 289.887 273.245 290.581 273.225 291.452C273.206 292.323 273.989 293.07 274.979 293.09H275.092C275.204 293.169 275.32 293.24 275.441 293.304C275.626 293.406 275.833 293.461 276.045 293.465C276.24 293.445 276.271 293.324 276.24 293.258C276.209 293.192 276.137 293.192 276.08 293.155C276.019 293.124 275.969 293.075 275.938 293.014C275.928 292.997 275.922 292.977 275.922 292.956C275.921 292.936 275.925 292.916 275.933 292.897C275.941 292.878 275.954 292.862 275.969 292.849C275.985 292.836 276.004 292.826 276.024 292.821" fill="white"/>
<path d="M307.853 292C307.853 296.889 303.889 300.853 299 300.853C294.111 300.853 290.147 296.889 290.147 292C290.147 287.111 294.111 283.147 299 283.147C303.889 283.147 307.853 287.111 307.853 292Z" fill="white" stroke="#E3EBF9" stroke-width="0.294395"/>
<path opacity="0.3" d="M302.344 288.403C301.913 287.956 301.395 287.601 300.821 287.359C300.247 287.118 299.629 286.996 299.006 287C298.381 286.993 297.762 287.114 297.186 287.356C296.611 287.597 296.092 287.953 295.662 288.403C295.21 288.831 294.853 289.347 294.611 289.919C294.369 290.49 294.248 291.105 294.255 291.725C294.257 292.741 294.591 293.729 295.208 294.541C295.832 295.396 296.737 296.011 297.767 296.279V298C301.769 296.656 303.767 294.564 303.76 291.725C303.763 291.105 303.639 290.491 303.396 289.92C303.152 289.349 302.794 288.832 302.344 288.403Z" fill="#FD8012"/>
<path d="M300.014 292.835L300.031 292.817C300.258 292.686 300.448 292.501 300.584 292.279C300.72 292.057 300.798 291.804 300.811 291.545C300.83 290.666 300.047 289.926 299.057 289.907C298.067 289.887 297.245 290.581 297.225 291.452C297.206 292.323 297.989 293.07 298.979 293.09H299.092C299.204 293.169 299.32 293.24 299.441 293.304C299.626 293.406 299.833 293.461 300.045 293.465C300.24 293.445 300.271 293.324 300.24 293.258C300.209 293.192 300.137 293.192 300.08 293.155C300.019 293.124 299.969 293.075 299.938 293.014C299.928 292.997 299.922 292.977 299.922 292.956C299.921 292.936 299.925 292.916 299.933 292.897C299.941 292.878 299.954 292.862 299.969 292.849C299.985 292.836 300.004 292.826 300.024 292.821" fill="white"/>
<circle cx="431" cy="131" r="12.8445" fill="white" stroke="#E3EBF9" stroke-width="0.311059"/>
<path opacity="0.3" d="M435.285 126.338C434.721 125.752 434.042 125.287 433.289 124.971C432.537 124.655 431.728 124.495 430.911 124.5C430.092 124.491 429.28 124.65 428.526 124.966C427.773 125.282 427.093 125.749 426.529 126.338C425.937 126.9 425.468 127.576 425.151 128.325C424.834 129.074 424.676 129.879 424.686 130.691C424.687 132.023 425.126 133.318 425.934 134.382C426.752 135.503 427.937 136.308 429.287 136.66V138.915C434.532 137.153 437.15 134.412 437.141 130.691C437.145 129.879 436.983 129.074 436.664 128.326C436.345 127.578 435.875 126.901 435.285 126.338Z" fill="#FD8012"/>
<path d="M432.232 132.15L432.255 132.127C432.552 131.955 432.8 131.713 432.979 131.422C433.157 131.13 433.259 130.8 433.276 130.459C433.302 129.308 432.275 128.338 430.978 128.313C429.681 128.288 428.604 129.196 428.578 130.338C428.553 131.479 429.579 132.459 430.876 132.484H431.024C431.171 132.587 431.323 132.681 431.481 132.765C431.724 132.899 431.996 132.971 432.273 132.975C432.528 132.95 432.569 132.791 432.528 132.705C432.487 132.618 432.393 132.618 432.319 132.57C432.239 132.529 432.174 132.465 432.132 132.386C432.12 132.362 432.112 132.336 432.111 132.309C432.11 132.283 432.115 132.256 432.126 132.232C432.137 132.207 432.153 132.186 432.174 132.168C432.194 132.151 432.219 132.139 432.245 132.132" fill="white"/>
<rect x="46.4089" y="57.4089" width="129.182" height="303.182" rx="9.65563" fill="white"/>
<rect x="46.4089" y="57.4089" width="129.182" height="303.182" rx="9.65563" fill="url(#paint2_linear_1616_6808)" fill-opacity="0.06"/>
<rect x="46.4089" y="57.4089" width="129.182" height="303.182" rx="9.65563" stroke="#F2F6FF" stroke-width="0.817741"/>
<rect x="56.4089" y="99.4089" width="109.182" height="34.1823" rx="17.0911" fill="url(#paint3_linear_1616_6808)" stroke="#F2F6FF" stroke-width="0.817741"/>
<circle cx="79" cy="325" r="13" fill="white"/>
<circle cx="79" cy="325" r="13" fill="url(#paint4_linear_1616_6808)" fill-opacity="0.3"/>
<circle cx="79" cy="169" r="13" fill="white"/>
<circle cx="79" cy="169" r="13" fill="url(#paint5_linear_1616_6808)" fill-opacity="0.3"/>
<circle cx="79" cy="221" r="13" fill="white"/>
<circle cx="79" cy="221" r="13" fill="url(#paint6_linear_1616_6808)" fill-opacity="0.3"/>
<circle cx="79" cy="273" r="13" fill="white"/>
<circle cx="79" cy="273" r="13" fill="url(#paint7_linear_1616_6808)" fill-opacity="0.3"/>
<rect x="100" y="112" width="47" height="10" rx="5" fill="#F0F5FF"/>
<rect x="100" y="164" width="47" height="10" rx="5" fill="#E3EBF9"/>
<path d="M81.6982 173.218C81.7663 173.177 81.8466 173.16 81.9258 173.17C82.005 173.18 82.0785 173.215 82.1341 173.271L82.1494 173.287C82.5738 173.643 82.7904 173.855 83.6417 174.102C83.8288 174.143 84.0134 174.235 84.1634 174.383C84.5596 174.766 84.575 175.371 84.1993 175.737C83.8237 176.101 83.1994 176.085 82.802 175.702C82.6576 175.563 82.5583 175.385 82.5161 175.192C82.3417 174.66 82.0544 174.168 81.6725 173.75L81.6572 173.735C81.6239 173.704 81.5972 173.668 81.5786 173.628C81.56 173.587 81.5498 173.544 81.5486 173.499C81.5474 173.455 81.5552 173.411 81.5717 173.37C81.5881 173.328 81.6128 173.291 81.6443 173.259L81.6982 173.218ZM78.3958 163C81.9264 163 84.7903 165.419 84.7903 168.4C84.7903 168.751 84.7519 169.092 84.6749 169.423C84.5504 169.141 84.3263 168.911 84.043 168.775C83.7597 168.638 83.4356 168.604 83.1289 168.679C83.1366 168.602 83.1379 168.525 83.1379 168.446C83.1379 166.166 80.9675 164.318 78.2881 164.318C75.6101 164.318 73.4384 166.166 73.4384 168.446C73.4384 169.702 74.096 170.825 75.1344 171.584C75.237 171.687 75.2883 171.827 75.2883 172.005C75.2844 172.198 75.0319 173.119 75.0152 173.183C75.0062 173.237 75.028 173.252 75.0844 173.223L76.2536 172.568C76.5177 172.429 76.7408 172.378 76.9241 172.413L76.9702 172.423C77.789 172.617 78.6426 172.628 79.4663 172.454C79.4919 172.951 79.7996 173.377 80.2354 173.576C79.6329 173.727 79.0163 173.803 78.3958 173.803C77.7835 173.804 77.1736 173.729 76.5805 173.582L74.5383 174.529C74.4747 174.559 74.4058 174.575 74.3355 174.578C74.2653 174.581 74.1952 174.57 74.1292 174.546C74.0633 174.523 74.003 174.486 73.9517 174.44C73.9004 174.393 73.8593 174.337 73.8307 174.275C73.7871 174.183 73.7711 174.081 73.7845 173.981L74.0101 172.332C72.773 171.349 72 169.951 72 168.402C72 165.417 74.8639 163 78.3958 163ZM85.3313 171.81C85.7275 171.427 86.3531 171.412 86.7287 171.776C87.1043 172.141 87.0876 172.748 86.6928 173.132C86.5492 173.272 86.3664 173.368 86.1672 173.408C85.6185 173.577 85.1121 173.855 84.6801 174.227L84.6647 174.242C84.6334 174.274 84.5959 174.3 84.5543 174.318C84.5128 174.336 84.468 174.346 84.4225 174.347C84.377 174.348 84.3317 174.34 84.2893 174.325C84.2468 174.309 84.208 174.285 84.175 174.255L84.1314 174.202C84.0896 174.136 84.0722 174.058 84.0822 173.981C84.0923 173.904 84.129 173.832 84.1865 173.778L84.2032 173.765C84.5711 173.353 84.7878 173.142 85.0429 172.316C85.0882 172.124 85.1886 171.949 85.3326 171.81H85.3313ZM82.0636 170.598C82.0949 170.565 82.1324 170.539 82.1741 170.521C82.2158 170.503 82.2607 170.493 82.3064 170.492C82.352 170.491 82.3974 170.499 82.44 170.515C82.4826 170.531 82.5215 170.555 82.5546 170.585L82.5969 170.637C82.6391 170.703 82.6568 170.781 82.647 170.859C82.6372 170.936 82.6005 171.007 82.543 171.061L82.5251 171.075C82.1584 171.487 81.9392 171.699 81.6867 172.522C81.6417 172.715 81.5412 172.891 81.3969 173.03C81.0021 173.413 80.3765 173.428 79.9996 173.063C79.6252 172.699 79.6406 172.093 80.0355 171.708C80.1791 171.568 80.3618 171.472 80.5611 171.432C81.1098 171.263 81.6174 170.984 82.0482 170.613L82.0636 170.598ZM82.7725 169.232C83.1481 168.867 83.7724 168.882 84.1686 169.266C84.3132 169.405 84.4126 169.582 84.4544 169.776C84.6185 170.29 84.9006 170.772 85.2993 171.218L85.3134 171.233C85.3466 171.263 85.3733 171.3 85.3919 171.34C85.4106 171.381 85.4208 171.424 85.422 171.469C85.4232 171.513 85.4153 171.557 85.3989 171.598C85.3824 171.639 85.3577 171.677 85.3262 171.709L85.2724 171.75C85.2042 171.791 85.124 171.807 85.0448 171.797C84.9656 171.788 84.8922 171.752 84.8365 171.697L84.8211 171.681C84.398 171.324 84.1801 171.112 83.3289 170.867C83.1312 170.823 82.9504 170.725 82.8071 170.585C82.4123 170.202 82.3969 169.595 82.7725 169.232Z" fill="white"/>
<path d="M81.6982 173.218C81.7663 173.177 81.8466 173.16 81.9258 173.17C82.005 173.18 82.0785 173.215 82.1341 173.271L82.1494 173.287C82.5738 173.643 82.7904 173.855 83.6417 174.102C83.8288 174.143 84.0134 174.235 84.1634 174.383C84.5596 174.766 84.575 175.371 84.1993 175.737C83.8237 176.101 83.1994 176.085 82.802 175.702C82.6576 175.563 82.5583 175.385 82.5161 175.192C82.3417 174.66 82.0544 174.168 81.6725 173.75L81.6572 173.735C81.6239 173.704 81.5972 173.668 81.5786 173.628C81.56 173.587 81.5498 173.544 81.5486 173.499C81.5474 173.455 81.5552 173.411 81.5717 173.37C81.5881 173.328 81.6128 173.291 81.6443 173.259L81.6982 173.218ZM78.3958 163C81.9264 163 84.7903 165.419 84.7903 168.4C84.7903 168.751 84.7519 169.092 84.6749 169.423C84.5504 169.141 84.3263 168.911 84.043 168.775C83.7597 168.638 83.4356 168.604 83.1289 168.679C83.1366 168.602 83.1379 168.525 83.1379 168.446C83.1379 166.166 80.9675 164.318 78.2881 164.318C75.6101 164.318 73.4384 166.166 73.4384 168.446C73.4384 169.702 74.096 170.825 75.1344 171.584C75.237 171.687 75.2883 171.827 75.2883 172.005C75.2844 172.198 75.0319 173.119 75.0152 173.183C75.0062 173.237 75.028 173.252 75.0844 173.223L76.2536 172.568C76.5177 172.429 76.7408 172.378 76.9241 172.413L76.9702 172.423C77.789 172.617 78.6426 172.628 79.4663 172.454C79.4919 172.951 79.7996 173.377 80.2354 173.576C79.6329 173.727 79.0163 173.803 78.3958 173.803C77.7835 173.804 77.1736 173.729 76.5805 173.582L74.5383 174.529C74.4747 174.559 74.4058 174.575 74.3355 174.578C74.2653 174.581 74.1952 174.57 74.1292 174.546C74.0633 174.523 74.003 174.486 73.9517 174.44C73.9004 174.393 73.8593 174.337 73.8307 174.275C73.7871 174.183 73.7711 174.081 73.7845 173.981L74.0101 172.332C72.773 171.349 72 169.951 72 168.402C72 165.417 74.8639 163 78.3958 163ZM85.3313 171.81C85.7275 171.427 86.3531 171.412 86.7287 171.776C87.1043 172.141 87.0876 172.748 86.6928 173.132C86.5492 173.272 86.3664 173.368 86.1672 173.408C85.6185 173.577 85.1121 173.855 84.6801 174.227L84.6647 174.242C84.6334 174.274 84.5959 174.3 84.5543 174.318C84.5128 174.336 84.468 174.346 84.4225 174.347C84.377 174.348 84.3317 174.34 84.2893 174.325C84.2468 174.309 84.208 174.285 84.175 174.255L84.1314 174.202C84.0896 174.136 84.0722 174.058 84.0822 173.981C84.0923 173.904 84.129 173.832 84.1865 173.778L84.2032 173.765C84.5711 173.353 84.7878 173.142 85.0429 172.316C85.0882 172.124 85.1886 171.949 85.3326 171.81H85.3313ZM82.0636 170.598C82.0949 170.565 82.1324 170.539 82.1741 170.521C82.2158 170.503 82.2607 170.493 82.3064 170.492C82.352 170.491 82.3974 170.499 82.44 170.515C82.4826 170.531 82.5215 170.555 82.5546 170.585L82.5969 170.637C82.6391 170.703 82.6568 170.781 82.647 170.859C82.6372 170.936 82.6005 171.007 82.543 171.061L82.5251 171.075C82.1584 171.487 81.9392 171.699 81.6867 172.522C81.6417 172.715 81.5412 172.891 81.3969 173.03C81.0021 173.413 80.3765 173.428 79.9996 173.063C79.6252 172.699 79.6406 172.093 80.0355 171.708C80.1791 171.568 80.3618 171.472 80.5611 171.432C81.1098 171.263 81.6174 170.984 82.0482 170.613L82.0636 170.598ZM82.7725 169.232C83.1481 168.867 83.7724 168.882 84.1686 169.266C84.3132 169.405 84.4126 169.582 84.4544 169.776C84.6185 170.29 84.9006 170.772 85.2993 171.218L85.3134 171.233C85.3466 171.263 85.3733 171.3 85.3919 171.34C85.4106 171.381 85.4208 171.424 85.422 171.469C85.4232 171.513 85.4153 171.557 85.3989 171.598C85.3824 171.639 85.3577 171.677 85.3262 171.709L85.2724 171.75C85.2042 171.791 85.124 171.807 85.0448 171.797C84.9656 171.788 84.8922 171.752 84.8365 171.697L84.8211 171.681C84.398 171.324 84.1801 171.112 83.3289 170.867C83.1312 170.823 82.9504 170.725 82.8071 170.585C82.4123 170.202 82.3969 169.595 82.7725 169.232Z" fill="white"/>
<rect x="99.541" y="216" width="60" height="10" rx="5" fill="#E3EBF9"/>
<path fill-rule="evenodd" clip-rule="evenodd" d="M82.3063 218.41L81.666 217.929V223.547C81.666 225.805 79.9314 227.598 77.833 227.598C75.7346 227.598 74 225.805 74 223.547C74 221.289 75.7346 219.495 77.833 219.495C77.9283 219.495 78.0223 219.499 78.1152 219.506V221.195C78.0275 221.185 77.9392 221.179 77.8508 221.179C76.5681 221.179 75.5612 222.266 75.5612 223.566C75.5612 224.864 76.568 225.953 77.8508 225.953C79.1324 225.953 80.1389 224.864 80.1389 223.566V214.398H81.7205C81.8969 216.12 83.1983 217.511 84.8667 217.704V219.379C83.9415 219.306 83.0531 218.972 82.3063 218.41Z" fill="white"/>
<path fill-rule="evenodd" clip-rule="evenodd" d="M82.3063 218.41L81.666 217.929V223.547C81.666 225.805 79.9314 227.598 77.833 227.598C75.7346 227.598 74 225.805 74 223.547C74 221.289 75.7346 219.495 77.833 219.495C77.9283 219.495 78.0223 219.499 78.1152 219.506V221.195C78.0275 221.185 77.9392 221.179 77.8508 221.179C76.5681 221.179 75.5612 222.266 75.5612 223.566C75.5612 224.864 76.568 225.953 77.8508 225.953C79.1324 225.953 80.1389 224.864 80.1389 223.566V214.398H81.7205C81.8969 216.12 83.1983 217.511 84.8667 217.704V219.379C83.9415 219.306 83.0531 218.972 82.3063 218.41Z" fill="white"/>
<rect x="100" y="268" width="47" height="10" rx="5" fill="#E3EBF9"/>
<rect x="99.541" y="320" width="60" height="10" rx="5" fill="#E3EBF9"/>
<circle cx="67.812" cy="78.8125" r="5" fill="#1561FF"/>
<circle cx="81.812" cy="78.8125" r="5" fill="#FD8113"/>
<circle cx="95.812" cy="78.8125" r="5" fill="#0CE18F"/>
<path d="M83.2159 113.144C83.5689 113.144 83.8534 112.83 83.7329 112.498C82.7811 109.876 79.7989 108 76.4328 108C72.347 108 69 110.768 69 114.282C69 116.142 69.9366 117.697 71.5268 118.939C71.7862 119.142 71.9025 119.483 71.7981 119.795C71.5888 120.421 72.2407 120.988 72.8313 120.693L73.5079 120.356C73.7161 120.252 73.953 120.22 74.181 120.266C74.9549 120.424 75.6247 120.567 76.4328 120.567C76.7908 120.567 77.0293 120.214 76.9701 119.861C76.9225 119.577 76.8968 119.286 76.8968 118.99C76.8968 115.763 79.6852 113.144 83.2159 113.144ZM79.2201 111.141C79.7799 111.141 80.1503 111.507 80.1503 112.063C80.1503 112.616 79.7799 112.987 79.2201 112.987C78.6626 112.987 78.104 112.616 78.104 112.063C78.104 111.507 78.6627 111.141 79.2201 111.141ZM74.0183 112.987C73.4608 112.987 72.8988 112.616 72.8988 112.063C72.8988 111.507 73.4608 111.14 74.0183 111.14C74.5752 111.14 74.9462 111.507 74.9462 112.063C74.9462 112.616 74.5752 112.987 74.0183 112.987ZM90 118.901C90 115.947 87.0263 113.54 83.6867 113.54C80.1503 113.54 77.3653 115.947 77.3653 118.901C77.3653 121.858 80.1503 124.26 83.6867 124.26C84.3236 124.26 84.9656 124.124 85.6062 123.967C85.8059 123.919 86.0167 123.945 86.1973 124.043L86.6401 124.284C87.1225 124.547 87.6805 124.092 87.5212 123.567C87.4462 123.319 87.5358 123.053 87.7361 122.889C89.0542 121.812 90 120.437 90 118.901ZM81.6369 117.976C81.267 117.976 80.8937 117.61 80.8937 117.237C80.8937 116.869 81.267 116.499 81.6369 116.499C82.1989 116.499 82.5672 116.869 82.5672 117.237C82.5672 117.61 82.1989 117.976 81.6369 117.976ZM85.725 117.976C85.3579 117.976 84.9868 117.61 84.9868 117.237C84.9868 116.869 85.3579 116.499 85.725 116.499C86.2824 116.499 86.6552 116.869 86.6552 117.237C86.6552 117.61 86.2824 117.976 85.725 117.976Z" fill="white"/>
<path d="M83.2159 113.144C83.5689 113.144 83.8534 112.83 83.7329 112.498C82.7811 109.876 79.7989 108 76.4328 108C72.347 108 69 110.768 69 114.282C69 116.142 69.9366 117.697 71.5268 118.939C71.7862 119.142 71.9025 119.483 71.7981 119.795C71.5888 120.421 72.2407 120.988 72.8313 120.693L73.5079 120.356C73.7161 120.252 73.953 120.22 74.181 120.266C74.9549 120.424 75.6247 120.567 76.4328 120.567C76.7908 120.567 77.0293 120.214 76.9701 119.861C76.9225 119.577 76.8968 119.286 76.8968 118.99C76.8968 115.763 79.6852 113.144 83.2159 113.144ZM79.2201 111.141C79.7799 111.141 80.1503 111.507 80.1503 112.063C80.1503 112.616 79.7799 112.987 79.2201 112.987C78.6626 112.987 78.104 112.616 78.104 112.063C78.104 111.507 78.6627 111.141 79.2201 111.141ZM74.0183 112.987C73.4608 112.987 72.8988 112.616 72.8988 112.063C72.8988 111.507 73.4608 111.14 74.0183 111.14C74.5752 111.14 74.9462 111.507 74.9462 112.063C74.9462 112.616 74.5752 112.987 74.0183 112.987ZM90 118.901C90 115.947 87.0263 113.54 83.6867 113.54C80.1503 113.54 77.3653 115.947 77.3653 118.901C77.3653 121.858 80.1503 124.26 83.6867 124.26C84.3236 124.26 84.9656 124.124 85.6062 123.967C85.8059 123.919 86.0167 123.945 86.1973 124.043L86.6401 124.284C87.1225 124.547 87.6805 124.092 87.5212 123.567C87.4462 123.319 87.5358 123.053 87.7361 122.889C89.0542 121.812 90 120.437 90 118.901ZM81.6369 117.976C81.267 117.976 80.8937 117.61 80.8937 117.237C80.8937 116.869 81.267 116.499 81.6369 116.499C82.1989 116.499 82.5672 116.869 82.5672 117.237C82.5672 117.61 82.1989 117.976 81.6369 117.976ZM85.725 117.976C85.3579 117.976 84.9868 117.61 84.9868 117.237C84.9868 116.869 85.3579 116.499 85.725 116.499C86.2824 116.499 86.6552 116.869 86.6552 117.237C86.6552 117.61 86.2824 117.976 85.725 117.976Z" fill="url(#paint8_linear_1616_6808)" fill-opacity="0.4"/>
<path d="M83.9592 268.034C82.6426 266.722 80.8871 266 79.0219 266C75.2038 266 72.0658 269.106 72.0658 272.934C72.0658 274.159 72.395 275.341 72.9875 276.412L72 280L75.7085 279.037C76.7179 279.584 77.8589 279.891 79.0439 279.891C82.884 279.869 86 276.762 86 272.934C86 271.097 85.2539 269.347 83.9592 268.034ZM79.0219 278.709C77.9906 278.709 76.9592 278.425 76.0596 277.9L75.8401 277.769L73.6458 278.338L74.2382 276.216L74.1066 275.997C73.536 275.078 73.2288 274.006 73.2288 272.934C73.2288 269.763 75.8182 267.181 79.0219 267.181C80.558 267.181 82.0282 267.794 83.1034 268.866C84.1787 269.938 84.7931 271.403 84.7931 272.956C84.815 276.128 82.2257 278.709 79.0219 278.709ZM82.2038 274.4C82.0282 274.312 81.1724 273.897 80.9969 273.853C80.8433 273.788 80.7116 273.766 80.6019 273.941C80.4922 274.116 80.1411 274.488 80.0533 274.619C79.9436 274.728 79.8558 274.75 79.6803 274.662C79.5047 274.575 78.9561 274.4 78.2759 273.787C77.7712 273.328 77.3981 272.759 77.3103 272.584C77.2006 272.409 77.2884 272.322 77.3981 272.234C77.4859 272.147 77.5737 272.037 77.6614 271.928C77.7492 271.819 77.7712 271.753 77.837 271.644C77.9028 271.534 77.8589 271.425 77.815 271.338C77.7712 271.25 77.4201 270.397 77.2665 270.047C77.1348 269.697 76.9812 269.763 76.8715 269.763H76.5423C76.4326 269.763 76.2351 269.806 76.0815 269.981C75.9279 270.156 75.4671 270.572 75.4671 271.425C75.4671 272.278 76.0815 273.088 76.1912 273.219C76.279 273.328 77.4201 275.1 79.1536 275.844C79.5705 276.019 79.8997 276.128 80.1411 276.216C80.558 276.347 80.931 276.325 81.2382 276.281C81.5893 276.238 82.2696 275.866 82.4232 275.45C82.5549 275.056 82.5549 274.684 82.5329 274.619C82.489 274.509 82.3793 274.466 82.2038 274.4Z" fill="white"/>
<path d="M83.9592 268.034C82.6426 266.722 80.8871 266 79.0219 266C75.2038 266 72.0658 269.106 72.0658 272.934C72.0658 274.159 72.395 275.341 72.9875 276.412L72 280L75.7085 279.037C76.7179 279.584 77.8589 279.891 79.0439 279.891C82.884 279.869 86 276.762 86 272.934C86 271.097 85.2539 269.347 83.9592 268.034ZM79.0219 278.709C77.9906 278.709 76.9592 278.425 76.0596 277.9L75.8401 277.769L73.6458 278.338L74.2382 276.216L74.1066 275.997C73.536 275.078 73.2288 274.006 73.2288 272.934C73.2288 269.763 75.8182 267.181 79.0219 267.181C80.558 267.181 82.0282 267.794 83.1034 268.866C84.1787 269.938 84.7931 271.403 84.7931 272.956C84.815 276.128 82.2257 278.709 79.0219 278.709ZM82.2038 274.4C82.0282 274.312 81.1724 273.897 80.9969 273.853C80.8433 273.788 80.7116 273.766 80.6019 273.941C80.4922 274.116 80.1411 274.488 80.0533 274.619C79.9436 274.728 79.8558 274.75 79.6803 274.662C79.5047 274.575 78.9561 274.4 78.2759 273.787C77.7712 273.328 77.3981 272.759 77.3103 272.584C77.2006 272.409 77.2884 272.322 77.3981 272.234C77.4859 272.147 77.5737 272.037 77.6614 271.928C77.7492 271.819 77.7712 271.753 77.837 271.644C77.9028 271.534 77.8589 271.425 77.815 271.338C77.7712 271.25 77.4201 270.397 77.2665 270.047C77.1348 269.697 76.9812 269.763 76.8715 269.763H76.5423C76.4326 269.763 76.2351 269.806 76.0815 269.981C75.9279 270.156 75.4671 270.572 75.4671 271.425C75.4671 272.278 76.0815 273.088 76.1912 273.219C76.279 273.328 77.4201 275.1 79.1536 275.844C79.5705 276.019 79.8997 276.128 80.1411 276.216C80.558 276.347 80.931 276.325 81.2382 276.281C81.5893 276.238 82.2696 275.866 82.4232 275.45C82.5549 275.056 82.5549 274.684 82.5329 274.619C82.489 274.509 82.3793 274.466 82.2038 274.4Z" fill="white"/>
<path fill-rule="evenodd" clip-rule="evenodd" d="M75.6365 319.452C75.6365 320.252 76.2895 320.905 77.0888 320.905V320.905H78.5411V319.452C78.5411 318.653 77.8882 318 77.0888 318C76.2895 318 75.6365 318.653 75.6365 319.452ZM78.5412 323.089C78.5412 322.289 77.8882 321.637 77.0888 321.637H73.4523C72.653 321.637 72 322.289 72 323.089C72 323.888 72.653 324.541 73.4523 324.541H77.0888C77.8882 324.541 78.5412 323.888 78.5412 323.089ZM73.4523 328.186C74.2517 328.186 74.9046 327.533 74.9046 326.734H74.9047V325.281H73.4523C72.653 325.281 72 325.934 72 326.734C72 327.533 72.653 328.186 73.4523 328.186ZM77.0888 325.281C76.2895 325.281 75.6365 325.934 75.6365 326.734V330.37C75.6365 331.169 76.2895 331.822 77.0888 331.822C77.8882 331.822 78.5412 331.169 78.5412 330.37V326.734C78.5412 325.934 77.8882 325.281 77.0888 325.281ZM82.9211 323.089C82.9211 322.289 83.5741 321.637 84.3734 321.637C85.1728 321.637 85.8258 322.289 85.8258 323.089C85.8258 323.888 85.1728 324.541 84.3734 324.541H82.9211V323.089H82.9211ZM82.1892 323.089C82.1892 323.888 81.5363 324.541 80.7369 324.541C79.9375 324.541 79.2846 323.888 79.2846 323.089V319.452C79.2846 318.653 79.9375 318 80.7369 318C81.5363 318 82.1892 318.653 82.1892 319.452V323.089ZM82.1893 330.37C82.1893 329.571 81.5364 328.918 80.737 328.918V328.918H79.2847V330.37C79.2847 331.169 79.9376 331.822 80.737 331.822C81.5364 331.822 82.1893 331.169 82.1893 330.37ZM79.2847 326.734C79.2847 327.533 79.9376 328.186 80.737 328.186H84.3735C85.1728 328.186 85.8258 327.533 85.8258 326.734C85.8258 325.934 85.1728 325.281 84.3735 325.281H80.737C79.9376 325.281 79.2847 325.934 79.2847 326.734Z" fill="white"/>
<path fill-rule="evenodd" clip-rule="evenodd" d="M75.6365 319.452C75.6365 320.252 76.2895 320.905 77.0888 320.905V320.905H78.5411V319.452C78.5411 318.653 77.8882 318 77.0888 318C76.2895 318 75.6365 318.653 75.6365 319.452ZM78.5412 323.089C78.5412 322.289 77.8882 321.637 77.0888 321.637H73.4523C72.653 321.637 72 322.289 72 323.089C72 323.888 72.653 324.541 73.4523 324.541H77.0888C77.8882 324.541 78.5412 323.888 78.5412 323.089ZM73.4523 328.186C74.2517 328.186 74.9046 327.533 74.9046 326.734H74.9047V325.281H73.4523C72.653 325.281 72 325.934 72 326.734C72 327.533 72.653 328.186 73.4523 328.186ZM77.0888 325.281C76.2895 325.281 75.6365 325.934 75.6365 326.734V330.37C75.6365 331.169 76.2895 331.822 77.0888 331.822C77.8882 331.822 78.5412 331.169 78.5412 330.37V326.734C78.5412 325.934 77.8882 325.281 77.0888 325.281ZM82.9211 323.089C82.9211 322.289 83.5741 321.637 84.3734 321.637C85.1728 321.637 85.8258 322.289 85.8258 323.089C85.8258 323.888 85.1728 324.541 84.3734 324.541H82.9211V323.089H82.9211ZM82.1892 323.089C82.1892 323.888 81.5363 324.541 80.7369 324.541C79.9375 324.541 79.2846 323.888 79.2846 323.089V319.452C79.2846 318.653 79.9375 318 80.7369 318C81.5363 318 82.1892 318.653 82.1892 319.452V323.089ZM82.1893 330.37C82.1893 329.571 81.5364 328.918 80.737 328.918V328.918H79.2847V330.37C79.2847 331.169 79.9376 331.822 80.737 331.822C81.5364 331.822 82.1893 331.169 82.1893 330.37ZM79.2847 326.734C79.2847 327.533 79.9376 328.186 80.737 328.186H84.3735C85.1728 328.186 85.8258 327.533 85.8258 326.734C85.8258 325.934 85.1728 325.281 84.3735 325.281H80.737C79.9376 325.281 79.2847 325.934 79.2847 326.734Z" fill="white"/>
<circle cx="198" cy="402" r="5" fill="white"/>
<circle cx="198" cy="402" r="5" fill="url(#paint9_linear_1616_6808)" fill-opacity="0.2"/>
<defs>
<filter id="filter0_d_1616_6808" x="0" y="20" width="508" height="398.113" filterUnits="userSpaceOnUse" color-interpolation-filters="sRGB">
<feFlood flood-opacity="0" result="BackgroundImageFix"/>
<feColorMatrix in="SourceAlpha" type="matrix" values="0 0 0 0 0 0 0 0 0 0 0 0 0 0 0 0 0 0 127 0" result="hardAlpha"/>
<feOffset dy="10"/>
<feGaussianBlur stdDeviation="15"/>
<feColorMatrix type="matrix" values="0 0 0 0 0.0196078 0 0 0 0 0.333333 0 0 0 0 1 0 0 0 0.1 0"/>
<feBlend mode="normal" in2="BackgroundImageFix" result="effect1_dropShadow_1616_6808"/>
<feBlend mode="normal" in="SourceGraphic" in2="effect1_dropShadow_1616_6808" result="shape"/>
</filter>
<linearGradient id="paint0_linear_1616_6808" x1="18" y1="215" x2="18" y2="225" gradientUnits="userSpaceOnUse">
<stop stop-color="#0555FF"/>
<stop offset="1" stop-color="#0555FF" stop-opacity="0.21"/>
</linearGradient>
<linearGradient id="paint1_linear_1616_6808" x1="389" y1="31" x2="389" y2="45" gradientUnits="userSpaceOnUse">
<stop stop-color="#0555FF"/>
<stop offset="1" stop-color="#0555FF" stop-opacity="0.21"/>
</linearGradient>
<linearGradient id="paint2_linear_1616_6808" x1="111" y1="57" x2="111" y2="361" gradientUnits="userSpaceOnUse">
<stop stop-color="#0555FF"/>
<stop offset="1" stop-color="#0555FF" stop-opacity="0.6"/>
</linearGradient>
<linearGradient id="paint3_linear_1616_6808" x1="111" y1="99" x2="111" y2="134" gradientUnits="userSpaceOnUse">
<stop stop-color="white" stop-opacity="0.6"/>
<stop offset="1" stop-color="white"/>
</linearGradient>
<linearGradient id="paint4_linear_1616_6808" x1="66" y1="312" x2="92" y2="338" gradientUnits="userSpaceOnUse">
<stop stop-color="#0555FF"/>
<stop offset="1" stop-color="#0555FF" stop-opacity="0.21"/>
</linearGradient>
<linearGradient id="paint5_linear_1616_6808" x1="66" y1="156" x2="92" y2="182" gradientUnits="userSpaceOnUse">
<stop stop-color="#0555FF"/>
<stop offset="1" stop-color="#0555FF" stop-opacity="0.21"/>
</linearGradient>
<linearGradient id="paint6_linear_1616_6808" x1="66" y1="208" x2="92" y2="234" gradientUnits="userSpaceOnUse">
<stop stop-color="#0555FF"/>
<stop offset="1" stop-color="#0555FF" stop-opacity="0.21"/>
</linearGradient>
<linearGradient id="paint7_linear_1616_6808" x1="66" y1="260" x2="92" y2="286" gradientUnits="userSpaceOnUse">
<stop stop-color="#0555FF"/>
<stop offset="1" stop-color="#0555FF" stop-opacity="0.21"/>
</linearGradient>
<linearGradient id="paint8_linear_1616_6808" x1="69" y1="108" x2="85.6274" y2="128.54" gradientUnits="userSpaceOnUse">
<stop stop-color="#0555FF"/>
<stop offset="1" stop-color="#0555FF" stop-opacity="0.21"/>
</linearGradient>
<linearGradient id="paint9_linear_1616_6808" x1="198" y1="397" x2="198" y2="407" gradientUnits="userSpaceOnUse">
<stop stop-color="#0555FF"/>
<stop offset="1" stop-color="#0555FF" stop-opacity="0.21"/>
</linearGradient>
</defs>
</svg>
