<svg width="508" height="440" viewBox="0 0 508 440" fill="none" xmlns="http://www.w3.org/2000/svg">
<rect width="496" height="440" transform="translate(6)" fill="white"/>
<rect x="13" y="215" width="10" height="10" rx="5" fill="white"/>
<rect x="13" y="215" width="10" height="10" rx="5" fill="url(#paint0_linear_1616_6870)" fill-opacity="0.2"/>
<g filter="url(#filter0_d_1616_6870)">
<rect x="30" y="40" width="448" height="338.113" rx="16" fill="white"/>
<rect x="30.5" y="40.5" width="447" height="337.113" rx="15.5" stroke="#F2F6FF"/>
</g>
<line opacity="0.3" x1="57.4351" y1="140.565" x2="450.565" y2="140.565" stroke="#869BB9" stroke-width="0.870144" stroke-linecap="round" stroke-dasharray="1.74 2.61"/>
<rect x="93" y="104" width="48" height="9" rx="4.5" fill="#F0F5FF"/>
<rect x="57" y="268" width="227" height="9" rx="4.5" fill="#F0F5FF"/>
<rect x="57" y="173" width="168" height="9" rx="4.5" fill="#F0F5FF"/>
<rect x="57" y="285" width="91" height="9" rx="4.5" fill="#F0F5FF"/>
<rect x="259" y="212" width="158" height="9" rx="4.5" fill="#F0F5FF"/>
<rect x="259" y="229" width="64" height="9" rx="4.5" fill="#F0F5FF"/>
<path d="M438.83 105.001C438.831 105.002 438.831 105.002 438.832 105.002L447.165 105.002C447.326 105.001 447.483 105.046 447.619 105.13C447.754 105.214 447.861 105.335 447.927 105.477C447.993 105.62 448.015 105.777 447.99 105.932C447.965 106.086 447.895 106.229 447.787 106.345L443.666 111.679C443.533 111.85 443.337 111.962 443.118 111.992C442.9 112.022 442.679 111.967 442.503 111.839C442.439 111.794 442.384 111.74 442.338 111.679L438.165 106.288C438.033 106.117 437.977 105.903 438.009 105.692C438.04 105.481 438.157 105.29 438.333 105.163C438.475 105.057 438.649 105 438.828 105C438.829 105 438.829 105 438.83 105.001Z" fill="white"/>
<path d="M438.83 105.001C438.831 105.002 438.831 105.002 438.832 105.002L447.165 105.002C447.326 105.001 447.483 105.046 447.619 105.13C447.754 105.214 447.861 105.335 447.927 105.477C447.993 105.62 448.015 105.777 447.99 105.932C447.965 106.086 447.895 106.229 447.787 106.345L443.666 111.679C443.533 111.85 443.337 111.962 443.118 111.992C442.9 112.022 442.679 111.967 442.503 111.839C442.439 111.794 442.384 111.74 442.338 111.679L438.165 106.288C438.033 106.117 437.977 105.903 438.009 105.692C438.04 105.481 438.157 105.29 438.333 105.163C438.475 105.057 438.649 105 438.828 105C438.829 105 438.829 105 438.83 105.001Z" fill="#E3EBF9"/>
<circle cx="416" cy="108" r="9.88036" fill="white" stroke="#E3EBF9" stroke-width="0.239276"/>
<path opacity="0.3" d="M419.296 104.414C418.862 103.963 418.34 103.605 417.761 103.362C417.183 103.119 416.56 102.996 415.932 103C415.302 102.993 414.678 103.115 414.098 103.358C413.518 103.602 412.994 103.961 412.561 104.414C412.106 104.846 411.745 105.366 411.501 105.942C411.257 106.518 411.135 107.138 411.143 107.763C411.144 108.787 411.481 109.783 412.103 110.601C412.733 111.464 413.644 112.083 414.682 112.354V114.089C418.717 112.733 420.731 110.625 420.724 107.763C420.727 107.138 420.602 106.519 420.357 105.943C420.111 105.367 419.751 104.847 419.296 104.414Z" fill="#FD8012"/>
<path d="M416.948 108.886L416.966 108.868C417.194 108.736 417.385 108.549 417.522 108.325C417.659 108.101 417.738 107.847 417.751 107.585C417.771 106.699 416.981 105.953 415.983 105.934C414.986 105.915 414.157 106.613 414.137 107.492C414.117 108.37 414.907 109.123 415.905 109.143H416.019C416.131 109.222 416.249 109.294 416.37 109.359C416.557 109.461 416.766 109.517 416.979 109.52C417.176 109.501 417.207 109.378 417.176 109.312C417.144 109.246 417.072 109.246 417.015 109.209C416.953 109.177 416.903 109.128 416.871 109.067C416.861 109.049 416.856 109.029 416.855 109.008C416.854 108.988 416.858 108.967 416.866 108.948C416.875 108.93 416.887 108.913 416.903 108.9C416.919 108.886 416.938 108.877 416.958 108.872" fill="white"/>
<circle cx="55.812" cy="65.8125" r="5" fill="#1561FF"/>
<circle cx="69.812" cy="65.8125" r="5" fill="#FD8113"/>
<circle cx="83.812" cy="65.8125" r="5" fill="#0CE18F"/>
<circle cx="70" cy="109" r="13" fill="white"/>
<circle cx="70" cy="109" r="13" fill="url(#paint1_linear_1616_6870)" fill-opacity="0.3"/>
<g filter="url(#filter1_d_1616_6870)">
<path d="M356 134C356 130.686 358.686 128 362 128H442C445.314 128 448 130.686 448 134V264C448 267.314 445.314 270 442 270H362C358.686 270 356 267.314 356 264V134Z" fill="white"/>
<path d="M356 134C356 130.686 358.686 128 362 128H442C445.314 128 448 130.686 448 134V264C448 267.314 445.314 270 442 270H362C358.686 270 356 267.314 356 264V134Z" fill="url(#paint2_linear_1616_6870)" fill-opacity="0.06"/>
<path d="M356.2 134C356.2 130.797 358.797 128.2 362 128.2H442C445.203 128.2 447.8 130.797 447.8 134V264C447.8 267.203 445.203 269.8 442 269.8H362C358.797 269.8 356.2 267.203 356.2 264V134Z" stroke="#E3EBF9" stroke-width="0.4"/>
</g>
<path d="M435.751 151.481L435.753 151.483L433.266 153.686L433.264 153.684C433.128 153.806 432.951 153.874 432.767 153.874C432.569 153.874 432.379 153.797 432.239 153.659C432.099 153.521 432.021 153.335 432.021 153.14C432.021 152.923 432.118 152.731 432.269 152.596L432.268 152.594L433.309 151.671H424.746C424.548 151.671 424.358 151.594 424.219 151.456C424.079 151.318 424 151.132 424 150.937C424 150.742 424.079 150.555 424.219 150.418C424.358 150.28 424.548 150.203 424.746 150.203H426.69H426.549H433.309L432.268 149.28L432.269 149.278C432.191 149.21 432.129 149.126 432.086 149.032C432.043 148.939 432.021 148.837 432.021 148.734C432.021 148.54 432.099 148.353 432.239 148.215C432.379 148.077 432.569 148 432.767 148C432.959 148 433.132 148.073 433.264 148.19L433.266 148.188L435.753 150.391L435.751 150.393C435.903 150.528 436 150.72 436 150.937C436 151.154 435.903 151.346 435.751 151.481H435.751ZM424 157.063C424 156.846 424.097 156.654 424.249 156.519L424.247 156.517L426.734 154.314L426.736 154.316C426.872 154.194 427.049 154.126 427.233 154.126C427.431 154.126 427.621 154.203 427.761 154.341C427.901 154.479 427.979 154.665 427.979 154.86C427.979 155.077 427.882 155.269 427.731 155.404L427.732 155.406L426.691 156.329H433.451H433.309H435.254C435.451 156.329 435.641 156.406 435.781 156.544C435.921 156.682 436 156.868 436 157.063C436 157.258 435.921 157.445 435.781 157.582C435.641 157.72 435.451 157.797 435.254 157.797H426.691L427.732 158.72L427.731 158.722C427.882 158.856 427.979 159.049 427.979 159.266C427.979 159.362 427.96 159.458 427.922 159.547C427.885 159.636 427.83 159.717 427.761 159.785C427.691 159.853 427.609 159.907 427.519 159.944C427.428 159.981 427.331 160 427.233 160C427.049 160 426.872 159.932 426.736 159.81L426.734 159.812L424.247 157.609L424.249 157.607C424.171 157.538 424.108 157.455 424.065 157.361C424.022 157.267 424 157.166 424 157.063Z" fill="white"/>
<path d="M435.751 151.481L435.753 151.483L433.266 153.686L433.264 153.684C433.128 153.806 432.951 153.874 432.767 153.874C432.569 153.874 432.379 153.797 432.239 153.659C432.099 153.521 432.021 153.335 432.021 153.14C432.021 152.923 432.118 152.731 432.269 152.596L432.268 152.594L433.309 151.671H424.746C424.548 151.671 424.358 151.594 424.219 151.456C424.079 151.318 424 151.132 424 150.937C424 150.742 424.079 150.555 424.219 150.418C424.358 150.28 424.548 150.203 424.746 150.203H426.69H426.549H433.309L432.268 149.28L432.269 149.278C432.191 149.21 432.129 149.126 432.086 149.032C432.043 148.939 432.021 148.837 432.021 148.734C432.021 148.54 432.099 148.353 432.239 148.215C432.379 148.077 432.569 148 432.767 148C432.959 148 433.132 148.073 433.264 148.19L433.266 148.188L435.753 150.391L435.751 150.393C435.903 150.528 436 150.72 436 150.937C436 151.154 435.903 151.346 435.751 151.481H435.751ZM424 157.063C424 156.846 424.097 156.654 424.249 156.519L424.247 156.517L426.734 154.314L426.736 154.316C426.872 154.194 427.049 154.126 427.233 154.126C427.431 154.126 427.621 154.203 427.761 154.341C427.901 154.479 427.979 154.665 427.979 154.86C427.979 155.077 427.882 155.269 427.731 155.404L427.732 155.406L426.691 156.329H433.451H433.309H435.254C435.451 156.329 435.641 156.406 435.781 156.544C435.921 156.682 436 156.868 436 157.063C436 157.258 435.921 157.445 435.781 157.582C435.641 157.72 435.451 157.797 435.254 157.797H426.691L427.732 158.72L427.731 158.722C427.882 158.856 427.979 159.049 427.979 159.266C427.979 159.362 427.96 159.458 427.922 159.547C427.885 159.636 427.83 159.717 427.761 159.785C427.691 159.853 427.609 159.907 427.519 159.944C427.428 159.981 427.331 160 427.233 160C427.049 160 426.872 159.932 426.736 159.81L426.734 159.812L424.247 157.609L424.249 157.607C424.171 157.538 424.108 157.455 424.065 157.361C424.022 157.267 424 157.166 424 157.063Z" fill="url(#paint3_linear_1616_6870)" fill-opacity="0.3"/>
<rect x="392" y="150" width="21" height="8" rx="4" fill="url(#paint4_radial_1616_6870)" fill-opacity="0.4"/>
<rect x="392" y="150" width="21" height="8" rx="4" fill="white"/>
<rect x="392" y="180" width="28" height="8" rx="4" fill="white"/>
<rect x="392" y="240" width="33" height="8" rx="4" fill="white"/>
<rect x="392" y="210" width="16" height="8" rx="4" fill="white"/>
<circle cx="378" cy="154" r="10" fill="white"/>
<circle cx="378" cy="154" r="10" fill="url(#paint5_radial_1616_6870)" fill-opacity="0.4"/>
<circle cx="378" cy="154" r="9.88" stroke="#FC790D" stroke-opacity="0.3" stroke-width="0.24"/>
<path fill-rule="evenodd" clip-rule="evenodd" d="M379.761 149.362C380.34 149.605 380.862 149.963 381.296 150.414C381.751 150.847 382.111 151.367 382.357 151.943C382.602 152.519 382.727 153.138 382.724 153.763C382.731 156.625 380.717 158.733 376.682 160.089V158.354C375.644 158.083 374.733 157.464 374.103 156.601C373.481 155.783 373.144 154.787 373.143 153.763C373.135 153.138 373.257 152.518 373.501 151.942C373.745 151.366 374.106 150.846 374.561 150.414C374.994 149.961 375.518 149.602 376.098 149.358C376.678 149.115 377.302 148.993 377.932 149C378.56 148.996 379.183 149.119 379.761 149.362ZM378.966 154.868L378.948 154.886L378.958 154.872C378.938 154.877 378.919 154.886 378.903 154.9C378.887 154.913 378.875 154.93 378.866 154.948C378.858 154.967 378.854 154.988 378.855 155.008C378.856 155.029 378.861 155.049 378.871 155.067C378.903 155.128 378.953 155.177 379.015 155.209C379.034 155.222 379.056 155.23 379.077 155.238C379.117 155.254 379.155 155.269 379.176 155.312C379.207 155.378 379.176 155.501 378.979 155.52C378.766 155.517 378.557 155.461 378.37 155.359C378.249 155.294 378.131 155.222 378.019 155.143H377.905C376.907 155.123 376.117 154.37 376.137 153.492C376.157 152.613 376.986 151.915 377.983 151.934C378.981 151.953 379.771 152.699 379.751 153.585C379.738 153.847 379.659 154.101 379.522 154.325C379.385 154.549 379.194 154.736 378.966 154.868Z" fill="white"/>
<circle cx="378" cy="184" r="9.88036" fill="white" stroke="#E3EBF9" stroke-width="0.239276"/>
<path opacity="0.3" d="M381.296 180.414C380.862 179.963 380.34 179.605 379.761 179.362C379.183 179.119 378.56 178.996 377.932 179C377.302 178.993 376.678 179.115 376.098 179.358C375.518 179.602 374.994 179.961 374.561 180.414C374.106 180.846 373.745 181.366 373.501 181.942C373.257 182.518 373.135 183.138 373.143 183.763C373.144 184.787 373.481 185.783 374.103 186.601C374.733 187.464 375.644 188.083 376.682 188.354V190.089C380.717 188.733 382.731 186.625 382.724 183.763C382.727 183.138 382.602 182.519 382.357 181.943C382.111 181.367 381.751 180.847 381.296 180.414Z" fill="#FD8012"/>
<path d="M378.948 184.886L378.966 184.868C379.194 184.736 379.385 184.549 379.522 184.325C379.659 184.101 379.738 183.847 379.751 183.585C379.771 182.699 378.981 181.953 377.983 181.934C376.986 181.915 376.157 182.613 376.137 183.492C376.117 184.37 376.907 185.123 377.905 185.143H378.019C378.131 185.222 378.249 185.294 378.37 185.359C378.557 185.461 378.766 185.517 378.979 185.52C379.176 185.501 379.207 185.378 379.176 185.312C379.144 185.246 379.072 185.246 379.015 185.209C378.953 185.177 378.903 185.128 378.871 185.067C378.861 185.049 378.856 185.029 378.855 185.008C378.854 184.988 378.858 184.967 378.866 184.948C378.875 184.93 378.887 184.913 378.903 184.9C378.919 184.886 378.938 184.877 378.958 184.872" fill="white"/>
<circle cx="378" cy="214" r="9.88036" fill="white" stroke="#E3EBF9" stroke-width="0.239276"/>
<path opacity="0.3" d="M381.296 210.414C380.862 209.963 380.34 209.605 379.761 209.362C379.183 209.119 378.56 208.996 377.932 209C377.302 208.993 376.678 209.115 376.098 209.358C375.518 209.602 374.994 209.961 374.561 210.414C374.106 210.846 373.745 211.366 373.501 211.942C373.257 212.518 373.135 213.138 373.143 213.763C373.144 214.787 373.481 215.783 374.103 216.601C374.733 217.464 375.644 218.083 376.682 218.354V220.089C380.717 218.733 382.731 216.625 382.724 213.763C382.727 213.138 382.602 212.519 382.357 211.943C382.111 211.367 381.751 210.847 381.296 210.414Z" fill="#FD8012"/>
<path d="M378.948 214.886L378.966 214.868C379.194 214.736 379.385 214.549 379.522 214.325C379.659 214.101 379.738 213.847 379.751 213.585C379.771 212.699 378.981 211.953 377.983 211.934C376.986 211.915 376.157 212.613 376.137 213.492C376.117 214.37 376.907 215.123 377.905 215.143H378.019C378.131 215.222 378.249 215.294 378.37 215.359C378.557 215.461 378.766 215.517 378.979 215.52C379.176 215.501 379.207 215.378 379.176 215.312C379.144 215.246 379.072 215.246 379.015 215.209C378.953 215.177 378.903 215.128 378.871 215.067C378.861 215.049 378.856 215.029 378.855 215.008C378.854 214.988 378.858 214.967 378.866 214.948C378.875 214.93 378.887 214.913 378.903 214.9C378.919 214.886 378.938 214.877 378.958 214.872" fill="white"/>
<circle cx="378" cy="244" r="9.88036" fill="white" stroke="#E3EBF9" stroke-width="0.239276"/>
<path opacity="0.3" d="M381.296 240.414C380.862 239.963 380.34 239.605 379.761 239.362C379.183 239.119 378.56 238.996 377.932 239C377.302 238.993 376.678 239.115 376.098 239.358C375.518 239.602 374.994 239.961 374.561 240.414C374.106 240.846 373.745 241.366 373.501 241.942C373.257 242.518 373.135 243.138 373.143 243.763C373.144 244.787 373.481 245.783 374.103 246.601C374.733 247.464 375.644 248.083 376.682 248.354V250.089C380.717 248.733 382.731 246.625 382.724 243.763C382.727 243.138 382.602 242.519 382.357 241.943C382.111 241.367 381.751 240.847 381.296 240.414Z" fill="#FD8012"/>
<path d="M378.948 244.886L378.966 244.868C379.194 244.736 379.385 244.549 379.522 244.325C379.659 244.101 379.738 243.847 379.751 243.585C379.771 242.699 378.981 241.953 377.983 241.934C376.986 241.915 376.157 242.613 376.137 243.492C376.117 244.37 376.907 245.123 377.905 245.143H378.019C378.131 245.222 378.249 245.294 378.37 245.359C378.557 245.461 378.766 245.517 378.979 245.52C379.176 245.501 379.207 245.378 379.176 245.312C379.144 245.246 379.072 245.246 379.015 245.209C378.953 245.177 378.903 245.128 378.871 245.067C378.861 245.049 378.856 245.029 378.855 245.008C378.854 244.988 378.858 244.967 378.866 244.948C378.875 244.93 378.887 244.913 378.903 244.9C378.919 244.886 378.938 244.877 378.958 244.872" fill="white"/>
<circle cx="198" cy="402" r="5" fill="white"/>
<circle cx="198" cy="402" r="5" fill="url(#paint6_linear_1616_6870)" fill-opacity="0.2"/>
<defs>
<filter id="filter0_d_1616_6870" x="0" y="20" width="508" height="398.113" filterUnits="userSpaceOnUse" color-interpolation-filters="sRGB">
<feFlood flood-opacity="0" result="BackgroundImageFix"/>
<feColorMatrix in="SourceAlpha" type="matrix" values="0 0 0 0 0 0 0 0 0 0 0 0 0 0 0 0 0 0 127 0" result="hardAlpha"/>
<feOffset dy="10"/>
<feGaussianBlur stdDeviation="15"/>
<feColorMatrix type="matrix" values="0 0 0 0 0.0196078 0 0 0 0 0.333333 0 0 0 0 1 0 0 0 0.1 0"/>
<feBlend mode="normal" in2="BackgroundImageFix" result="effect1_dropShadow_1616_6870"/>
<feBlend mode="normal" in="SourceGraphic" in2="effect1_dropShadow_1616_6870" result="shape"/>
</filter>
<filter id="filter1_d_1616_6870" x="346" y="122" width="112" height="162" filterUnits="userSpaceOnUse" color-interpolation-filters="sRGB">
<feFlood flood-opacity="0" result="BackgroundImageFix"/>
<feColorMatrix in="SourceAlpha" type="matrix" values="0 0 0 0 0 0 0 0 0 0 0 0 0 0 0 0 0 0 127 0" result="hardAlpha"/>
<feOffset dy="4"/>
<feGaussianBlur stdDeviation="5"/>
<feComposite in2="hardAlpha" operator="out"/>
<feColorMatrix type="matrix" values="0 0 0 0 0.0196078 0 0 0 0 0.333333 0 0 0 0 1 0 0 0 0.1 0"/>
<feBlend mode="normal" in2="BackgroundImageFix" result="effect1_dropShadow_1616_6870"/>
<feBlend mode="normal" in="SourceGraphic" in2="effect1_dropShadow_1616_6870" result="shape"/>
</filter>
<linearGradient id="paint0_linear_1616_6870" x1="18" y1="215" x2="18" y2="225" gradientUnits="userSpaceOnUse">
<stop stop-color="#0555FF"/>
<stop offset="1" stop-color="#0555FF" stop-opacity="0.21"/>
</linearGradient>
<linearGradient id="paint1_linear_1616_6870" x1="57" y1="96" x2="83" y2="122" gradientUnits="userSpaceOnUse">
<stop stop-color="#0555FF"/>
<stop offset="1" stop-color="#0555FF" stop-opacity="0.21"/>
</linearGradient>
<linearGradient id="paint2_linear_1616_6870" x1="402" y1="128" x2="402" y2="270" gradientUnits="userSpaceOnUse">
<stop stop-color="#0555FF"/>
<stop offset="1" stop-color="#0555FF" stop-opacity="0.6"/>
</linearGradient>
<linearGradient id="paint3_linear_1616_6870" x1="424" y1="148" x2="436" y2="160" gradientUnits="userSpaceOnUse">
<stop stop-color="#0555FF"/>
<stop offset="1" stop-color="#0555FF" stop-opacity="0.21"/>
</linearGradient>
<radialGradient id="paint4_radial_1616_6870" cx="0" cy="0" r="1" gradientUnits="userSpaceOnUse" gradientTransform="translate(394.471 150.941) rotate(22.4589) scale(15.7059 12.2886)">
<stop stop-color="#FD8011"/>
<stop offset="1" stop-color="#FD7F11" stop-opacity="0.2"/>
</radialGradient>
<radialGradient id="paint5_radial_1616_6870" cx="0" cy="0" r="1" gradientUnits="userSpaceOnUse" gradientTransform="translate(370.353 146.353) rotate(47.3373) scale(20.3983 22.5281)">
<stop stop-color="#FD8011"/>
<stop offset="1" stop-color="#FD7F11" stop-opacity="0.2"/>
</radialGradient>
<linearGradient id="paint6_linear_1616_6870" x1="198" y1="397" x2="198" y2="407" gradientUnits="userSpaceOnUse">
<stop stop-color="#0555FF"/>
<stop offset="1" stop-color="#0555FF" stop-opacity="0.21"/>
</linearGradient>
</defs>
</svg>
