<svg width="508" height="440" viewBox="0 0 508 440" fill="none" xmlns="http://www.w3.org/2000/svg">
<rect width="496" height="440" transform="translate(6)" fill="white"/>
<g filter="url(#filter0_d_1616_6932)">
<rect x="30" y="40" width="448" height="338.113" rx="16" fill="white"/>
<rect x="30.5" y="40.5" width="447" height="337.113" rx="15.5" stroke="#F2F6FF"/>
</g>
<rect x="332.409" y="57.4089" width="129.182" height="303.182" rx="10.1572" fill="white"/>
<rect x="332.409" y="57.4089" width="129.182" height="303.182" rx="10.1572" fill="url(#paint0_linear_1616_6932)" fill-opacity="0.06"/>
<rect x="332.409" y="57.4089" width="129.182" height="303.182" rx="10.1572" stroke="#F2F6FF" stroke-width="0.817741"/>
<rect x="348" y="193" width="71" height="9" rx="4.5" fill="white"/>
<path d="M397 95C397 95.0062 397.005 95.0111 397.011 95.0111C408.006 95.0161 417 102.374 417 111.436C417 120.5 408 127.86 397 127.86C396.603 127.875 396.213 127.966 395.85 128.128C393.69 128.97 390.11 131.629 387.6 133.621C387.316 133.852 386.965 133.985 386.6 134C386.366 133.996 386.136 133.944 385.923 133.849C385.709 133.754 385.517 133.617 385.357 133.446C385.029 133.096 384.851 132.632 384.86 132.153C384.86 128.806 384.67 124.412 383.67 123.673C379.57 120.664 377 116.292 377 111.426C377 102.351 385.999 95.0016 396.999 95.0011C396.999 95.0011 397 95.0006 397 95ZM403.5 107.247H390.5C389.671 107.247 389 107.937 389 108.787C389 109.637 389.671 110.327 390.5 110.327H403.5C404.329 110.327 405 109.637 405 108.787C405 107.937 404.329 107.247 403.5 107.247ZM401.5 114.434C401.5 114.434 401.5 114.434 401.499 114.434H392.5C391.671 114.434 391 115.123 391 115.973C391 116.824 391.671 117.513 392.5 117.513H401.5C402.329 117.513 403 116.824 403 115.973C403 115.123 402.329 114.433 401.501 114.433C401.5 114.433 401.5 114.433 401.5 114.434Z" fill="white"/>
<path d="M397 95C397 95.0062 397.005 95.0111 397.011 95.0111C408.006 95.0161 417 102.374 417 111.436C417 120.5 408 127.86 397 127.86C396.603 127.875 396.213 127.966 395.85 128.128C393.69 128.97 390.11 131.629 387.6 133.621C387.316 133.852 386.965 133.985 386.6 134C386.366 133.996 386.136 133.944 385.923 133.849C385.709 133.754 385.517 133.617 385.357 133.446C385.029 133.096 384.851 132.632 384.86 132.153C384.86 128.806 384.67 124.412 383.67 123.673C379.57 120.664 377 116.292 377 111.426C377 102.351 385.999 95.0016 396.999 95.0011C396.999 95.0011 397 95.0006 397 95ZM403.5 107.247H390.5C389.671 107.247 389 107.937 389 108.787C389 109.637 389.671 110.327 390.5 110.327H403.5C404.329 110.327 405 109.637 405 108.787C405 107.937 404.329 107.247 403.5 107.247ZM401.5 114.434C401.5 114.434 401.5 114.434 401.499 114.434H392.5C391.671 114.434 391 115.123 391 115.973C391 116.824 391.671 117.513 392.5 117.513H401.5C402.329 117.513 403 116.824 403 115.973C403 115.123 402.329 114.433 401.501 114.433C401.5 114.433 401.5 114.433 401.5 114.434Z" fill="url(#paint1_linear_1616_6932)" fill-opacity="0.35"/>
<path d="M133.5 311.293C133.224 311.568 132.891 311.705 132.504 311.705C132.116 311.705 131.775 311.568 131.498 311.293C131.212 311.017 131.074 310.687 131.074 310.293C131.074 309.907 131.212 309.566 131.498 309.292C131.775 309.006 132.116 308.869 132.504 308.869C132.891 308.869 133.223 309.006 133.5 309.292C133.787 309.566 133.924 309.907 133.924 310.293C133.924 310.687 133.787 311.017 133.5 311.293ZM131.481 301.856C131.747 301.571 132.09 301.424 132.504 301.424C132.919 301.424 133.261 301.562 133.528 301.856C133.787 302.14 133.924 302.498 133.924 302.93C133.924 303.258 133.483 305.467 133.251 307.348C133.205 307.721 132.891 308.007 132.515 308.007C132.134 308.007 131.818 307.714 131.774 307.335C131.557 305.456 131.074 303.256 131.074 302.93C131.074 302.508 131.212 302.149 131.481 301.856ZM141.61 311.128L134.155 298.184C133.242 296.605 131.756 296.605 130.844 298.184L123.389 311.128C122.477 312.706 123.223 314 125.05 314H139.958C141.776 314 142.523 312.706 141.61 311.128Z" fill="url(#paint2_radial_1616_6932)" fill-opacity="0.4"/>
<g opacity="0.25">
<path d="M172.536 229V220.456H170.976L169.236 221.968V223.648L170.976 222.136V229H172.536ZM180.456 223.024C180.456 221.332 179.304 220.384 177.792 220.384C176.28 220.384 175.128 221.368 175.128 223.048C175.128 224.632 176.232 225.58 177.384 225.58C177.588 225.58 177.816 225.556 178.02 225.472L176.244 229H177.936L179.748 225.304C180.132 224.524 180.456 223.804 180.456 223.024ZM178.896 223.036C178.896 223.828 178.428 224.284 177.792 224.284C177.132 224.284 176.688 223.792 176.688 223.036C176.688 222.244 177.156 221.788 177.792 221.788C178.428 221.788 178.896 222.244 178.896 223.036ZM183.923 225.748V223.972H182.147V225.748H183.923ZM183.923 229V227.224H182.147V229H183.923ZM190.59 226.528V222.928C190.59 221.296 189.39 220.384 187.998 220.384C186.606 220.384 185.394 221.296 185.394 222.928V226.528C185.394 228.16 186.606 229.072 187.998 229.072C189.39 229.072 190.59 228.16 190.59 226.528ZM189.03 226.516C189.03 227.236 188.61 227.668 187.998 227.668C187.386 227.668 186.954 227.236 186.954 226.516V222.952C186.954 222.232 187.386 221.788 187.998 221.788C188.61 221.788 189.03 222.232 189.03 222.952V226.516ZM197.25 226.516C197.25 225.472 196.638 224.908 196.17 224.596C196.602 224.296 197.13 223.732 197.13 222.82C197.13 221.308 195.942 220.384 194.514 220.384C193.086 220.384 191.886 221.308 191.886 222.82C191.886 223.732 192.414 224.296 192.846 224.596C192.378 224.908 191.778 225.472 191.778 226.516C191.778 228.172 193.002 229.072 194.514 229.072C196.026 229.072 197.25 228.172 197.25 226.516ZM195.69 226.492C195.69 227.152 195.174 227.668 194.514 227.668C193.854 227.668 193.338 227.152 193.338 226.492C193.338 225.832 193.854 225.304 194.514 225.304C195.174 225.304 195.69 225.832 195.69 226.492ZM195.57 222.868C195.57 223.492 195.126 223.948 194.514 223.948C193.902 223.948 193.446 223.492 193.446 222.868C193.446 222.256 193.902 221.788 194.514 221.788C195.126 221.788 195.57 222.256 195.57 222.868Z" fill="white"/>
<path d="M172.536 229V220.456H170.976L169.236 221.968V223.648L170.976 222.136V229H172.536ZM180.456 223.024C180.456 221.332 179.304 220.384 177.792 220.384C176.28 220.384 175.128 221.368 175.128 223.048C175.128 224.632 176.232 225.58 177.384 225.58C177.588 225.58 177.816 225.556 178.02 225.472L176.244 229H177.936L179.748 225.304C180.132 224.524 180.456 223.804 180.456 223.024ZM178.896 223.036C178.896 223.828 178.428 224.284 177.792 224.284C177.132 224.284 176.688 223.792 176.688 223.036C176.688 222.244 177.156 221.788 177.792 221.788C178.428 221.788 178.896 222.244 178.896 223.036ZM183.923 225.748V223.972H182.147V225.748H183.923ZM183.923 229V227.224H182.147V229H183.923ZM190.59 226.528V222.928C190.59 221.296 189.39 220.384 187.998 220.384C186.606 220.384 185.394 221.296 185.394 222.928V226.528C185.394 228.16 186.606 229.072 187.998 229.072C189.39 229.072 190.59 228.16 190.59 226.528ZM189.03 226.516C189.03 227.236 188.61 227.668 187.998 227.668C187.386 227.668 186.954 227.236 186.954 226.516V222.952C186.954 222.232 187.386 221.788 187.998 221.788C188.61 221.788 189.03 222.232 189.03 222.952V226.516ZM197.25 226.516C197.25 225.472 196.638 224.908 196.17 224.596C196.602 224.296 197.13 223.732 197.13 222.82C197.13 221.308 195.942 220.384 194.514 220.384C193.086 220.384 191.886 221.308 191.886 222.82C191.886 223.732 192.414 224.296 192.846 224.596C192.378 224.908 191.778 225.472 191.778 226.516C191.778 228.172 193.002 229.072 194.514 229.072C196.026 229.072 197.25 228.172 197.25 226.516ZM195.69 226.492C195.69 227.152 195.174 227.668 194.514 227.668C193.854 227.668 193.338 227.152 193.338 226.492C193.338 225.832 193.854 225.304 194.514 225.304C195.174 225.304 195.69 225.832 195.69 226.492ZM195.57 222.868C195.57 223.492 195.126 223.948 194.514 223.948C193.902 223.948 193.446 223.492 193.446 222.868C193.446 222.256 193.902 221.788 194.514 221.788C195.126 221.788 195.57 222.256 195.57 222.868Z" fill="#125EFF"/>
</g>
<rect x="122" y="261" width="158" height="9" rx="4.5" fill="#F0F5FF"/>
<rect x="122" y="278" width="101" height="9" rx="4.5" fill="#F0F5FF"/>
<circle cx="301" cy="265" r="12.8445" fill="white" stroke="#E3EBF9" stroke-width="0.311059"/>
<path opacity="0.3" d="M305.285 260.338C304.721 259.752 304.042 259.287 303.289 258.971C302.537 258.655 301.728 258.495 300.911 258.5C300.092 258.491 299.28 258.65 298.526 258.966C297.773 259.282 297.093 259.749 296.529 260.338C295.937 260.9 295.468 261.576 295.151 262.325C294.834 263.074 294.676 263.879 294.686 264.691C294.687 266.023 295.126 267.318 295.934 268.382C296.752 269.503 297.937 270.308 299.287 270.66V272.915C304.532 271.153 307.15 268.412 307.141 264.691C307.145 263.879 306.983 263.074 306.664 262.326C306.345 261.578 305.875 260.901 305.285 260.338Z" fill="#FD8012"/>
<path d="M302.232 266.15L302.255 266.127C302.552 265.955 302.8 265.713 302.979 265.422C303.157 265.13 303.259 264.8 303.276 264.459C303.302 263.308 302.275 262.338 300.978 262.313C299.681 262.288 298.604 263.196 298.578 264.338C298.553 265.479 299.579 266.459 300.876 266.484H301.024C301.171 266.587 301.323 266.681 301.481 266.765C301.724 266.899 301.996 266.971 302.273 266.975C302.528 266.95 302.569 266.791 302.528 266.705C302.487 266.618 302.393 266.618 302.319 266.57C302.239 266.529 302.174 266.465 302.132 266.386C302.12 266.362 302.112 266.336 302.111 266.309C302.11 266.283 302.115 266.256 302.126 266.232C302.137 266.207 302.153 266.186 302.174 266.168C302.194 266.151 302.219 266.139 302.245 266.132" fill="white"/>
<line opacity="0.3" x1="53.4351" y1="137.565" x2="313.565" y2="137.565" stroke="#869BB9" stroke-width="0.870144" stroke-linecap="round" stroke-dasharray="1.74 2.61"/>
<rect x="87" y="104" width="37" height="10" rx="5" fill="#F0F5FF"/>
<circle cx="66" cy="109" r="13" fill="white"/>
<circle cx="66" cy="109" r="13" fill="url(#paint3_linear_1616_6932)" fill-opacity="0.3"/>
<rect x="53" y="163" width="222" height="9" rx="4.5" fill="#F0F5FF"/>
<rect x="146" y="301" width="44" height="9" rx="4.5" fill="url(#paint4_radial_1616_6932)" fill-opacity="0.4"/>
<rect x="53" y="180" width="138" height="9" rx="4.5" fill="#F0F5FF"/>
<circle cx="55.7871" cy="65.5391" r="5" fill="#1561FF"/>
<circle cx="69.7871" cy="65.5391" r="5" fill="#FD8113"/>
<circle cx="83.7871" cy="65.5391" r="5" fill="#0CE18F"/>
<rect x="348" y="164" width="98" height="9" rx="4.5" fill="white"/>
<rect x="348" y="222" width="98" height="9" rx="4.5" fill="white"/>
<rect x="422" y="11" width="15" height="15" rx="7.5" fill="white"/>
<rect x="422" y="11" width="15" height="15" rx="7.5" fill="url(#paint5_linear_1616_6932)" fill-opacity="0.2"/>
<rect x="14" y="214" width="12" height="12" rx="6" fill="white"/>
<rect x="14" y="214" width="12" height="12" rx="6" fill="url(#paint6_linear_1616_6932)" fill-opacity="0.2"/>
<circle cx="226" cy="418" r="6" fill="url(#paint7_linear_1616_6932)" fill-opacity="0.2"/>
<defs>
<filter id="filter0_d_1616_6932" x="0" y="20" width="508" height="398.113" filterUnits="userSpaceOnUse" color-interpolation-filters="sRGB">
<feFlood flood-opacity="0" result="BackgroundImageFix"/>
<feColorMatrix in="SourceAlpha" type="matrix" values="0 0 0 0 0 0 0 0 0 0 0 0 0 0 0 0 0 0 127 0" result="hardAlpha"/>
<feOffset dy="10"/>
<feGaussianBlur stdDeviation="15"/>
<feColorMatrix type="matrix" values="0 0 0 0 0.0196078 0 0 0 0 0.333333 0 0 0 0 1 0 0 0 0.1 0"/>
<feBlend mode="normal" in2="BackgroundImageFix" result="effect1_dropShadow_1616_6932"/>
<feBlend mode="normal" in="SourceGraphic" in2="effect1_dropShadow_1616_6932" result="shape"/>
</filter>
<linearGradient id="paint0_linear_1616_6932" x1="397" y1="57" x2="397" y2="361" gradientUnits="userSpaceOnUse">
<stop stop-color="#0555FF"/>
<stop offset="1" stop-color="#0555FF" stop-opacity="0.6"/>
</linearGradient>
<linearGradient id="paint1_linear_1616_6932" x1="377" y1="95" x2="415.988" y2="134.987" gradientUnits="userSpaceOnUse">
<stop stop-color="#0555FF"/>
<stop offset="1" stop-color="#0555FF" stop-opacity="0.21"/>
</linearGradient>
<radialGradient id="paint2_radial_1616_6932" cx="0" cy="0" r="1" gradientUnits="userSpaceOnUse" gradientTransform="translate(127.75 298.417) rotate(59.8096) scale(17.0922 18.1396)">
<stop stop-color="#FF5656"/>
<stop offset="1" stop-color="#FF9061"/>
</radialGradient>
<linearGradient id="paint3_linear_1616_6932" x1="53" y1="96" x2="79" y2="122" gradientUnits="userSpaceOnUse">
<stop stop-color="#0555FF"/>
<stop offset="1" stop-color="#0555FF" stop-opacity="0.21"/>
</linearGradient>
<radialGradient id="paint4_radial_1616_6932" cx="0" cy="0" r="1" gradientUnits="userSpaceOnUse" gradientTransform="translate(157 301.75) rotate(21.452) scale(21.3863 17.7739)">
<stop stop-color="#FF5656"/>
<stop offset="1" stop-color="#FF9061"/>
</radialGradient>
<linearGradient id="paint5_linear_1616_6932" x1="429.5" y1="11" x2="429.5" y2="26" gradientUnits="userSpaceOnUse">
<stop stop-color="#0555FF"/>
<stop offset="1" stop-color="#0555FF" stop-opacity="0.21"/>
</linearGradient>
<linearGradient id="paint6_linear_1616_6932" x1="20" y1="214" x2="20" y2="226" gradientUnits="userSpaceOnUse">
<stop stop-color="#0555FF"/>
<stop offset="1" stop-color="#0555FF" stop-opacity="0.21"/>
</linearGradient>
<linearGradient id="paint7_linear_1616_6932" x1="226" y1="412" x2="226" y2="424" gradientUnits="userSpaceOnUse">
<stop stop-color="#0555FF"/>
<stop offset="1" stop-color="#0555FF" stop-opacity="0.21"/>
</linearGradient>
</defs>
</svg>
