<svg width="508" height="440" viewBox="0 0 508 440" fill="none" xmlns="http://www.w3.org/2000/svg">
<rect width="496" height="440" transform="translate(6)" fill="white"/>
<rect x="13" y="215" width="10" height="10" rx="5" fill="white"/>
<rect x="13" y="215" width="10" height="10" rx="5" fill="url(#paint0_linear_1616_6967)" fill-opacity="0.2"/>
<rect x="382" y="31" width="14" height="14" rx="7" fill="white"/>
<rect x="382" y="31" width="14" height="14" rx="7" fill="url(#paint1_linear_1616_6967)" fill-opacity="0.2"/>
<g filter="url(#filter0_d_1616_6967)">
<rect x="30" y="40" width="448" height="338.113" rx="16" fill="white"/>
<rect x="30.5" y="40.5" width="447" height="337.113" rx="15.5" stroke="#F2F6FF"/>
</g>
<path d="M92.4751 233H87.5768C87.3167 233 87.1 233.173 87.0133 233.433L85.4961 236.333C85.4961 236.333 88.7472 236.549 90.6111 238.324L92.8652 233.909C92.9519 233.822 92.9953 233.693 92.9953 233.606C93.0386 233.26 92.7785 233 92.4751 233ZM84.5425 236.376L83.0253 233.476C82.9386 233.216 82.7652 233.043 82.5051 233.043H77.5635C77.2601 233.043 77 233.303 77 233.606C77 233.736 77.0433 233.866 77.13 233.909L79.3841 238.324C81.2914 236.506 84.5425 236.333 84.5425 236.376ZM85.0626 237.502C80.7712 237.588 77.3901 241.138 77.4768 245.423C77.5635 249.709 81.118 253.085 85.4094 252.998C89.6575 252.912 92.9953 249.492 92.9953 245.25C92.9519 240.921 89.3974 237.459 85.0626 237.502ZM87.1433 248.583H82.5918V248.237C82.5918 247.891 82.6352 247.501 82.7652 247.155C82.8953 246.852 83.0687 246.549 83.3287 246.332C83.6755 245.986 84.109 245.596 84.5858 245.337C85.0193 245.077 85.4094 244.687 85.7562 244.298C85.9729 243.995 86.0596 243.605 86.0596 243.259C86.0596 242.913 85.9296 242.566 85.7129 242.35C85.4528 242.09 85.0626 242.004 84.7159 242.047C84.4124 242.047 84.0657 242.133 83.8056 242.307C83.5021 242.48 83.1987 242.696 82.982 242.956V242.09C83.2421 241.83 83.5021 241.657 83.7622 241.527C84.0657 241.398 84.4558 241.311 84.8459 241.311C85.4094 241.268 86.0163 241.484 86.4498 241.83C86.8399 242.177 87.1 242.696 87.0566 243.259C87.0566 243.735 86.9266 244.211 86.7099 244.644C86.4064 245.12 85.9296 245.51 85.4528 245.856C84.8459 246.289 84.4558 246.592 84.239 246.765C84.0657 246.938 83.9356 247.068 83.8056 247.285C83.7189 247.501 83.6755 247.674 83.6755 247.891H87.2734V248.67H87.1433V248.583Z" fill="white"/>
<path d="M92.4751 233H87.5768C87.3167 233 87.1 233.173 87.0133 233.433L85.4961 236.333C85.4961 236.333 88.7472 236.549 90.6111 238.324L92.8652 233.909C92.9519 233.822 92.9953 233.693 92.9953 233.606C93.0386 233.26 92.7785 233 92.4751 233ZM84.5425 236.376L83.0253 233.476C82.9386 233.216 82.7652 233.043 82.5051 233.043H77.5635C77.2601 233.043 77 233.303 77 233.606C77 233.736 77.0433 233.866 77.13 233.909L79.3841 238.324C81.2914 236.506 84.5425 236.333 84.5425 236.376ZM85.0626 237.502C80.7712 237.588 77.3901 241.138 77.4768 245.423C77.5635 249.709 81.118 253.085 85.4094 252.998C89.6575 252.912 92.9953 249.492 92.9953 245.25C92.9519 240.921 89.3974 237.459 85.0626 237.502ZM87.1433 248.583H82.5918V248.237C82.5918 247.891 82.6352 247.501 82.7652 247.155C82.8953 246.852 83.0687 246.549 83.3287 246.332C83.6755 245.986 84.109 245.596 84.5858 245.337C85.0193 245.077 85.4094 244.687 85.7562 244.298C85.9729 243.995 86.0596 243.605 86.0596 243.259C86.0596 242.913 85.9296 242.566 85.7129 242.35C85.4528 242.09 85.0626 242.004 84.7159 242.047C84.4124 242.047 84.0657 242.133 83.8056 242.307C83.5021 242.48 83.1987 242.696 82.982 242.956V242.09C83.2421 241.83 83.5021 241.657 83.7622 241.527C84.0657 241.398 84.4558 241.311 84.8459 241.311C85.4094 241.268 86.0163 241.484 86.4498 241.83C86.8399 242.177 87.1 242.696 87.0566 243.259C87.0566 243.735 86.9266 244.211 86.7099 244.644C86.4064 245.12 85.9296 245.51 85.4528 245.856C84.8459 246.289 84.4558 246.592 84.239 246.765C84.0657 246.938 83.9356 247.068 83.8056 247.285C83.7189 247.501 83.6755 247.674 83.6755 247.891H87.2734V248.67H87.1433V248.583Z" fill="url(#paint2_linear_1616_6967)" fill-opacity="0.4"/>
<circle cx="68.812" cy="78.8125" r="5" fill="#1561FF"/>
<circle cx="82.812" cy="78.8125" r="5" fill="#FD8113"/>
<circle cx="96.812" cy="78.8125" r="5" fill="#0CE18F"/>
<line opacity="0.3" x1="54.4351" y1="163.565" x2="452.565" y2="163.565" stroke="#869BB9" stroke-width="0.870144" stroke-linecap="round" stroke-dasharray="1.74 2.61"/>
<circle cx="85" cy="334" r="10" fill="white"/>
<circle cx="85" cy="334" r="10" fill="url(#paint3_linear_1616_6967)" fill-opacity="0.3"/>
<path opacity="0.5" d="M92.4468 278H87.5532C87.2979 278 87.0851 278.17 87 278.425L85.4681 281.354C85.4681 281.354 88.7021 281.567 90.617 283.35L92.8723 278.892C92.9574 278.807 93 278.679 93 278.552C93 278.212 92.7872 278 92.4468 278ZM84.5319 281.354L83 278.425C82.9149 278.17 82.7021 278 82.4894 278H77.5532C77.2128 278 77 278.212 77 278.552C77 278.679 77.0426 278.807 77.1277 278.892L79.3404 283.307C81.2553 281.482 84.5319 281.312 84.5319 281.354ZM85.0426 282.458C80.7447 282.543 77.3404 286.11 77.4255 290.398C77.5106 294.687 81.0851 298.083 85.383 297.998C89.6383 297.914 93 294.474 93 290.228C92.9149 285.897 89.383 282.416 85.0426 282.458ZM86.1915 293.116C85.6809 293.54 85 293.752 84.3191 293.71C83.766 293.752 83.1702 293.583 82.617 293.328V292.394C83.0851 292.776 83.6809 292.988 84.3191 292.946C84.7447 292.988 85.1702 292.818 85.5106 292.606C85.8085 292.351 85.9362 292.012 85.9362 291.587C85.9362 290.653 85.2553 290.228 83.9787 290.228H83.383V289.464H83.9787C85.1277 289.464 85.7234 289.039 85.7234 288.19C85.7234 287.384 85.2979 287.001 84.4043 287.001C83.8936 287.001 83.383 287.214 82.9574 287.511V286.619C83.4681 286.322 84.0213 286.195 84.6596 286.237C85.2128 286.195 85.7234 286.407 86.1489 286.704C86.4894 287.044 86.7021 287.468 86.7021 287.936C86.7447 288.827 86.1489 289.634 85.2553 289.761V289.804C85.7234 289.846 86.1915 290.059 86.4894 290.356C86.8298 290.695 86.9574 291.078 86.9149 291.502C86.9149 292.139 86.7021 292.691 86.1915 293.116Z" fill="url(#paint4_linear_1616_6967)"/>
<path d="M92.4862 186H87.5646C87.31 186 87.0979 186.169 87.013 186.424L85.4856 189.347C85.4856 189.347 88.7101 189.559 90.6194 191.339L92.8681 186.89C92.9529 186.805 92.9954 186.678 92.9954 186.551C93.0378 186.254 92.7832 186 92.4862 186ZM84.5522 189.347L83.0248 186.424C82.9399 186.169 82.7278 186 82.5156 186H77.5516C77.2546 186 77 186.254 77 186.551C77 186.678 77.0424 186.805 77.1273 186.89L79.376 191.339C81.2852 189.517 84.5522 189.305 84.5522 189.347ZM85.0613 190.491C80.7761 190.576 77.3819 194.135 77.4667 198.414C77.5516 202.694 81.1155 206.083 85.4007 205.998C89.6435 205.914 92.9954 202.482 92.9954 198.245C92.9529 193.923 89.389 190.449 85.0613 190.491ZM85.6129 201.592H84.6795V195.406C84.4673 195.618 84.2128 195.745 83.9582 195.872C83.6188 196.042 83.3218 196.169 82.9823 196.211V195.279C83.4066 195.152 83.8309 194.982 84.2128 194.771C84.5522 194.559 84.8916 194.389 85.231 194.135H85.5705C85.6129 194.177 85.6129 201.592 85.6129 201.592Z" fill="url(#paint5_radial_1616_6967)" fill-opacity="0.5"/>
<rect x="107" y="192" width="39.0943" height="9" rx="4.5" fill="#F0F5FF"/>
<rect x="107" y="238" width="29" height="9" rx="4.5" fill="#F0F5FF"/>
<rect x="107" y="284" width="39.0943" height="9" rx="4.5" fill="#F0F5FF"/>
<rect x="107" y="330" width="49" height="9" rx="4.5" fill="#F0F5FF"/>
<rect x="64" y="131" width="39.0943" height="10" rx="5" fill="#F0F5FF"/>
<g opacity="0.28">
<path d="M70.048 123V111.608H67.968L65.648 113.624V115.864L67.968 113.848V123H70.048ZM76.1595 123V120.632H73.7755V123H76.1595ZM85.122 123V121.128H80.722L83.906 117.432C84.69 116.52 85.122 115.928 85.122 114.824C85.122 112.776 83.682 111.512 81.666 111.512C79.714 111.512 78.194 112.76 78.194 114.84H80.274C80.274 113.736 80.978 113.384 81.666 113.384C82.546 113.384 83.042 113.96 83.042 114.808C83.042 115.336 82.866 115.688 82.45 116.184L78.194 121.128V123H85.122ZM93.8575 119.704C93.8575 118.328 93.2015 117.544 92.3855 117.112C93.1375 116.712 93.6975 116.008 93.6975 114.776C93.6975 112.856 92.2415 111.512 90.2255 111.512C88.3055 111.512 86.7855 112.728 86.7375 114.76H88.8175C88.8655 113.896 89.4415 113.384 90.2255 113.384C90.9775 113.384 91.6175 113.88 91.6175 114.84C91.6175 115.64 91.1855 116.264 90.1775 116.264H89.8735V118.072H90.1775C91.2015 118.072 91.7775 118.696 91.7775 119.64C91.7775 120.664 91.1375 121.224 90.2415 121.224C89.4255 121.224 88.7215 120.76 88.6895 119.736H86.6095C86.6415 122.12 88.3855 123.096 90.2415 123.096C92.1935 123.096 93.8575 121.976 93.8575 119.704ZM102.657 123V117.608C102.657 115.848 101.697 114.568 99.873 114.568C99.137 114.568 98.433 114.856 97.873 115.432V111.608H95.793V123H97.873V117.912C97.873 116.824 98.561 116.44 99.217 116.44C99.873 116.44 100.577 116.808 100.577 117.912V123H102.657Z" fill="white"/>
<path d="M70.048 123V111.608H67.968L65.648 113.624V115.864L67.968 113.848V123H70.048ZM76.1595 123V120.632H73.7755V123H76.1595ZM85.122 123V121.128H80.722L83.906 117.432C84.69 116.52 85.122 115.928 85.122 114.824C85.122 112.776 83.682 111.512 81.666 111.512C79.714 111.512 78.194 112.76 78.194 114.84H80.274C80.274 113.736 80.978 113.384 81.666 113.384C82.546 113.384 83.042 113.96 83.042 114.808C83.042 115.336 82.866 115.688 82.45 116.184L78.194 121.128V123H85.122ZM93.8575 119.704C93.8575 118.328 93.2015 117.544 92.3855 117.112C93.1375 116.712 93.6975 116.008 93.6975 114.776C93.6975 112.856 92.2415 111.512 90.2255 111.512C88.3055 111.512 86.7855 112.728 86.7375 114.76H88.8175C88.8655 113.896 89.4415 113.384 90.2255 113.384C90.9775 113.384 91.6175 113.88 91.6175 114.84C91.6175 115.64 91.1855 116.264 90.1775 116.264H89.8735V118.072H90.1775C91.2015 118.072 91.7775 118.696 91.7775 119.64C91.7775 120.664 91.1375 121.224 90.2415 121.224C89.4255 121.224 88.7215 120.76 88.6895 119.736H86.6095C86.6415 122.12 88.3855 123.096 90.2415 123.096C92.1935 123.096 93.8575 121.976 93.8575 119.704ZM102.657 123V117.608C102.657 115.848 101.697 114.568 99.873 114.568C99.137 114.568 98.433 114.856 97.873 115.432V111.608H95.793V123H97.873V117.912C97.873 116.824 98.561 116.44 99.217 116.44C99.873 116.44 100.577 116.808 100.577 117.912V123H102.657Z" fill="#125EFF"/>
</g>
<g opacity="0.24">
<path d="M200.158 291V283.168H198.728L197.133 284.554V286.094L198.728 284.708V291H200.158ZM207.495 291V287.293C207.495 286.083 206.835 285.203 205.581 285.203C205.075 285.203 204.591 285.401 204.206 285.797V283.168H202.776V291H204.206V287.502C204.206 286.754 204.679 286.49 205.13 286.49C205.581 286.49 206.065 286.743 206.065 287.502V291H207.495Z" fill="white"/>
<path d="M200.158 291V283.168H198.728L197.133 284.554V286.094L198.728 284.708V291H200.158ZM207.495 291V287.293C207.495 286.083 206.835 285.203 205.581 285.203C205.075 285.203 204.591 285.401 204.206 285.797V283.168H202.776V291H204.206V287.502C204.206 286.754 204.679 286.49 205.13 286.49C205.581 286.49 206.065 286.743 206.065 287.502V291H207.495Z" fill="#125EFF"/>
</g>
<g opacity="0.24">
<path d="M276.412 199V197.713H273.387L275.576 195.172C276.115 194.545 276.412 194.138 276.412 193.379C276.412 191.971 275.422 191.102 274.036 191.102C272.694 191.102 271.649 191.96 271.649 193.39H273.079C273.079 192.631 273.563 192.389 274.036 192.389C274.641 192.389 274.982 192.785 274.982 193.368C274.982 193.731 274.861 193.973 274.575 194.314L271.649 197.713V199H276.412ZM282.418 196.734C282.418 195.788 281.967 195.249 281.406 194.952C281.923 194.677 282.308 194.193 282.308 193.346C282.308 192.026 281.307 191.102 279.921 191.102C278.601 191.102 277.556 191.938 277.523 193.335H278.953C278.986 192.741 279.382 192.389 279.921 192.389C280.438 192.389 280.878 192.73 280.878 193.39C280.878 193.94 280.581 194.369 279.888 194.369H279.679V195.612H279.888C280.592 195.612 280.988 196.041 280.988 196.69C280.988 197.394 280.548 197.779 279.932 197.779C279.371 197.779 278.887 197.46 278.865 196.756H277.435C277.457 198.395 278.656 199.066 279.932 199.066C281.274 199.066 282.418 198.296 282.418 196.734ZM291.701 197.559V196.47C291.701 195.48 290.964 194.963 290.106 194.963C289.237 194.963 288.511 195.48 288.511 196.47V197.559C288.511 198.549 289.237 199.066 290.106 199.066C290.964 199.066 291.701 198.549 291.701 197.559ZM286.707 193.698V192.609C286.707 191.619 285.97 191.102 285.112 191.102C284.243 191.102 283.517 191.619 283.517 192.609V193.698C283.517 194.688 284.243 195.205 285.112 195.205C285.97 195.205 286.707 194.688 286.707 193.698ZM290.029 191.168H288.907L285.2 199H286.322L290.029 191.168ZM290.667 197.515C290.667 197.933 290.458 198.142 290.106 198.142C289.743 198.142 289.545 197.933 289.545 197.515V196.514C289.545 196.096 289.743 195.887 290.106 195.887C290.458 195.887 290.667 196.096 290.667 196.514V197.515ZM285.673 193.654C285.673 194.072 285.464 194.281 285.112 194.281C284.76 194.281 284.551 194.072 284.551 193.654V192.653C284.551 192.235 284.749 192.026 285.112 192.026C285.464 192.026 285.673 192.235 285.673 192.653V193.654Z" fill="white"/>
<path d="M276.412 199V197.713H273.387L275.576 195.172C276.115 194.545 276.412 194.138 276.412 193.379C276.412 191.971 275.422 191.102 274.036 191.102C272.694 191.102 271.649 191.96 271.649 193.39H273.079C273.079 192.631 273.563 192.389 274.036 192.389C274.641 192.389 274.982 192.785 274.982 193.368C274.982 193.731 274.861 193.973 274.575 194.314L271.649 197.713V199H276.412ZM282.418 196.734C282.418 195.788 281.967 195.249 281.406 194.952C281.923 194.677 282.308 194.193 282.308 193.346C282.308 192.026 281.307 191.102 279.921 191.102C278.601 191.102 277.556 191.938 277.523 193.335H278.953C278.986 192.741 279.382 192.389 279.921 192.389C280.438 192.389 280.878 192.73 280.878 193.39C280.878 193.94 280.581 194.369 279.888 194.369H279.679V195.612H279.888C280.592 195.612 280.988 196.041 280.988 196.69C280.988 197.394 280.548 197.779 279.932 197.779C279.371 197.779 278.887 197.46 278.865 196.756H277.435C277.457 198.395 278.656 199.066 279.932 199.066C281.274 199.066 282.418 198.296 282.418 196.734ZM291.701 197.559V196.47C291.701 195.48 290.964 194.963 290.106 194.963C289.237 194.963 288.511 195.48 288.511 196.47V197.559C288.511 198.549 289.237 199.066 290.106 199.066C290.964 199.066 291.701 198.549 291.701 197.559ZM286.707 193.698V192.609C286.707 191.619 285.97 191.102 285.112 191.102C284.243 191.102 283.517 191.619 283.517 192.609V193.698C283.517 194.688 284.243 195.205 285.112 195.205C285.97 195.205 286.707 194.688 286.707 193.698ZM290.029 191.168H288.907L285.2 199H286.322L290.029 191.168ZM290.667 197.515C290.667 197.933 290.458 198.142 290.106 198.142C289.743 198.142 289.545 197.933 289.545 197.515V196.514C289.545 196.096 289.743 195.887 290.106 195.887C290.458 195.887 290.667 196.096 290.667 196.514V197.515ZM285.673 193.654C285.673 194.072 285.464 194.281 285.112 194.281C284.76 194.281 284.551 194.072 284.551 193.654V192.653C284.551 192.235 284.749 192.026 285.112 192.026C285.464 192.026 285.673 192.235 285.673 192.653V193.654Z" fill="#125EFF"/>
</g>
<g opacity="0.24">
<path d="M360.412 291V289.713H357.387L359.576 287.172C360.115 286.545 360.412 286.138 360.412 285.379C360.412 283.971 359.422 283.102 358.036 283.102C356.694 283.102 355.649 283.96 355.649 285.39H357.079C357.079 284.631 357.563 284.389 358.036 284.389C358.641 284.389 358.982 284.785 358.982 285.368C358.982 285.731 358.861 285.973 358.575 286.314L355.649 289.713V291H360.412ZM366.495 291V287.293C366.495 286.083 365.835 285.203 364.581 285.203C364.075 285.203 363.591 285.401 363.206 285.797V283.168H361.776V291H363.206V287.502C363.206 286.754 363.679 286.49 364.13 286.49C364.581 286.49 365.065 286.743 365.065 287.502V291H366.495Z" fill="white"/>
<path d="M360.412 291V289.713H357.387L359.576 287.172C360.115 286.545 360.412 286.138 360.412 285.379C360.412 283.971 359.422 283.102 358.036 283.102C356.694 283.102 355.649 283.96 355.649 285.39H357.079C357.079 284.631 357.563 284.389 358.036 284.389C358.641 284.389 358.982 284.785 358.982 285.368C358.982 285.731 358.861 285.973 358.575 286.314L355.649 289.713V291H360.412ZM366.495 291V287.293C366.495 286.083 365.835 285.203 364.581 285.203C364.075 285.203 363.591 285.401 363.206 285.797V283.168H361.776V291H363.206V287.502C363.206 286.754 363.679 286.49 364.13 286.49C364.581 286.49 365.065 286.743 365.065 287.502V291H366.495Z" fill="#125EFF"/>
</g>
<g opacity="0.24">
<path d="M432.368 196.734V193.434C432.368 191.938 431.268 191.102 429.992 191.102C428.716 191.102 427.605 191.938 427.605 193.434V196.734C427.605 198.23 428.716 199.066 429.992 199.066C431.268 199.066 432.368 198.23 432.368 196.734ZM430.938 196.723C430.938 197.383 430.553 197.779 429.992 197.779C429.431 197.779 429.035 197.383 429.035 196.723V193.456C429.035 192.796 429.431 192.389 429.992 192.389C430.553 192.389 430.938 192.796 430.938 193.456V196.723Z" fill="white"/>
<path d="M432.368 196.734V193.434C432.368 191.938 431.268 191.102 429.992 191.102C428.716 191.102 427.605 191.938 427.605 193.434V196.734C427.605 198.23 428.716 199.066 429.992 199.066C431.268 199.066 432.368 198.23 432.368 196.734ZM430.938 196.723C430.938 197.383 430.553 197.779 429.992 197.779C429.431 197.779 429.035 197.383 429.035 196.723V193.456C429.035 192.796 429.431 192.389 429.992 192.389C430.553 192.389 430.938 192.796 430.938 193.456V196.723Z" fill="#125EFF"/>
</g>
<g opacity="0.24">
<path d="M192.412 245V243.713H189.387L191.576 241.172C192.115 240.545 192.412 240.138 192.412 239.379C192.412 237.971 191.422 237.102 190.036 237.102C188.694 237.102 187.649 237.96 187.649 239.39H189.079C189.079 238.631 189.563 238.389 190.036 238.389C190.641 238.389 190.982 238.785 190.982 239.368C190.982 239.731 190.861 239.973 190.575 240.314L187.649 243.713V245H192.412ZM198.418 242.734C198.418 241.788 197.967 241.249 197.406 240.952C197.923 240.677 198.308 240.193 198.308 239.346C198.308 238.026 197.307 237.102 195.921 237.102C194.601 237.102 193.556 237.938 193.523 239.335H194.953C194.986 238.741 195.382 238.389 195.921 238.389C196.438 238.389 196.878 238.73 196.878 239.39C196.878 239.94 196.581 240.369 195.888 240.369H195.679V241.612H195.888C196.592 241.612 196.988 242.041 196.988 242.69C196.988 243.394 196.548 243.779 195.932 243.779C195.371 243.779 194.887 243.46 194.865 242.756H193.435C193.457 244.395 194.656 245.066 195.932 245.066C197.274 245.066 198.418 244.296 198.418 242.734ZM207.844 245V241.337C207.844 240.71 207.679 240.171 207.217 239.709C206.898 239.39 206.381 239.203 205.809 239.203C205.094 239.203 204.577 239.423 204.093 239.929C203.73 239.434 203.213 239.203 202.575 239.203C202.047 239.203 201.519 239.412 201.145 239.797V239.269H199.748V245H201.178V241.535C201.178 240.754 201.684 240.49 202.135 240.49C202.586 240.49 203.081 240.754 203.081 241.535V245H204.511V241.502C204.511 240.754 205.028 240.49 205.468 240.49C205.919 240.49 206.414 240.754 206.414 241.535V245H207.844ZM210.814 245V239.269H209.384V245H210.814ZM210.825 238.29V237.124H209.362V238.29H210.825ZM217.176 245V241.337C217.176 240.71 217.055 240.171 216.593 239.709C216.274 239.39 215.812 239.203 215.24 239.203C214.712 239.203 214.184 239.401 213.81 239.797V239.269H212.413V245H213.843V241.535C213.843 240.754 214.349 240.49 214.8 240.49C215.251 240.49 215.746 240.754 215.746 241.535V245H217.176Z" fill="white"/>
<path d="M192.412 245V243.713H189.387L191.576 241.172C192.115 240.545 192.412 240.138 192.412 239.379C192.412 237.971 191.422 237.102 190.036 237.102C188.694 237.102 187.649 237.96 187.649 239.39H189.079C189.079 238.631 189.563 238.389 190.036 238.389C190.641 238.389 190.982 238.785 190.982 239.368C190.982 239.731 190.861 239.973 190.575 240.314L187.649 243.713V245H192.412ZM198.418 242.734C198.418 241.788 197.967 241.249 197.406 240.952C197.923 240.677 198.308 240.193 198.308 239.346C198.308 238.026 197.307 237.102 195.921 237.102C194.601 237.102 193.556 237.938 193.523 239.335H194.953C194.986 238.741 195.382 238.389 195.921 238.389C196.438 238.389 196.878 238.73 196.878 239.39C196.878 239.94 196.581 240.369 195.888 240.369H195.679V241.612H195.888C196.592 241.612 196.988 242.041 196.988 242.69C196.988 243.394 196.548 243.779 195.932 243.779C195.371 243.779 194.887 243.46 194.865 242.756H193.435C193.457 244.395 194.656 245.066 195.932 245.066C197.274 245.066 198.418 244.296 198.418 242.734ZM207.844 245V241.337C207.844 240.71 207.679 240.171 207.217 239.709C206.898 239.39 206.381 239.203 205.809 239.203C205.094 239.203 204.577 239.423 204.093 239.929C203.73 239.434 203.213 239.203 202.575 239.203C202.047 239.203 201.519 239.412 201.145 239.797V239.269H199.748V245H201.178V241.535C201.178 240.754 201.684 240.49 202.135 240.49C202.586 240.49 203.081 240.754 203.081 241.535V245H204.511V241.502C204.511 240.754 205.028 240.49 205.468 240.49C205.919 240.49 206.414 240.754 206.414 241.535V245H207.844ZM210.814 245V239.269H209.384V245H210.814ZM210.825 238.29V237.124H209.362V238.29H210.825ZM217.176 245V241.337C217.176 240.71 217.055 240.171 216.593 239.709C216.274 239.39 215.812 239.203 215.24 239.203C214.712 239.203 214.184 239.401 213.81 239.797V239.269H212.413V245H213.843V241.535C213.843 240.754 214.349 240.49 214.8 240.49C215.251 240.49 215.746 240.754 215.746 241.535V245H217.176Z" fill="#125EFF"/>
</g>
<g opacity="0.24">
<path d="M276.412 245V243.713H273.387L275.576 241.172C276.115 240.545 276.412 240.138 276.412 239.379C276.412 237.971 275.422 237.102 274.036 237.102C272.694 237.102 271.649 237.96 271.649 239.39H273.079C273.079 238.631 273.563 238.389 274.036 238.389C274.641 238.389 274.982 238.785 274.982 239.368C274.982 239.731 274.861 239.973 274.575 240.314L271.649 243.713V245H276.412ZM282.418 239.522C282.418 237.971 281.362 237.102 279.976 237.102C278.59 237.102 277.534 238.004 277.534 239.544C277.534 240.996 278.546 241.865 279.602 241.865C279.789 241.865 279.998 241.843 280.185 241.766L278.557 245H280.108L281.769 241.612C282.121 240.897 282.418 240.237 282.418 239.522ZM280.988 239.533C280.988 240.259 280.559 240.677 279.976 240.677C279.371 240.677 278.964 240.226 278.964 239.533C278.964 238.807 279.393 238.389 279.976 238.389C280.559 238.389 280.988 238.807 280.988 239.533ZM291.701 243.559V242.47C291.701 241.48 290.964 240.963 290.106 240.963C289.237 240.963 288.511 241.48 288.511 242.47V243.559C288.511 244.549 289.237 245.066 290.106 245.066C290.964 245.066 291.701 244.549 291.701 243.559ZM286.707 239.698V238.609C286.707 237.619 285.97 237.102 285.112 237.102C284.243 237.102 283.517 237.619 283.517 238.609V239.698C283.517 240.688 284.243 241.205 285.112 241.205C285.97 241.205 286.707 240.688 286.707 239.698ZM290.029 237.168H288.907L285.2 245H286.322L290.029 237.168ZM290.667 243.515C290.667 243.933 290.458 244.142 290.106 244.142C289.743 244.142 289.545 243.933 289.545 243.515V242.514C289.545 242.096 289.743 241.887 290.106 241.887C290.458 241.887 290.667 242.096 290.667 242.514V243.515ZM285.673 239.654C285.673 240.072 285.464 240.281 285.112 240.281C284.76 240.281 284.551 240.072 284.551 239.654V238.653C284.551 238.235 284.749 238.026 285.112 238.026C285.464 238.026 285.673 238.235 285.673 238.653V239.654Z" fill="white"/>
<path d="M276.412 245V243.713H273.387L275.576 241.172C276.115 240.545 276.412 240.138 276.412 239.379C276.412 237.971 275.422 237.102 274.036 237.102C272.694 237.102 271.649 237.96 271.649 239.39H273.079C273.079 238.631 273.563 238.389 274.036 238.389C274.641 238.389 274.982 238.785 274.982 239.368C274.982 239.731 274.861 239.973 274.575 240.314L271.649 243.713V245H276.412ZM282.418 239.522C282.418 237.971 281.362 237.102 279.976 237.102C278.59 237.102 277.534 238.004 277.534 239.544C277.534 240.996 278.546 241.865 279.602 241.865C279.789 241.865 279.998 241.843 280.185 241.766L278.557 245H280.108L281.769 241.612C282.121 240.897 282.418 240.237 282.418 239.522ZM280.988 239.533C280.988 240.259 280.559 240.677 279.976 240.677C279.371 240.677 278.964 240.226 278.964 239.533C278.964 238.807 279.393 238.389 279.976 238.389C280.559 238.389 280.988 238.807 280.988 239.533ZM291.701 243.559V242.47C291.701 241.48 290.964 240.963 290.106 240.963C289.237 240.963 288.511 241.48 288.511 242.47V243.559C288.511 244.549 289.237 245.066 290.106 245.066C290.964 245.066 291.701 244.549 291.701 243.559ZM286.707 239.698V238.609C286.707 237.619 285.97 237.102 285.112 237.102C284.243 237.102 283.517 237.619 283.517 238.609V239.698C283.517 240.688 284.243 241.205 285.112 241.205C285.97 241.205 286.707 240.688 286.707 239.698ZM290.029 237.168H288.907L285.2 245H286.322L290.029 237.168ZM290.667 243.515C290.667 243.933 290.458 244.142 290.106 244.142C289.743 244.142 289.545 243.933 289.545 243.515V242.514C289.545 242.096 289.743 241.887 290.106 241.887C290.458 241.887 290.667 242.096 290.667 242.514V243.515ZM285.673 239.654C285.673 240.072 285.464 240.281 285.112 240.281C284.76 240.281 284.551 240.072 284.551 239.654V238.653C284.551 238.235 284.749 238.026 285.112 238.026C285.464 238.026 285.673 238.235 285.673 238.653V239.654Z" fill="#125EFF"/>
</g>
<g opacity="0.24">
<path d="M351.445 242.734C351.445 241.788 350.994 241.249 350.433 240.952C350.95 240.677 351.335 240.193 351.335 239.346C351.335 238.026 350.334 237.102 348.948 237.102C347.628 237.102 346.583 237.938 346.55 239.335H347.98C348.013 238.741 348.409 238.389 348.948 238.389C349.465 238.389 349.905 238.73 349.905 239.39C349.905 239.94 349.608 240.369 348.915 240.369H348.706V241.612H348.915C349.619 241.612 350.015 242.041 350.015 242.69C350.015 243.394 349.575 243.779 348.959 243.779C348.398 243.779 347.914 243.46 347.892 242.756H346.462C346.484 244.395 347.683 245.066 348.959 245.066C350.301 245.066 351.445 244.296 351.445 242.734ZM357.407 242.36C357.407 241.623 357.319 240.886 356.703 240.27C356.384 239.951 355.889 239.742 355.24 239.742C354.712 239.742 354.272 239.94 354.063 240.138V238.455H357.231V237.168H352.765V241.59H354.074C354.173 241.282 354.437 240.952 355.02 240.952C355.713 240.952 355.977 241.458 355.977 242.36C355.977 242.855 355.922 243.273 355.669 243.526C355.493 243.702 355.262 243.779 354.987 243.779C354.393 243.779 354.107 243.427 354.03 242.811H352.6C352.644 243.383 352.754 243.955 353.238 244.439C353.579 244.78 354.173 245.066 354.987 245.066C355.801 245.066 356.362 244.78 356.714 244.428C357.286 243.856 357.407 243.24 357.407 242.36ZM366.844 245V241.337C366.844 240.71 366.679 240.171 366.217 239.709C365.898 239.39 365.381 239.203 364.809 239.203C364.094 239.203 363.577 239.423 363.093 239.929C362.73 239.434 362.213 239.203 361.575 239.203C361.047 239.203 360.519 239.412 360.145 239.797V239.269H358.748V245H360.178V241.535C360.178 240.754 360.684 240.49 361.135 240.49C361.586 240.49 362.081 240.754 362.081 241.535V245H363.511V241.502C363.511 240.754 364.028 240.49 364.468 240.49C364.919 240.49 365.414 240.754 365.414 241.535V245H366.844ZM369.814 245V239.269H368.384V245H369.814ZM369.825 238.29V237.124H368.362V238.29H369.825ZM376.176 245V241.337C376.176 240.71 376.055 240.171 375.593 239.709C375.274 239.39 374.812 239.203 374.24 239.203C373.712 239.203 373.184 239.401 372.81 239.797V239.269H371.413V245H372.843V241.535C372.843 240.754 373.349 240.49 373.8 240.49C374.251 240.49 374.746 240.754 374.746 241.535V245H376.176Z" fill="white"/>
<path d="M351.445 242.734C351.445 241.788 350.994 241.249 350.433 240.952C350.95 240.677 351.335 240.193 351.335 239.346C351.335 238.026 350.334 237.102 348.948 237.102C347.628 237.102 346.583 237.938 346.55 239.335H347.98C348.013 238.741 348.409 238.389 348.948 238.389C349.465 238.389 349.905 238.73 349.905 239.39C349.905 239.94 349.608 240.369 348.915 240.369H348.706V241.612H348.915C349.619 241.612 350.015 242.041 350.015 242.69C350.015 243.394 349.575 243.779 348.959 243.779C348.398 243.779 347.914 243.46 347.892 242.756H346.462C346.484 244.395 347.683 245.066 348.959 245.066C350.301 245.066 351.445 244.296 351.445 242.734ZM357.407 242.36C357.407 241.623 357.319 240.886 356.703 240.27C356.384 239.951 355.889 239.742 355.24 239.742C354.712 239.742 354.272 239.94 354.063 240.138V238.455H357.231V237.168H352.765V241.59H354.074C354.173 241.282 354.437 240.952 355.02 240.952C355.713 240.952 355.977 241.458 355.977 242.36C355.977 242.855 355.922 243.273 355.669 243.526C355.493 243.702 355.262 243.779 354.987 243.779C354.393 243.779 354.107 243.427 354.03 242.811H352.6C352.644 243.383 352.754 243.955 353.238 244.439C353.579 244.78 354.173 245.066 354.987 245.066C355.801 245.066 356.362 244.78 356.714 244.428C357.286 243.856 357.407 243.24 357.407 242.36ZM366.844 245V241.337C366.844 240.71 366.679 240.171 366.217 239.709C365.898 239.39 365.381 239.203 364.809 239.203C364.094 239.203 363.577 239.423 363.093 239.929C362.73 239.434 362.213 239.203 361.575 239.203C361.047 239.203 360.519 239.412 360.145 239.797V239.269H358.748V245H360.178V241.535C360.178 240.754 360.684 240.49 361.135 240.49C361.586 240.49 362.081 240.754 362.081 241.535V245H363.511V241.502C363.511 240.754 364.028 240.49 364.468 240.49C364.919 240.49 365.414 240.754 365.414 241.535V245H366.844ZM369.814 245V239.269H368.384V245H369.814ZM369.825 238.29V237.124H368.362V238.29H369.825ZM376.176 245V241.337C376.176 240.71 376.055 240.171 375.593 239.709C375.274 239.39 374.812 239.203 374.24 239.203C373.712 239.203 373.184 239.401 372.81 239.797V239.269H371.413V245H372.843V241.535C372.843 240.754 373.349 240.49 373.8 240.49C374.251 240.49 374.746 240.754 374.746 241.535V245H376.176Z" fill="#125EFF"/>
</g>
<g opacity="0.24">
<path d="M432.368 242.734V239.434C432.368 237.938 431.268 237.102 429.992 237.102C428.716 237.102 427.605 237.938 427.605 239.434V242.734C427.605 244.23 428.716 245.066 429.992 245.066C431.268 245.066 432.368 244.23 432.368 242.734ZM430.938 242.723C430.938 243.383 430.553 243.779 429.992 243.779C429.431 243.779 429.035 243.383 429.035 242.723V239.456C429.035 238.796 429.431 238.389 429.992 238.389C430.553 238.389 430.938 238.796 430.938 239.456V242.723Z" fill="white"/>
<path d="M432.368 242.734V239.434C432.368 237.938 431.268 237.102 429.992 237.102C428.716 237.102 427.605 237.938 427.605 239.434V242.734C427.605 244.23 428.716 245.066 429.992 245.066C431.268 245.066 432.368 244.23 432.368 242.734ZM430.938 242.723C430.938 243.383 430.553 243.779 429.992 243.779C429.431 243.779 429.035 243.383 429.035 242.723V239.456C429.035 238.796 429.431 238.389 429.992 238.389C430.553 238.389 430.938 238.796 430.938 239.456V242.723Z" fill="#125EFF"/>
</g>
<g opacity="0.24">
<path d="M196.412 337V335.713H193.387L195.576 333.172C196.115 332.545 196.412 332.138 196.412 331.379C196.412 329.971 195.422 329.102 194.036 329.102C192.694 329.102 191.649 329.96 191.649 331.39H193.079C193.079 330.631 193.563 330.389 194.036 330.389C194.641 330.389 194.982 330.785 194.982 331.368C194.982 331.731 194.861 331.973 194.575 332.314L191.649 335.713V337H196.412ZM199.36 337V335.372H197.721V337H199.36ZM205.554 334.734C205.554 333.788 205.103 333.249 204.542 332.952C205.059 332.677 205.444 332.193 205.444 331.346C205.444 330.026 204.443 329.102 203.057 329.102C201.737 329.102 200.692 329.938 200.659 331.335H202.089C202.122 330.741 202.518 330.389 203.057 330.389C203.574 330.389 204.014 330.73 204.014 331.39C204.014 331.94 203.717 332.369 203.024 332.369H202.815V333.612H203.024C203.728 333.612 204.124 334.041 204.124 334.69C204.124 335.394 203.684 335.779 203.068 335.779C202.507 335.779 202.023 335.46 202.001 334.756H200.571C200.593 336.395 201.792 337.066 203.068 337.066C204.41 337.066 205.554 336.296 205.554 334.734ZM211.604 337V333.293C211.604 332.083 210.944 331.203 209.69 331.203C209.184 331.203 208.7 331.401 208.315 331.797V329.168H206.885V337H208.315V333.502C208.315 332.754 208.788 332.49 209.239 332.49C209.69 332.49 210.174 332.743 210.174 333.502V337H211.604Z" fill="white"/>
<path d="M196.412 337V335.713H193.387L195.576 333.172C196.115 332.545 196.412 332.138 196.412 331.379C196.412 329.971 195.422 329.102 194.036 329.102C192.694 329.102 191.649 329.96 191.649 331.39H193.079C193.079 330.631 193.563 330.389 194.036 330.389C194.641 330.389 194.982 330.785 194.982 331.368C194.982 331.731 194.861 331.973 194.575 332.314L191.649 335.713V337H196.412ZM199.36 337V335.372H197.721V337H199.36ZM205.554 334.734C205.554 333.788 205.103 333.249 204.542 332.952C205.059 332.677 205.444 332.193 205.444 331.346C205.444 330.026 204.443 329.102 203.057 329.102C201.737 329.102 200.692 329.938 200.659 331.335H202.089C202.122 330.741 202.518 330.389 203.057 330.389C203.574 330.389 204.014 330.73 204.014 331.39C204.014 331.94 203.717 332.369 203.024 332.369H202.815V333.612H203.024C203.728 333.612 204.124 334.041 204.124 334.69C204.124 335.394 203.684 335.779 203.068 335.779C202.507 335.779 202.023 335.46 202.001 334.756H200.571C200.593 336.395 201.792 337.066 203.068 337.066C204.41 337.066 205.554 336.296 205.554 334.734ZM211.604 337V333.293C211.604 332.083 210.944 331.203 209.69 331.203C209.184 331.203 208.7 331.401 208.315 331.797V329.168H206.885V337H208.315V333.502C208.315 332.754 208.788 332.49 209.239 332.49C209.69 332.49 210.174 332.743 210.174 333.502V337H211.604Z" fill="#125EFF"/>
</g>
<g opacity="0.24">
<path d="M275.158 337V329.168H273.728L272.133 330.554V332.094L273.728 330.708V337H275.158ZM282.341 334.734V331.434C282.341 329.938 281.241 329.102 279.965 329.102C278.689 329.102 277.578 329.938 277.578 331.434V334.734C277.578 336.23 278.689 337.066 279.965 337.066C281.241 337.066 282.341 336.23 282.341 334.734ZM280.911 334.723C280.911 335.383 280.526 335.779 279.965 335.779C279.404 335.779 279.008 335.383 279.008 334.723V331.456C279.008 330.796 279.404 330.389 279.965 330.389C280.526 330.389 280.911 330.796 280.911 331.456V334.723ZM291.701 335.559V334.47C291.701 333.48 290.964 332.963 290.106 332.963C289.237 332.963 288.511 333.48 288.511 334.47V335.559C288.511 336.549 289.237 337.066 290.106 337.066C290.964 337.066 291.701 336.549 291.701 335.559ZM286.707 331.698V330.609C286.707 329.619 285.97 329.102 285.112 329.102C284.243 329.102 283.517 329.619 283.517 330.609V331.698C283.517 332.688 284.243 333.205 285.112 333.205C285.97 333.205 286.707 332.688 286.707 331.698ZM290.029 329.168H288.907L285.2 337H286.322L290.029 329.168ZM290.667 335.515C290.667 335.933 290.458 336.142 290.106 336.142C289.743 336.142 289.545 335.933 289.545 335.515V334.514C289.545 334.096 289.743 333.887 290.106 333.887C290.458 333.887 290.667 334.096 290.667 334.514V335.515ZM285.673 331.654C285.673 332.072 285.464 332.281 285.112 332.281C284.76 332.281 284.551 332.072 284.551 331.654V330.653C284.551 330.235 284.749 330.026 285.112 330.026C285.464 330.026 285.673 330.235 285.673 330.653V331.654Z" fill="white"/>
<path d="M275.158 337V329.168H273.728L272.133 330.554V332.094L273.728 330.708V337H275.158ZM282.341 334.734V331.434C282.341 329.938 281.241 329.102 279.965 329.102C278.689 329.102 277.578 329.938 277.578 331.434V334.734C277.578 336.23 278.689 337.066 279.965 337.066C281.241 337.066 282.341 336.23 282.341 334.734ZM280.911 334.723C280.911 335.383 280.526 335.779 279.965 335.779C279.404 335.779 279.008 335.383 279.008 334.723V331.456C279.008 330.796 279.404 330.389 279.965 330.389C280.526 330.389 280.911 330.796 280.911 331.456V334.723ZM291.701 335.559V334.47C291.701 333.48 290.964 332.963 290.106 332.963C289.237 332.963 288.511 333.48 288.511 334.47V335.559C288.511 336.549 289.237 337.066 290.106 337.066C290.964 337.066 291.701 336.549 291.701 335.559ZM286.707 331.698V330.609C286.707 329.619 285.97 329.102 285.112 329.102C284.243 329.102 283.517 329.619 283.517 330.609V331.698C283.517 332.688 284.243 333.205 285.112 333.205C285.97 333.205 286.707 332.688 286.707 331.698ZM290.029 329.168H288.907L285.2 337H286.322L290.029 329.168ZM290.667 335.515C290.667 335.933 290.458 336.142 290.106 336.142C289.743 336.142 289.545 335.933 289.545 335.515V334.514C289.545 334.096 289.743 333.887 290.106 333.887C290.458 333.887 290.667 334.096 290.667 334.514V335.515ZM285.673 331.654C285.673 332.072 285.464 332.281 285.112 332.281C284.76 332.281 284.551 332.072 284.551 331.654V330.653C284.551 330.235 284.749 330.026 285.112 330.026C285.464 330.026 285.673 330.235 285.673 330.653V331.654Z" fill="#125EFF"/>
</g>
<g opacity="0.24">
<path d="M355.632 335.889V334.536H354.917V333.073H353.542V334.536H351.903L354.587 329.168H353.025L350.341 334.536V335.889H353.542V337H354.917V335.889H355.632ZM358.36 337V335.372H356.721V337H358.36ZM364.554 334.734C364.554 333.788 364.103 333.249 363.542 332.952C364.059 332.677 364.444 332.193 364.444 331.346C364.444 330.026 363.443 329.102 362.057 329.102C360.737 329.102 359.692 329.938 359.659 331.335H361.089C361.122 330.741 361.518 330.389 362.057 330.389C362.574 330.389 363.014 330.73 363.014 331.39C363.014 331.94 362.717 332.369 362.024 332.369H361.815V333.612H362.024C362.728 333.612 363.124 334.041 363.124 334.69C363.124 335.394 362.684 335.779 362.068 335.779C361.507 335.779 361.023 335.46 361.001 334.756H359.571C359.593 336.395 360.792 337.066 362.068 337.066C363.41 337.066 364.554 336.296 364.554 334.734ZM370.604 337V333.293C370.604 332.083 369.944 331.203 368.69 331.203C368.184 331.203 367.7 331.401 367.315 331.797V329.168H365.885V337H367.315V333.502C367.315 332.754 367.788 332.49 368.239 332.49C368.69 332.49 369.174 332.743 369.174 333.502V337H370.604Z" fill="white"/>
<path d="M355.632 335.889V334.536H354.917V333.073H353.542V334.536H351.903L354.587 329.168H353.025L350.341 334.536V335.889H353.542V337H354.917V335.889H355.632ZM358.36 337V335.372H356.721V337H358.36ZM364.554 334.734C364.554 333.788 364.103 333.249 363.542 332.952C364.059 332.677 364.444 332.193 364.444 331.346C364.444 330.026 363.443 329.102 362.057 329.102C360.737 329.102 359.692 329.938 359.659 331.335H361.089C361.122 330.741 361.518 330.389 362.057 330.389C362.574 330.389 363.014 330.73 363.014 331.39C363.014 331.94 362.717 332.369 362.024 332.369H361.815V333.612H362.024C362.728 333.612 363.124 334.041 363.124 334.69C363.124 335.394 362.684 335.779 362.068 335.779C361.507 335.779 361.023 335.46 361.001 334.756H359.571C359.593 336.395 360.792 337.066 362.068 337.066C363.41 337.066 364.554 336.296 364.554 334.734ZM370.604 337V333.293C370.604 332.083 369.944 331.203 368.69 331.203C368.184 331.203 367.7 331.401 367.315 331.797V329.168H365.885V337H367.315V333.502C367.315 332.754 367.788 332.49 368.239 332.49C368.69 332.49 369.174 332.743 369.174 333.502V337H370.604Z" fill="#125EFF"/>
</g>
<g opacity="0.24">
<path d="M432.368 334.734V331.434C432.368 329.938 431.268 329.102 429.992 329.102C428.716 329.102 427.605 329.938 427.605 331.434V334.734C427.605 336.23 428.716 337.066 429.992 337.066C431.268 337.066 432.368 336.23 432.368 334.734ZM430.938 334.723C430.938 335.383 430.553 335.779 429.992 335.779C429.431 335.779 429.035 335.383 429.035 334.723V331.456C429.035 330.796 429.431 330.389 429.992 330.389C430.553 330.389 430.938 330.796 430.938 331.456V334.723Z" fill="white"/>
<path d="M432.368 334.734V331.434C432.368 329.938 431.268 329.102 429.992 329.102C428.716 329.102 427.605 329.938 427.605 331.434V334.734C427.605 336.23 428.716 337.066 429.992 337.066C431.268 337.066 432.368 336.23 432.368 334.734ZM430.938 334.723C430.938 335.383 430.553 335.779 429.992 335.779C429.431 335.779 429.035 335.383 429.035 334.723V331.456C429.035 330.796 429.431 330.389 429.992 330.389C430.553 330.389 430.938 330.796 430.938 331.456V334.723Z" fill="#125EFF"/>
</g>
<g opacity="0.24">
<path d="M198.445 196.734C198.445 195.788 197.994 195.249 197.433 194.952C197.95 194.677 198.335 194.193 198.335 193.346C198.335 192.026 197.334 191.102 195.948 191.102C194.628 191.102 193.583 191.938 193.55 193.335H194.98C195.013 192.741 195.409 192.389 195.948 192.389C196.465 192.389 196.905 192.73 196.905 193.39C196.905 193.94 196.608 194.369 195.915 194.369H195.706V195.612H195.915C196.619 195.612 197.015 196.041 197.015 196.69C197.015 197.394 196.575 197.779 195.959 197.779C195.398 197.779 194.914 197.46 194.892 196.756H193.462C193.484 198.395 194.683 199.066 195.959 199.066C197.301 199.066 198.445 198.296 198.445 196.734ZM204.605 197.889V196.536H203.89V195.073H202.515V196.536H200.876L203.56 191.168H201.998L199.314 196.536V197.889H202.515V199H203.89V197.889H204.605ZM210.06 197.196C210.06 196.228 209.488 195.623 208.355 195.513L207.453 195.425C206.947 195.381 206.859 195.139 206.859 194.93C206.859 194.644 207.101 194.38 207.673 194.38C208.168 194.38 208.674 194.468 209.004 194.765L209.884 193.874C209.334 193.357 208.586 193.203 207.695 193.203C206.529 193.203 205.484 193.841 205.484 195.029C205.484 196.085 206.122 196.536 207.156 196.635L208.058 196.723C208.509 196.767 208.663 196.965 208.663 197.251C208.663 197.68 208.146 197.845 207.651 197.845C207.211 197.845 206.595 197.779 206.122 197.306L205.187 198.241C205.913 198.967 206.727 199.066 207.629 199.066C208.982 199.066 210.06 198.461 210.06 197.196Z" fill="white"/>
<path d="M198.445 196.734C198.445 195.788 197.994 195.249 197.433 194.952C197.95 194.677 198.335 194.193 198.335 193.346C198.335 192.026 197.334 191.102 195.948 191.102C194.628 191.102 193.583 191.938 193.55 193.335H194.98C195.013 192.741 195.409 192.389 195.948 192.389C196.465 192.389 196.905 192.73 196.905 193.39C196.905 193.94 196.608 194.369 195.915 194.369H195.706V195.612H195.915C196.619 195.612 197.015 196.041 197.015 196.69C197.015 197.394 196.575 197.779 195.959 197.779C195.398 197.779 194.914 197.46 194.892 196.756H193.462C193.484 198.395 194.683 199.066 195.959 199.066C197.301 199.066 198.445 198.296 198.445 196.734ZM204.605 197.889V196.536H203.89V195.073H202.515V196.536H200.876L203.56 191.168H201.998L199.314 196.536V197.889H202.515V199H203.89V197.889H204.605ZM210.06 197.196C210.06 196.228 209.488 195.623 208.355 195.513L207.453 195.425C206.947 195.381 206.859 195.139 206.859 194.93C206.859 194.644 207.101 194.38 207.673 194.38C208.168 194.38 208.674 194.468 209.004 194.765L209.884 193.874C209.334 193.357 208.586 193.203 207.695 193.203C206.529 193.203 205.484 193.841 205.484 195.029C205.484 196.085 206.122 196.536 207.156 196.635L208.058 196.723C208.509 196.767 208.663 196.965 208.663 197.251C208.663 197.68 208.146 197.845 207.651 197.845C207.211 197.845 206.595 197.779 206.122 197.306L205.187 198.241C205.913 198.967 206.727 199.066 207.629 199.066C208.982 199.066 210.06 198.461 210.06 197.196Z" fill="#125EFF"/>
</g>
<g opacity="0.24">
<path d="M272.158 291V283.168H270.728L269.133 284.554V286.094L270.728 284.708V291H272.158ZM279.341 288.734V285.434C279.341 283.938 278.241 283.102 276.965 283.102C275.689 283.102 274.578 283.938 274.578 285.434V288.734C274.578 290.23 275.689 291.066 276.965 291.066C278.241 291.066 279.341 290.23 279.341 288.734ZM277.911 288.723C277.911 289.383 277.526 289.779 276.965 289.779C276.404 289.779 276.008 289.383 276.008 288.723V285.456C276.008 284.796 276.404 284.389 276.965 284.389C277.526 284.389 277.911 284.796 277.911 285.456V288.723ZM285.313 288.734V285.434C285.313 283.938 284.213 283.102 282.937 283.102C281.661 283.102 280.55 283.938 280.55 285.434V288.734C280.55 290.23 281.661 291.066 282.937 291.066C284.213 291.066 285.313 290.23 285.313 288.734ZM283.883 288.723C283.883 289.383 283.498 289.779 282.937 289.779C282.376 289.779 281.98 289.383 281.98 288.723V285.456C281.98 284.796 282.376 284.389 282.937 284.389C283.498 284.389 283.883 284.796 283.883 285.456V288.723ZM294.674 289.559V288.47C294.674 287.48 293.937 286.963 293.079 286.963C292.21 286.963 291.484 287.48 291.484 288.47V289.559C291.484 290.549 292.21 291.066 293.079 291.066C293.937 291.066 294.674 290.549 294.674 289.559ZM289.68 285.698V284.609C289.68 283.619 288.943 283.102 288.085 283.102C287.216 283.102 286.49 283.619 286.49 284.609V285.698C286.49 286.688 287.216 287.205 288.085 287.205C288.943 287.205 289.68 286.688 289.68 285.698ZM293.002 283.168H291.88L288.173 291H289.295L293.002 283.168ZM293.64 289.515C293.64 289.933 293.431 290.142 293.079 290.142C292.716 290.142 292.518 289.933 292.518 289.515V288.514C292.518 288.096 292.716 287.887 293.079 287.887C293.431 287.887 293.64 288.096 293.64 288.514V289.515ZM288.646 285.654C288.646 286.072 288.437 286.281 288.085 286.281C287.733 286.281 287.524 286.072 287.524 285.654V284.653C287.524 284.235 287.722 284.026 288.085 284.026C288.437 284.026 288.646 284.235 288.646 284.653V285.654Z" fill="white"/>
<path d="M272.158 291V283.168H270.728L269.133 284.554V286.094L270.728 284.708V291H272.158ZM279.341 288.734V285.434C279.341 283.938 278.241 283.102 276.965 283.102C275.689 283.102 274.578 283.938 274.578 285.434V288.734C274.578 290.23 275.689 291.066 276.965 291.066C278.241 291.066 279.341 290.23 279.341 288.734ZM277.911 288.723C277.911 289.383 277.526 289.779 276.965 289.779C276.404 289.779 276.008 289.383 276.008 288.723V285.456C276.008 284.796 276.404 284.389 276.965 284.389C277.526 284.389 277.911 284.796 277.911 285.456V288.723ZM285.313 288.734V285.434C285.313 283.938 284.213 283.102 282.937 283.102C281.661 283.102 280.55 283.938 280.55 285.434V288.734C280.55 290.23 281.661 291.066 282.937 291.066C284.213 291.066 285.313 290.23 285.313 288.734ZM283.883 288.723C283.883 289.383 283.498 289.779 282.937 289.779C282.376 289.779 281.98 289.383 281.98 288.723V285.456C281.98 284.796 282.376 284.389 282.937 284.389C283.498 284.389 283.883 284.796 283.883 285.456V288.723ZM294.674 289.559V288.47C294.674 287.48 293.937 286.963 293.079 286.963C292.21 286.963 291.484 287.48 291.484 288.47V289.559C291.484 290.549 292.21 291.066 293.079 291.066C293.937 291.066 294.674 290.549 294.674 289.559ZM289.68 285.698V284.609C289.68 283.619 288.943 283.102 288.085 283.102C287.216 283.102 286.49 283.619 286.49 284.609V285.698C286.49 286.688 287.216 287.205 288.085 287.205C288.943 287.205 289.68 286.688 289.68 285.698ZM293.002 283.168H291.88L288.173 291H289.295L293.002 283.168ZM293.64 289.515C293.64 289.933 293.431 290.142 293.079 290.142C292.716 290.142 292.518 289.933 292.518 289.515V288.514C292.518 288.096 292.716 287.887 293.079 287.887C293.431 287.887 293.64 288.096 293.64 288.514V289.515ZM288.646 285.654C288.646 286.072 288.437 286.281 288.085 286.281C287.733 286.281 287.524 286.072 287.524 285.654V284.653C287.524 284.235 287.722 284.026 288.085 284.026C288.437 284.026 288.646 284.235 288.646 284.653V285.654Z" fill="#125EFF"/>
</g>
<g opacity="0.24">
<path d="M357.434 196.36C357.434 195.623 357.346 194.886 356.73 194.27C356.411 193.951 355.916 193.742 355.267 193.742C354.739 193.742 354.299 193.94 354.09 194.138V192.455H357.258V191.168H352.792V195.59H354.101C354.2 195.282 354.464 194.952 355.047 194.952C355.74 194.952 356.004 195.458 356.004 196.36C356.004 196.855 355.949 197.273 355.696 197.526C355.52 197.702 355.289 197.779 355.014 197.779C354.42 197.779 354.134 197.427 354.057 196.811H352.627C352.671 197.383 352.781 197.955 353.265 198.439C353.606 198.78 354.2 199.066 355.014 199.066C355.828 199.066 356.389 198.78 356.741 198.428C357.313 197.856 357.434 197.24 357.434 196.36ZM363.385 196.624C363.385 195.172 362.384 194.303 361.328 194.303C361.141 194.303 360.932 194.325 360.745 194.402L362.373 191.168H360.811L359.161 194.556C358.809 195.271 358.501 195.931 358.501 196.646C358.501 198.197 359.557 199.066 360.943 199.066C362.329 199.066 363.385 198.164 363.385 196.624ZM361.955 196.635C361.955 197.361 361.526 197.779 360.943 197.779C360.36 197.779 359.931 197.361 359.931 196.635C359.931 195.909 360.36 195.491 360.943 195.491C361.548 195.491 361.955 195.942 361.955 196.635ZM369.06 197.196C369.06 196.228 368.488 195.623 367.355 195.513L366.453 195.425C365.947 195.381 365.859 195.139 365.859 194.93C365.859 194.644 366.101 194.38 366.673 194.38C367.168 194.38 367.674 194.468 368.004 194.765L368.884 193.874C368.334 193.357 367.586 193.203 366.695 193.203C365.529 193.203 364.484 193.841 364.484 195.029C364.484 196.085 365.122 196.536 366.156 196.635L367.058 196.723C367.509 196.767 367.663 196.965 367.663 197.251C367.663 197.68 367.146 197.845 366.651 197.845C366.211 197.845 365.595 197.779 365.122 197.306L364.187 198.241C364.913 198.967 365.727 199.066 366.629 199.066C367.982 199.066 369.06 198.461 369.06 197.196Z" fill="white"/>
<path d="M357.434 196.36C357.434 195.623 357.346 194.886 356.73 194.27C356.411 193.951 355.916 193.742 355.267 193.742C354.739 193.742 354.299 193.94 354.09 194.138V192.455H357.258V191.168H352.792V195.59H354.101C354.2 195.282 354.464 194.952 355.047 194.952C355.74 194.952 356.004 195.458 356.004 196.36C356.004 196.855 355.949 197.273 355.696 197.526C355.52 197.702 355.289 197.779 355.014 197.779C354.42 197.779 354.134 197.427 354.057 196.811H352.627C352.671 197.383 352.781 197.955 353.265 198.439C353.606 198.78 354.2 199.066 355.014 199.066C355.828 199.066 356.389 198.78 356.741 198.428C357.313 197.856 357.434 197.24 357.434 196.36ZM363.385 196.624C363.385 195.172 362.384 194.303 361.328 194.303C361.141 194.303 360.932 194.325 360.745 194.402L362.373 191.168H360.811L359.161 194.556C358.809 195.271 358.501 195.931 358.501 196.646C358.501 198.197 359.557 199.066 360.943 199.066C362.329 199.066 363.385 198.164 363.385 196.624ZM361.955 196.635C361.955 197.361 361.526 197.779 360.943 197.779C360.36 197.779 359.931 197.361 359.931 196.635C359.931 195.909 360.36 195.491 360.943 195.491C361.548 195.491 361.955 195.942 361.955 196.635ZM369.06 197.196C369.06 196.228 368.488 195.623 367.355 195.513L366.453 195.425C365.947 195.381 365.859 195.139 365.859 194.93C365.859 194.644 366.101 194.38 366.673 194.38C367.168 194.38 367.674 194.468 368.004 194.765L368.884 193.874C368.334 193.357 367.586 193.203 366.695 193.203C365.529 193.203 364.484 193.841 364.484 195.029C364.484 196.085 365.122 196.536 366.156 196.635L367.058 196.723C367.509 196.767 367.663 196.965 367.663 197.251C367.663 197.68 367.146 197.845 366.651 197.845C366.211 197.845 365.595 197.779 365.122 197.306L364.187 198.241C364.913 198.967 365.727 199.066 366.629 199.066C367.982 199.066 369.06 198.461 369.06 197.196Z" fill="#125EFF"/>
</g>
<g opacity="0.24">
<path d="M432.368 288.734V285.434C432.368 283.938 431.268 283.102 429.992 283.102C428.716 283.102 427.605 283.938 427.605 285.434V288.734C427.605 290.23 428.716 291.066 429.992 291.066C431.268 291.066 432.368 290.23 432.368 288.734ZM430.938 288.723C430.938 289.383 430.553 289.779 429.992 289.779C429.431 289.779 429.035 289.383 429.035 288.723V285.456C429.035 284.796 429.431 284.389 429.992 284.389C430.553 284.389 430.938 284.796 430.938 285.456V288.723Z" fill="white"/>
<path d="M432.368 288.734V285.434C432.368 283.938 431.268 283.102 429.992 283.102C428.716 283.102 427.605 283.938 427.605 285.434V288.734C427.605 290.23 428.716 291.066 429.992 291.066C431.268 291.066 432.368 290.23 432.368 288.734ZM430.938 288.723C430.938 289.383 430.553 289.779 429.992 289.779C429.431 289.779 429.035 289.383 429.035 288.723V285.456C429.035 284.796 429.431 284.389 429.992 284.389C430.553 284.389 430.938 284.796 430.938 285.456V288.723Z" fill="#125EFF"/>
</g>
<rect x="143.094" y="131" width="39.0943" height="10" rx="5" fill="#F0F5FF"/>
<g opacity="0.28">
<path d="M151.014 119.704C151.014 118.328 150.358 117.544 149.542 117.112C150.294 116.712 150.854 116.008 150.854 114.776C150.854 112.856 149.398 111.512 147.382 111.512C145.462 111.512 143.942 112.728 143.894 114.76H145.974C146.022 113.896 146.598 113.384 147.382 113.384C148.134 113.384 148.774 113.88 148.774 114.84C148.774 115.64 148.342 116.264 147.334 116.264H147.03V118.072H147.334C148.358 118.072 148.934 118.696 148.934 119.64C148.934 120.664 148.294 121.224 147.398 121.224C146.582 121.224 145.878 120.76 145.846 119.736H143.766C143.798 122.12 145.542 123.096 147.398 123.096C149.35 123.096 151.014 121.976 151.014 119.704ZM159.974 121.384V119.416H158.934V117.288H156.934V119.416H154.55L158.454 111.608H156.182L152.278 119.416V121.384H156.934V123H158.934V121.384H159.974ZM173.205 120.904V119.32C173.205 117.88 172.133 117.128 170.885 117.128C169.621 117.128 168.565 117.88 168.565 119.32V120.904C168.565 122.344 169.621 123.096 170.885 123.096C172.133 123.096 173.205 122.344 173.205 120.904ZM165.941 115.288V113.704C165.941 112.264 164.869 111.512 163.621 111.512C162.357 111.512 161.301 112.264 161.301 113.704V115.288C161.301 116.728 162.357 117.48 163.621 117.48C164.869 117.48 165.941 116.728 165.941 115.288ZM170.773 111.608H169.141L163.749 123H165.381L170.773 111.608ZM171.701 120.84C171.701 121.448 171.397 121.752 170.885 121.752C170.357 121.752 170.069 121.448 170.069 120.84V119.384C170.069 118.776 170.357 118.472 170.885 118.472C171.397 118.472 171.701 118.776 171.701 119.384V120.84ZM164.437 115.224C164.437 115.832 164.133 116.136 163.621 116.136C163.109 116.136 162.805 115.832 162.805 115.224V113.768C162.805 113.16 163.093 112.856 163.621 112.856C164.133 112.856 164.437 113.16 164.437 113.768V115.224Z" fill="white"/>
<path d="M151.014 119.704C151.014 118.328 150.358 117.544 149.542 117.112C150.294 116.712 150.854 116.008 150.854 114.776C150.854 112.856 149.398 111.512 147.382 111.512C145.462 111.512 143.942 112.728 143.894 114.76H145.974C146.022 113.896 146.598 113.384 147.382 113.384C148.134 113.384 148.774 113.88 148.774 114.84C148.774 115.64 148.342 116.264 147.334 116.264H147.03V118.072H147.334C148.358 118.072 148.934 118.696 148.934 119.64C148.934 120.664 148.294 121.224 147.398 121.224C146.582 121.224 145.878 120.76 145.846 119.736H143.766C143.798 122.12 145.542 123.096 147.398 123.096C149.35 123.096 151.014 121.976 151.014 119.704ZM159.974 121.384V119.416H158.934V117.288H156.934V119.416H154.55L158.454 111.608H156.182L152.278 119.416V121.384H156.934V123H158.934V121.384H159.974ZM173.205 120.904V119.32C173.205 117.88 172.133 117.128 170.885 117.128C169.621 117.128 168.565 117.88 168.565 119.32V120.904C168.565 122.344 169.621 123.096 170.885 123.096C172.133 123.096 173.205 122.344 173.205 120.904ZM165.941 115.288V113.704C165.941 112.264 164.869 111.512 163.621 111.512C162.357 111.512 161.301 112.264 161.301 113.704V115.288C161.301 116.728 162.357 117.48 163.621 117.48C164.869 117.48 165.941 116.728 165.941 115.288ZM170.773 111.608H169.141L163.749 123H165.381L170.773 111.608ZM171.701 120.84C171.701 121.448 171.397 121.752 170.885 121.752C170.357 121.752 170.069 121.448 170.069 120.84V119.384C170.069 118.776 170.357 118.472 170.885 118.472C171.397 118.472 171.701 118.776 171.701 119.384V120.84ZM164.437 115.224C164.437 115.832 164.133 116.136 163.621 116.136C163.109 116.136 162.805 115.832 162.805 115.224V113.768C162.805 113.16 163.093 112.856 163.621 112.856C164.133 112.856 164.437 113.16 164.437 113.768V115.224Z" fill="#125EFF"/>
</g>
<rect x="222.188" y="131" width="44" height="10" rx="5" fill="#F0F5FF"/>
<g opacity="0.28">
<path d="M230.06 123V121.128H225.66L228.844 117.432C229.628 116.52 230.06 115.928 230.06 114.824C230.06 112.776 228.62 111.512 226.604 111.512C224.652 111.512 223.132 112.76 223.132 114.84H225.212C225.212 113.736 225.916 113.384 226.604 113.384C227.484 113.384 227.98 113.96 227.98 114.808C227.98 115.336 227.804 115.688 227.388 116.184L223.132 121.128V123H230.06ZM234.348 123V120.632H231.964V123H234.348ZM241.486 123V111.608H239.406L237.086 113.624V115.864L239.406 113.848V123H241.486ZM252.158 123V117.608C252.158 115.848 251.198 114.568 249.374 114.568C248.638 114.568 247.934 114.856 247.374 115.432V111.608H245.294V123H247.374V117.912C247.374 116.824 248.062 116.44 248.718 116.44C249.374 116.44 250.078 116.808 250.078 117.912V123H252.158Z" fill="white"/>
<path d="M230.06 123V121.128H225.66L228.844 117.432C229.628 116.52 230.06 115.928 230.06 114.824C230.06 112.776 228.62 111.512 226.604 111.512C224.652 111.512 223.132 112.76 223.132 114.84H225.212C225.212 113.736 225.916 113.384 226.604 113.384C227.484 113.384 227.98 113.96 227.98 114.808C227.98 115.336 227.804 115.688 227.388 116.184L223.132 121.128V123H230.06ZM234.348 123V120.632H231.964V123H234.348ZM241.486 123V111.608H239.406L237.086 113.624V115.864L239.406 113.848V123H241.486ZM252.158 123V117.608C252.158 115.848 251.198 114.568 249.374 114.568C248.638 114.568 247.934 114.856 247.374 115.432V111.608H245.294V123H247.374V117.912C247.374 116.824 248.062 116.44 248.718 116.44C249.374 116.44 250.078 116.808 250.078 117.912V123H252.158Z" fill="#125EFF"/>
</g>
<rect x="306.188" y="131" width="50" height="10" rx="5" fill="#F0F5FF"/>
<g opacity="0.28">
<path d="M312.236 123V111.608H310.156L307.836 113.624V115.864L310.156 113.848V123H312.236ZM320.924 123V111.608H318.844L316.524 113.624V115.864L318.844 113.848V123H320.924ZM327.035 123V120.632H324.651V123H327.035ZM335.998 123V121.128H331.598L334.782 117.432C335.566 116.52 335.998 115.928 335.998 114.824C335.998 112.776 334.558 111.512 332.542 111.512C330.59 111.512 329.07 112.76 329.07 114.84H331.15C331.15 113.736 331.854 113.384 332.542 113.384C333.422 113.384 333.918 113.96 333.918 114.808C333.918 115.336 333.742 115.688 333.326 116.184L329.07 121.128V123H335.998Z" fill="white"/>
<path d="M312.236 123V111.608H310.156L307.836 113.624V115.864L310.156 113.848V123H312.236ZM320.924 123V111.608H318.844L316.524 113.624V115.864L318.844 113.848V123H320.924ZM327.035 123V120.632H324.651V123H327.035ZM335.998 123V121.128H331.598L334.782 117.432C335.566 116.52 335.998 115.928 335.998 114.824C335.998 112.776 334.558 111.512 332.542 111.512C330.59 111.512 329.07 112.76 329.07 114.84H331.15C331.15 113.736 331.854 113.384 332.542 113.384C333.422 113.384 333.918 113.96 333.918 114.808C333.918 115.336 333.742 115.688 333.326 116.184L329.07 121.128V123H335.998Z" fill="#125EFF"/>
</g>
<circle cx="198" cy="402" r="5" fill="white"/>
<circle cx="198" cy="402" r="5" fill="url(#paint6_linear_1616_6967)" fill-opacity="0.2"/>
<defs>
<filter id="filter0_d_1616_6967" x="0" y="20" width="508" height="398.113" filterUnits="userSpaceOnUse" color-interpolation-filters="sRGB">
<feFlood flood-opacity="0" result="BackgroundImageFix"/>
<feColorMatrix in="SourceAlpha" type="matrix" values="0 0 0 0 0 0 0 0 0 0 0 0 0 0 0 0 0 0 127 0" result="hardAlpha"/>
<feOffset dy="10"/>
<feGaussianBlur stdDeviation="15"/>
<feColorMatrix type="matrix" values="0 0 0 0 0.0196078 0 0 0 0 0.333333 0 0 0 0 1 0 0 0 0.1 0"/>
<feBlend mode="normal" in2="BackgroundImageFix" result="effect1_dropShadow_1616_6967"/>
<feBlend mode="normal" in="SourceGraphic" in2="effect1_dropShadow_1616_6967" result="shape"/>
</filter>
<linearGradient id="paint0_linear_1616_6967" x1="18" y1="215" x2="18" y2="225" gradientUnits="userSpaceOnUse">
<stop stop-color="#0555FF"/>
<stop offset="1" stop-color="#0555FF" stop-opacity="0.21"/>
</linearGradient>
<linearGradient id="paint1_linear_1616_6967" x1="389" y1="31" x2="389" y2="45" gradientUnits="userSpaceOnUse">
<stop stop-color="#0555FF"/>
<stop offset="1" stop-color="#0555FF" stop-opacity="0.21"/>
</linearGradient>
<linearGradient id="paint2_linear_1616_6967" x1="77" y1="233" x2="96.5122" y2="248.61" gradientUnits="userSpaceOnUse">
<stop stop-color="#0555FF"/>
<stop offset="1" stop-color="#0555FF" stop-opacity="0.21"/>
</linearGradient>
<linearGradient id="paint3_linear_1616_6967" x1="75" y1="324" x2="95" y2="344" gradientUnits="userSpaceOnUse">
<stop stop-color="#0555FF"/>
<stop offset="1" stop-color="#0555FF" stop-opacity="0.21"/>
</linearGradient>
<linearGradient id="paint4_linear_1616_6967" x1="77.4528" y1="278.5" x2="96.128" y2="288.272" gradientUnits="userSpaceOnUse">
<stop stop-color="#07D988"/>
<stop offset="1" stop-color="#15F59F" stop-opacity="0.2"/>
</linearGradient>
<radialGradient id="paint5_radial_1616_6967" cx="0" cy="0" r="1" gradientUnits="userSpaceOnUse" gradientTransform="translate(78.8824 188.353) rotate(53.6003) scale(18.6359 19.7268)">
<stop stop-color="#FD8011"/>
<stop offset="1" stop-color="#FD7F11" stop-opacity="0.2"/>
</radialGradient>
<linearGradient id="paint6_linear_1616_6967" x1="198" y1="397" x2="198" y2="407" gradientUnits="userSpaceOnUse">
<stop stop-color="#0555FF"/>
<stop offset="1" stop-color="#0555FF" stop-opacity="0.21"/>
</linearGradient>
</defs>
</svg>
