<svg width="508" height="440" viewBox="0 0 508 440" fill="none" xmlns="http://www.w3.org/2000/svg">
<rect width="496" height="440" transform="translate(6)" fill="white"/>
<rect x="13" y="215" width="10" height="10" rx="5" fill="white"/>
<rect x="13" y="215" width="10" height="10" rx="5" fill="url(#paint0_linear_1616_7314)" fill-opacity="0.2"/>
<rect x="382" y="31" width="14" height="14" rx="7" fill="white"/>
<rect x="382" y="31" width="14" height="14" rx="7" fill="url(#paint1_linear_1616_7314)" fill-opacity="0.2"/>
<g filter="url(#filter0_d_1616_7314)">
<rect x="30" y="40" width="448" height="338.113" rx="16" fill="white"/>
<rect x="30.5" y="40.5" width="447" height="337.113" rx="15.5" stroke="#F2F6FF"/>
</g>
<rect x="46.4089" y="57.4089" width="129.182" height="303.182" rx="9.65563" fill="white"/>
<rect x="46.4089" y="57.4089" width="129.182" height="303.182" rx="9.65563" fill="url(#paint2_linear_1616_7314)" fill-opacity="0.06"/>
<rect x="46.4089" y="57.4089" width="129.182" height="303.182" rx="9.65563" stroke="#F2F6FF" stroke-width="0.817741"/>
<circle cx="67.812" cy="78.8125" r="5" fill="#1561FF"/>
<circle cx="81.812" cy="78.8125" r="5" fill="#FD8113"/>
<circle cx="95.812" cy="78.8125" r="5" fill="#0CE18F"/>
<path opacity="0.45" d="M226.052 273.816C225.762 274.139 225.412 274.3 225.004 274.3C224.596 274.3 224.237 274.139 223.945 273.816C223.644 273.491 223.499 273.102 223.499 272.639C223.499 272.185 223.644 271.784 223.945 271.461C224.237 271.125 224.596 270.964 225.004 270.964C225.412 270.964 225.762 271.125 226.052 271.461C226.355 271.784 226.499 272.185 226.499 272.639C226.499 273.102 226.355 273.491 226.052 273.816ZM223.927 262.712C224.208 262.378 224.568 262.205 225.004 262.205C225.441 262.205 225.801 262.367 226.082 262.712C226.355 263.047 226.499 263.469 226.499 263.977C226.499 264.366 226.023 267.024 225.782 269.254C225.74 269.647 225.41 269.949 225.015 269.949C224.615 269.949 224.284 269.64 224.244 269.242C224.021 267.014 223.499 264.365 223.499 263.977C223.499 263.48 223.645 263.058 223.927 262.712ZM234.589 273.621L226.742 258.393C225.782 256.536 224.217 256.536 223.257 258.393L215.41 273.621C214.45 275.477 215.234 277 217.158 277H232.851C234.764 277 235.551 275.477 234.589 273.621Z" fill="url(#paint3_radial_1616_7314)"/>
<path opacity="0.45" d="M225 83C219.487 83 215 87.4864 215 92.9998C215 98.5131 219.486 103 225 103C230.513 103 235 98.5136 235 92.9998C235 87.4864 230.513 83 225 83ZM230.596 91.0825L224.091 97.7498C224.014 97.8285 223.922 97.8911 223.82 97.9339C223.719 97.9767 223.61 97.9989 223.499 97.9992H223.495C223.274 97.9994 223.062 97.912 222.906 97.7561L219.41 94.2584C219.333 94.1811 219.271 94.0892 219.23 93.9881C219.188 93.887 219.166 93.7786 219.166 93.6691C219.166 93.5597 219.188 93.4513 219.23 93.3502C219.271 93.2491 219.333 93.1572 219.41 93.0799C219.488 93.0024 219.58 92.9409 219.681 92.899C219.782 92.8571 219.89 92.8355 220 92.8355C220.109 92.8355 220.218 92.8571 220.319 92.899C220.42 92.9409 220.512 93.0024 220.589 93.0799L223.491 95.9795L229.404 89.9149C229.558 89.7572 229.769 89.6672 229.99 89.6646C230.211 89.662 230.424 89.7471 230.582 89.9012C230.74 90.0564 230.83 90.2678 230.833 90.4891C230.835 90.7105 230.75 90.9238 230.596 91.0825Z" fill="url(#paint4_linear_1616_7314)"/>
<path opacity="0.45" d="M225 141C219.487 141 215 145.486 215 151C215 156.513 219.486 161 225 161C230.513 161 235 156.514 235 151C235 145.486 230.513 141 225 141ZM230.596 149.082L224.091 155.75C224.014 155.828 223.922 155.891 223.82 155.934C223.719 155.977 223.61 155.999 223.499 155.999H223.495C223.274 155.999 223.062 155.912 222.906 155.756L219.41 152.258C219.333 152.181 219.271 152.089 219.23 151.988C219.188 151.887 219.166 151.779 219.166 151.669C219.166 151.56 219.188 151.451 219.23 151.35C219.271 151.249 219.333 151.157 219.41 151.08C219.488 151.002 219.58 150.941 219.681 150.899C219.782 150.857 219.89 150.835 220 150.835C220.109 150.835 220.218 150.857 220.319 150.899C220.42 150.941 220.512 151.002 220.589 151.08L223.491 153.979L229.404 147.915C229.558 147.757 229.769 147.667 229.99 147.665C230.211 147.662 230.424 147.747 230.582 147.901C230.74 148.056 230.83 148.268 230.833 148.489C230.835 148.71 230.75 148.924 230.596 149.082Z" fill="url(#paint5_linear_1616_7314)"/>
<path opacity="0.45" d="M225 199C219.487 199 215 203.486 215 209C215 214.513 219.486 219 225 219C230.513 219 235 214.514 235 209C235 203.486 230.513 199 225 199ZM230.596 207.082L224.091 213.75C224.014 213.828 223.922 213.891 223.82 213.934C223.719 213.977 223.61 213.999 223.499 213.999H223.495C223.274 213.999 223.062 213.912 222.906 213.756L219.41 210.258C219.333 210.181 219.271 210.089 219.23 209.988C219.188 209.887 219.166 209.779 219.166 209.669C219.166 209.56 219.188 209.451 219.23 209.35C219.271 209.249 219.333 209.157 219.41 209.08C219.488 209.002 219.58 208.941 219.681 208.899C219.782 208.857 219.89 208.835 220 208.835C220.109 208.835 220.218 208.857 220.319 208.899C220.42 208.941 220.512 209.002 220.589 209.08L223.491 211.979L229.404 205.915C229.558 205.757 229.769 205.667 229.99 205.665C230.211 205.662 230.424 205.747 230.582 205.901C230.74 206.056 230.83 206.268 230.833 206.489C230.835 206.71 230.75 206.924 230.596 207.082Z" fill="url(#paint6_linear_1616_7314)"/>
<path opacity="0.45" d="M225 315C219.487 315 215 319.486 215 325C215 330.513 219.486 335 225 335C230.513 335 235 330.514 235 325C235 319.486 230.513 315 225 315ZM230.596 323.082L224.091 329.75C224.014 329.828 223.922 329.891 223.82 329.934C223.719 329.977 223.61 329.999 223.499 329.999H223.495C223.274 329.999 223.062 329.912 222.906 329.756L219.41 326.258C219.333 326.181 219.271 326.089 219.23 325.988C219.188 325.887 219.166 325.779 219.166 325.669C219.166 325.56 219.188 325.451 219.23 325.35C219.271 325.249 219.333 325.157 219.41 325.08C219.488 325.002 219.58 324.941 219.681 324.899C219.782 324.857 219.89 324.835 220 324.835C220.109 324.835 220.218 324.857 220.319 324.899C220.42 324.941 220.512 325.002 220.589 325.08L223.491 327.979L229.404 321.915C229.558 321.757 229.769 321.667 229.99 321.665C230.211 321.662 230.424 321.747 230.582 321.901C230.74 322.056 230.83 322.268 230.833 322.489C230.835 322.71 230.75 322.924 230.596 323.082Z" fill="url(#paint7_linear_1616_7314)"/>
<rect x="247" y="88" width="125" height="10" rx="5" fill="#F0F5FF"/>
<rect x="247" y="146" width="125" height="10" rx="5" fill="#F0F5FF"/>
<rect x="246" y="204" width="168" height="10" rx="5" fill="#F0F5FF"/>
<rect x="247" y="262" width="125" height="10" rx="5" fill="#F0F5FF"/>
<rect x="246" y="320" width="168" height="10" rx="5" fill="#F0F5FF"/>
<rect x="68" y="183" width="86" height="8" rx="4" fill="white"/>
<rect x="68" y="183" width="86" height="8" rx="4" fill="white"/>
<rect x="68" y="199" width="45" height="8" rx="4" fill="white"/>
<rect x="68" y="199" width="45" height="8" rx="4" fill="white"/>
<path d="M70.1696 120C69.6272 120 69.0487 120.217 68.6509 120.651C68.2531 121.085 68 121.627 68 122.17V161.223C68 161.766 68.217 162.344 68.6509 162.742C69.0848 163.176 69.6272 163.393 70.1696 163.393H101.991C102.533 163.393 103.112 163.176 103.51 162.742C103.944 162.308 104.161 161.766 104.161 161.223V132.295L91.8661 120H70.1696Z" fill="white"/>
<path d="M70.1696 120C69.6272 120 69.0487 120.217 68.6509 120.651C68.2531 121.085 68 121.627 68 122.17V161.223C68 161.766 68.217 162.344 68.6509 162.742C69.0848 163.176 69.6272 163.393 70.1696 163.393H101.991C102.533 163.393 103.112 163.176 103.51 162.742C103.944 162.308 104.161 161.766 104.161 161.223V132.295L91.8661 120H70.1696Z" fill="url(#paint8_linear_1616_7314)" fill-opacity="0.6"/>
<path d="M82.3215 156.41L79.8264 150.289L82.1386 144.567H79.5437L78.5456 148.11L77.5476 144.567H74.9527L77.1983 150.289L74.7697 156.41H77.3646L78.5456 152.634L79.7266 156.41H82.3215ZM88.7891 156.41V154.281H85.6952V144.567H83.3332V156.41H88.7891ZM96.4112 153.033C96.4112 150.888 95.9788 150.206 94.4817 149.607L93.0013 149.008C92.3193 148.725 92.1862 148.509 92.1862 147.761C92.1862 147.361 92.2361 147.112 92.3858 146.912C92.5189 146.729 92.7351 146.596 93.0678 146.596C93.4171 146.596 93.6167 146.713 93.7498 146.896C93.9494 147.162 93.9494 147.544 93.9494 147.96H96.3114C96.3114 146.762 96.0453 145.814 95.3966 145.216C94.8809 144.733 94.1158 144.467 93.0678 144.467C92.1696 144.467 91.4543 144.733 90.8888 145.216C90.1735 145.831 89.8242 146.746 89.8242 147.844C89.8242 149.69 90.3232 150.322 91.5209 150.821L93.0179 151.437C93.8663 151.786 94.0492 151.986 94.0492 153.117C94.0492 153.599 93.9827 153.915 93.8164 154.115C93.6666 154.314 93.4338 154.414 93.0678 154.414C92.7019 154.414 92.469 154.281 92.3359 154.131C92.1197 153.882 92.0864 153.532 92.0864 153.05H89.7244C89.7244 154.264 89.924 155.096 90.5062 155.678C91.0385 156.211 91.9034 156.543 93.0678 156.543C94.2156 156.543 95.1138 156.177 95.6461 155.662C96.2615 155.063 96.4112 154.231 96.4112 153.033Z" fill="white"/>
<path opacity="0.6" d="M104.161 132.295H94.0359C93.4934 132.295 92.9149 132.078 92.5171 131.644C92.0832 131.246 91.8662 130.667 91.8662 130.125V120L104.161 132.295Z" fill="url(#paint9_linear_1616_7314)"/>
<circle cx="198" cy="402" r="5" fill="white"/>
<circle cx="198" cy="402" r="5" fill="url(#paint10_linear_1616_7314)" fill-opacity="0.2"/>
<defs>
<filter id="filter0_d_1616_7314" x="0" y="20" width="508" height="398.113" filterUnits="userSpaceOnUse" color-interpolation-filters="sRGB">
<feFlood flood-opacity="0" result="BackgroundImageFix"/>
<feColorMatrix in="SourceAlpha" type="matrix" values="0 0 0 0 0 0 0 0 0 0 0 0 0 0 0 0 0 0 127 0" result="hardAlpha"/>
<feOffset dy="10"/>
<feGaussianBlur stdDeviation="15"/>
<feColorMatrix type="matrix" values="0 0 0 0 0.0196078 0 0 0 0 0.333333 0 0 0 0 1 0 0 0 0.1 0"/>
<feBlend mode="normal" in2="BackgroundImageFix" result="effect1_dropShadow_1616_7314"/>
<feBlend mode="normal" in="SourceGraphic" in2="effect1_dropShadow_1616_7314" result="shape"/>
</filter>
<linearGradient id="paint0_linear_1616_7314" x1="18" y1="215" x2="18" y2="225" gradientUnits="userSpaceOnUse">
<stop stop-color="#0555FF"/>
<stop offset="1" stop-color="#0555FF" stop-opacity="0.21"/>
</linearGradient>
<linearGradient id="paint1_linear_1616_7314" x1="389" y1="31" x2="389" y2="45" gradientUnits="userSpaceOnUse">
<stop stop-color="#0555FF"/>
<stop offset="1" stop-color="#0555FF" stop-opacity="0.21"/>
</linearGradient>
<linearGradient id="paint2_linear_1616_7314" x1="111" y1="57" x2="111" y2="361" gradientUnits="userSpaceOnUse">
<stop stop-color="#0555FF"/>
<stop offset="1" stop-color="#0555FF" stop-opacity="0.6"/>
</linearGradient>
<radialGradient id="paint3_radial_1616_7314" cx="0" cy="0" r="1" gradientUnits="userSpaceOnUse" gradientTransform="translate(220 258.667) rotate(62.5009) scale(19.5948)">
<stop stop-color="#FF5656"/>
<stop offset="1" stop-color="#FF9061"/>
</radialGradient>
<linearGradient id="paint4_linear_1616_7314" x1="215.566" y1="83.5" x2="236.392" y2="97.122" gradientUnits="userSpaceOnUse">
<stop stop-color="#07D988"/>
<stop offset="1" stop-color="#15F59F" stop-opacity="0.2"/>
</linearGradient>
<linearGradient id="paint5_linear_1616_7314" x1="215.566" y1="141.5" x2="236.392" y2="155.122" gradientUnits="userSpaceOnUse">
<stop stop-color="#07D988"/>
<stop offset="1" stop-color="#15F59F" stop-opacity="0.2"/>
</linearGradient>
<linearGradient id="paint6_linear_1616_7314" x1="215.566" y1="199.5" x2="236.392" y2="213.122" gradientUnits="userSpaceOnUse">
<stop stop-color="#07D988"/>
<stop offset="1" stop-color="#15F59F" stop-opacity="0.2"/>
</linearGradient>
<linearGradient id="paint7_linear_1616_7314" x1="215.566" y1="315.5" x2="236.392" y2="329.122" gradientUnits="userSpaceOnUse">
<stop stop-color="#07D988"/>
<stop offset="1" stop-color="#15F59F" stop-opacity="0.2"/>
</linearGradient>
<linearGradient id="paint8_linear_1616_7314" x1="69.0234" y1="121.085" x2="110.472" y2="143.677" gradientUnits="userSpaceOnUse">
<stop stop-color="#07D988"/>
<stop offset="1" stop-color="#15F59F" stop-opacity="0.2"/>
</linearGradient>
<linearGradient id="paint9_linear_1616_7314" x1="92.2142" y1="120.307" x2="105.017" y2="128.681" gradientUnits="userSpaceOnUse">
<stop stop-color="#07D988"/>
<stop offset="1" stop-color="#15F59F" stop-opacity="0.2"/>
</linearGradient>
<linearGradient id="paint10_linear_1616_7314" x1="198" y1="397" x2="198" y2="407" gradientUnits="userSpaceOnUse">
<stop stop-color="#0555FF"/>
<stop offset="1" stop-color="#0555FF" stop-opacity="0.21"/>
</linearGradient>
</defs>
</svg>
