<svg width="64" height="64" viewBox="0 0 64 64" fill="none" xmlns="http://www.w3.org/2000/svg">
<circle opacity="0.15" cx="32" cy="32" r="32" fill="#0DE492"/>
<g filter="url(#filter0_d_1531_10571)">
<path d="M43.4768 22.7542C43.7472 23.0226 44.1833 23.0233 44.4545 22.7557L44.6307 22.5819C44.8041 22.4107 45.083 22.411 45.2561 22.5825C45.4294 22.7542 45.7087 22.7542 45.8821 22.5826L46.5454 21.9256C47.0937 21.3826 47.0934 20.4965 46.5449 19.9538L45.9191 19.3347C45.3788 18.8001 44.5088 18.8004 43.9688 19.3352L43.2875 20.01C43.1151 20.1807 43.1151 20.4591 43.2874 20.6298C43.4596 20.8004 43.4597 21.0786 43.2877 21.2493L43.1118 21.4239C42.843 21.6907 42.8431 22.1253 43.1118 22.392L43.4768 22.7542ZM28.8872 17.7632H35.9511C36.1326 17.7632 36.3122 17.7275 36.4799 17.6581C36.6475 17.5887 36.7999 17.4869 36.9282 17.3586C37.0565 17.2303 37.1583 17.078 37.2277 16.9104C37.2972 16.7427 37.3329 16.5631 37.3329 16.3816C37.3329 16.2001 37.2972 16.0205 37.2277 15.8528C37.1583 15.6852 37.0565 15.5329 36.9282 15.4046C36.7999 15.2763 36.6475 15.1745 36.4799 15.1051C36.3122 15.0357 36.1326 15 35.9511 15H28.8872C28.7057 15 28.526 15.0357 28.3584 15.1051C28.1908 15.1745 28.0384 15.2763 27.9101 15.4046C27.7818 15.5329 27.68 15.6852 27.6106 15.8528C27.5411 16.0205 27.5054 16.2001 27.5054 16.3816C27.5054 16.5631 27.5411 16.7427 27.6106 16.9104C27.68 17.078 27.7818 17.2303 27.9101 17.3586C28.0384 17.4869 28.1908 17.5887 28.3584 17.6581C28.526 17.7275 28.7057 17.7632 28.8872 17.7632ZM32.4177 19.3339C30.5864 19.3272 28.7718 19.6816 27.0777 20.3769C25.3835 21.0721 23.843 22.0945 22.5443 23.3856C21.249 24.6638 20.2205 26.1866 19.5185 27.8655C18.8166 29.5444 18.4551 31.3461 18.4551 33.1659C18.4551 34.9857 18.8166 36.7873 19.5185 38.4662C20.2205 40.1452 21.249 41.6679 22.5443 42.9461C25.174 45.5431 28.7211 46.9994 32.417 46.9994C36.1129 46.9994 39.6599 45.5431 42.2896 42.9461C43.5849 41.6679 44.6134 40.1452 45.3154 38.4662C46.0174 36.7873 46.3788 34.9857 46.3788 33.1659C46.3788 31.3461 46.0174 29.5444 45.3154 27.8655C44.6134 26.1866 43.5849 24.6638 42.2896 23.3856C40.9917 22.0936 39.4517 21.0703 37.7577 20.3746C36.0637 19.6788 34.249 19.3242 32.4177 19.331V19.3339ZM40.1532 35.311C40.0459 35.4199 39.9179 35.5063 39.7769 35.5652C39.6358 35.6241 39.4844 35.6544 39.3315 35.6542L31.6513 35.7196H31.6207C31.5217 35.7146 31.4238 35.696 31.3299 35.6644H31.3008C31.2896 35.6652 31.2785 35.6652 31.2673 35.6644C31.2393 35.6629 31.2117 35.6565 31.1859 35.6455C30.9735 35.5579 30.7917 35.4093 30.6636 35.2186C30.5355 35.0278 30.4667 34.8034 30.466 34.5736L30.5111 27.0199C30.5145 26.7136 30.6386 26.4211 30.8564 26.2057C31.0743 25.9903 31.3682 25.8695 31.6745 25.8696C31.8276 25.8698 31.979 25.9003 32.1203 25.9592C32.2615 26.0181 32.3898 26.1042 32.4977 26.2128C32.6057 26.3194 32.6911 26.4468 32.7485 26.5872C32.806 26.7277 32.8345 26.8783 32.8322 27.0301L32.7987 33.4116L39.3228 33.3564C39.6286 33.3564 39.9221 33.4767 40.1399 33.6915C40.3576 33.9062 40.482 34.1981 40.4862 34.5038C40.4885 34.6564 40.4599 34.8078 40.4022 34.949C40.3445 35.0902 40.2588 35.2183 40.1503 35.3255L40.1532 35.311Z" fill="url(#paint0_linear_1531_10571)"/>
</g>
<defs>
<filter id="filter0_d_1531_10571" x="12.4551" y="15" width="40.502" height="44" filterUnits="userSpaceOnUse" color-interpolation-filters="sRGB">
<feFlood flood-opacity="0" result="BackgroundImageFix"/>
<feColorMatrix in="SourceAlpha" type="matrix" values="0 0 0 0 0 0 0 0 0 0 0 0 0 0 0 0 0 0 127 0" result="hardAlpha"/>
<feOffset dy="6"/>
<feGaussianBlur stdDeviation="3"/>
<feColorMatrix type="matrix" values="0 0 0 0 0.0509804 0 0 0 0 0.894118 0 0 0 0 0.572549 0 0 0 0.2 0"/>
<feBlend mode="normal" in2="BackgroundImageFix" result="effect1_dropShadow_1531_10571"/>
<feBlend mode="normal" in="SourceGraphic" in2="effect1_dropShadow_1531_10571" result="shape"/>
</filter>
<linearGradient id="paint0_linear_1531_10571" x1="19.2783" y1="15.8" x2="51.2293" y2="34.7961" gradientUnits="userSpaceOnUse">
<stop stop-color="#07D988"/>
<stop offset="1" stop-color="#15F59F"/>
</linearGradient>
</defs>
</svg>
