<svg width="64" height="64" viewBox="0 0 64 64" fill="none" xmlns="http://www.w3.org/2000/svg">
<circle opacity="0.15" cx="32" cy="32" r="32" fill="#0555FF"/>
<g filter="url(#filter0_d_1531_10577)">
<path d="M38.8598 16.0004C37.6467 15.9969 36.4447 16.2305 35.3232 16.6878C34.2016 17.1451 33.1824 17.817 32.3243 18.665C31.4662 19.513 30.7861 20.5203 30.323 21.629C29.8598 22.7377 29.6229 23.9261 29.6257 25.1256V38.9548C29.6257 41.4881 27.5222 43.568 24.9628 43.568C22.4008 43.568 20.2083 41.4881 20.2083 38.8641C20.2083 36.2428 22.3118 34.2562 24.8738 34.2562C25.1747 34.2587 25.4731 34.2019 25.7516 34.0891C26.03 33.9763 26.283 33.8098 26.4956 33.5992C26.7083 33.3887 26.8764 33.1384 26.9901 32.863C27.1039 32.5875 27.161 32.2924 27.1581 31.9949C27.1606 31.6973 27.1032 31.4023 26.9891 31.127C26.875 30.8516 26.7066 30.6015 26.4937 30.3913C26.2808 30.181 26.0277 30.0148 25.7491 29.9023C25.4705 29.7898 25.172 29.7334 24.8712 29.7362C22.5448 29.816 20.3358 30.7658 18.6904 32.3937C17.045 34.0217 16.0857 36.2065 16.0065 38.5068C15.8177 43.568 19.7525 47.8133 24.8712 48C26.085 48.0035 27.2876 47.7696 28.4097 47.3119C29.5318 46.8541 30.5513 46.1814 31.4095 45.3326C32.2678 44.4838 32.9477 43.4755 33.4104 42.3658C33.873 41.2562 34.1092 40.067 34.1053 38.8668V25.0403C34.1053 22.507 36.2088 20.4297 38.7682 20.4297C41.3275 20.4297 43.4284 22.5097 43.4284 25.0403C43.4284 27.5736 41.3248 29.6509 38.8598 29.6509H38.7682C38.4673 29.6481 38.1688 29.7045 37.8902 29.817C37.6116 29.9295 37.3585 30.0957 37.1456 30.3059C36.9327 30.5162 36.7643 30.7663 36.6502 31.0416C36.5361 31.317 36.4787 31.612 36.4812 31.9095C36.4783 32.2073 36.5355 32.5026 36.6494 32.7783C36.7633 33.0539 36.9317 33.3043 37.1446 33.5149C37.3576 33.7254 37.6108 33.8919 37.8896 34.0045C38.1683 34.1171 38.467 34.1737 38.7682 34.1708C39.9816 34.174 41.1836 33.94 42.3053 33.4822C43.4269 33.0245 44.446 32.352 45.3038 31.5035C46.1617 30.655 46.8415 29.6471 47.3042 28.5379C47.7668 27.4288 48.0031 26.2401 47.9996 25.0403C48.0115 23.8499 47.7831 22.6691 47.3279 21.567C46.8726 20.465 46.1997 19.4637 45.3483 18.6219C44.497 17.7802 43.4844 17.1147 42.3698 16.6646C41.2552 16.2145 40.0611 15.9887 38.8572 16.0004H38.8598Z" fill="url(#paint0_linear_1531_10577)"/>
</g>
<defs>
<filter id="filter0_d_1531_10577" x="10" y="16" width="44" height="44" filterUnits="userSpaceOnUse" color-interpolation-filters="sRGB">
<feFlood flood-opacity="0" result="BackgroundImageFix"/>
<feColorMatrix in="SourceAlpha" type="matrix" values="0 0 0 0 0 0 0 0 0 0 0 0 0 0 0 0 0 0 127 0" result="hardAlpha"/>
<feOffset dy="6"/>
<feGaussianBlur stdDeviation="3"/>
<feComposite in2="hardAlpha" operator="out"/>
<feColorMatrix type="matrix" values="0 0 0 0 0.164706 0 0 0 0 0.435294 0 0 0 0 1 0 0 0 0.2 0"/>
<feBlend mode="normal" in2="BackgroundImageFix" result="effect1_dropShadow_1531_10577"/>
<feBlend mode="normal" in="SourceGraphic" in2="effect1_dropShadow_1531_10577" result="shape"/>
</filter>
<linearGradient id="paint0_linear_1531_10577" x1="20.7859" y1="5.56522" x2="57.6573" y2="64.6467" gradientUnits="userSpaceOnUse">
<stop stop-color="#0555FF"/>
<stop offset="1" stop-color="#4380FF"/>
</linearGradient>
</defs>
</svg>
