<svg width="64" height="64" viewBox="0 0 64 64" fill="none" xmlns="http://www.w3.org/2000/svg">
<circle opacity="0.15" cx="32" cy="32" r="32" fill="#FC790D"/>
<g filter="url(#filter0_d_1531_8169)">
<path fill-rule="evenodd" clip-rule="evenodd" d="M43.3083 39.2601C43.3248 39.2261 43.3015 39.1863 43.2638 39.1843C43.2254 39.1821 43.2012 39.1417 43.2177 39.1069C43.6791 38.1342 44.0214 37.0853 44.2226 35.9754C45.0611 31.3509 43.2358 26.8599 39.8397 24.0798C38.9487 23.3504 38.3936 22.261 38.8377 21.1987C38.8595 21.1467 38.8782 21.103 38.8927 21.0695C38.9012 21.0499 38.9044 21.0398 38.9069 21.0322C38.9109 21.0198 38.9127 21.0141 38.9316 20.9849C39.3818 20.2872 40.6908 19.8181 41.3705 20.2952C45.5618 23.2374 48.2218 28.0453 48.362 33.2926C48.5333 36.3137 47.8783 39.3782 46.191 42.2096C45.7714 42.9138 45.3073 43.5753 44.8044 44.1925C44.454 44.6227 44.2788 44.8378 44.0829 44.9169C43.888 44.9955 43.7438 45.0024 43.5424 44.9428C43.3398 44.8828 43.0673 44.6071 42.5223 44.0555C42.1959 43.7252 41.8226 43.4305 41.4051 43.1817C41.0875 42.9924 41.0049 42.5423 41.2554 42.2703C41.8315 41.645 42.3521 40.951 42.8046 40.1915C42.9871 39.8854 43.1549 39.5747 43.3083 39.2601ZM31.6291 50.2062C31.7664 50.1893 31.835 50.1809 31.85 50.1796C31.8777 50.1772 31.8623 50.1782 31.8901 50.1771C31.9052 50.1766 31.9239 50.1766 31.9614 50.1766C33.7207 50.1763 35.4354 49.8921 37.0525 49.361C38.0379 49.0373 38.3324 47.7785 37.9604 46.8103C37.5953 45.8598 36.5367 45.4008 35.5625 45.6971C33.7255 46.2557 31.7317 46.3975 29.7124 46.0313C28.9951 45.9013 28.3034 45.7124 27.6412 45.4704C26.9759 45.2164 26.3233 44.9018 25.6905 44.5247C23.9442 43.484 22.5441 42.084 21.5284 40.4752C21.135 39.8521 20.9383 39.5405 20.7842 39.4419C20.5988 39.3232 20.5492 39.3091 20.3291 39.3124C20.1462 39.3151 19.7593 39.5036 18.9854 39.8806C18.9252 39.9099 18.8646 39.9382 18.8035 39.9653C18.0985 40.2779 17.7461 40.4343 17.6182 40.6025C17.4914 40.7694 17.4465 40.9074 17.451 41.117C17.4556 41.3282 17.5944 41.5679 17.872 42.0473C18.5195 43.1652 19.3034 44.2142 20.2168 45.1666C20.2279 45.1781 20.2246 45.1971 20.2103 45.2042C20.1958 45.2113 20.1924 45.2306 20.2037 45.2422C21.8738 46.9504 23.9273 48.3073 26.2607 49.1637C27.9344 49.8001 29.6689 50.1451 31.3982 50.2155C31.4771 50.2187 31.5541 50.2155 31.6291 50.2062ZM28.9055 17.6853C28.8846 17.6894 28.8666 17.6702 28.8723 17.6496C28.878 17.629 28.86 17.6095 28.839 17.6135C22.372 18.8578 17.023 23.949 15.7776 30.8178C15.6532 31.5039 15.5733 32.1878 15.536 32.8664C15.471 34.0471 16.5553 34.6316 17.7187 34.8425C18.5527 34.9937 19.4265 33.9414 19.4719 33.095C19.4999 32.5737 19.5608 32.0483 19.6564 31.5211C19.8086 30.6819 20.0414 29.8775 20.3453 29.1146C20.3575 29.0842 20.3635 29.069 20.3709 29.0526C20.3816 29.0289 20.3798 29.0325 20.3919 29.0094C20.4002 28.9935 20.4302 28.9417 20.4902 28.8382C20.4976 28.8254 20.5047 28.8126 20.5115 28.7998C20.666 28.5099 20.8442 28.2295 21.0242 27.9461C21.1363 27.7698 21.2491 27.5922 21.3574 27.4106C23.7044 23.4721 27.879 21.2948 32.1544 21.3159C32.77 21.319 33.0779 21.3205 33.235 21.253C33.418 21.1743 33.4652 21.1362 33.5805 20.9738C33.6796 20.8343 33.7527 20.4856 33.8989 19.7882C34.0223 19.1995 34.2437 18.6209 34.5689 18.0752C34.6999 17.8553 34.58 17.5604 34.3263 17.5255C32.5102 17.2758 30.6777 17.3355 28.9055 17.6853Z" fill="url(#paint0_radial_1531_8169)"/>
</g>
<g filter="url(#filter1_d_1531_8169)">
<circle cx="32.3407" cy="19.7254" r="5.13181" transform="rotate(10.2048 32.3407 19.7254)" fill="url(#paint1_radial_1531_8169)"/>
</g>
<g filter="url(#filter2_d_1531_8169)">
<circle cx="19.744" cy="41.49" r="5.14271" transform="rotate(10.2048 19.744 41.49)" fill="url(#paint2_radial_1531_8169)"/>
</g>
<g filter="url(#filter3_d_1531_8169)">
<circle cx="44.2914" cy="41.5999" r="5.13132" transform="rotate(10.2048 44.2914 41.5999)" fill="url(#paint3_radial_1531_8169)"/>
</g>
<defs>
<filter id="filter0_d_1531_8169" x="11.5911" y="17.373" width="40.7397" height="40.728" filterUnits="userSpaceOnUse" color-interpolation-filters="sRGB">
<feFlood flood-opacity="0" result="BackgroundImageFix"/>
<feColorMatrix in="SourceAlpha" type="matrix" values="0 0 0 0 0 0 0 0 0 0 0 0 0 0 0 0 0 0 127 0" result="hardAlpha"/>
<feOffset dy="3.94212"/>
<feGaussianBlur stdDeviation="1.97106"/>
<feColorMatrix type="matrix" values="0 0 0 0 0.988235 0 0 0 0 0.47451 0 0 0 0 0.0509804 0 0 0 0.2 0"/>
<feBlend mode="normal" in2="BackgroundImageFix" result="effect1_dropShadow_1531_8169"/>
<feBlend mode="normal" in="SourceGraphic" in2="effect1_dropShadow_1531_8169" result="shape"/>
</filter>
<filter id="filter1_d_1531_8169" x="23.2649" y="14.5918" width="18.1499" height="18.1499" filterUnits="userSpaceOnUse" color-interpolation-filters="sRGB">
<feFlood flood-opacity="0" result="BackgroundImageFix"/>
<feColorMatrix in="SourceAlpha" type="matrix" values="0 0 0 0 0 0 0 0 0 0 0 0 0 0 0 0 0 0 127 0" result="hardAlpha"/>
<feOffset dy="3.94212"/>
<feGaussianBlur stdDeviation="1.97106"/>
<feColorMatrix type="matrix" values="0 0 0 0 0.988235 0 0 0 0 0.47451 0 0 0 0 0.0509804 0 0 0 0.2 0"/>
<feBlend mode="normal" in2="BackgroundImageFix" result="effect1_dropShadow_1531_8169"/>
<feBlend mode="normal" in="SourceGraphic" in2="effect1_dropShadow_1531_8169" result="shape"/>
</filter>
<filter id="filter2_d_1531_8169" x="10.6575" y="36.3457" width="18.1713" height="18.1713" filterUnits="userSpaceOnUse" color-interpolation-filters="sRGB">
<feFlood flood-opacity="0" result="BackgroundImageFix"/>
<feColorMatrix in="SourceAlpha" type="matrix" values="0 0 0 0 0 0 0 0 0 0 0 0 0 0 0 0 0 0 127 0" result="hardAlpha"/>
<feOffset dy="3.94212"/>
<feGaussianBlur stdDeviation="1.97106"/>
<feColorMatrix type="matrix" values="0 0 0 0 0.988235 0 0 0 0 0.47451 0 0 0 0 0.0509804 0 0 0 0.2 0"/>
<feBlend mode="normal" in2="BackgroundImageFix" result="effect1_dropShadow_1531_8169"/>
<feBlend mode="normal" in="SourceGraphic" in2="effect1_dropShadow_1531_8169" result="shape"/>
</filter>
<filter id="filter3_d_1531_8169" x="35.218" y="36.4668" width="18.1479" height="18.1499" filterUnits="userSpaceOnUse" color-interpolation-filters="sRGB">
<feFlood flood-opacity="0" result="BackgroundImageFix"/>
<feColorMatrix in="SourceAlpha" type="matrix" values="0 0 0 0 0 0 0 0 0 0 0 0 0 0 0 0 0 0 127 0" result="hardAlpha"/>
<feOffset dy="3.94212"/>
<feGaussianBlur stdDeviation="1.97106"/>
<feColorMatrix type="matrix" values="0 0 0 0 0.988235 0 0 0 0 0.47451 0 0 0 0 0.0509804 0 0 0 0.2 0"/>
<feBlend mode="normal" in2="BackgroundImageFix" result="effect1_dropShadow_1531_8169"/>
<feBlend mode="normal" in="SourceGraphic" in2="effect1_dropShadow_1531_8169" result="shape"/>
</filter>
<radialGradient id="paint0_radial_1531_8169" cx="0" cy="0" r="1" gradientUnits="userSpaceOnUse" gradientTransform="translate(15.5373 33.7949) scale(32.893 152.451)">
<stop stop-color="#FC790D"/>
<stop offset="1" stop-color="#FF9A23"/>
</radialGradient>
<radialGradient id="paint1_radial_1531_8169" cx="0" cy="0" r="1" gradientUnits="userSpaceOnUse" gradientTransform="translate(27.2101 19.7254) scale(10.2754 47.6408)">
<stop stop-color="#FC790D"/>
<stop offset="1" stop-color="#FF9A23"/>
</radialGradient>
<radialGradient id="paint2_radial_1531_8169" cx="0" cy="0" r="1" gradientUnits="userSpaceOnUse" gradientTransform="translate(14.6025 41.49) scale(10.2972 47.7419)">
<stop stop-color="#FC790D"/>
<stop offset="1" stop-color="#FF9A23"/>
</radialGradient>
<radialGradient id="paint3_radial_1531_8169" cx="0" cy="0" r="1" gradientUnits="userSpaceOnUse" gradientTransform="translate(39.1614 41.5999) scale(10.2744 47.6362)">
<stop stop-color="#FC790D"/>
<stop offset="1" stop-color="#FF9A23"/>
</radialGradient>
</defs>
</svg>
