<svg width="64" height="64" viewBox="0 0 64 64" fill="none" xmlns="http://www.w3.org/2000/svg">
<circle opacity="0.15" cx="32" cy="32" r="32" fill="#FC790D"/>
<g filter="url(#filter0_d_1531_7318)">
<path d="M39.5439 37.1381C39.7999 37.3591 39.9535 37.6354 40.0559 37.9669C40.1071 38.2431 40.1583 38.4641 40.2095 38.7403C40.2608 39.0718 40.2608 38.7956 40.2608 39.1271C40.2608 39.4033 40.2608 39.7348 40.2095 40.0111C40.2095 40.232 40.1071 40.453 40.0559 40.674C39.9023 40.7845 39.7487 40.895 39.5439 40.9503C37.2396 41.6685 34.833 42 32.3751 42C29.9173 42 27.4594 41.7238 25.0016 41.2265C24.6943 41.1713 24.3871 41.0608 24.0799 40.895C23.8751 40.6188 23.7726 40.2873 23.7726 39.9558C23.7214 39.4586 23.7214 38.9061 23.8239 38.4088C23.8751 37.9669 24.0799 37.5801 24.3359 37.3039C24.6431 37.0276 24.9504 36.8619 25.3088 36.6961C25.6672 36.5304 27.4594 35.8674 27.8691 35.7569C28.2275 35.6464 28.5859 35.4807 28.9444 35.2597C29.1492 35.1492 29.354 34.9834 29.5076 34.7624C29.6101 34.5967 29.7125 34.4862 29.8149 34.2652C29.8661 34.0994 29.9173 33.9337 29.9173 33.768V33.2155C29.9173 32.9392 29.8149 32.663 29.6613 32.4972L29.1492 31.9448C29.0468 31.8343 28.9444 31.7238 28.8932 31.558C28.842 31.3923 28.7396 31.2265 28.6884 31.0608L28.5347 30.3425C28.4323 30.2873 28.3811 30.2873 28.2787 30.232C28.1763 30.1215 28.1251 30.0663 28.0739 29.9558C27.9715 29.7901 27.9203 29.6243 27.8691 29.4586C27.8179 29.2376 27.7667 29.0718 27.8179 28.8508C27.8691 28.6851 27.8691 28.5746 27.9715 28.4088C28.0227 28.2431 28.0739 28.1326 28.1763 27.9669C28.1251 27.0276 28.2275 26.0331 28.4323 25.0939C28.5347 24.6519 28.7396 24.2099 28.9444 23.8232C29.3028 23.1602 29.9173 22.663 30.583 22.3867C30.839 22.2762 31.095 22.1657 31.4022 22.1105C31.6583 22.0552 31.9143 22.0552 32.2215 22C32.5288 22 32.8872 22.0552 33.1944 22.1105C33.5017 22.221 33.8089 22.3315 34.0649 22.442C34.3209 22.5525 34.577 22.7182 34.7818 22.9392C34.9866 23.105 35.1402 23.2707 35.2938 23.4917C35.6011 23.9337 35.8059 24.3757 35.9595 24.8729C36.1131 25.3149 36.2155 25.8122 36.2667 26.3094C36.3179 26.8066 36.3692 27.3591 36.3692 27.9116C36.4716 27.9669 36.5228 28.1326 36.5228 28.1326C36.5228 28.1326 36.6252 28.3536 36.6252 28.4641C36.6764 28.6298 36.6764 28.7956 36.6252 29.0166C36.6252 29.2376 36.574 29.4586 36.4716 29.6796C36.4204 29.8453 36.3179 29.9558 36.2155 30.0663C36.1131 30.1768 36.0619 30.232 35.9083 30.2873C35.8571 30.5083 35.8059 30.7293 35.7547 30.895C35.7035 31.0608 35.6011 31.2265 35.5499 31.3923C35.4987 31.558 35.3962 31.6685 35.2938 31.779C35.1914 31.8895 35.089 31.9448 34.9866 32.0552C34.8842 32.1105 34.833 32.221 34.7306 32.2762C34.6794 32.3867 34.577 32.442 34.577 32.5525C34.4746 32.884 34.4233 33.2155 34.4233 33.547C34.4233 33.768 34.4746 33.989 34.577 34.1547C34.6794 34.3757 34.833 34.5967 34.9866 34.7624C35.1914 34.9834 35.4475 35.1492 35.7547 35.2597C36.0619 35.3702 36.3692 35.5359 36.7276 35.5912C37.086 35.6464 38.4686 36.3646 38.7758 36.4751C39.0318 36.7514 39.2879 36.9171 39.5439 37.1381Z" fill="url(#paint0_radial_1531_7318)"/>
</g>
<g filter="url(#filter1_d_1531_7318)">
<path fill-rule="evenodd" clip-rule="evenodd" d="M38.845 17.2816C39.0031 17.2213 39.1717 17.1937 39.3407 17.2001L45.5408 17.2003C46.235 17.2003 46.7978 17.7644 46.7978 18.4552V24.6651C46.7844 24.9885 46.6468 25.2944 46.4135 25.5189C46.1793 25.7443 45.8669 25.8702 45.5418 25.8702C45.2168 25.8702 44.9044 25.7443 44.6702 25.5189C44.4369 25.2944 44.2992 24.9885 44.2859 24.6651V19.7122L39.3483 19.7121L39.3407 19.7124C39.1717 19.7189 39.0031 19.6912 38.845 19.631C38.687 19.5708 38.5427 19.4793 38.4208 19.362C38.299 19.2447 38.202 19.104 38.1358 18.9484C38.0696 18.7928 38.0354 18.6254 38.0354 18.4563C38.0354 18.2871 38.0696 18.1197 38.1358 17.9641C38.202 17.8085 38.299 17.6678 38.4208 17.5505C38.5427 17.4332 38.687 17.3418 38.845 17.2816ZM45.5408 38.4109H45.593C46.2628 38.4384 46.7978 38.9912 46.7978 39.6669V45.5411C46.7978 46.2353 46.2348 46.7981 45.5418 46.7981L39.3473 46.798L39.3396 46.7983C39.1706 46.8048 39.002 46.7771 38.844 46.7169C38.6859 46.6567 38.5416 46.5652 38.4198 46.4479C38.2979 46.3306 38.2009 46.19 38.1347 46.0343C38.0685 45.8787 38.0344 45.7113 38.0344 45.5422C38.0344 45.373 38.0685 45.2056 38.1347 45.05C38.2009 44.8944 38.2979 44.7537 38.4198 44.6364C38.5416 44.5191 38.6859 44.4277 38.844 44.3675C39.002 44.3073 39.1706 44.2797 39.3396 44.2862H44.2859V39.6679C44.2859 38.9726 44.8479 38.4109 45.5408 38.4109ZM24.3454 19.7122H19.7119V24.4505C19.7119 25.1447 19.1499 25.7064 18.457 25.7064C17.763 25.7064 17.2 25.1425 17.2 24.4494V18.4573C17.2 17.7633 17.7638 17.2003 18.457 17.2003H24.3454C24.6689 17.2137 24.9748 17.3513 25.1993 17.5846C25.4247 17.8188 25.5506 18.1312 25.5506 18.4563C25.5506 18.7813 25.4247 19.0937 25.1993 19.3279C24.9748 19.5612 24.6689 19.6989 24.3454 19.7122ZM19.7119 39.6708V44.2862H24.1259C24.4493 44.2996 24.7551 44.4372 24.9797 44.6705C25.2051 44.9047 25.331 45.2171 25.331 45.5422C25.331 45.8672 25.2051 46.1796 24.9797 46.4138C24.7551 46.6471 24.4493 46.7848 24.1259 46.7981H18.457C17.7629 46.7981 17.2 46.2342 17.2 45.5422V39.6709C17.2133 39.3474 17.3509 39.0415 17.5843 38.817C17.8185 38.5916 18.1309 38.4657 18.4559 38.4657C18.781 38.4657 19.0934 38.5916 19.3276 38.817C19.5609 39.0415 19.6985 39.3474 19.7119 39.6708Z" fill="url(#paint1_radial_1531_7318)"/>
</g>
<defs>
<filter id="filter0_d_1531_7318" x="17.739" y="22" width="28.5217" height="32" filterUnits="userSpaceOnUse" color-interpolation-filters="sRGB">
<feFlood flood-opacity="0" result="BackgroundImageFix"/>
<feColorMatrix in="SourceAlpha" type="matrix" values="0 0 0 0 0 0 0 0 0 0 0 0 0 0 0 0 0 0 127 0" result="hardAlpha"/>
<feOffset dy="6"/>
<feGaussianBlur stdDeviation="3"/>
<feColorMatrix type="matrix" values="0 0 0 0 0.988235 0 0 0 0 0.47451 0 0 0 0 0.0509804 0 0 0 0.2 0"/>
<feBlend mode="normal" in2="BackgroundImageFix" result="effect1_dropShadow_1531_7318"/>
<feBlend mode="normal" in="SourceGraphic" in2="effect1_dropShadow_1531_7318" result="shape"/>
</filter>
<filter id="filter1_d_1531_7318" x="11.2" y="17.1992" width="41.5979" height="41.5996" filterUnits="userSpaceOnUse" color-interpolation-filters="sRGB">
<feFlood flood-opacity="0" result="BackgroundImageFix"/>
<feColorMatrix in="SourceAlpha" type="matrix" values="0 0 0 0 0 0 0 0 0 0 0 0 0 0 0 0 0 0 127 0" result="hardAlpha"/>
<feOffset dy="6"/>
<feGaussianBlur stdDeviation="3"/>
<feColorMatrix type="matrix" values="0 0 0 0 0.988235 0 0 0 0 0.47451 0 0 0 0 0.0509804 0 0 0 0.2 0"/>
<feBlend mode="normal" in2="BackgroundImageFix" result="effect1_dropShadow_1531_7318"/>
<feBlend mode="normal" in="SourceGraphic" in2="effect1_dropShadow_1531_7318" result="shape"/>
</filter>
<radialGradient id="paint0_radial_1531_7318" cx="0" cy="0" r="1" gradientUnits="userSpaceOnUse" gradientTransform="translate(23.6293 32.0005) scale(16.7642 94.0887)">
<stop stop-color="#FC790D"/>
<stop offset="1" stop-color="#FF9A23"/>
</radialGradient>
<radialGradient id="paint1_radial_1531_7318" cx="0" cy="0" r="1" gradientUnits="userSpaceOnUse" gradientTransform="translate(17.0035 32) scale(30.0323 139.251)">
<stop stop-color="#FC790D"/>
<stop offset="1" stop-color="#FF9A23"/>
</radialGradient>
</defs>
</svg>
