<svg width="46" height="46" viewBox="0 0 46 46" fill="none" xmlns="http://www.w3.org/2000/svg">
<g filter="url(#filter0_d_1609_838)">
<path fill-rule="evenodd" clip-rule="evenodd" d="M34.3431 22.1892C34.2896 22.1854 34.2363 22.1825 34.183 22.1804C34.6623 21.1871 35.0168 20.1133 35.2231 18.9754C36.0616 14.3509 34.2363 9.85992 30.8402 7.07984C29.9492 6.35043 29.3941 5.26103 29.8382 4.19865C29.86 4.14666 29.8786 4.10302 29.8932 4.06949C29.9016 4.04994 29.9049 4.03983 29.9074 4.03223C29.9114 4.01982 29.9132 4.01408 29.9321 3.98486C30.3823 3.28717 31.6913 2.81813 32.371 3.29521C36.5623 6.23739 39.2223 11.0453 39.3625 16.2926C39.5338 19.3137 38.8788 22.3782 37.1915 25.2096C36.4476 26.4579 35.5641 27.5718 34.5728 28.5432C34.1134 27.5931 33.38 26.7624 32.4056 26.1817C32.1782 26.0462 31.945 25.9287 31.7078 25.8288C32.5047 25.0665 33.2131 24.185 33.8051 23.1915C34.0012 22.8624 34.1805 22.528 34.3431 22.1892ZM22.7943 33.1757C24.6123 33.194 26.3846 32.909 28.053 32.361C29.0384 32.0373 29.3329 30.7785 28.9609 29.8103C28.5957 28.8598 27.5372 28.4008 26.563 28.6971C24.7259 29.2557 22.7322 29.3975 20.7129 29.0313C19.9956 28.9013 19.3038 28.7124 18.6416 28.4704C17.9764 28.2164 17.3238 27.9018 16.691 27.5247C14.3269 26.1159 12.5974 24.0485 11.597 21.6962C10.6501 22.7011 9.37856 23.2993 8.04861 23.4231C8.81396 25.1646 9.88515 26.7831 11.2397 28.1899C11.2203 28.1996 11.2008 28.2091 11.1812 28.2186C12.8554 29.9379 14.9171 31.3033 17.2612 32.1637C18.9349 32.8001 20.6694 33.1451 22.3987 33.2155C22.5366 33.2211 22.6687 33.207 22.7943 33.1757ZM19.8606 0.694334C19.8686 0.664371 19.8769 0.634523 19.8853 0.604792C13.3978 1.83378 8.02641 6.93273 6.77804 13.8178C6.65364 14.5039 6.57381 15.1878 6.53647 15.8664C6.47151 17.0471 7.55576 17.6316 8.71924 17.8425C9.55318 17.9937 10.427 16.9414 10.4724 16.095C10.5004 15.5737 10.5613 15.0483 10.6569 14.5211C10.8188 13.6284 11.0719 12.7752 11.4048 11.9693C11.4463 11.9124 11.4823 11.8556 11.512 11.7998C11.6665 11.5099 11.8447 11.2295 12.0247 10.9461C12.1368 10.7698 12.2496 10.5922 12.3578 10.4106C15.0064 5.96612 19.9825 3.7644 24.8041 4.43385C24.7014 3.30122 24.9426 2.12692 25.5693 1.07524C25.6656 0.913789 25.7686 0.758956 25.878 0.610889C23.867 0.263965 21.8263 0.300616 19.8606 0.694334Z" fill="url(#paint0_radial_1609_838)"/>
</g>
<defs>
<filter id="filter0_d_1609_838" x="0.533691" y="0.373047" width="44.8555" height="44.8438" filterUnits="userSpaceOnUse" color-interpolation-filters="sRGB">
<feFlood flood-opacity="0" result="BackgroundImageFix"/>
<feColorMatrix in="SourceAlpha" type="matrix" values="0 0 0 0 0 0 0 0 0 0 0 0 0 0 0 0 0 0 127 0" result="hardAlpha"/>
<feOffset dy="6"/>
<feGaussianBlur stdDeviation="3"/>
<feColorMatrix type="matrix" values="0 0 0 0 0.364706 0 0 0 0 0.239216 0 0 0 0 1 0 0 0 0.2 0"/>
<feBlend mode="normal" in2="BackgroundImageFix" result="effect1_dropShadow_1609_838"/>
<feBlend mode="normal" in="SourceGraphic" in2="effect1_dropShadow_1609_838" result="shape"/>
</filter>
<radialGradient id="paint0_radial_1609_838" cx="0" cy="0" r="1" gradientUnits="userSpaceOnUse" gradientTransform="translate(9.35923 -10.5763) rotate(66.4303) scale(45.2964 40.5338)">
<stop stop-color="#5432FF"/>
<stop offset="1" stop-color="#7256FF"/>
</radialGradient>
</defs>
</svg>
