<svg width="42" height="43" viewBox="0 0 42 43" fill="none" xmlns="http://www.w3.org/2000/svg">
<g filter="url(#filter0_d_1609_443)">
<path fill-rule="evenodd" clip-rule="evenodd" d="M8 22V2H34V22H8ZM6 1.5C6 0.671573 6.67157 0 7.5 0H34.5C35.3284 0 36 0.671573 36 1.5V22.5C36 23.3284 35.3284 24 34.5 24H7.5C6.67157 24 6 23.3284 6 22.5V1.5ZM7.125 28C6.50368 28 6 28.5037 6 29.125C6 29.7463 6.50368 30.25 7.125 30.25H34.875C35.4963 30.25 36 29.7463 36 29.125C36 28.5037 35.4963 28 34.875 28H7.125ZM10.5 6.75C10.5 6.05109 10.5 5.70163 10.6142 5.42597C10.7664 5.05843 11.0584 4.76642 11.426 4.61418C11.7016 4.5 12.0511 4.5 12.75 4.5C13.4489 4.5 13.7984 4.5 14.074 4.61418C14.4416 4.76642 14.7336 5.05843 14.8858 5.42597C15 5.70163 15 6.05109 15 6.75V17.25C15 17.9489 15 18.2984 14.8858 18.574C14.7336 18.9416 14.4416 19.2336 14.074 19.3858C13.7984 19.5 13.4489 19.5 12.75 19.5C12.0511 19.5 11.7016 19.5 11.426 19.3858C11.0584 19.2336 10.7664 18.9416 10.6142 18.574C10.5 18.2984 10.5 17.9489 10.5 17.25V6.75ZM18.1635 5.31901C18 5.63988 18 6.05992 18 6.9V17.1C18 17.9401 18 18.3601 18.1635 18.681C18.3073 18.9632 18.5368 19.1927 18.819 19.3365C19.1399 19.5 19.5599 19.5 20.4 19.5H29.1C29.9401 19.5 30.3601 19.5 30.681 19.3365C30.9632 19.1927 31.1927 18.9632 31.3365 18.681C31.5 18.3601 31.5 17.9401 31.5 17.1V6.9C31.5 6.05992 31.5 5.63988 31.3365 5.31901C31.1927 5.03677 30.9632 4.8073 30.681 4.66349C30.3601 4.5 29.9401 4.5 29.1 4.5H20.4C19.5599 4.5 19.1399 4.5 18.819 4.66349C18.5368 4.8073 18.3073 5.03677 18.1635 5.31901Z" fill="url(#paint0_radial_1609_443)"/>
</g>
<defs>
<filter id="filter0_d_1609_443" x="0" y="0" width="42" height="42.25" filterUnits="userSpaceOnUse" color-interpolation-filters="sRGB">
<feFlood flood-opacity="0" result="BackgroundImageFix"/>
<feColorMatrix in="SourceAlpha" type="matrix" values="0 0 0 0 0 0 0 0 0 0 0 0 0 0 0 0 0 0 127 0" result="hardAlpha"/>
<feOffset dy="6"/>
<feGaussianBlur stdDeviation="3"/>
<feColorMatrix type="matrix" values="0 0 0 0 1 0 0 0 0 0.37647 0 0 0 0 0.345098 0 0 0 0.2 0"/>
<feBlend mode="normal" in2="BackgroundImageFix" result="effect1_dropShadow_1609_443"/>
<feBlend mode="normal" in="SourceGraphic" in2="effect1_dropShadow_1609_443" result="shape"/>
</filter>
<radialGradient id="paint0_radial_1609_443" cx="0" cy="0" r="1" gradientUnits="userSpaceOnUse" gradientTransform="translate(13.5 2.52083) rotate(62.6951) scale(29.5851 29.4439)">
<stop stop-color="#FF5656"/>
<stop offset="1" stop-color="#FF9061"/>
</radialGradient>
</defs>
</svg>
