<svg width="64" height="64" viewBox="0 0 64 64" fill="none" xmlns="http://www.w3.org/2000/svg">
<circle opacity="0.15" cx="32" cy="32" r="32" fill="#BB3DFF"/>
<g filter="url(#filter0_d_1531_4310)">
<path fill-rule="evenodd" clip-rule="evenodd" d="M32.1098 15.232C31.4957 15.0819 30.8659 15.0059 30.2337 15.0056H30.2341V15C29.7135 15.0014 29.1938 15.0421 28.6795 15.1219C28.1255 15.2084 27.585 15.3661 27.0715 15.591C26.5089 15.8392 25.9817 16.161 25.5037 16.5478C24.9552 16.9951 24.4843 17.5299 24.1099 18.1305C23.6389 18.8319 23.2901 19.6081 23.0782 20.426C22.8618 21.2127 22.705 22.0145 22.609 22.8248C22.4976 23.701 22.4528 24.5843 22.4751 25.4673C22.2884 25.6822 22.143 25.9298 22.0463 26.1976C21.9533 26.4675 21.8947 26.748 21.872 27.0326C21.8403 27.3965 21.8906 27.7628 22.0194 28.1046C22.0967 28.426 22.2281 28.7319 22.4081 29.0091C22.5311 29.1878 22.6751 29.351 22.8369 29.4955C22.973 29.6033 23.1273 29.6859 23.2924 29.7394C23.3933 30.1119 23.5005 30.4827 23.6139 30.8517C23.7323 31.1482 23.8529 31.4439 23.9757 31.7387C24.0827 31.9918 24.2374 32.2221 24.4314 32.4168C24.783 32.7225 25.1227 33.0417 25.4496 33.3737C25.772 33.7193 25.9578 34.1704 25.9723 34.6428C25.9992 35.0145 26.0127 35.3508 26.0127 35.6519C26.0155 35.9508 25.9562 36.247 25.8385 36.5217C25.7141 36.8282 25.5372 37.1107 25.3159 37.3566C25.0107 37.6948 24.6588 37.9877 24.2707 38.2264C23.6498 38.6357 22.9663 38.9412 22.2472 39.1309C21.4992 39.333 20.7613 39.571 20.0361 39.8438C19.3583 40.0915 18.7281 40.4541 18.1734 40.9158C17.61 41.4213 17.2642 42.1254 17.2085 42.8803C16.9945 44.097 16.945 45.3369 17.0611 46.5668C17.0586 47.1725 17.2358 47.7652 17.5703 48.2701C17.8553 48.4503 18.1749 48.569 18.5085 48.6184C19.0177 48.7349 19.6208 48.8514 20.3444 48.9667C21.0679 49.0818 21.8719 49.1916 22.7564 49.2962C23.644 49.4012 24.533 49.4942 25.4231 49.575C26.3208 49.6568 27.1785 49.7198 28.0229 49.7668C28.867 49.8137 29.604 49.8365 30.2339 49.8365C30.8638 49.8365 31.6141 49.8137 32.4718 49.7668C33.3751 49.7174 34.2775 49.6534 35.1787 49.575C36.1166 49.4935 37.6865 49.3264 38.6054 49.1838C38.5753 49.166 38.5602 49.1571 38.545 49.1483C38.5298 49.1395 38.5145 49.1309 38.4838 49.1136C38.275 48.9909 38.0692 48.8631 37.8665 48.7303C37.8665 48.7303 37.6728 48.5961 37.4914 48.4664C37.0473 48.1346 36.7483 47.8518 36.4514 47.5707C36.4514 47.5707 36.1836 47.3203 35.7741 46.8314C35.6474 46.6856 35.4465 46.431 35.1979 46.062C35.0814 45.8846 34.9677 45.7055 34.8568 45.5246C34.5951 45.059 34.5098 44.8742 34.3396 44.5052L34.3254 44.4746C34.2094 44.1965 34.102 43.9149 34.0033 43.6302C33.8982 43.2909 33.7153 42.6611 33.6153 41.9919C33.5573 41.522 33.4693 40.6964 33.5251 39.9561C33.5259 39.9447 33.5267 39.9324 33.5276 39.9194C33.5413 39.7131 33.5682 39.3069 33.6611 38.7942C33.7528 38.2526 33.8437 37.9666 34.0708 37.2518C34.0819 37.2169 34.0933 37.1811 34.1051 37.1441C34.2632 36.7389 34.429 36.3208 34.7285 35.773C34.7106 35.4182 34.7139 34.8932 34.7766 34.5437C34.8155 34.0872 34.9986 33.655 35.2993 33.3094C35.6327 33.0069 35.9721 32.7111 36.3175 32.4223C36.5164 32.2259 36.6797 31.9964 36.8001 31.7441C36.9339 31.4534 37.0547 31.1586 37.1754 30.8571C37.2886 30.4881 37.3958 30.1173 37.4968 29.7448C37.7292 29.6671 37.9402 29.5363 38.1133 29.3628C38.312 29.1663 38.4751 28.9369 38.5956 28.6847C38.7498 28.3137 38.8448 27.9207 38.8771 27.5203C38.9171 27.2079 38.9079 26.8916 38.8502 26.582C38.8094 26.3659 38.7419 26.1557 38.6493 25.9562C38.5633 25.7809 38.4397 25.6267 38.2873 25.5047C38.2902 24.5639 38.232 23.6238 38.1133 22.6905C37.9925 21.8265 37.8088 20.9724 37.5637 20.135C37.2992 19.2497 36.8771 18.4194 36.3175 17.6841C36.0313 17.3171 35.6979 16.9895 35.3258 16.7099C34.8714 16.3687 34.3818 16.0771 33.8652 15.8403C33.302 15.5791 32.7139 15.3753 32.1098 15.232ZM43.3945 48.4014C47.7391 48.4014 51.2612 44.8792 51.2612 40.5347C51.2612 36.1899 47.7391 32.668 43.3945 32.668C39.05 32.668 35.5278 36.1901 35.5278 40.5347C35.5278 44.8792 39.05 48.4014 43.3945 48.4014Z" fill="#BB3DFF"/>
</g>
<path fill-rule="evenodd" clip-rule="evenodd" d="M39.7893 38.9502C39.3343 38.9502 38.9713 39.3081 38.9713 39.7495L38.9713 41.351C38.9713 41.7956 39.3375 42.1502 39.7893 42.1502L42.6543 42.1502C42.8795 42.1502 43.0622 42.328 43.0622 42.5467L43.0622 43.7539C43.0622 44.1937 43.3557 44.3295 43.709 44.0638L47.7336 41.0367C48.0908 40.768 48.0868 40.3295 47.7336 40.0638L43.709 37.0367C43.3518 36.768 43.0622 36.9095 43.0622 37.3466L43.0622 38.5538C43.0622 38.7728 42.8768 38.9502 42.6543 38.9502L39.7893 38.9502Z" fill="#EAD7F4"/>
<defs>
<filter id="filter0_d_1531_4310" x="11" y="15" width="46.2612" height="46.8359" filterUnits="userSpaceOnUse" color-interpolation-filters="sRGB">
<feFlood flood-opacity="0" result="BackgroundImageFix"/>
<feColorMatrix in="SourceAlpha" type="matrix" values="0 0 0 0 0 0 0 0 0 0 0 0 0 0 0 0 0 0 127 0" result="hardAlpha"/>
<feOffset dy="6"/>
<feGaussianBlur stdDeviation="3"/>
<feColorMatrix type="matrix" values="0 0 0 0 0.733333 0 0 0 0 0.239216 0 0 0 0 1 0 0 0 0.2 0"/>
<feBlend mode="normal" in2="BackgroundImageFix" result="effect1_dropShadow_1531_4310"/>
<feBlend mode="normal" in="SourceGraphic" in2="effect1_dropShadow_1531_4310" result="shape"/>
</filter>
</defs>
</svg>
