<svg width="64" height="64" viewBox="0 0 64 64" fill="none" xmlns="http://www.w3.org/2000/svg">
<circle opacity="0.15" cx="32" cy="32" r="32" fill="#0555FF"/>
<g filter="url(#filter0_d_1531_2749)">
<path fill-rule="evenodd" clip-rule="evenodd" d="M18.5 17C17.6716 17 17 17.6716 17 18.5V26C17 26.8284 17.6716 27.5 18.5 27.5H29C29.8284 27.5 30.5 26.8284 30.5 26V18.5C30.5 17.6716 29.8284 17 29 17H18.5ZM35.375 31.625V18.875H45.125V31.625H35.375ZM33.5 18.5C33.5 17.6716 34.1715 17 35 17H45.5C46.3284 17 47 17.6716 47 18.5V32C47 32.8284 46.3284 33.5 45.5 33.5H35C34.1715 33.5 33.5 32.8284 33.5 32V18.5ZM17.1744 31.298C17 31.6273 17 32.0615 17 32.9299V44.5699C17 45.4383 17 45.8725 17.1744 46.2018C17.3151 46.4675 17.5324 46.6849 17.7981 46.8256C18.1274 46.9999 18.5616 46.9999 19.43 46.9999H28.07C28.9384 46.9999 29.3726 46.9999 29.7019 46.8256C29.9676 46.6849 30.1849 46.4675 30.3256 46.2018C30.5 45.8725 30.5 45.4383 30.5 44.5699V32.9299C30.5 32.0615 30.5 31.6273 30.3256 31.298C30.1849 31.0323 29.9676 30.815 29.7019 30.6743C29.3726 30.4999 28.9384 30.4999 28.07 30.4999H19.43C18.5616 30.4999 18.1274 30.4999 17.7981 30.6743C17.5324 30.815 17.3151 31.0323 17.1744 31.298ZM33.5 38.8998C33.5 38.0597 33.5 37.6397 33.6635 37.3188C33.8073 37.0366 34.0367 36.8071 34.319 36.6633C34.6399 36.4998 35.0599 36.4998 35.9 36.4998H44.6C45.4401 36.4998 45.8601 36.4998 46.181 36.6633C46.4632 36.8071 46.6927 37.0366 46.8365 37.3188C47 37.6397 47 38.0597 47 38.8998V44.5998C47 45.4399 47 45.8599 46.8365 46.1808C46.6927 46.463 46.4632 46.6925 46.181 46.8363C45.8601 46.9998 45.4401 46.9998 44.6 46.9998H35.9C35.0599 46.9998 34.6399 46.9998 34.319 46.8363C34.0367 46.6925 33.8073 46.463 33.6635 46.1808C33.5 45.8599 33.5 45.4399 33.5 44.5998V38.8998Z" fill="url(#paint0_linear_1531_2749)"/>
</g>
<defs>
<filter id="filter0_d_1531_2749" x="11.375" y="17" width="41.25" height="41.25" filterUnits="userSpaceOnUse" color-interpolation-filters="sRGB">
<feFlood flood-opacity="0" result="BackgroundImageFix"/>
<feColorMatrix in="SourceAlpha" type="matrix" values="0 0 0 0 0 0 0 0 0 0 0 0 0 0 0 0 0 0 127 0" result="hardAlpha"/>
<feOffset dy="5.625"/>
<feGaussianBlur stdDeviation="2.8125"/>
<feComposite in2="hardAlpha" operator="out"/>
<feColorMatrix type="matrix" values="0 0 0 0 0.164706 0 0 0 0 0.435294 0 0 0 0 1 0 0 0 0.2 0"/>
<feBlend mode="normal" in2="BackgroundImageFix" result="effect1_dropShadow_1531_2749"/>
<feBlend mode="normal" in="SourceGraphic" in2="effect1_dropShadow_1531_2749" result="shape"/>
</filter>
<linearGradient id="paint0_linear_1531_2749" x1="21.4868" y1="7.21743" x2="56.0536" y2="62.6062" gradientUnits="userSpaceOnUse">
<stop stop-color="#0555FF"/>
<stop offset="1" stop-color="#4380FF"/>
</linearGradient>
</defs>
</svg>
