<svg width="64" height="64" viewBox="0 0 64 64" fill="none" xmlns="http://www.w3.org/2000/svg">
<circle opacity="0.15" cx="32" cy="32" r="32" fill="#FC790D"/>
<g filter="url(#filter0_d_1531_3361)">
<path d="M39.5441 37.1381C39.8001 37.3591 39.9538 37.6354 40.0562 37.9669C40.1074 38.2431 40.1586 38.4641 40.2098 38.7403C40.261 39.0718 40.261 38.7956 40.261 39.1271C40.261 39.4033 40.261 39.7348 40.2098 40.0111C40.2098 40.232 40.1074 40.453 40.0562 40.674C39.9026 40.7845 39.7489 40.895 39.5441 40.9503C37.2399 41.6685 34.8332 42 32.3754 42C29.9175 42 27.4597 41.7238 25.0018 41.2265C24.6946 41.1713 24.3874 41.0608 24.0801 40.895C23.8753 40.6188 23.7729 40.2873 23.7729 39.9558C23.7217 39.4586 23.7217 38.9061 23.8241 38.4088C23.8753 37.9669 24.0801 37.5801 24.3362 37.3039C24.6434 37.0276 24.9506 36.8619 25.3091 36.6961C25.6675 36.5304 27.4597 35.8674 27.8693 35.7569C28.2278 35.6464 28.5862 35.4807 28.9446 35.2597C29.1494 35.1492 29.3543 34.9834 29.5079 34.7624C29.6103 34.5967 29.7127 34.4862 29.8151 34.2652C29.8663 34.0994 29.9175 33.9337 29.9175 33.768V33.2155C29.9175 32.9392 29.8151 32.663 29.6615 32.4972L29.1494 31.9448C29.047 31.8343 28.9446 31.7238 28.8934 31.558C28.8422 31.3923 28.7398 31.2265 28.6886 31.0608L28.535 30.3425C28.4326 30.2873 28.3814 30.2873 28.279 30.232C28.1765 30.1215 28.1253 30.0663 28.0741 29.9558C27.9717 29.7901 27.9205 29.6243 27.8693 29.4586C27.8181 29.2376 27.7669 29.0718 27.8181 28.8508C27.8693 28.6851 27.8693 28.5746 27.9717 28.4088C28.0229 28.2431 28.0741 28.1326 28.1765 27.9669C28.1253 27.0276 28.2278 26.0331 28.4326 25.0939C28.535 24.6519 28.7398 24.2099 28.9446 23.8232C29.3031 23.1602 29.9175 22.663 30.5832 22.3867C30.8392 22.2762 31.0952 22.1657 31.4025 22.1105C31.6585 22.0552 31.9145 22.0552 32.2218 22C32.529 22 32.8874 22.0552 33.1947 22.1105C33.5019 22.221 33.8091 22.3315 34.0652 22.442C34.3212 22.5525 34.5772 22.7182 34.782 22.9392C34.9869 23.105 35.1405 23.2707 35.2941 23.4917C35.6013 23.9337 35.8061 24.3757 35.9598 24.8729C36.1134 25.3149 36.2158 25.8122 36.267 26.3094C36.3182 26.8066 36.3694 27.3591 36.3694 27.9116C36.4718 27.9669 36.523 28.1326 36.523 28.1326C36.523 28.1326 36.6254 28.3536 36.6254 28.4641C36.6766 28.6298 36.6766 28.7956 36.6254 29.0166C36.6254 29.2376 36.5742 29.4586 36.4718 29.6796C36.4206 29.8453 36.3182 29.9558 36.2158 30.0663C36.1134 30.1768 36.0622 30.232 35.9085 30.2873C35.8573 30.5083 35.8061 30.7293 35.7549 30.895C35.7037 31.0608 35.6013 31.2265 35.5501 31.3923C35.4989 31.558 35.3965 31.6685 35.2941 31.779C35.1917 31.8895 35.0893 31.9448 34.9869 32.0552C34.8844 32.1105 34.8332 32.221 34.7308 32.2762C34.6796 32.3867 34.5772 32.442 34.5772 32.5525C34.4748 32.884 34.4236 33.2155 34.4236 33.547C34.4236 33.768 34.4748 33.989 34.5772 34.1547C34.6796 34.3757 34.8332 34.5967 34.9869 34.7624C35.1917 34.9834 35.4477 35.1492 35.7549 35.2597C36.0622 35.3702 36.3694 35.5359 36.7278 35.5912C37.0863 35.6464 38.4688 36.3646 38.776 36.4751C39.0321 36.7514 39.2881 36.9171 39.5441 37.1381Z" fill="url(#paint0_radial_1531_3361)"/>
</g>
<g filter="url(#filter1_d_1531_3361)">
<path fill-rule="evenodd" clip-rule="evenodd" d="M38.8453 17.2816C39.0033 17.2213 39.1719 17.1937 39.3409 17.2001L45.541 17.2003C46.2352 17.2003 46.798 17.7644 46.798 18.4552V24.6651C46.7847 24.9885 46.647 25.2944 46.4137 25.5189C46.1795 25.7443 45.8671 25.8702 45.5421 25.8702C45.217 25.8702 44.9046 25.7443 44.6704 25.5189C44.4371 25.2944 44.2995 24.9885 44.2861 24.6651V19.7122L39.3486 19.7121L39.3409 19.7124C39.1719 19.7189 39.0033 19.6912 38.8453 19.631C38.6872 19.5708 38.5429 19.4793 38.4211 19.362C38.2992 19.2447 38.2023 19.104 38.136 18.9484C38.0698 18.7928 38.0357 18.6254 38.0357 18.4563C38.0357 18.2871 38.0698 18.1197 38.136 17.9641C38.2023 17.8085 38.2992 17.6678 38.4211 17.5505C38.5429 17.4332 38.6872 17.3418 38.8453 17.2816ZM45.541 38.4109H45.5933C46.2631 38.4384 46.798 38.9912 46.798 39.6669V45.5411C46.798 46.2353 46.235 46.7981 45.5421 46.7981L39.3475 46.798L39.3399 46.7983C39.1708 46.8048 39.0023 46.7771 38.8442 46.7169C38.6861 46.6567 38.5419 46.5652 38.42 46.4479C38.2981 46.3306 38.2012 46.19 38.135 46.0343C38.0687 45.8787 38.0346 45.7113 38.0346 45.5422C38.0346 45.373 38.0687 45.2056 38.135 45.05C38.2012 44.8944 38.2981 44.7537 38.42 44.6364C38.5419 44.5191 38.6861 44.4277 38.8442 44.3675C39.0023 44.3073 39.1708 44.2797 39.3398 44.2862H44.2861V39.6679C44.2861 38.9726 44.8481 38.4109 45.541 38.4109ZM24.3457 19.7122H19.7121V24.4505C19.7121 25.1447 19.1502 25.7064 18.4572 25.7064C17.7632 25.7064 17.2002 25.1425 17.2002 24.4494V18.4573C17.2002 17.7633 17.7641 17.2003 18.4572 17.2003H24.3457C24.6691 17.2137 24.975 17.3513 25.1995 17.5846C25.4249 17.8188 25.5508 18.1312 25.5508 18.4563C25.5508 18.7813 25.4249 19.0937 25.1995 19.3279C24.975 19.5612 24.6691 19.6989 24.3457 19.7122ZM19.7121 39.6708V44.2862H24.1261C24.4495 44.2996 24.7554 44.4372 24.9799 44.6705C25.2053 44.9047 25.3312 45.2171 25.3312 45.5422C25.3312 45.8672 25.2053 46.1796 24.9799 46.4138C24.7554 46.6471 24.4495 46.7848 24.1261 46.7981H18.4572C17.7631 46.7981 17.2002 46.2342 17.2002 45.5422V39.6709C17.2136 39.3474 17.3512 39.0415 17.5845 38.817C17.8187 38.5916 18.1311 38.4657 18.4562 38.4657C18.7812 38.4657 19.0936 38.5916 19.3278 38.817C19.5611 39.0415 19.6988 39.3474 19.7121 39.6708Z" fill="url(#paint1_radial_1531_3361)"/>
</g>
<defs>
<filter id="filter0_d_1531_3361" x="17.7393" y="22" width="28.5215" height="32" filterUnits="userSpaceOnUse" color-interpolation-filters="sRGB">
<feFlood flood-opacity="0" result="BackgroundImageFix"/>
<feColorMatrix in="SourceAlpha" type="matrix" values="0 0 0 0 0 0 0 0 0 0 0 0 0 0 0 0 0 0 127 0" result="hardAlpha"/>
<feOffset dy="6"/>
<feGaussianBlur stdDeviation="3"/>
<feColorMatrix type="matrix" values="0 0 0 0 0.988235 0 0 0 0 0.47451 0 0 0 0 0.0509804 0 0 0 0.2 0"/>
<feBlend mode="normal" in2="BackgroundImageFix" result="effect1_dropShadow_1531_3361"/>
<feBlend mode="normal" in="SourceGraphic" in2="effect1_dropShadow_1531_3361" result="shape"/>
</filter>
<filter id="filter1_d_1531_3361" x="11.2002" y="17.1992" width="41.5977" height="41.5996" filterUnits="userSpaceOnUse" color-interpolation-filters="sRGB">
<feFlood flood-opacity="0" result="BackgroundImageFix"/>
<feColorMatrix in="SourceAlpha" type="matrix" values="0 0 0 0 0 0 0 0 0 0 0 0 0 0 0 0 0 0 127 0" result="hardAlpha"/>
<feOffset dy="6"/>
<feGaussianBlur stdDeviation="3"/>
<feColorMatrix type="matrix" values="0 0 0 0 0.988235 0 0 0 0 0.47451 0 0 0 0 0.0509804 0 0 0 0.2 0"/>
<feBlend mode="normal" in2="BackgroundImageFix" result="effect1_dropShadow_1531_3361"/>
<feBlend mode="normal" in="SourceGraphic" in2="effect1_dropShadow_1531_3361" result="shape"/>
</filter>
<radialGradient id="paint0_radial_1531_3361" cx="0" cy="0" r="1" gradientUnits="userSpaceOnUse" gradientTransform="translate(23.6296 32.0005) scale(16.7642 94.0887)">
<stop stop-color="#FC790D"/>
<stop offset="1" stop-color="#FF9A23"/>
</radialGradient>
<radialGradient id="paint1_radial_1531_3361" cx="0" cy="0" r="1" gradientUnits="userSpaceOnUse" gradientTransform="translate(17.0037 32) scale(30.0323 139.251)">
<stop stop-color="#FC790D"/>
<stop offset="1" stop-color="#FF9A23"/>
</radialGradient>
</defs>
</svg>
