<svg width="64" height="64" viewBox="0 0 64 64" fill="none" xmlns="http://www.w3.org/2000/svg">
<circle opacity="0.15" cx="32" cy="32" r="32" fill="#FC790D"/>
<g filter="url(#filter0_d_1531_5144)">
<path d="M32.4994 17C29.312 17.0003 26.2023 17.983 23.5937 19.8145C20.9851 21.6459 19.0045 24.2369 17.9218 27.2346C16.839 30.2323 16.7067 33.4909 17.5429 36.5664C18.3791 39.642 20.1432 42.385 22.5947 44.4219L19.6995 46.9492C19.6125 47.0319 19.5518 47.1385 19.5252 47.2556C19.4985 47.3727 19.5071 47.4951 19.5497 47.6074C19.5924 47.7196 19.6673 47.8168 19.765 47.8866C19.8627 47.9565 19.9788 47.9959 20.0989 48H32.4994C36.6104 48 40.553 46.367 43.46 43.4602C46.3669 40.5533 48 36.6109 48 32.5C48 28.3891 46.3669 24.4467 43.46 21.5398C40.553 18.633 36.6104 17 32.4994 17ZM32.4416 37.4915H30.5815L31.7112 33.2356H28.1802L27.04 37.4915H25.1694L27.7966 27.6398H29.6725L28.6216 31.5122H32.1841L33.235 27.6398H35.0951L32.4416 37.4915ZM36.4402 37.4915H34.5959L36.5978 30.041H38.4421L36.4402 37.4915ZM39.2356 27.7712C39.1469 28.0715 38.9644 28.3356 38.7148 28.5247C38.4652 28.7138 38.1615 28.818 37.8484 28.822C37.7152 28.8372 37.5803 28.818 37.4565 28.7665C37.3327 28.715 37.2241 28.6327 37.141 28.5275C37.0579 28.4223 37.003 28.2976 36.9815 28.1653C36.96 28.0329 36.9726 27.8973 37.0182 27.7712C37.1053 27.4669 37.2896 27.1996 37.5429 27.0098C37.7962 26.8201 38.1046 26.7184 38.4211 26.7203C38.5549 26.7037 38.6907 26.7222 38.8153 26.7739C38.9398 26.8256 39.0487 26.9087 39.1314 27.0152C39.2141 27.1218 39.2676 27.2479 39.2868 27.3814C39.306 27.5148 39.2901 27.651 39.2408 27.7764L39.2356 27.7712Z" fill="url(#paint0_radial_1531_5144)"/>
</g>
<defs>
<filter id="filter0_d_1531_5144" x="11" y="17" width="43" height="43" filterUnits="userSpaceOnUse" color-interpolation-filters="sRGB">
<feFlood flood-opacity="0" result="BackgroundImageFix"/>
<feColorMatrix in="SourceAlpha" type="matrix" values="0 0 0 0 0 0 0 0 0 0 0 0 0 0 0 0 0 0 127 0" result="hardAlpha"/>
<feOffset dy="6"/>
<feGaussianBlur stdDeviation="3"/>
<feColorMatrix type="matrix" values="0 0 0 0 0.988235 0 0 0 0 0.47451 0 0 0 0 0.0509804 0 0 0 0.2 0"/>
<feBlend mode="normal" in2="BackgroundImageFix" result="effect1_dropShadow_1531_5144"/>
<feBlend mode="normal" in="SourceGraphic" in2="effect1_dropShadow_1531_5144" result="shape"/>
</filter>
<radialGradient id="paint0_radial_1531_5144" cx="0" cy="0" r="1" gradientUnits="userSpaceOnUse" gradientTransform="translate(17.0038 32.5) scale(31.0356 143.893)">
<stop stop-color="#FC790D"/>
<stop offset="1" stop-color="#FF9A23"/>
</radialGradient>
</defs>
</svg>
