<svg width="64" height="64" viewBox="0 0 64 64" fill="none" xmlns="http://www.w3.org/2000/svg">
<circle opacity="0.15" cx="32" cy="32" r="32" fill="#0555FF"/>
<g filter="url(#filter0_d_1531_6357)">
<path fill-rule="evenodd" clip-rule="evenodd" d="M17.9882 17H29.7321C30.3383 17 30.8297 17.4914 30.8297 18.0976V29.878C30.8297 30.4842 30.3383 30.9756 29.7321 30.9756H17.9882C17.382 30.9756 16.8906 30.4842 16.8906 29.878V18.0976C16.8906 17.4914 17.382 17 17.9882 17ZM20.5745 19.5931C19.9683 19.5931 19.4769 20.0845 19.4769 20.6906V27.285C19.4769 27.8911 19.9683 28.3825 20.5745 28.3825H27.1458C27.752 28.3825 28.2434 27.8911 28.2434 27.285V20.6906C28.2434 20.0845 27.752 19.5931 27.1458 19.5931H20.5745ZM22.6569 21.681H25.0634C25.6695 21.681 26.1609 22.1724 26.1609 22.7785V25.1971C26.1609 25.8032 25.6695 26.2946 25.0634 26.2946H22.6569C22.0508 26.2946 21.5594 25.8032 21.5594 25.1971V22.7785C21.5594 22.1724 22.0508 21.681 22.6569 21.681ZM17.9882 33.0244H29.7321C30.3383 33.0244 30.8297 33.5158 30.8297 34.122V45.9024C30.8297 46.5086 30.3383 47 29.7321 47H17.9882C17.382 47 16.8906 46.5086 16.8906 45.9024V34.122C16.8906 33.5158 17.382 33.0244 17.9882 33.0244ZM20.5745 35.6175C19.9683 35.6175 19.4769 36.1089 19.4769 36.715V43.3094C19.4769 43.9155 19.9683 44.4069 20.5745 44.4069H27.1458C27.752 44.4069 28.2434 43.9155 28.2434 43.3094V36.715C28.2434 36.1089 27.752 35.6175 27.1458 35.6175H20.5745ZM22.6569 37.7054H25.0634C25.6695 37.7054 26.1609 38.1968 26.1609 38.8029V41.2214C26.1609 41.8276 25.6695 42.319 25.0634 42.319H22.6569C22.0508 42.319 21.5594 41.8276 21.5594 41.2214V38.8029C21.5594 38.1968 22.0508 37.7054 22.6569 37.7054ZM34.2687 17H46.0126C46.6188 17 47.1101 17.4914 47.1101 18.0976V29.878C47.1101 30.4842 46.6188 30.9756 46.0126 30.9756H34.2687C33.6625 30.9756 33.1711 30.4842 33.1711 29.878V18.0976C33.1711 17.4914 33.6625 17 34.2687 17ZM36.855 19.5931C36.2488 19.5931 35.7574 20.0845 35.7574 20.6906V27.285C35.7574 27.8911 36.2488 28.3825 36.855 28.3825H43.4263C44.0325 28.3825 44.5238 27.8911 44.5238 27.285V20.6906C44.5238 20.0845 44.0325 19.5931 43.4263 19.5931H36.855ZM38.9374 21.681H41.3438C41.95 21.681 42.4414 22.1724 42.4414 22.7785V25.1971C42.4414 25.8032 41.95 26.2946 41.3438 26.2946H38.9374C38.3313 26.2946 37.8398 25.8032 37.8398 25.1971V22.7785C37.8398 22.1724 38.3313 21.681 38.9374 21.681ZM34.2687 33.061H35.4028C36.1345 33.061 36.5004 33.4268 36.5004 34.1585V35.2927C36.5004 36.0244 36.1345 36.3902 35.4028 36.3902H34.2687C33.537 36.3902 33.1711 36.0244 33.1711 35.2927V34.1585C33.1711 33.4268 33.537 33.061 34.2687 33.061ZM46.0126 33.061H44.8784C44.1467 33.061 43.7809 33.4268 43.7809 34.1585V35.2927C43.7809 36.0244 44.1467 36.3902 44.8784 36.3902H46.0126C46.7443 36.3902 47.1101 36.0244 47.1101 35.2927V34.1585C47.1101 33.4268 46.7443 33.061 46.0126 33.061ZM34.2687 43.6707H35.4028C36.1345 43.6707 36.5004 44.0366 36.5004 44.7683V45.9024C36.5004 46.6341 36.1345 47 35.4028 47H34.2687C33.537 47 33.1711 46.6341 33.1711 45.9024V44.7683C33.1711 44.0366 33.537 43.6707 34.2687 43.6707ZM38.7321 36.3902H37.5979C36.8662 36.3902 36.5004 36.7561 36.5004 37.4878V42.5732C36.5004 43.3049 36.8662 43.6707 37.5979 43.6707H38.7321C39.4638 43.6707 39.8296 43.3049 39.8296 42.5732V37.4878C39.8296 36.7561 39.4638 36.3902 38.7321 36.3902ZM44.8784 39.7195H46.0126C46.7443 39.7195 47.1101 40.0854 47.1101 40.8171V44.7662C47.1101 44.7669 47.1101 44.7676 47.1101 44.7683L47.1101 45.9024C47.1101 46.6341 46.7443 47 46.0126 47H44.8784C44.8774 47 44.8765 47 44.8755 47H40.9272C40.321 47 39.8296 46.5086 39.8296 45.9024V44.7683C39.8296 44.1621 40.321 43.6707 40.9272 43.6707H43.7809V40.8171C43.7809 40.0854 44.1467 39.7195 44.8784 39.7195Z" fill="url(#paint0_linear_1531_6357)"/>
</g>
<defs>
<filter id="filter0_d_1531_6357" x="10.8906" y="17" width="42.2197" height="42" filterUnits="userSpaceOnUse" color-interpolation-filters="sRGB">
<feFlood flood-opacity="0" result="BackgroundImageFix"/>
<feColorMatrix in="SourceAlpha" type="matrix" values="0 0 0 0 0 0 0 0 0 0 0 0 0 0 0 0 0 0 127 0" result="hardAlpha"/>
<feOffset dy="6"/>
<feGaussianBlur stdDeviation="3"/>
<feComposite in2="hardAlpha" operator="out"/>
<feColorMatrix type="matrix" values="0 0 0 0 0.164706 0 0 0 0 0.435294 0 0 0 0 1 0 0 0 0.2 0"/>
<feBlend mode="normal" in2="BackgroundImageFix" result="effect1_dropShadow_1531_6357"/>
<feBlend mode="normal" in="SourceGraphic" in2="effect1_dropShadow_1531_6357" result="shape"/>
</filter>
<linearGradient id="paint0_linear_1531_6357" x1="24.8517" y1="17" x2="37.7304" y2="46.4842" gradientUnits="userSpaceOnUse">
<stop stop-color="#0555FF"/>
<stop offset="1" stop-color="#4380FF"/>
</linearGradient>
</defs>
</svg>
