<svg width="64" height="64" viewBox="0 0 64 64" fill="none" xmlns="http://www.w3.org/2000/svg">
<circle opacity="0.15" cx="32" cy="32" r="32" fill="#6547FF"/>
<g filter="url(#filter0_d_1531_5453)">
<path fill-rule="evenodd" clip-rule="evenodd" d="M19.1631 23.4593C19.4048 23.158 19.6793 22.8773 19.9825 22.6255C19.9841 22.6239 19.9857 22.6229 19.987 22.6221C19.9892 22.6207 19.9907 22.6198 19.9907 22.6172L20.0522 22.5635H20.0563L20.339 22.3282C20.3682 22.3047 20.3994 22.2833 20.4298 22.2625L20.4298 22.2625C20.4421 22.2541 20.4542 22.2458 20.466 22.2374H20.4619L21.8305 21.0857L21.8591 21.061L30.5538 14.126C31.4019 13.416 32.6393 13.4242 33.4793 14.1508L42.0264 21.2096L42.1043 21.2797L43.8334 22.7699H43.8375L44.0915 22.9887C44.2718 23.1456 44.4398 23.3107 44.5996 23.4841C45.5993 24.578 46.1648 26.0186 46.1648 27.5253V36.9742C46.1648 39.3272 44.7963 41.4572 42.6656 42.4231L34.3193 46.2043L34.0816 46.3117C34.055 46.3241 34.0284 46.3354 34.0018 46.3467C33.9751 46.3581 33.9485 46.3695 33.9218 46.3819C33.921 46.3819 33.9203 46.3819 33.9197 46.3819C33.9181 46.3834 33.9173 46.3838 33.9158 46.3839C33.9152 46.3844 33.9145 46.3851 33.9136 46.386C33.8966 46.3929 33.8795 46.3998 33.8624 46.4066L31.7666 47.3334L23.8259 50.4376C22.8179 50.8339 21.8428 49.7978 22.2812 48.8029L24.2315 44.4232L24.4486 43.833L21.3347 42.4231C19.204 41.4572 17.8396 39.3272 17.8396 36.9742V27.224C17.8396 25.8411 18.3149 24.5161 19.1631 23.4593ZM21.6133 33.3293C22.0312 37.3086 24.9936 39.8225 32.0002 39.9299C39.0067 39.8225 41.9732 37.3127 42.387 33.3334C42.6328 30.9722 42.4362 28.6564 42.2313 27.1662C42.092 26.1425 41.4118 25.2674 40.4489 24.9041C36.5482 23.4428 33.8849 23.3767 32.0042 23.3767C29.4516 23.3767 27.2431 23.5212 23.5473 24.9041C22.5844 25.2674 21.9042 26.1383 21.7649 27.1662C21.5641 28.6523 21.3675 30.9681 21.6133 33.3293ZM16.0941 17.1805H16.5912C16.6977 17.1805 16.79 17.2333 16.79 17.2942V26.1299H17.0978C17.1634 26.1299 17.2126 26.1836 17.2126 26.2455V34.0886C17.2126 34.1547 17.1593 34.2042 17.0978 34.2042H15.8727C15.3933 34.2042 15.0041 33.8121 15 33.3291V27.0092C15 26.5221 15.3933 26.1299 15.8727 26.1299H15.8953V17.2942C15.8953 17.2333 15.9805 17.1805 16.0941 17.1805ZM46.9021 34.2331H48.1273C48.6067 34.2331 48.9959 33.841 49 33.358V27.0381C49 26.551 48.6067 26.1588 48.1273 26.1588H46.9021C46.8366 26.1588 46.7874 26.2125 46.7874 26.2744V34.1175C46.7874 34.1836 46.8407 34.2331 46.9021 34.2331ZM28.3787 32.6716H27.1741C26.9077 32.6716 26.6906 32.4528 26.6906 32.1845V28.4116C26.6906 28.1432 26.9077 27.9245 27.1741 27.9245H28.3787C28.645 27.9245 28.8622 28.1432 28.8622 28.4116V32.1845C28.8622 32.4528 28.645 32.6716 28.3787 32.6716ZM36.8316 32.6716H35.627C35.3606 32.6716 35.1435 32.4528 35.1435 32.1845V28.4116C35.1435 28.1432 35.3606 27.9245 35.627 27.9245H36.8316C37.0979 27.9245 37.3151 28.1432 37.3151 28.4116V32.1845C37.3151 32.4528 37.0979 32.6716 36.8316 32.6716ZM32.0126 36.6805C32.8157 36.6805 33.5696 36.4287 34.09 35.9953C34.2211 35.8838 34.2416 35.6857 34.1309 35.5536C34.0203 35.4215 33.8236 35.4008 33.6925 35.5123C33.2828 35.8549 32.6723 36.053 32.0167 36.053C31.3488 36.053 30.7301 35.8508 30.3245 35.4958C30.1934 35.3843 29.9967 35.3967 29.886 35.5288C29.7754 35.6609 29.7877 35.859 29.9188 35.9705C30.431 36.4246 31.1972 36.6805 32.0126 36.6805Z" fill="url(#paint0_radial_1531_5453)"/>
</g>
<defs>
<filter id="filter0_d_1531_5453" x="8.44742" y="13.5996" width="47.1052" height="50.029" filterUnits="userSpaceOnUse" color-interpolation-filters="sRGB">
<feFlood flood-opacity="0" result="BackgroundImageFix"/>
<feColorMatrix in="SourceAlpha" type="matrix" values="0 0 0 0 0 0 0 0 0 0 0 0 0 0 0 0 0 0 127 0" result="hardAlpha"/>
<feOffset dy="6.55258"/>
<feGaussianBlur stdDeviation="3.27629"/>
<feColorMatrix type="matrix" values="0 0 0 0 0.364706 0 0 0 0 0.239216 0 0 0 0 1 0 0 0 0.2 0"/>
<feBlend mode="normal" in2="BackgroundImageFix" result="effect1_dropShadow_1531_5453"/>
<feBlend mode="normal" in="SourceGraphic" in2="effect1_dropShadow_1531_5453" result="shape"/>
</filter>
<radialGradient id="paint0_radial_1531_5453" cx="0" cy="0" r="1" gradientUnits="userSpaceOnUse" gradientTransform="translate(46.076 1.28976) rotate(111.879) scale(50.2989 42.4679)">
<stop stop-color="#5432FF"/>
<stop offset="1" stop-color="#7256FF"/>
</radialGradient>
</defs>
</svg>
