<svg width="64" height="64" viewBox="0 0 64 64" fill="none" xmlns="http://www.w3.org/2000/svg">
<circle opacity="0.15" cx="32" cy="32" r="32" fill="#0DE492"/>
<g filter="url(#filter0_d_1531_8837)">
<path d="M43.4763 22.7542C43.7467 23.0226 44.1828 23.0233 44.4541 22.7557L44.6302 22.5819C44.8037 22.4107 45.0825 22.411 45.2556 22.5825C45.4289 22.7542 45.7083 22.7542 45.8816 22.5826L46.5449 21.9256C47.0932 21.3826 47.093 20.4965 46.5444 19.9538L45.9186 19.3347C45.3783 18.8001 44.5084 18.8004 43.9683 19.3352L43.287 20.01C43.1147 20.1807 43.1146 20.4591 43.2869 20.6298C43.4591 20.8004 43.4592 21.0786 43.2872 21.2493L43.1113 21.4239C42.8425 21.6907 42.8426 22.1253 43.1113 22.392L43.4763 22.7542ZM28.8867 17.7632H35.9506C36.1321 17.7632 36.3118 17.7275 36.4794 17.6581C36.647 17.5887 36.7994 17.4869 36.9277 17.3586C37.056 17.2303 37.1578 17.078 37.2272 16.9104C37.2967 16.7427 37.3324 16.5631 37.3324 16.3816C37.3324 16.2001 37.2967 16.0205 37.2272 15.8528C37.1578 15.6852 37.056 15.5329 36.9277 15.4046C36.7994 15.2763 36.647 15.1745 36.4794 15.1051C36.3118 15.0357 36.1321 15 35.9506 15H28.8867C28.7052 15 28.5256 15.0357 28.3579 15.1051C28.1903 15.1745 28.0379 15.2763 27.9096 15.4046C27.7813 15.5329 27.6795 15.6852 27.6101 15.8528C27.5406 16.0205 27.5049 16.2001 27.5049 16.3816C27.5049 16.5631 27.5406 16.7427 27.6101 16.9104C27.6795 17.078 27.7813 17.2303 27.9096 17.3586C28.0379 17.4869 28.1903 17.5887 28.3579 17.6581C28.5256 17.7275 28.7052 17.7632 28.8867 17.7632ZM32.4172 19.3339C30.5859 19.3272 28.7713 19.6816 27.0772 20.3769C25.383 21.0721 23.8425 22.0945 22.5438 23.3856C21.2485 24.6638 20.22 26.1866 19.5181 27.8655C18.8161 29.5444 18.4546 31.3461 18.4546 33.1659C18.4546 34.9857 18.8161 36.7873 19.5181 38.4662C20.22 40.1452 21.2485 41.6679 22.5438 42.9461C25.1735 45.5431 28.7206 46.9994 32.4165 46.9994C36.1124 46.9994 39.6594 45.5431 42.2891 42.9461C43.5844 41.6679 44.6129 40.1452 45.3149 38.4662C46.0169 36.7873 46.3784 34.9857 46.3784 33.1659C46.3784 31.3461 46.0169 29.5444 45.3149 27.8655C44.6129 26.1866 43.5844 24.6638 42.2891 23.3856C40.9912 22.0936 39.4512 21.0703 37.7572 20.3746C36.0632 19.6788 34.2485 19.3242 32.4172 19.331V19.3339ZM40.1527 35.311C40.0454 35.4199 39.9174 35.5063 39.7764 35.5652C39.6353 35.6241 39.4839 35.6544 39.331 35.6542L31.6508 35.7196H31.6202C31.5212 35.7146 31.4233 35.696 31.3294 35.6644H31.3003C31.2892 35.6652 31.278 35.6652 31.2668 35.6644C31.2388 35.6629 31.2112 35.6565 31.1854 35.6455C30.973 35.5579 30.7912 35.4093 30.6631 35.2186C30.535 35.0278 30.4662 34.8034 30.4655 34.5736L30.5106 27.0199C30.514 26.7136 30.6381 26.4211 30.856 26.2057C31.0738 25.9903 31.3677 25.8695 31.674 25.8696C31.8271 25.8698 31.9786 25.9003 32.1198 25.9592C32.2611 26.0181 32.3893 26.1042 32.4972 26.2128C32.6052 26.3194 32.6906 26.4468 32.7481 26.5872C32.8055 26.7277 32.834 26.8783 32.8317 27.0301L32.7982 33.4116L39.3223 33.3564C39.6281 33.3564 39.9216 33.4767 40.1394 33.6915C40.3571 33.9062 40.4815 34.1981 40.4858 34.5038C40.488 34.6564 40.4595 34.8078 40.4017 34.949C40.344 35.0902 40.2583 35.2183 40.1498 35.3255L40.1527 35.311Z" fill="url(#paint0_linear_1531_8837)"/>
</g>
<defs>
<filter id="filter0_d_1531_8837" x="12.4546" y="15" width="40.5015" height="44" filterUnits="userSpaceOnUse" color-interpolation-filters="sRGB">
<feFlood flood-opacity="0" result="BackgroundImageFix"/>
<feColorMatrix in="SourceAlpha" type="matrix" values="0 0 0 0 0 0 0 0 0 0 0 0 0 0 0 0 0 0 127 0" result="hardAlpha"/>
<feOffset dy="6"/>
<feGaussianBlur stdDeviation="3"/>
<feColorMatrix type="matrix" values="0 0 0 0 0.0509804 0 0 0 0 0.894118 0 0 0 0 0.572549 0 0 0 0.2 0"/>
<feBlend mode="normal" in2="BackgroundImageFix" result="effect1_dropShadow_1531_8837"/>
<feBlend mode="normal" in="SourceGraphic" in2="effect1_dropShadow_1531_8837" result="shape"/>
</filter>
<linearGradient id="paint0_linear_1531_8837" x1="19.2778" y1="15.8" x2="51.2288" y2="34.7961" gradientUnits="userSpaceOnUse">
<stop stop-color="#07D988"/>
<stop offset="1" stop-color="#15F59F"/>
</linearGradient>
</defs>
</svg>
