<svg width="64" height="64" viewBox="0 0 64 64" fill="none" xmlns="http://www.w3.org/2000/svg">
<circle opacity="0.15" cx="32" cy="32" r="32" fill="#0555FF"/>
<g filter="url(#filter0_d_1531_10268)">
<path fill-rule="evenodd" clip-rule="evenodd" d="M48.1977 38.4969C48.0521 38.0299 47.8338 37.6406 47.4699 37.3293C47.3486 37.2255 47.2273 37.1303 47.106 37.0352C46.8634 36.8449 46.6208 36.6546 46.3782 36.3951C46.2227 36.3397 45.8734 36.1757 45.465 35.9839C44.7265 35.6372 43.795 35.1998 43.467 35.1496C43.1081 35.0948 42.7854 34.9627 42.4733 34.835C42.3424 34.7814 42.2133 34.7286 42.0842 34.6826C41.6475 34.5269 41.2836 34.2933 40.9925 33.982C40.7741 33.7484 40.5558 33.4371 40.4102 33.1257C40.2647 32.8922 40.1919 32.5808 40.1919 32.2694C40.1919 31.8023 40.2647 31.3353 40.4102 30.8682C40.4102 30.7739 40.4636 30.7082 40.5219 30.6364C40.5598 30.5897 40.5999 30.5404 40.6286 30.479C40.7014 30.4401 40.7559 30.3817 40.8105 30.3233C40.8651 30.2649 40.9197 30.2065 40.9925 30.1676C41.0653 30.0898 41.138 30.0314 41.2108 29.973C41.2836 29.9146 41.3564 29.8562 41.4292 29.7784C41.5747 29.6227 41.7203 29.467 41.7931 29.2335C41.8294 29.1167 41.884 29 41.9386 28.8832C41.9932 28.7664 42.0478 28.6497 42.0842 28.5329C42.1569 28.2994 42.2297 27.988 42.3025 27.6767L42.3025 27.6766C42.5209 27.5988 42.5936 27.5209 42.7392 27.3652C42.8848 27.2095 43.0303 27.0539 43.1031 26.8203C43.2486 26.5089 43.3214 26.1976 43.3214 25.8862C43.3942 25.5748 43.3942 25.3413 43.3214 25.1078C43.3214 24.9521 43.2487 24.7964 43.1759 24.6407C43.1759 24.5628 43.1031 24.4072 42.9575 24.3293C42.9575 23.5509 42.8848 22.7724 42.812 22.0718C42.7392 21.3712 42.5936 20.6706 42.3753 20.0479C42.157 19.3473 41.8658 18.7245 41.4292 18.1018C41.2108 17.7904 40.9925 17.5569 40.7014 17.3233C40.4102 17.012 40.0463 16.7784 39.6824 16.6228C39.3185 16.4671 38.8819 16.3114 38.4452 16.1557L38.4452 16.1557C38.0085 16.0778 37.499 16 37.0624 16C36.8549 16.037 36.6639 16.0564 36.4815 16.0749C36.2799 16.0954 36.0889 16.1148 35.8979 16.1557C35.4612 16.2335 35.0973 16.3892 34.7334 16.5449L34.7334 16.5449C33.7873 16.9341 32.9139 17.6347 32.4044 18.5689C32.3721 18.6294 32.3398 18.6908 32.3077 18.7531C32.3483 18.7699 32.3884 18.7868 32.428 18.8037C32.9549 19.0292 33.5109 19.3707 33.991 19.8527C34.3785 20.177 34.6919 20.5213 34.9868 20.9418C35.5414 21.7328 35.9126 22.5276 36.1825 23.3843C36.4516 24.1614 36.621 24.9992 36.7053 25.8106C36.7604 26.3407 36.8207 26.96 36.8472 27.6109C36.8949 27.7071 36.9414 27.8174 36.98 27.9399C37.052 28.1067 37.1524 28.3788 37.1992 28.6985C37.3107 29.177 37.2957 29.627 37.2185 30.0481C37.1897 30.5465 37.0666 31.0218 36.8719 31.4657C36.6547 32.0498 36.2898 32.4345 36.1527 32.5791L36.1283 32.6049L36.1155 32.6187L36.1155 32.6187C36.0889 32.6474 36.0426 32.6973 35.9818 32.7573C35.9559 32.8538 35.9289 32.9483 35.9013 33.0369C35.8249 33.2819 35.7206 33.504 35.672 33.6075L35.6626 33.6276C35.631 33.6951 35.6156 33.7297 35.6091 33.7444C35.6071 33.7488 35.606 33.7514 35.6054 33.7525C35.3972 34.4075 34.9895 34.8374 34.8426 34.9923L34.8182 35.0181C34.6498 35.1982 34.4848 35.3301 34.4118 35.3885L34.4 35.398C34.3807 35.4135 34.3678 35.424 34.3597 35.4307L34.1659 35.638L34.156 35.6432C34.1173 35.8245 34.098 35.9999 34.0957 36.171L34.1342 36.2533C34.1879 36.3682 34.2885 36.5148 34.3815 36.6143C34.4467 36.684 34.5445 36.758 34.7199 36.8205C34.8724 36.8749 35.0154 36.9326 35.1286 36.9788L35.1982 37.0073C35.2868 37.0435 35.3561 37.0719 35.4289 37.0999C35.6025 37.1667 35.6923 37.1898 35.75 37.1986C36.1408 37.2583 36.5678 37.4317 36.7974 37.5263C37.0991 37.6506 37.4362 37.8032 37.7465 37.9469C37.9187 38.0266 38.111 38.1169 38.2853 38.1987L38.2854 38.1988C38.4071 38.2559 38.5198 38.3088 38.6106 38.351C38.7342 38.4085 38.8359 38.4552 38.9159 38.4906C38.9896 38.5232 39.0191 38.5347 39.019 38.5349L39.4506 38.6888L39.7673 39.0275C39.8609 39.1276 39.9642 39.2189 40.1132 39.3384C40.1435 39.3627 40.1848 39.3952 40.2332 39.4331L40.2334 39.4333C40.3666 39.5379 40.5527 39.684 40.7056 39.8149C41.4113 40.4187 41.7929 41.153 42.0148 41.865L42.0482 41.9719L42.0687 42.0821C42.1011 42.2553 42.1338 42.4127 42.1705 42.5895L42.1717 42.5954C42.2075 42.7673 42.2471 42.9583 42.2871 43.1719L42.2924 43.2003L42.2958 43.2221L42.303 43.2453C42.3349 43.3497 42.3539 43.4431 42.3658 43.5192C42.3858 43.648 42.3892 43.756 42.3903 43.7905V43.7905L42.3903 43.7917C42.3907 43.8034 42.391 43.8158 42.3912 43.8289C44.1152 43.5858 45.8112 43.213 47.4699 42.7005C47.761 42.6227 47.9793 42.467 48.1977 42.3113L48.1977 42.3113C48.2219 42.2075 48.2543 42.1037 48.2866 41.9999C48.3513 41.7923 48.416 41.5847 48.416 41.3772C48.4888 40.9879 48.4888 40.5209 48.4888 40.1317V40.1316C48.4888 39.9025 48.4888 39.8795 48.4802 39.8603C48.4713 39.8404 48.4531 39.8246 48.416 39.5867C48.3796 39.3921 48.3432 39.217 48.3069 39.0418C48.2705 38.8667 48.2341 38.6915 48.1977 38.4969ZM40.4835 44.0445C40.4835 43.8369 40.4832 43.8148 40.4749 43.7963C40.4739 43.7942 40.4729 43.7921 40.4717 43.7897C40.4618 43.7704 40.4438 43.735 40.4107 43.5227C40.3743 43.3282 40.3379 43.153 40.3015 42.9779L40.3015 42.9778L40.3015 42.9778C40.2651 42.8027 40.2287 42.6275 40.1924 42.4329C40.0468 41.9659 39.8285 41.5766 39.4646 41.2653C39.3433 41.1615 39.222 41.0663 39.1007 40.9712L39.1006 40.9712C38.858 40.7809 38.6154 40.5906 38.3729 40.3311C38.2174 40.2757 37.8681 40.1117 37.4597 39.9199L37.4597 39.9199C36.7212 39.5732 35.7897 39.1358 35.4617 39.0856C35.1028 39.0308 34.7801 38.8987 34.468 38.771L34.468 38.771C34.337 38.7174 34.2079 38.6646 34.0788 38.6186C33.6422 38.4629 33.2783 38.2294 32.9871 37.918C32.7688 37.6844 32.5505 37.3731 32.4049 37.0617C32.2593 36.8282 32.1866 36.5168 32.1866 36.2054C32.1866 35.7383 32.2593 35.2713 32.4049 34.8042C32.4049 34.7466 32.4248 34.6997 32.4536 34.6555C32.4372 34.6648 32.4208 34.6738 32.4044 34.6826C31.895 34.9939 31.3855 35.2275 30.8761 35.3832C30.2938 35.5388 27.7465 36.473 27.2371 36.7065C26.7276 36.94 26.2909 37.1736 25.8542 37.5628C25.4903 37.952 25.1992 38.4969 25.1264 39.1197C24.9809 39.8203 24.9809 40.5987 25.0537 41.2993C25.0537 41.7664 25.1992 42.2334 25.4903 42.6227C25.927 42.8562 26.3637 43.0119 26.8004 43.0897C30.2938 43.7903 33.7873 44.1795 37.2807 44.1795C38.3559 44.1795 39.4242 44.1353 40.4835 44.0445ZM33.3113 33.8219C33.3488 33.7894 33.3863 33.7545 33.4238 33.7144C33.5694 33.5587 33.7149 33.403 33.7877 33.1695C33.8241 33.0527 33.8787 32.936 33.9333 32.8192L33.9333 32.8191C33.9879 32.7024 34.0425 32.5856 34.0788 32.4689C34.1516 32.2354 34.2244 31.9241 34.2972 31.6127L34.2972 31.6127C34.5154 31.5349 34.5882 31.457 34.7337 31.3015L34.7339 31.3012C34.8794 31.1455 35.025 30.9899 35.0978 30.7563C35.2433 30.445 35.3161 30.1336 35.3161 29.8222C35.3889 29.5108 35.3889 29.2773 35.3161 29.0438C35.3161 28.8881 35.2433 28.7324 35.1705 28.5767C35.1705 28.4989 35.0978 28.3432 34.9522 28.2653C34.9522 27.4869 34.8794 26.7084 34.8066 26.0078C34.7339 25.3072 34.5883 24.6067 34.37 23.9839C34.1516 23.2833 33.8605 22.6606 33.4238 22.0378C33.2055 21.7264 32.9871 21.4929 32.696 21.2594C32.4049 20.948 32.041 20.7144 31.6771 20.5588C31.664 20.5532 31.6508 20.5475 31.6375 20.5419C31.3726 21.8111 31.2433 23.1445 31.3127 24.4072C31.1672 24.6407 31.0944 24.7964 31.0216 25.0299C30.9195 25.1937 30.889 25.3193 30.8548 25.4602C30.8402 25.5202 30.825 25.583 30.8033 25.6527C30.7379 25.9322 30.7899 26.1491 30.8539 26.4159C30.8612 26.4462 30.8686 26.4772 30.8761 26.5089L30.8761 26.509C30.9488 26.7425 31.0216 26.976 31.1672 27.2095C31.24 27.3652 31.3127 27.4431 31.4583 27.5987L31.4583 27.5988C31.5311 27.6377 31.5857 27.6571 31.6403 27.6766C31.6948 27.6961 31.7494 27.7155 31.8222 27.7544L32.0405 28.7664C32.0769 28.8832 32.1315 29 32.1861 29.1167C32.2407 29.2335 32.2953 29.3502 32.3317 29.467C32.4044 29.7005 32.55 29.8562 32.6956 30.0119L33.4234 30.7904C33.6417 31.0239 33.7873 31.4131 33.7873 31.8023V32.5808C33.7873 32.8143 33.7145 33.0478 33.6417 33.2814C33.5447 33.489 33.4476 33.6273 33.3506 33.7657C33.3375 33.7844 33.3244 33.8031 33.3113 33.8219Z" fill="url(#paint0_linear_1531_10268)"/>
</g>
<g filter="url(#filter1_d_1531_10268)">
<path d="M39.464 41.2648C39.8279 41.5762 40.0463 41.9654 40.1918 42.4325C40.2646 42.8217 40.3374 43.1331 40.4102 43.5223C40.4829 43.9893 40.4829 43.6001 40.4829 44.0672C40.4829 44.4564 40.4829 44.9235 40.4102 45.3127C40.4102 45.6241 40.2646 45.9354 40.1918 46.2468C39.9735 46.4025 39.7551 46.5582 39.464 46.636C36.1889 47.648 32.7683 48.1151 29.2748 48.1151C25.7814 48.1151 22.288 47.7259 18.7945 47.0253C18.3578 46.9474 17.9212 46.7917 17.4845 46.5582C17.1934 46.169 17.0478 45.7019 17.0478 45.2349C16.975 44.5343 16.975 43.7558 17.1206 43.0552C17.1934 42.4325 17.4845 41.8876 17.8484 41.4983C18.2851 41.1091 18.7217 40.8756 19.2312 40.6421C19.7407 40.4085 22.288 39.4744 22.8702 39.3187C23.3797 39.163 23.8891 38.9295 24.3986 38.6181C24.6897 38.4624 24.9808 38.2289 25.1992 37.9175C25.3447 37.684 25.4903 37.5283 25.6358 37.2169C25.7086 36.9834 25.7814 36.7499 25.7814 36.5163V35.7379C25.7814 35.3487 25.6358 34.9594 25.4175 34.7259L24.6897 33.9475C24.5441 33.7918 24.3986 33.6361 24.3258 33.4026C24.253 33.169 24.1075 32.9355 24.0347 32.702L23.8163 31.69C23.6708 31.6121 23.598 31.6121 23.4524 31.5343C23.3069 31.3786 23.2341 31.3008 23.1613 31.1451C23.0158 30.9116 22.943 30.678 22.8702 30.4445C22.7974 30.1331 22.7246 29.8996 22.7974 29.5882C22.8702 29.3547 22.8702 29.199 23.0158 28.9655C23.0885 28.7319 23.1613 28.5762 23.3069 28.3427C23.2341 27.0194 23.3797 25.6182 23.6708 24.2948C23.8163 23.6721 24.1075 23.0493 24.3986 22.5044C24.908 21.5703 25.7814 20.8697 26.7275 20.4805C27.0914 20.3248 27.4553 20.1691 27.892 20.0912C28.2559 20.0134 28.6198 20.0134 29.0565 19.9355C29.4932 19.9355 30.0026 20.0134 30.4393 20.0912C30.876 20.2469 31.3127 20.4026 31.6766 20.5583C32.0405 20.714 32.4044 20.9475 32.6955 21.2589C32.9866 21.4924 33.205 21.726 33.4233 22.0373C33.86 22.6601 34.1511 23.2828 34.3694 23.9834C34.5878 24.6062 34.7333 25.3068 34.8061 26.0074C34.8789 26.708 34.9517 27.4864 34.9517 28.2649C35.0972 28.3427 35.17 28.4984 35.17 28.5762C35.2428 28.7319 35.3156 28.8876 35.3156 29.0433C35.3884 29.2768 35.3884 29.5104 35.3156 29.8217C35.3156 30.1331 35.2428 30.4445 35.0972 30.7559C35.0245 30.9894 34.8789 31.1451 34.7333 31.3008C34.5878 31.4565 34.515 31.5343 34.2967 31.6122C34.2239 31.9235 34.1511 32.2349 34.0783 32.4684C34.0055 32.702 33.86 32.9355 33.7872 33.169C33.7144 33.4026 33.5689 33.5583 33.4233 33.7139C33.2777 33.8696 33.1322 33.9475 32.9866 34.1032C32.8411 34.181 32.7683 34.3367 32.6227 34.4145C32.5499 34.5702 32.4044 34.6481 32.4044 34.8038C32.2588 35.2708 32.186 35.7379 32.186 36.2049C32.186 36.5163 32.2588 36.8277 32.4044 37.0612C32.5499 37.3726 32.7683 37.684 32.9866 37.9175C33.2777 38.2289 33.6416 38.4624 34.0783 38.6181C34.515 38.7738 34.9517 39.0073 35.4611 39.0852C35.9706 39.163 37.9356 40.175 38.3723 40.3307C38.7362 40.7199 39.1001 40.9534 39.464 41.2648Z" fill="url(#paint1_linear_1531_10268)"/>
</g>
<path d="M30.5118 45.1463C30.6573 45.0685 30.6573 44.9128 30.7301 44.7571C30.7301 44.5236 30.7301 44.3679 30.6573 44.1344C30.5846 43.823 30.5118 43.5116 30.5118 43.2002L30.2934 42.1883C30.2207 41.8769 30.1479 41.5655 30.1479 41.4098C30.2934 41.2541 30.5118 41.0984 30.5846 40.9428C30.6573 40.7871 30.7301 40.5535 30.7301 40.3978C30.7301 40.2422 30.6573 40.0865 30.5846 39.9308C30.5118 39.7751 30.3662 39.6194 30.2934 39.5416L29.8568 39.1523H28.6195C28.4739 39.308 28.3284 39.3859 28.1828 39.5416C28.11 39.6194 27.9645 39.7751 27.8917 39.9308C27.8189 40.0865 27.7461 40.2422 27.7461 40.3978C27.7461 40.5535 27.8189 40.7092 27.8917 40.8649C28.0373 41.0984 28.1828 41.2541 28.3284 41.4098C28.2556 41.6434 28.2556 41.799 28.11 42.1104C28.0373 42.4218 27.9645 42.7332 27.8917 43.1224C27.8189 43.4338 27.6734 43.823 27.6734 44.0565C27.6006 44.29 27.6006 44.5236 27.6006 44.7571C27.6006 44.9128 27.6734 45.0685 27.8189 45.1463C27.9645 45.302 28.11 45.5356 28.2556 45.6912C28.4012 45.8469 28.6195 46.0026 28.7651 46.1583C28.8378 46.2361 28.9834 46.314 29.129 46.314C29.2745 46.314 29.4201 46.2361 29.4929 46.1583C29.6384 46.0026 29.8568 45.9248 30.0023 45.6912C30.2207 45.5356 30.3662 45.3799 30.5118 45.1463Z" fill="#CFDBF4"/>
<defs>
<filter id="filter0_d_1531_10268" x="19.0059" y="16" width="35.4834" height="40.1797" filterUnits="userSpaceOnUse" color-interpolation-filters="sRGB">
<feFlood flood-opacity="0" result="BackgroundImageFix"/>
<feColorMatrix in="SourceAlpha" type="matrix" values="0 0 0 0 0 0 0 0 0 0 0 0 0 0 0 0 0 0 127 0" result="hardAlpha"/>
<feOffset dy="6"/>
<feGaussianBlur stdDeviation="3"/>
<feComposite in2="hardAlpha" operator="out"/>
<feColorMatrix type="matrix" values="0 0 0 0 0.164706 0 0 0 0 0.435294 0 0 0 0 1 0 0 0 0.2 0"/>
<feBlend mode="normal" in2="BackgroundImageFix" result="effect1_dropShadow_1531_10268"/>
<feBlend mode="normal" in="SourceGraphic" in2="effect1_dropShadow_1531_10268" result="shape"/>
</filter>
<filter id="filter1_d_1531_10268" x="11" y="19.9355" width="35.4834" height="40.1797" filterUnits="userSpaceOnUse" color-interpolation-filters="sRGB">
<feFlood flood-opacity="0" result="BackgroundImageFix"/>
<feColorMatrix in="SourceAlpha" type="matrix" values="0 0 0 0 0 0 0 0 0 0 0 0 0 0 0 0 0 0 127 0" result="hardAlpha"/>
<feOffset dy="6"/>
<feGaussianBlur stdDeviation="3"/>
<feComposite in2="hardAlpha" operator="out"/>
<feColorMatrix type="matrix" values="0 0 0 0 0.164706 0 0 0 0 0.435294 0 0 0 0 1 0 0 0 0.2 0"/>
<feBlend mode="normal" in2="BackgroundImageFix" result="effect1_dropShadow_1531_10268"/>
<feBlend mode="normal" in="SourceGraphic" in2="effect1_dropShadow_1531_10268" result="shape"/>
</filter>
<linearGradient id="paint0_linear_1531_10268" x1="28.518" y1="6.81102" x2="63.2033" y2="53.1266" gradientUnits="userSpaceOnUse">
<stop stop-color="#0555FF"/>
<stop offset="1" stop-color="#4380FF"/>
</linearGradient>
<linearGradient id="paint1_linear_1531_10268" x1="20.5121" y1="10.7466" x2="55.1975" y2="57.0621" gradientUnits="userSpaceOnUse">
<stop stop-color="#0555FF"/>
<stop offset="1" stop-color="#4380FF"/>
</linearGradient>
</defs>
</svg>
