<svg width="64" height="64" viewBox="0 0 64 64" fill="none" xmlns="http://www.w3.org/2000/svg">
<circle opacity="0.15" cx="32" cy="32" r="32" fill="#FC790D"/>
<g filter="url(#filter0_d_1531_12192)">
<path fill-rule="evenodd" clip-rule="evenodd" d="M26.318 16.4325C26.1818 16.6999 26.1818 17.0499 26.1818 17.75V25.3864C26.1818 26.0864 26.1818 26.4365 26.318 26.7039C26.4379 26.9391 26.6291 27.1303 26.8643 27.2501C27.1317 27.3864 27.4817 27.3864 28.1818 27.3864H30.5455V30.2953L23.2727 30.2953C21.6661 30.2953 20.3637 31.5978 20.3637 33.2044V36.1136H18C17.2999 36.1136 16.9499 36.1136 16.6825 36.2498C16.4473 36.3697 16.2561 36.5609 16.1362 36.7961C16 37.0635 16 37.4135 16 38.1136V45.75C16 46.45 16 46.8001 16.1362 47.0674C16.2561 47.3026 16.4473 47.4939 16.6825 47.6137C16.9499 47.75 17.2999 47.75 18 47.75H25.6364C26.3364 47.75 26.6865 47.75 26.9539 47.6137C27.1891 47.4939 27.3803 47.3026 27.5001 47.0674C27.6364 46.8001 27.6364 46.45 27.6364 45.75V38.1136C27.6364 37.4135 27.6364 37.0635 27.5001 36.7961C27.3803 36.5609 27.1891 36.3697 26.9539 36.2498C26.6865 36.1136 26.3364 36.1136 25.6364 36.1136H23.2727V33.2044H40.7273V36.1136H38.3637C37.6636 36.1136 37.3136 36.1136 37.0462 36.2498C36.811 36.3697 36.6197 36.5609 36.4999 36.7961C36.3637 37.0635 36.3637 37.4135 36.3637 38.1136V45.75C36.3637 46.45 36.3637 46.8001 36.4999 47.0674C36.6197 47.3026 36.811 47.4939 37.0462 47.6137C37.3136 47.75 37.6636 47.75 38.3637 47.75H46C46.7001 47.75 47.0501 47.75 47.3175 47.6137C47.5527 47.4939 47.7439 47.3026 47.8638 47.0674C48 46.8001 48 46.45 48 45.75V38.1136C48 37.4135 48 37.0635 47.8638 36.7961C47.7439 36.5609 47.5527 36.3697 47.3175 36.2498C47.0501 36.1136 46.7001 36.1136 46 36.1136H43.6364V33.2044C43.6364 31.5978 42.3339 30.2953 40.7273 30.2953L33.4546 30.2953V27.3864H35.8182C36.5182 27.3864 36.8683 27.3864 37.1356 27.2501C37.3708 27.1303 37.5621 26.9391 37.6819 26.7039C37.8182 26.4365 37.8182 26.0864 37.8182 25.3864V17.75C37.8182 17.0499 37.8182 16.6999 37.6819 16.4325C37.5621 16.1973 37.3708 16.0061 37.1356 15.8862C36.8683 15.75 36.5182 15.75 35.8182 15.75H28.1818C27.4817 15.75 27.1317 15.75 26.8643 15.8862C26.6291 16.0061 26.4379 16.1973 26.318 16.4325Z" fill="url(#paint0_radial_1531_12192)"/>
</g>
<defs>
<filter id="filter0_d_1531_12192" x="10" y="15.75" width="44" height="44" filterUnits="userSpaceOnUse" color-interpolation-filters="sRGB">
<feFlood flood-opacity="0" result="BackgroundImageFix"/>
<feColorMatrix in="SourceAlpha" type="matrix" values="0 0 0 0 0 0 0 0 0 0 0 0 0 0 0 0 0 0 127 0" result="hardAlpha"/>
<feOffset dy="6"/>
<feGaussianBlur stdDeviation="3"/>
<feColorMatrix type="matrix" values="0 0 0 0 0.988235 0 0 0 0 0.47451 0 0 0 0 0.0509804 0 0 0 0.2 0"/>
<feBlend mode="normal" in2="BackgroundImageFix" result="effect1_dropShadow_1531_12192"/>
<feBlend mode="normal" in="SourceGraphic" in2="effect1_dropShadow_1531_12192" result="shape"/>
</filter>
<radialGradient id="paint0_radial_1531_12192" cx="0" cy="0" r="1" gradientUnits="userSpaceOnUse" gradientTransform="translate(18.0352 31.75) scale(27.9686 129.673)">
<stop stop-color="#FC790D"/>
<stop offset="1" stop-color="#FF9A23"/>
</radialGradient>
</defs>
</svg>
