<svg width="64" height="64" viewBox="0 0 64 64" fill="none" xmlns="http://www.w3.org/2000/svg">
<circle opacity="0.15" cx="32" cy="32" r="32" fill="#0555FF"/>
<g filter="url(#filter0_d_1531_10889)">
<path fill-rule="evenodd" clip-rule="evenodd" d="M17.9877 17H29.7316C30.3378 17 30.8292 17.4914 30.8292 18.0976V29.878C30.8292 30.4842 30.3378 30.9756 29.7316 30.9756H17.9877C17.3815 30.9756 16.8901 30.4842 16.8901 29.878V18.0976C16.8901 17.4914 17.3815 17 17.9877 17ZM20.574 19.5931C19.9678 19.5931 19.4764 20.0845 19.4764 20.6906V27.285C19.4764 27.8911 19.9678 28.3825 20.574 28.3825H27.1453C27.7515 28.3825 28.2429 27.8911 28.2429 27.285V20.6906C28.2429 20.0845 27.7515 19.5931 27.1453 19.5931H20.574ZM22.6564 21.681H25.0629C25.669 21.681 26.1604 22.1724 26.1604 22.7785V25.1971C26.1604 25.8032 25.669 26.2946 25.0629 26.2946H22.6564C22.0503 26.2946 21.5589 25.8032 21.5589 25.1971V22.7785C21.5589 22.1724 22.0503 21.681 22.6564 21.681ZM17.9877 33.0244H29.7316C30.3378 33.0244 30.8292 33.5158 30.8292 34.122V45.9024C30.8292 46.5086 30.3378 47 29.7316 47H17.9877C17.3815 47 16.8901 46.5086 16.8901 45.9024V34.122C16.8901 33.5158 17.3815 33.0244 17.9877 33.0244ZM20.574 35.6175C19.9678 35.6175 19.4764 36.1089 19.4764 36.715V43.3094C19.4764 43.9155 19.9678 44.4069 20.574 44.4069H27.1453C27.7515 44.4069 28.2429 43.9155 28.2429 43.3094V36.715C28.2429 36.1089 27.7515 35.6175 27.1453 35.6175H20.574ZM22.6564 37.7054H25.0629C25.669 37.7054 26.1604 38.1968 26.1604 38.8029V41.2214C26.1604 41.8276 25.669 42.319 25.0629 42.319H22.6564C22.0503 42.319 21.5589 41.8276 21.5589 41.2214V38.8029C21.5589 38.1968 22.0503 37.7054 22.6564 37.7054ZM34.2682 17H46.0121C46.6183 17 47.1097 17.4914 47.1097 18.0976V29.878C47.1097 30.4842 46.6183 30.9756 46.0121 30.9756H34.2682C33.662 30.9756 33.1706 30.4842 33.1706 29.878V18.0976C33.1706 17.4914 33.662 17 34.2682 17ZM36.8545 19.5931C36.2483 19.5931 35.7569 20.0845 35.7569 20.6906V27.285C35.7569 27.8911 36.2483 28.3825 36.8545 28.3825H43.4258C44.032 28.3825 44.5234 27.8911 44.5234 27.285V20.6906C44.5234 20.0845 44.032 19.5931 43.4258 19.5931H36.8545ZM38.9369 21.681H41.3434C41.9495 21.681 42.4409 22.1724 42.4409 22.7785V25.1971C42.4409 25.8032 41.9495 26.2946 41.3434 26.2946H38.9369C38.3308 26.2946 37.8394 25.8032 37.8394 25.1971V22.7785C37.8394 22.1724 38.3308 21.681 38.9369 21.681ZM34.2682 33.061H35.4023C36.134 33.061 36.4999 33.4268 36.4999 34.1585V35.2927C36.4999 36.0244 36.134 36.3902 35.4023 36.3902H34.2682C33.5365 36.3902 33.1706 36.0244 33.1706 35.2927V34.1585C33.1706 33.4268 33.5365 33.061 34.2682 33.061ZM46.0121 33.061H44.8779C44.1462 33.061 43.7804 33.4268 43.7804 34.1585V35.2927C43.7804 36.0244 44.1462 36.3902 44.8779 36.3902H46.0121C46.7438 36.3902 47.1096 36.0244 47.1096 35.2927V34.1585C47.1096 33.4268 46.7438 33.061 46.0121 33.061ZM34.2682 43.6707H35.4023C36.134 43.6707 36.4999 44.0366 36.4999 44.7683V45.9024C36.4999 46.6341 36.134 47 35.4023 47H34.2682C33.5365 47 33.1706 46.6341 33.1706 45.9024V44.7683C33.1706 44.0366 33.5365 43.6707 34.2682 43.6707ZM38.7316 36.3902H37.5975C36.8657 36.3902 36.4999 36.7561 36.4999 37.4878V42.5732C36.4999 43.3049 36.8657 43.6707 37.5975 43.6707H38.7316C39.4633 43.6707 39.8292 43.3049 39.8292 42.5732V37.4878C39.8292 36.7561 39.4633 36.3902 38.7316 36.3902ZM44.8779 39.7195H46.0121C46.7438 39.7195 47.1096 40.0854 47.1096 40.8171V44.7662C47.1096 44.7669 47.1096 44.7676 47.1096 44.7683L47.1096 45.9024C47.1096 46.6341 46.7438 47 46.0121 47H44.8779C44.877 47 44.876 47 44.875 47H40.9267C40.3205 47 39.8292 46.5086 39.8292 45.9024V44.7683C39.8292 44.1621 40.3205 43.6707 40.9267 43.6707H43.7804V40.8171C43.7804 40.0854 44.1462 39.7195 44.8779 39.7195Z" fill="url(#paint0_linear_1531_10889)"/>
</g>
<defs>
<filter id="filter0_d_1531_10889" x="10.8901" y="17" width="42.2195" height="42" filterUnits="userSpaceOnUse" color-interpolation-filters="sRGB">
<feFlood flood-opacity="0" result="BackgroundImageFix"/>
<feColorMatrix in="SourceAlpha" type="matrix" values="0 0 0 0 0 0 0 0 0 0 0 0 0 0 0 0 0 0 127 0" result="hardAlpha"/>
<feOffset dy="6"/>
<feGaussianBlur stdDeviation="3"/>
<feComposite in2="hardAlpha" operator="out"/>
<feColorMatrix type="matrix" values="0 0 0 0 0.164706 0 0 0 0 0.435294 0 0 0 0 1 0 0 0 0.2 0"/>
<feBlend mode="normal" in2="BackgroundImageFix" result="effect1_dropShadow_1531_10889"/>
<feBlend mode="normal" in="SourceGraphic" in2="effect1_dropShadow_1531_10889" result="shape"/>
</filter>
<linearGradient id="paint0_linear_1531_10889" x1="24.8512" y1="17" x2="37.7299" y2="46.4842" gradientUnits="userSpaceOnUse">
<stop stop-color="#0555FF"/>
<stop offset="1" stop-color="#4380FF"/>
</linearGradient>
</defs>
</svg>
