<svg width="64" height="64" viewBox="0 0 64 64" fill="none" xmlns="http://www.w3.org/2000/svg">
<circle opacity="0.15" cx="32" cy="32" r="32" fill="#6547FF"/>
<g filter="url(#filter0_d_1531_10890)">
<path d="M47.9095 17.752L46.2462 16.0893C46.186 16.032 46.1062 16 46.0231 16C45.94 16 45.8601 16.032 45.8 16.0893L42.8148 19.0743C41.5174 18.195 39.9857 17.7261 38.4185 17.7286C36.4106 17.7286 34.4026 18.4941 32.8687 20.0273L28.8729 24.0257C28.8148 24.0847 28.7822 24.1643 28.7822 24.2472C28.7822 24.3301 28.8148 24.4096 28.8729 24.4687L39.5285 35.1279C39.5909 35.1904 39.669 35.2172 39.7516 35.2172C39.8297 35.2172 39.9122 35.1871 39.9747 35.1279L43.9716 31.1296C45.2592 29.8399 46.0584 28.1425 46.2322 26.3281C46.406 24.5137 45.9436 22.6953 44.9243 21.1845L47.9095 18.1995C47.9675 18.1397 48 18.0596 48 17.9763C48 17.8929 47.9675 17.8129 47.9095 17.7531V17.752ZM34.6224 33.3625C34.5634 33.3038 34.4836 33.2708 34.4004 33.2708C34.3172 33.2708 34.2373 33.3038 34.1784 33.3625L31.568 35.9749L28.0251 32.433L30.641 29.8162C30.6997 29.7572 30.7327 29.6773 30.7327 29.5941C30.7327 29.5108 30.6997 29.431 30.641 29.372L29.2131 27.9436C29.1541 27.8855 29.0746 27.8529 28.9917 27.8529C28.9089 27.8529 28.8293 27.8855 28.7703 27.9436L26.1544 30.5616L24.4688 28.8743C24.4394 28.8453 24.4045 28.8225 24.3662 28.8072C24.3279 28.7919 24.2869 28.7843 24.2457 28.785C24.1624 28.7855 24.0823 28.8174 24.0215 28.8743L20.029 32.8715C18.7412 34.1611 17.9419 35.8585 17.7681 37.673C17.5943 39.4874 18.0568 41.3059 19.0763 42.8166L16.0911 45.8028C16.0328 45.8617 16 45.9413 16 46.0243C16 46.1072 16.0328 46.1868 16.0911 46.2458L17.7544 47.9085C17.8169 47.9721 17.8961 48 17.9775 48C18.0607 47.9996 18.1406 47.9672 18.2006 47.9096L21.1858 44.9234C22.4831 45.8029 24.0149 46.2718 25.5821 46.2692C27.59 46.2692 29.598 45.5048 31.1319 43.9704L35.1277 39.9732C35.1864 39.9142 35.2194 39.8344 35.2194 39.7512C35.2194 39.6679 35.1864 39.5881 35.1277 39.5291L33.4421 37.8429L36.0569 35.2261C36.1157 35.1671 36.1486 35.0873 36.1486 35.004C36.1486 34.9208 36.1157 34.841 36.0569 34.782L34.6224 33.3625Z" fill="url(#paint0_radial_1531_10890)"/>
</g>
<defs>
<filter id="filter0_d_1531_10890" x="10" y="16" width="44" height="44" filterUnits="userSpaceOnUse" color-interpolation-filters="sRGB">
<feFlood flood-opacity="0" result="BackgroundImageFix"/>
<feColorMatrix in="SourceAlpha" type="matrix" values="0 0 0 0 0 0 0 0 0 0 0 0 0 0 0 0 0 0 127 0" result="hardAlpha"/>
<feOffset dy="6"/>
<feGaussianBlur stdDeviation="3"/>
<feColorMatrix type="matrix" values="0 0 0 0 0.364706 0 0 0 0 0.239216 0 0 0 0 1 0 0 0 0.2 0"/>
<feBlend mode="normal" in2="BackgroundImageFix" result="effect1_dropShadow_1531_10890"/>
<feBlend mode="normal" in="SourceGraphic" in2="effect1_dropShadow_1531_10890" result="shape"/>
</filter>
<radialGradient id="paint0_radial_1531_10890" cx="0" cy="0" r="1" gradientUnits="userSpaceOnUse" gradientTransform="translate(18.752 5.33191) rotate(66.4378) scale(44.1303 39.4809)">
<stop stop-color="#5432FF"/>
<stop offset="1" stop-color="#7256FF"/>
</radialGradient>
</defs>
</svg>
