<svg width="73" height="75" viewBox="0 0 73 75" fill="none" xmlns="http://www.w3.org/2000/svg">
    <path d="M18.704 74.056C12.6027 74.056 7.968 72.1787 4.8 68.424C1.632 64.6693 0.0480003 59.6533 0.0480003 53.376V21.784C0.0480003 15.272 1.57333 10.168 4.624 6.472C7.73333 2.77599 12.4267 0.927994 18.704 0.927994C24.864 0.927994 29.4693 2.80533 32.52 6.56C35.6293 10.256 37.184 15.3307 37.184 21.784V53.376C37.184 59.6533 35.6 64.6693 32.432 68.424C29.264 72.1787 24.688 74.056 18.704 74.056ZM18.704 63.584C22.8107 63.584 24.864 60.1227 24.864 53.2V21.96C24.864 18.8507 24.4533 16.328 23.632 14.392C22.8107 12.3973 21.168 11.4 18.704 11.4C16.1813 11.4 14.5093 12.368 13.688 14.304C12.8667 16.24 12.456 18.792 12.456 21.96V53.2C12.456 60.1227 14.5387 63.584 18.704 63.584ZM60.0351 15.184C59.4485 15.5947 57.3071 16.2693 53.6111 17.208C50.6191 18.088 49.0938 18.5573 49.0351 18.616V9.552C51.3818 8.73067 53.9338 7.616 56.6911 6.20799C59.5071 4.74133 61.5605 3.24533 62.8511 1.71999H72.2671V73H60.0351V15.184Z" fill="url(#paint0_linear_251_881)" fill-opacity="0.2" />
    <defs>
        <linearGradient id="paint0_linear_251_881" x1="44.2019" y1="-32" x2="44.2019" y2="98" gradientUnits="userSpaceOnUse">
            <stop stop-color="#364256" />
            <stop offset="1" stop-color="#364256" stop-opacity="0" />
        </linearGradient>
    </defs>
</svg>
    