<svg width="83" height="75" viewBox="0 0 83 75" fill="none" xmlns="http://www.w3.org/2000/svg">
    <path d="M18.704 74.056C12.6027 74.056 7.968 72.1787 4.8 68.424C1.632 64.6693 0.0480003 59.6533 0.0480003 53.376V21.784C0.0480003 15.272 1.57333 10.168 4.624 6.472C7.73333 2.77599 12.4267 0.927994 18.704 0.927994C24.864 0.927994 29.4693 2.80533 32.52 6.56C35.6293 10.256 37.184 15.3307 37.184 21.784V53.376C37.184 59.6533 35.6 64.6693 32.432 68.424C29.264 72.1787 24.688 74.056 18.704 74.056ZM18.704 63.584C22.8107 63.584 24.864 60.1227 24.864 53.2V21.96C24.864 18.8507 24.4533 16.328 23.632 14.392C22.8107 12.3973 21.168 11.4 18.704 11.4C16.1813 11.4 14.5093 12.368 13.688 14.304C12.8667 16.24 12.456 18.792 12.456 21.96V53.2C12.456 60.1227 14.5387 63.584 18.704 63.584ZM45.5151 64.376L63.1151 37.184L64.7871 34.632C66.7818 31.464 68.2485 28.824 69.1871 26.712C70.1845 24.5413 70.6831 22.1067 70.6831 19.408C70.6831 13.8933 68.7471 11.136 64.8751 11.136C62.1765 11.136 60.2991 12.1627 59.2431 14.216C58.1871 16.2693 57.6591 19.0267 57.6591 22.488V25.48H45.7791V22.312C45.7791 15.624 47.2751 10.4027 50.2671 6.648C53.2591 2.83466 58.0111 0.927994 64.5231 0.927994C70.5071 0.927994 75.0245 2.54133 78.0751 5.76799C81.1845 8.99466 82.7391 13.5707 82.7391 19.496C82.7391 22.2533 82.3578 24.8053 81.5951 27.152C80.8325 29.4987 79.9231 31.5813 78.8671 33.4C77.8111 35.2187 76.1685 37.8 73.9391 41.144L59.3311 63.232H80.9791V73H45.5151V64.376Z" fill="url(#paint0_linear_432_2564)" fill-opacity="0.2" />
    <defs>
        <linearGradient id="paint0_linear_432_2564" x1="44.2019" y1="-32" x2="44.2019" y2="98" gradientUnits="userSpaceOnUse">
            <stop stop-color="#364256" />
            <stop offset="1" stop-color="#364256" stop-opacity="0" />
        </linearGradient>
    </defs>
</svg>
    