<svg width="32" height="34" viewBox="0 0 32 34" fill="none" xmlns="http://www.w3.org/2000/svg">
    <path d="M31.5 24.2305C31.4993 26.3938 30.7748 28.4919 29.4463 30.1776C28.1178 31.8633 26.2651 33.0354 24.1949 33.5L23.2059 30.4724C24.1115 30.3202 24.9727 29.9649 25.7275 29.432C26.4823 28.8992 27.1118 28.2021 27.5707 27.391H23.75C22.9278 27.391 22.1393 27.0577 21.558 26.4644C20.9766 25.8711 20.65 25.0664 20.65 24.2274V17.9001C20.65 17.061 20.9766 16.2563 21.558 15.663C22.1393 15.0697 22.9278 14.7364 23.75 14.7364H28.3039C27.9256 11.6786 26.467 8.8667 24.2017 6.82836C21.9364 4.79003 19.0201 3.66535 16 3.66535C12.9799 3.66535 10.0636 4.79003 7.79829 6.82836C5.53297 8.8667 4.07435 11.6786 3.6961 14.7364H8.25C9.07217 14.7364 9.86067 15.0697 10.442 15.663C11.0234 16.2563 11.35 17.061 11.35 17.9001V24.2274C11.35 25.0664 11.0234 25.8711 10.442 26.4644C9.86067 27.0577 9.07217 27.391 8.25 27.391H3.6C2.77783 27.391 1.98933 27.0577 1.40797 26.4644C0.826606 25.8711 0.5 25.0664 0.5 24.2274V16.3182C0.5 7.58182 7.43935 0.5 16 0.5C24.5606 0.5 31.5 7.58182 31.5 16.3182V24.2305Z" fill="#0555FF" />
</svg>
    