<svg width="36" height="36" viewBox="0 0 36 36" fill="none" xmlns="http://www.w3.org/2000/svg">
    <path fill-rule="evenodd" clip-rule="evenodd" d="M14.1335 0.715533C14.7609 0.715777 15.386 0.791194 15.9954 0.940171C16.5949 1.08242 17.1785 1.28469 17.7375 1.54391C18.2501 1.77892 18.7361 2.06825 19.187 2.40693C19.5562 2.6844 19.8872 3.00949 20.1712 3.37375C20.7265 4.10346 21.1455 4.92747 21.4079 5.80611C21.6512 6.63708 21.8335 7.48472 21.9533 8.34225C22.0712 9.26848 22.1289 10.2014 22.1261 11.1351C22.2773 11.2562 22.4 11.4092 22.4853 11.5831C22.5772 11.7811 22.6442 11.9898 22.6847 12.2043C22.742 12.5115 22.7511 12.8254 22.7114 13.1354C22.6794 13.5328 22.5851 13.9228 22.432 14.291C22.3125 14.5413 22.1505 14.769 21.9533 14.964C21.7816 15.1362 21.5722 15.266 21.3416 15.3431C21.2413 15.7128 21.135 16.0808 21.0226 16.447C20.9028 16.7461 20.783 17.0387 20.6501 17.3272C20.5306 17.5776 20.3686 17.8054 20.1712 18.0003C19.8284 18.2869 19.4915 18.5804 19.1607 18.8807C18.8622 19.2237 18.6806 19.6526 18.6419 20.1056C18.5798 20.4525 18.5765 20.9735 18.5942 21.3256C18.297 21.8693 18.1324 22.2843 17.9755 22.6863L17.9415 22.7932C17.7161 23.5026 17.6259 23.7865 17.5349 24.3239C17.4427 24.8328 17.416 25.2359 17.4024 25.4406L17.4 25.4771C17.3446 26.2118 17.4318 27.0311 17.4895 27.4974C17.5887 28.1616 17.7702 28.7866 17.8745 29.1233C17.9725 29.4059 18.0791 29.6853 18.1942 29.9613L18.2082 29.9917L18.2083 29.9917C18.3772 30.3579 18.4618 30.5413 18.7215 31.0033C18.8316 31.1829 18.9444 31.3607 19.06 31.5367C19.3068 31.9029 19.5062 32.1556 19.6319 32.3003C20.0383 32.7855 20.3041 33.034 20.3041 33.034C20.5987 33.3129 20.8954 33.5936 21.3362 33.9229C21.5163 34.0516 21.7085 34.1848 21.7085 34.1848C21.9096 34.3166 22.1138 34.4434 22.3211 34.5652L22.3216 34.5654C22.3819 34.5995 22.382 34.5995 22.4418 34.6348C21.5298 34.7764 19.9718 34.9422 19.0411 35.0231C18.1467 35.1009 17.2511 35.1644 16.3546 35.2135C15.5034 35.26 14.7588 35.2826 14.1337 35.2826C13.5085 35.2826 12.7771 35.26 11.9394 35.2135C11.1014 35.1668 10.2502 35.1043 9.35934 35.0231C8.47594 34.9429 7.59368 34.8506 6.71279 34.7464C5.83496 34.6426 5.03706 34.5336 4.31909 34.4194C3.60095 34.305 3.00243 34.1894 2.49709 34.0737C2.16601 34.0247 1.84885 33.907 1.56597 33.7281C1.23398 33.227 1.05811 32.6388 1.06062 32.0377C0.94539 30.8171 0.994588 29.5866 1.2069 28.3791C1.26221 27.6299 1.60538 26.9312 2.16448 26.4294C2.71504 25.9713 3.3404 25.6114 4.01313 25.3656C4.73283 25.0948 5.46511 24.8587 6.20744 24.6581C6.92112 24.4699 7.59939 24.1667 8.2156 23.7604C8.60074 23.5236 8.95006 23.2329 9.25294 22.8972C9.47257 22.6532 9.64805 22.3729 9.77152 22.0687C9.88834 21.796 9.94723 21.5021 9.94444 21.2055C9.94444 20.9066 9.93103 20.5728 9.90439 20.204C9.88994 19.7351 9.70558 19.2875 9.38563 18.9445C9.06118 18.615 8.72409 18.2982 8.37511 17.9949C8.18261 17.8016 8.02907 17.5731 7.92287 17.3218C7.80099 17.0293 7.6813 16.7359 7.5638 16.4416C7.45125 16.0754 7.3449 15.7074 7.24478 15.3377C7.08086 15.2846 6.92776 15.2027 6.79272 15.0957C6.63211 14.9523 6.48923 14.7903 6.36713 14.613C6.18849 14.3378 6.05805 14.0342 5.98141 13.7153C5.85361 13.3761 5.80362 13.0125 5.83513 12.6515C5.8576 12.369 5.91576 12.0906 6.00805 11.8227C6.10405 11.557 6.24834 11.3113 6.43365 11.098C6.41152 10.2217 6.45594 9.34502 6.56651 8.47547C6.66178 7.67136 6.81744 6.87557 7.03216 6.09483C7.24245 5.28312 7.58865 4.51288 8.05609 3.81675C8.42762 3.22067 8.89495 2.68997 9.43927 2.24603C9.91365 1.86212 10.4369 1.54281 10.9952 1.29646C11.5049 1.07325 12.0412 0.916802 12.591 0.830987C13.1015 0.751783 13.6172 0.711326 14.1338 0.709961V0.715533H14.1335ZM35 26.0501C35 30.3618 31.5045 33.8572 27.1929 33.8572C22.8812 33.8572 19.3858 30.3618 19.3858 26.0501C19.3858 21.7385 22.8812 18.243 27.1929 18.243C31.5045 18.243 35 21.7383 35 26.0501ZM31.0579 22.3508C31.1286 22.2774 31.2564 22.1815 31.4376 22.1815C31.6187 22.1815 31.7465 22.2774 31.8173 22.3508L32.3808 22.9353C32.4534 23.0106 32.5379 23.1364 32.5379 23.3076C32.5379 23.4783 32.4538 23.6039 32.3813 23.6793L28.6482 27.5806L28.6387 27.5886C28.2998 27.8898 27.7651 27.9216 27.423 27.5668L26.34 26.4435L23.3364 29.6119C23.2657 29.6853 23.1373 29.7818 22.9561 29.7818C22.775 29.7818 22.6472 29.6859 22.5764 29.6125L22.0129 29.028C21.9158 28.9273 21.8558 28.7905 21.8558 28.6448C21.8558 28.5201 21.9042 28.3632 22.0395 28.2557L22.0344 28.261L22.1078 28.3312L22.046 28.2506L22.0395 28.2557L25.7174 24.4119L25.7269 24.4039C26.0657 24.1027 26.6004 24.0709 26.9426 24.4258L28.0256 25.5491L31.0555 22.3533L31.0579 22.3508Z" fill="#0555FF" />
</svg>
    