<svg width="100" height="110" viewBox="0 0 100 110" fill="none" xmlns="http://www.w3.org/2000/svg">
<g filter="url(#filter0_d_639_359)">
<rect x="10" width="80" height="80" rx="20" fill="url(#paint0_linear_639_359)"/>
</g>
<path fill-rule="evenodd" clip-rule="evenodd" d="M51.104 16.6788C50.4223 16.2789 49.5777 16.2789 48.896 16.6788L27.6394 29.1493C25.721 30.2748 26.5192 33.213 28.7434 33.213H31.4545V56.3948H29.2727C27.4653 56.3948 26 57.86 26 59.6675C26 61.475 27.4652 62.9403 29.2727 62.9403H70.7273C72.5347 62.9403 74 61.475 74 59.6675C74 57.86 72.5348 56.3948 70.7273 56.3948H68.5455V33.213H71.2566C73.4808 33.213 74.279 30.2748 72.3606 29.1493L51.104 16.6788Z" fill="url(#paint1_linear_639_359)"/>
<rect opacity="0.6" x="41.2729" y="47.667" width="17.4545" height="2.18182" rx="1.09091" fill="#09DD8B"/>
<rect opacity="0.6" x="41.2729" y="53.1221" width="17.4545" height="2.18182" rx="1.09091" fill="#09DD8B"/>
<path d="M49.1699 26.2215C49.4312 25.4175 50.5687 25.4175 50.8299 26.2215L52.2532 30.6019C52.3701 30.9615 52.7051 31.205 53.0832 31.205H57.6891C58.5345 31.205 58.886 32.2868 58.2021 32.7838L54.4758 35.491C54.17 35.7133 54.042 36.1072 54.1588 36.4668L55.5821 40.8472C55.8434 41.6513 54.9231 42.3199 54.2391 41.8229L50.5129 39.1157C50.207 38.8934 49.7928 38.8934 49.4869 39.1157L45.7607 41.8229C45.0767 42.3199 44.1565 41.6513 44.4177 40.8472L45.841 36.4668C45.9578 36.1072 45.8299 35.7133 45.524 35.491L41.7978 32.7838C41.1138 32.2868 41.4653 31.205 42.3107 31.205H46.9166C47.2947 31.205 47.6298 30.9615 47.7466 30.6019L49.1699 26.2215Z" fill="#08DB8A"/>
<defs>
<filter id="filter0_d_639_359" x="0" y="0" width="100" height="110" filterUnits="userSpaceOnUse" color-interpolation-filters="sRGB">
<feFlood flood-opacity="0" result="BackgroundImageFix"/>
<feColorMatrix in="SourceAlpha" type="matrix" values="0 0 0 0 0 0 0 0 0 0 0 0 0 0 0 0 0 0 127 0" result="hardAlpha"/>
<feMorphology radius="10" operator="erode" in="SourceAlpha" result="effect1_dropShadow_639_359"/>
<feOffset dy="20"/>
<feGaussianBlur stdDeviation="10"/>
<feComposite in2="hardAlpha" operator="out"/>
<feColorMatrix type="matrix" values="0 0 0 0 0.0509804 0 0 0 0 0.894118 0 0 0 0 0.572549 0 0 0 0.1 0"/>
<feBlend mode="normal" in2="BackgroundImageFix" result="effect1_dropShadow_639_359"/>
<feBlend mode="normal" in="SourceGraphic" in2="effect1_dropShadow_639_359" result="shape"/>
</filter>
<linearGradient id="paint0_linear_639_359" x1="12.2642" y1="2" x2="95.5677" y2="56.4879" gradientUnits="userSpaceOnUse">
<stop stop-color="#07D988"/>
<stop offset="1" stop-color="#15F59F"/>
</linearGradient>
<linearGradient id="paint1_linear_639_359" x1="36.0471" y1="9.72849" x2="79.4955" y2="63.0398" gradientUnits="userSpaceOnUse">
<stop stop-color="white"/>
<stop offset="1" stop-color="white" stop-opacity="0.6"/>
</linearGradient>
</defs>
</svg>
