<svg width="36" height="36" viewBox="0 0 36 36" fill="none" xmlns="http://www.w3.org/2000/svg">
    <path d="M31.7912 5.05883C31.3778 4.66652 30.8335 4.45186 30.2707 4.45186C30.2193 4.45186 30.168 4.45186 30.1167 4.45556C30.0857 4.45923 29.7272 4.48155 29.1671 4.48155C28.2387 4.48155 26.4262 4.41492 24.7093 3.98938C22.4924 3.43795 19.9338 0.8844 19.1894 0.381111C18.8142 0.125843 18.3823 0 17.9495 0C17.5186 0 17.0867 0.125843 16.7123 0.377446C16.622 0.440368 13.943 3.33797 11.3226 3.98938C9.60655 4.41492 7.75951 4.48155 6.83199 4.48155C6.27176 4.48155 5.91428 4.45923 5.87891 4.45556C5.83022 4.45186 5.78153 4.45186 5.73198 4.45186C5.1682 4.45186 4.62215 4.66648 4.20708 5.05883C3.75664 5.48438 3.5 6.08015 3.5 6.70558V12.3417C3.5 33.1764 16.9841 35.8594 17.5557 35.9666C17.6868 35.989 17.8186 36 17.9505 36C18.0815 36 18.2151 35.989 18.3443 35.9666C18.9168 35.8594 32.5 33.1764 32.5 12.3417V6.70558C32.5 6.08015 32.2425 5.48442 31.7912 5.05883ZM26.8067 13.1188L17.4584 22.5741C17.4 22.6739 17.3283 22.7739 17.2416 22.859C16.9672 23.1366 16.6043 23.2698 16.245 23.2624C15.8857 23.2698 15.5237 23.1366 15.2494 22.859C15.1627 22.7739 15.0901 22.6739 15.0317 22.5741L10.0358 17.5189C9.5039 16.9823 9.5039 16.1127 10.0358 15.5724C10.5677 15.0359 11.4306 15.0359 11.9625 15.5724L16.245 19.9059L24.881 11.1724C25.4129 10.6357 26.2749 10.6357 26.8068 11.1724C27.3386 11.7088 27.3386 12.5823 26.8067 13.1188Z" fill="#0555FF" />
</svg>
    