<svg width="92" height="85" viewBox="0 0 92 85" fill="none" xmlns="http://www.w3.org/2000/svg">
    <g filter="url(#filter0_d_432_2203)">
        <path fill-rule="evenodd" clip-rule="evenodd" d="M59.0083 42.6978C58.9269 42.6921 58.8457 42.6877 58.7646 42.6844C59.494 41.1726 60.0336 39.5383 60.3477 37.8063C61.6238 30.7677 58.8456 23.9323 53.6768 19.701C52.3207 18.5908 51.4757 16.9327 52.1517 15.3158C52.1848 15.2366 52.2132 15.1702 52.2354 15.1192C52.2482 15.0894 52.2532 15.074 52.2569 15.0625C52.263 15.0436 52.2658 15.0348 52.2945 14.9904C52.9798 13.9285 54.9722 13.2146 56.0066 13.9407C62.3852 18.4183 66.4336 25.7349 66.6478 33.7205C66.9091 38.3196 65.9123 42.9847 63.3437 47.295C62.2114 49.195 60.8667 50.8904 59.358 52.3689C58.6588 50.9228 57.5425 49.6584 56.0594 48.7746C55.7133 48.5683 55.3584 48.3895 54.9974 48.2374C56.2103 47.0771 57.2884 45.7356 58.1895 44.2235C58.488 43.7225 58.7608 43.2135 59.0083 42.6978ZM41.431 59.4196C44.1979 59.4474 46.8953 59.0136 49.4345 58.1795C50.9343 57.6869 51.3826 55.7709 50.8164 54.2973C50.2606 52.8506 48.6494 52.1521 47.1667 52.603C44.3707 53.4532 41.3361 53.669 38.2628 53.1117C37.1702 52.9136 36.1165 52.6258 35.1079 52.2571C34.0961 51.8707 33.1037 51.3921 32.1414 50.8187C28.5432 48.6744 25.9108 45.5279 24.3882 41.9475C22.947 43.4771 21.0117 44.3874 18.9875 44.576C20.1523 47.2265 21.7827 49.6898 23.8443 51.831C23.8147 51.8457 23.785 51.8603 23.7553 51.8747C26.3028 54.4908 29.4396 56.5686 33.0064 57.8783C35.5547 58.8475 38.1955 59.373 40.8287 59.4802C41.0386 59.4887 41.2398 59.4672 41.431 59.4196ZM36.9655 9.98219C36.9777 9.93656 36.9902 9.8911 37.0032 9.84582C27.1289 11.7164 18.9536 19.4771 17.0535 29.9564C16.8642 31.0006 16.7427 32.0415 16.6859 33.0744C16.587 34.8714 18.2373 35.761 20.0081 36.0821C21.2774 36.3122 22.6073 34.7105 22.6765 33.4223C22.719 32.6289 22.8118 31.8292 22.9573 31.0268C23.2036 29.6682 23.5887 28.3697 24.0954 27.1433C24.1586 27.0565 24.2136 26.9699 24.2589 26.885C24.4939 26.4437 24.7651 26.0169 25.0392 25.5856C25.2098 25.3172 25.3815 25.047 25.5462 24.7706C29.5774 18.006 37.1511 14.6549 44.4897 15.6738C44.3334 13.9499 44.7006 12.1626 45.6545 10.5619C45.8009 10.3162 45.9578 10.0805 46.1242 9.85517C43.0634 9.32713 39.9573 9.38292 36.9655 9.98219Z" fill="#BB3DFF" />
        <path d="M59.0083 42.6978L59.2337 42.8059L59.393 42.4738L59.0256 42.4483L59.0083 42.6978ZM58.7646 42.6844L58.5395 42.5757L58.374 42.9188L58.7545 42.9342L58.7646 42.6844ZM60.3477 37.8063L60.5936 37.8509L60.3477 37.8063ZM53.6768 19.701L53.8352 19.5075L53.6768 19.701ZM52.1517 15.3158L52.3824 15.4122L52.3824 15.4122L52.1517 15.3158ZM52.2353 15.1192L52.006 15.0198L52.006 15.0198L52.2353 15.1192ZM52.2569 15.0625L52.4949 15.1392L52.4949 15.1391L52.2569 15.0625ZM52.2945 14.9904L52.5046 15.1259L52.5046 15.1259L52.2945 14.9904ZM56.0066 13.9407L55.863 14.1453L56.0066 13.9407ZM66.6478 33.7206L66.3978 33.7273L66.3983 33.7348L66.6478 33.7206ZM63.3437 47.295L63.5585 47.4229L63.3437 47.295ZM59.358 52.3689L59.1329 52.4777L59.2844 52.791L59.533 52.5474L59.358 52.3689ZM56.0594 48.7746L55.9315 48.9893L56.0594 48.7746ZM54.9974 48.2374L54.8245 48.0568L54.5493 48.32L54.9003 48.4678L54.9974 48.2374ZM58.1895 44.2235L57.9748 44.0955L58.1895 44.2235ZM41.431 59.4196L41.4335 59.1696L41.4016 59.1693L41.3707 59.177L41.431 59.4196ZM49.4345 58.1795L49.5126 58.417L49.4345 58.1795ZM50.8164 54.2973L51.0498 54.2077V54.2077L50.8164 54.2973ZM47.1667 52.603L47.2394 52.8421H47.2394L47.1667 52.603ZM38.2628 53.1117L38.3074 52.8657L38.2628 53.1117ZM35.1079 52.2571L35.0186 52.4907L35.022 52.4919L35.1079 52.2571ZM32.1414 50.8187L32.0134 51.0334L32.1414 50.8187ZM24.3882 41.9475L24.6182 41.8497L24.4685 41.4977L24.2062 41.7761L24.3882 41.9475ZM18.9875 44.576L18.9643 44.3271L18.6191 44.3592L18.7586 44.6766L18.9875 44.576ZM23.8443 51.831L23.9559 52.0547L24.2605 51.9028L24.0244 51.6576L23.8443 51.831ZM23.7553 51.8747L23.6463 51.6497L23.3343 51.8008L23.5762 52.0492L23.7553 51.8747ZM33.0064 57.8783L33.0952 57.6446L33.0925 57.6436L33.0064 57.8783ZM40.8287 59.4802L40.8389 59.2304H40.8389L40.8287 59.4802ZM36.9655 9.98219L36.724 9.91756L36.6199 10.3064L37.0146 10.2273L36.9655 9.98219ZM37.0032 9.84582L37.2436 9.91444L37.3548 9.52476L36.9566 9.60018L37.0032 9.84582ZM17.0535 29.9564L16.8076 29.9118L17.0535 29.9564ZM16.6859 33.0744L16.9355 33.0881L16.6859 33.0744ZM20.0081 36.0821L20.0527 35.8361H20.0527L20.0081 36.0821ZM22.6765 33.4223L22.9261 33.4357L22.6765 33.4223ZM22.9573 31.0268L22.7113 30.9822L22.9573 31.0268ZM24.0954 27.1433L23.8933 26.9961L23.8757 27.0203L23.8643 27.0479L24.0954 27.1433ZM24.2589 26.885L24.4795 27.0025H24.4795L24.2589 26.885ZM25.0392 25.5856L25.2502 25.7197L25.0392 25.5856ZM25.5462 24.7706L25.761 24.8985V24.8985L25.5462 24.7706ZM44.4897 15.6738L44.4554 15.9214L44.7671 15.9647L44.7387 15.6512L44.4897 15.6738ZM45.6545 10.5619L45.8692 10.6899V10.6899L45.6545 10.5619ZM46.1242 9.85517L46.3253 10.0037L46.566 9.6777L46.1667 9.6088L46.1242 9.85517ZM59.0256 42.4483C58.9418 42.4425 58.8582 42.438 58.7747 42.4346L58.7545 42.9342C58.8332 42.9374 58.912 42.9417 58.991 42.9472L59.0256 42.4483ZM58.9898 42.793C59.7289 41.2611 60.2755 39.6053 60.5936 37.8509L60.1017 37.7617C59.7917 39.4713 59.2591 41.0841 58.5395 42.5757L58.9898 42.793ZM60.5936 37.8509C61.8867 30.7194 59.0714 23.7941 53.8352 19.5075L53.5184 19.8944C58.6198 24.0706 61.361 30.816 60.1017 37.7617L60.5936 37.8509ZM53.8352 19.5075C52.5195 18.4305 51.7679 16.882 52.3824 15.4122L51.9211 15.2193C51.1835 16.9834 52.1219 18.7512 53.5184 19.8944L53.8352 19.5075ZM52.3824 15.4122C52.415 15.3341 52.443 15.2687 52.4647 15.2186L52.006 15.0198C51.9835 15.0717 51.9546 15.1391 51.9211 15.2193L52.3824 15.4122ZM52.4647 15.2186C52.4818 15.1792 52.4895 15.1558 52.4949 15.1392L52.019 14.9858C52.0173 14.991 52.0164 14.9937 52.015 14.9976C52.0135 15.0017 52.0108 15.0087 52.006 15.0198L52.4647 15.2186ZM52.4949 15.1391C52.4957 15.1365 52.496 15.1357 52.4961 15.1353C52.4962 15.135 52.4959 15.136 52.4953 15.1375C52.4939 15.1413 52.4923 15.145 52.4909 15.1478C52.4898 15.1499 52.4898 15.1497 52.4921 15.1458C52.4944 15.1419 52.4983 15.1357 52.5046 15.1259L52.0845 14.8548C52.0693 14.8783 52.0552 14.9012 52.0436 14.9242C52.0295 14.9525 52.0225 14.9748 52.019 14.9858L52.4949 15.1391ZM52.5046 15.1259C52.8067 14.6578 53.4191 14.2424 54.0935 14.0339C54.7725 13.8239 55.4368 13.8461 55.863 14.1453L56.1502 13.7361C55.542 13.3091 54.6929 13.3252 53.9458 13.5562C53.1941 13.7886 52.4677 14.261 52.0845 14.8548L52.5046 15.1259ZM55.863 14.1453C62.1781 18.5783 66.1859 25.8222 66.3979 33.7273L66.8978 33.7139C66.6814 25.6477 62.5924 18.2583 56.1502 13.7361L55.863 14.1453ZM66.3983 33.7348C66.6569 38.2871 65.6704 42.9022 63.129 47.167L63.5585 47.4229C66.1541 43.0673 67.1614 38.3522 66.8974 33.7064L66.3983 33.7348ZM63.129 47.167C62.0078 49.0484 60.6765 50.7268 59.183 52.1903L59.533 52.5474C61.057 51.054 62.4151 49.3417 63.5585 47.4229L63.129 47.167ZM59.5831 52.26C58.8632 50.7712 57.7138 49.4694 56.1874 48.5598L55.9315 48.9893C57.3712 49.8473 58.4544 51.0743 59.1329 52.4777L59.5831 52.26ZM56.1874 48.5598C55.8313 48.3476 55.4661 48.1636 55.0944 48.007L54.9003 48.4678C55.2508 48.6154 55.5953 48.789 55.9315 48.9893L56.1874 48.5598ZM55.1702 48.4181C56.3992 47.2423 57.4915 45.8831 58.4043 44.3514L57.9748 44.0955C57.0853 45.588 56.0213 46.9119 54.8245 48.0568L55.1702 48.4181ZM58.4043 44.3514C58.7066 43.8441 58.983 43.3284 59.2337 42.8059L58.7829 42.5896C58.5387 43.0986 58.2694 43.601 57.9748 44.0955L58.4043 44.3514ZM41.4285 59.6696C44.2233 59.6977 46.9479 59.2595 49.5126 58.417L49.3565 57.942C46.8428 58.7677 44.1726 59.1971 41.4335 59.1696L41.4285 59.6696ZM49.5126 58.417C50.3552 58.1403 50.8913 57.4651 51.1386 56.6815C51.385 55.901 51.3525 54.9955 51.0498 54.2077L50.5831 54.387C50.8465 55.0728 50.873 55.862 50.6618 56.531C50.4516 57.197 50.0136 57.7262 49.3565 57.942L49.5126 58.417ZM51.0498 54.2077C50.4425 52.6271 48.69 51.8784 47.094 52.3638L47.2394 52.8421C48.6089 52.4257 50.0787 53.0742 50.5831 54.387L51.0498 54.2077ZM47.094 52.3638C44.3351 53.2027 41.3407 53.4157 38.3074 52.8657L38.2182 53.3577C41.3315 53.9222 44.4063 53.7037 47.2394 52.8421L47.094 52.3638ZM38.3074 52.8657C37.2289 52.6702 36.1889 52.3861 35.1937 52.0223L35.022 52.4919C36.044 52.8654 37.1115 53.1571 38.2182 53.3577L38.3074 52.8657ZM35.1971 52.0236C34.1987 51.6422 33.2192 51.1699 32.2694 50.6039L32.0134 51.0334C32.9881 51.6143 33.9935 52.0991 35.0187 52.4907L35.1971 52.0236ZM32.2694 50.6039C28.7183 48.4877 26.1208 45.3829 24.6182 41.8497L24.1581 42.0454C25.7008 45.6729 28.3681 48.8611 32.0134 51.0334L32.2694 50.6039ZM24.2062 41.7761C22.8079 43.2602 20.9295 44.144 18.9643 44.3271L19.0107 44.8249C21.0938 44.6309 23.0861 43.694 24.5701 42.119L24.2062 41.7761ZM18.7586 44.6766C19.9351 47.3535 21.5818 49.8416 23.6642 52.0044L24.0244 51.6576C21.9836 49.5381 20.3696 47.0994 19.2163 44.4754L18.7586 44.6766ZM23.7328 51.6073C23.704 51.6216 23.6752 51.6357 23.6463 51.6497L23.8642 52.0998C23.8949 52.0849 23.9254 52.0699 23.9559 52.0547L23.7328 51.6073ZM23.5762 52.0492C26.1491 54.6913 29.3175 56.7901 32.9202 58.1129L33.0925 57.6436C29.5618 56.3472 26.4565 54.2903 23.9344 51.7003L23.5762 52.0492ZM32.9175 58.1119C35.4914 59.0909 38.1589 59.6217 40.8185 59.73L40.8389 59.2304C38.2321 59.1243 35.6179 58.6041 33.0952 57.6446L32.9175 58.1119ZM40.8185 59.73C41.0522 59.7395 41.2772 59.7155 41.4914 59.6622L41.3707 59.177C41.2024 59.2189 41.0249 59.238 40.8389 59.2304L40.8185 59.73ZM37.207 10.0468C37.2188 10.0025 37.231 9.95838 37.2436 9.91444L36.7628 9.77719C36.7495 9.82381 36.7365 9.8706 36.724 9.91756L37.207 10.0468ZM36.9566 9.60018C26.9841 11.4894 18.7267 19.3273 16.8076 29.9118L17.2995 30.001C19.1805 19.6269 27.2738 11.9434 37.0497 10.0914L36.9566 9.60018ZM16.8076 29.9118C16.6164 30.9663 16.4936 32.0174 16.4362 33.0607L16.9355 33.0881C16.9918 32.0655 17.1121 31.035 17.2995 30.001L16.8076 29.9118ZM16.4362 33.0607C16.3817 34.0528 16.8159 34.7989 17.4916 35.3285C18.1575 35.8503 19.0569 36.1637 19.9635 36.3281L20.0527 35.8361C19.1884 35.6794 18.3773 35.3874 17.8001 34.9349C17.2326 34.4902 16.8912 33.893 16.9355 33.0881L16.4362 33.0607ZM19.9635 36.3281C20.7174 36.4648 21.4472 36.0548 21.9747 35.4926C22.5055 34.9268 22.8877 34.1509 22.9261 33.4357L22.4268 33.409C22.3961 33.9819 22.0787 34.6509 21.61 35.1505C21.1379 35.6537 20.568 35.9295 20.0527 35.8361L19.9635 36.3281ZM22.9261 33.4357C22.9681 32.6527 23.0597 31.8634 23.2033 31.0714L22.7113 30.9822C22.564 31.7949 22.4699 32.605 22.4268 33.409L22.9261 33.4357ZM23.2033 31.0714C23.4464 29.7304 23.8265 28.4489 24.3265 27.2388L23.8643 27.0479C23.351 28.2906 22.9608 29.6061 22.7113 30.9822L23.2033 31.0714ZM24.2975 27.2905C24.3666 27.1957 24.428 27.0992 24.4795 27.0025L24.0382 26.7674C23.9992 26.8407 23.9507 26.9173 23.8933 26.9961L24.2975 27.2905ZM24.4795 27.0025C24.7093 26.5712 24.9752 26.1525 25.2502 25.7197L24.8282 25.4516C24.555 25.8814 24.2785 26.3163 24.0382 26.7674L24.4795 27.0025ZM25.2502 25.7197C25.4205 25.4518 25.5941 25.1786 25.761 24.8985L25.3315 24.6426C25.1688 24.9155 24.9991 25.1826 24.8282 25.4516L25.2502 25.7197ZM25.761 24.8985C29.7389 18.2233 37.2127 14.9158 44.4554 15.9214L44.5241 15.4262C37.0894 14.3939 29.4159 17.7886 25.3315 24.6426L25.761 24.8985ZM44.7387 15.6512C44.587 13.9781 44.9432 12.2438 45.8692 10.6899L45.4397 10.4339C44.4579 12.0814 44.0799 13.9217 44.2408 15.6964L44.7387 15.6512ZM45.8692 10.6899C46.0114 10.4512 46.1638 10.2224 46.3253 10.0037L45.9231 9.70665C45.7518 9.93862 45.5903 10.1811 45.4397 10.4339L45.8692 10.6899ZM46.1667 9.6088C43.075 9.07545 39.9379 9.13184 36.9164 9.73706L37.0146 10.2273C39.9767 9.634 43.0517 9.57881 46.0817 10.1015L46.1667 9.6088Z" fill="#BB3DFF" />
        <g filter="url(#filter1_b_432_2203)">
            <circle cx="42.2643" cy="13.071" r="7.81074" transform="rotate(10.2048 42.2643 13.071)" fill="#BB3DFF" fill-opacity="0.3" />
            <circle cx="42.2643" cy="13.071" r="7.56074" transform="rotate(10.2048 42.2643 13.071)" stroke="#BB3DFF" stroke-opacity="0.1" stroke-width="0.5" />
        </g>
        <g filter="url(#filter2_b_432_2203)">
            <circle cx="23.0902" cy="46.1986" r="7.82733" transform="rotate(10.2048 23.0902 46.1986)" fill="#BB3DFF" fill-opacity="0.3" />
            <circle cx="23.0902" cy="46.1986" r="7.57733" transform="rotate(10.2048 23.0902 46.1986)" stroke="#BB3DFF" stroke-opacity="0.1" stroke-width="0.5" />
        </g>
        <g filter="url(#filter3_b_432_2203)">
            <circle cx="60.4512" cy="46.367" r="7.81" transform="rotate(10.2048 60.4512 46.367)" fill="#BB3DFF" fill-opacity="0.3" />
            <circle cx="60.4512" cy="46.367" r="7.56" transform="rotate(10.2048 60.4512 46.367)" stroke="#BB3DFF" stroke-opacity="0.3" stroke-width="0.5" />
        </g>
    </g>
    <defs>
        <filter id="filter0_d_432_2203" x="0.261475" y="0.258789" width="83.0011" height="84.4731" filterUnits="userSpaceOnUse" color-interpolation-filters="sRGB">
            <feFlood flood-opacity="0" result="BackgroundImageFix" />
            <feColorMatrix in="SourceAlpha" type="matrix" values="0 0 0 0 0 0 0 0 0 0 0 0 0 0 0 0 0 0 127 0" result="hardAlpha" />
            <feOffset dy="10" />
            <feGaussianBlur stdDeviation="7.5" />
            <feComposite in2="hardAlpha" operator="out" />
            <feColorMatrix type="matrix" values="0 0 0 0 0.733333 0 0 0 0 0.239216 0 0 0 0 1 0 0 0 0.3 0" />
            <feBlend mode="normal" in2="BackgroundImageFix" result="effect1_dropShadow_432_2203" />
            <feBlend mode="normal" in="SourceGraphic" in2="effect1_dropShadow_432_2203" result="shape" />
        </filter>
        <filter id="filter1_b_432_2203" x="28.4523" y="-0.741211" width="27.6241" height="27.6243" filterUnits="userSpaceOnUse" color-interpolation-filters="sRGB">
            <feFlood flood-opacity="0" result="BackgroundImageFix" />
            <feGaussianBlur in="BackgroundImage" stdDeviation="3" />
            <feComposite in2="SourceAlpha" operator="in" result="effect1_backgroundBlur_432_2203" />
            <feBlend mode="normal" in="SourceGraphic" in2="effect1_backgroundBlur_432_2203" result="shape" />
        </filter>
        <filter id="filter2_b_432_2203" x="9.26147" y="32.3699" width="27.6573" height="27.6575" filterUnits="userSpaceOnUse" color-interpolation-filters="sRGB">
            <feFlood flood-opacity="0" result="BackgroundImageFix" />
            <feGaussianBlur in="BackgroundImage" stdDeviation="3" />
            <feComposite in2="SourceAlpha" operator="in" result="effect1_backgroundBlur_432_2203" />
            <feBlend mode="normal" in="SourceGraphic" in2="effect1_backgroundBlur_432_2203" result="shape" />
        </filter>
        <filter id="filter3_b_432_2203" x="46.6399" y="32.5557" width="27.6227" height="27.6226" filterUnits="userSpaceOnUse" color-interpolation-filters="sRGB">
            <feFlood flood-opacity="0" result="BackgroundImageFix" />
            <feGaussianBlur in="BackgroundImage" stdDeviation="3" />
            <feComposite in2="SourceAlpha" operator="in" result="effect1_backgroundBlur_432_2203" />
            <feBlend mode="normal" in="SourceGraphic" in2="effect1_backgroundBlur_432_2203" result="shape" />
        </filter>
    </defs>
</svg>
    