<svg width="40" height="40" viewBox="0 0 40 40" fill="none" xmlns="http://www.w3.org/2000/svg">
  <path fill-rule="evenodd" clip-rule="evenodd"
    d="M26.7738 3.33012C26.8278 3.68061 27.0484 4.00189 27.3724 4.14601C33.4846 6.86473 37.7464 12.9904 37.7464 20.1114C37.7464 21.4199 37.6025 22.6948 37.3297 23.9211C37.2498 24.2805 37.3763 24.6528 37.6425 24.9072V24.9072C38.2277 25.4664 39.3177 25.3366 39.499 24.5478C39.8268 23.1218 40.0001 21.6369 40.0001 20.1114C40.0001 12.0223 35.1292 5.07075 28.1604 2.02992C27.4105 1.7027 26.6494 2.52148 26.7738 3.33012V3.33012ZM29.2426 35.7302C29.9277 36.1583 30.0785 37.247 29.3617 37.6195C26.644 39.0318 23.556 39.83 20.2815 39.83C17.1136 39.83 14.1201 39.0829 11.4677 37.7553C10.8011 37.4217 10.8239 36.4677 11.3823 35.974V35.974C11.7134 35.6812 12.1889 35.5986 12.5855 35.7936C14.9073 36.9352 17.5195 37.5763 20.2815 37.5763C23.1374 37.5763 25.8333 36.8909 28.2134 35.6754C28.5416 35.5079 28.9301 35.535 29.2426 35.7302V35.7302ZM2.8192 25.2109C3.17807 24.954 3.36888 24.508 3.26904 24.0782C2.97308 22.8038 2.81661 21.4759 2.81661 20.1114C2.81661 13.2373 6.78799 7.29079 12.5615 4.44105C12.8793 4.28418 13.0869 3.95329 13.1269 3.60115V3.60115C13.2192 2.78808 12.4252 2.00151 11.6889 2.35853C5.10355 5.55182 0.562988 12.3014 0.562988 20.1114C0.562988 21.6998 0.750783 23.2442 1.10538 24.7238C1.27935 25.4498 2.21221 25.6454 2.8192 25.2109V25.2109ZM4.32191 27.2154C4.32189 27.2153 4.32183 27.2153 4.32179 27.2153C3.62921 27.6976 3.08242 28.3746 2.76081 29.1671C2.76079 29.1671 2.76079 29.1672 2.76081 29.1672V29.1672C2.76087 29.1673 2.76103 29.1673 2.76108 29.1672C3.08264 28.3748 3.62937 27.6977 4.32188 27.2155C4.32191 27.2154 4.32192 27.2154 4.32191 27.2154V27.2154ZM37.2679 29.8862C37.2679 30.056 37.2157 30.221 37.1272 30.366C36.5416 31.326 35.8762 32.232 35.1402 33.0749C34.5559 33.7441 33.7745 34.2681 32.886 34.2681V34.2681C32.328 34.2681 31.7943 34.1638 31.3035 33.9736C31.1847 33.9276 31.166 33.7713 31.265 33.6911V33.6911C31.3067 33.6573 31.3617 33.645 31.4141 33.6568C31.7255 33.7271 32.0494 33.7641 32.382 33.7641C34.8021 33.7641 36.7639 31.8023 36.7639 29.3822C36.7639 28.6274 36.5731 27.9172 36.237 27.2972C36.2259 27.2766 36.2248 27.2519 36.2344 27.2305V27.2305C36.2571 27.1796 36.3255 27.1704 36.3595 27.2146C36.9291 27.9541 37.2679 28.8805 37.2679 29.8862V29.8862Z"
    fill="url(#paint0_linear_998_252)" />
  <path fill-rule="evenodd" clip-rule="evenodd"
    d="M21.2501 6.875H18.7501V13.2384C15.55 13.8262 13.1251 16.6299 13.1251 20C13.1251 21.0725 13.3707 22.0877 13.8088 22.9923L6.875 29.1253L8.53132 30.9979L15.2964 25.0141C16.5262 26.1682 18.1806 26.875 20.0001 26.875C21.7649 26.875 23.3744 26.2101 24.5917 25.117L31.2404 30.9979L32.8968 29.1253L26.1216 23.1326C26.6033 22.1932 26.8751 21.1283 26.8751 20C26.8751 16.6299 24.4503 13.8262 21.2501 13.2384V6.875Z"
    fill="#105DFF" />
  <path fill-rule="evenodd" clip-rule="evenodd"
    d="M21.2501 6.875H18.7501V13.2384C15.55 13.8262 13.1251 16.6299 13.1251 20C13.1251 21.0725 13.3707 22.0877 13.8088 22.9923L6.875 29.1253L8.53132 30.9979L15.2964 25.0141C16.5262 26.1682 18.1806 26.875 20.0001 26.875C21.7649 26.875 23.3744 26.2101 24.5917 25.117L31.2404 30.9979L32.8968 29.1253L26.1216 23.1326C26.6033 22.1932 26.8751 21.1283 26.8751 20C26.8751 16.6299 24.4503 13.8262 21.2501 13.2384V6.875Z"
    fill="url(#paint1_linear_998_252)" />
  <path fill-rule="evenodd" clip-rule="evenodd"
    d="M25 5C25 7.76142 22.7614 10 20 10C17.2386 10 15 7.76142 15 5C15 2.23858 17.2386 0 20 0C22.7614 0 25 2.23858 25 5ZM38.125 30.625C38.125 33.3864 35.8864 35.625 33.125 35.625C30.3636 35.625 28.125 33.3864 28.125 30.625C28.125 27.8636 30.3636 25.625 33.125 25.625C35.8864 25.625 38.125 27.8636 38.125 30.625ZM6.875 35.625C9.63642 35.625 11.875 33.3864 11.875 30.625C11.875 27.8636 9.63642 25.625 6.875 25.625C4.11358 25.625 1.875 27.8636 1.875 30.625C1.875 33.3864 4.11358 35.625 6.875 35.625Z"
    fill="url(#paint2_radial_998_252)" />
  <defs>
    <linearGradient id="paint0_linear_998_252" x1="1.67913" y1="3.14476" x2="41.5668" y2="30.4903"
      gradientUnits="userSpaceOnUse">
      <stop stop-color="#07D988" />
      <stop offset="1" stop-color="#15F59F" />
    </linearGradient>
    <linearGradient id="paint1_linear_998_252" x1="5.77485" y1="7.00698" x2="3.84908" y2="33.4683"
      gradientUnits="userSpaceOnUse">
      <stop stop-color="white" />
      <stop offset="1" stop-color="white" stop-opacity="0.6" />
    </linearGradient>
    <radialGradient id="paint2_radial_998_252" cx="0" cy="0" r="1" gradientUnits="userSpaceOnUse"
      gradientTransform="translate(8.23017) rotate(56.123) scale(43.0258 205.559)">
      <stop stop-color="#FC790D" />
      <stop offset="1" stop-color="#FF9A23" />
    </radialGradient>
  </defs>
</svg>