<svg width="184" height="184" viewBox="0 0 184 184" fill="none" xmlns="http://www.w3.org/2000/svg">
  <g opacity="0.06">
    <path fill-rule="evenodd" clip-rule="evenodd"
      d="M106.25 49.2124C117.032 46.4372 125 36.649 125 25C125 11.1929 113.807 0 99.9998 0C86.1927 0 74.9998 11.1929 74.9998 25C74.9998 36.649 82.9671 46.4371 93.7497 49.2124V66.1918C77.749 69.1309 65.6247 83.1496 65.6247 100C65.6247 105.363 66.8527 110.438 69.0428 114.962L48.9018 132.776C44.8075 129.848 39.7924 128.125 34.3748 128.125C20.5677 128.125 9.37482 139.318 9.37482 153.125C9.37482 166.932 20.5677 178.125 34.3748 178.125C48.1819 178.125 59.3748 166.932 59.3748 153.125C59.3748 149.268 58.5014 145.615 56.9416 142.353L76.4812 125.07C82.6299 130.841 90.9021 134.375 99.9997 134.375C108.824 134.375 116.871 131.05 122.958 125.585L142.728 143.072C141.376 146.148 140.625 149.549 140.625 153.125C140.625 166.932 151.818 178.125 165.625 178.125C179.432 178.125 190.625 166.932 190.625 153.125C190.625 139.318 179.432 128.125 165.625 128.125C159.929 128.125 154.679 130.03 150.475 133.236L130.607 115.663C133.016 110.966 134.375 105.642 134.375 100C134.375 83.1496 122.25 69.1309 106.25 66.1918V49.2124ZM65.634 18.0041C66.0954 13.9388 62.1255 10.0059 58.4441 11.7911C25.5173 27.7575 2.81445 61.5053 2.81445 100.556C2.81445 108.497 3.75342 116.22 5.5264 123.618C6.39625 127.247 11.0606 128.225 14.0955 126.053C15.8899 124.768 16.8439 122.539 16.3447 120.389C14.8649 114.017 14.0826 107.378 14.0826 100.556C14.0826 66.1851 33.9395 36.4524 62.8072 22.2036C64.3962 21.4193 65.4342 19.7649 65.634 18.0041ZM57.338 188.775C54.0051 187.107 54.119 182.337 56.911 179.868C58.5664 178.404 60.9438 177.991 62.9268 178.966C74.5358 184.674 87.5971 187.88 101.407 187.88C115.687 187.88 129.166 184.453 141.067 178.376C142.707 177.538 144.65 177.673 146.212 178.65C149.638 180.79 150.392 186.233 146.808 188.096C133.22 195.158 117.779 199.148 101.407 199.148C85.5674 199.148 70.6001 195.413 57.338 188.775ZM197.495 122.737C196.588 126.681 191.138 127.33 188.212 124.534C186.881 123.263 186.248 121.401 186.648 119.604C188.012 113.472 188.732 107.098 188.732 100.556C188.732 64.9503 167.422 34.3221 136.862 20.7284C135.242 20.0078 134.138 18.4015 133.869 16.649C133.246 12.6058 137.052 8.51193 140.801 10.148C175.645 25.3522 200 60.1097 200 100.556C200 108.183 199.134 115.608 197.495 122.737Z"
      fill="url(#paint0_linear_998_270)" />
  </g>
  <defs>
    <linearGradient id="paint0_linear_998_270" x1="101.407" y1="0" x2="101.407" y2="199.148"
      gradientUnits="userSpaceOnUse">
      <stop stop-color="#3a79ff" />
      <stop offset="1" stop-color="#3a79ff" stop-opacity="0.2" />
    </linearGradient>
  </defs>
</svg>