<svg width="105" height="30" viewBox="0 0 105 30" fill="none" xmlns="http://www.w3.org/2000/svg">
<g clip-path="url(#clip0_1008_1278)">
<path d="M87.5497 14.9997C87.6479 14.8497 87.697 14.7747 87.7461 14.7247C89.8078 12.4997 91.8695 10.2497 93.9312 7.9997C94.3239 7.5747 94.6921 7.0497 94.8884 6.4997C95.2566 5.3997 95.183 4.3497 94.7166 3.1997C94.2748 2.0747 93.6612 1.2747 92.6795 0.699703C90.9614 -0.300297 88.3597 -0.425297 86.887 1.4247C86.5925 1.8247 86.1998 2.1247 85.8807 2.4997C85.5617 2.8747 85.2671 2.9247 84.899 2.5497C84.5063 2.1497 84.0645 1.8247 83.6963 1.4247C82.15 -0.200297 80.4074 -0.275297 78.4193 0.524703C75.6704 1.6247 74.2468 5.4747 76.9712 8.2497C78.9593 10.2747 80.8246 12.3997 82.7636 14.4497C83.1072 14.7997 83.1072 15.0247 82.7636 15.3747C81.8064 16.3247 80.8737 17.2997 79.941 18.2997C78.7875 19.5497 77.6339 20.7997 76.5539 22.1247C76.0876 22.6997 75.7194 23.3997 75.5231 24.0997C75.1549 25.3747 75.5967 26.5747 76.2103 27.6997C77.5603 30.1747 80.9228 30.7997 83.0091 28.9247C83.6472 28.3747 84.2608 27.7997 84.8744 27.2247C85.1935 26.9247 85.4635 26.9247 85.758 27.2497C86.1753 27.6747 86.6171 28.0747 87.0589 28.4997C88.7769 30.1247 91.1086 30.3247 93.0476 28.9497C95.5511 27.1997 95.8702 24.0497 93.8085 21.7997C93.2931 21.2497 92.7776 20.6997 92.2622 20.1247C90.7159 18.4247 89.1451 16.7247 87.5497 14.9997ZM56.7468 8.0997C56.4277 7.8497 56.2314 7.7247 56.035 7.5747C53.6051 5.7497 50.3408 6.1247 48.3281 8.3747C47.0518 9.8247 46.61 11.5247 46.7328 13.3997C46.88 15.7747 47.8863 17.6497 49.9726 18.7497C52.1079 19.8497 54.2187 19.6497 56.2068 18.1997C56.3295 18.0997 56.4768 18.0247 56.6732 17.9247C56.6977 18.3497 56.7222 18.6747 56.7468 18.9997H59.643V6.7747H56.7468V8.0997ZM12.1991 14.1497C12.0027 14.4747 11.8309 14.7497 11.6346 15.0247C9.76923 17.7497 5.79307 17.5747 4.1977 14.6747C3.1423 12.7247 3.11776 10.6747 3.95226 8.6497C4.59041 7.0247 5.79307 6.0497 7.53571 5.8747C9.32743 5.6997 10.7265 6.3497 11.7328 7.8497C11.88 8.0747 12.0273 8.2747 12.1991 8.5497C13.0827 7.8997 13.9417 7.2747 14.7762 6.6497C12.9354 3.7997 8.66474 2.4497 5.42491 3.6247C1.81692 4.9497 -0.342973 8.4247 0.0497343 12.3247C0.393353 15.8747 3.41229 18.9747 6.99574 19.4747C10.4319 19.9247 13.7945 17.9497 14.7272 15.9997C13.8927 15.3997 13.0581 14.7747 12.1991 14.1497ZM15.9053 1.1997V19.0997H18.9733C18.9733 18.0247 18.9733 16.9497 18.9733 15.9247C18.9733 14.2997 18.9488 12.6997 19.0469 11.0997C19.1451 9.5997 20.2005 8.7247 21.7222 8.7497C23.0722 8.7747 23.8085 9.5747 23.9067 11.1497C23.9312 11.3997 23.9312 11.6497 23.9312 11.8997V16.6747V19.1247H26.6311C26.6311 16.2247 26.8765 13.2997 26.5574 10.4497C26.1647 6.7247 22.4095 5.3247 19.4642 7.6247C19.3415 7.7247 19.2187 7.7997 18.9488 8.0247V1.1997H15.9053ZM93.3913 10.3997C92.5813 11.1497 91.9677 11.7247 91.3541 12.2747C91.0105 12.5747 91.035 12.8497 91.3786 13.1497C91.845 13.5747 92.2868 14.0497 92.7776 14.4997C93.1703 14.8497 93.244 15.1247 92.8267 15.5247C92.3849 15.9247 92.0168 16.3997 91.575 16.7997C91.2805 17.0747 91.2805 17.2997 91.5259 17.5997C91.9922 18.1497 92.434 18.6997 92.8513 19.2747C93.1213 19.6247 93.3422 19.6247 93.6367 19.2997C94.1521 18.7497 94.7166 18.2497 95.2321 17.6997C95.5266 17.3997 95.723 17.3747 96.042 17.6997C96.6065 18.2247 97.1956 18.7497 97.8092 19.1747C99.6991 20.4997 102.154 19.8497 103.43 18.7997C105.05 17.4247 105.271 14.9997 104.755 13.2247C104.191 11.3247 102.301 10.0997 100.337 10.0747C98.5701 10.0497 97.0729 10.6997 95.9684 12.1497C95.6248 12.5997 95.3302 12.5997 94.9621 12.1747C94.4221 11.5497 93.8576 10.9247 93.3913 10.3997ZM79.7938 12.5247C79.1556 11.8497 78.5175 11.1497 77.8548 10.4997C77.7812 10.4247 77.4375 10.4747 77.3148 10.5747C76.8485 10.9997 76.4067 11.4747 75.9649 11.9497C75.3022 12.6247 75.2776 12.6497 74.6886 11.8997C73.5596 10.4497 72.0869 9.9497 70.3688 9.9997C68.3562 10.0497 66.5399 11.4747 65.9509 13.3747C65.3863 15.1747 66.1472 17.6997 67.5953 18.7747C68.8716 19.7247 71.596 20.3747 73.6086 18.6497C74.1486 18.1747 74.7131 17.7247 75.3758 17.1497C76.1121 17.9497 76.7994 18.7247 77.5603 19.5747C78.1739 18.8247 78.6893 18.1747 79.2293 17.5497C79.5729 17.1747 79.4747 16.8747 79.2047 16.5497C78.8366 16.1497 78.4438 15.7247 78.0511 15.3497C77.683 14.9997 77.6339 14.7497 78.0511 14.3747C78.6402 13.8747 79.1556 13.2247 79.7938 12.5247ZM34.4116 6.7247V19.0997H37.5042C37.5042 17.7497 37.5042 16.4247 37.5042 15.0997C37.5042 13.7747 37.4796 12.4497 37.5287 11.1247C37.6023 9.6497 38.6332 8.6747 40.0567 8.6497C41.3085 8.6247 42.1675 9.4497 42.3884 10.8997C42.4375 11.1747 42.4375 11.4747 42.4375 11.7747C42.4375 13.9747 42.4375 16.1747 42.4375 18.3747V19.0997H45.2356C45.2356 16.2497 45.3092 13.4497 45.211 10.6497C45.1619 9.2747 44.5974 8.0497 43.3702 7.2497C41.5539 6.0747 39.0995 6.3747 37.2096 7.9747C37.1605 7.5497 37.1114 7.1497 37.0624 6.7247H34.4116ZM29.11 6.7247C29.0855 6.8497 29.061 6.9247 29.061 6.9747C29.061 10.8747 29.061 14.7747 29.0364 18.6747C29.0364 19.0747 29.2082 19.1747 29.5518 19.1497C30.0918 19.1247 30.6563 19.0997 31.1963 19.1497C31.7608 19.1997 31.9081 18.9997 31.9081 18.4497C31.8835 14.7997 31.9081 11.1497 31.9081 7.4997C31.9081 7.2497 31.8835 7.0247 31.859 6.7497H29.11V6.7247ZM49.2363 29.4747C49.1872 29.4497 49.1381 29.4247 49.0645 29.3997C49.0645 28.9997 48.7945 28.5747 49.2608 28.1747C49.4572 28.0247 49.6044 27.7247 49.1872 27.5747C49.1136 27.5497 48.9908 27.4247 49.0154 27.3747C49.1626 26.2747 48.6718 25.0997 49.3099 24.0247C49.359 23.9497 49.2854 23.7747 49.2608 23.6247C48.4754 23.6247 47.7391 23.6247 46.9782 23.6247C46.561 23.6247 46.561 23.8497 46.6837 24.1497C46.7819 24.4247 46.9291 24.6747 46.9291 24.9497C46.9537 25.7747 46.9782 26.5997 46.9291 27.4247C46.9046 27.7997 46.7573 28.1497 46.6591 28.5247C47.0518 29.4747 47.7145 28.2997 48.3527 28.6497V29.9247C48.6718 29.7747 48.9172 29.6747 49.1872 29.5497C49.629 29.9747 49.9481 29.6747 50.1935 29.1997C50.4635 28.7247 50.7335 28.2497 51.0035 27.7497C51.3471 28.2997 51.6661 28.8247 51.9852 29.3497C52.3534 29.9247 52.6234 29.7497 52.8934 29.2247C52.2552 28.6747 51.6907 28.0497 51.5925 27.0997C51.9852 27.0747 52.3534 27.0497 52.7706 27.0247C52.7461 26.7747 52.7215 26.5747 52.697 26.3747C52.2552 26.3497 51.8625 26.3497 51.4698 26.3247C51.4452 26.1497 51.4207 26.0247 51.4207 25.8997C51.4207 25.7997 51.4452 25.6997 51.4452 25.5997C52.6479 25.3997 52.6479 25.3997 52.5743 24.8997C52.3779 24.8747 52.157 24.8247 51.887 24.7997C52.0834 24.3997 52.2552 24.0497 52.427 23.6997C52.0589 23.4497 51.838 23.3747 51.6416 23.8497C51.5189 24.2247 51.298 24.5497 51.0525 24.9997C50.488 23.4747 50.3408 23.3497 49.7026 23.7247C49.8744 24.0747 50.0217 24.4247 50.218 24.8247C49.899 24.8747 49.6535 24.8997 49.359 24.9497C49.3835 25.1747 49.4326 25.3747 49.4572 25.5997H50.7089C50.7335 25.7747 50.7335 25.8997 50.7335 26.0247C50.7335 26.1247 50.7089 26.2497 50.7089 26.3247C49.3835 26.5497 49.3835 26.5497 49.5063 27.1497H50.7089C50.1444 28.0247 49.6781 28.7497 49.2363 29.4747ZM25.9929 29.5997C25.9929 28.9497 25.9929 28.3497 25.9929 27.7497C25.9929 27.2247 25.9929 26.6747 26.0666 26.1497C26.1402 25.6497 26.5084 25.4497 26.9747 25.4497C27.441 25.4497 27.711 25.7247 27.7601 26.1997C27.7847 26.7747 27.8092 27.3747 27.8092 27.9497C27.8092 28.4997 27.8092 29.0497 27.8092 29.5997H28.9628C28.9628 29.1747 28.9382 28.7747 28.9628 28.3747C28.9873 27.6247 28.9873 26.8497 29.0855 26.0997C29.1346 25.6247 29.5273 25.4247 29.9445 25.4497C30.4109 25.4497 30.6809 25.7247 30.73 26.1997C30.7545 26.5247 30.779 26.8747 30.779 27.1997C30.779 27.9997 30.779 28.7997 30.779 29.5747H31.9081C31.9081 28.6997 31.9081 27.8747 31.9081 27.0247C31.9081 26.1497 31.9326 25.2747 31.049 24.7747C30.1409 24.2497 29.4046 24.6747 28.6928 25.2747C27.8828 24.2497 26.9502 24.4247 25.9929 25.0247C25.7475 24.2997 25.2321 24.6747 24.8148 24.5997V29.5997H25.9929ZM38.9523 24.2497H36.5469C36.4978 23.9497 36.4488 23.7247 36.3997 23.4497C36.1542 23.4747 35.9579 23.4747 35.7615 23.4997C35.7124 23.7747 35.6879 23.9997 35.6388 24.2747H33.2089V28.9247H35.6633C35.737 29.9747 35.737 29.9747 36.4488 29.7247C36.4733 29.4747 36.4978 29.1997 36.5224 28.8747H38.9523V24.2497ZM5.96488 29.5997V27.0997V24.6247C5.76853 24.6247 5.64581 24.5997 5.54763 24.5997C4.68858 24.5747 4.68858 24.5747 4.68858 25.4747C4.68858 26.2997 4.71313 27.1247 4.61495 27.9497C4.59041 28.2247 4.27133 28.5997 4.00135 28.6997C3.73136 28.7997 3.26502 28.7247 3.04412 28.5497C2.79868 28.3247 2.65142 27.8997 2.65142 27.5497C2.60233 26.5997 2.62687 25.6247 2.62687 24.6247H1.37512C1.37512 25.7497 1.32603 26.8497 1.39966 27.9497C1.4733 29.0997 2.35689 29.7997 3.51046 29.6497C3.95226 29.5997 4.34497 29.3997 4.78676 29.2497C4.95857 29.8997 5.474 29.5497 5.96488 29.5997ZM6.94665 24.4997V29.5997H8.12477C8.12477 29.1247 8.12477 28.6747 8.12477 28.2247C8.14931 27.5247 8.14931 26.8497 8.22295 26.1497C8.29658 25.6247 8.73837 25.4497 9.20471 25.4247C9.64651 25.3997 9.94104 25.6747 10.0638 26.0997C10.1128 26.3497 10.1619 26.6247 10.1619 26.8997C10.1619 27.7747 10.1619 28.6747 10.1619 29.5747H11.2419C11.2419 28.3747 11.3155 27.1997 11.2173 26.0497C11.1192 24.8747 10.1374 24.2747 9.00836 24.5997C8.73837 24.6997 8.44384 24.8747 8.12477 24.9997C8.14931 24.9497 8.14931 24.8747 8.17386 24.8247C7.78115 24.7247 7.41299 24.6247 6.94665 24.4997ZM39.934 29.5997H45.6283V23.6747H39.934V29.5997ZM21.6486 24.4997C20.2005 24.4747 19.1206 25.5497 19.0469 27.0497C18.9978 28.4747 20.1269 29.6997 21.5259 29.7497C22.9495 29.7997 24.1276 28.6247 24.1767 27.1497C24.2012 25.7247 23.0722 24.5247 21.6486 24.4997ZM56.3295 27.8247H57.0659C57.2622 28.2247 57.3604 28.7497 57.5568 28.7747C58.3176 28.8747 57.704 28.0497 58.1458 27.7997C58.1949 27.7997 58.3176 27.7497 58.4158 27.7747C58.6121 27.8247 58.784 27.8997 58.9803 27.9747C58.8576 28.0997 58.7103 28.1747 58.6367 28.3247C58.5631 28.4247 58.5631 28.6747 58.6367 28.7247C58.9558 28.9997 59.6185 28.7247 59.643 28.2997C59.6675 27.2247 59.643 26.1747 59.643 25.0747C59.1767 25.0497 58.784 25.0247 58.1949 24.9747C58.7594 24.5747 59.1767 24.2997 59.8148 23.8747C59.373 23.7247 59.1276 23.5747 58.9067 23.5747C58.0722 23.5497 57.2377 23.5497 56.4032 23.5747C56.2068 23.5747 56.0105 23.7247 55.8141 23.8247C56.0105 23.9247 56.2068 24.0997 56.4277 24.1247C57.0168 24.1747 57.6304 24.1497 58.2194 24.1497C58.2194 24.2247 58.244 24.3247 58.244 24.3997C57.9985 24.4497 57.7531 24.4997 57.5322 24.5247C57.3849 24.5497 57.1395 24.4497 57.0659 24.5247C56.9677 24.6247 56.9922 24.8497 56.9431 25.0747H55.6423C55.6423 26.2497 55.6178 27.3747 55.6668 28.4747C55.6668 28.6247 55.9859 28.7497 56.2559 28.9747C56.305 28.4497 56.305 28.1497 56.3295 27.8247ZM18.1143 27.9747C17.3043 28.8747 16.5189 28.9997 15.9298 28.3997C15.3162 27.7747 15.3408 26.4997 15.9789 25.8247C16.5189 25.2497 17.3043 25.3997 18.1143 26.2497C18.3842 26.0497 18.6542 25.8747 18.9242 25.6747C18.237 24.6747 17.0834 24.2747 16.028 24.6247C14.9481 24.9747 14.1872 26.0747 14.2117 27.2247C14.2363 28.3497 14.9971 29.3247 16.0771 29.6497C17.2307 29.9747 18.2615 29.6247 18.8997 28.6247C18.6542 28.3997 18.4088 28.1997 18.1143 27.9747ZM30.46 5.4497C31.4663 5.4497 32.2272 4.7247 32.2026 3.7747C32.1781 2.7997 31.4417 2.0747 30.46 2.0747C29.4782 2.0747 28.7419 2.8247 28.7664 3.7997C28.7664 4.7497 29.4782 5.4497 30.46 5.4497ZM59.8394 29.1497C59.7166 29.1497 59.6185 29.1247 59.5203 29.1247C58.4158 29.1247 57.3113 29.1247 56.2314 29.0997C55.3723 29.0747 55.1023 28.7747 55.1023 27.9247C55.1023 27.0997 55.1023 26.2747 55.1023 25.4497H53.7279C53.4579 26.2247 54.0715 26.0247 54.4396 26.1747C54.366 27.2497 54.8323 28.4497 53.507 29.2497C53.7279 29.4747 53.8506 29.5997 53.9978 29.7747C54.2924 29.4997 54.4887 29.3247 54.6114 29.2247C55.2005 29.4247 55.7159 29.7247 56.2314 29.7497C57.3113 29.8247 58.3913 29.7747 59.4712 29.7747C59.8639 29.7497 59.9866 29.5747 59.8394 29.1497ZM12.1991 29.7497C12.69 29.4497 13.3772 30.0497 13.4018 29.1497C13.4509 27.7747 13.4018 26.4247 13.4263 25.0497C13.4263 24.5997 13.1809 24.5497 12.8373 24.5747C12.5182 24.5747 12.1991 24.5497 12.1991 25.0247C12.1991 26.5497 12.1991 28.0247 12.1991 29.7497ZM12.9109 22.7747C12.42 22.7497 12.1009 22.9997 12.1746 23.4247C12.2236 23.6997 12.5673 24.0497 12.8127 24.0747C13.0091 24.0997 13.3772 23.7497 13.4509 23.4997C13.5736 23.0997 13.3772 22.7497 12.9109 22.7747ZM53.7769 23.9247C54.0715 24.2747 54.3905 24.6247 54.7587 24.9997C54.9796 24.7997 55.1514 24.6497 55.3232 24.4997C54.3169 23.4497 54.2433 23.1747 53.7769 23.9247Z" fill="#FCFCFC"/>
<path d="M87.549 15.0005C89.1443 16.7255 90.7152 18.4255 92.2614 20.1255C92.7769 20.6755 93.2923 21.2255 93.8077 21.8005C95.8694 24.0505 95.5504 27.2005 93.0469 28.9505C91.1079 30.3005 88.8007 30.1255 87.0581 28.5005C86.6163 28.1005 86.1745 27.6755 85.7572 27.2505C85.4382 26.9255 85.1927 26.9255 84.8736 27.2255C84.26 27.8005 83.6464 28.3755 83.0083 28.9255C80.922 30.7755 77.5595 30.1755 76.2095 27.7005C75.5959 26.5755 75.1787 25.3755 75.5223 24.1005C75.7187 23.4005 76.0868 22.7005 76.5532 22.1255C77.6331 20.8005 78.7867 19.5505 79.9403 18.3005C80.8484 17.3005 81.8056 16.3505 82.7628 15.3755C83.1065 15.0255 83.1065 14.8005 82.7628 14.4505C80.8239 12.4005 78.9585 10.2755 76.9704 8.25048C74.246 5.47548 75.645 1.62548 78.4185 0.525484C80.4066 -0.274516 82.1492 -0.174516 83.6955 1.42548C84.0882 1.82548 84.5055 2.17548 84.8982 2.57548C85.2663 2.95048 85.5609 2.90048 85.88 2.52548C86.199 2.15048 86.5917 1.85048 86.9108 1.47548C88.3835 -0.374516 90.9851 -0.249516 92.7032 0.750484C93.685 1.32548 94.2986 2.12548 94.7404 3.25048C95.1822 4.40048 95.2804 5.45048 94.9122 6.55048C94.7404 7.10048 94.3477 7.60048 93.955 8.05048C91.9178 10.3005 89.8316 12.5255 87.7699 14.7755C87.6962 14.7755 87.6471 14.8505 87.549 15.0005ZM85.1682 17.3755C84.6282 17.9005 84.0391 18.4505 83.4746 19.0255C81.8792 20.7005 80.3084 22.3755 78.7131 24.0755C78.124 24.7005 78.0504 25.6005 78.4431 26.2255C78.8849 26.9005 79.6212 27.1005 80.5048 26.7755C81.5111 26.4255 82.1001 25.5755 82.861 24.8505C82.272 24.2005 81.732 23.6005 81.0693 22.8755C81.6584 22.3255 82.272 21.8005 82.8365 21.2005C83.1556 20.8505 83.401 20.8005 83.7446 21.1755C84.2109 21.7005 84.7264 22.1505 85.2418 22.6755C85.9045 22.0255 86.5181 21.4505 87.1808 20.8255C87.868 21.5005 88.5062 22.1505 89.1689 22.7505C89.5125 23.0505 89.4634 23.2255 89.1443 23.5005C88.6534 23.9255 88.1626 24.3755 87.6471 24.8505C88.1135 25.4255 88.5062 25.9255 88.948 26.4005C89.6598 27.1005 91.1079 27.1005 91.7215 26.4505C92.3842 25.7505 92.286 24.6505 91.5006 23.8255C90.4943 22.7755 89.4879 21.7005 88.4571 20.6755C87.4017 19.5005 86.2727 18.4505 85.1682 17.3755ZM83.0083 4.97548C82.5419 4.52548 82.1247 4.15048 81.732 3.72548C81.192 3.17548 80.5539 3.10048 79.8421 3.17548C79.2039 3.25048 78.8603 3.67548 78.6885 4.22548C78.4922 4.82548 78.4676 5.40048 78.934 5.90048C80.922 8.00048 82.8856 10.1005 84.8491 12.2005C85.2173 12.5755 85.4382 12.5005 85.7572 12.1505C87.6717 10.0755 89.5861 8.02548 91.5006 5.95048C92.1387 5.27548 92.286 4.40048 91.8442 3.75048C91.2797 2.92548 90.5679 2.65048 89.6843 3.15048C89.1198 3.45048 88.7025 4.07548 88.1871 4.50048C87.6962 4.90048 87.8926 5.12548 88.2607 5.42548C88.7271 5.82548 89.1689 6.25048 89.6843 6.75048C88.8498 7.52548 88.0889 8.25048 87.279 8.97548C86.6163 8.32548 86.0027 7.75048 85.2664 7.02548C84.6773 7.77548 84.1128 8.42548 83.4501 9.25048C82.7383 8.47548 82.1983 7.85048 81.6338 7.25048C81.3638 6.97548 81.3638 6.75048 81.6338 6.47548C82.0756 6.02548 82.5174 5.52548 83.0083 4.97548Z" fill="#F10D08"/>
<path d="M56.7456 8.09988V6.77488H59.6418V18.9999H56.7456C56.721 18.6749 56.6965 18.3499 56.6719 17.9249C56.4756 18.0499 56.3283 18.1249 56.2056 18.1999C54.2421 19.6249 52.1067 19.8499 49.9714 18.7499C47.8851 17.6749 46.8543 15.7749 46.707 13.4249C46.6334 11.5249 47.0752 9.82488 48.3515 8.37488C50.3395 6.09988 53.6284 5.74988 56.0583 7.57488C56.2301 7.69988 56.4265 7.84988 56.7456 8.09988ZM53.2357 16.8249C55.3711 16.8499 56.8683 15.2499 56.8928 12.9499C56.9174 10.6999 55.4202 9.02488 53.3585 8.99988C51.3458 8.97488 49.7259 10.6499 49.7259 12.7999C49.7259 15.1999 51.1249 16.7999 53.2357 16.8249Z" fill="#101010"/>
<path d="M12.1982 14.1502C13.0573 14.7752 13.8918 15.4002 14.7263 16.0002C13.7936 17.9502 10.431 19.9252 6.99484 19.4752C3.41139 18.9752 0.392457 15.9002 0.0488381 12.3252C-0.319325 8.42518 1.81602 4.95018 5.42401 3.62518C8.68839 2.45018 12.9345 3.80018 14.7753 6.65018C13.9408 7.27518 13.0818 7.90018 12.1982 8.55018C12.0264 8.27518 11.8791 8.07518 11.7319 7.85018C10.7256 6.35018 9.32654 5.70018 7.53481 5.87518C5.79218 6.05018 4.58951 7.02518 3.95136 8.65018C3.1414 10.6752 3.1414 12.7502 4.1968 14.6752C5.79218 17.5752 9.76833 17.7502 11.6337 15.0252C11.83 14.7502 12.0019 14.4752 12.1982 14.1502Z" fill="#101010"/>
<path d="M15.9043 1.2002H18.9478V8.0002C19.2178 7.8002 19.3405 7.7002 19.4877 7.60019C22.4085 5.3002 26.1883 6.7002 26.581 10.4252C26.8755 13.2752 26.6301 16.1752 26.6301 19.1002H23.9302V16.6502V11.8752C23.9302 11.6252 23.9302 11.3752 23.9057 11.1252C23.8075 9.57519 23.0712 8.7752 21.7213 8.7502C20.1995 8.7002 19.1196 9.57519 19.0214 11.0752C18.9232 12.7002 18.9723 14.3002 18.9723 15.9252C18.9723 16.9752 18.9723 18.0252 18.9723 19.1002H15.9043V1.2002Z" fill="#101010"/>
<path d="M93.3906 10.3999C93.857 10.9249 94.446 11.5499 94.986 12.1749C95.3542 12.5999 95.6241 12.6249 95.9923 12.1499C97.0968 10.6999 98.594 10.0499 100.361 10.0749C102.325 10.0999 104.215 11.3249 104.779 13.2249C105.27 14.9999 105.049 17.4249 103.38 18.7749C102.104 19.8499 99.6494 20.4999 97.7595 19.1499C97.1459 18.6999 96.5323 18.1999 95.9923 17.6749C95.6732 17.3749 95.4769 17.3749 95.1823 17.6749C94.6669 18.2249 94.1024 18.7249 93.587 19.2749C93.2924 19.5999 93.0715 19.5999 92.8016 19.2499C92.3843 18.6749 91.918 18.1249 91.4762 17.5749C91.2307 17.2749 91.2307 17.0499 91.5253 16.7749C91.9671 16.3749 92.3352 15.8749 92.777 15.4999C93.2188 15.0999 93.1452 14.8249 92.7279 14.4749C92.237 14.0499 91.8198 13.5749 91.3289 13.1499C90.9853 12.8499 90.9607 12.5749 91.3044 12.2749C91.9671 11.7249 92.5807 11.1499 93.3906 10.3999ZM100.067 13.3999C99.6494 13.5499 99.2076 13.6499 98.8394 13.8499C97.7595 14.4999 97.7349 15.2499 98.7658 15.9749C99.0849 16.1999 99.453 16.3749 99.8457 16.4749C100.852 16.7499 101.883 15.9499 101.858 14.9499C101.858 14.0749 101.122 13.4749 100.067 13.3999Z" fill="#F10D08"/>
<path d="M79.7926 12.5245C79.1544 13.2245 78.639 13.8745 78.0254 14.4245C77.6082 14.7995 77.6573 15.0495 78.0254 15.3995C78.4427 15.7745 78.8108 16.1745 79.179 16.5995C79.449 16.8995 79.5472 17.2245 79.2035 17.5995C78.639 18.2245 78.1236 18.8745 77.51 19.6245C76.7737 18.7495 76.0864 17.9745 75.3746 17.1745C74.712 17.7245 74.172 18.1995 73.6075 18.6495C71.5703 20.3745 68.8459 19.7245 67.5941 18.7745C66.1706 17.6995 65.4097 15.1495 65.9497 13.3745C66.5387 11.4745 68.355 10.0745 70.3676 9.99947C72.0612 9.94947 73.5584 10.4495 74.6629 11.8995C75.2519 12.6495 75.301 12.6245 75.9392 11.9495C76.381 11.4995 76.8228 11.0245 77.2891 10.5745C77.4118 10.4745 77.7309 10.3995 77.8045 10.4995C78.5163 11.1495 79.1544 11.8495 79.7926 12.5245ZM70.7358 13.3745C69.4104 13.3745 68.5759 14.5245 69.1159 15.5495C69.435 16.1745 70.4413 16.5495 71.104 16.3495C71.9139 16.0995 72.6993 15.3995 72.6993 14.8995C72.6748 14.2745 71.7912 13.4995 70.9567 13.3745C70.8585 13.3745 70.7849 13.3745 70.7358 13.3745Z" fill="#F10D08"/>
<path d="M34.3859 6.72559H37.0121C37.0612 7.15059 37.1103 7.55059 37.1594 7.97559C39.0493 6.37559 41.5037 6.07559 43.32 7.25059C44.5472 8.05059 45.1117 9.27559 45.1608 10.6506C45.2589 13.4506 45.1853 16.2506 45.1853 19.1006H42.3873V18.3756C42.3873 16.1756 42.3873 13.9756 42.3873 11.7756C42.3873 11.4756 42.3873 11.2006 42.3382 10.9006C42.1173 9.42559 41.2582 8.60059 40.0065 8.65059C38.5829 8.70059 37.5521 9.65059 37.4784 11.1256C37.4048 12.4506 37.4539 13.7756 37.4539 15.0756C37.4539 16.4006 37.4539 17.7256 37.4539 19.0756H34.3613V6.72559H34.3859Z" fill="#101010"/>
<path d="M29.1088 6.72559H31.8577C31.8823 7.00059 31.9068 7.25059 31.9068 7.50059C31.9068 11.1506 31.8823 14.8006 31.9068 18.4506C31.9068 19.0006 31.7596 19.2256 31.195 19.1756C30.6551 19.1256 30.0906 19.1506 29.5506 19.1756C29.1824 19.2006 29.0352 19.0756 29.0352 18.7006C29.0597 14.8006 29.0352 10.9006 29.0597 7.00059C29.0597 6.92559 29.0842 6.87559 29.1088 6.72559Z" fill="#F10D08"/>
<path d="M49.236 29.475C49.6778 28.75 50.1442 28.025 50.6842 27.175H49.4815C49.3588 26.6 49.3588 26.6 50.6842 26.35C50.6842 26.25 50.7087 26.15 50.7087 26.05C50.7087 25.925 50.6842 25.775 50.6842 25.625H49.4324C49.4079 25.4 49.3833 25.225 49.3342 24.975C49.6288 24.925 49.8742 24.9 50.1933 24.85C49.9969 24.45 49.8497 24.1 49.6778 23.75C50.316 23.375 50.4387 23.5 51.0278 25.025C51.2732 24.575 51.5187 24.25 51.6414 23.875C51.8377 23.4 52.0586 23.475 52.4268 23.725C52.255 24.075 52.0832 24.425 51.8868 24.825C52.1568 24.875 52.3777 24.9 52.5741 24.925C52.6722 25.45 52.6722 25.45 51.445 25.625C51.4205 25.725 51.4205 25.825 51.4205 25.925C51.4205 26.05 51.445 26.175 51.4696 26.35C51.8868 26.375 52.255 26.4 52.6968 26.4C52.7213 26.6 52.7459 26.8 52.7704 27.05C52.3532 27.075 52.0095 27.1 51.5923 27.125C51.6905 28.075 52.2304 28.7 52.8931 29.25C52.6231 29.75 52.3532 29.925 51.985 29.375C51.6659 28.85 51.3468 28.325 51.0032 27.775C50.7332 28.25 50.4633 28.725 50.1933 29.225C49.9233 29.7 49.6288 30 49.187 29.575C48.917 29.7 48.6961 29.8 48.3525 29.95V28.675C47.7143 28.325 47.0516 29.5 46.6589 28.55C46.7571 28.175 46.9043 27.825 46.9289 27.45C46.978 26.625 46.9534 25.8 46.9289 24.975C46.9043 24.7 46.7571 24.425 46.6834 24.175C46.5853 23.875 46.5853 23.65 46.978 23.65C47.7143 23.65 48.4752 23.65 49.2606 23.65C49.2851 23.8 49.3588 23.95 49.3097 24.05C48.6715 25.125 49.1624 26.275 49.0151 27.4C49.0151 27.45 49.1133 27.575 49.187 27.6C49.6042 27.775 49.4569 28.05 49.2606 28.2C48.7697 28.575 49.0397 29 49.0642 29.425C49.1133 29.425 49.187 29.45 49.236 29.475ZM47.6652 26.4H48.3525C48.3279 26.125 48.3279 25.925 48.3034 25.675H47.6898C47.6898 25.925 47.6898 26.1 47.6652 26.4ZM47.6652 28.025C48.4015 27.825 48.4015 27.825 48.2543 27.125C47.4443 27 47.7388 27.575 47.6652 28.025ZM48.3279 24.275H47.6652C47.6898 24.55 47.6898 24.775 47.7143 25.025C47.9352 25 48.1316 25 48.3279 24.975V24.275Z" fill="#101010"/>
<path d="M25.9917 29.5997H24.7891V24.5997C25.2309 24.6747 25.7463 24.2997 25.9672 25.0247C26.9244 24.4247 27.8571 24.2497 28.667 25.2747C29.3788 24.6997 30.1152 24.2497 31.0233 24.7747C31.9069 25.2997 31.9069 26.1747 31.9069 27.0497C31.9069 27.8747 31.9069 28.6997 31.9069 29.5997H30.7778C30.7778 28.7997 30.7778 28.0247 30.7778 27.2247C30.7778 26.8997 30.7533 26.5497 30.7288 26.2247C30.6797 25.7497 30.4097 25.4747 29.9433 25.4747C29.5015 25.4747 29.1334 25.6497 29.0843 26.1247C29.0107 26.8747 28.9861 27.6497 28.9616 28.3997C28.937 28.7997 28.9616 29.1997 28.9616 29.6247H27.808C27.808 29.0747 27.808 28.5247 27.808 27.9747C27.808 27.3997 27.808 26.8247 27.7589 26.2247C27.7344 25.7497 27.4644 25.4747 26.998 25.4747C26.5317 25.4747 26.1635 25.6747 26.0899 26.1747C26.0163 26.6997 26.0163 27.2497 26.0163 27.7747C25.9917 28.3497 25.9917 28.9497 25.9917 29.5997Z" fill="#101010"/>
<path d="M38.9504 24.2502V28.9002H36.5205C36.496 29.2252 36.4714 29.4752 36.4469 29.7252C35.7351 29.9752 35.7351 29.9752 35.6614 28.9252H33.207V24.2752H35.6369C35.686 24.0002 35.7105 23.7752 35.7596 23.5002C35.956 23.4752 36.1523 23.4752 36.3978 23.4502C36.4469 23.7252 36.496 23.9502 36.545 24.2502H38.9504ZM35.6614 28.1002V25.0002C35.146 25.0002 34.6551 24.9752 34.1888 25.0252C34.0661 25.0252 33.8943 25.2252 33.8943 25.3502C33.8697 26.2502 33.8697 27.1752 33.8697 28.1002H35.6614ZM38.214 25.0502H36.5205V28.1002H38.214V25.0502Z" fill="#101010"/>
<path d="M5.96406 29.5994C5.49772 29.5494 4.98229 29.8994 4.78594 29.2494C4.34414 29.3744 3.92689 29.5994 3.50964 29.6494C2.35606 29.7744 1.49702 29.0994 1.42339 27.9494C1.34975 26.8744 1.39884 25.7744 1.39884 24.6244H2.65059C2.65059 25.6244 2.62605 26.5744 2.67514 27.5494C2.69968 27.8994 2.84695 28.3244 3.09239 28.5494C3.31329 28.7494 3.77963 28.7994 4.04961 28.6994C4.3196 28.5994 4.61413 28.2244 4.66322 27.9494C4.76139 27.1244 4.73685 26.2994 4.73685 25.4744C4.73685 24.5744 4.73685 24.5744 5.5959 24.5994C5.69407 24.5994 5.81679 24.6244 6.01315 24.6494V27.1244V29.5994H5.96406Z" fill="#101010"/>
<path d="M6.94531 24.5C7.41165 24.625 7.77981 24.725 8.17252 24.825C8.14798 24.875 8.14798 24.95 8.12343 25C8.41796 24.875 8.71249 24.7 9.03157 24.625C10.1361 24.3 11.1424 24.925 11.2405 26.075C11.3387 27.225 11.2651 28.4 11.2651 29.6H10.1851C10.1851 28.7 10.1851 27.825 10.1851 26.925C10.1851 26.65 10.1606 26.4 10.087 26.125C9.98879 25.675 9.69426 25.425 9.22792 25.45C8.76158 25.475 8.31979 25.65 8.24615 26.175C8.14798 26.85 8.17252 27.55 8.14798 28.25C8.12343 28.7 8.14798 29.125 8.14798 29.625H6.94531V24.5Z" fill="#101010"/>
<path d="M39.9336 23.6758H45.6278V29.6008H39.9336V23.6758ZM40.5963 29.0258C41.7499 29.0258 42.7807 29.0258 43.787 29.0258C44.9406 29.0258 44.9406 29.0258 44.9406 27.8508C44.9406 26.6758 44.9406 25.5008 44.9406 24.3008H40.5963V27.8758V29.0258Z" fill="#101010"/>
<path d="M21.647 24.5004C23.0705 24.5254 24.1995 25.7254 24.175 27.1504C24.1259 28.6254 22.9478 29.8004 21.5242 29.7504C20.1252 29.7004 18.9962 28.4754 19.0698 27.0504C19.0944 25.5504 20.1988 24.4754 21.647 24.5004ZM20.1252 27.1504C20.3952 27.6754 20.567 28.2004 20.8861 28.5754C21.3033 29.0504 22.1133 28.9504 22.5305 28.5004C23.1441 27.8254 23.1687 26.4504 22.5551 25.8004C22.1378 25.3254 21.3033 25.2254 20.9106 25.6754C20.5916 26.0504 20.4197 26.6004 20.1252 27.1504Z" fill="#101010"/>
<path d="M56.3281 27.8254C56.3036 28.1754 56.2791 28.4504 56.2545 28.9754C55.9845 28.7504 55.6654 28.6254 55.6654 28.4754C55.6164 27.3754 55.6409 26.2504 55.6409 25.0754H56.9417C56.9908 24.8504 56.9663 24.6254 57.0645 24.5254C57.1381 24.4504 57.359 24.5504 57.5063 24.5254C57.7517 24.5004 57.9971 24.4504 58.218 24.4004C58.218 24.3004 58.1935 24.2254 58.1935 24.1504C57.6044 24.1504 56.9908 24.1754 56.4018 24.1254C56.2054 24.1004 55.9845 23.9254 55.7882 23.8254C55.9845 23.7254 56.1809 23.5754 56.3772 23.5754C57.2117 23.5504 58.0462 23.5504 58.8807 23.5754C59.1262 23.5754 59.3471 23.7254 59.7643 23.8754C59.1507 24.3004 58.7335 24.6004 58.1444 24.9754C58.7335 25.0254 59.1262 25.0504 59.5925 25.0754C59.5925 26.1754 59.6171 27.2504 59.5925 28.3004C59.5925 28.7254 58.9053 29.0004 58.5862 28.7254C58.5126 28.6754 58.5371 28.4254 58.5862 28.3254C58.6598 28.1754 58.8071 28.0754 58.9298 27.9754C58.7335 27.9004 58.5617 27.8254 58.3653 27.7754C58.2671 27.7504 58.1444 27.7754 58.0953 27.8004C57.6781 28.0504 58.2917 28.8754 57.5063 28.7754C57.3345 28.7504 57.2117 28.2254 57.0154 27.8254H56.3281ZM56.3527 25.5004C56.23 26.2004 56.6472 26.1004 56.9172 26.0754C57.0399 26.0504 57.1381 25.8504 57.2608 25.7504C56.9663 25.6504 56.6718 25.5754 56.3527 25.5004ZM58.4389 26.2254C58.6844 26.0504 58.8316 25.9504 58.9789 25.8254C58.8071 25.7254 58.6598 25.5754 58.488 25.5754C58.3162 25.5754 58.1444 25.7254 57.9726 25.8004C58.1199 25.9254 58.2426 26.0504 58.4389 26.2254ZM58.9053 27.3254C59.1016 26.6004 58.7335 26.6004 58.4144 26.6504C58.2671 26.6754 58.1444 26.8754 57.9971 26.9754C58.2671 27.1004 58.5617 27.2004 58.9053 27.3254ZM57.2117 27.2004C57.3835 26.6004 57.0399 26.5754 56.6963 26.6504C56.5245 26.7004 56.4018 26.9254 56.2545 27.0504C56.3036 27.1004 56.3527 27.1504 56.4018 27.2004H57.2117Z" fill="#101010"/>
<path d="M18.114 27.9751C18.4086 28.2001 18.654 28.4001 18.8995 28.6001C18.2613 29.6001 17.2304 29.9501 16.0769 29.6251C14.9969 29.3001 14.2361 28.3251 14.2115 27.2001C14.187 26.0501 14.9478 24.9501 16.0278 24.6001C17.0832 24.2501 18.2368 24.6501 18.924 25.6501C18.654 25.8501 18.384 26.0501 18.114 26.2251C17.3286 25.4001 16.5187 25.2501 15.9787 25.8001C15.3405 26.4751 15.316 27.7501 15.9296 28.3751C16.5187 29.0251 17.2795 28.9001 18.114 27.9751Z" fill="#101010"/>
<path d="M30.4592 5.4502C29.4774 5.4502 28.7656 4.7752 28.7656 3.8002C28.7656 2.8252 29.5019 2.0752 30.4592 2.0752C31.4409 2.0752 32.2018 2.8002 32.2018 3.7752C32.2264 4.7252 31.4655 5.4502 30.4592 5.4502Z" fill="#F10D08"/>
<path d="M59.8394 29.1508C59.9866 29.5758 59.8639 29.7508 59.4467 29.7508C58.3667 29.7508 57.2868 29.8008 56.2068 29.7258C55.6914 29.6758 55.2005 29.4008 54.5869 29.2008C54.4642 29.3008 54.2678 29.4758 53.9733 29.7508C53.826 29.6008 53.7033 29.4508 53.4824 29.2258C54.8078 28.4508 54.3415 27.2508 54.4151 26.1508C54.0469 26.0258 53.4088 26.2008 53.7033 25.4258H55.0778C55.0778 26.2508 55.0778 27.0758 55.0778 27.9008C55.0778 28.7508 55.3478 29.0508 56.2068 29.0758C57.3113 29.1008 58.4158 29.0758 59.4958 29.1008C59.6185 29.1258 59.7412 29.1508 59.8394 29.1508Z" fill="#101010"/>
<path d="M12.1992 29.7504C12.1992 28.0254 12.1992 26.5254 12.1992 25.0254C12.1992 24.5504 12.4937 24.5754 12.8374 24.5754C13.181 24.5754 13.451 24.6004 13.4264 25.0504C13.4019 26.4254 13.451 27.7754 13.4019 29.1504C13.3773 30.0754 12.6656 29.4504 12.1992 29.7504Z" fill="#F10D08"/>
<path d="M12.8858 22.7752C13.3767 22.7502 13.5731 23.0752 13.4503 23.5002C13.3767 23.7502 13.0086 24.1002 12.7877 24.0752C12.5422 24.0502 12.1986 23.6752 12.1495 23.4252C12.1004 23.0002 12.4195 22.7502 12.8858 22.7752Z" fill="#F10D08"/>
<path d="M53.7773 23.9247C54.2437 23.1747 54.3173 23.4497 55.2991 24.4997C55.1273 24.6497 54.9555 24.7997 54.7346 24.9997C54.4155 24.5997 54.0964 24.2497 53.7773 23.9247Z" fill="#101010"/>
<path d="M85.1682 17.375C86.2727 18.45 87.4017 19.525 88.4817 20.625C89.5125 21.65 90.5188 22.725 91.5251 23.775C92.3351 24.6 92.4333 25.7 91.746 26.4C91.1324 27.05 89.6598 27.075 88.948 26.35C88.5062 25.9 88.1135 25.375 87.6472 24.825C88.1626 24.35 88.6535 23.9 89.1443 23.475C89.4389 23.225 89.488 23.025 89.1689 22.725C88.5062 22.125 87.8681 21.475 87.1808 20.8C86.5181 21.425 85.9291 22 85.2664 22.65C84.7509 22.15 84.2355 21.675 83.7692 21.15C83.4256 20.75 83.2046 20.825 82.861 21.175C82.2965 21.75 81.6829 22.3 81.0939 22.85C81.732 23.575 82.272 24.175 82.8856 24.825C82.1247 25.55 81.5357 26.4 80.5293 26.775C79.6457 27.1 78.9094 26.9 78.4676 26.225C78.0504 25.575 78.1485 24.7 78.7131 24.05C80.2839 22.35 81.8793 20.675 83.4746 19C84.0392 18.425 84.6282 17.9 85.1682 17.375Z" fill="#FCFCFC"/>
<path d="M83.0093 4.97472C82.5184 5.52472 82.0766 6.02472 81.6348 6.47472C81.3648 6.74972 81.3648 6.97472 81.6348 7.24972C82.1993 7.84972 82.7639 8.47472 83.4511 9.24972C84.1138 8.42472 84.6538 7.77472 85.2674 7.02472C86.0037 7.72472 86.6173 8.32472 87.28 8.97472C88.09 8.22472 88.8508 7.52472 89.6853 6.74972C89.1699 6.24972 88.7281 5.82472 88.2618 5.42472C87.8936 5.12472 87.6972 4.89972 88.1881 4.49972C88.7036 4.07472 89.1208 3.47472 89.6853 3.14972C90.5935 2.64972 91.3052 2.94972 91.8452 3.74972C92.287 4.39972 92.1397 5.27472 91.5016 5.94972C89.5871 7.99972 87.6482 10.0747 85.7582 12.1497C85.4392 12.4997 85.2183 12.5747 84.8501 12.1997C82.8866 10.0747 80.923 7.99972 78.935 5.89972C78.4686 5.39972 78.4932 4.79972 78.6895 4.22472C78.8859 3.67472 79.2295 3.24972 79.8431 3.17472C80.5549 3.09972 81.193 3.17472 81.733 3.72472C82.1257 4.14972 82.543 4.52472 83.0093 4.97472Z" fill="#FCFCFC"/>
<path d="M53.2364 16.8243C51.1256 16.7993 49.7266 15.1993 49.7266 12.7993C49.7266 10.6493 51.3219 8.9743 53.3591 8.9993C55.4208 9.0243 56.918 10.6993 56.8935 12.9493C56.8689 15.2493 55.3717 16.8493 53.2364 16.8243Z" fill="#FCFCFC"/>
<path d="M100.068 13.3994C101.123 13.4744 101.859 14.0744 101.859 14.9494C101.884 15.9494 100.829 16.7494 99.8468 16.4744C99.4787 16.3744 99.086 16.1994 98.7669 15.9744C97.736 15.2494 97.7606 14.4994 98.8405 13.8494C99.2087 13.6494 99.6505 13.5494 100.068 13.3994Z" fill="#FCFCFC"/>
<path d="M70.7363 13.3754C70.7854 13.3754 70.8836 13.3754 70.9572 13.4004C71.7917 13.5254 72.6753 14.3004 72.6998 14.9254C72.7244 15.4004 71.939 16.1254 71.1045 16.3754C70.4172 16.5754 69.4355 16.2004 69.1164 15.5754C68.5519 14.5254 69.3864 13.3504 70.7363 13.3754Z" fill="#FCFCFC"/>
<path d="M47.6641 26.3998C47.6641 26.0998 47.6886 25.9248 47.6886 25.6748H48.3022C48.3268 25.9248 48.3268 26.1248 48.3268 26.3998H47.6641Z" fill="#FCFCFC"/>
<path d="M47.6641 28.0243C47.7377 27.5743 47.4432 26.9993 48.2286 27.1493C48.4004 27.8243 48.4004 27.8243 47.6641 28.0243Z" fill="#FCFCFC"/>
<path d="M48.3268 24.2754V25.0004C48.1304 25.0254 47.9586 25.0254 47.7132 25.0504C47.6886 24.7754 47.6886 24.5754 47.6641 24.3004H48.3268V24.2754Z" fill="#FCFCFC"/>
<path d="M35.6628 28.1H33.8711C33.8711 27.15 33.8711 26.25 33.8956 25.35C33.8956 25.225 34.092 25.05 34.1902 25.025C34.6811 25 35.1474 25 35.6628 25V28.1Z" fill="#FCFCFC"/>
<path d="M38.2404 25.0498H36.5469V28.0998H38.2404V25.0498Z" fill="#FCFCFC"/>
<path d="M40.6211 29.0248V27.8748V24.2998H44.9654C44.9654 25.4998 44.9654 26.6748 44.9654 27.8498C44.9654 28.9998 44.9654 28.9998 43.8118 29.0248C42.781 29.0248 41.7501 29.0248 40.6211 29.0248ZM43.64 27.7498C43.1001 27.7998 43.0019 27.6498 43.2719 26.9248C43.5418 26.8998 43.8364 26.9248 44.0818 26.8498C44.2045 26.7998 44.3273 26.6248 44.4254 26.5248C44.3027 26.4248 44.18 26.2998 44.0573 26.2748C43.7873 26.2248 43.4928 26.2498 43.1982 26.2498C43.1737 26.0748 43.1491 25.9748 43.1491 25.8498C43.1491 25.7248 43.1737 25.5998 43.1982 25.4748C44.5236 25.3248 44.5236 25.3248 44.4745 24.8248C43.4437 24.8248 42.4128 24.7998 41.382 24.8498C41.2592 24.8498 41.1365 25.1248 41.0138 25.2748C41.0629 25.3248 41.112 25.3998 41.1611 25.4498H42.3883V26.2498C42.0447 26.2498 41.7747 26.2248 41.5047 26.2748C41.382 26.2998 41.2838 26.4498 41.1611 26.5748C41.2592 26.6748 41.382 26.8498 41.5047 26.8748C41.7992 26.9248 42.0937 26.8998 42.4128 26.8998V27.8498C42.0447 27.8498 41.701 27.8248 41.382 27.8748C41.2347 27.8998 41.1365 28.0748 40.9893 28.1998C41.112 28.3248 41.2347 28.5248 41.382 28.5248C42.4374 28.5498 43.4682 28.5498 44.7691 28.5498C44.4254 27.8998 44.1555 27.4248 43.8855 26.9498C43.8118 26.9498 43.7382 26.9748 43.64 26.9748V27.7498Z" fill="#FCFCFC"/>
<path d="M20.125 27.1498C20.395 26.5998 20.5668 26.0498 20.9104 25.6748C21.3277 25.1998 22.1376 25.3248 22.5549 25.7998C23.1685 26.4748 23.1439 27.8248 22.5303 28.4998C22.1131 28.9498 21.3031 29.0499 20.8859 28.5749C20.5668 28.1999 20.4195 27.6748 20.125 27.1498Z" fill="#FCFCFC"/>
<path d="M56.3541 25.5C56.6732 25.575 56.9677 25.675 57.2622 25.75C57.1395 25.875 57.0413 26.075 56.9186 26.075C56.6486 26.1 56.2314 26.2 56.3541 25.5Z" fill="#FCFCFC"/>
<path d="M58.439 26.2252C58.2426 26.0502 58.1199 25.9252 57.9727 25.8002C58.1445 25.7252 58.3163 25.5752 58.4881 25.5752C58.6599 25.5752 58.8072 25.7502 58.979 25.8252C58.8317 25.9502 58.6844 26.0502 58.439 26.2252Z" fill="#FCFCFC"/>
<path d="M58.9062 27.3247C58.5626 27.1997 58.2926 27.0997 57.998 26.9997C58.1453 26.8747 58.2435 26.6997 58.4153 26.6497C58.7344 26.5747 59.078 26.5997 58.9062 27.3247Z" fill="#FCFCFC"/>
<path d="M57.2131 27.2003H56.4031C56.354 27.1503 56.3049 27.1003 56.2559 27.0503C56.4031 26.9003 56.5258 26.6753 56.6977 26.6503C57.0413 26.5753 57.3849 26.6003 57.2131 27.2003Z" fill="#FCFCFC"/>
<path d="M43.6391 27.7498V26.9498C43.7127 26.9498 43.7863 26.9248 43.8845 26.9248C44.1545 27.3998 44.3999 27.8748 44.7681 28.5248C43.4672 28.5248 42.4364 28.5498 41.381 28.4998C41.2583 28.4998 41.1355 28.2998 40.9883 28.1748C41.111 28.0748 41.2337 27.8748 41.381 27.8498C41.7001 27.7998 42.0437 27.8248 42.4118 27.8248V26.8748C42.1173 26.8748 41.7982 26.8998 41.5037 26.8498C41.381 26.8248 41.2828 26.6498 41.1601 26.5498C41.2828 26.4498 41.381 26.2748 41.5037 26.2498C41.7737 26.1998 42.0682 26.2248 42.3873 26.2248V25.4248H41.1601C41.111 25.3748 41.0619 25.2998 41.0128 25.2498C41.1355 25.0998 41.2583 24.8498 41.381 24.8248C42.4118 24.7998 43.4427 24.7998 44.4736 24.7998C44.5472 25.2998 44.5472 25.2998 43.1973 25.4498C43.1727 25.5748 43.1482 25.6998 43.1482 25.8248C43.1482 25.9248 43.1727 26.0498 43.1973 26.2248C43.4918 26.2248 43.7863 26.1998 44.0563 26.2498C44.179 26.2748 44.3017 26.4248 44.4245 26.4998C44.3017 26.6248 44.2036 26.7998 44.0808 26.8248C43.8109 26.8998 43.5409 26.8748 43.2709 26.8998C43.0009 27.6248 43.0745 27.7998 43.6391 27.7498Z" fill="#101010"/>
</g>
<defs>
<clipPath id="clip0_1008_1278">
<rect width="105" height="30" fill="white"/>
</clipPath>
</defs>
</svg>
