<svg width="107" height="32" viewBox="0 0 107 32" fill="none" xmlns="http://www.w3.org/2000/svg">
<path d="M42.0742 21.0635H44.4615V22.9788H42.0742V21.0635Z" fill="#07285A"/>
<path d="M42.0801 23.6045H44.4759L44.4702 28.6786L42.0801 29.4798V23.6045Z" fill="#07285A"/>
<path d="M55.4771 21.0346L54.8382 22.8437H49.9183V24.6269H55.132L54.3619 26.4533H49.9183V28.7793L47.3342 29.5086V21.0346H55.4771ZM57.8615 21.1207L60.3828 21.1265V27.4583L65.5366 27.4468L64.7665 29.4196L57.8615 29.4168V21.1207ZM63.4602 21.0288H66.532L69.1217 24.2163L71.6031 21.0288H74.6805L70.3396 26.6055V28.874L67.8497 29.5144V26.6227L63.4602 21.0288ZM85.4673 21.0346L84.7001 22.97H82.1046V28.8683L79.5976 29.5086V22.97H76.3433V21.0346H85.4673ZM86.959 21.115H95.4641L94.8166 22.8724H89.5088V24.4891H95.1018L94.5485 26.0714H89.5088V27.7024H95.4641L94.8166 29.4282H86.959V21.115ZM96.8302 21.1092H99.3829V24.2249H100.013L103.256 21.0805H106.496L102.369 25.1295L107.001 29.3708H103.459L100.013 26.1202H99.3829V28.9315L96.8302 29.4627V21.1092ZM42.1719 18.3698L42.7851 10.3839H44.7873L44.2283 17.7811L42.1719 18.3698ZM54.1708 4.64355H56.444V14.3581L57.5592 14.3036L56.9117 16.1069L56.444 16.1443V18.3698L54.1708 19.2341V16.2362L50.0552 16.5118V14.7286L54.1708 14.45V4.64355ZM49.3707 10.3839L49.8926 18.0769L47.9275 17.1924L47.4398 10.3839H49.3707Z" fill="#07285A"/>
<path d="M47.1878 9.59398V18.0393L45.0031 19.0501V9.59398H42.2251V7.88251H45.0031V6.72239L42.3706 6.96073V5.14015L49.8916 4.49691L49.4068 6.28017L47.1878 6.53861V7.88251H49.8916L49.0617 9.59398H47.1878ZM51.7142 10.22L53.5367 11.8195L51.8425 13.5309L50.02 11.9286L51.7142 10.22ZM51.7341 5.6197L53.5566 7.21918L51.8596 8.91341L50.02 7.3283L51.7341 5.6197ZM78.2533 4.84437L80.0387 6.40939L78.3617 8.08353L76.5762 6.51851L78.2533 4.84437ZM81.248 10.9006H82.8909V6.81428H81.3564V4.95636H90.4319V17.0458H91.6241L90.72 18.8118L87.8365 18.829L87.8536 6.81428H85.4521V10.9006H87.4914L86.573 12.7412H85.4521V17.7981L82.8909 18.9209V12.7412H81.248V10.9006ZM76.2169 9.59398H79.7507L79.7706 16.4198L81.3764 16.1441L80.5093 18.2231L77.1894 19.1047V11.4347H76.2169V9.59398ZM68.3678 7.21918H74.5541L73.6186 9.0771H68.5475L74.7537 18.829H71.3968L66.9588 11.7649L62.7034 18.829H59.3094L65.3559 9.0771H59.7087V7.21918H65.5356V4.84437H68.3507L68.3678 7.21918ZM102.593 17.2669L106.906 17.287L105.948 19.0358H102.593V17.2669ZM102.593 15.2051V12.3162L103.532 13.2553C103.71 13.4532 103.924 13.615 104.162 13.7319C104.433 13.8028 104.712 13.8338 104.992 13.8238H106.906V15.5927H104.419C103.959 15.6178 103.497 15.5743 103.05 15.4635C102.884 15.4094 102.73 15.3215 102.599 15.2051H102.593ZM102.599 9.90411V7.9744C102.74 7.83841 102.862 7.68386 102.961 7.51495L104.513 5.03102H106.912L104.63 9.05125C104.531 9.20356 104.417 9.34588 104.29 9.47625C104.168 9.61843 104.017 9.73375 103.848 9.81509C103.529 9.88789 103.201 9.91877 102.873 9.90698L102.599 9.90411ZM99.2251 5.02241L96.8635 17.2583H102.593V19.0243L93.8659 19.0157L96.3387 6.85161H93.2955V5.03102L99.2251 5.02241ZM102.593 7.9744C102.576 7.99163 102.539 8.01173 102.522 8.02896C102.372 8.10932 102.204 8.14705 102.034 8.13808H98.6261L98.281 9.90411H102.593V7.9744ZM102.593 12.3162L101.638 11.36H98.9826L102.137 14.7628C102.274 14.9238 102.424 15.0718 102.588 15.2051L102.593 12.3162ZM22.8734 27.5012C14.3883 31.8086 5.68923 32.9429 3.38756 26.0654C3.36197 25.9958 3.34007 25.9249 3.32196 25.8529C3.04763 24.5345 3.0593 23.172 3.35619 21.8585C5.7149 9.45327 21.0508 0 21.0508 0C20.526 0.287159 20.0212 0.594419 19.5221 0.893064C8.27612 7.3685 2.93407 14.2488 1.00888 19.3603C-0.431451 23.1852 0.0305948 25.6634 0.238801 26.4186C0.525347 27.4691 1.05623 28.4357 1.78751 29.2385C5.21007 33.075 11.0912 32.2451 15.6717 30.7375C18.1802 29.9208 20.5945 28.8359 22.8734 27.5012Z" fill="#07285A"/>
<path d="M36.5379 5.92484C36.8773 5.83295 36.6634 5.87316 37.482 5.67502C36.1643 5.40509 28.1498 5.79562 22.0291 13.7155L16.6386 5.71522H14.5508L20.9624 15.1915C20.7999 15.4355 20.6401 15.6796 20.4833 15.9352L20.3777 16.1132L13.3159 5.71522H11.2309L19.4479 17.8046C19.2901 18.086 19.1161 18.3856 18.926 18.7034L10.0844 5.7066H8.01658L17.9249 20.3029C15.609 23.7488 11.7472 28.1079 5.96875 29.2938C5.96875 29.2938 15.9113 30.1553 21.7953 22.1867L26.5897 29.291H28.6775L22.822 20.6331C22.9161 20.4723 23.0103 20.3086 23.1072 20.1421L23.3326 19.7401L29.8069 29.291H31.8947L24.2909 18.0918C24.4734 17.8046 24.6702 17.4772 24.8813 17.1441L33.1353 29.291H35.2231L25.9052 15.5935C28.5006 11.7944 32.4651 7.02753 36.5436 5.92484" fill="#07285A"/>
</svg>
