<svg width="112" height="30" viewBox="0 0 112 30" fill="none" xmlns="http://www.w3.org/2000/svg">
<path d="M24 0H6C2.68966 0 0 2.68966 0 6V24C0 27.3103 2.67672 30 6 30H24C27.3103 30 30 27.3103 30 24V6C29.9871 2.67673 27.3103 0 24 0ZM13.2414 22.125C13.2414 23.0819 12.4655 23.8448 11.5216 23.8448H10.0474C10.875 23.7155 11.5216 22.9914 11.5216 22.125V8.34052C11.5216 7.86207 11.1336 7.48707 10.6552 7.48707H8.0431C7.56466 7.48707 7.17672 7.875 7.17672 8.34052V21.2586C7.17672 21.7371 7.56466 22.125 8.0431 22.125H8.90948C9.38793 22.125 9.81466 22.5129 9.81466 22.9397C9.81466 23.444 9.42672 23.819 8.93534 23.8578H7.16379C6.2069 23.8578 5.43104 23.0948 5.43104 22.1379V7.46121C5.43104 6.50431 6.2069 5.74138 7.16379 5.74138H11.5086C12.4655 5.74138 13.2284 6.50431 13.2284 7.46121V22.125H13.2414ZM25.3707 5.75431C25.3707 6.71121 24.5948 7.47414 23.6509 7.47414H17.5733C17.0948 7.47414 16.7069 7.86207 16.7069 8.34052V11.819H25.3707V11.8319C25.3707 12.6595 24.7759 13.3707 23.9871 13.5259V23.1078C23.9871 24.0647 23.2112 24.8276 22.2543 24.8276V13.5647H16.7069V23.1078C16.7069 24.0647 15.931 24.8276 14.9871 24.8276H14.9741V7.47414C14.9741 6.51724 15.75 5.75431 16.7069 5.75431H25.3707Z" fill="#FF4713"/>
<path d="M11.1089 6H6.738C5.77821 6 5 6.76051 5 7.71438V22.3318C5 23.2856 5.77821 24.0461 6.738 24.0461H8.51491C9.00778 24.0075 9.39689 23.6336 9.39689 23.1309C9.39689 22.7056 8.96887 22.3189 8.48898 22.3189H7.61997C7.14008 22.3189 6.75097 21.9322 6.75097 21.4552V8.57802C6.75097 8.10109 7.14008 7.72727 7.61997 7.72727H10.2399C10.7198 7.72727 11.1089 8.11398 11.1089 8.57802V22.3318C11.1089 23.1954 10.4734 23.9301 9.63035 24.0461H11.1089C12.0687 24.0461 12.834 23.2856 12.834 22.3318V7.71438C12.834 6.7734 12.0558 6 11.1089 6ZM17.179 7.72727H23.275C24.2348 7.72727 25 6.95386 25 6.01289V6H16.297C15.3372 6 14.559 6.7734 14.559 7.71438V25H14.572C15.5318 25 16.297 24.2266 16.297 23.2856V13.7727H21.8612V25C22.821 25 23.5992 24.2266 23.5992 23.2856V13.7341C24.3904 13.5794 24.987 12.8833 24.987 12.0455V12.0326H16.297V8.56513C16.31 8.11398 16.6991 7.72727 17.179 7.72727Z" fill="white"/>
<path d="M54.7806 11.1504V11.0668H47.3599V10.0406H53.3326C54.6642 10.0406 54.7806 9.39618 54.7806 8.78759V8.70406H47.3599V8H45.4336V8.70406H38.0129V10.0525H45.4336V11.0788H38.0129V12.4272H53.3456C54.6642 12.4033 54.7806 11.7589 54.7806 11.1504ZM54.7806 17.5704V17.4869H51.2124V16.568H52.4406C53.6688 16.568 54.6642 15.7924 54.6642 14.8258V13.1671H38.1164V14.8258C38.1164 15.7924 39.1118 16.568 40.34 16.568H41.0898V17.4869H38V18.8234H53.3326C54.6642 18.8234 54.7806 18.179 54.7806 17.5704ZM40.5468 15.2315C40.2753 15.2315 40.0556 15.0525 40.0556 14.8377V14.5274H52.7379V14.8377C52.7379 15.0644 52.5182 15.2315 52.2467 15.2315H40.5468ZM49.2862 17.4869H43.029V16.568H49.2862V17.4869ZM109.156 8H107.449V8.85919H104.644V8H102.937V22.9881H110.565C111.884 22.9881 112 22.2363 112 21.5203V21.4129H109.156V18.7995H110.565C111.884 18.7995 112 18.0358 112 17.3317V17.2243H109.156V14.611H110.565C111.884 14.611 112 13.8592 112 13.1432V13.0358H109.156V10.4224H110.565C111.884 10.4224 112 9.65871 112 8.95465V8.84726H109.156V8ZM107.449 21.4129H104.644V18.7995H107.449V21.4129ZM107.449 17.2363H104.644V14.6229H107.449V17.2363ZM107.449 13.0477H104.644V10.4344H107.449V13.0477ZM54.6642 21.2578V19.599H38.1164V21.2578C38.1164 22.2124 39.1118 22.9881 40.34 22.9881H52.4406C53.6688 23 54.6642 22.2124 54.6642 21.2578ZM40.5468 21.6635C40.2753 21.6635 40.0556 21.4845 40.0556 21.2697V20.9475H52.7379V21.2697C52.7379 21.4845 52.5182 21.6635 52.2467 21.6635H40.5468ZM99.5245 16.1742C98.4385 16.1742 97.6628 16.389 97.1457 17.463L94.5213 22.9403C96.2795 22.9284 96.8225 22.4988 97.1845 21.7351L99.8477 16.1742H99.5245ZM65.2652 20.4582C66.1831 20.7327 66.9329 21.21 67.644 21.6754C68.7041 22.3556 69.7124 23 71.1862 23C73.1384 23 74.2631 21.9976 74.2631 20.2554V17.6659C74.2631 15.7566 73.1771 14.778 71.0311 14.778H59.4605V11.031H57.4955V16.401H70.8242C72.0136 16.401 72.298 16.6396 72.298 17.6539V19.969C72.298 20.6253 72.2076 21.0907 70.9794 21.0907C70.3459 21.0907 69.6607 20.6969 68.8204 20.2076C67.7215 19.5752 66.3511 18.7757 64.5024 18.5609C64.1405 18.5251 63.7656 18.4893 63.3777 18.4893C61.2446 18.4893 59.0985 19.1456 57.3274 20.327V22.4033C57.8704 22.0095 60.5206 20.1957 63.4294 20.1957C64.0629 20.1957 64.6834 20.2792 65.2652 20.4582ZM59.1761 9.98091H69.1048C71.1087 9.98091 71.4706 10.136 71.4706 12.1527V13.7279H73.4357V11.7709C73.4357 9.25298 72.4661 8.358 69.7383 8.358H57.5084V8.40573C57.5084 8.76372 57.6506 9.98091 59.1761 9.98091Z" fill="#FF4713"/>
<path d="M100.275 10.4344V14.0143H98.1196C96.9176 14.0143 96.8784 13.8234 96.8784 13V11.2458H95.1407V13C95.1407 14.2053 95.4804 15.5895 98.1065 15.5895H100.262V20.327C100.262 20.9714 100.171 21.4129 98.9819 21.4129H98.3678V22.9881H98.9819C101.504 22.9881 102 22.0095 102 20.327V8.85919H95.206C95.2191 9.03819 95.2844 9.61098 95.7025 10.0167C96.003 10.3031 96.4342 10.4463 96.9698 10.4463H100.275V10.4344ZM78.4171 8.85919H77.6985C76.7709 8.85919 76.0131 9.51551 76.0131 10.3747H78.4171V14.7303H77.6985C76.7709 14.7303 76.0131 15.3866 76.0131 16.2339H78.4171V20.3628C78.4171 20.9952 78.3256 21.4845 77.0844 21.4845H76V23H77.2935C79.1879 23 80.2724 22.0453 80.2724 20.3628V8H78.4171V8.85919ZM81.1608 8.85919V10.4344H91.0513C92.0573 10.4344 92.8673 9.73031 92.8673 8.85919V8.84726H81.1608V8.85919Z" fill="#FF4713"/>
<path d="M86.1166 8H88V10.0935H86.1166V8ZM83.7758 22H83.8296C84.287 22 84.7309 21.8037 85.0404 21.4636C85.4036 21.0579 85.5381 20.5215 85.4305 19.9196L84.3005 13.6C84.0987 12.4224 83.3856 11.8729 82.0673 11.8729H82L83.7623 21.9477L83.7758 22Z" fill="#FF4713"/>
<path d="M89.3705 21.3517C90.308 20.3278 90.4955 19.5286 90.75 18.0926L92.0491 11.0624L92.0625 11H91.9955C90.683 11 89.9732 11.5245 89.7723 12.6483C89.7589 12.6982 88.8214 17.6181 88.7679 17.8554C88.2991 19.8907 87.5491 21.3517 86.2232 21.3517H81V23H91.1384C92.1429 23 92.9732 22.2882 93 21.4017V21.3517H89.3705Z" fill="#FF4713"/>
</svg>
