<svg width="120" height="28" viewBox="0 0 120 28" fill="none" xmlns="http://www.w3.org/2000/svg">
<g clip-path="url(#clip0_1008_1467)">
<path d="M119.231 15.9031C119.211 15.923 119.192 15.943 119.192 15.9629C118.807 17.318 118.807 17.318 117.441 17.318C116.864 17.318 116.267 17.338 115.69 17.318C115.151 17.2981 115.093 17.5572 115.324 17.9757C115.921 19.0519 116.729 19.9088 117.807 20.4469C118.134 20.6063 118.269 20.7458 118.153 21.1444C117.98 21.7622 117.903 22.4198 117.807 23.0575C117.73 23.5757 117.537 23.6156 117.133 23.3565C115.17 22.1209 113.535 20.6063 112.688 18.0953C112.38 19.6497 112.091 21.0248 111.861 22.4198C111.784 22.8583 111.61 22.9778 111.225 22.9579C110.764 22.938 110.283 22.918 109.821 22.9579C109.109 23.0376 109.07 22.6988 109.205 22.101C109.494 20.8056 109.744 19.5102 110.032 18.0753C109.551 18.7131 109.186 19.291 108.762 19.7892C107.435 21.3038 105.76 22.2803 103.913 22.9778C103.432 23.1572 103.336 22.9978 103.432 22.5394C103.451 22.4995 103.451 22.4398 103.451 22.3999C103.509 21.1245 103.894 20.128 105.183 19.6298C105.876 19.3707 106.395 18.733 106.838 18.0953C106.953 17.9358 107.184 17.7366 107.088 17.4974C106.973 17.2184 106.684 17.338 106.472 17.318C105.818 17.2981 105.164 17.2981 104.51 17.318C104.125 17.338 103.99 17.1985 104.086 16.8198C104.086 16.7999 104.086 16.78 104.105 16.7401C104.394 14.7472 104.394 14.7472 106.357 14.7074C107.146 14.6874 107.204 14.6077 107.011 13.8305C106.703 12.6348 106.703 12.6348 107.877 12.6946C107.954 12.6946 108.012 12.7145 108.089 12.7145C109.513 12.7344 109.301 12.5949 109.725 14.0298C109.801 14.3287 109.859 14.7074 110.263 14.6675C110.629 14.6476 110.725 14.3088 110.802 14.0099C111.264 12.1366 111.264 12.1366 109.436 12.1366C108.589 12.1366 107.762 12.1166 106.915 12.1366C106.511 12.1565 106.338 12.0967 106.434 11.5785C106.8 9.66538 106.78 9.66538 108.628 9.66538C109.474 9.66538 110.302 9.66538 111.149 9.66538C111.379 9.66538 111.668 9.72516 111.687 9.36644C111.726 8.78851 112.072 8.74865 112.515 8.78851C112.88 8.80844 113.265 8.80844 113.631 8.78851C114.035 8.78851 114.439 8.70879 114.381 9.38637C114.343 9.80488 114.709 9.64545 114.901 9.64545C116.113 9.66538 117.326 9.66538 118.538 9.64545C118.981 9.64545 119.192 9.70524 119.038 10.2433C118.865 10.8412 118.942 11.6583 118.576 12.017C118.211 12.3956 117.422 12.1166 116.825 12.1366C115.979 12.1565 115.151 12.1565 114.304 12.1366C113.977 12.1366 113.785 12.1963 113.746 12.5949C113.708 13.0931 113.573 13.5914 113.458 14.0896C113.4 14.3287 113.323 14.5679 113.631 14.6874C113.9 14.7871 114.073 14.6476 114.227 14.4483C114.324 14.3088 114.439 14.1892 114.516 14.0497C114.766 13.6711 114.882 13.1529 115.363 13.0333C116.113 12.8739 116.902 12.9536 117.672 12.9935C117.98 13.0134 117.845 13.2526 117.768 13.4319C117.576 13.8504 116.998 14.2689 117.268 14.6476C117.441 14.8867 118.153 14.7074 118.615 14.7273C118.827 14.7273 119.038 14.7472 119.25 14.7472V15.9031H119.231Z" fill="#1B6EB1"/>
<path d="M18.1266 16.7402C19.5506 18.1552 20.9746 19.59 22.4371 20.9851C22.7835 21.3238 22.822 21.5829 22.5141 21.9416C21.9753 22.5594 21.4749 23.1972 20.9554 23.795C20.4743 24.3331 20.1664 24.3331 19.7045 23.7552C18.5884 22.3402 17.4723 20.9053 16.3562 19.4705C15.9714 18.9523 15.5672 18.4541 15.1824 17.9359C15.0862 17.8363 14.9899 17.6769 14.836 17.7367C14.6436 17.7964 14.6436 17.9758 14.6436 18.1552C14.7205 19.9687 14.7783 21.7822 14.8552 23.5758C14.913 24.8313 14.9707 26.0868 15.0284 27.3424C15.0477 27.7808 14.9322 28.0199 14.4319 28C13.2388 27.9801 12.0457 27.9801 10.8526 28C10.3716 28 10.2369 27.8007 10.2561 27.3424C10.3908 24.4128 10.5255 21.4633 10.6602 18.5139C10.6795 18.2149 10.7757 17.8562 10.4678 17.7367C10.2369 17.637 10.1022 17.9957 9.94821 18.195C8.48572 20.0484 7.04248 21.9217 5.57999 23.7552C5.11815 24.3331 4.86799 24.3331 4.38691 23.8149C3.88658 23.237 3.42474 22.6192 2.90518 22.0811C2.50107 21.6427 2.52031 21.3438 2.94366 20.9452C4.2522 19.6897 5.5415 18.3744 6.85005 17.0989C6.9655 16.9794 7.10021 16.8797 7.13869 16.6406C6.15729 16.9993 5.15664 17.3381 4.15599 17.7167C3.34777 18.0157 2.53955 18.2947 1.73134 18.6335C1.28874 18.8128 1.11555 18.6932 1.00009 18.2349C0.63447 16.8598 0.595984 16.8399 1.76982 16.2021C4.44464 14.7075 7.11945 13.2527 9.83275 11.8178C10.6217 11.3993 11.0066 10.7616 11.0451 9.86477C11.0836 8.96797 11.1221 8.0911 11.1605 7.19431C11.199 6.33737 10.9681 6.15801 10.2176 6.55658C8.58194 7.39359 6.94626 8.29039 5.31058 9.14733C5.15664 9.22705 5.02193 9.32669 4.86799 9.38648C4.61783 9.46619 4.30993 9.76513 4.09826 9.30676C3.94431 8.94804 3.73264 8.62918 4.19447 8.25053C6.19577 6.57651 8.13934 4.8427 10.1214 3.16868C10.8142 2.59075 11.3145 1.95302 11.5069 1.07616C11.6609 0.438434 12.0072 0 12.6615 0C13.2965 0 13.7006 0.418505 13.8161 1.07616C13.9701 1.97295 14.5089 2.57082 15.1631 3.12883C17.1259 4.80285 19.0503 6.51673 21.0323 8.17082C21.5134 8.5694 21.4557 8.92811 21.2055 9.34662C20.9169 9.82491 20.609 9.46619 20.3203 9.30676C18.5692 8.37011 16.8181 7.45338 15.0669 6.53665C14.3742 6.17794 14.1625 6.31744 14.1625 7.09466C14.1817 8.11103 14.201 9.1274 14.2972 10.1238C14.3742 10.9609 14.8745 11.479 15.6057 11.8776C18.319 13.3324 21.0323 14.7872 23.7264 16.2819C24.0343 16.4612 24.5731 16.5409 24.5731 16.9395C24.5731 17.4776 24.3999 18.0356 24.2075 18.5338C24.0728 18.8726 23.7649 18.6733 23.534 18.5737C21.8405 17.9559 20.1471 17.3381 18.4537 16.7203C18.3768 16.7004 18.2998 16.6605 18.2036 16.6406C18.1843 16.6804 18.1651 16.7004 18.1266 16.7402Z" fill="#196EB4"/>
<path d="M96.6966 18.1747C96.3887 19.7092 96.1 21.1042 95.8499 22.4992C95.7729 22.9377 95.5997 23.0572 95.2149 23.0373C94.6953 23.0174 94.1757 22.9775 93.6754 23.0373C93.0596 23.0971 93.0404 22.838 93.1558 22.3398C93.4637 20.9249 93.7139 19.5099 93.964 18.0551C92.9249 19.9483 91.347 21.2238 89.5188 22.1804C88.9031 22.4992 88.2295 22.7384 87.5945 23.0373C87.2866 23.1768 87.0942 23.1768 87.2096 22.7184C87.3636 22.0608 87.4791 21.4031 87.5945 20.7256C87.6522 20.3868 87.8832 20.2672 88.1526 20.1277C89.3264 19.5298 90.3078 18.7128 91.1353 17.6765C91.3277 17.4373 91.6164 17.2181 91.4817 16.8594C91.347 16.5206 90.9813 16.6601 90.7312 16.6601C90.1346 16.6402 89.5188 16.6402 88.9031 16.6601C88.5759 16.6601 88.4027 16.6402 88.4797 16.1818C88.8261 14.0494 88.8068 14.0494 90.8659 14.0494C91.9627 14.0494 93.0596 14.0494 94.1565 14.0494C94.676 14.0494 95.2149 13.1526 94.9839 12.6743C94.8685 12.4551 94.6568 12.5348 94.4836 12.5348C93.3483 12.5149 92.1937 12.5149 91.0583 12.5348C90.5772 12.5547 90.4425 12.4152 90.5772 11.917C90.7504 11.2992 90.6542 10.4423 91.0391 10.0636C91.4624 9.64514 92.2899 9.964 92.9441 9.94407C93.6369 9.92414 94.3489 9.90421 95.0417 9.94407C95.4843 9.964 95.6959 9.80457 95.6959 9.36613C95.6959 8.86791 95.9269 8.68855 96.4079 8.72841C96.7736 8.76827 97.1584 8.74834 97.524 8.72841C98.1013 8.68855 98.5055 8.80813 98.3708 9.56542C98.2938 10.0238 98.6402 9.92414 98.8711 9.92414C99.9679 9.92414 101.065 9.94407 102.162 9.90421C102.604 9.88428 102.681 10.0636 102.585 10.4423C102.547 10.5619 102.527 10.6814 102.508 10.801C102.142 12.5149 102.142 12.5149 100.43 12.5149H98.2553C97.3316 12.5149 97.7165 13.332 97.601 13.7704C97.4663 14.3085 97.9666 14.0295 98.1783 14.0494C99.6023 14.0693 101.026 14.0893 102.45 14.0494C103.047 14.0295 103.105 14.2686 103.008 14.7668C102.662 16.6402 102.681 16.6601 100.853 16.6601H100.218C99.1597 16.6601 99.102 16.7797 99.5061 17.7562C99.9295 18.7725 100.564 19.6295 101.507 20.1875C101.815 20.3668 101.912 20.5661 101.815 20.9448C101.661 21.5426 101.565 22.1804 101.469 22.7982C101.411 23.2565 101.238 23.2765 100.872 23.0572C98.948 21.9412 97.4856 20.4466 96.6966 18.1747Z" fill="#1A6FB3"/>
<path d="M50.0523 8.74941C50.8413 8.74941 51.6495 8.76934 52.4385 8.74941C52.8619 8.72948 53.0158 8.92877 53.0735 9.32734C53.4007 11.7985 53.7278 14.2498 54.0549 16.7209C54.3051 18.5544 54.5168 20.4078 54.7862 22.2412C54.8632 22.8391 54.7092 23.0583 54.0934 23.0184C53.3429 22.9587 52.5925 22.9587 51.8612 23.0184C51.2839 23.0583 51.053 22.7992 51.0145 22.2612C50.9568 21.6832 50.8606 21.1053 50.8028 20.5273C50.7643 20.069 50.5719 19.8697 50.0908 19.8697C48.6283 19.8896 47.1466 19.8896 45.6841 19.8697C45.2993 19.8697 45.0876 20.0291 44.9144 20.3679C44.568 21.0654 44.2024 21.7231 43.8753 22.4206C43.6828 22.8391 43.4327 23.0384 42.9516 23.0184C42.1819 22.9786 41.4121 23.0184 40.6424 23.0184C39.8534 23.0184 39.7764 22.8989 40.1421 22.2213C40.7771 20.9857 41.4506 19.77 42.0856 18.5345C43.6828 15.4654 45.28 12.3765 46.8772 9.28749C47.0696 8.90884 47.2813 8.76934 47.6854 8.76934C48.4552 8.76934 49.2441 8.74941 50.0523 8.74941Z" fill="#E98627"/>
<path d="M37.8323 8.74902C40.1222 8.74902 42.4122 8.76895 44.7021 8.74902C45.2987 8.74902 45.3949 8.90845 45.1062 9.4266C44.7791 9.98461 44.4135 10.5426 44.2018 11.1405C43.9132 11.9775 43.3936 12.1768 42.6046 12.1369C41.6424 12.0771 40.6803 12.1369 39.7374 12.117C39.2178 12.0971 38.9676 12.2366 38.8522 12.8544C38.2941 16.0031 37.6591 19.1519 37.0818 22.3006C36.9856 22.7988 36.8316 23.0579 36.2736 23.0181C35.3114 22.9583 34.3492 22.9383 33.4063 23.0181C32.6174 23.0778 32.7136 22.6593 32.8098 22.1611C33.2909 19.6899 33.772 17.2387 34.253 14.7875C34.3877 14.0899 34.4647 13.4124 34.6379 12.7348C34.7726 12.2166 34.5609 12.1369 34.1568 12.1569C32.9445 12.1569 31.7322 12.117 30.5198 12.1768C29.8656 12.1967 29.7501 11.9376 29.8656 11.3597C30.0003 10.702 30.135 10.0444 30.2312 9.36682C30.2889 8.90845 30.5006 8.76895 30.924 8.76895C33.1947 8.76895 35.5231 8.74902 37.8323 8.74902Z" fill="#E98627"/>
<path d="M61.3282 22.9779C59.6732 22.9779 58.0183 22.958 56.3634 22.9978C55.8053 23.0177 55.6706 22.7985 55.7861 22.2804C56.4596 18.9323 57.1139 15.5843 57.7874 12.2163C57.9606 11.2996 58.1338 10.3629 58.2877 9.44622C58.3647 8.948 58.5571 8.70885 59.1152 8.72878C60.0196 8.78857 60.9433 8.76864 61.8477 8.72878C62.3865 8.70885 62.4635 8.92807 62.3865 9.40636C61.8477 12.1167 61.3089 14.8469 60.7894 17.5573C60.6931 18.0555 60.6354 18.5537 60.4815 19.032C60.3275 19.5302 60.5199 19.6099 60.9433 19.6099C62.9061 19.59 64.8689 19.6298 66.8317 19.59C67.4283 19.5701 67.64 19.7096 67.4668 20.3473C67.2936 21.0049 67.1589 21.6626 67.0627 22.3202C67.0049 22.8185 66.8125 22.958 66.3507 22.958C64.638 22.9779 62.9831 22.9779 61.3282 22.9779Z" fill="#E78627"/>
<path d="M70.4102 23.6759C70.5833 22.7791 70.7373 21.962 70.8912 21.1449C70.949 20.8858 71.1799 20.846 71.3531 20.7463C71.9881 20.4076 72.6039 20.009 73.1427 19.5108C73.4698 19.2118 73.4506 19.0325 73.1619 18.7734C72.7578 18.4346 72.3922 18.056 71.9881 17.7371C71.7187 17.5378 71.6995 17.3784 71.9111 17.0994C72.6231 16.1029 73.1619 15.0068 73.643 13.8709C73.8355 13.4325 73.7585 13.293 73.2774 13.293C72.4115 13.3129 72.4115 13.273 72.5654 12.4161C72.5847 12.3762 72.5846 12.3165 72.5846 12.2766C72.6809 11.7784 72.6424 11.1805 72.9118 10.8218C73.2197 10.4232 73.8355 10.6823 74.3165 10.6823C74.7399 10.6624 74.7207 10.3435 74.7784 10.1044C75.0863 8.74919 75.067 8.74919 76.4141 8.74919C76.5873 8.74919 76.7412 8.74919 76.8951 8.74919C77.4724 8.72926 77.6264 8.96841 77.4917 9.54635C77.2415 10.5627 77.28 10.5826 78.3191 10.6823C79.2813 10.762 79.7047 11.4794 79.3968 12.5755C78.9927 14.0104 78.5308 15.4253 77.915 16.7805C77.6456 17.3983 77.3762 18.0161 76.9721 18.5542C76.7604 18.8332 76.7797 19.0125 77.0106 19.2915C78.0113 20.4076 78.0113 20.4275 77.2223 21.7029C76.9914 22.0816 76.7412 22.4602 76.4718 22.8987C76.1254 22.4004 75.7983 21.9819 75.5289 21.5036C75.2402 21.0253 75.0285 20.9058 74.5475 21.3442C73.4891 22.3406 72.2575 23.0979 70.8912 23.5563C70.7758 23.6161 70.6411 23.636 70.4102 23.6759Z" fill="#1B6EB1"/>
<path d="M85.0934 13.9896C85.6323 14.149 86.0749 14.0693 86.5174 14.0493C86.9985 14.0294 87.0755 14.2486 86.9793 14.6671C86.9793 14.6871 86.9793 14.707 86.96 14.7468C86.8253 15.3646 86.8638 16.1419 86.4982 16.5404C86.1326 16.9589 85.3436 16.66 84.7471 16.66C84.2852 16.66 84.0928 16.8194 84.0158 17.2977C83.7849 18.5931 83.477 19.8885 83.1884 21.1839C82.9574 22.2999 82.3032 22.9177 81.2063 22.9775C80.4173 23.0173 79.6091 22.9775 78.8201 22.9974C78.4738 22.9974 78.3391 22.8778 78.4545 22.5191C78.5122 22.3198 78.57 22.1006 78.5892 21.8814C78.6469 21.144 78.8586 20.7255 79.7246 20.7853C80.3596 20.8451 80.8407 20.3867 80.9946 19.6693C81.1678 18.8522 81.341 18.0152 81.5527 17.1981C81.6681 16.7796 81.5912 16.6401 81.1486 16.66C80.4173 16.6799 79.7053 16.6401 78.9741 16.6799C78.5507 16.6999 78.493 16.5404 78.647 16.1817C78.8779 15.6038 79.128 15.0258 79.3205 14.428C79.4167 14.1291 79.5899 14.0693 79.84 14.0693C80.2057 14.0693 80.5905 14.0892 80.9561 14.0693C81.4372 14.0493 82.0338 14.2885 82.3801 13.9298C82.842 13.4116 83.1691 12.734 83.4963 12.0963C83.6887 11.7376 83.4385 11.5782 83.0921 11.5782C82.4186 11.5782 81.7259 11.5582 81.0524 11.5782C80.6483 11.5981 80.552 11.4387 80.6482 11.0799C80.6482 11.06 80.6675 11.0401 80.6675 11.0002C80.9754 9.22656 80.9754 9.22656 82.7265 9.22656C83.631 9.22656 84.5546 9.22656 85.4591 9.22656C86.0171 9.22656 86.5752 9.30628 86.8253 9.88421C87.0947 10.4821 87.037 11.0999 86.6329 11.6579C86.1518 12.4152 85.6707 13.1725 85.0934 13.9896Z" fill="#1B6EB1"/>
<path d="M22.0907 12.6143C22.0522 13.1723 21.8598 13.4314 21.2825 13.1922C19.4159 12.4349 17.53 11.7175 15.6634 11.0001C15.0862 10.7808 14.836 10.3823 14.9322 9.74455C15.0284 9.2264 15.0862 8.70825 15.2016 8.1901C15.3363 7.55238 15.625 7.4328 16.1445 7.79152C17.0297 8.40932 17.8957 9.0869 18.7616 9.72462C19.7238 10.4421 20.7052 11.1595 21.6481 11.8769C21.879 12.0563 22.2062 12.2157 22.0907 12.6143Z" fill="#E8872A"/>
<path d="M10.4307 9.88494C10.4307 10.4429 10.1805 10.8017 9.73792 10.981C7.81359 11.7383 5.90851 12.4956 3.98418 13.2529C3.75327 13.3326 3.46462 13.3924 3.32991 13.0536C3.17597 12.6351 3.13748 12.2565 3.56083 11.9575C4.61921 11.1803 5.67759 10.3832 6.73597 9.58601C7.5057 9.00807 8.29468 8.43014 9.08365 7.87213C9.73792 7.39384 10.0266 7.53334 10.1805 8.33049C10.2767 8.84864 10.3537 9.38672 10.4307 9.88494Z" fill="#E7862A"/>
<path d="M49.5312 11.7578C49.8006 12.4553 49.7813 13.2126 49.8968 13.9301C49.993 14.6276 50.07 15.3051 50.1855 16.0027C50.2624 16.4012 50.1085 16.5208 49.7429 16.5208C48.9539 16.5009 48.1649 16.5208 47.3759 16.5009C47.1835 16.5009 46.8564 16.5607 47.0488 16.182C47.8185 14.7272 48.492 13.2126 49.358 11.8375C49.3965 11.7977 49.4542 11.7977 49.5312 11.7578Z" fill="#F9F8EE"/>
<path d="M76.9359 13.8103C76.9359 13.8302 76.8974 13.9498 76.8589 14.0694C76.4548 15.1655 75.916 16.2018 75.3002 17.1982C75.204 17.3576 75.1078 17.6765 74.8384 17.4174C74.6652 17.258 74.2996 17.1584 74.492 16.7398C75.0116 15.6836 75.5311 14.6473 76.0314 13.5911C76.1662 13.3121 76.3778 13.2922 76.6087 13.332C76.8397 13.3519 76.9551 13.4715 76.9359 13.8103Z" fill="#EBF8F9"/>
</g>
<defs>
<clipPath id="clip0_1008_1467">
<rect width="118.462" height="28" fill="white" transform="translate(0.769531)"/>
</clipPath>
</defs>
</svg>
